<svg width="342" height="228" viewBox="0 0 342 228" fill="none" xmlns="http://www.w3.org/2000/svg">
<path d="M318 193.334H23V193.481H318V193.334Z" fill="#E6E6E6"/>
<path d="M68.2883 199.544H57.5444V199.692H68.2883V199.544Z" fill="#E6E6E6"/>
<path d="M93.5934 199.474H72.6189V199.621H93.5934V199.474Z" fill="#E6E6E6"/>
<path d="M122.869 202.923H105.871V203.071H122.869V202.923Z" fill="#E6E6E6"/>
<path d="M177.887 196.623H143.797V196.77H177.887V196.623Z" fill="#E6E6E6"/>
<path d="M275.614 199.192H245.1V199.34H275.614V199.192Z" fill="#E6E6E6"/>
<path d="M241.825 199.192H236.019V199.34H241.825V199.192Z" fill="#E6E6E6"/>
<path d="M290.27 202.845H284.464V202.993H290.27V202.845Z" fill="#E6E6E6"/>
<path d="M162.83 166.996H48.9069C48.0145 166.995 47.1591 166.639 46.5286 166.007C45.8981 165.374 45.5439 164.518 45.5439 163.624V3.34229C45.5517 2.45417 45.9093 1.60499 46.5389 0.979195C47.1686 0.353396 48.0196 0.00152138 48.9069 0H162.83C163.724 0 164.58 0.355244 165.212 0.987581C165.844 1.61992 166.199 2.47755 166.199 3.37181V163.624C166.199 164.519 165.844 165.376 165.212 166.009C164.58 166.641 163.724 166.996 162.83 166.996ZM48.9069 0.118102C48.0536 0.119667 47.2357 0.460046 46.6329 1.06453C46.03 1.66901 45.6914 2.4882 45.6914 3.34229V163.624C45.6914 164.479 46.03 165.298 46.6329 165.902C47.2357 166.507 48.0536 166.847 48.9069 166.849H162.83C163.684 166.847 164.502 166.507 165.106 165.903C165.71 165.298 166.05 164.479 166.051 163.624V3.34229C166.05 2.48766 165.71 1.66848 165.106 1.06417C164.502 0.459854 163.684 0.119663 162.83 0.118102H48.9069Z" fill="#E6E6E6"/>
<path d="M290.453 166.996H176.524C175.631 166.995 174.775 166.639 174.143 166.007C173.512 165.375 173.157 164.518 173.155 163.624V3.34229C173.164 2.45364 173.523 1.60446 174.154 0.978825C174.784 0.353189 175.636 0.00150479 176.524 0H290.453C291.339 0.00307331 292.189 0.355634 292.817 0.981267C293.446 1.6069 293.802 2.45519 293.81 3.34229V163.624C293.81 164.517 293.457 165.372 292.827 166.005C292.198 166.636 291.344 166.993 290.453 166.996ZM176.524 0.118102C175.67 0.119663 174.852 0.459854 174.248 1.06417C173.644 1.66848 173.304 2.48766 173.303 3.34229V163.624C173.304 164.479 173.644 165.298 174.248 165.903C174.852 166.507 175.67 166.847 176.524 166.849H290.453C291.307 166.847 292.125 166.507 292.729 165.903C293.333 165.298 293.673 164.479 293.674 163.624V3.34229C293.673 2.48766 293.333 1.66848 292.729 1.06417C292.125 0.459854 291.307 0.119663 290.453 0.118102H176.524Z" fill="#E6E6E6"/>
<path d="M210.024 11.0952H56.984V80.0549H210.024V11.0952Z" fill="#E0E0E0"/>
<path d="M213.234 11.0952H58.4827V80.0549H213.234V11.0952Z" fill="#F0F0F0"/>
<path d="M210.024 80.0555H56.984V86.0256H210.024V80.0555Z" fill="#E0E0E0"/>
<path d="M218.585 80.0555H63.8339V86.0256H218.585V80.0555Z" fill="#EBEBEB"/>
<path d="M208.738 75.5569V15.5966L62.9784 15.5966V75.5569H208.738Z" fill="#FAFAFA"/>
<path d="M90.8914 75.5569L117.27 15.5966H129.719L103.346 75.5569H90.8914Z" fill="white"/>
<path d="M65.0612 65.0109C64.9767 65.0109 64.8956 64.9773 64.8359 64.9175C64.7761 64.8577 64.7426 64.7766 64.7426 64.692V18.52C64.7426 18.4355 64.7761 18.3544 64.8359 18.2946C64.8956 18.2348 64.9767 18.2012 65.0612 18.2012C65.1457 18.2012 65.2267 18.2348 65.2864 18.2946C65.3462 18.3544 65.3798 18.4355 65.3798 18.52V64.692C65.3798 64.7766 65.3462 64.8577 65.2864 64.9175C65.2267 64.9773 65.1457 65.0109 65.0612 65.0109Z" fill="#EBEBEB"/>
<path d="M106.019 75.5569L132.398 15.5966H137.254L110.875 75.5569H106.019Z" fill="white"/>
<path d="M208.744 75.557V15.5966H208.171V75.557H208.744Z" fill="#E0E0E0"/>
<path d="M214.296 21.3484H61.2556L60.8427 17.3447H213.883L214.296 21.3484Z" fill="#E0E0E0"/>
<path d="M214.296 24.2835H61.2556L60.8427 20.2739H213.883L214.296 24.2835Z" fill="#E0E0E0"/>
<path d="M214.296 27.8033H61.2556L60.8427 23.7938H213.883L214.296 27.8033Z" fill="#E0E0E0"/>
<path d="M214.296 31.7142H61.2556L60.8427 27.7046H213.883L214.296 31.7142Z" fill="#E0E0E0"/>
<path d="M214.296 36.4052H61.2556L60.8427 32.4016H213.883L214.296 36.4052Z" fill="#E0E0E0"/>
<path d="M214.296 41.6849H61.2556L60.8427 37.6813H213.883L214.296 41.6849Z" fill="#E0E0E0"/>
<path d="M275.036 16.1871H236.397V67.0182H275.036V16.1871Z" fill="#E0E0E0"/>
<path d="M277.668 16.1871H237.76V67.0182H277.668V16.1871Z" fill="#F5F5F5"/>
<path d="M274.328 63.6754V19.5348L241.105 19.5348V63.6754H274.328Z" fill="white"/>
<path d="M265.803 50.0211H257.177C255.091 50.018 253.092 49.1869 251.617 47.7101C250.143 46.2333 249.314 44.2314 249.312 42.1437V33.5105C249.312 33.4686 249.32 33.4271 249.337 33.3884C249.353 33.3497 249.376 33.3146 249.406 33.285C249.435 33.2554 249.47 33.2319 249.509 33.2159C249.548 33.1998 249.589 33.1916 249.631 33.1916H258.257C260.342 33.1947 262.34 34.025 263.814 35.5005C265.289 36.9761 266.118 38.9764 266.121 41.0631V49.6964C266.121 49.7815 266.088 49.8632 266.028 49.9239C265.969 49.9847 265.888 50.0196 265.803 50.0211ZM249.955 33.8352V42.1437C249.957 44.0607 250.718 45.8989 252.072 47.2549C253.426 48.611 255.262 49.3743 257.177 49.3775H265.49V41.0631C265.487 39.1461 264.724 37.3086 263.369 35.9536C262.014 34.5986 260.178 33.8368 258.263 33.8352H249.955Z" fill="#EBEBEB"/>
<path d="M167.951 113.378C167.951 115.149 169.196 116.413 167.408 116.413C165.621 116.413 161.508 115.167 161.508 113.378C161.508 112.517 161.85 111.69 162.459 111.081C163.067 110.472 163.893 110.13 164.753 110.13C165.614 110.13 166.439 110.472 167.048 111.081C167.657 111.69 167.998 112.517 167.998 113.378H167.951Z" fill="#E6E6E6"/>
<path d="M173.485 114.931C173.485 116.702 174.73 117.96 172.943 117.96C171.155 117.96 167.043 116.714 167.043 114.931C167.043 114.069 167.384 113.243 167.993 112.634C168.602 112.025 169.427 111.683 170.288 111.683C171.148 111.683 171.974 112.025 172.582 112.634C173.191 113.243 173.533 114.069 173.533 114.931H173.485Z" fill="#E6E6E6"/>
<path d="M178.789 113.969C178.789 115.74 180.034 116.998 178.247 116.998C176.459 116.998 172.347 115.752 172.347 113.969C172.347 113.107 172.689 112.281 173.297 111.672C173.906 111.063 174.731 110.721 175.592 110.721C176.452 110.721 177.278 111.063 177.886 111.672C178.495 112.281 178.837 113.107 178.837 113.969H178.789Z" fill="#E6E6E6"/>
<path d="M159.502 114.401C159.502 114.401 159.768 120.713 169.904 120.713C180.04 120.713 180.306 114.401 180.306 114.401H159.502Z" fill="#F5F5F5"/>
<path d="M180.677 76.2542H239.902L243.341 112.033H184.117L180.677 76.2542Z" fill="#E6E6E6"/>
<path d="M210.378 83.9586H219.553L215.458 119.738H206.283L210.378 83.9586Z" fill="#E6E6E6"/>
<path d="M220.119 83.9586L216.679 114.016L216.024 119.738H206.85L207.505 114.016L210.944 83.9586H220.119Z" fill="#F0F0F0"/>
<path d="M220.119 83.9586L216.679 114.016H207.505L210.944 83.9586H220.119Z" fill="#E6E6E6"/>
<path d="M181.226 76.2542H241.766L245.206 112.033H184.666L181.226 76.2542Z" fill="#F0F0F0"/>
<path d="M186.194 110.402L183.061 77.8889H240.238L243.371 110.402H186.194Z" fill="white"/>
<path d="M209.883 119.739H201.77V120.719H209.883V119.739Z" fill="#E6E6E6"/>
<path d="M209.882 120.717H223.405V119.737H209.882V120.717Z" fill="#F0F0F0"/>
<path d="M275.508 120.717H270.912V193.332H275.508V120.717Z" fill="#E6E6E6"/>
<path d="M276.96 120.717H273.768V193.332H276.96V120.717Z" fill="#F0F0F0"/>
<path d="M93.2866 126.368L277.945 126.368V120.717L93.2866 120.717V126.368Z" fill="#F0F0F0"/>
<path d="M91.2336 126.368H86.6375V193.332H91.2336V126.368Z" fill="#E0E0E0"/>
<path d="M92.6791 126.368H89.4872V193.332H92.6791V126.368Z" fill="#F0F0F0"/>
<path d="M62.1405 126.368H57.5444V193.332H62.1405V126.368Z" fill="#E0E0E0"/>
<path d="M63.592 126.368H60.4001V193.332H63.592V126.368Z" fill="#F0F0F0"/>
<path d="M246.421 126.368H241.825V193.332H246.421V126.368Z" fill="#E6E6E6"/>
<path d="M247.873 126.368H244.681V193.332H247.873V126.368Z" fill="#F0F0F0"/>
<path d="M93.2866 120.717H57.5444V126.368H93.2866V120.717Z" fill="#E0E0E0"/>
<path d="M92.6849 96.7902H131.041L136.605 119.46H98.2427L92.6849 96.7902Z" fill="#E6E6E6"/>
<path d="M98.2427 119.461L98.3961 120.719H136.758L136.604 119.461H98.2427Z" fill="#E6E6E6"/>
<path d="M93.8649 96.7902H132.227L137.784 119.46H99.4227L93.8649 96.7902Z" fill="#F0F0F0"/>
<path d="M100.237 118.426L95.1807 97.8226H131.413L136.463 118.426H100.237Z" fill="white"/>
<path d="M109.417 119.461L109.571 120.719H151.815L151.661 119.461H109.417Z" fill="#FAFAFA"/>
<path d="M140.41 193.334H139.13L135.484 175.336L134.846 172.182L130.864 152.571H115.595L107.335 193.317H106.054L114.45 151.821C114.479 151.684 114.552 151.56 114.659 151.469C114.766 151.378 114.9 151.326 115.04 151.319H131.324C131.466 151.318 131.604 151.368 131.713 151.46C131.821 151.552 131.893 151.681 131.914 151.821L135.407 169.047L136.05 172.194L140.41 193.334Z" fill="#F0F0F0"/>
<path d="M164.901 193.332H163.626L155.366 152.587H140.097L136.115 172.21L135.478 175.351L131.825 193.35H130.551L134.84 172.198L135.472 169.062L138.97 151.837C138.998 151.699 139.071 151.575 139.178 151.484C139.285 151.393 139.42 151.34 139.56 151.335H155.838C155.979 151.339 156.114 151.391 156.221 151.482C156.329 151.574 156.402 151.699 156.428 151.837L164.901 193.332Z" fill="#F0F0F0"/>
<path d="M127.288 151.946H155.325C157.902 151.954 160.38 150.949 162.225 149.148C164.07 147.347 165.134 144.893 165.19 142.314L166.234 99.6618C166.253 98.7086 166.082 97.7611 165.73 96.8749C165.379 95.9887 164.854 95.1816 164.187 94.5009C163.52 93.8201 162.724 93.2793 161.846 92.9102C160.967 92.5412 160.024 92.3511 159.072 92.3513H141.466C139.708 92.3515 138.011 92.9992 136.698 94.1709C135.386 95.3426 134.551 96.9566 134.351 98.7052L127.288 151.946Z" fill="#E0E0E0"/>
<path d="M142.581 151.945H112.704C112.333 151.945 111.977 151.798 111.715 151.535C111.453 151.273 111.305 150.917 111.305 150.546V150.416C111.305 149.396 111.71 148.418 112.43 147.697C113.151 146.977 114.128 146.572 115.146 146.572H142.581V151.945Z" fill="#E0E0E0"/>
<path d="M237.76 193.332H236.48L232.834 175.334L232.19 172.18L228.214 152.569H212.98L204.72 193.315H203.44L211.865 151.802C211.894 151.664 211.967 151.541 212.074 151.45C212.181 151.359 212.315 151.306 212.455 151.3H228.739C228.881 151.298 229.019 151.348 229.128 151.44C229.236 151.533 229.308 151.661 229.329 151.802L232.822 169.027L233.465 172.174L237.76 193.332Z" fill="#F0F0F0"/>
<path d="M262.263 193.332H260.988L252.728 152.587H237.459L233.477 172.21L232.839 175.351L229.187 193.35H227.913L232.196 172.198L232.833 169.062L236.332 151.837C236.36 151.699 236.433 151.575 236.54 151.484C236.647 151.393 236.782 151.34 236.922 151.335H253.2C253.341 151.339 253.476 151.391 253.583 151.482C253.69 151.574 253.764 151.699 253.79 151.837L262.263 193.332Z" fill="#F0F0F0"/>
<path d="M224.65 151.946H252.687C255.262 151.951 257.737 150.945 259.579 149.144C261.421 147.343 262.484 144.891 262.54 142.314L263.584 99.6618C263.603 98.7086 263.432 97.7611 263.08 96.8749C262.729 95.9887 262.204 95.1816 261.537 94.5009C260.87 93.8201 260.074 93.2793 259.196 92.9102C258.317 92.5412 257.374 92.3511 256.422 92.3513H238.828C237.069 92.3515 235.372 92.9992 234.06 94.1709C232.748 95.3426 231.912 96.9566 231.712 98.7052L224.65 151.946Z" fill="#F0F0F0"/>
<path d="M239.943 151.945H210.065C209.695 151.945 209.339 151.798 209.077 151.535C208.814 151.273 208.667 150.917 208.667 150.546V150.416C208.667 149.396 209.072 148.418 209.792 147.697C210.512 146.977 211.489 146.572 212.508 146.572H239.943V151.945Z" fill="#F0F0F0"/>
<path d="M81.9351 111.478C81.8244 111.484 81.7141 111.496 81.6047 111.514V110.77C81.6047 110.522 81.5065 110.285 81.3317 110.11C81.1569 109.935 80.9198 109.837 80.6725 109.837H73.3978C73.15 109.837 72.9123 109.935 72.7366 110.11C72.5608 110.285 72.4613 110.522 72.4597 110.77V120.714H81.6047V119.043C81.7142 119.059 81.8245 119.068 81.9351 119.072C82.6648 119.072 83.3648 118.783 83.8813 118.267C84.3979 117.751 84.6889 117.051 84.6904 116.321V114.236C84.6889 113.505 84.3981 112.805 83.8817 112.288C83.3653 111.771 82.6654 111.48 81.9351 111.478ZM83.5104 116.321C83.5089 116.738 83.3422 117.137 83.0469 117.432C82.7517 117.726 82.3519 117.891 81.9351 117.891C81.824 117.892 81.7132 117.88 81.6047 117.856V112.695C81.7137 112.674 81.8242 112.662 81.9351 112.659C82.3524 112.661 82.7522 112.828 83.0473 113.123C83.3424 113.418 83.5089 113.818 83.5104 114.236V116.321Z" fill="#E0E0E0"/>
<path d="M170.5 219.998C233.679 219.998 284.895 217.005 284.895 213.313C284.895 209.622 233.679 206.629 170.5 206.629C107.321 206.629 56.1047 209.622 56.1047 213.313C56.1047 217.005 107.321 219.998 170.5 219.998Z" fill="#F5F5F5"/>
<path d="M104.892 75.4078L105.222 80.6398L108.479 80.752L109.329 75.6499L104.892 75.4078Z" fill="#E4897B"/>
<path d="M135.1 65.7979C134.203 68.5969 133.218 71.2896 132.121 74.0001C131.016 76.7567 129.756 79.4479 128.345 82.0605L127.755 83.0762L127.094 84.1096C127.029 84.2041 127.005 84.2572 126.911 84.3871C126.816 84.517 126.74 84.6292 126.645 84.7473C126.461 84.9881 126.264 85.2188 126.055 85.4382C125.592 85.9112 125.059 86.3096 124.474 86.6192C123.357 87.1879 122.108 87.443 120.857 87.3574C119.863 87.28 118.887 87.0448 117.966 86.6606C117.171 86.3423 116.408 85.9467 115.689 85.4796C115.01 85.056 114.36 84.5885 113.742 84.0801C113.144 83.5919 112.571 83.0735 112.025 82.527C111.468 81.9843 110.941 81.4127 110.444 80.8145L112.804 78.2635C113.335 78.5765 113.943 78.9544 114.515 79.2792C115.087 79.604 115.695 79.9052 116.285 80.2004C117.359 80.7472 118.494 81.1654 119.666 81.4464C120.085 81.5309 120.516 81.5449 120.94 81.4877C121.265 81.4405 121.388 81.3342 121.43 81.2574L121.518 81.1098L121.583 80.9799L121.624 80.8972L121.713 80.72L122.138 79.917L122.557 79.043C123.648 76.6514 124.651 74.0473 125.607 71.4372C126.563 68.8272 127.524 66.164 128.451 63.5657L135.1 65.7979Z" fill="#E4897B"/>
<path d="M112.91 78.3431L109.335 75.6503L108.479 80.7523C108.479 80.7523 111.429 83.0081 113.542 81.0417L112.91 78.3431Z" fill="#E4897B"/>
<path d="M138.209 61.0706C139.708 65.0388 131.772 79.1756 131.772 79.1756L121.807 75.7802C121.807 75.7802 125.347 66.084 128.392 61.5253C131.56 56.8425 136.569 56.689 138.209 61.0706Z" fill="#58B368"/>
<path opacity="0.3" d="M138.209 61.0706C139.708 65.0388 131.772 79.1756 131.772 79.1756L121.807 75.7802C121.807 75.7802 125.347 66.084 128.392 61.5253C131.56 56.8425 136.569 56.689 138.209 61.0706Z" fill="black"/>
<path d="M132.947 58.0297C132.947 58.0297 127.707 67.9444 132.681 92.9053H156.405C156.57 89.2618 154.281 74.9774 157.791 57.8053C155.169 57.2972 152.516 56.9619 149.85 56.8015C146.492 56.6065 143.125 56.6065 139.767 56.8015C137.465 57.033 135.185 57.4436 132.947 58.0297Z" fill="#58B368"/>
<path opacity="0.3" d="M132.947 58.0297C132.947 58.0297 127.707 67.9444 132.681 92.9053H156.405C156.57 89.2618 154.281 74.9774 157.791 57.8053C155.169 57.2972 152.516 56.9619 149.85 56.8015C146.492 56.6065 143.125 56.6065 139.767 56.8015C137.465 57.033 135.185 57.4436 132.947 58.0297Z" fill="black"/>
<path d="M162.523 209.419H158.187L157.367 199.375H161.697L162.523 209.419Z" fill="#E4897B"/>
<path d="M157.367 199.379L157.791 204.551H162.128L161.703 199.379H157.367Z" fill="#CE6F64"/>
<path d="M137.035 209.419H132.705L132.557 199.375H136.894L137.035 209.419Z" fill="#E4897B"/>
<path d="M132.557 199.379L132.634 204.551H136.97L136.894 199.379H132.557Z" fill="#CE6F64"/>
<path d="M132.681 92.9051C132.681 92.9051 129.495 133.603 128.899 147.138C128.28 161.209 131.23 203.313 131.23 203.313H138.28C138.28 203.313 140.853 164.262 142.062 150.48C143.384 135.457 148.275 92.9051 148.275 92.9051H132.681Z" fill="#58B368"/>
<path opacity="0.7" d="M132.681 92.9051C132.681 92.9051 129.495 133.603 128.899 147.138C128.28 161.209 131.23 203.313 131.23 203.313H138.28C138.28 203.313 140.853 164.262 142.062 150.48C143.384 135.457 148.275 92.9051 148.275 92.9051H132.681Z" fill="black"/>
<path d="M158.022 208.917H162.742C162.829 208.918 162.913 208.948 162.98 209.003C163.048 209.057 163.095 209.133 163.113 209.218L163.969 213.074C163.989 213.167 163.988 213.264 163.966 213.357C163.944 213.449 163.902 213.536 163.842 213.61C163.781 213.683 163.705 213.743 163.619 213.783C163.533 213.823 163.439 213.843 163.343 213.842C161.638 213.812 159.172 213.712 157.025 213.712C154.517 213.712 154.169 213.854 151.225 213.854C149.455 213.854 148.947 212.082 149.697 211.887C153.083 211.143 154.033 211.067 156.966 209.26C157.278 209.047 157.644 208.928 158.022 208.917Z" fill="#454D66"/>
<path d="M132.534 208.917H137.254C137.34 208.917 137.424 208.947 137.491 209.002C137.557 209.057 137.603 209.133 137.619 209.218L138.481 213.074C138.501 213.167 138.5 213.264 138.478 213.357C138.456 213.449 138.414 213.536 138.353 213.61C138.293 213.683 138.217 213.743 138.131 213.783C138.045 213.823 137.951 213.843 137.855 213.842C136.144 213.812 133.678 213.712 131.536 213.712C129.023 213.712 126.858 213.854 123.914 213.854C122.144 213.854 121.642 212.082 122.386 211.887C125.778 211.143 128.545 211.067 131.477 209.26C131.789 209.046 132.156 208.927 132.534 208.917Z" fill="#454D66"/>
<path d="M130.746 209.583C130.451 209.654 130.141 209.623 129.867 209.495C129.775 209.443 129.698 209.367 129.645 209.276C129.592 209.185 129.565 209.081 129.566 208.975C129.556 208.915 129.563 208.854 129.586 208.797C129.609 208.741 129.647 208.692 129.696 208.656C130.132 208.331 131.69 208.975 131.867 209.052C131.885 209.06 131.901 209.073 131.912 209.09C131.924 209.107 131.93 209.126 131.932 209.146C131.931 209.167 131.924 209.188 131.913 209.205C131.902 209.223 131.886 209.237 131.867 209.247C131.506 209.398 131.13 209.51 130.746 209.583ZM129.949 208.78C129.903 208.784 129.858 208.8 129.82 208.827C129.79 208.827 129.767 208.875 129.772 208.957C129.775 209.028 129.794 209.098 129.829 209.159C129.864 209.221 129.913 209.273 129.973 209.312C130.498 209.459 131.06 209.4 131.542 209.146C131.04 208.923 130.499 208.799 129.949 208.78Z" fill="#58B368"/>
<path d="M131.843 209.254H131.79C131.295 209.077 130.268 208.256 130.286 207.754C130.288 207.675 130.317 207.6 130.369 207.54C130.42 207.481 130.491 207.442 130.569 207.429C130.647 207.408 130.729 207.402 130.809 207.413C130.889 207.424 130.966 207.452 131.035 207.494C131.625 207.831 131.914 209.077 131.926 209.13C131.931 209.148 131.932 209.167 131.926 209.185C131.921 209.202 131.911 209.218 131.896 209.23C131.881 209.243 131.863 209.251 131.843 209.254ZM130.663 207.612H130.616C130.486 207.654 130.486 207.713 130.48 207.742C130.48 208.038 131.147 208.675 131.66 208.923C131.551 208.429 131.296 207.979 130.929 207.63C130.849 207.596 130.759 207.59 130.675 207.612H130.663Z" fill="#58B368"/>
<path d="M139.637 203.491H130.887L130.126 200.184L139.791 200.355L139.637 203.491Z" fill="#58B368"/>
<path d="M156.234 209.583C155.939 209.654 155.629 209.623 155.355 209.495C155.266 209.439 155.192 209.363 155.14 209.272C155.088 209.182 155.058 209.08 155.054 208.975C155.044 208.915 155.051 208.854 155.074 208.797C155.097 208.741 155.135 208.692 155.184 208.656C155.626 208.331 157.178 208.975 157.355 209.052C157.374 209.059 157.39 209.072 157.402 209.089C157.414 209.106 157.42 209.126 157.42 209.146C157.42 209.168 157.414 209.189 157.403 209.206C157.391 209.224 157.374 209.238 157.355 209.247C156.994 209.398 156.618 209.51 156.234 209.583ZM155.437 208.78C155.391 208.785 155.346 208.801 155.308 208.827C155.288 208.842 155.274 208.863 155.265 208.886C155.257 208.908 155.255 208.933 155.26 208.957C155.262 209.028 155.282 209.098 155.317 209.159C155.352 209.221 155.401 209.273 155.461 209.312C155.986 209.459 156.547 209.4 157.03 209.146C156.528 208.923 155.987 208.799 155.437 208.78Z" fill="#58B368"/>
<path d="M157.331 209.252H157.278C156.788 209.075 155.756 208.254 155.774 207.752C155.777 207.673 155.807 207.597 155.86 207.538C155.913 207.479 155.984 207.439 156.063 207.427C156.14 207.404 156.221 207.398 156.3 207.409C156.379 207.42 156.456 207.449 156.523 207.492C157.113 207.829 157.402 209.075 157.414 209.128C157.423 209.143 157.428 209.16 157.428 209.178C157.428 209.196 157.423 209.213 157.414 209.228C157.39 209.246 157.361 209.255 157.331 209.252ZM156.151 207.61H156.11C155.974 207.652 155.974 207.711 155.974 207.74C155.974 208.035 156.635 208.673 157.154 208.921C157.042 208.426 156.786 207.976 156.417 207.628C156.337 207.594 156.247 207.588 156.163 207.61H156.151Z" fill="#58B368"/>
<path d="M141.1 92.9051C141.1 92.9051 143.112 132.688 145.873 145.396C148.9 159.314 155.508 203.313 155.508 203.313H163.627C163.627 203.313 160.907 160.436 159.178 146.659C157.308 131.702 156.405 92.9228 156.405 92.9228L141.1 92.9051Z" fill="#58B368"/>
<path opacity="0.7" d="M141.1 92.9051C141.1 92.9051 143.112 132.688 145.873 145.396C148.9 159.314 155.508 203.313 155.508 203.313H163.627C163.627 203.313 160.907 160.436 159.178 146.659C157.308 131.702 156.405 92.9228 156.405 92.9228L141.1 92.9051Z" fill="black"/>
<path d="M160.352 198.51C160.361 198.509 160.37 198.505 160.378 198.5C160.387 198.495 160.394 198.489 160.399 198.481C160.405 198.473 160.408 198.465 160.411 198.455C160.413 198.446 160.413 198.437 160.411 198.427C160.346 198.014 158.358 159.536 156.806 147.159C155.125 133.725 154.6 98.0819 154.564 97.7808C154.56 97.761 154.549 97.7434 154.532 97.7315C154.516 97.7195 154.496 97.7139 154.476 97.7158C154.466 97.7165 154.456 97.7193 154.447 97.7239C154.439 97.7285 154.431 97.7349 154.425 97.7427C154.419 97.7505 154.414 97.7595 154.412 97.7691C154.41 97.7787 154.409 97.7887 154.411 97.7985C154.446 98.0996 155.001 133.743 156.659 147.177C158.21 159.578 160.199 198.038 160.264 198.451C160.268 198.47 160.279 198.487 160.296 198.498C160.312 198.509 160.333 198.514 160.352 198.51Z" fill="#58B368"/>
<path opacity="0.4" d="M160.352 198.51C160.361 198.509 160.37 198.505 160.378 198.5C160.387 198.495 160.394 198.489 160.399 198.481C160.405 198.473 160.408 198.465 160.411 198.455C160.413 198.446 160.413 198.437 160.411 198.427C160.346 198.014 158.358 159.536 156.806 147.159C155.125 133.725 154.6 98.0819 154.564 97.7808C154.56 97.761 154.549 97.7434 154.532 97.7315C154.516 97.7195 154.496 97.7139 154.476 97.7158C154.466 97.7165 154.456 97.7193 154.447 97.7239C154.439 97.7285 154.431 97.7349 154.425 97.7427C154.419 97.7505 154.414 97.7595 154.412 97.7691C154.41 97.7787 154.409 97.7887 154.411 97.7985C154.446 98.0996 155.001 133.743 156.659 147.177C158.21 159.578 160.199 198.038 160.264 198.451C160.268 198.47 160.279 198.487 160.296 198.498C160.312 198.509 160.333 198.514 160.352 198.51Z" fill="black"/>
<path d="M163.945 203.489H155.19L154.428 200.182L164.116 199.91L163.945 203.489Z" fill="#58B368"/>
<path d="M148.853 45.4349C148.216 48.6827 147.579 54.6351 149.85 56.8023C149.85 56.8023 148.829 58.9812 142.8 58.9812C137.289 58.9812 139.767 56.8023 139.767 56.8023C143.384 55.9342 143.307 53.2592 142.664 50.7259L148.853 45.4349Z" fill="#E4897B"/>
<path d="M146.31 47.5938L142.646 50.7234C142.803 51.3034 142.908 51.8963 142.959 52.495C144.139 53.6169 146.239 50.7766 146.387 49.3298C146.465 48.7512 146.439 48.1633 146.31 47.5938Z" fill="#CE6F64"/>
<path d="M137.761 35.5379C135.79 36.8548 135.761 43.0906 138.77 43.9527C141.779 44.8148 141.496 33.0696 137.761 35.5379Z" fill="#454D66"/>
<path d="M149.26 40.5507C148.995 44.9441 149.06 47.5305 146.841 49.7922C143.502 53.1876 138.08 51.1681 137.029 46.7806C136.085 42.8301 136.687 36.3049 140.988 34.5511C141.935 34.1603 142.966 34.0184 143.982 34.139C144.999 34.2596 145.968 34.6386 146.797 35.2399C147.627 35.8413 148.288 36.645 148.719 37.5746C149.15 38.5042 149.336 39.5287 149.26 40.5507Z" fill="#E4897B"/>
<path d="M150.782 35.0046L146.54 36.9061C148.204 40.0122 144.463 45.2559 148.233 44.6831C149.962 44.4174 155.414 39.0201 150.782 35.0046Z" fill="#454D66"/>
<path d="M149.685 42.9725C148.635 42.7304 145.366 42.0572 145.331 42.0513C145.306 42.0456 145.285 42.031 145.27 42.0102C145.256 41.9894 145.25 41.964 145.254 41.9391C145.256 41.9266 145.261 41.9147 145.268 41.904C145.274 41.8933 145.283 41.8841 145.294 41.8769C145.304 41.8698 145.316 41.8648 145.328 41.8623C145.341 41.8598 145.354 41.8598 145.366 41.8624C145.401 41.8624 148.676 42.5414 149.732 42.7835C149.757 42.7835 149.781 42.7935 149.799 42.8112C149.817 42.8289 149.826 42.853 149.826 42.878C149.826 42.9031 149.817 42.9271 149.799 42.9448C149.781 42.9626 149.757 42.9725 149.732 42.9725H149.685Z" fill="#454D66"/>
<path d="M151.225 45.3912C150.933 45.8559 150.553 46.2584 150.105 46.5756C149.658 46.8928 149.152 47.1184 148.617 47.2395C147.183 47.5584 146.546 46.2534 147.012 44.9424C147.437 43.7614 148.688 42.1788 150.092 42.4505C150.398 42.5162 150.682 42.6571 150.919 42.8603C151.157 43.0635 151.34 43.3227 151.452 43.6145C151.565 43.9062 151.603 44.2215 151.563 44.5317C151.523 44.8418 151.407 45.1372 151.225 45.3912Z" fill="#E4897B"/>
<path d="M142.847 41.7786C142.847 42.133 142.652 42.4223 142.422 42.4223C142.192 42.4223 141.997 42.133 141.997 41.7786C141.997 41.4243 142.186 41.1291 142.422 41.1291C142.658 41.1291 142.847 41.4184 142.847 41.7786Z" fill="#454D66"/>
<path d="M138.799 41.7786C138.799 42.133 138.611 42.4223 138.375 42.4223C138.139 42.4223 137.956 42.133 137.956 41.7786C137.956 41.4243 138.144 41.1291 138.375 41.1291C138.605 41.1291 138.799 41.4184 138.799 41.7786Z" fill="#454D66"/>
<path d="M139.82 41.9543C139.394 43.0471 138.82 44.0763 138.115 45.0131C138.358 45.1893 138.637 45.3098 138.931 45.3659C139.226 45.4221 139.529 45.4125 139.82 45.3379V41.9543Z" fill="#DE5753"/>
<path d="M140.351 46.8708C140.337 46.8701 140.323 46.8666 140.311 46.8605C140.298 46.8545 140.287 46.846 140.278 46.8356C140.268 46.8251 140.261 46.813 140.257 46.7998C140.252 46.7866 140.25 46.7726 140.251 46.7586C140.251 46.7449 140.254 46.7314 140.259 46.7188C140.264 46.7062 140.272 46.6949 140.282 46.6855C140.292 46.6761 140.304 46.6688 140.317 46.6641C140.33 46.6594 140.343 46.6574 140.357 46.6582C140.802 46.6869 141.247 46.6104 141.657 46.435C142.067 46.2596 142.43 45.9902 142.717 45.6485C142.734 45.6261 142.758 45.6107 142.785 45.6053C142.812 45.5998 142.841 45.6047 142.864 45.6189C142.884 45.6388 142.894 45.6652 142.894 45.6928C142.894 45.7203 142.884 45.7468 142.864 45.7666C142.563 46.1369 142.178 46.4302 141.741 46.6223C141.304 46.8143 140.828 46.8995 140.351 46.8708Z" fill="#454D66"/>
<path d="M144.67 38.7631C144.638 38.7666 144.606 38.7626 144.576 38.7513C144.547 38.74 144.52 38.7218 144.499 38.6981C144.329 38.4942 144.113 38.334 143.869 38.2312C143.624 38.1285 143.359 38.0861 143.095 38.1076C143.039 38.1146 142.983 38.1001 142.938 38.0672C142.893 38.0342 142.863 37.9853 142.853 37.9305C142.844 37.8758 142.857 37.8198 142.889 37.7746C142.921 37.7294 142.969 37.6985 143.024 37.6884C143.354 37.6581 143.687 37.7072 143.995 37.8314C144.303 37.9557 144.577 38.1516 144.794 38.4029C144.832 38.4425 144.853 38.4954 144.853 38.5505C144.853 38.6056 144.832 38.6585 144.794 38.6981C144.76 38.7318 144.717 38.7545 144.67 38.7631Z" fill="#454D66"/>
<path d="M152.527 68.6047L145.599 68.3722L145.58 68.9381L152.509 69.1706L152.527 68.6047Z" fill="#E0E0E0"/>
<path d="M137 38.72C136.969 38.7102 136.941 38.6941 136.917 38.6728C136.879 38.6322 136.857 38.5782 136.857 38.5222C136.857 38.4661 136.879 38.4122 136.917 38.3716C137.147 38.1291 137.431 37.9452 137.746 37.8353C138.061 37.7253 138.398 37.6926 138.729 37.7398C138.759 37.7418 138.788 37.7502 138.815 37.7645C138.841 37.7788 138.865 37.7986 138.883 37.8227C138.901 37.8467 138.915 37.8744 138.921 37.9038C138.928 37.9333 138.929 37.9639 138.923 37.9936C138.917 38.0232 138.905 38.0513 138.887 38.0759C138.869 38.1005 138.847 38.121 138.82 38.1361C138.794 38.1512 138.765 38.1605 138.735 38.1635C138.705 38.1664 138.675 38.1629 138.646 38.1531C138.384 38.1203 138.119 38.1497 137.871 38.239C137.623 38.3283 137.399 38.4749 137.218 38.6669C137.19 38.6947 137.155 38.7143 137.116 38.7237C137.078 38.7331 137.038 38.7318 137 38.72Z" fill="#454D66"/>
<path d="M141.407 35.0052C141.407 35.0052 141.277 31.5803 144.735 31.7574C147.419 31.8933 152.452 35.7906 154.027 35.0052C154.027 35.0052 151.077 38.4893 147.195 37.3673C145.17 36.8403 143.223 36.046 141.407 35.0052Z" fill="#454D66"/>
<path d="M141.407 35.0063C141.407 35.0063 144.31 33.2348 142.387 32.225C139.59 30.7724 136.227 36.0515 134.658 35.2662C134.658 35.2662 135 37.7758 138.746 36.3055C139.665 35.941 140.555 35.5067 141.407 35.0063Z" fill="#454D66"/>
<path d="M142.847 44.8035C141.419 44.8035 140.257 43.3509 140.257 41.5675C140.257 39.985 141.177 39.111 142.847 39.111C144.517 39.111 145.443 39.985 145.443 41.5675C145.443 43.3509 144.281 44.8035 142.847 44.8035ZM142.847 39.3C141.755 39.3 140.446 39.6956 140.446 41.5675C140.446 43.2446 141.525 44.6087 142.847 44.6087C144.168 44.6087 145.248 43.2446 145.248 41.5675C145.248 39.6956 143.95 39.3 142.847 39.3Z" fill="#454D66"/>
<path d="M136.994 44.8035C135.814 44.8035 134.817 43.3509 134.817 41.5675C134.817 39.4299 136.18 39.111 136.994 39.111C137.808 39.111 139.171 39.4299 139.171 41.5675C139.171 43.3509 138.198 44.8035 136.994 44.8035ZM136.994 39.3C136.085 39.3 135.006 39.6956 135.006 41.5675C135.006 43.2446 135.897 44.6087 136.994 44.6087C138.091 44.6087 138.982 43.2446 138.982 41.5675C138.982 39.6956 137.903 39.3 136.994 39.3Z" fill="#454D66"/>
<path d="M138.9 40.5182C138.883 40.5183 138.867 40.514 138.852 40.5057C138.837 40.4974 138.825 40.4855 138.817 40.471C138.81 40.4604 138.805 40.4484 138.803 40.4358C138.801 40.4232 138.802 40.4103 138.805 40.398C138.808 40.3856 138.814 40.3742 138.822 40.3644C138.831 40.3546 138.841 40.3467 138.852 40.3412C139.12 40.1812 139.426 40.0966 139.737 40.0966C140.049 40.0966 140.355 40.1812 140.622 40.3412C140.644 40.3537 140.661 40.374 140.669 40.398C140.676 40.4221 140.675 40.4481 140.664 40.471C140.658 40.4824 140.65 40.4926 140.641 40.5009C140.631 40.5092 140.62 40.5154 140.608 40.5193C140.596 40.5231 140.583 40.5245 140.57 40.5233C140.557 40.5221 140.545 40.5183 140.534 40.5123C140.297 40.3674 140.024 40.2907 139.746 40.2907C139.468 40.2907 139.196 40.3674 138.959 40.5123L138.9 40.5182Z" fill="#454D66"/>
<path d="M144.033 58.3496C144.033 58.3496 145.555 60.4813 145.85 62.0226C147.667 61.2667 151.107 59.3771 151.567 56.708C150.903 56.4977 150.27 56.1999 149.685 55.8222C149.685 55.8222 147.85 57.3812 144.033 58.3496Z" fill="#F0F0F0"/>
<path d="M142.806 58.2475C141.857 59.1551 141.235 60.3508 141.036 61.6488C139.218 60.893 138.504 58.4246 138.982 56.7889C139.672 56.4745 140.394 56.2369 141.136 56.0803C141.109 56.5818 141.262 57.0765 141.569 57.4742C141.875 57.872 142.314 58.1464 142.806 58.2475Z" fill="#F0F0F0"/>
<path d="M154.275 57.0026L153.154 56.9022C153.101 56.8983 153.048 56.9143 153.005 56.9469C152.963 56.9796 152.934 57.0267 152.924 57.0793C149.803 73.8321 151.555 91.6183 151.555 91.6183H152.8C152.121 80.135 152.687 68.6119 154.488 57.2506C154.492 57.22 154.489 57.1889 154.481 57.1593C154.472 57.1297 154.457 57.1023 154.437 57.0788C154.417 57.0554 154.392 57.0365 154.364 57.0233C154.336 57.0102 154.306 57.0031 154.275 57.0026Z" fill="#58B368"/>
<path opacity="0.7" d="M154.275 57.0026L153.154 56.9022C153.101 56.8983 153.048 56.9143 153.005 56.9469C152.963 56.9796 152.934 57.0267 152.924 57.0793C149.803 73.8321 151.555 91.6183 151.555 91.6183H152.8C152.121 80.135 152.687 68.6119 154.488 57.2506C154.492 57.22 154.489 57.1889 154.481 57.1593C154.472 57.1297 154.457 57.1023 154.437 57.0788C154.417 57.0554 154.392 57.0365 154.364 57.0233C154.336 57.0102 154.306 57.0031 154.275 57.0026Z" fill="black"/>
<path d="M152.57 92.0118H151.715C151.61 92.0118 151.509 91.9702 151.435 91.8961C151.361 91.822 151.319 91.7215 151.319 91.6166C151.319 91.5113 151.361 91.4102 151.435 91.3351C151.509 91.2601 151.609 91.2171 151.715 91.2156H152.57C152.676 91.2171 152.777 91.2598 152.852 91.3347C152.927 91.4096 152.97 91.5107 152.971 91.6166C152.97 91.722 152.927 91.8225 152.852 91.8964C152.777 91.9704 152.675 92.0118 152.57 92.0118Z" fill="#E0E0E0"/>
<path d="M151.62 93.0567V91.9347C151.62 91.866 151.634 91.7979 151.66 91.7345C151.687 91.671 151.725 91.6135 151.774 91.5652C151.823 91.5168 151.881 91.4787 151.945 91.4529C152.008 91.4272 152.077 91.4143 152.145 91.4151C152.283 91.4151 152.415 91.4698 152.512 91.5673C152.61 91.6647 152.664 91.7969 152.664 91.9347V93.0567C152.663 93.194 152.608 93.3253 152.511 93.4224C152.414 93.5196 152.282 93.5748 152.145 93.5763C152.007 93.5763 151.874 93.5218 151.776 93.4245C151.678 93.3272 151.622 93.195 151.62 93.0567Z" fill="#E0E0E0"/>
<path d="M135.495 57.2278L134.386 57.4345C134.34 57.443 134.299 57.4659 134.267 57.4999C134.235 57.5339 134.215 57.5772 134.209 57.6235C131.849 74.3821 134.439 91.6191 134.439 91.6191H135.69C133.843 73.3783 135.484 59.6312 135.767 57.4699C135.773 57.434 135.771 57.3969 135.759 57.3622C135.747 57.3276 135.727 57.2966 135.699 57.2723C135.672 57.2479 135.639 57.231 135.603 57.2233C135.567 57.2155 135.53 57.217 135.495 57.2278Z" fill="#58B368"/>
<path opacity="0.7" d="M135.495 57.2278L134.386 57.4345C134.34 57.443 134.299 57.4659 134.267 57.4999C134.235 57.5339 134.215 57.5772 134.209 57.6235C131.849 74.3821 134.439 91.6191 134.439 91.6191H135.69C133.843 73.3783 135.484 59.6312 135.767 57.4699C135.773 57.434 135.771 57.3969 135.759 57.3622C135.747 57.3276 135.727 57.2966 135.699 57.2723C135.672 57.2479 135.639 57.231 135.603 57.2233C135.567 57.2155 135.53 57.217 135.495 57.2278Z" fill="black"/>
<path d="M135.472 92.0118H134.616C134.51 92.0106 134.407 91.9693 134.33 91.896C134.252 91.8228 134.205 91.7231 134.197 91.6166C134.196 91.565 134.205 91.5136 134.223 91.4654C134.242 91.4172 134.269 91.3731 134.305 91.3358C134.341 91.2985 134.384 91.2686 134.431 91.248C134.478 91.2274 134.529 91.2163 134.581 91.2156H135.436C135.544 91.217 135.646 91.2593 135.723 91.3339C135.8 91.4085 135.845 91.5097 135.849 91.6166C135.853 91.6679 135.845 91.7193 135.828 91.7675C135.81 91.8157 135.783 91.8598 135.747 91.897C135.712 91.9341 135.669 91.9635 135.622 91.9832C135.574 92.003 135.523 92.0127 135.472 92.0118Z" fill="#E0E0E0"/>
<path d="M134.569 93.0567L134.516 91.9347C134.513 91.8671 134.523 91.7996 134.547 91.7362C134.571 91.6729 134.608 91.6151 134.655 91.5665C134.701 91.5178 134.758 91.4792 134.82 91.4532C134.883 91.4272 134.95 91.4142 135.017 91.4151C135.157 91.4164 135.291 91.4708 135.392 91.5674C135.492 91.6639 135.553 91.7953 135.56 91.9347L135.613 93.0567C135.617 93.1238 135.606 93.1908 135.583 93.2538C135.559 93.3167 135.523 93.3742 135.477 93.4228C135.43 93.4714 135.375 93.5101 135.313 93.5365C135.251 93.5628 135.185 93.5764 135.118 93.5763C134.978 93.5751 134.843 93.5209 134.741 93.4245C134.64 93.3281 134.578 93.1967 134.569 93.0567Z" fill="#E0E0E0"/>
<path d="M147.107 70.8606C147.021 70.8545 146.941 70.8154 146.884 70.7515C146.827 70.6876 146.797 70.6039 146.8 70.5181L146.965 67.5655C146.966 67.5226 146.977 67.4804 146.995 67.4415C147.013 67.4025 147.039 67.3677 147.071 67.339C147.103 67.3103 147.14 67.2884 147.181 67.2746C147.221 67.2607 147.264 67.2553 147.307 67.2585C147.35 67.2607 147.392 67.2714 147.43 67.2898C147.469 67.3083 147.503 67.3342 147.532 67.366C147.56 67.3978 147.582 67.4349 147.596 67.4753C147.61 67.5156 147.616 67.5583 147.614 67.601L147.449 70.5535C147.447 70.5964 147.437 70.6386 147.419 70.6776C147.401 70.7165 147.375 70.7513 147.343 70.78C147.311 70.8087 147.274 70.8306 147.233 70.8445C147.192 70.8583 147.149 70.8638 147.107 70.8606Z" fill="#58B368"/>
<path d="M148.116 71.9224C148.089 71.9225 148.063 71.9171 148.039 71.9065C148.015 71.8959 147.993 71.8804 147.975 71.8609C147.958 71.8414 147.944 71.8185 147.936 71.7934C147.927 71.7684 147.924 71.7419 147.927 71.7157L148.127 67.5112C148.13 67.4575 148.154 67.407 148.194 67.3706C148.234 67.3342 148.286 67.3148 148.34 67.3164C148.366 67.3179 148.392 67.3246 148.416 67.3361C148.439 67.3476 148.461 67.3637 148.478 67.3834C148.496 67.4032 148.509 67.4262 148.518 67.4512C148.526 67.4762 148.53 67.5026 148.529 67.529L148.328 71.7334C148.326 71.7598 148.32 71.7856 148.308 71.8094C148.297 71.8332 148.281 71.8545 148.261 71.872C148.241 71.8896 148.218 71.9031 148.193 71.9117C148.168 71.9203 148.142 71.924 148.116 71.9224Z" fill="#58B368"/>
<path opacity="0.7" d="M147.107 70.8606C147.021 70.8545 146.941 70.8154 146.884 70.7515C146.827 70.6876 146.797 70.6039 146.8 70.5181L146.965 67.5655C146.966 67.5226 146.977 67.4804 146.995 67.4415C147.013 67.4025 147.039 67.3677 147.071 67.339C147.103 67.3103 147.14 67.2884 147.181 67.2746C147.221 67.2607 147.264 67.2553 147.307 67.2585C147.35 67.2607 147.392 67.2714 147.43 67.2898C147.469 67.3083 147.503 67.3342 147.532 67.366C147.56 67.3978 147.582 67.4349 147.596 67.4753C147.61 67.5156 147.616 67.5583 147.614 67.601L147.449 70.5535C147.447 70.5964 147.437 70.6386 147.419 70.6776C147.401 70.7165 147.375 70.7513 147.343 70.78C147.311 70.8087 147.274 70.8306 147.233 70.8445C147.192 70.8583 147.149 70.8638 147.107 70.8606Z" fill="black"/>
<path opacity="0.7" d="M148.116 71.9224C148.089 71.9225 148.063 71.9171 148.039 71.9065C148.015 71.8959 147.993 71.8804 147.975 71.8609C147.958 71.8414 147.944 71.8185 147.936 71.7934C147.927 71.7684 147.924 71.7419 147.927 71.7157L148.127 67.5112C148.13 67.4575 148.154 67.407 148.194 67.3706C148.234 67.3342 148.286 67.3148 148.34 67.3164C148.366 67.3179 148.392 67.3246 148.416 67.3361C148.439 67.3476 148.461 67.3637 148.478 67.3834C148.496 67.4032 148.509 67.4262 148.518 67.4512C148.526 67.4762 148.53 67.5026 148.529 67.529L148.328 71.7334C148.326 71.7598 148.32 71.7856 148.308 71.8094C148.297 71.8332 148.281 71.8545 148.261 71.872C148.241 71.8896 148.218 71.9031 148.193 71.9117C148.168 71.9203 148.142 71.924 148.116 71.9224Z" fill="black"/>
<path d="M143.165 58.9746L144.033 58.3486L145.874 60.1202L143.165 58.9746Z" fill="#58B368"/>
<path opacity="0.5" d="M143.165 58.9746L144.033 58.3486L145.874 60.1202L143.165 58.9746Z" fill="black"/>
<path d="M143.165 58.9733L142.805 58.2469L140.428 60.1189L143.165 58.9733Z" fill="#58B368"/>
<path opacity="0.5" d="M143.165 58.9733L142.805 58.2469L140.428 60.1189L143.165 58.9733Z" fill="black"/>
<path d="M143.991 59.8816C145.018 59.4978 149.124 56.1791 150.293 57.9034C151.461 59.6277 149.885 60.2655 150.399 61.4465C150.912 62.6275 151.685 64.6234 149.107 64.1038C146.227 63.5133 144.929 61.4996 144.098 61.4524C144.05 60.7556 143.991 59.8816 143.991 59.8816Z" fill="#58B368"/>
<path opacity="0.7" d="M143.991 59.8816C145.018 59.4978 149.124 56.1791 150.293 57.9034C151.461 59.6277 149.885 60.2655 150.399 61.4465C150.912 62.6275 151.685 64.6234 149.107 64.1038C146.227 63.5133 144.929 61.4996 144.098 61.4524C144.05 60.7556 143.991 59.8816 143.991 59.8816Z" fill="black"/>
<path d="M142.357 59.6422C141.496 59.2761 137.944 56.17 137.083 57.7644C136.221 59.3588 137.549 59.9434 137.189 61.0299C136.829 62.1164 136.31 63.9825 138.398 63.51C140.723 62.9904 141.679 61.1185 142.357 61.0771V59.6422Z" fill="#58B368"/>
<path opacity="0.7" d="M142.357 59.6422C141.496 59.2761 137.944 56.17 137.083 57.7644C136.221 59.3588 137.549 59.9434 137.189 61.0299C136.829 62.1164 136.31 63.9825 138.398 63.51C140.723 62.9904 141.679 61.1185 142.357 61.0771V59.6422Z" fill="black"/>
<path d="M144.174 61.5434C144.599 60.8289 144.882 58.8625 143.974 59.2109C143.065 59.5593 142.965 59.6066 142.705 59.4353C142.446 59.2641 141.767 58.9511 141.649 59.6715C141.531 60.3919 141.708 61.8269 142.381 61.7973C143.053 61.7678 143.744 62.2757 144.174 61.5434Z" fill="#58B368"/>
<path opacity="0.7" d="M144.174 61.5434C144.599 60.8289 144.882 58.8625 143.974 59.2109C143.065 59.5593 142.965 59.6066 142.705 59.4353C142.446 59.2641 141.767 58.9511 141.649 59.6715C141.531 60.3919 141.708 61.8269 142.381 61.7973C143.053 61.7678 143.744 62.2757 144.174 61.5434Z" fill="black"/>
<path d="M112.42 74.2369L111.122 83.8504C111.111 83.9255 111.072 83.9936 111.013 84.0416C110.954 84.0896 110.88 84.1141 110.804 84.1103L106.674 83.8623C106.598 83.8551 106.528 83.8206 106.475 83.7652C106.423 83.7097 106.393 83.6372 106.391 83.5611L106.361 81.3939L106.284 76.3392L106.249 73.8826L112.42 74.2369Z" fill="#58B368"/>
<path opacity="0.3" d="M112.42 74.2369L111.122 83.8504C111.111 83.9255 111.072 83.9936 111.013 84.0416C110.954 84.0896 110.88 84.1141 110.804 84.1103L106.674 83.8623C106.598 83.8551 106.528 83.8206 106.475 83.7652C106.423 83.7097 106.393 83.6372 106.391 83.5611L106.361 81.3939L106.284 76.3392L106.249 73.8826L112.42 74.2369Z" fill="black"/>
<path d="M113.122 73.8L105.589 73.3468L105.531 74.3194L113.063 74.7726L113.122 73.8Z" fill="#58B368"/>
<path d="M112.645 73.2815L106.125 72.8892L106.067 73.8618L112.586 74.254L112.645 73.2815Z" fill="#58B368"/>
<path d="M112.645 73.2815L106.125 72.8892L106.067 73.8618L112.586 74.254L112.645 73.2815Z" fill="#F5F5F5"/>
<path d="M113.122 73.8L105.589 73.3468L105.531 74.3194L113.063 74.7726L113.122 73.8Z" fill="#EBEBEB"/>
<path opacity="0.43" d="M108.715 76.4706L108.414 81.5018L106.32 81.3778L106.243 76.323L108.715 76.4706Z" fill="#EBEBEB"/>
<path d="M165.957 106.293L143.661 105.791C143.372 105.774 143.089 105.698 142.831 105.566C142.572 105.434 142.344 105.249 142.161 105.024C141.978 104.799 141.844 104.539 141.767 104.259C141.69 103.979 141.672 103.686 141.714 103.399L143.561 83.8358C143.569 83.5495 143.64 83.2686 143.769 83.013C143.898 82.7574 144.082 82.5334 144.307 82.3569C144.532 82.1805 144.794 82.0559 145.073 81.992C145.352 81.9281 145.641 81.9266 145.921 81.9875L167.751 86.995C168.494 87.1662 169.025 88.1288 168.931 89.1326L167.515 104.486C167.409 105.478 166.718 106.293 165.957 106.293Z" fill="#58B368"/>
<path opacity="0.3" d="M165.957 106.293L143.661 105.791C143.372 105.774 143.089 105.698 142.831 105.566C142.572 105.434 142.344 105.249 142.161 105.024C141.978 104.799 141.844 104.539 141.767 104.259C141.69 103.979 141.672 103.686 141.714 103.399L143.561 83.8358C143.569 83.5495 143.64 83.2686 143.769 83.013C143.898 82.7574 144.082 82.5334 144.307 82.3569C144.532 82.1805 144.794 82.0559 145.073 81.992C145.352 81.9281 145.641 81.9266 145.921 81.9875L167.751 86.995C168.494 87.1662 169.025 88.1288 168.931 89.1326L167.515 104.486C167.409 105.478 166.718 106.293 165.957 106.293Z" fill="white"/>
<path d="M166.37 106.292L144.275 105.79C143.989 105.772 143.71 105.696 143.456 105.565C143.201 105.434 142.977 105.252 142.796 105.03C142.615 104.809 142.482 104.552 142.406 104.276C142.329 104 142.311 103.711 142.351 103.428L144.186 83.941C144.191 83.6588 144.258 83.3811 144.382 83.1276C144.506 82.874 144.683 82.6507 144.903 82.4734C145.122 82.2961 145.378 82.169 145.651 82.1012C145.925 82.0334 146.21 82.0264 146.487 82.0809L168.116 87.0411C168.86 87.2065 169.385 88.169 169.296 89.1729L167.886 104.461C167.792 105.489 167.102 106.292 166.37 106.292Z" fill="#58B368"/>
<path opacity="0.7" d="M166.37 106.292L144.275 105.79C143.989 105.772 143.71 105.696 143.456 105.565C143.201 105.434 142.977 105.252 142.796 105.03C142.615 104.809 142.482 104.552 142.406 104.276C142.329 104 142.311 103.711 142.351 103.428L144.186 83.941C144.191 83.6588 144.258 83.3811 144.382 83.1276C144.506 82.874 144.683 82.6507 144.903 82.4734C145.122 82.2961 145.378 82.169 145.651 82.1012C145.925 82.0334 146.21 82.0264 146.487 82.0809L168.116 87.0411C168.86 87.2065 169.385 88.169 169.296 89.1729L167.886 104.461C167.792 105.489 167.102 106.292 166.37 106.292Z" fill="white"/>
<path d="M166.453 105.381L144.381 104.66C144.246 104.657 144.113 104.625 143.991 104.567C143.869 104.509 143.761 104.426 143.673 104.324C143.571 104.203 143.495 104.063 143.448 103.911C143.401 103.76 143.385 103.601 143.401 103.444L145.219 84.1638C145.232 84.0108 145.276 83.8621 145.35 83.727C145.423 83.5919 145.523 83.4733 145.643 83.3784C145.752 83.3006 145.876 83.2463 146.007 83.2188C146.138 83.1914 146.274 83.1915 146.404 83.219L168.063 87.9431C168.271 88.0308 168.443 88.1869 168.55 88.3855C168.658 88.5841 168.694 88.8134 168.653 89.0355L167.237 104.442C167.242 104.667 167.165 104.886 167.02 105.058C166.876 105.231 166.675 105.345 166.453 105.381ZM146.174 83.3135C146.002 83.3131 145.834 83.3691 145.697 83.4729C145.588 83.557 145.498 83.663 145.433 83.7841C145.368 83.9052 145.329 84.0386 145.319 84.1756L143.496 103.456C143.469 103.741 143.556 104.026 143.738 104.247C143.816 104.337 143.912 104.409 144.019 104.46C144.127 104.511 144.244 104.539 144.363 104.542L166.435 105.269C166.765 105.269 167.066 104.903 167.108 104.448L168.524 89.0414C168.563 88.8441 168.532 88.6392 168.436 88.4623C168.34 88.2854 168.185 88.1477 167.998 88.073L146.345 83.3489C146.29 83.3299 146.233 83.318 146.174 83.3135Z" fill="white"/>
<path d="M157.337 98.9462H157.113C156.767 98.9059 156.433 98.7976 156.129 98.6273C155.825 98.457 155.558 98.2282 155.343 97.9541C154.705 97.144 154.41 96.1155 154.523 95.0901C154.556 94.5896 154.691 94.101 154.92 93.6544C155.148 93.2077 155.465 92.8122 155.85 92.4919C156.12 92.2753 156.432 92.1168 156.766 92.0264C157.1 91.9359 157.449 91.9155 157.791 91.9663C158.166 92.0324 158.524 92.1763 158.84 92.3889C159.156 92.6015 159.424 92.8779 159.626 93.2005C159.632 93.2055 159.636 93.2114 159.638 93.218C159.641 93.2246 159.643 93.2317 159.643 93.2389C159.643 93.2461 159.641 93.2532 159.638 93.2598C159.636 93.2664 159.632 93.2723 159.626 93.2773C159.621 93.2825 159.615 93.2866 159.609 93.2894C159.602 93.2922 159.595 93.2937 159.588 93.2937C159.581 93.2937 159.574 93.2922 159.567 93.2894C159.561 93.2866 159.555 93.2825 159.55 93.2773C159.352 92.9689 159.093 92.7048 158.788 92.5016C158.483 92.2983 158.14 92.1603 157.78 92.0963C157.453 92.0484 157.119 92.0688 156.8 92.1562C156.481 92.2436 156.184 92.3961 155.927 92.6041C155.554 92.9136 155.248 93.2956 155.027 93.727C154.806 94.1584 154.675 94.6301 154.641 95.1138C154.532 96.1113 154.818 97.1118 155.437 97.901C155.863 98.431 156.48 98.7724 157.154 98.8517C157.51 98.8779 157.867 98.8266 158.202 98.7012C158.536 98.5758 158.839 98.3793 159.089 98.1254C159.101 98.1145 159.115 98.1085 159.131 98.1085C159.146 98.1085 159.161 98.1145 159.172 98.1254C159.182 98.137 159.187 98.1516 159.187 98.1667C159.187 98.1818 159.182 98.1964 159.172 98.208C158.93 98.4461 158.643 98.6339 158.328 98.7606C158.013 98.8873 157.677 98.9504 157.337 98.9462Z" fill="white"/>
<path d="M159.095 98.1946C159.08 98.2 159.063 98.2 159.048 98.1946C158.536 97.4266 158.308 96.5031 158.405 95.5846C158.477 94.6889 158.871 93.8497 159.514 93.2225C159.526 93.2116 159.542 93.2057 159.558 93.2063C159.574 93.2068 159.589 93.2137 159.6 93.2255C159.611 93.2372 159.617 93.2528 159.616 93.2689C159.616 93.285 159.609 93.3001 159.597 93.3111C158.963 93.92 158.578 94.7429 158.517 95.62C158.426 96.5096 158.647 97.4032 159.143 98.1474C159.149 98.1524 159.154 98.1587 159.157 98.1658C159.161 98.173 159.162 98.1808 159.162 98.1887C159.162 98.1966 159.161 98.2045 159.157 98.2116C159.154 98.2188 159.149 98.2251 159.143 98.2301L159.095 98.1946Z" fill="white"/>
<path d="M162.134 63.0651C162.942 66.1771 163.644 69.2832 164.27 72.4365C164.582 74.0132 164.86 75.5898 165.137 77.1901C165.273 77.9873 165.408 78.7904 165.52 79.6053L165.686 80.8336L165.78 81.489L165.821 81.802L165.857 82.1799C165.983 83.9991 165.892 85.8269 165.585 87.6244C165.321 89.2841 164.966 90.9282 164.523 92.5493C163.667 95.715 162.564 98.8089 161.225 101.803L157.921 100.734C158.511 97.6867 158.989 94.5629 159.373 91.5277C159.561 90.0101 159.697 88.4984 159.768 87.028C159.853 85.6696 159.796 84.3059 159.597 82.9594L159.561 82.7468L159.502 82.4752L159.39 81.9201L159.143 80.804L158.617 78.5365L157.52 73.9305C156.777 70.8776 156.039 67.7892 155.349 64.7245L162.134 63.0651Z" fill="#E4897B"/>
<path d="M161.367 99.272L158.535 99.6676L156.258 103.406L155.255 106.258L159.78 106.033L160.865 104.303C160.865 104.303 162.877 101.74 161.367 99.272Z" fill="#E4897B"/>
<path d="M157.791 57.806C162.511 58.6445 167.674 76.2595 167.674 76.2595L156.777 79.9856C156.777 79.9856 153.142 71.2401 153.827 65.8133C154.476 60.4515 153.313 57.0088 157.791 57.806Z" fill="#58B368"/>
<path opacity="0.3" d="M157.791 57.806C162.511 58.6445 167.674 76.2595 167.674 76.2595L156.777 79.9856C156.777 79.9856 153.142 71.2401 153.827 65.8133C154.476 60.4515 153.313 57.0088 157.791 57.806Z" fill="black"/>
<path d="M210.065 51.1848C208.042 50.4053 202.767 48.5216 206.006 42.1618C209.245 35.802 217.139 44.4825 219.824 41.5713C219.47 45.262 216.313 53.5881 210.065 51.1848Z" fill="#454D66"/>
<path d="M206.443 51.4085C204.047 50.1979 203.493 49.0464 203.333 48.5268C203.314 48.4541 203.312 48.3776 203.33 48.3043C203.347 48.231 203.383 48.1634 203.434 48.1075C203.882 47.5997 205.292 46.212 206.502 47.4048C207.711 48.5977 208.862 48.7217 207.021 51.2609C206.958 51.3502 206.865 51.4141 206.759 51.4412C206.653 51.4682 206.541 51.4566 206.443 51.4085Z" fill="#58B368"/>
<path opacity="0.3" d="M206.443 51.4085C204.047 50.1979 203.493 49.0464 203.333 48.5268C203.314 48.4541 203.312 48.3776 203.33 48.3043C203.347 48.231 203.383 48.1634 203.434 48.1075C203.882 47.5997 205.292 46.212 206.502 47.4048C207.711 48.5977 208.862 48.7217 207.021 51.2609C206.958 51.3502 206.865 51.4141 206.759 51.4412C206.653 51.4682 206.541 51.4566 206.443 51.4085Z" fill="black"/>
<path d="M202.708 72.2723C199.791 72.0624 196.863 72.0624 193.947 72.2723C195.923 70.3885 195.368 64.9617 194.814 62.1391L198.537 65.3219L200.195 66.7392C200.06 67.2402 199.97 67.7519 199.923 68.2686C199.776 70.0106 200.283 71.6876 202.708 72.2723Z" fill="#E4897B"/>
<path d="M212.284 78.7251C212.384 79.7998 212.508 80.9808 212.655 82.1087C212.803 83.2366 212.98 84.394 213.169 85.5278C213.542 87.7844 214.034 90.0197 214.644 92.2241C214.956 93.3107 215.293 94.3854 215.682 95.4306L216.195 96.7652C216.278 96.9736 216.402 97.1627 216.561 97.3202C216.781 97.4865 217.042 97.5887 217.316 97.6155C217.747 97.6615 218.181 97.6495 218.609 97.5801C219.641 97.3999 220.648 97.1007 221.612 96.6884L222.986 98.6666C222.491 99.1186 221.958 99.5275 221.393 99.889C220.821 100.268 220.212 100.589 219.576 100.846C218.868 101.136 218.12 101.32 217.358 101.389C216.41 101.482 215.455 101.311 214.599 100.894C213.743 100.477 213.019 99.8307 212.508 99.0268C212.28 98.699 212.083 98.3512 211.918 97.9875L211.529 97.1195C211.015 95.9385 210.579 94.7574 210.189 93.5764C209.421 91.2207 208.812 88.8158 208.366 86.3781C208.124 85.1971 207.935 83.957 207.776 82.7406C207.617 81.5241 207.481 80.3254 207.404 79.0204L212.284 78.7251Z" fill="#E4897B"/>
<path d="M210.744 73.2234C212.703 73.7194 214.072 81.7858 214.072 81.7858L208.673 85.4587C208.673 85.4587 203.499 77.3215 205.003 75.1721C206.573 72.934 207.882 72.5089 210.744 73.2234Z" fill="#58B368"/>
<path opacity="0.7" d="M210.744 73.2234C212.703 73.7194 214.072 81.7858 214.072 81.7858L208.673 85.4587C208.673 85.4587 203.499 77.3215 205.003 75.1721C206.573 72.934 207.882 72.5089 210.744 73.2234Z" fill="black"/>
<path d="M230.656 87.4372L222.65 86.1558L222.243 87.8092L218.255 96.4602L226.261 97.7416L230.249 89.0906L230.656 87.4372Z" fill="#454D66"/>
<path d="M231.111 87.5114L223.104 86.23L222.697 87.8776L218.709 96.5344L226.715 97.8158L230.704 89.159L231.111 87.5114Z" fill="#58B368"/>
<path d="M222.786 98.7864L226.568 95.8339L221.848 94.8418C221.848 94.8418 219.859 97.1566 220.573 98.9754L222.786 98.7864Z" fill="#E4897B"/>
<path d="M227.529 91.946L223.523 91.3259L221.836 94.8336L226.568 95.8256L227.529 91.946Z" fill="#E4897B"/>
<path d="M210.744 73.2234C210.744 73.2234 213.004 74.0206 208.472 101.928H189.173C189.498 94.0625 189.504 89.2203 185.751 73.0876C188.454 72.5412 191.193 72.1919 193.947 72.0424C196.863 71.8325 199.791 71.8325 202.708 72.0424C206.49 72.3613 210.744 73.2234 210.744 73.2234Z" fill="#58B368"/>
<path opacity="0.7" d="M210.744 73.2234C210.744 73.2234 213.004 74.0206 208.472 101.928H189.173C189.498 94.0625 189.504 89.2203 185.751 73.0876C188.454 72.5412 191.193 72.1919 193.947 72.0424C196.863 71.8325 199.791 71.8325 202.708 72.0424C206.49 72.3613 210.744 73.2234 210.744 73.2234Z" fill="black"/>
<path d="M199.988 208.992H204.738L205.375 197.979H200.625L199.988 208.992Z" fill="#E4897B"/>
<path d="M178.371 208.992H183.12L185.162 197.979H180.412L178.371 208.992Z" fill="#E4897B"/>
<path d="M183.604 208.449H178.294C178.202 208.448 178.113 208.481 178.044 208.54C177.975 208.6 177.929 208.683 177.916 208.774L177.326 213.002C177.315 213.109 177.326 213.217 177.359 213.319C177.392 213.421 177.446 213.515 177.518 213.595C177.59 213.675 177.678 213.738 177.776 213.781C177.874 213.825 177.98 213.847 178.087 213.846C179.946 213.817 180.843 213.705 183.191 213.705C184.636 213.705 186.731 213.858 188.743 213.858C190.755 213.858 190.843 211.88 190.011 211.703C186.288 210.9 185.698 209.795 184.448 208.75C184.213 208.55 183.912 208.443 183.604 208.449Z" fill="#454D66"/>
<path d="M205.062 208.449H199.723C199.631 208.447 199.541 208.479 199.472 208.539C199.402 208.599 199.357 208.682 199.345 208.774L198.755 213.002C198.743 213.108 198.754 213.216 198.787 213.319C198.82 213.421 198.875 213.515 198.947 213.595C199.018 213.674 199.106 213.738 199.205 213.781C199.303 213.825 199.409 213.847 199.516 213.846C201.375 213.817 202.271 213.704 204.62 213.704C206.065 213.704 209.051 213.858 211.045 213.858C213.039 213.858 213.145 211.88 212.319 211.703C208.59 210.899 207.127 209.795 205.871 208.75C205.646 208.556 205.359 208.449 205.062 208.449Z" fill="#454D66"/>
<path d="M205.375 197.987L205.044 203.662H200.295L200.625 197.987H205.375Z" fill="#CE6F64"/>
<path d="M180.412 197.987H185.161L184.111 203.662H179.356L180.412 197.987Z" fill="#CE6F64"/>
<path d="M194.778 70.5905C194.138 70.8847 193.586 71.343 193.18 71.9192C193.646 72.6809 197.239 74.1041 198.212 74.0155C198.177 73.2413 198.413 72.4791 198.879 71.8601C198.879 71.8601 196.377 71.7774 194.778 70.5905Z" fill="#58B368"/>
<path d="M200.59 70.7117C201.239 70.9928 201.837 71.3799 202.36 71.8573C202.159 72.5069 200.59 73.6879 199.905 73.9477C199.768 73.1641 199.405 72.4377 198.861 71.8573C199.517 71.6122 200.108 71.2204 200.59 70.7117Z" fill="#58B368"/>
<path d="M208.472 101.94C208.472 101.94 212.219 138.552 211.906 153.072C211.582 168.16 206.059 202.563 206.059 202.563H199.634C199.634 202.563 200.655 169.04 200.083 154.224C199.463 138.073 194.342 101.94 194.342 101.94H208.472Z" fill="#58B368"/>
<path d="M203.375 101.94C203.375 101.94 200.619 134.578 197.758 152.972C195.445 167.829 185.197 202.575 185.197 202.575H178.707C178.707 202.575 184.052 169.034 185.197 154.336C188.147 117.134 182.961 110.567 189.144 101.952L203.375 101.94Z" fill="#58B368"/>
<path opacity="0.57" d="M198.958 86.8015L201.534 86.8924C202.736 86.9349 203.744 85.9943 203.787 84.7916L203.874 82.3189C203.916 81.1162 202.977 80.1069 201.775 80.0645L199.198 79.9735C197.997 79.9311 196.988 80.8717 196.946 82.0743L196.859 84.547C196.816 85.7497 197.756 86.7591 198.958 86.8015Z" fill="#58B368"/>
<path d="M200.195 66.7268C200.06 67.2279 199.97 67.7396 199.923 68.2562C198.631 68.0319 196.938 66.7505 196.808 65.5281C196.73 65.0206 196.754 64.5026 196.879 64.0046L198.537 65.3096L200.195 66.7268Z" fill="#CE6F64"/>
<path d="M193.286 55.7188C193.575 60.4429 193.598 62.427 195.976 64.8481C199.552 68.4857 205.269 67.098 206.39 62.3975C207.404 58.1636 206.761 51.1778 202.153 49.2941C201.139 48.875 200.035 48.7226 198.945 48.8513C197.856 48.9801 196.817 49.3857 195.928 50.0296C195.039 50.6736 194.33 51.5344 193.868 52.5302C193.405 53.526 193.205 54.6237 193.286 55.7188Z" fill="#E4897B"/>
<path d="M192.548 57.7401C192.527 57.7461 192.505 57.7461 192.483 57.7401C192.465 57.7325 192.449 57.7213 192.436 57.7072C192.423 57.693 192.412 57.6763 192.406 57.6581C192.399 57.6398 192.396 57.6203 192.397 57.6009C192.399 57.5815 192.404 57.5625 192.413 57.5452C193.003 56.3288 197.764 55.4961 198.313 55.4017C199.856 55.1817 201.421 55.142 202.974 55.2835C203.158 55.1959 203.359 55.1504 203.564 55.1504C203.768 55.1504 203.969 55.1959 204.154 55.2835C205.161 55.1716 206.178 55.1716 207.186 55.2835C207.206 55.2849 207.225 55.2904 207.243 55.2997C207.26 55.309 207.276 55.3218 207.288 55.3374C207.3 55.353 207.309 55.3709 207.314 55.3901C207.319 55.4093 207.319 55.4294 207.316 55.4489C207.31 55.4871 207.29 55.5215 207.259 55.5447C207.228 55.5678 207.189 55.578 207.151 55.5729C206.153 55.4632 205.146 55.4632 204.148 55.5729C204.122 55.5787 204.096 55.5787 204.071 55.5729C203.922 55.4948 203.756 55.454 203.587 55.454C203.419 55.454 203.253 55.4948 203.103 55.5729C203.087 55.5796 203.07 55.583 203.053 55.583C203.036 55.583 203.019 55.5796 203.003 55.5729C201.46 55.4249 199.905 55.4646 198.372 55.691C196.95 55.9331 193.144 56.7539 192.702 57.6692C192.687 57.696 192.664 57.7173 192.637 57.7301C192.609 57.7428 192.578 57.7463 192.548 57.7401Z" fill="#454D66"/>
<path d="M200.619 59.2568H200.478C200.177 59.2552 199.881 59.1871 199.609 59.0575C199.338 58.9279 199.099 58.7399 198.908 58.5069C198.059 57.4263 198.395 55.6016 198.407 55.5544C198.408 55.5444 198.412 55.5348 198.417 55.5262C198.422 55.5177 198.43 55.5104 198.438 55.5048C198.446 55.4992 198.456 55.4955 198.466 55.4938C198.476 55.4922 198.486 55.4927 198.495 55.4953C198.505 55.4967 198.514 55.5 198.522 55.505C198.53 55.5099 198.537 55.5165 198.542 55.5242C198.548 55.5319 198.552 55.5406 198.554 55.5498C198.556 55.5591 198.556 55.5686 198.554 55.578C198.554 55.578 198.218 57.4204 199.026 58.4478C199.204 58.6646 199.427 58.8392 199.68 58.9587C199.933 59.0782 200.21 59.1397 200.49 59.1387C200.757 59.1658 201.028 59.1326 201.281 59.0417C201.534 58.9507 201.763 58.8043 201.953 58.6132C202.95 57.6034 202.82 55.4776 202.82 55.454C202.819 55.4447 202.82 55.4353 202.823 55.4264C202.826 55.4175 202.831 55.4092 202.837 55.4021C202.843 55.3949 202.85 55.3891 202.858 55.3848C202.867 55.3805 202.876 55.3779 202.885 55.3772C202.904 55.3771 202.923 55.3844 202.937 55.3976C202.952 55.4107 202.96 55.4287 202.962 55.4481C202.962 55.5366 203.092 57.6625 202.053 58.7195C201.862 58.9008 201.637 59.0418 201.391 59.1342C201.145 59.2265 200.882 59.2682 200.619 59.2568Z" fill="#454D66"/>
<path d="M205.853 59.1493C205.626 59.1578 205.4 59.1174 205.19 59.0308C204.981 58.9441 204.792 58.8134 204.637 58.6474C203.741 57.6612 204.047 55.6062 204.047 55.5176C204.048 55.5079 204.051 55.4984 204.055 55.4898C204.06 55.4813 204.066 55.4739 204.074 55.4682C204.082 55.4625 204.091 55.4587 204.101 55.4571C204.111 55.4554 204.121 55.4559 204.13 55.4586C204.139 55.46 204.148 55.4633 204.156 55.4683C204.164 55.4732 204.171 55.4798 204.177 55.4875C204.182 55.4952 204.186 55.5039 204.188 55.5131C204.19 55.5224 204.191 55.5319 204.189 55.5413C204.189 55.5413 203.882 57.614 204.726 58.547C204.883 58.7138 205.077 58.8418 205.292 58.9207C205.507 58.9997 205.737 59.0274 205.965 59.0017C206.118 58.9963 206.269 58.9563 206.404 58.8847C206.54 58.8132 206.658 58.7118 206.75 58.5883C207.452 57.6553 206.956 55.4527 206.95 55.4291C206.948 55.4097 206.953 55.3902 206.964 55.374C206.974 55.3578 206.99 55.3459 207.009 55.3405C207.019 55.3379 207.029 55.3374 207.039 55.339C207.049 55.3406 207.058 55.3444 207.067 55.35C207.075 55.3556 207.082 55.3629 207.088 55.3714C207.093 55.38 207.096 55.3896 207.098 55.3995C207.098 55.494 207.611 57.6907 206.868 58.6769C206.763 58.8173 206.628 58.9326 206.472 59.0143C206.317 59.0961 206.146 59.1422 205.971 59.1493H205.853Z" fill="#454D66"/>
<path d="M192.548 58.2097C199.823 56.7335 202.897 50.0902 202.897 50.0902C202.897 50.0902 201.971 47.1377 197.723 47.5333C194.342 47.8581 187.516 53.7809 192.548 58.2097Z" fill="#454D66"/>
<path d="M189.651 51.2559C191.952 50.5178 197.911 48.7522 193.899 41.7782C189.887 34.8043 181.179 43.7387 177.969 40.4909C178.565 44.4592 182.571 53.5294 189.651 51.2559Z" fill="#454D66"/>
<path d="M206.437 55.2178C203.699 49.4898 199.003 49.0588 199.003 49.0588C199.003 49.0588 201.64 46.7499 205.257 48.9938C207.847 50.6059 207.446 53.3813 206.437 55.2178Z" fill="#454D66"/>
<path d="M192.147 58.337C192.245 59.2456 192.699 60.0781 193.41 60.6518C194.354 61.4018 195.292 60.6518 195.422 59.5299C195.54 58.5024 195.186 56.8785 194.047 56.5773C193.798 56.5148 193.537 56.5154 193.288 56.5792C193.039 56.643 192.81 56.7678 192.621 56.9425C192.432 57.1172 192.29 57.3362 192.208 57.5797C192.125 57.8232 192.104 58.0835 192.147 58.337Z" fill="#E4897B"/>
<path d="M200.395 57.7329C200.646 57.7329 200.85 57.4209 200.85 57.0361C200.85 56.6513 200.646 56.3393 200.395 56.3393C200.144 56.3393 199.941 56.6513 199.941 57.0361C199.941 57.4209 200.144 57.7329 200.395 57.7329Z" fill="#454D66"/>
<path d="M204.803 57.7329C205.053 57.7329 205.257 57.4209 205.257 57.0361C205.257 56.6513 205.053 56.3393 204.803 56.3393C204.552 56.3393 204.348 56.6513 204.348 57.0361C204.348 57.4209 204.552 57.7329 204.803 57.7329Z" fill="#454D66"/>
<path d="M204.72 56.3622L205.64 56.0968C205.64 56.0968 205.139 56.8164 204.72 56.3622Z" fill="#454D66"/>
<path d="M203.611 57.6924C203.954 58.5676 204.415 59.392 204.98 60.1431C204.784 60.2825 204.56 60.3775 204.323 60.4214C204.087 60.4652 203.844 60.4569 203.611 60.397V57.6924Z" fill="#DE5753"/>
<path d="M202.266 61.9091C201.751 61.9236 201.24 61.8142 200.776 61.5902C200.312 61.3662 199.908 61.0341 199.599 60.6218C199.583 60.5957 199.578 60.5646 199.584 60.5349C199.591 60.5052 199.609 60.4792 199.634 60.4623C199.659 60.4469 199.689 60.4419 199.718 60.4486C199.747 60.4552 199.772 60.4729 199.788 60.4978C200.08 60.874 200.457 61.1767 200.887 61.3817C201.317 61.5867 201.789 61.6884 202.266 61.6788C202.295 61.6802 202.322 61.6925 202.343 61.7132C202.364 61.734 202.376 61.7617 202.378 61.791C202.378 61.8062 202.376 61.8214 202.371 61.8357C202.366 61.85 202.357 61.8631 202.347 61.8742C202.336 61.8852 202.324 61.894 202.31 61.9C202.296 61.906 202.281 61.9091 202.266 61.9091Z" fill="#454D66"/>
<path d="M199.333 53.8363C199.285 53.8357 199.238 53.8195 199.2 53.7903C199.162 53.761 199.134 53.7201 199.121 53.6738C199.107 53.6274 199.109 53.578 199.126 53.5329C199.143 53.4878 199.175 53.4494 199.215 53.4234C199.612 53.1927 200.055 53.0538 200.513 53.0171C200.97 52.9803 201.43 53.0466 201.858 53.2111C201.886 53.2221 201.911 53.2385 201.933 53.2594C201.954 53.2802 201.971 53.3051 201.982 53.3326C201.994 53.36 202 53.3895 202 53.4193C202 53.4491 201.994 53.4786 201.982 53.506C201.958 53.5598 201.913 53.6021 201.858 53.6241C201.804 53.646 201.742 53.646 201.687 53.624C201.324 53.4902 200.935 53.4373 200.549 53.4689C200.163 53.5005 199.788 53.6158 199.451 53.8068C199.416 53.8276 199.375 53.8379 199.333 53.8363Z" fill="#454D66"/>
<path d="M205.717 53.6024C205.673 53.6026 205.63 53.5903 205.593 53.567C205.36 53.4076 205.092 53.3062 204.812 53.2713C204.532 53.2364 204.247 53.269 203.982 53.3665C203.955 53.3789 203.926 53.3858 203.896 53.3869C203.866 53.3879 203.837 53.3831 203.809 53.3727C203.781 53.3623 203.755 53.3465 203.733 53.3262C203.712 53.3059 203.694 53.2815 203.682 53.2544C203.669 53.2273 203.662 53.198 203.661 53.1682C203.66 53.1384 203.665 53.1087 203.675 53.0808C203.686 53.0528 203.702 53.0272 203.722 53.0054C203.742 52.9836 203.767 52.966 203.794 52.9536C204.128 52.8264 204.488 52.7814 204.843 52.8225C205.198 52.8636 205.539 52.9894 205.835 53.1895C205.885 53.2211 205.92 53.271 205.933 53.3283C205.947 53.3857 205.937 53.4461 205.906 53.4962C205.886 53.5288 205.859 53.5557 205.826 53.5744C205.792 53.593 205.755 53.6026 205.717 53.6024Z" fill="#454D66"/>
<path d="M185.25 209.278C184.826 209.268 184.405 209.213 183.993 209.113C183.971 209.107 183.951 209.096 183.935 209.079C183.919 209.062 183.909 209.041 183.905 209.018C183.9 208.996 183.902 208.973 183.91 208.952C183.918 208.931 183.933 208.913 183.952 208.9C184.117 208.788 185.569 207.855 186.117 208.109C186.18 208.138 186.234 208.182 186.274 208.238C186.314 208.294 186.34 208.359 186.347 208.428C186.368 208.534 186.361 208.644 186.328 208.747C186.295 208.85 186.237 208.944 186.159 209.018C185.897 209.212 185.574 209.304 185.25 209.278ZM184.324 208.942C185.144 209.107 185.757 209.077 185.999 208.859C186.05 208.808 186.087 208.745 186.106 208.676C186.126 208.606 186.128 208.533 186.111 208.463C186.111 208.434 186.103 208.405 186.087 208.38C186.072 208.355 186.049 208.335 186.023 208.322C185.716 208.192 184.89 208.587 184.306 208.942H184.324Z" fill="#58B368"/>
<path d="M183.999 209.111C183.98 209.116 183.959 209.116 183.94 209.111C183.923 209.1 183.909 209.085 183.9 209.068C183.891 209.05 183.886 209.03 183.887 209.01C183.887 208.951 183.887 207.581 184.406 207.12C184.471 207.062 184.548 207.018 184.632 206.992C184.715 206.967 184.804 206.96 184.89 206.973C184.981 206.975 185.068 207.008 185.137 207.065C185.207 207.123 185.255 207.203 185.274 207.292C185.38 207.829 184.512 208.857 184.058 209.111C184.039 209.116 184.018 209.116 183.999 209.111ZM184.807 207.185C184.718 207.185 184.631 207.218 184.566 207.28C184.269 207.717 184.115 208.234 184.123 208.762C184.577 208.402 185.108 207.64 185.043 207.315C185.043 207.268 185.002 207.203 184.861 207.185H184.807Z" fill="#58B368"/>
<path d="M206.844 209.275C206.342 209.265 205.843 209.21 205.351 209.11C205.328 209.105 205.306 209.093 205.289 209.076C205.273 209.059 205.262 209.037 205.258 209.013C205.254 208.989 205.257 208.965 205.268 208.943C205.278 208.921 205.295 208.903 205.316 208.891C205.534 208.779 207.428 207.811 208.012 208.13C208.068 208.159 208.115 208.202 208.149 208.255C208.183 208.307 208.203 208.368 208.207 208.431C208.218 208.533 208.206 208.636 208.17 208.733C208.134 208.829 208.076 208.916 208 208.986C207.659 209.21 207.251 209.312 206.844 209.275ZM205.741 208.939C206.785 209.116 207.558 209.068 207.841 208.809C207.89 208.765 207.928 208.709 207.95 208.648C207.973 208.586 207.98 208.52 207.971 208.454C207.971 208.43 207.965 208.406 207.952 208.385C207.94 208.364 207.922 208.347 207.9 208.336C207.587 208.159 206.49 208.572 205.741 208.939Z" fill="#58B368"/>
<path d="M205.369 209.111C205.348 209.119 205.325 209.119 205.304 209.111C205.287 209.101 205.274 209.086 205.265 209.068C205.257 209.05 205.254 209.03 205.257 209.011C205.257 208.952 205.369 207.67 205.971 207.174C206.056 207.1 206.155 207.045 206.263 207.011C206.371 206.978 206.484 206.967 206.596 206.979C206.927 206.979 207.003 207.192 207.021 207.298C207.11 207.847 206 208.863 205.422 209.123L205.369 209.111ZM206.502 207.186C206.361 207.186 206.225 207.236 206.118 207.328C205.774 207.74 205.567 208.25 205.528 208.786C206.118 208.432 206.856 207.635 206.803 207.316C206.803 207.286 206.803 207.21 206.584 207.186H206.502Z" fill="#58B368"/>
<path d="M200.283 56.3622L201.18 56.0968C201.18 56.0968 200.732 56.8164 200.283 56.3622Z" fill="#454D66"/>
<path d="M185.468 202.716H178.217L178.282 198.488L186.872 198.582L185.468 202.716Z" fill="#58B368"/>
<path opacity="0.7" d="M185.468 202.716H178.217L178.282 198.488L186.872 198.582L185.468 202.716Z" fill="white"/>
<path d="M206.909 202.716H199.05L199.109 198.488L207.422 198.582L206.909 202.716Z" fill="#58B368"/>
<path opacity="0.7" d="M206.909 202.716H199.05L199.109 198.488L207.422 198.582L206.909 202.716Z" fill="white"/>
<path d="M188.961 100.978L188.094 102.709C188.023 102.838 188.182 102.974 188.406 102.974H208.643C208.815 102.974 208.962 102.892 208.974 102.779L209.145 101.055C209.145 100.931 209.009 100.831 208.815 100.831H189.274C189.213 100.825 189.152 100.836 189.097 100.862C189.042 100.888 188.995 100.928 188.961 100.978Z" fill="#58B368"/>
<path opacity="0.6" d="M188.961 100.978L188.094 102.709C188.023 102.838 188.182 102.974 188.406 102.974H208.643C208.815 102.974 208.962 102.892 208.974 102.779L209.145 101.055C209.145 100.931 209.009 100.831 208.815 100.831H189.274C189.213 100.825 189.152 100.836 189.097 100.862C189.042 100.888 188.995 100.928 188.961 100.978Z" fill="white"/>
<path d="M190.761 102.991H190.235C190.129 102.991 190.053 102.938 190.058 102.873L190.306 100.623C190.306 100.558 190.401 100.505 190.507 100.505H191.032C191.132 100.505 191.215 100.558 191.209 100.623L190.961 102.873C190.955 102.938 190.861 102.991 190.761 102.991Z" fill="#58B368"/>
<path d="M207.67 102.991H207.145C207.045 102.991 206.962 102.938 206.968 102.873L207.216 100.623C207.216 100.558 207.316 100.505 207.416 100.505H207.941C208.048 100.505 208.124 100.558 208.118 100.623L207.871 102.873C207.865 102.938 207.776 102.991 207.67 102.991Z" fill="#58B368"/>
<path d="M200.832 102.991H200.313C200.206 102.991 200.13 102.938 200.136 102.873L200.378 100.623C200.378 100.558 200.478 100.505 200.584 100.505H201.109C201.209 100.505 201.292 100.558 201.28 100.623L201.038 102.873C201.032 102.938 200.938 102.991 200.832 102.991Z" fill="#58B368"/>
<path d="M192.802 99.7954H193.657C193.767 99.7936 193.872 99.7529 193.955 99.6805C194.037 99.608 194.09 99.5086 194.106 99.4002C194.114 99.3502 194.11 99.2992 194.096 99.2507C194.082 99.2021 194.058 99.1572 194.025 99.119C193.992 99.0809 193.951 99.0504 193.905 99.0296C193.858 99.0089 193.808 98.9985 193.758 98.9991H192.92C192.81 99.001 192.703 99.0426 192.621 99.1162C192.539 99.1899 192.486 99.2907 192.472 99.4002C192.464 99.4484 192.467 99.4976 192.48 99.5446C192.493 99.5916 192.516 99.6353 192.547 99.6727C192.578 99.7102 192.617 99.7405 192.661 99.7616C192.705 99.7828 192.753 99.7943 192.802 99.7954Z" fill="#E0E0E0"/>
<path d="M193.628 100.833L193.764 99.7107C193.774 99.6451 193.77 99.578 193.751 99.5142C193.733 99.4504 193.7 99.3915 193.656 99.3418C193.612 99.2921 193.558 99.2527 193.497 99.2267C193.436 99.2006 193.37 99.1884 193.303 99.191C193.158 99.19 193.018 99.2424 192.909 99.3382C192.801 99.4341 192.731 99.5666 192.713 99.7107L192.578 100.833C192.567 100.898 192.571 100.965 192.59 101.029C192.608 101.093 192.641 101.152 192.685 101.202C192.729 101.251 192.783 101.291 192.844 101.317C192.906 101.343 192.972 101.355 193.038 101.352C193.183 101.353 193.323 101.301 193.432 101.205C193.541 101.109 193.611 100.977 193.628 100.833Z" fill="#E0E0E0"/>
<path d="M205.039 99.7954H205.9C206.009 99.7935 206.113 99.7525 206.195 99.68C206.276 99.6074 206.328 99.5081 206.343 99.4002C206.35 99.3502 206.347 99.2992 206.333 99.2507C206.319 99.2021 206.295 99.1572 206.261 99.119C206.228 99.0809 206.187 99.0504 206.141 99.0296C206.095 99.0089 206.045 98.9985 205.994 98.9991H205.133C205.023 99.0034 204.918 99.0458 204.837 99.119C204.755 99.1922 204.701 99.2916 204.685 99.4002C204.678 99.4502 204.682 99.5011 204.697 99.5493C204.711 99.5976 204.736 99.642 204.77 99.6796C204.804 99.7172 204.845 99.7471 204.892 99.767C204.938 99.787 204.988 99.7967 205.039 99.7954Z" fill="#E0E0E0"/>
<path d="M205.859 100.833L205.994 99.7107C206.005 99.6451 206.001 99.578 205.982 99.5142C205.964 99.4504 205.931 99.3915 205.887 99.3418C205.843 99.2921 205.789 99.2528 205.728 99.2267C205.666 99.2006 205.6 99.1884 205.534 99.191C205.389 99.19 205.249 99.2424 205.14 99.3382C205.031 99.4341 204.961 99.5666 204.944 99.7107L204.808 100.833C204.799 100.898 204.804 100.965 204.823 101.028C204.842 101.091 204.874 101.15 204.918 101.199C204.962 101.249 205.016 101.288 205.076 101.315C205.137 101.341 205.203 101.354 205.269 101.352C205.414 101.353 205.554 101.301 205.663 101.205C205.771 101.109 205.841 100.977 205.859 100.833Z" fill="#E0E0E0"/>
<path d="M190.117 72.043L191.079 71.9485C191.152 71.9429 191.225 71.9628 191.285 72.0048C191.345 72.0467 191.389 72.1082 191.41 72.1788C195.416 85.5007 193.888 99.4249 193.888 99.4249H192.654C193.587 82.8552 190.359 74.2042 189.852 72.4268C189.841 72.3839 189.839 72.3391 189.846 72.2954C189.854 72.2517 189.871 72.2101 189.896 72.1737C189.922 72.1372 189.954 72.1066 189.993 72.084C190.031 72.0615 190.073 72.0475 190.117 72.043Z" fill="#58B368"/>
<path opacity="0.6" d="M190.117 72.043L191.079 71.9485C191.152 71.9429 191.225 71.9628 191.285 72.0048C191.345 72.0467 191.389 72.1082 191.41 72.1788C195.416 85.5007 193.888 99.4249 193.888 99.4249H192.654C193.587 82.8552 190.359 74.2042 189.852 72.4268C189.841 72.3839 189.839 72.3391 189.846 72.2954C189.854 72.2517 189.871 72.2101 189.896 72.1737C189.922 72.1372 189.954 72.1066 189.993 72.084C190.031 72.0615 190.073 72.0475 190.117 72.043Z" fill="white"/>
<path d="M204.921 71.9891L205.764 72.1072C205.83 72.1196 205.889 72.1517 205.936 72.1993C205.982 72.2468 206.013 72.3074 206.024 72.373C208.419 82.7187 206.124 99.3947 206.124 99.3947H204.885C206.455 81.2956 204.85 74.0028 204.578 72.3375C204.572 72.2907 204.576 72.243 204.591 72.1981C204.605 72.1531 204.63 72.1122 204.663 72.0785C204.696 72.0448 204.737 72.0192 204.782 72.0037C204.826 71.9882 204.874 71.9832 204.921 71.9891Z" fill="#58B368"/>
<path opacity="0.6" d="M204.921 71.9891L205.764 72.1072C205.83 72.1196 205.889 72.1517 205.936 72.1993C205.982 72.2468 206.013 72.3074 206.024 72.373C208.419 82.7187 206.124 99.3947 206.124 99.3947H204.885C206.455 81.2956 204.85 74.0028 204.578 72.3375C204.572 72.2907 204.576 72.243 204.591 72.1981C204.605 72.1531 204.63 72.1122 204.663 72.0785C204.696 72.0448 204.737 72.0192 204.782 72.0037C204.826 71.9882 204.874 71.9832 204.921 71.9891Z" fill="white"/>
<path d="M188.348 78.9015C188.348 80.2302 188.389 81.6474 188.466 83.0351C188.542 84.4228 188.601 85.7928 188.743 87.1687C188.884 88.5446 189.061 89.8614 189.333 91.1487C189.463 91.7865 189.61 92.4124 189.781 93.0029C189.872 93.2982 189.966 93.5816 190.064 93.8533L190.2 94.1958C190.198 94.2013 190.196 94.2073 190.196 94.2135C190.196 94.2196 190.198 94.2257 190.2 94.2312C190.2 94.2843 190.424 94.4733 190.867 94.6032C191.392 94.7429 191.934 94.8143 192.478 94.8158C193.78 94.8252 195.082 94.7185 196.366 94.4969C197.705 94.2902 199.062 94.0009 200.407 93.6702C201.752 93.3395 203.127 92.9734 204.449 92.5955L205.357 94.8217C202.725 96.1513 199.971 97.2232 197.133 98.0223C195.639 98.454 194.105 98.7291 192.554 98.8431C191.672 98.9053 190.786 98.8557 189.917 98.6954C189.397 98.594 188.891 98.4273 188.412 98.1994C187.833 97.9268 187.315 97.539 186.89 97.0597C186.661 96.8022 186.463 96.5188 186.3 96.2153C186.206 96.0441 186.182 95.985 186.129 95.8787L185.988 95.5894C185.816 95.1996 185.657 94.8158 185.516 94.4083C185.241 93.6661 185.009 92.909 184.819 92.1408C184.453 90.6748 184.175 89.1879 183.987 87.6883C183.602 84.7522 183.434 81.7916 183.486 78.8307L188.348 78.9015Z" fill="#E4897B"/>
<path d="M203.404 93.1999L204.897 88.6353L207.44 92.7688C207.44 92.7688 205.947 95.432 203.971 95.3907L203.404 93.1999Z" fill="#E4897B"/>
<path d="M208.213 86.41L210.16 89.9648L207.44 92.7461L204.897 88.6362L208.213 86.41Z" fill="#E4897B"/>
<path d="M185.751 73.0987C183.816 73.6893 181.498 80.3502 181.498 80.3502L188.996 85.7179C188.996 85.7179 191.734 80.1553 190.92 77.6516C190.076 75.0474 187.958 72.4256 185.751 73.0987Z" fill="#58B368"/>
<path opacity="0.7" d="M185.751 73.0987C183.816 73.6893 181.498 80.3502 181.498 80.3502L188.996 85.7179C188.996 85.7179 191.734 80.1553 190.92 77.6516C190.076 75.0474 187.958 72.4256 185.751 73.0987Z" fill="black"/>
<path d="M193.392 51.2267C196.018 50.2405 196.755 49.0831 196.932 48.5812C196.96 48.5074 196.97 48.4277 196.96 48.3493C196.949 48.2708 196.92 48.1963 196.873 48.1324C196.466 47.5419 195.156 45.9475 193.764 47.0518C192.371 48.156 191.18 48.156 192.778 51.0082C192.835 51.1145 192.929 51.1958 193.043 51.2362C193.156 51.2766 193.281 51.2732 193.392 51.2267Z" fill="#58B368"/>
<path opacity="0.3" d="M193.392 51.2267C196.018 50.2405 196.755 49.0831 196.932 48.5812C196.96 48.5074 196.97 48.4277 196.96 48.3493C196.949 48.2708 196.92 48.1963 196.873 48.1324C196.466 47.5419 195.156 45.9475 193.764 47.0518C192.371 48.156 191.18 48.156 192.778 51.0082C192.835 51.1145 192.929 51.1958 193.043 51.2362C193.156 51.2766 193.281 51.2732 193.392 51.2267Z" fill="black"/>
</svg>
