<svg width="280" height="180" viewBox="0 0 280 180" fill="none" xmlns="http://www.w3.org/2000/svg">
<path d="M251 152.896H29V153.007H251V152.896Z" fill="#EBEBEB"/>
<path d="M226.695 157.964H204.096V158.075H226.695V157.964Z" fill="#EBEBEB"/>
<path d="M73.2532 156.652H52.292V156.763H73.2532V156.652Z" fill="#EBEBEB"/>
<path d="M205.712 155.909H197.191V156.02H205.712V155.909Z" fill="#EBEBEB"/>
<path d="M176.062 158.844H169.81V158.955H176.062V158.844Z" fill="#EBEBEB"/>
<path d="M165.854 158.844H150.119V158.955H165.854V158.844Z" fill="#EBEBEB"/>
<path d="M140.981 156.977H115.678V157.087H140.981V156.977Z" fill="#EBEBEB"/>
<path d="M134.228 133.158H48.4961C47.8245 133.156 47.1808 132.89 46.7063 132.416C46.2318 131.942 45.9653 131.3 45.9653 130.63V10.5049C45.9712 9.83931 46.2403 9.20288 46.7141 8.73387C47.188 8.26486 47.8283 8.00114 48.4961 8H134.228C134.9 8 135.545 8.26624 136.021 8.74016C136.496 9.21407 136.763 9.85683 136.763 10.527V130.63C136.763 131.301 136.496 131.943 136.021 132.417C135.545 132.891 134.9 133.158 134.228 133.158V133.158ZM48.4961 8.08851C47.854 8.08969 47.2385 8.34479 46.7848 8.79782C46.3311 9.25086 46.0763 9.86482 46.0763 10.5049V130.63C46.0763 131.271 46.3311 131.885 46.7848 132.338C47.2385 132.791 47.854 133.046 48.4961 133.047H134.228C134.871 133.046 135.487 132.791 135.941 132.338C136.395 131.885 136.651 131.271 136.652 130.63V10.5049C136.651 9.86441 136.395 9.25047 135.941 8.79755C135.487 8.34464 134.871 8.08968 134.228 8.08851H48.4961Z" fill="#EBEBEB"/>
<path d="M230.27 133.158H144.533C143.861 133.156 143.217 132.89 142.742 132.416C142.267 131.942 141.999 131.3 141.998 130.63V10.5049C142.005 9.83891 142.275 9.20248 142.75 8.73359C143.224 8.2647 143.865 8.00113 144.533 8H230.27C230.937 8.0023 231.576 8.26653 232.049 8.73542C232.522 9.20431 232.79 9.84008 232.796 10.5049V130.63C232.796 131.299 232.53 131.941 232.057 132.414C231.583 132.888 230.941 133.155 230.27 133.158V133.158ZM144.533 8.08851C143.891 8.08968 143.275 8.34464 142.82 8.79755C142.366 9.25047 142.11 9.86441 142.109 10.5049V130.63C142.11 131.271 142.366 131.885 142.82 132.338C143.275 132.791 143.891 133.046 144.533 133.047H230.27C230.912 133.046 231.528 132.791 231.983 132.338C232.437 131.885 232.693 131.271 232.694 130.63V10.5049C232.693 9.86441 232.437 9.25047 231.983 8.79755C231.528 8.34464 230.912 8.08968 230.27 8.08851H144.533Z" fill="#EBEBEB"/>
<path d="M61.0304 111.356L121.281 111.356L121.281 21.4714L61.0304 21.4714L61.0304 111.356Z" fill="#E6E6E6"/>
<path d="M59.6935 111.356L119.944 111.356L119.944 21.4714L59.6935 21.4714L59.6935 111.356Z" fill="#F5F5F5"/>
<path d="M117.538 108.667V24.1636L62.0958 24.1636L62.0958 108.667H117.538Z" fill="white"/>
<path d="M63.1079 108.667L63.1079 24.1636H62.0956L62.0956 108.667H63.1079Z" fill="#E6E6E6"/>
<path d="M60.6885 54.1187L118.95 54.1187V50.5073L60.6885 50.5073V54.1187Z" fill="#F5F5F5"/>
<path d="M57.0697 17.0146H123.901C123.999 17.0158 124.092 17.0555 124.161 17.1251C124.23 17.1947 124.269 17.2886 124.269 17.3864V17.3864C124.269 17.4838 124.23 17.5773 124.161 17.6461C124.092 17.715 123.998 17.7537 123.901 17.7537H57.0697C56.972 17.7537 56.8782 17.715 56.8091 17.6461C56.74 17.5773 56.7012 17.4838 56.7012 17.3864V17.3864C56.7012 17.2886 56.7398 17.1947 56.8088 17.1251C56.8778 17.0555 56.9715 17.0158 57.0697 17.0146V17.0146Z" fill="#E6E6E6"/>
<path d="M54.8497 17.3861C54.8532 17.7504 54.9648 18.1054 55.1703 18.4066C55.3759 18.7077 55.6663 18.9415 56.0049 19.0785C56.3435 19.2155 56.7152 19.2495 57.0731 19.1763C57.4311 19.1031 57.7594 18.926 58.0165 18.6672C58.2737 18.4084 58.4483 18.0795 58.5183 17.722C58.5883 17.3645 58.5506 16.9944 58.41 16.6582C58.2693 16.322 58.032 16.0348 57.7279 15.8328C57.4239 15.6308 57.0666 15.523 56.7012 15.5229C56.4565 15.5229 56.2143 15.5713 55.9885 15.6651C55.7627 15.759 55.5578 15.8965 55.3857 16.0697C55.2135 16.243 55.0775 16.4485 54.9855 16.6745C54.8935 16.9004 54.8473 17.1423 54.8497 17.3861Z" fill="#E6E6E6"/>
<path d="M120.78 19.4496C120.912 19.4496 121.039 19.3975 121.133 19.3047C121.227 19.2118 121.28 19.0858 121.281 18.9539V17.8829C121.28 17.751 121.227 17.6249 121.133 17.5321C121.039 17.4393 120.912 17.3872 120.78 17.3872V17.3872C120.648 17.3872 120.521 17.4394 120.428 17.5324C120.335 17.6253 120.282 17.7514 120.282 17.8829V18.9539C120.282 19.0854 120.335 19.2114 120.428 19.3044C120.521 19.3973 120.648 19.4496 120.78 19.4496Z" fill="#E6E6E6"/>
<path d="M62.6506 19.4496C62.7829 19.4496 62.9098 19.3975 63.0038 19.3047C63.0978 19.2118 63.1511 19.0858 63.1523 18.9539V17.8829C63.1511 17.751 63.0978 17.6249 63.0038 17.5321C62.9098 17.4393 62.7829 17.3872 62.6506 17.3872C62.5187 17.3872 62.3922 17.4394 62.299 17.5324C62.2057 17.6253 62.1533 17.7514 62.1533 17.8829V18.9539C62.1533 19.0854 62.2057 19.2114 62.299 19.3044C62.3922 19.3973 62.5187 19.4496 62.6506 19.4496Z" fill="#E6E6E6"/>
<path opacity="0.5" d="M57.1854 102.116L118.946 102.116L118.946 17.3821L57.1854 17.3821L57.1854 102.116Z" fill="#E0E0E0"/>
<path d="M112.983 17.3862C112.986 17.7506 113.098 18.1058 113.304 18.407C113.509 18.7083 113.8 18.9421 114.139 19.0789C114.478 19.2158 114.85 19.2495 115.208 19.176C115.566 19.1024 115.894 18.9248 116.151 18.6656C116.408 18.4064 116.582 18.0771 116.652 17.7193C116.721 17.3615 116.683 16.9912 116.542 16.6551C116.4 16.319 116.162 16.0321 115.858 15.8306C115.553 15.6292 115.195 15.5221 114.83 15.523C114.585 15.5229 114.343 15.5713 114.118 15.6652C113.892 15.7591 113.687 15.8967 113.516 16.07C113.344 16.2433 113.208 16.4489 113.117 16.6748C113.025 16.9007 112.98 17.1425 112.983 17.3862V17.3862Z" fill="#E6E6E6"/>
<path d="M111.868 151.175H123.758V124.891H111.868V151.175Z" fill="#F0F0F0"/>
<path d="M62.8237 152.839H121.472V151.175H62.8237V152.839Z" fill="#F0F0F0"/>
<path d="M111.863 124.891H60.5415V151.175H111.863V124.891Z" fill="#F5F5F5"/>
<path d="M107.189 128.126H65.2173V136.747H107.189V128.126Z" fill="#F0F0F0"/>
<path d="M107.189 139.318H65.2173V147.939H107.189V139.318Z" fill="#F0F0F0"/>
<path d="M80.8548 133.025H91.5508C91.8401 133.025 92.0747 132.791 92.0747 132.503V132.365C92.0747 132.077 91.8401 131.843 91.5508 131.843H80.8548C80.5655 131.843 80.3309 132.077 80.3309 132.365V132.503C80.3309 132.791 80.5655 133.025 80.8548 133.025Z" fill="#F5F5F5"/>
<path d="M80.8548 144.217H91.5508C91.8401 144.217 92.0747 143.983 92.0747 143.695V143.557C92.0747 143.269 91.8401 143.035 91.5508 143.035H80.8548C80.5655 143.035 80.3309 143.269 80.3309 143.557V143.695C80.3309 143.983 80.5655 144.217 80.8548 144.217Z" fill="#F5F5F5"/>
<path d="M83.5766 120.469C83.5766 120.469 83.4301 124.895 77.9511 124.895C72.4722 124.895 72.3301 120.469 72.3301 120.469H83.5766Z" fill="#F0F0F0"/>
<path d="M96.395 120.469C96.395 120.469 96.2529 124.895 90.7695 124.895C85.2861 124.895 85.1484 120.469 85.1484 120.469H96.395Z" fill="#F0F0F0"/>
<path d="M83.5766 117.534C83.5766 117.534 83.4301 121.96 77.9511 121.96C72.4722 121.96 72.3301 117.534 72.3301 117.534H83.5766Z" fill="#F0F0F0"/>
<path d="M96.395 117.534C96.395 117.534 96.2529 121.96 90.7695 121.96C85.2861 121.96 85.1484 117.534 85.1484 117.534H96.395Z" fill="#F0F0F0"/>
<path d="M109.213 120.469C109.213 120.469 109.071 124.895 103.592 124.895C98.1128 124.895 97.9663 120.469 97.9663 120.469H109.213Z" fill="#F0F0F0"/>
<path d="M109.213 117.534C109.213 117.534 109.071 121.96 103.592 121.96C98.1128 121.96 97.9663 117.534 97.9663 117.534H109.213Z" fill="#F0F0F0"/>
<path d="M181.718 73.3281H217.625V21.7338L181.718 21.7338V73.3281Z" fill="#E6E6E6"/>
<path d="M171.75 73.3281H213.571V21.7338L171.75 21.7338V73.3281Z" fill="#F5F5F5"/>
<path d="M208.225 70.012V25.0474L177.096 25.0474V70.012H208.225Z" fill="white"/>
<path d="M192.947 70.588V24.4727H192.378V70.588H192.947Z" fill="#F5F5F5"/>
<path d="M217.114 150.196H226.087V91.5519H217.114V150.196Z" fill="#F0F0F0"/>
<path d="M149.719 152.887H223.721V150.192H149.719V152.887Z" fill="#F0F0F0"/>
<path d="M217.114 91.5483H147.353V150.193H217.114V91.5483Z" fill="#F5F5F5"/>
<path d="M212.266 112.743H152.201V126.692H212.266V112.743Z" fill="#F0F0F0"/>
<path d="M212.266 131.007H152.201V144.957H212.266V131.007Z" fill="#F0F0F0"/>
<path d="M164.913 113.702H199.558C200.061 113.702 200.468 113.296 200.468 112.795V112.698C200.468 112.196 200.061 111.79 199.558 111.79H164.913C164.41 111.79 164.003 112.196 164.003 112.698V112.795C164.003 113.296 164.41 113.702 164.913 113.702Z" fill="#F5F5F5"/>
<path d="M164.913 131.963H199.558C200.061 131.963 200.468 131.557 200.468 131.056V130.959C200.468 130.458 200.061 130.051 199.558 130.051H164.913C164.41 130.051 164.003 130.458 164.003 130.959V131.056C164.003 131.557 164.41 131.963 164.913 131.963Z" fill="#F5F5F5"/>
<path d="M212.266 94.4814H152.201V108.431H212.266V94.4814Z" fill="#F0F0F0"/>
<path d="M164.913 95.4414H199.558C200.061 95.4414 200.468 95.0352 200.468 94.5341V94.4368C200.468 93.9357 200.061 93.5295 199.558 93.5295H164.913C164.41 93.5295 164.003 93.9357 164.003 94.4368V94.5341C164.003 95.0352 164.41 95.4414 164.913 95.4414Z" fill="#F5F5F5"/>
<path d="M160.251 51.4241C161.622 51.4241 162.938 50.8809 163.908 49.914C164.878 48.947 165.423 47.6356 165.423 46.2682C165.423 44.9008 164.878 43.5893 163.908 42.6224C162.938 41.6555 161.622 41.1123 160.251 41.1123H159.62V51.4241H160.251Z" fill="#E0E0E0"/>
<path d="M159.62 51.4241C162.477 51.4241 164.793 49.1157 164.793 46.2682C164.793 43.4207 162.477 41.1123 159.62 41.1123C156.764 41.1123 154.448 43.4207 154.448 46.2682C154.448 49.1157 156.764 51.4241 159.62 51.4241Z" fill="#F5F5F5"/>
<path d="M159.092 47.2435C156.333 47.24 153.689 46.1458 151.738 44.2009C149.788 42.2561 148.691 39.6196 148.689 36.8698V30.6738C148.689 30.4156 148.792 30.168 148.975 29.9854C149.158 29.8028 149.407 29.7002 149.666 29.7002C149.925 29.7002 150.173 29.8028 150.356 29.9854C150.54 30.168 150.643 30.4156 150.643 30.6738V36.8698C150.65 39.0977 151.541 41.2325 153.121 42.8079C154.702 44.3833 156.843 45.2715 159.079 45.2785C159.207 45.2785 159.334 45.3037 159.452 45.3526C159.571 45.4015 159.679 45.4733 159.769 45.5637C159.86 45.6541 159.932 45.7614 159.981 45.8795C160.03 45.9977 160.055 46.1243 160.055 46.2521C160.055 46.38 160.03 46.5066 159.981 46.6247C159.932 46.7429 159.86 46.8502 159.769 46.9406C159.679 47.031 159.571 47.1027 159.452 47.1517C159.334 47.2006 159.207 47.2258 159.079 47.2258L159.092 47.2435Z" fill="#E0E0E0"/>
<path d="M140.888 36.1295H158.453C158.727 36.1291 158.999 36.07 159.248 35.9561C159.498 35.8422 159.72 35.6762 159.9 35.4694C160.079 35.2625 160.212 35.0197 160.29 34.7571C160.367 34.4946 160.387 34.2186 160.349 33.9477L158.839 23.4899C158.665 22.2887 158.062 21.1903 157.142 20.3962C156.221 19.602 155.044 19.1653 153.826 19.166H145.523C144.306 19.1653 143.129 19.602 142.208 20.3962C141.287 21.1903 140.685 22.2887 140.511 23.4899L138.997 33.93C138.954 34.202 138.972 34.4798 139.047 34.7445C139.123 35.0092 139.255 35.2545 139.435 35.4634C139.615 35.6724 139.837 35.8401 140.088 35.9551C140.339 36.0701 140.612 36.1296 140.888 36.1295V36.1295Z" fill="#F5F5F5"/>
<path d="M140 172.883C187.545 172.883 226.087 170.64 226.087 167.873C226.087 165.106 187.545 162.863 140 162.863C92.4556 162.863 53.9131 165.106 53.9131 167.873C53.9131 170.64 92.4556 172.883 140 172.883Z" fill="#F5F5F5"/>
<path d="M159.452 160.773L156.091 159.724L157.636 151.683L160.997 152.736L159.452 160.773Z" fill="#FF8B7B"/>
<path d="M189.977 164.288H186.451L183.708 156.154H187.228L189.977 164.288Z" fill="#FF8B7B"/>
<path d="M185.981 163.881H190.279C190.349 163.88 190.416 163.904 190.47 163.947C190.525 163.991 190.562 164.052 190.576 164.12L191.274 167.24C191.29 167.316 191.29 167.395 191.271 167.471C191.253 167.546 191.218 167.617 191.168 167.677C191.119 167.737 191.056 167.785 190.985 167.818C190.914 167.85 190.837 167.866 190.758 167.864C189.373 167.842 188.365 167.762 186.625 167.762C185.555 167.762 182.327 167.873 180.853 167.873C179.379 167.873 179.183 166.412 179.787 166.284C182.5 165.691 184.547 164.877 185.417 164.098C185.572 163.958 185.773 163.881 185.981 163.881V163.881Z" fill="#454D66"/>
<path d="M156.237 159.357L159.909 160.503C159.975 160.525 160.032 160.568 160.071 160.626C160.11 160.684 160.128 160.753 160.122 160.822L159.847 164.008C159.841 164.085 159.817 164.16 159.778 164.226C159.739 164.293 159.685 164.35 159.62 164.392C159.555 164.435 159.482 164.462 159.405 164.473C159.328 164.483 159.25 164.475 159.177 164.451C157.845 164.008 155.971 163.34 154.293 162.822C152.348 162.212 150.479 161.663 148.196 160.946C146.816 160.503 146.864 159.007 147.486 159.06C150.297 159.308 152.619 160.052 155.332 159.366C155.626 159.276 155.941 159.273 156.237 159.357V159.357Z" fill="#454D66"/>
<path d="M176.759 58.8958C176.169 59.7234 175.529 60.6086 174.925 61.4804C174.322 62.3523 173.722 63.2507 173.127 64.1358C171.955 65.9061 170.823 67.6985 169.819 69.5041C169.557 69.9467 169.344 70.3893 169.1 70.8628C168.856 71.3363 168.656 71.7479 168.461 72.1905C168.265 72.6331 168.079 73.0756 167.91 73.5182L167.808 73.7837C167.801 73.8058 167.79 73.8267 167.777 73.8457C167.777 73.8457 167.777 73.8457 167.777 73.651V73.558C167.777 73.5138 167.777 73.4739 167.777 73.4253C167.769 73.352 167.756 73.2795 167.737 73.2084C167.737 73.1509 167.706 73.0933 167.688 73.0402L167.661 72.9561L167.608 72.8322C167.569 72.7441 167.525 72.6583 167.475 72.5755C167.401 72.4551 167.314 72.3424 167.217 72.2392C166.959 71.9557 166.632 71.7437 166.267 71.624C166.095 71.5666 165.916 71.5309 165.735 71.5178C165.652 71.5112 165.569 71.5112 165.486 71.5178H165.308C165.126 71.5384 164.946 71.583 164.775 71.6506C164.684 71.6868 164.595 71.7282 164.509 71.7745C164.458 71.8024 164.409 71.8335 164.363 71.8674L164.274 71.9382L164.216 71.9869C164.181 72.014 164.15 72.0452 164.123 72.0799C164.092 72.133 164.163 72.0799 164.22 72.0091C164.487 71.7214 164.833 71.3009 165.144 70.8938L166.121 69.6192C166.787 68.765 167.453 67.8932 168.163 67.0523L170.499 68.2915C170.175 69.3802 169.788 70.4202 169.366 71.4647C169.144 71.9825 168.922 72.5047 168.678 73.0225C168.418 73.5856 168.122 74.1311 167.79 74.6556C167.665 74.8538 167.524 75.0417 167.368 75.2177C167.293 75.3018 167.213 75.3815 167.129 75.4566L167.031 75.5363L166.898 75.6337C166.837 75.6775 166.773 75.7174 166.707 75.7532C166.606 75.8093 166.503 75.8596 166.396 75.9036C166.209 75.9753 166.014 76.0229 165.814 76.0452H165.624C165.544 76.0452 165.45 76.0452 165.362 76.0452C165.173 76.0329 164.986 75.9957 164.807 75.9346C164.608 75.8708 164.42 75.7799 164.247 75.6646C164.083 75.5611 163.934 75.436 163.803 75.2929C163.7 75.1833 163.61 75.0632 163.532 74.9344C163.477 74.8447 163.429 74.7516 163.386 74.6556L163.328 74.5184L163.297 74.4255C163.275 74.3635 163.257 74.2971 163.239 74.2352C163.222 74.1732 163.204 74.0537 163.19 73.9652V73.7793V73.6377C163.187 73.4365 163.199 73.2353 163.226 73.0358C163.226 72.903 163.261 72.7924 163.279 72.695C163.315 72.4959 163.35 72.3321 163.39 72.1684C163.535 71.5685 163.715 70.9775 163.927 70.3981C164.127 69.8272 164.371 69.2828 164.58 68.7341C164.789 68.1853 165.055 67.6586 165.313 67.1497C166.317 65.1073 167.433 63.1216 168.656 61.2016C169.26 60.2545 169.877 59.3163 170.525 58.4002C171.174 57.4841 171.808 56.5768 172.528 55.6562L176.759 58.8958Z" fill="#FF8B7B"/>
<path d="M178.628 56.4818C179.312 59.7656 171.942 67.9885 171.942 67.9885L165.57 63.1203C167.061 60.4399 168.835 57.9265 170.863 55.6232C173.878 52.3615 177.851 52.8749 178.628 56.4818Z" fill="#58B368"/>
<path opacity="0.2" d="M173.3 58.7711C171.524 59.4172 170.587 63.7145 169.566 66.1885L171.924 67.9853C173.685 65.9939 175.297 63.8757 176.745 61.6477C175.897 59.7801 175.329 58.0364 173.3 58.7711Z" fill="black"/>
<path opacity="0.2" d="M157.636 151.688L156.841 155.83L160.202 156.879L161.001 152.737L157.636 151.688Z" fill="black"/>
<path opacity="0.2" d="M187.233 156.158H183.708L185.124 160.349H188.649L187.233 156.158Z" fill="black"/>
<path d="M194.373 56.3198C193.02 60.0086 191.946 63.7926 191.158 67.6406C190.594 70.3225 190.172 72.8939 189.826 75.2306C189.062 80.7007 188.827 84.9051 188.543 86.2947C185.812 85.8522 175.529 84.2766 169.926 83.4004C169.078 63.2858 174.81 53.4475 174.81 53.4475C176.316 53.2957 177.83 53.2381 179.343 53.2749C179.658 53.2749 179.983 53.2749 180.311 53.3192C182.971 53.5782 185.615 53.989 188.228 54.5495C188.725 54.6513 189.222 54.7664 189.711 54.8859C192.219 55.5232 194.373 56.3198 194.373 56.3198Z" fill="#58B368"/>
<path opacity="0.2" d="M191.797 63.5773L187.894 67.8967C187.894 67.8967 187.184 75.646 189.302 79.638C189.448 78.3103 189.626 76.8188 189.848 75.2123C190.172 72.8756 190.594 70.3043 191.18 67.6223C191.473 66.2238 191.806 64.7943 192.179 63.3516L191.797 63.5773Z" fill="black"/>
<path d="M188.867 45.5615C187.979 48.0222 186.745 52.5939 188.263 54.5677C187.351 55.2602 186.3 55.7497 185.182 56.0031C184.064 56.2566 182.904 56.2681 181.781 56.037C179.596 55.6476 179.725 54.1075 180.347 53.3374C183.295 53.1028 183.548 50.9918 183.361 48.9427L188.867 45.5615Z" fill="#FF8B7B"/>
<path opacity="0.2" d="M186.62 46.9458L183.361 48.9418C183.411 49.4197 183.418 49.9009 183.384 50.3801C184.494 50.3801 186.172 49.4374 186.46 48.3222C186.596 47.8766 186.65 47.4104 186.62 46.9458Z" fill="black"/>
<path d="M182.913 34.9971C180.426 33.8464 179.299 42.1666 181.044 43.366C182.789 44.5653 187.562 37.1391 182.913 34.9971Z" fill="#454D66"/>
<path d="M189.768 41.7897C189.018 45.193 188.751 47.2244 186.736 48.7158C183.703 50.9641 179.694 48.7158 179.405 45.1753C179.148 41.9755 180.417 36.948 184.005 36.1027C184.795 35.9132 185.62 35.928 186.402 36.1455C187.185 36.3631 187.899 36.7763 188.476 37.346C189.053 37.9156 189.475 38.6229 189.701 39.4005C189.927 40.1782 189.95 41.0006 189.768 41.7897V41.7897Z" fill="#FF8B7B"/>
<path d="M189 45.119C187.45 46.0041 187.512 35.5507 190.54 37.0864C195.673 39.6843 192.663 43.008 189 45.119Z" fill="#454D66"/>
<path d="M192.645 38.9798C191.238 40.2632 178.255 32.2218 183.801 30.9251C190.012 29.4602 195.345 36.5014 192.645 38.9798Z" fill="#454D66"/>
<path d="M189.95 39.1087C188.365 40.1664 173.322 37.1968 176.985 32.8464C181.363 27.6418 193.236 36.9136 189.95 39.1087Z" fill="#454D66"/>
<path d="M190.732 45.8219C190.152 46.4806 189.335 46.8846 188.458 46.946C187.295 47.0169 186.958 45.9237 187.486 44.9545C187.957 44.0694 189.133 42.9984 190.203 43.3834C191.273 43.7684 191.433 45.0032 190.732 45.8219Z" fill="#FF8B7B"/>
<path d="M155.824 154.661L161.516 156.431C161.516 156.431 167.262 135.684 169.22 124.921C169.815 121.646 171.085 117.123 172.607 112.294C174.526 106.214 176.843 99.6548 178.721 94.5299C180.702 89.1261 182.185 85.3112 182.185 85.3112L169.943 83.4082C169.943 83.4082 160.002 111.785 158.724 122.429C157.396 133.498 155.824 154.661 155.824 154.661Z" fill="#58B368"/>
<path opacity="0.6" d="M155.824 154.661L161.516 156.431C161.516 156.431 167.262 135.684 169.22 124.921C169.815 121.646 171.085 117.123 172.607 112.294C174.526 106.214 176.843 99.6548 178.721 94.5299C180.702 89.1261 182.185 85.3112 182.185 85.3112L169.943 83.4082C169.943 83.4082 160.002 111.785 158.724 122.429C157.396 133.498 155.824 154.661 155.824 154.661Z" fill="black"/>
<path opacity="0.2" d="M172.608 112.304C174.526 106.223 176.843 99.664 178.721 94.5391L177.678 91.689C174.317 95.0436 172.536 106.17 172.608 112.304Z" fill="black"/>
<path d="M176.546 84.4438C176.546 84.4438 175.316 114.512 175.929 124.779C176.599 136.025 183.477 159.538 183.477 159.538H189.928C189.928 159.538 187.158 138.189 186.065 127.258C184.822 114.808 188.57 86.3115 188.57 86.3115L176.546 84.4438Z" fill="#58B368"/>
<path opacity="0.6" d="M176.546 84.4438C176.546 84.4438 175.316 114.512 175.929 124.779C176.599 136.025 183.477 159.538 183.477 159.538H189.928C189.928 159.538 187.158 138.189 186.065 127.258C184.822 114.808 188.57 86.3115 188.57 86.3115L176.546 84.4438Z" fill="black"/>
<path d="M182.695 159.676H190.292V157.414L181.798 157.264L182.695 159.676Z" fill="#58B368"/>
<path d="M155.065 154.575L161.85 156.694L162.538 154.508L154.99 152.025L155.065 154.575Z" fill="#58B368"/>
<path d="M184.4 41.9362C184.356 42.215 184.174 42.4185 183.992 42.3787C183.81 42.3389 183.694 42.0999 183.739 41.8211C183.783 41.5423 183.965 41.3387 184.147 41.3785C184.329 41.4184 184.431 41.6573 184.4 41.9362Z" fill="#454D66"/>
<path d="M181.217 41.4455C181.172 41.7243 180.986 41.9279 180.804 41.8881C180.622 41.8483 180.506 41.6137 180.551 41.3304C180.595 41.0472 180.777 40.8481 180.963 40.8879C181.15 40.9277 181.256 41.1623 181.217 41.4455Z" fill="#454D66"/>
<path d="M182.203 41.7407C181.734 42.5425 181.157 43.2766 180.489 43.9226C180.66 44.0861 180.866 44.2104 181.09 44.2869C181.315 44.3633 181.554 44.39 181.79 44.3651L182.203 41.7407Z" fill="#FF5652"/>
<path d="M182.855 45.317C182.731 45.3136 182.608 45.3018 182.486 45.2816C182.475 45.2806 182.465 45.2773 182.455 45.2719C182.445 45.2666 182.437 45.2594 182.43 45.2506C182.424 45.2419 182.419 45.2319 182.416 45.2212C182.414 45.2106 182.413 45.1995 182.415 45.1887C182.42 45.1676 182.431 45.1488 182.448 45.1358C182.466 45.1228 182.487 45.1164 182.508 45.1179C182.857 45.1825 183.215 45.1632 183.554 45.0616C183.893 44.96 184.203 44.779 184.458 44.5337C184.465 44.5258 184.475 44.5195 184.485 44.5153C184.495 44.511 184.506 44.5088 184.518 44.5088C184.529 44.5088 184.54 44.511 184.55 44.5153C184.56 44.5195 184.57 44.5258 184.578 44.5337C184.585 44.5411 184.591 44.5501 184.596 44.56C184.6 44.5699 184.602 44.5805 184.602 44.5912C184.602 44.602 184.6 44.6126 184.596 44.6225C184.591 44.6324 184.585 44.6413 184.578 44.6488C184.351 44.8712 184.082 45.0451 183.785 45.16C183.489 45.275 183.172 45.3284 182.855 45.317V45.317Z" fill="#454D66"/>
<path d="M185.528 41.0692C185.498 41.0672 185.469 41.0581 185.444 41.0427C185.418 41.0273 185.397 41.006 185.381 40.9807C185.288 40.7945 185.151 40.633 184.983 40.5093C184.815 40.3855 184.62 40.3029 184.414 40.2682C184.389 40.2696 184.365 40.2659 184.343 40.2573C184.32 40.2487 184.3 40.2353 184.283 40.2181C184.266 40.201 184.253 40.1803 184.244 40.1577C184.236 40.1351 184.233 40.1109 184.235 40.0869C184.237 40.0629 184.244 40.0396 184.256 40.0185C184.267 39.9975 184.284 39.9792 184.303 39.9649C184.323 39.9506 184.345 39.9407 184.368 39.9357C184.392 39.9308 184.417 39.9309 184.44 39.9362C184.702 39.9748 184.951 40.0753 185.165 40.2293C185.38 40.3832 185.555 40.5863 185.674 40.8214C185.695 40.8602 185.7 40.9056 185.687 40.9478C185.675 40.9899 185.646 41.0256 185.608 41.0471C185.583 41.0605 185.556 41.0681 185.528 41.0692V41.0692Z" fill="#454D66"/>
<path d="M180.018 40.1438C179.985 40.1415 179.953 40.1309 179.925 40.1128C179.907 40.1004 179.892 40.0846 179.88 40.0663C179.868 40.048 179.86 40.0275 179.856 40.0061C179.853 39.9847 179.853 39.9627 179.858 39.9415C179.863 39.9203 179.872 39.9003 179.885 39.8827C180.032 39.6626 180.23 39.4805 180.461 39.3512C180.693 39.222 180.952 39.1493 181.217 39.1392C181.262 39.1392 181.304 39.1569 181.336 39.1884C181.368 39.22 181.386 39.2627 181.386 39.3073C181.386 39.3519 181.368 39.3947 181.336 39.4263C181.304 39.4578 181.262 39.4755 181.217 39.4755C181.007 39.4817 180.802 39.5395 180.62 39.6438C180.438 39.748 180.285 39.8954 180.173 40.073C180.155 40.0963 180.131 40.1148 180.104 40.1272C180.077 40.1395 180.048 40.1452 180.018 40.1438V40.1438Z" fill="#454D66"/>
<path d="M184.817 164.492C184.578 164.51 184.338 164.448 184.138 164.315C184.076 164.261 184.027 164.192 183.997 164.115C183.967 164.038 183.956 163.955 183.965 163.873C183.964 163.824 183.978 163.776 184.004 163.734C184.03 163.692 184.067 163.659 184.112 163.638C184.498 163.434 185.634 164.134 185.763 164.213C185.777 164.222 185.788 164.235 185.795 164.25C185.802 164.265 185.805 164.281 185.803 164.297C185.799 164.313 185.792 164.327 185.781 164.339C185.77 164.35 185.756 164.359 185.741 164.364C185.439 164.44 185.129 164.483 184.817 164.492ZM184.294 163.784C184.257 163.783 184.22 163.791 184.187 163.806C184.17 163.816 184.155 163.83 184.146 163.847C184.136 163.864 184.132 163.884 184.134 163.904C184.126 163.959 184.132 164.016 184.151 164.068C184.17 164.121 184.203 164.168 184.245 164.205C184.44 164.368 184.897 164.39 185.497 164.271C185.131 164.033 184.722 163.867 184.294 163.784Z" fill="#58B368"/>
<path d="M185.732 164.367C185.719 164.371 185.705 164.371 185.692 164.367C185.328 164.173 184.622 163.402 184.697 163.009C184.711 162.948 184.744 162.893 184.793 162.854C184.841 162.814 184.901 162.792 184.964 162.792C185.027 162.785 185.091 162.791 185.152 162.809C185.213 162.827 185.27 162.858 185.319 162.898C185.728 163.234 185.812 164.226 185.816 164.288C185.817 164.303 185.814 164.317 185.807 164.331C185.8 164.344 185.789 164.355 185.776 164.363C185.762 164.369 185.747 164.37 185.732 164.367V164.367ZM185.022 162.947H184.982C184.875 162.947 184.866 163.013 184.862 163.031C184.817 163.265 185.266 163.845 185.63 164.119C185.604 163.719 185.459 163.335 185.213 163.017C185.156 162.969 185.083 162.943 185.008 162.947H185.022Z" fill="#58B368"/>
<path d="M155.758 159.703C155.181 159.641 154.177 159.473 153.911 159.03C153.87 158.964 153.846 158.889 153.842 158.812C153.837 158.735 153.852 158.658 153.884 158.587C153.9 158.545 153.926 158.508 153.96 158.478C153.994 158.449 154.035 158.428 154.079 158.419C154.563 158.317 155.696 159.424 155.824 159.552C155.834 159.566 155.839 159.582 155.839 159.599C155.839 159.615 155.834 159.632 155.824 159.645C155.82 159.66 155.812 159.674 155.8 159.684C155.788 159.694 155.773 159.701 155.758 159.703V159.703ZM154.137 158.587H154.106C154.089 158.591 154.072 158.598 154.059 158.61C154.046 158.622 154.036 158.637 154.031 158.654C154.007 158.698 153.994 158.747 153.994 158.798C153.994 158.848 154.007 158.897 154.031 158.941C154.182 159.189 154.723 159.384 155.505 159.503C155.065 159.087 154.421 158.579 154.137 158.587V158.587Z" fill="#58B368"/>
<path d="M155.758 159.703C155.739 159.708 155.719 159.708 155.7 159.703C155.354 159.398 154.776 158.42 154.959 158.061C155.003 157.977 155.101 157.884 155.323 157.933C155.405 157.948 155.483 157.98 155.552 158.027C155.621 158.075 155.679 158.136 155.722 158.207C156.042 158.69 155.847 159.619 155.838 159.659C155.836 159.673 155.83 159.687 155.82 159.698C155.811 159.709 155.798 159.717 155.784 159.721L155.758 159.703ZM155.203 158.061C155.132 158.061 155.114 158.101 155.109 158.114C154.998 158.327 155.367 159.07 155.7 159.442C155.784 159.049 155.744 158.639 155.585 158.269C155.552 158.218 155.509 158.173 155.459 158.139C155.408 158.105 155.351 158.081 155.292 158.07L155.203 158.061Z" fill="#58B368"/>
<path d="M196.237 60.4497C196.171 61.0604 196.104 61.5871 196.011 62.1492C195.918 62.7112 195.829 63.2511 195.727 63.7999C195.536 64.8975 195.283 65.9818 195.007 67.0705C194.448 69.2761 193.705 71.4314 192.787 73.5142L192.419 74.3064L192.015 75.0942L191.913 75.2933L191.864 75.3907L191.784 75.5323C191.626 75.816 191.435 76.0803 191.216 76.3201C190.683 76.897 189.975 77.2828 189.2 77.4177C188.607 77.5129 188 77.4735 187.424 77.3026C187.017 77.1815 186.624 77.0183 186.252 76.8158C185.661 76.4876 185.107 76.0974 184.6 75.6518C184.145 75.2618 183.713 74.8451 183.308 74.4038C182.904 73.9612 182.531 73.5452 182.176 73.0982C181.463 72.2188 180.812 71.2917 180.227 70.3233L182.269 68.646C183.788 69.9725 185.399 71.1897 187.091 72.2883C187.435 72.496 187.797 72.6708 188.174 72.8106C188.28 72.8553 188.393 72.8794 188.507 72.8814C188.56 72.8814 188.507 72.8283 188.312 72.846C188.068 72.8805 187.841 72.9904 187.664 73.1602C187.597 73.2266 187.566 73.2708 187.548 73.2841V73.2443L187.579 73.1602L187.65 72.992L187.926 72.3237L188.179 71.6377C188.849 69.7401 189.394 67.8004 189.808 65.8313C190.035 64.8311 190.252 63.8265 190.425 62.8174C190.598 61.8084 190.776 60.7639 190.923 59.8257L196.237 60.4497Z" fill="#FF8B7B"/>
<path d="M196.926 58.3638C198.839 61.1254 195.851 70.5697 195.851 70.5697L187.415 68.5649C187.832 65.6441 188.516 62.7672 189.457 59.9703C191.06 55.5137 194.612 55.018 196.926 58.3638Z" fill="#58B368"/>
<path d="M182.527 68.8744L180.453 65.9756L178.207 69.8613C178.207 69.8613 180.524 71.9458 181.759 70.8482L182.527 68.8744Z" fill="#FF8B7B"/>
<path d="M177.638 65.1138L175.933 68.4153L178.211 69.8536L180.453 65.9679L177.638 65.1138Z" fill="#FF8B7B"/>
<path d="M168.549 66.7381L170.738 63.9189L172.821 67.902C172.821 67.902 170.423 69.8847 169.224 68.7385L168.549 66.7381Z" fill="#FF8B7B"/>
<path d="M173.589 63.1831L175.156 66.551L172.821 67.8964L170.738 63.9178L173.589 63.1831Z" fill="#FF8B7B"/>
<path d="M92.4037 42.0785C91.64 40.6402 92.1106 38.1972 96.2176 38.1618C100.325 38.1264 104.964 38.3167 104.254 34.5903C107.806 35.1789 110.248 38.3477 108.534 40.4322C105.786 43.7647 107.713 46.1236 105.777 47.407C103.082 49.2038 102.225 58.0286 96.3153 55.8556C96.8659 52.5895 87.6307 45.0526 92.4037 42.0785Z" fill="#454D66"/>
<path d="M111.504 64.2061C111.602 65.2638 111.731 66.4189 111.89 67.5209C112.05 68.6229 112.21 69.7337 112.432 70.849C112.836 73.0329 113.403 75.1838 114.128 77.2839L114.417 78.0451L114.55 78.3903C114.55 78.4124 114.55 78.3903 114.519 78.3903C114.43 78.3072 114.316 78.2558 114.195 78.2442C114.133 78.2442 114.221 78.2752 114.359 78.2442C114.77 78.1361 115.164 77.9692 115.527 77.7486C115.989 77.494 116.433 77.2102 116.859 76.8988C117.769 76.2496 118.645 75.5539 119.483 74.8144C120.34 74.0753 121.201 73.2964 122.022 72.5263L123.497 73.7655C122.111 75.748 120.518 77.5786 118.746 79.2267C118.269 79.658 117.768 80.0614 117.245 80.4349C116.641 80.8706 115.975 81.2137 115.269 81.4528C114.766 81.6161 114.233 81.6704 113.706 81.6122C113.358 81.5711 113.021 81.466 112.712 81.3024C112.397 81.1362 112.116 80.9142 111.882 80.6474C111.682 80.422 111.515 80.1704 111.384 79.8994C111.359 79.8566 111.337 79.8123 111.318 79.7667L111.269 79.6604L111.171 79.448L110.789 78.5983C109.861 76.3443 109.145 74.0093 108.649 71.6235C108.396 70.4462 108.17 69.269 108.005 68.0829C107.841 66.8969 107.695 65.7241 107.619 64.4627L111.504 64.2061Z" fill="#FFC3BD"/>
<path d="M110.03 59.8074C111.362 60.1526 112.135 69.0171 112.135 69.0171L108.556 71.1636C108.556 71.1636 106.394 64.6136 106.722 61.7856C106.962 59.7277 109.018 59.5507 110.03 59.8074Z" fill="#FFC3BD"/>
<path d="M121.978 72.2615L124.034 69.022L125.201 72.6997C125.201 72.6997 123.514 74.4699 121.987 74.0274L121.978 72.2615Z" fill="#FFC3BD"/>
<path d="M127.053 67.9473L127.861 71.0851L125.202 72.7004L124.034 69.0227L127.053 67.9473Z" fill="#FFC3BD"/>
<path d="M102.384 164.014H106.194L107.81 150.069H102.584L102.384 164.014Z" fill="#FFC3BD"/>
<path d="M78.4619 158.889L82.1516 159.841L87.817 147.042L82.711 145.604L78.4619 158.889Z" fill="#FFC3BD"/>
<path d="M82.7242 159.231L78.7859 157.562C78.7187 157.531 78.6424 157.526 78.5718 157.548C78.5012 157.57 78.4414 157.618 78.404 157.682L76.628 160.598C76.5864 160.673 76.561 160.756 76.5536 160.841C76.5461 160.927 76.5568 161.013 76.5848 161.093C76.6129 161.174 76.6577 161.249 76.7164 161.311C76.7751 161.374 76.8464 161.423 76.9255 161.457C78.3108 162.014 79.0079 162.213 80.7395 162.948C81.8051 163.391 83.3147 164.17 84.7843 164.794C86.254 165.418 86.9555 163.997 86.396 163.608C83.9008 161.837 83.812 160.859 83.217 159.691C83.1116 159.485 82.9373 159.322 82.7242 159.231V159.231Z" fill="#454D66"/>
<path d="M106.323 163.571H102.043C101.969 163.571 101.898 163.597 101.842 163.645C101.786 163.693 101.75 163.76 101.741 163.832L101.252 167.209C101.243 167.294 101.253 167.381 101.28 167.462C101.307 167.543 101.35 167.618 101.408 167.682C101.466 167.745 101.536 167.796 101.615 167.83C101.694 167.865 101.779 167.882 101.865 167.882C103.357 167.855 104.085 167.771 105.959 167.771C107.113 167.771 109.511 167.891 111.109 167.891C112.707 167.891 112.792 166.315 112.126 166.169C109.142 165.532 107.965 164.647 106.962 163.806C106.783 163.656 106.557 163.573 106.323 163.571V163.571Z" fill="#454D66"/>
<path d="M110.252 59.8024C110.252 59.8024 112.064 60.4397 108.432 82.7185H92.9763C93.2383 76.4429 93.2427 72.5749 90.2368 59.7051C92.4013 59.2514 94.596 58.9556 96.8036 58.8199C99.142 58.6538 101.489 58.6538 103.828 58.8199C106.847 59.1032 110.252 59.8024 110.252 59.8024Z" fill="#454D66"/>
<path d="M97.5003 50.9297C97.9443 53.1823 98.3883 57.3115 96.8032 58.8118C98.7792 60.9022 101.081 62.6611 103.619 64.0208C105.812 60.4802 103.827 58.8118 103.827 58.8118C101.31 58.2143 101.372 56.3511 101.812 54.5986L97.5003 50.9297Z" fill="#FFC3BD"/>
<path d="M97.6782 56.9172C99.0093 57.0308 100.349 57.0041 101.674 56.8376C101.687 56.8356 101.7 56.8381 101.711 56.8445C101.723 56.8509 101.732 56.8609 101.736 56.873C101.776 56.9747 101.883 57.2536 101.967 57.4439C101.974 57.4562 101.975 57.4705 101.971 57.4838C101.966 57.497 101.957 57.5081 101.945 57.5147C101.501 57.7404 99.3032 58.028 97.505 57.6917C97.4968 57.6902 97.4891 57.687 97.4822 57.6823C97.4754 57.6775 97.4697 57.6714 97.4655 57.6643C97.4613 57.6571 97.4587 57.6491 97.4578 57.6409C97.457 57.6326 97.4579 57.6243 97.4606 57.6165C97.5317 57.3509 97.6071 57.0677 97.6338 56.9615C97.6348 56.9501 97.6398 56.9394 97.6479 56.9313C97.656 56.9232 97.6667 56.9182 97.6782 56.9172V56.9172Z" fill="#58B368"/>
<path opacity="0.2" d="M99.2587 52.4438L101.812 54.6168C101.703 55.0228 101.63 55.4374 101.594 55.856C100.631 55.7188 99.3075 54.6655 99.2054 53.6432C99.1532 53.2434 99.1712 52.8375 99.2587 52.4438V52.4438Z" fill="black"/>
<path d="M95.1163 46.8144C96.0043 50.4789 96.2974 52.0455 98.5129 53.6166C101.843 55.9755 106.163 54.0902 106.394 50.2399C106.603 46.7702 105.115 41.362 101.217 40.53C100.358 40.3422 99.4654 40.3765 98.6237 40.6296C97.782 40.8826 97.0192 41.3461 96.4078 41.9759C95.7965 42.6057 95.3569 43.3809 95.1308 44.2277C94.9048 45.0746 94.8998 45.9651 95.1163 46.8144V46.8144Z" fill="#FFC3BD"/>
<path d="M108.45 82.7192C108.45 82.7192 111.451 111.968 111.202 123.546C110.945 135.593 108.538 150.485 108.538 150.485H101.896C101.896 150.485 102.18 136.296 101.723 124.466C101.23 111.57 97.1187 82.7192 97.1187 82.7192H108.45Z" fill="#58B368"/>
<path d="M101.328 151.144H108.818L109.364 149.223L100.977 148.989L101.328 151.144Z" fill="#454D66"/>
<path opacity="0.2" d="M101.776 89.9989C105.573 97.6154 102.536 111.516 101.195 116.686C100.507 108.919 99.3433 99.4255 98.4375 92.4551C99.0147 88.5118 100.04 86.4849 101.776 89.9989Z" fill="black"/>
<path d="M104.36 82.7192C104.36 82.7192 100.857 113.128 98.2106 122.891C95.0671 134.477 88.6468 147.276 88.6468 147.276L81.9868 145.404C81.9868 145.404 85.7209 129.782 88.1229 123.674C93.2511 110.645 88.8599 91.2253 92.9581 82.7192H104.36Z" fill="#58B368"/>
<path d="M81.5918 146.413L88.496 148.32L89.7392 146.555L82.0802 144.01L81.5918 146.413Z" fill="#454D66"/>
<path d="M101.323 46.8894C101.376 47.1904 101.581 47.4072 101.767 47.3718C101.954 47.3364 102.082 47.062 102.029 46.7611C101.976 46.4601 101.772 46.2433 101.585 46.2787C101.399 46.3141 101.27 46.5885 101.323 46.8894Z" fill="#454D66"/>
<path d="M104.742 46.283C104.8 46.5839 105 46.8008 105.186 46.7653C105.373 46.7299 105.501 46.46 105.448 46.159C105.395 45.8581 105.191 45.6412 105.004 45.6766C104.818 45.712 104.689 45.982 104.742 46.283Z" fill="#454D66"/>
<path d="M104.924 45.7074L105.617 45.3711C105.617 45.3711 105.337 45.9995 104.924 45.7074Z" fill="#454D66"/>
<path d="M103.774 46.9478C104.167 47.5878 104.645 48.1715 105.195 48.6826C105.06 48.8188 104.896 48.9241 104.716 48.9913C104.536 49.0585 104.344 49.0861 104.152 49.0721L103.774 46.9478Z" fill="#ED847E"/>
<path d="M102.553 50.4865C102.726 50.4863 102.898 50.4715 103.068 50.4423C103.08 50.4402 103.091 50.4357 103.101 50.4292C103.111 50.4227 103.12 50.4142 103.126 50.4043C103.133 50.3943 103.138 50.3832 103.14 50.3715C103.142 50.3598 103.142 50.3477 103.139 50.3361C103.138 50.3245 103.134 50.3134 103.128 50.3035C103.121 50.2935 103.113 50.2849 103.104 50.2783C103.094 50.2716 103.083 50.267 103.072 50.2648C103.06 50.2625 103.048 50.2627 103.037 50.2653C102.662 50.3401 102.274 50.3258 101.905 50.2236C101.537 50.1213 101.197 49.9339 100.915 49.6766C100.907 49.6681 100.897 49.6612 100.887 49.6565C100.876 49.6518 100.864 49.6494 100.853 49.6494C100.841 49.6494 100.829 49.6518 100.819 49.6565C100.808 49.6612 100.798 49.6681 100.79 49.6766C100.774 49.6939 100.765 49.7169 100.765 49.7408C100.765 49.7647 100.774 49.7877 100.79 49.805C101.268 50.2506 101.899 50.4949 102.553 50.4865Z" fill="#454D66"/>
<path d="M93.8818 41.561C96.0663 42.632 98.2463 42.1673 98.3573 44.8714C98.4683 47.5755 94.7343 51.9525 93.8818 48.8545C93.0293 45.7566 93.8818 41.561 93.8818 41.561Z" fill="#454D66"/>
<path d="M94.5347 42.9636C97.3541 44.101 105.12 44.3975 104.951 40.9278C104.782 37.4581 98.0689 38.9938 96.1464 39.7373C94.2239 40.4808 94.5347 42.9636 94.5347 42.9636Z" fill="#454D66"/>
<path d="M94.9609 49.5751C95.1003 49.9081 95.3042 50.2105 95.5609 50.4649C95.8177 50.7193 96.1222 50.9208 96.4572 51.0577C97.3452 51.4206 97.9091 50.6417 97.7492 49.73C97.6027 48.9201 96.9634 47.7517 96.0176 47.7783C95.8095 47.786 95.6066 47.8458 95.4279 47.9524C95.2491 48.0589 95.1001 48.2086 94.9948 48.3877C94.8895 48.5669 94.8311 48.7696 94.8252 48.9771C94.8193 49.1846 94.866 49.3903 94.9609 49.5751V49.5751Z" fill="#FFC3BD"/>
<path d="M100 44.8707C100.025 44.8712 100.049 44.8663 100.071 44.8564C100.093 44.8464 100.113 44.8317 100.129 44.8131C100.281 44.646 100.47 44.5167 100.682 44.4352C100.893 44.3538 101.12 44.3226 101.346 44.344C101.392 44.352 101.441 44.3418 101.48 44.3154C101.52 44.2891 101.548 44.2487 101.559 44.2024C101.567 44.155 101.556 44.1064 101.528 44.0667C101.501 44.0271 101.459 43.9996 101.412 43.99C101.127 43.9564 100.838 43.9911 100.57 44.0911C100.301 44.1912 100.06 44.3538 99.867 44.5653C99.8339 44.5999 99.8154 44.6458 99.8154 44.6936C99.8154 44.7414 99.8339 44.7874 99.867 44.822C99.9035 44.8547 99.9512 44.8721 100 44.8707V44.8707Z" fill="#454D66"/>
<path d="M105.599 44.4057C105.622 44.4065 105.645 44.4026 105.666 44.3942C105.687 44.3858 105.707 44.3732 105.723 44.3571C105.74 44.3406 105.753 44.321 105.762 44.2993C105.772 44.2776 105.776 44.2544 105.776 44.2309C105.776 44.2075 105.772 44.1842 105.762 44.1626C105.753 44.1409 105.74 44.1213 105.723 44.1048C105.531 43.8923 105.29 43.7293 105.021 43.6299C104.752 43.5305 104.463 43.4975 104.178 43.5339C104.155 43.5381 104.133 43.5469 104.113 43.5597C104.094 43.5725 104.077 43.589 104.064 43.6083C104.05 43.6277 104.041 43.6495 104.036 43.6724C104.032 43.6953 104.032 43.7189 104.036 43.7419C104.045 43.7886 104.071 43.8301 104.11 43.8574C104.149 43.8847 104.198 43.8957 104.245 43.8879C104.468 43.8614 104.695 43.8877 104.906 43.9646C105.117 44.0414 105.308 44.1668 105.461 44.3305C105.477 44.3523 105.498 44.3703 105.522 44.3833C105.546 44.3963 105.572 44.4039 105.599 44.4057V44.4057Z" fill="#454D66"/>
<path d="M92.1678 65.2192C91.3997 67.2196 90.6626 69.3218 90.01 71.3886C89.3585 73.4275 88.8525 75.5098 88.4959 77.6199C88.4471 77.8766 88.4249 78.1289 88.3982 78.3811L88.3583 78.7573V78.9166C88.4025 79.2105 88.51 79.4913 88.6735 79.7398C89.1992 80.5931 89.8106 81.3909 90.4984 82.1208C91.9236 83.7096 93.5664 85.2188 95.187 86.7146L94.0637 88.2813C92.0499 87.1219 90.1487 85.7781 88.3849 84.2672C87.4291 83.4634 86.5734 82.5481 85.8364 81.541C85.3395 80.873 85.0106 80.096 84.8773 79.2751C84.8585 79.1283 84.8496 78.9805 84.8507 78.8325C84.8507 78.7396 84.8507 78.7352 84.8507 78.6865V78.5714V78.1289C84.8507 77.8191 84.8773 77.5093 84.9128 77.2127C85.1655 74.8757 85.6306 72.5663 86.3026 70.3132C86.9271 68.0883 87.6801 65.9013 88.5581 63.7632L92.1678 65.2192Z" fill="#FFC3BD"/>
<path d="M90.2723 59.6933C88.7538 60.3129 86.8535 68.5933 86.8535 68.5933L90.0814 71.2487C90.0814 71.2487 93.1228 65.0528 93.256 62.2292C93.3359 60.0739 91.6043 59.149 90.2723 59.6933Z" fill="#FFC3BD"/>
<path d="M84.4735 160.426C84.5429 160.39 84.6036 160.339 84.6512 160.277C84.6988 160.215 84.7321 160.144 84.7487 160.067C84.7659 160.016 84.7687 159.961 84.757 159.908C84.7453 159.855 84.7194 159.806 84.6821 159.767C84.3536 159.408 82.9949 159.643 82.8395 159.669C82.8226 159.674 82.8071 159.683 82.7947 159.695C82.7822 159.708 82.7732 159.723 82.7685 159.74C82.7644 159.757 82.7656 159.775 82.7719 159.792C82.7783 159.808 82.7894 159.823 82.804 159.833C83.2125 160.129 83.9673 160.607 84.4202 160.448C84.439 160.443 84.4569 160.436 84.4735 160.426V160.426ZM83.0882 159.802C83.6343 159.727 84.3758 159.691 84.5489 159.877C84.562 159.898 84.5689 159.921 84.5689 159.946C84.5689 159.97 84.562 159.994 84.5489 160.014C84.5392 160.071 84.515 160.125 84.4784 160.17C84.4418 160.215 84.3943 160.25 84.3403 160.271C84.1138 160.364 83.6476 160.191 83.0882 159.802Z" fill="#58B368"/>
<path d="M83.4746 159.642C83.8698 159.451 84.2738 159.159 84.3316 158.889C84.3458 158.819 84.3354 158.746 84.3023 158.683C84.2692 158.619 84.2153 158.569 84.1495 158.54C84.0897 158.505 84.023 158.483 83.9541 158.477C83.8851 158.47 83.8155 158.478 83.7499 158.5C83.2304 158.677 82.7909 159.682 82.7731 159.721C82.7653 159.735 82.7612 159.75 82.7612 159.766C82.7612 159.781 82.7653 159.796 82.7731 159.81C82.7816 159.823 82.7936 159.833 82.8078 159.839C82.822 159.846 82.8377 159.848 82.853 159.845C83.0696 159.81 83.2793 159.741 83.4746 159.642V159.642ZM83.7544 158.695L83.8076 158.672C83.8489 158.657 83.8929 158.651 83.9367 158.655C83.9804 158.659 84.0228 158.673 84.0607 158.695C84.1584 158.752 84.1628 158.81 84.154 158.849C84.1007 159.111 83.4613 159.509 83.0129 159.633C83.1733 159.261 83.429 158.937 83.7544 158.695V158.695Z" fill="#58B368"/>
<path d="M107.752 164.227C108.079 164.257 108.407 164.174 108.68 163.993C108.742 163.938 108.788 163.869 108.816 163.791C108.844 163.714 108.852 163.631 108.84 163.55C108.838 163.5 108.822 163.452 108.796 163.409C108.77 163.366 108.733 163.331 108.689 163.307C108.245 163.054 106.704 163.829 106.531 163.917C106.514 163.926 106.5 163.939 106.492 163.956C106.483 163.973 106.48 163.992 106.482 164.01C106.486 164.028 106.494 164.045 106.507 164.059C106.519 164.072 106.536 164.081 106.554 164.086C106.948 164.169 107.349 164.216 107.752 164.227V164.227ZM108.432 163.444C108.49 163.44 108.547 163.451 108.6 163.475C108.619 163.484 108.634 163.498 108.645 163.515C108.656 163.532 108.662 163.552 108.663 163.572C108.671 163.625 108.665 163.679 108.647 163.73C108.628 163.78 108.597 163.825 108.556 163.86C108.325 164.068 107.699 164.103 106.855 163.966C107.348 163.707 107.881 163.533 108.432 163.453V163.444Z" fill="#58B368"/>
<path d="M106.571 164.102H106.611C107.055 163.899 107.943 163.08 107.89 162.651C107.89 162.549 107.801 162.421 107.553 162.394C107.463 162.386 107.374 162.395 107.288 162.422C107.203 162.448 107.124 162.492 107.055 162.549C106.576 162.947 106.487 163.97 106.482 164.014C106.482 164.029 106.485 164.045 106.492 164.059C106.499 164.073 106.51 164.085 106.522 164.094C106.537 164.103 106.554 164.106 106.571 164.102V164.102ZM107.459 162.562H107.513C107.677 162.562 107.69 162.642 107.69 162.664C107.735 162.925 107.126 163.549 106.66 163.846C106.697 163.415 106.868 163.007 107.148 162.677C107.193 162.636 107.246 162.605 107.303 162.585C107.36 162.566 107.421 162.558 107.481 162.562H107.459Z" fill="#58B368"/>
<path d="M92.745 81.8165L92.3498 83.1973C92.2965 83.3035 92.4209 83.4097 92.6029 83.4097H108.525C108.662 83.4097 108.778 83.3433 108.787 83.2548L108.929 81.874C108.929 81.781 108.818 81.7014 108.662 81.7014H92.9981C92.9495 81.6969 92.9006 81.7052 92.8562 81.7253C92.8118 81.7455 92.7734 81.7769 92.745 81.8165V81.8165Z" fill="#58B368"/>
<path opacity="0.8" d="M92.745 81.8165L92.3498 83.1973C92.2965 83.3035 92.4209 83.4097 92.6029 83.4097H108.525C108.662 83.4097 108.778 83.3433 108.787 83.2548L108.929 81.874C108.929 81.781 108.818 81.7014 108.662 81.7014H92.9981C92.9495 81.6969 92.9006 81.7052 92.8562 81.7253C92.8118 81.7455 92.7734 81.7769 92.745 81.8165V81.8165Z" fill="white"/>
<path d="M94.8498 83.5603H94.428C94.3481 83.5603 94.2815 83.5205 94.2903 83.4674L94.4857 81.6706C94.4857 81.6219 94.5656 81.5776 94.6456 81.5776H95.0896C95.1739 81.5776 95.2361 81.6219 95.2316 81.6706L95.0363 83.4674C95.0052 83.5205 94.9341 83.5603 94.8498 83.5603Z" fill="#58B368"/>
<path d="M107.344 83.5603H106.926C106.842 83.5603 106.78 83.5205 106.784 83.4674L106.98 81.6706C106.98 81.6219 107.06 81.5776 107.144 81.5776H107.561C107.646 81.5776 107.708 81.6219 107.703 81.6706L107.508 83.4674C107.504 83.5205 107.428 83.5603 107.344 83.5603Z" fill="#58B368"/>
<path d="M101.097 83.5603H100.68C100.595 83.5603 100.529 83.5205 100.537 83.4674L100.733 81.6706C100.733 81.6219 100.813 81.5776 100.897 81.5776H101.314C101.399 81.5776 101.461 81.6219 101.457 81.6706L101.261 83.4674C101.252 83.5205 101.181 83.5603 101.097 83.5603Z" fill="#58B368"/>
<path d="M94.7389 86.3843L98.8415 86.7339L96.102 89.4601C96.102 89.4601 93.7532 88.783 93.438 87.2473L94.7389 86.3843Z" fill="#FFC3BD"/>
<path d="M122.373 67.3055L119.709 80.0072C119.675 80.1711 119.673 80.3401 119.704 80.5047C119.735 80.6692 119.799 80.8261 119.891 80.9662C119.983 81.1064 120.101 81.2271 120.24 81.3215C120.379 81.4159 120.535 81.4821 120.699 81.5163L144.96 86.5881C145.293 86.655 145.639 86.5885 145.923 86.403C146.207 86.2175 146.407 85.9278 146.478 85.5968L149.142 72.8951C149.209 72.5638 149.143 72.2194 148.958 71.9362C148.773 71.653 148.483 71.4538 148.152 71.3816L123.892 66.3142C123.575 66.2511 123.246 66.3079 122.968 66.4735C122.817 66.5636 122.686 66.684 122.583 66.8273C122.481 66.9705 122.409 67.1333 122.373 67.3055V67.3055Z" fill="#58B368"/>
<path opacity="0.5" d="M122.373 67.3055L119.709 80.0072C119.675 80.1711 119.673 80.3401 119.704 80.5047C119.735 80.6692 119.799 80.8261 119.891 80.9662C119.983 81.1064 120.101 81.2271 120.24 81.3215C120.379 81.4159 120.535 81.4821 120.699 81.5163L144.96 86.5881C145.293 86.655 145.639 86.5885 145.923 86.403C146.207 86.2175 146.407 85.9278 146.478 85.5968L149.142 72.8951C149.209 72.5638 149.143 72.2194 148.958 71.9362C148.773 71.653 148.483 71.4538 148.152 71.3816L123.892 66.3142C123.575 66.2511 123.246 66.3079 122.968 66.4735C122.817 66.5636 122.686 66.684 122.583 66.8273C122.481 66.9705 122.409 67.1333 122.373 67.3055V67.3055Z" fill="black"/>
<path d="M148.933 71.9121L145.102 73.855L137.5 77.7009C136.442 78.2398 135.23 78.402 134.067 78.1605C132.903 77.9191 131.857 77.2884 131.102 76.3732L125.841 69.9604L122.964 66.4686C123.243 66.3046 123.573 66.2479 123.892 66.3092L126.01 66.7518L145.262 70.7747L148.148 71.3766C148.468 71.4493 148.749 71.6407 148.933 71.9121V71.9121Z" fill="#58B368"/>
<path d="M146.021 56.4575L145.261 70.7922L145.102 73.8548L137.5 77.7007C136.442 78.2397 135.23 78.4018 134.067 78.1604C132.903 77.9189 131.857 77.2882 131.102 76.373L125.841 69.9602L126.01 66.7516L126.609 55.4219C126.627 55.1147 126.766 54.827 126.995 54.6209C127.225 54.4147 127.526 54.3066 127.834 54.3199L144.915 55.2051C145.071 55.2135 145.223 55.2527 145.363 55.3205C145.503 55.3883 145.629 55.4833 145.732 55.5999C145.835 55.7166 145.913 55.8525 145.963 55.9997C146.012 56.147 146.032 56.3026 146.021 56.4575V56.4575Z" fill="#58B368"/>
<path opacity="0.9" d="M146.021 56.4575L145.261 70.7922L145.102 73.8548L137.5 77.7007C136.442 78.2397 135.23 78.4018 134.067 78.1604C132.903 77.9189 131.857 77.2882 131.102 76.373L125.841 69.9602L126.01 66.7516L126.609 55.4219C126.627 55.1147 126.766 54.827 126.995 54.6209C127.225 54.4147 127.526 54.3066 127.834 54.3199L144.915 55.2051C145.071 55.2135 145.223 55.2527 145.363 55.3205C145.503 55.3883 145.629 55.4833 145.732 55.5999C145.835 55.7166 145.913 55.8525 145.963 55.9997C146.012 56.147 146.032 56.3026 146.021 56.4575V56.4575Z" fill="white"/>
<path opacity="0.1" d="M132.008 74.603L125.912 68.6328L125.841 69.9605L131.12 76.3644C131.875 77.2797 132.921 77.9103 134.084 78.1518C135.248 78.3933 136.46 78.2311 137.518 77.6921L145.119 73.8462L145.195 72.4123L137.531 75.6342C136.612 76.0272 135.596 76.1391 134.612 75.9555C133.629 75.7719 132.722 75.3011 132.008 74.603V74.603Z" fill="black"/>
<path d="M128.456 59.7464L128.643 56.2368L129.353 56.2766L129.166 59.7818L128.456 59.7464Z" fill="#58B368"/>
<path d="M129.85 59.8201L130.037 56.3105L130.729 56.346L132.061 58.7668L132.181 56.4212L132.843 56.4566L132.656 59.9661L131.946 59.9307L130.632 57.5674L130.512 59.8555L129.85 59.8201Z" fill="#58B368"/>
<path d="M134.295 60.0554L133.22 56.4795L133.993 56.5193L134.748 59.1747L135.747 56.6255L136.501 56.6654L135.054 60.1085L134.295 60.0554Z" fill="#58B368"/>
<path d="M136.657 60.1799L136.843 56.6704L137.554 56.7058L137.367 60.2154L136.657 60.1799Z" fill="#58B368"/>
<path d="M138.837 60.2946L138.992 57.3781L137.949 57.3206L137.98 56.7275L140.777 56.8736L140.746 57.4666L139.703 57.4135L139.547 60.33L138.837 60.2946Z" fill="#58B368"/>
<path d="M141.048 60.4095L141.234 56.8999L143.845 57.0371L143.814 57.6301L141.914 57.5283L141.874 58.3073L143.65 58.4002L143.619 58.9932L141.843 58.9003L141.794 59.8562L143.761 59.958L143.73 60.5511L141.048 60.4095Z" fill="#58B368"/>
<path d="M101.185 88.9059L98.7657 91.0656L95.5156 89.2423L98.8412 86.7329L101.185 88.9059Z" fill="#FFC3BD"/>
<path d="M101.501 46.3095L102.189 45.9731C102.189 45.9731 101.918 46.606 101.501 46.3095Z" fill="#454D66"/>
</svg>
