<svg width="280" height="180" viewBox="0 0 280 180" fill="none" xmlns="http://www.w3.org/2000/svg">
<g clip-path="url(#clip0_2_486)">
<path d="M244.496 152.202H36V152.306H244.496V152.202Z" fill="#EBEBEB"/>
<path d="M186.951 155.513H173.14V155.617H186.951V155.513Z" fill="#EBEBEB"/>
<path d="M219.86 155.567H202.705V155.672H219.86V155.567Z" fill="#EBEBEB"/>
<path d="M192.768 158.29H184.766V158.394H192.768V158.29Z" fill="#EBEBEB"/>
<path d="M130.103 157.502H108.557V157.606H130.103V157.502Z" fill="#EBEBEB"/>
<path d="M104.845 157.502H90.5051V157.606H104.845V157.502Z" fill="#EBEBEB"/>
<path d="M81.9233 155.743H62.3914V155.847H81.9233V155.743Z" fill="#EBEBEB"/>
<path d="M134.827 133.604H54.3102C53.6794 133.603 53.0749 133.352 52.6293 132.905C52.1836 132.459 51.9333 131.854 51.9333 131.223V18.0389C51.9388 17.4117 52.1915 16.8121 52.6366 16.3702C53.0816 15.9283 53.683 15.6798 54.3102 15.6787H134.827C135.459 15.6787 136.064 15.9296 136.511 16.3761C136.957 16.8226 137.208 17.4282 137.208 18.0597V131.223C137.208 131.855 136.957 132.46 136.511 132.907C136.064 133.353 135.459 133.604 134.827 133.604V133.604ZM54.3102 15.7621C53.7071 15.7632 53.1291 16.0036 52.703 16.4304C52.2769 16.8573 52.0376 17.4358 52.0376 18.0389V131.223C52.0376 131.826 52.2769 132.405 52.703 132.832C53.1291 133.258 53.7071 133.499 54.3102 133.5H134.827C135.431 133.499 136.009 133.259 136.436 132.832C136.863 132.405 137.103 131.827 137.104 131.223V18.0389C137.103 17.4354 136.863 16.8569 136.436 16.4302C136.009 16.0034 135.431 15.7632 134.827 15.7621H54.3102Z" fill="#EBEBEB"/>
<path d="M225.027 133.604H144.506C143.874 133.603 143.269 133.352 142.823 132.906C142.377 132.459 142.126 131.854 142.125 131.223V18.0389C142.131 17.4114 142.385 16.8117 142.83 16.3699C143.276 15.9281 143.878 15.6798 144.506 15.6787H225.027C225.653 15.6809 226.254 15.9298 226.698 16.3716C227.142 16.8134 227.394 17.4125 227.399 18.0389V131.223C227.399 131.853 227.15 132.458 226.705 132.904C226.26 133.35 225.657 133.602 225.027 133.604V133.604ZM144.506 15.7621C143.902 15.7632 143.324 16.0034 142.897 16.4302C142.47 16.8569 142.23 17.4354 142.229 18.0389V131.223C142.23 131.827 142.47 132.405 142.897 132.832C143.324 133.259 143.902 133.499 144.506 133.5H225.027C225.63 133.499 226.209 133.259 226.635 132.832C227.062 132.405 227.302 131.827 227.304 131.223V18.0389C227.302 17.4354 227.062 16.8569 226.635 16.4302C226.209 16.0034 225.63 15.7632 225.027 15.7621H144.506Z" fill="#EBEBEB"/>
<path d="M108.586 8.64844H50.5029V121.962H108.586V8.64844Z" fill="#F5F5F5"/>
<path d="M78.5331 121.966H63.3838V54.2632L78.5331 49.3135V121.966Z" fill="#EBEBEB"/>
<path d="M91.1806 121.966H76.0312V70.48L91.1806 65.5303V121.966Z" fill="#E6E6E6"/>
<path d="M89.3709 69.0413H85.7556V56.7567L89.3709 55.5767V69.0413Z" fill="#E6E6E6"/>
<path d="M169.167 8.64844H111.084V121.962H169.167V8.64844Z" fill="#F5F5F5"/>
<path d="M128.135 81.7178H111.084V121.966H128.135V81.7178Z" fill="#E6E6E6"/>
<path d="M229.997 8.64844H171.915V121.962H229.997V8.64844Z" fill="#F5F5F5"/>
<path d="M217.346 121.966H205.02V40.4983L217.346 35.5444V121.966Z" fill="#EBEBEB"/>
<path d="M229.993 121.966H214.844V70.48L229.993 65.5303V121.966Z" fill="#E6E6E6"/>
<path d="M175.692 121.962H205.991V81.9348L175.692 78.0859V121.962Z" fill="#E6E6E6"/>
<path d="M228.188 69.0413H226.378V56.7567L228.188 55.5767V69.0413Z" fill="#E6E6E6"/>
<path d="M222.275 71.9982H220.469V59.7136L222.275 58.5293V71.9982Z" fill="#E6E6E6"/>
<path d="M59.585 88.3271H66.4862V121.966H55.0898V92.8223C55.0898 91.6301 55.5634 90.4868 56.4065 89.6438C57.2495 88.8007 58.3928 88.3271 59.585 88.3271V88.3271Z" fill="#EBEBEB"/>
<path d="M108.586 89.5073H93.4448V121.966H108.586V89.5073Z" fill="#EBEBEB"/>
<path d="M143.276 94.5362L128.135 89.5073V121.966H143.276V94.5362Z" fill="#EBEBEB"/>
<path d="M149.009 94.5362L133.868 89.5073V121.966H149.009V94.5362Z" fill="#E6E6E6"/>
<path d="M149.009 89.3824L164.15 84.3535V121.966H149.009V89.3824Z" fill="#F0F0F0"/>
<path opacity="0.5" d="M82.2235 121.962H66.6155L98.7864 8.64844H114.394L82.2235 121.962Z" fill="white"/>
<path opacity="0.5" d="M129.01 121.962H113.402L145.569 8.64844H161.181L129.01 121.962Z" fill="white"/>
<path opacity="0.5" d="M148.546 121.962H132.938L165.109 8.64844H180.717L148.546 121.962Z" fill="white"/>
<path opacity="0.5" d="M186.117 121.962H178.315L210.486 8.64844H218.288L186.117 121.962Z" fill="white"/>
<path d="M82.2195 131.603C86.723 107.451 98.5906 96.1169 108.69 90.3457C99.0159 99.4945 92.4358 131.148 82.2195 131.603Z" fill="#FAFAFA"/>
<path d="M72.3491 129.701C69.0132 111.495 60.9944 104.373 54.2058 101.346C60.7568 107.075 65.5522 130.848 72.3491 129.701Z" fill="#FAFAFA"/>
<path d="M78.1787 134.522C76.8944 108.335 66.9199 96.8384 57.9504 91.3174C66.0901 100.6 68.4169 134.876 78.1787 134.522Z" fill="#FAFAFA"/>
<path d="M78.1787 132.274C80.2637 105.962 91.389 93.6482 101.28 87.3975C92.198 97.3386 88.7703 131.832 78.1787 132.274Z" fill="#FAFAFA"/>
<path d="M79.8218 136.39C83.1577 109.36 75.7811 93.0727 68.3003 83.2817C74.3634 96.467 70.5771 132.153 79.8218 136.39Z" fill="#FAFAFA"/>
<path d="M90.209 128.167C98.6281 112.421 109.19 108.668 117.313 108.285C108.719 111.27 97.2061 131.678 90.209 128.167Z" fill="#FAFAFA"/>
<path d="M88.4619 128.763C93.7702 110.92 103.82 103.327 112.076 99.8154C103.891 105.929 96.414 129.263 88.4619 128.763Z" fill="#FAFAFA"/>
<path d="M79.1463 136.477C88.22 108.493 84.121 91.2377 78.5583 80.7295C81.9485 94.7112 70.6105 131.686 79.1463 136.477Z" fill="#FAFAFA"/>
<path d="M63.7507 126.416V144.021C63.7507 148.52 71.8696 152.202 81.7982 152.202C91.7226 152.202 99.8456 148.52 99.8456 144.021V126.416H63.7507Z" fill="#F5F5F5"/>
<path d="M202.797 138.049C201.8 121.441 194.649 113.647 188.231 109.694C194.086 115.97 195.854 137.745 202.797 138.049Z" fill="#E0E0E0"/>
<path d="M209.736 136.753C213.581 124.243 219.702 119.331 224.614 117.246C219.631 121.178 214.294 137.536 209.736 136.753Z" fill="#E0E0E0"/>
<path d="M205.328 140.068C208.468 122.062 216.291 114.156 222.913 110.361C216.558 116.737 211.971 140.306 205.328 140.068Z" fill="#E0E0E0"/>
<path d="M205.524 138.521C206.358 120.423 199.811 111.958 193.577 107.663C198.94 114.506 198.306 138.216 205.524 138.521Z" fill="#E0E0E0"/>
<path d="M204.048 141.348C204.094 122.762 210.557 111.562 216.528 104.828C211.241 113.897 210.741 138.433 204.048 141.348Z" fill="#E0E0E0"/>
<path d="M197.647 135.694C193.231 124.852 186.321 122.283 180.792 122.021C186.417 124.072 192.543 138.108 197.647 135.694Z" fill="#E0E0E0"/>
<path d="M198.781 136.106C196.696 123.834 190.462 118.626 185.112 116.199C190.187 120.403 193.294 136.448 198.781 136.106Z" fill="#E0E0E0"/>
<path d="M204.498 141.411C200.699 122.166 204.999 110.303 209.715 103.081C206.187 112.688 210.745 138.112 204.498 141.411Z" fill="#E0E0E0"/>
<path d="M214.998 134.521V146.614C214.998 149.704 209.423 152.231 202.609 152.231C195.796 152.231 190.225 149.704 190.225 146.614V134.521H214.998Z" fill="#F5F5F5"/>
<path d="M140.248 171.033C184.901 171.033 221.099 168.92 221.099 166.313C221.099 163.706 184.901 161.593 140.248 161.593C95.5955 161.593 59.3975 163.706 59.3975 166.313C59.3975 168.92 95.5955 171.033 140.248 171.033Z" fill="#F5F5F5"/>
<path d="M147.337 46.4899V51.9566C147.336 52.3423 147.182 52.7118 146.909 52.9845C146.637 53.2572 146.267 53.4108 145.882 53.4119H132.467C132.081 53.4108 131.712 53.2572 131.439 52.9845C131.166 52.7118 131.013 52.3423 131.012 51.9566V32.137C131.015 31.7528 131.17 31.3854 131.442 31.1145C131.715 30.8437 132.083 30.6911 132.467 30.69H145.861C146.053 30.6878 146.243 30.7235 146.422 30.7951C146.6 30.8667 146.762 30.9727 146.899 31.1072C147.036 31.2416 147.146 31.4017 147.221 31.5785C147.296 31.7552 147.335 31.945 147.337 32.137V40.7854" fill="white"/>
<path d="M145.861 53.6498H132.467C132.025 53.6498 131.6 53.4741 131.288 53.1613C130.975 52.8485 130.799 52.4242 130.799 51.9819V32.1372C130.799 31.6948 130.975 31.2706 131.288 30.9578C131.6 30.645 132.025 30.4692 132.467 30.4692H145.861C146.303 30.4692 146.727 30.645 147.04 30.9578C147.353 31.2706 147.529 31.6948 147.529 32.1372V40.7856H147.087V32.1372C147.087 31.8054 146.955 31.4872 146.72 31.2526C146.486 31.018 146.168 30.8862 145.836 30.8862H132.467C132.135 30.8862 131.817 31.018 131.582 31.2526C131.348 31.4872 131.216 31.8054 131.216 32.1372V51.9568C131.216 52.2886 131.348 52.6068 131.582 52.8414C131.817 53.076 132.135 53.2078 132.467 53.2078H145.861C146.193 53.2078 146.511 53.076 146.745 52.8414C146.98 52.6068 147.112 52.2886 147.112 51.9568V46.4901H147.554V51.9568C147.557 52.1801 147.516 52.4018 147.432 52.6087C147.348 52.8156 147.223 53.0036 147.065 53.1615C146.908 53.3194 146.72 53.444 146.513 53.5278C146.306 53.6117 146.084 53.6532 145.861 53.6498Z" fill="#58B368"/>
<path d="M138.163 50.7058C138.438 50.5336 138.723 50.379 139.018 50.2429C139.154 50.1813 139.293 50.127 139.435 50.0803C139.592 50.0164 139.758 49.9783 139.927 49.9677L139.756 49.8718C139.727 49.8259 139.71 49.9427 139.702 49.9719L139.643 50.1178C139.594 50.2211 139.559 50.3305 139.539 50.4431C139.528 50.4832 139.527 50.5253 139.536 50.5659C139.545 50.6064 139.563 50.6443 139.59 50.6762C139.617 50.7081 139.651 50.7331 139.689 50.7492C139.727 50.7652 139.769 50.7718 139.81 50.7683C140.247 50.69 140.665 50.5271 141.04 50.2888H140.886C140.932 50.2888 140.986 50.3513 141.032 50.368C141.1 50.3927 141.172 50.4067 141.245 50.4097C141.407 50.4097 141.57 50.3847 141.732 50.4097C141.987 50.4347 141.983 50.0386 141.732 50.0177C141.562 50.0177 141.382 50.0553 141.215 50.0177C141.049 49.9802 140.999 49.8635 140.823 49.9427C140.648 50.0219 140.507 50.1262 140.336 50.197C140.257 50.2306 140.176 50.2598 140.094 50.2846L139.935 50.3305C139.889 50.3305 139.806 50.3305 139.873 50.3972L139.931 50.5348C139.931 50.2679 140.215 50.0177 140.14 49.7425C140.065 49.4673 139.723 49.5882 139.518 49.6383C138.964 49.7988 138.437 50.0405 137.955 50.3555C137.909 50.3815 137.876 50.4244 137.862 50.4749C137.849 50.5253 137.856 50.5791 137.882 50.6245C137.908 50.6698 137.95 50.703 138.001 50.7167C138.051 50.7303 138.105 50.7234 138.151 50.6974L138.163 50.7058Z" fill="#E0E0E0"/>
<path d="M145.761 33.6465H132.563V34.0843H145.761V33.6465Z" fill="#E0E0E0"/>
<path d="M144.268 36.7534H132.563V37.1913H144.268V36.7534Z" fill="#E0E0E0"/>
<path d="M145.761 39.8643H132.563V40.3021H145.761V39.8643Z" fill="#E0E0E0"/>
<path d="M136.191 42.9746H132.563V43.4125H136.191V42.9746Z" fill="#E0E0E0"/>
<path d="M142.537 42.9746H137.713V43.4125H142.537V42.9746Z" fill="#E0E0E0"/>
<path d="M145.761 46.0815H132.563V46.5194H145.761V46.0815Z" fill="#E0E0E0"/>
<path d="M134.377 51.6358C133.974 51.6358 133.581 51.5164 133.246 51.2928C132.912 51.0692 132.651 50.7514 132.497 50.3796C132.343 50.0077 132.303 49.5986 132.381 49.2039C132.46 48.8091 132.653 48.4465 132.938 48.1619C133.223 47.8773 133.585 47.6835 133.98 47.605C134.375 47.5265 134.784 47.5668 135.156 47.7208C135.528 47.8748 135.845 48.1357 136.069 48.4703C136.293 48.8049 136.412 49.1984 136.412 49.6008C136.412 50.1405 136.197 50.6581 135.816 51.0398C135.434 51.4214 134.917 51.6358 134.377 51.6358ZM134.377 48.0079C134.061 48.0079 133.752 48.1017 133.489 48.2774C133.227 48.4531 133.022 48.7027 132.901 48.9948C132.78 49.2869 132.749 49.6082 132.811 49.9181C132.873 50.228 133.025 50.5126 133.249 50.7358C133.473 50.959 133.758 51.1108 134.068 51.1719C134.378 51.2331 134.699 51.2008 134.991 51.0793C135.283 50.9578 135.532 50.7525 135.707 50.4893C135.882 50.2261 135.975 49.9169 135.974 49.6008C135.973 49.178 135.804 48.7728 135.505 48.4742C135.205 48.1756 134.8 48.0079 134.377 48.0079V48.0079Z" fill="#58B368"/>
<path d="M135.578 49.6011C135.579 49.8388 135.509 50.0714 135.378 50.2694C135.246 50.4674 135.059 50.622 134.839 50.7136C134.62 50.8051 134.378 50.8295 134.145 50.7836C133.912 50.7377 133.698 50.6237 133.529 50.4559C133.361 50.2881 133.246 50.0741 133.199 49.8411C133.153 49.608 133.176 49.3663 133.267 49.1466C133.358 48.9269 133.512 48.7391 133.709 48.607C133.907 48.4748 134.139 48.4043 134.377 48.4043C134.695 48.4043 135 48.5303 135.225 48.7546C135.45 48.9789 135.577 49.2833 135.578 49.6011V49.6011Z" fill="#58B368"/>
<path d="M142.366 49.2422C142.437 48.671 142.64 48.1242 142.959 47.6451C143.259 47.1906 143.622 46.8111 143.955 46.3649C144.627 45.5309 145.323 44.6969 146.04 43.8629C147.45 42.2242 148.88 40.6021 150.439 39.08C150.479 39.046 150.529 39.0269 150.582 39.0259C150.634 39.025 150.685 39.0422 150.726 39.0748C150.767 39.1074 150.795 39.1532 150.806 39.2043C150.817 39.2555 150.81 39.3089 150.786 39.3553C149.66 41.2192 148.405 42.9831 147.129 44.7303C146.486 45.5976 145.836 46.4608 145.169 47.3115C144.831 47.7285 144.522 48.1788 144.147 48.5625C143.754 48.9827 143.269 49.3054 142.729 49.5049C142.664 49.5266 142.593 49.5222 142.531 49.4927C142.468 49.4631 142.42 49.4107 142.396 49.3464C142.379 49.3139 142.369 49.2785 142.366 49.2422V49.2422Z" fill="#58B368"/>
<path d="M143.445 64.0071L140.705 66.397L140.993 66.727L143.733 64.3371L143.445 64.0071Z" fill="#58B368"/>
<path d="M140.181 60.3073L139.022 65.479L139.45 65.5747L140.609 60.403L140.181 60.3073Z" fill="#58B368"/>
<path d="M136.1 64.2701L135.78 64.5693L137.305 66.1977L137.625 65.8985L136.1 64.2701Z" fill="#58B368"/>
<path d="M168.212 162.998H164.663L164.229 154.783H167.774L168.212 162.998Z" fill="#7F3E3B"/>
<path d="M186.1 162.998H182.552L181.163 154.783H184.708L186.1 162.998Z" fill="#7F3E3B"/>
<path d="M182.323 162.585H186.305C186.374 162.584 186.442 162.608 186.495 162.652C186.549 162.696 186.585 162.758 186.597 162.827L187.147 165.979C187.159 166.058 187.153 166.139 187.13 166.215C187.108 166.291 187.069 166.362 187.017 166.422C186.965 166.482 186.9 166.531 186.828 166.563C186.755 166.596 186.676 166.613 186.597 166.613C185.208 166.588 184.537 166.505 182.781 166.505C181.705 166.505 178.799 166.617 177.31 166.617C175.822 166.617 175.697 165.145 176.309 165.012C179.074 164.416 180.821 163.59 181.73 162.806C181.895 162.664 182.105 162.585 182.323 162.585V162.585Z" fill="#454C62"/>
<path d="M164.575 162.585H168.445C168.515 162.584 168.582 162.608 168.636 162.652C168.689 162.696 168.725 162.758 168.737 162.827L169.287 165.979C169.3 166.058 169.296 166.138 169.274 166.214C169.253 166.291 169.215 166.362 169.163 166.422C169.112 166.482 169.048 166.531 168.975 166.564C168.903 166.597 168.825 166.614 168.745 166.613C167.353 166.588 165.334 166.505 163.579 166.505C161.527 166.505 161.006 166.617 158.596 166.617C157.14 166.617 156.807 165.145 157.424 165.012C160.226 164.407 161.239 164.341 163.704 162.864C163.964 162.694 164.265 162.597 164.575 162.585V162.585Z" fill="#454C62"/>
<path d="M164.463 52.545L159.617 51.123C159.617 51.123 154.68 62.853 153.008 63.6328C150.735 64.6753 144.668 67.8736 142.099 69.3831C141.924 69.9628 141.92 71.5515 142.199 72.0102C146.407 71.6766 155.039 68.8202 156.698 67.2273C160.485 63.5911 164.463 52.545 164.463 52.545Z" fill="#7F3E3B"/>
<path d="M165.931 50.331C167.307 53.4001 157.858 66.8606 157.858 66.8606L153.271 62.0985C153.271 62.0985 157.328 51.9114 159.526 48.0042C161.769 43.9886 164.434 46.9534 165.931 50.331Z" fill="#58B368"/>
<path opacity="0.4" d="M165.931 50.331C167.307 53.4001 157.858 66.8606 157.858 66.8606L153.271 62.0985C153.271 62.0985 157.328 51.9114 159.526 48.0042C161.769 43.9886 164.434 46.9534 165.931 50.331Z" fill="white"/>
<path d="M152.937 61.6775C152.649 61.8485 152.032 62.9702 151.895 63.529C151.757 64.0877 154.985 68.3994 156.24 68.2243C157.495 68.0491 158.929 66.8274 159.188 66.1685C159.446 65.5097 153.542 61.3231 152.937 61.6775Z" fill="#58B368"/>
<path d="M142.637 69.1163L139.719 68.5825L139.894 72.7524C139.894 72.7524 140.919 73.1694 143.13 71.8017L142.637 69.1163Z" fill="#7F3E3B"/>
<path d="M136.191 69.9713L136.724 72.5358L139.873 72.7693L139.698 68.5869L136.191 69.9713Z" fill="#7F3E3B"/>
<path opacity="0.2" d="M164.229 154.788L164.454 159.02H167.999L167.778 154.788H164.229Z" fill="black"/>
<path opacity="0.2" d="M184.712 154.788H181.163L181.88 159.02H185.429L184.712 154.788Z" fill="black"/>
<path d="M161.423 46.1441C161.423 46.1441 156.69 58.3286 159.717 78.2733H178.686C178.953 75.3544 177.852 59.6797 181.301 45.9606C179.216 45.5541 177.107 45.2853 174.988 45.1558C172.302 45.0014 169.609 45.0014 166.923 45.1558C165.067 45.3446 163.228 45.675 161.423 46.1441V46.1441Z" fill="#58B368"/>
<path opacity="0.2" d="M161.423 46.1441C161.423 46.1441 156.69 58.3286 159.717 78.2733H178.686C178.953 75.3544 177.852 59.6797 181.301 45.9606C179.216 45.5541 177.107 45.2853 174.988 45.1558C172.302 45.0014 169.609 45.0014 166.923 45.1558C165.067 45.3446 163.228 45.675 161.423 46.1441V46.1441Z" fill="black"/>
<path opacity="0.2" d="M177.018 49.3469C176.601 51.607 177.048 57.007 178.903 63.2494C179.129 57.8901 179.827 52.5612 180.988 47.3245V47.2994C179.729 47.1702 177.423 47.2285 177.018 49.3469Z" fill="black"/>
<path d="M174.296 37.6167C173.662 40.2104 173.257 43.4254 174.988 45.1559C174.988 45.1559 173.82 47.7913 169 47.7913C164.592 47.7913 166.915 45.1559 166.915 45.1559C169.834 44.4679 169.863 40.8901 169.454 38.8718L174.296 37.6167Z" fill="#7F3E3B"/>
<path d="M169.021 47.7872C171.86 48.6754 172.423 49.5844 172.423 49.5844C172.423 49.5844 175.963 48.1458 175.83 45.0267C175.4 44.7088 174.936 44.4402 174.446 44.2261C174.446 44.2261 174.145 46.5362 169.021 47.7872Z" fill="#58B368"/>
<path d="M169.021 47.7873C167.428 47.9375 166.102 49.301 166.102 49.301C166.102 49.301 165.088 48.2377 166.06 45.1519C166.06 45.1519 167.007 44.8309 167.79 44.6641C167.77 44.6682 167.132 47.1201 169.021 47.7873Z" fill="#58B368"/>
<path opacity="0.2" d="M169.462 38.876C169.704 40.0561 169.796 41.795 169.237 43.1335C169.693 43.0588 170.135 42.9184 170.551 42.7165C172.219 41.9492 173.078 40.7358 174.004 38.9636C174.087 38.5007 174.187 38.0504 174.295 37.6167L169.462 38.876Z" fill="black"/>
<path d="M168.899 29.3268C167.765 29.698 165.23 31.8747 167.649 32.9713C170.067 34.068 170.876 28.6847 168.899 29.3268Z" fill="#454C62"/>
<path d="M176.551 34.4434C175.446 37.8461 174.971 39.8643 172.798 41.2821C169.533 43.3671 165.76 40.8651 165.847 37.2706C165.922 34.0139 167.715 28.9975 171.389 28.3512C175.063 27.7048 177.656 31.0533 176.551 34.4434Z" fill="#7F3E3B"/>
<path d="M171.222 30.7198C169.346 31.0367 167.782 30.9366 167.215 29.3771C166.648 27.8175 169.229 26.1829 171.01 26.9168C172.323 25.5491 175.909 26.5999 176.372 27.9134C178.457 27.78 180.43 30.1818 179.016 31.412C179.336 31.6106 179.606 31.8795 179.806 32.1982C180.006 32.5169 180.131 32.8771 180.172 33.2513C180.212 33.6256 180.166 34.0041 180.038 34.358C179.91 34.712 179.703 35.0322 179.433 35.2942C180.042 37.1039 177.848 38.9095 176.118 38.1756C174.412 37.6669 173.482 38.0838 173.245 36.983C173.007 35.8821 173.608 34.8188 175.059 34.6061C174.325 33.7305 174.145 32.346 174.642 31.7497C172.886 32.5462 171.448 31.5454 171.222 30.7198Z" fill="#454C62"/>
<path d="M168.971 38.0547C169.302 38.0825 169.636 38.0445 169.953 37.9429C170.27 37.8413 170.564 37.678 170.818 37.4625C170.833 37.4462 170.842 37.4246 170.842 37.402C170.842 37.3795 170.833 37.3579 170.818 37.3416C170.81 37.3335 170.801 37.327 170.791 37.3226C170.781 37.3182 170.77 37.3159 170.759 37.3159C170.749 37.3159 170.738 37.3182 170.728 37.3226C170.718 37.327 170.709 37.3335 170.701 37.3416C170.423 37.5724 170.096 37.7372 169.745 37.8239C169.394 37.9106 169.028 37.9167 168.674 37.842C168.652 37.8382 168.63 37.843 168.611 37.8554C168.593 37.8678 168.579 37.8869 168.574 37.9087C168.571 37.9191 168.571 37.9301 168.572 37.9409C168.574 37.9517 168.578 37.962 168.583 37.9711C168.589 37.9803 168.597 37.988 168.607 37.9938C168.616 37.9995 168.626 38.0032 168.637 38.0046C168.747 38.0269 168.859 38.0436 168.971 38.0547Z" fill="#454C62"/>
<path d="M176.747 39.1429C176.038 39.6971 175.141 39.9555 174.245 39.8643C173.082 39.735 172.994 38.5883 173.724 37.7209C174.383 36.937 175.784 36.0529 176.756 36.6284C177.727 37.2038 177.619 38.4506 176.747 39.1429Z" fill="#7F3E3B"/>
<path d="M172.186 78.2735C172.186 78.2735 171.702 82.7353 171.085 88.7775C170.376 95.6287 169.496 104.523 168.937 111.295C168.937 111.328 168.937 111.358 168.937 111.387C168.829 112.675 168.733 113.889 168.654 114.981C167.861 126.036 169.279 158.194 169.279 158.194H163.266C163.266 158.194 157.728 125.377 157.866 114.126C157.995 103.314 159.713 78.2651 159.713 78.2651L172.186 78.2735Z" fill="#343B4F"/>
<path d="M169.771 155.847C169.8 155.847 169.667 158.324 169.667 158.324H162.741L162.565 155.605L169.771 155.847Z" fill="#454C62"/>
<path opacity="0.2" d="M171.105 88.7776C170.397 95.6288 169.517 104.523 168.958 111.295C168.958 111.329 168.958 111.358 168.958 111.387C167.636 104.961 167.223 96.9715 167.736 83.8154L171.105 88.7776Z" fill="black"/>
<path d="M166.443 78.2734C166.443 78.2734 169.212 103.902 170.934 114.056C172.823 125.177 180.279 158.198 180.279 158.198H186.776C186.776 158.198 182.397 126.09 181.538 115.065C180.613 103.114 178.699 78.2734 178.699 78.2734H166.443Z" fill="#343B4F"/>
<path d="M186.855 155.997C186.885 155.997 187.081 158.323 187.081 158.323H179.942L179.42 155.726L186.855 155.997Z" fill="#454C62"/>
<path d="M170.659 34.2936C170.584 34.5729 170.38 34.7689 170.201 34.7105C170.021 34.6522 169.934 34.4103 170.005 34.1309C170.075 33.8515 170.284 33.6556 170.463 33.7139C170.643 33.7723 170.73 34.0267 170.659 34.2936Z" fill="#454C62"/>
<path d="M167.54 33.6096C167.465 33.889 167.261 34.085 167.081 34.0266C166.902 33.9682 166.815 33.7306 166.885 33.447C166.956 33.1635 167.165 32.9716 167.344 33.03C167.523 33.0884 167.611 33.3302 167.54 33.6096Z" fill="#454C62"/>
<path d="M168.995 33.9683C168.443 34.754 167.792 35.4647 167.056 36.0824C167.423 36.6495 168.307 36.6203 168.307 36.6203L168.995 33.9683Z" fill="#630F0F"/>
<path d="M172.356 33.4763C172.332 33.4697 172.309 33.4577 172.289 33.4411C172.27 33.4245 172.254 33.4037 172.244 33.3804C172.171 33.1875 172.051 33.0158 171.895 32.8805C171.739 32.7452 171.553 32.6504 171.351 32.6047C171.33 32.6018 171.309 32.5944 171.29 32.5829C171.271 32.5715 171.255 32.5562 171.242 32.5382C171.23 32.5202 171.221 32.4997 171.217 32.4781C171.213 32.4566 171.213 32.4344 171.218 32.4129C171.226 32.3686 171.251 32.3292 171.288 32.3028C171.324 32.2764 171.369 32.265 171.414 32.2711C171.67 32.3236 171.909 32.4397 172.109 32.6088C172.309 32.7779 172.462 32.9944 172.557 33.2386C172.572 33.2808 172.572 33.3274 172.555 33.3691C172.538 33.4108 172.506 33.4446 172.465 33.4638C172.431 33.48 172.393 33.4844 172.356 33.4763V33.4763Z" fill="#454C62"/>
<path d="M166.936 32.1835C166.913 32.1741 166.892 32.1615 166.873 32.146C166.857 32.1305 166.845 32.112 166.836 32.0916C166.828 32.0712 166.823 32.0493 166.823 32.0271C166.823 32.005 166.828 31.9831 166.836 31.9627C166.845 31.9423 166.857 31.9238 166.873 31.9083C167.049 31.7038 167.272 31.5442 167.522 31.4427C167.772 31.3412 168.043 31.3007 168.312 31.3245C168.333 31.3274 168.354 31.3349 168.373 31.3463C168.392 31.3578 168.408 31.373 168.421 31.3911C168.433 31.4091 168.442 31.4295 168.446 31.4511C168.45 31.4727 168.45 31.4949 168.445 31.5163C168.436 31.5602 168.411 31.599 168.375 31.6252C168.338 31.6515 168.294 31.6632 168.249 31.6581V31.6581C168.035 31.6423 167.821 31.6771 167.623 31.7597C167.425 31.8423 167.25 31.9703 167.111 32.1335C167.088 32.1563 167.06 32.173 167.03 32.1818C166.999 32.1905 166.967 32.1911 166.936 32.1835V32.1835Z" fill="#454C62"/>
<path d="M183.402 50.8022L178.924 53.5127C178.924 53.5127 183.928 64.3545 183.899 66.1768C183.815 69.5794 185.279 76.956 184.883 80.8424C185.433 81.0384 186.968 81.0842 187.451 80.8132C188.339 77.2979 189.57 68.0616 189.215 65.7473C188.44 60.7142 183.402 50.8022 183.402 50.8022Z" fill="#7F3E3B"/>
<path d="M181.301 45.961C184.637 46.4489 189.391 63.3787 189.391 63.3787L183.219 65.7181C183.219 65.7181 177.844 56.5442 176.526 52.4202C175.109 48.1168 177.727 45.4356 181.301 45.961Z" fill="#58B368"/>
<path opacity="0.4" d="M181.301 45.961C184.637 46.4489 189.391 63.3787 189.391 63.3787L183.219 65.7181C183.219 65.7181 177.844 56.5442 176.526 52.4202C175.109 48.1168 177.727 45.4356 181.301 45.961Z" fill="white"/>
<path d="M181.113 163.207C180.875 163.227 180.637 163.162 180.442 163.023C180.38 162.969 180.333 162.9 180.306 162.823C180.279 162.745 180.273 162.662 180.288 162.581C180.29 162.531 180.306 162.483 180.333 162.442C180.36 162.4 180.398 162.366 180.442 162.343C180.859 162.143 181.956 162.844 182.081 162.927C182.095 162.936 182.105 162.948 182.111 162.963C182.117 162.978 182.118 162.995 182.114 163.011C182.11 163.027 182.102 163.041 182.09 163.053C182.078 163.065 182.064 163.073 182.047 163.077C181.742 163.156 181.429 163.2 181.113 163.207V163.207ZM180.626 162.46C180.588 162.458 180.551 162.465 180.517 162.481C180.5 162.49 180.485 162.504 180.475 162.521C180.464 162.538 180.459 162.557 180.459 162.577C180.448 162.633 180.452 162.69 180.469 162.744C180.487 162.798 180.518 162.847 180.559 162.886C180.742 163.048 181.205 163.069 181.81 162.948C181.452 162.707 181.049 162.541 180.626 162.46V162.46Z" fill="#58B368"/>
<path d="M182.031 163.081C182.018 163.085 182.005 163.085 181.993 163.081C181.635 162.886 180.963 162.106 181.059 161.71C181.075 161.648 181.11 161.594 181.16 161.554C181.21 161.515 181.271 161.494 181.334 161.493C181.397 161.484 181.462 161.489 181.523 161.507C181.584 161.525 181.64 161.556 181.689 161.597C182.085 161.935 182.106 162.961 182.106 163.002C182.106 163.018 182.102 163.033 182.095 163.047C182.087 163.061 182.077 163.073 182.064 163.081C182.053 163.083 182.042 163.083 182.031 163.081V163.081ZM181.384 161.626H181.347C181.238 161.626 181.226 161.689 181.222 161.71C181.163 161.943 181.589 162.544 181.939 162.806C181.938 162.408 181.811 162.02 181.576 161.697C181.523 161.651 181.455 161.626 181.384 161.626V161.626Z" fill="#58B368"/>
<path d="M163.07 163.206C162.769 163.235 162.467 163.158 162.215 162.99C162.16 162.936 162.119 162.871 162.095 162.798C162.071 162.725 162.065 162.648 162.078 162.573C162.083 162.526 162.099 162.481 162.125 162.442C162.151 162.402 162.186 162.37 162.228 162.347C162.67 162.106 164.062 162.831 164.221 162.915C164.236 162.923 164.247 162.936 164.254 162.952C164.261 162.968 164.262 162.985 164.258 163.002C164.255 163.02 164.247 163.036 164.234 163.049C164.221 163.061 164.205 163.07 164.187 163.073C163.82 163.151 163.446 163.196 163.07 163.206ZM162.461 162.46C162.407 162.457 162.352 162.467 162.303 162.489C162.286 162.499 162.273 162.512 162.263 162.528C162.252 162.544 162.246 162.562 162.244 162.581C162.236 162.63 162.24 162.681 162.256 162.728C162.272 162.775 162.299 162.818 162.336 162.852C162.545 163.044 163.124 163.077 163.916 162.948C163.463 162.702 162.971 162.537 162.461 162.46Z" fill="#58B368"/>
<path d="M164.175 163.081H164.138C163.721 162.89 162.887 162.122 162.991 161.722C162.991 161.626 163.087 161.509 163.316 161.489C163.398 161.478 163.482 161.485 163.561 161.51C163.64 161.534 163.713 161.575 163.775 161.63C164.192 162.001 164.259 162.956 164.263 162.998C164.262 163.013 164.258 163.028 164.251 163.041C164.244 163.054 164.234 163.065 164.221 163.073C164.207 163.082 164.191 163.085 164.175 163.081V163.081ZM163.374 161.626H163.324C163.174 161.626 163.162 161.701 163.158 161.718C163.108 161.96 163.654 162.552 164.079 162.823C164.058 162.424 163.912 162.042 163.662 161.73C163.583 161.66 163.48 161.623 163.374 161.626Z" fill="#58B368"/>
<path d="M195.562 84.2692L174.246 87.049C173.312 87.1708 172.654 88.0267 172.776 88.9607L174.591 102.879C174.713 103.813 175.568 104.471 176.502 104.349L197.818 101.57C198.752 101.448 199.41 100.592 199.289 99.658L197.474 85.7399C197.352 84.8059 196.496 84.1474 195.562 84.2692Z" fill="#454C62"/>
<path opacity="0.3" d="M195.562 84.2692L174.246 87.049C173.312 87.1708 172.654 88.0267 172.776 88.9607L174.591 102.879C174.713 103.813 175.568 104.471 176.502 104.349L197.818 101.57C198.752 101.448 199.41 100.592 199.289 99.658L197.474 85.7399C197.352 84.8059 196.496 84.1474 195.562 84.2692Z" fill="black"/>
<path d="M183.903 88.8692C183.547 88.869 183.2 88.7502 182.919 88.5314C182.578 88.2686 182.355 87.882 182.298 87.4556L181.922 84.5617C181.895 84.3508 181.909 84.1366 181.964 83.9313C182.02 83.726 182.115 83.5336 182.245 83.3652C182.374 83.1967 182.536 83.0555 182.721 82.9495C182.905 82.8436 183.108 82.775 183.319 82.7478L188.135 82.1181C188.562 82.0625 188.993 82.1784 189.334 82.4403C189.675 82.7023 189.898 83.0888 189.954 83.515L190.333 86.409C190.386 86.8349 190.27 87.2646 190.008 87.605C189.747 87.9454 189.361 88.1689 188.936 88.227V88.227L184.116 88.8525C184.045 88.8622 183.974 88.8678 183.903 88.8692V88.8692ZM188.348 83.0313H188.261L183.44 83.661C183.352 83.6723 183.267 83.7009 183.19 83.7452C183.112 83.7895 183.045 83.8486 182.991 83.9192C182.936 83.9897 182.897 84.0702 182.874 84.1562C182.85 84.2421 182.845 84.3317 182.856 84.4199L183.232 87.3138C183.256 87.4927 183.351 87.6546 183.494 87.7642C183.565 87.8184 183.645 87.8582 183.731 87.8811C183.817 87.904 183.907 87.9096 183.995 87.8976L188.811 87.2721C188.989 87.2472 189.151 87.1533 189.261 87.0106C189.371 86.868 189.42 86.6879 189.399 86.509L189.036 83.6485C189.025 83.5601 188.996 83.4748 188.952 83.3975C188.908 83.3202 188.848 83.2524 188.778 83.1981C188.656 83.0993 188.505 83.0449 188.348 83.0438V83.0313Z" fill="#454C62"/>
<path d="M197.592 84.0051L176.276 86.7848C175.342 86.9066 174.684 87.7625 174.806 88.6966L176.621 102.615C176.742 103.549 177.598 104.207 178.532 104.085L199.848 101.306C200.782 101.184 201.44 100.328 201.318 99.3938L199.503 85.4757C199.382 84.5417 198.526 83.8833 197.592 84.0051Z" fill="#454C62"/>
<path d="M185.083 80.2586L183.724 82.9065L187.71 83.09C187.998 82.5118 188.102 81.8596 188.01 81.2204C187.918 80.5812 187.633 79.9854 187.193 79.5122L185.083 80.2586Z" fill="#7F3E3B"/>
<path d="M185.246 84.9578L187.623 84.6326L187.71 83.0897L183.724 82.9062L183.786 83.7694C183.798 83.9455 183.846 84.1172 183.928 84.2738C184.009 84.4305 184.121 84.5689 184.258 84.6803C184.395 84.7917 184.553 84.8739 184.723 84.9216C184.893 84.9693 185.071 84.9817 185.246 84.9578V84.9578Z" fill="#7F3E3B"/>
<path d="M182.289 64.7544C182.227 65.0797 182.669 66.2848 182.994 66.7518C183.319 67.2189 188.698 67.6317 189.391 66.5725C190.083 65.5134 190.112 63.6286 189.783 62.9989C189.453 62.3692 182.418 64.0497 182.289 64.7544Z" fill="#58B368"/>
<path d="M103.711 51.7407C103.04 52.6206 102.31 53.5838 101.626 54.5304C100.942 55.4769 100.283 56.4402 99.6537 57.416C98.3909 59.2884 97.3008 61.2717 96.397 63.3414C96.2927 63.5874 96.1968 63.8335 96.1134 64.0795C96.069 64.2018 96.0273 64.3227 95.9883 64.4423L95.93 64.6258L95.9049 64.7133V64.7383C95.8286 65.0578 95.813 65.3889 95.8591 65.7141C96.003 66.7631 96.2502 67.7953 96.5972 68.7957C97.3102 70.9515 98.2651 73.1741 99.2034 75.3299L97.0725 76.681C95.4739 74.7084 94.09 72.5711 92.9443 70.3052C92.3132 69.0821 91.8329 67.7869 91.514 66.448C91.307 65.582 91.2729 64.6835 91.4139 63.8043L91.4473 63.6041L91.4807 63.4707L91.5432 63.2122C91.5807 63.0412 91.6224 62.8702 91.6725 62.7034C91.7642 62.3657 91.8643 62.0404 91.9727 61.7152C92.8448 59.2617 93.9831 56.9111 95.367 54.7055C96.0342 53.6255 96.7181 52.5663 97.452 51.5447C98.1859 50.5231 98.9115 49.5306 99.758 48.5132L103.711 51.7407Z" fill="#454C62"/>
<path d="M98.6406 74.5581L100.834 75.7215L98.332 78.678C98.332 78.678 96.7558 77.6105 96.6641 75.9842L98.6406 74.5581Z" fill="#FFC3BD"/>
<path d="M103.786 77.5439L101.084 79.6914L98.311 78.6781L100.834 75.7217L103.786 77.5439Z" fill="#FFC3BD"/>
<path d="M136.57 68.2202L139.164 69.5588L138.934 70.4928L136.849 72.5778C136.849 72.5778 135.348 71.4102 135.382 69.7839L136.57 68.2202Z" fill="#FFC3BD"/>
<path d="M136.945 68.5868L139.322 68.1406L140.848 68.7911L139.831 68.9621L139.164 69.5667L136.945 68.5868Z" fill="#FFC3BD"/>
<path d="M141.762 72.8861L139.185 73.4407C138.914 73.498 138.633 73.4643 138.384 73.3448L136.837 72.5942L138.922 70.5093L140.302 70.0923L142.028 72.073C142.082 72.1391 142.118 72.2176 142.134 72.3014C142.149 72.3852 142.144 72.4715 142.117 72.5524C142.09 72.6333 142.044 72.7063 141.982 72.7646C141.92 72.8229 141.844 72.8647 141.762 72.8861V72.8861Z" fill="#FFC3BD"/>
<path d="M113.214 34.8358C113.273 35.1152 113.465 35.3111 113.631 35.2528C113.798 35.1944 113.915 34.9567 113.861 34.6773C113.807 34.3979 113.606 34.2019 113.444 34.2603C113.281 34.3187 113.144 34.5564 113.214 34.8358Z" fill="#454C62"/>
<path d="M113.439 35.3149C113.947 36.1025 114.56 36.8167 115.262 37.4374C114.845 38.0004 113.977 37.9587 113.977 37.9587L113.439 35.3149Z" fill="#FF5652"/>
<path d="M111.893 33.4886C111.851 33.4869 111.811 33.4706 111.78 33.4427C111.749 33.4108 111.732 33.3682 111.732 33.3239C111.732 33.2795 111.749 33.2369 111.78 33.205C111.956 33.0055 112.178 32.851 112.426 32.7545C112.674 32.658 112.941 32.6223 113.206 32.6504C113.245 32.663 113.278 32.6891 113.299 32.724C113.321 32.7588 113.329 32.8002 113.322 32.8405C113.316 32.8808 113.295 32.9174 113.264 32.9438C113.232 32.9701 113.193 32.9844 113.152 32.984V32.984C112.942 32.9645 112.73 32.9951 112.535 33.0734C112.339 33.1517 112.165 33.2754 112.026 33.4344C112.009 33.453 111.989 33.4676 111.966 33.477C111.942 33.4864 111.917 33.4904 111.893 33.4886Z" fill="#454C62"/>
<path d="M105.638 39.7769C106.121 42.2371 106.409 45.6439 104.691 47.2827C104.691 47.2827 105.363 49.7847 109.933 49.7847C114.962 49.7847 112.351 47.5913 112.351 47.5913C110.266 46.9449 110.266 44.5639 110.758 42.6541L105.638 39.7769Z" fill="#FFC3BD"/>
<path d="M103.97 48.9675C103.553 48.3086 103.69 46.3112 104.191 45.986C104.991 45.4606 108.294 45.5189 112.676 46.7991C112.084 48.7089 113.048 49.7848 113.048 49.7848L103.97 48.9675Z" fill="#58B368"/>
<path opacity="0.2" d="M100.3 52.5078C98.7364 54.0507 98.2819 57.2115 98.4528 59.3673C98.8365 58.7127 99.2451 58.058 99.6663 57.42C100.296 56.44 100.967 55.4851 101.643 54.5261C101.83 54.2633 102.022 53.9965 102.218 53.7296C102.256 53.5586 102.289 53.3877 102.323 53.2209L100.3 52.5078Z" fill="black"/>
<path d="M89.2249 162.46C89.4981 162.555 89.7978 162.539 90.0589 162.414C90.1093 162.368 90.144 162.308 90.1582 162.241C90.1725 162.175 90.1654 162.105 90.1381 162.043C90.1227 161.992 90.0965 161.944 90.0612 161.904C90.026 161.864 89.9825 161.832 89.9338 161.81C89.4793 161.593 88.4326 162.018 88.3909 162.035C88.3766 162.04 88.3642 162.05 88.3553 162.063C88.3464 162.075 88.3414 162.09 88.3409 162.106C88.3403 162.121 88.3443 162.137 88.3524 162.15C88.3606 162.163 88.3725 162.174 88.3868 162.181C88.6555 162.303 88.9364 162.397 89.2249 162.46V162.46ZM89.7753 161.922L89.8671 161.951C89.8961 161.964 89.9219 161.983 89.9428 162.007C89.9637 162.03 89.9791 162.059 89.988 162.089C90.0297 162.231 89.988 162.277 89.9588 162.293C89.7795 162.448 89.1248 162.293 88.637 162.114C89.0013 161.958 89.3964 161.889 89.792 161.91L89.7753 161.922Z" fill="#58B368"/>
<path d="M88.4075 162.177H88.445C88.8286 162.068 89.6418 161.489 89.6501 161.109C89.6514 161.049 89.6317 160.99 89.5945 160.943C89.5572 160.896 89.5046 160.863 89.4458 160.851C89.3882 160.829 89.3265 160.821 89.2653 160.826C89.204 160.831 89.1446 160.849 89.0913 160.88C88.6451 161.109 88.3616 162.039 88.3491 162.077C88.3428 162.089 88.3396 162.103 88.3396 162.116C88.3396 162.13 88.3428 162.144 88.3491 162.156C88.3653 162.17 88.3861 162.177 88.4075 162.177V162.177ZM89.3582 160.984H89.3957C89.4916 161.018 89.4916 161.068 89.4916 161.088C89.4916 161.314 88.9495 161.764 88.5534 161.947C88.6597 161.579 88.8731 161.251 89.1664 161.005C89.1979 160.988 89.2327 160.977 89.2685 160.973C89.3043 160.97 89.3405 160.973 89.3749 160.984H89.3582Z" fill="#58B368"/>
<path d="M114.057 163.011C114.474 163.011 114.891 162.952 115.045 162.756C115.081 162.706 115.1 162.645 115.1 162.583C115.1 162.521 115.081 162.461 115.045 162.41C114.988 162.317 114.897 162.249 114.791 162.223C114.232 162.073 113.056 162.74 113.006 162.769C112.991 162.777 112.98 162.789 112.973 162.804C112.966 162.819 112.965 162.836 112.968 162.852C112.971 162.869 112.978 162.884 112.989 162.896C113 162.908 113.015 162.916 113.031 162.919C113.37 162.979 113.713 163.01 114.057 163.011ZM114.59 162.36C114.642 162.354 114.693 162.354 114.745 162.36C114.777 162.367 114.807 162.381 114.834 162.4C114.86 162.419 114.883 162.444 114.899 162.473C114.957 162.573 114.937 162.619 114.899 162.648C114.745 162.865 113.894 162.869 113.269 162.781C113.678 162.557 114.127 162.414 114.59 162.36V162.36Z" fill="#58B368"/>
<path d="M113.039 162.919H113.073C113.49 162.74 114.282 162.01 114.223 161.631C114.223 161.539 114.144 161.43 113.927 161.405C113.848 161.398 113.769 161.407 113.693 161.43C113.617 161.454 113.546 161.492 113.485 161.543C113.068 161.897 112.964 162.794 112.96 162.84C112.96 162.853 112.963 162.867 112.968 162.879C112.974 162.892 112.983 162.902 112.993 162.911C113.007 162.918 113.023 162.921 113.039 162.919V162.919ZM113.873 161.555H113.923C114.065 161.555 114.073 161.626 114.078 161.643C114.115 161.872 113.569 162.444 113.156 162.69C113.193 162.308 113.347 161.946 113.598 161.656C113.671 161.593 113.764 161.557 113.861 161.555H113.873Z" fill="#58B368"/>
<path d="M109.345 162.84H112.706L113.039 155.05H109.678L109.345 162.84Z" fill="#FFC3BD"/>
<path d="M84.717 161.401L87.9612 162.089L90.9052 154.637L87.661 153.949L84.717 161.401Z" fill="#FFC3BD"/>
<path d="M88.2616 161.664L84.567 160.863C84.5024 160.85 84.4351 160.858 84.376 160.888C84.3169 160.917 84.2696 160.966 84.2418 161.026L82.9574 163.807C82.9265 163.875 82.9113 163.949 82.913 164.024C82.9147 164.099 82.9333 164.172 82.9674 164.239C83.0015 164.306 83.0502 164.364 83.1098 164.409C83.1695 164.454 83.2385 164.485 83.3119 164.499C84.6087 164.754 85.2509 164.816 86.873 165.167C87.8738 165.383 90.1297 165.934 91.5099 166.23C92.8902 166.526 93.3614 165.204 92.8235 164.958C90.4133 163.857 89.4041 162.873 88.7495 161.981C88.6318 161.818 88.4579 161.705 88.2616 161.664V161.664Z" fill="#454C62"/>
<path d="M112.685 162.46H109.011C108.945 162.461 108.88 162.484 108.828 162.526C108.776 162.567 108.739 162.625 108.723 162.69L108.06 165.68C108.044 165.752 108.044 165.827 108.061 165.899C108.078 165.971 108.111 166.039 108.157 166.097C108.204 166.154 108.263 166.201 108.33 166.233C108.397 166.264 108.47 166.281 108.544 166.28C109.87 166.255 111.784 166.18 113.448 166.18C115.395 166.18 116.088 166.284 118.368 166.284C119.749 166.284 120.132 164.891 119.557 164.762C116.926 164.187 115.766 164.124 113.494 162.723C113.253 162.563 112.973 162.472 112.685 162.46V162.46Z" fill="#454C62"/>
<path opacity="0.2" d="M113.039 155.055L112.868 159.066H109.503L109.674 155.055H113.039Z" fill="black"/>
<path opacity="0.2" d="M87.6612 153.949L90.9054 154.637L89.3875 158.478L86.1433 157.794L87.6612 153.949Z" fill="black"/>
<path d="M111.751 77.2896C111.751 77.2896 107.931 102.993 105.838 112.621C103.544 123.167 91.2431 158.073 91.2431 158.073L85.2051 156.747C85.2051 156.747 93.8118 128.317 95.7341 113.576C97.2145 102.255 100.129 77.2979 100.129 77.2979L111.751 77.2896Z" fill="#454C62"/>
<path opacity="0.1" d="M111.751 77.2896C111.751 77.2896 107.931 102.993 105.838 112.621C103.544 123.167 91.2431 158.073 91.2431 158.073L85.2051 156.747C85.2051 156.747 93.8118 128.317 95.7341 113.576C97.2145 102.255 100.129 77.2979 100.129 77.2979L111.751 77.2896Z" fill="white"/>
<path d="M92.6817 156.043C92.7068 156.043 91.56 158.219 91.56 158.219L84.7881 156.752L85.3594 154.717L92.6817 156.043Z" fill="#454C62"/>
<path opacity="0.3" d="M109.336 86.4469C104.925 87.3142 105.392 103.773 105.921 112.238C107.172 106.254 109.057 94.7242 110.333 86.5678C110.024 86.4172 109.673 86.3747 109.336 86.4469V86.4469Z" fill="black"/>
<path d="M118.147 77.2896C118.147 77.2896 118.61 102.434 118.243 112.692C117.864 123.359 114.14 158.29 114.14 158.29H108.423C108.423 158.29 108.215 123.984 107.96 113.505C107.685 102.084 106.292 77.2896 106.292 77.2896H118.147Z" fill="#454C62"/>
<path opacity="0.1" d="M118.147 77.2896C118.147 77.2896 118.61 102.434 118.243 112.692C117.864 123.359 114.14 158.29 114.14 158.29H108.423C108.423 158.29 108.215 123.984 107.96 113.505C107.685 102.084 106.292 77.2896 106.292 77.2896H118.147Z" fill="white"/>
<path d="M115.229 156.022C115.254 156.022 114.903 158.386 114.903 158.386H107.965L107.777 156.276L115.229 156.022Z" fill="#454C62"/>
<path d="M118.589 51.4192C119.278 55.0554 120.554 65.2133 118.56 79.9915L99.0951 79.6913C98.9825 77.1101 101.034 63.0991 99.1368 50.6603C99.0839 50.3074 99.1018 49.9476 99.1895 49.6018C99.2773 49.256 99.433 48.9311 99.6477 48.6462C99.8624 48.3612 100.132 48.1219 100.44 47.9422C100.748 47.7625 101.089 47.646 101.443 47.5995C102.427 47.4661 103.569 47.341 104.695 47.2868C107.241 47.1407 109.793 47.1407 112.339 47.2868C113.173 47.366 114.007 47.4869 114.749 47.6162C115.699 47.7862 116.575 48.2409 117.261 48.9201C117.947 49.5992 118.41 50.4708 118.589 51.4192V51.4192Z" fill="#454C62"/>
<path opacity="0.2" d="M119.123 55.0308L115.846 55.8439C115.595 58.9046 117.614 62.3698 119.632 65.0177C119.652 61.6818 119.482 58.3474 119.123 55.0308Z" fill="black"/>
<path d="M117.776 49.7847C118.331 50.7813 118.931 51.8696 119.549 52.8829C120.166 53.8962 120.8 54.9345 121.438 55.9353C122.667 57.902 124.062 59.7602 125.607 61.4896C125.799 61.6856 125.987 61.8858 126.179 62.0693L126.321 62.2069L126.433 62.307C126.496 62.3737 126.604 62.4487 126.683 62.5196C127.067 62.8198 127.517 63.1368 128.014 63.4412C128.993 64.0458 130.044 64.6379 131.112 65.2092C133.247 66.3559 135.457 67.4818 137.638 68.6202L136.775 70.9929C134.307 70.402 131.877 69.6626 129.498 68.7787C128.305 68.3325 127.109 67.8488 125.912 67.2608C125.275 66.9577 124.658 66.6151 124.065 66.235C123.902 66.1183 123.748 66.0265 123.573 65.8889L123.322 65.6971L123.118 65.5261C122.839 65.3009 122.584 65.0674 122.326 64.8339C121.341 63.9152 120.421 62.9287 119.574 61.8816C118.74 60.8683 117.96 59.7967 117.222 58.7583C116.484 57.72 115.783 56.6192 115.137 55.5141C114.49 54.4091 113.848 53.3249 113.248 52.124L117.776 49.7847Z" fill="#454C62"/>
<path d="M103.757 36.1366C104.666 39.5309 105.008 41.5575 107.122 42.9753C110.275 45.102 114.211 42.6625 114.319 39.0639C114.428 35.828 112.923 30.82 109.282 30.1361C108.48 29.9803 107.65 30.0325 106.874 30.2878C106.097 30.543 105.399 30.9927 104.845 31.5942C104.291 32.1956 103.9 32.9288 103.71 33.7239C103.519 34.519 103.536 35.3496 103.757 36.1366V36.1366Z" fill="#FFC3BD"/>
<path d="M110.808 36.1783C111.617 34.9899 111.926 33.1635 111.359 32.2836C111.888 32.5046 115.708 32.7673 114.211 30.0485C112.714 27.3297 109.712 26.5792 107.097 27.3297L108.369 27.6967C108.369 27.6967 104.795 27.4382 103.056 28.8851C103.586 28.9143 104.045 28.8851 104.045 28.8851C104.045 28.8851 100.217 30.6907 101.885 32.0626C99.195 34.11 101.017 36.9456 105.446 41.1739C106.217 41.8703 108.402 41.6159 108.886 41.1989C108.577 39.3558 110.354 36.8539 110.808 36.1783Z" fill="#454C62"/>
<path d="M111.259 33.8638C112.051 34.4434 113.031 36.1489 113.485 36.9995C113.94 37.8502 114.42 37.7418 114.649 38.0796C114.878 38.4173 115.816 44.1301 114.812 45.0433C113.807 45.9565 110.783 44.5137 110.387 43.4629C109.991 42.4121 110.717 39.8351 110.913 39.2471C111.119 38.2316 111.058 37.18 110.737 36.1948C110.387 35.1981 111.259 33.8638 111.259 33.8638Z" fill="#454C62"/>
<path d="M109.474 36.3369C109.582 36.7528 109.772 37.1427 110.034 37.4837C110.295 37.8246 110.622 38.1096 110.996 38.3218C111.918 38.7388 112.03 37.6672 111.851 36.6539C111.688 35.7323 111.434 34.9859 110.687 34.6273C109.808 34.1728 109.17 35.3278 109.474 36.3369Z" fill="#FFC3BD"/>
</g>
<defs>
<clipPath id="clip0_2_486">
<rect width="208.496" height="164" fill="white" transform="translate(36 8)"/>
</clipPath>
</defs>
</svg>
