<svg width="500" height="500" viewBox="0 0 500 500" fill="none" xmlns="http://www.w3.org/2000/svg">
<path d="M500 382.398H0V382.648H500V382.398Z" fill="#EBEBEB"/>
<path d="M449.9 398.488H416.78V398.738H449.9V398.488Z" fill="#EBEBEB"/>
<path d="M331.22 401.211H322.53V401.461H331.22V401.211Z" fill="#EBEBEB"/>
<path d="M415.78 389.211H396.59V389.461H415.78V389.211Z" fill="#EBEBEB"/>
<path d="M95.65 390.891H52.46V391.141H95.65V390.891Z" fill="#EBEBEB"/>
<path d="M110.89 390.891H104.56V391.141H110.89V390.891Z" fill="#EBEBEB"/>
<path d="M225.15 395.109H131.47V395.359H225.15V395.109Z" fill="#EBEBEB"/>
<path d="M237 337.8H43.91C42.3973 337.797 40.9475 337.195 39.8788 336.124C38.8102 335.053 38.21 333.603 38.21 332.09V60.66C38.2231 59.156 38.8292 57.718 39.8964 56.6582C40.9637 55.5985 42.4059 55.0026 43.91 55H237C238.514 55 239.967 55.6016 241.038 56.6724C242.108 57.7433 242.71 59.1956 242.71 60.71V332.09C242.71 333.604 242.108 335.057 241.038 336.128C239.967 337.198 238.514 337.8 237 337.8ZM43.91 55.2C42.4636 55.2026 41.0774 55.7791 40.0556 56.8027C39.0338 57.8264 38.46 59.2136 38.46 60.66V332.09C38.46 333.536 39.0338 334.924 40.0556 335.947C41.0774 336.971 42.4636 337.547 43.91 337.55H237C238.447 337.547 239.834 336.971 240.858 335.948C241.881 334.924 242.457 333.537 242.46 332.09V60.66C242.457 59.2127 241.881 57.8255 240.858 56.8021C239.834 55.7787 238.447 55.2026 237 55.2H43.91Z" fill="#EBEBEB"/>
<path d="M453.31 337.8H260.21C258.696 337.797 257.246 337.195 256.175 336.125C255.105 335.054 254.503 333.604 254.5 332.09V60.66C254.516 59.1551 255.124 57.7171 256.193 56.6576C257.262 55.5981 258.705 55.0025 260.21 55H453.31C454.812 55.0052 456.252 55.6022 457.317 56.6617C458.382 57.7212 458.987 59.1578 459 60.66V332.09C459 333.601 458.401 335.05 457.335 336.121C456.268 337.191 454.821 337.795 453.31 337.8ZM260.21 55.2C258.763 55.2026 257.375 55.7787 256.352 56.8021C255.329 57.8255 254.753 59.2127 254.75 60.66V332.09C254.753 333.537 255.329 334.924 256.352 335.948C257.375 336.971 258.763 337.547 260.21 337.55H453.31C454.757 337.547 456.145 336.971 457.168 335.948C458.191 334.924 458.767 333.537 458.77 332.09V60.66C458.767 59.2127 458.191 57.8255 457.168 56.8021C456.145 55.7787 454.757 55.2026 453.31 55.2H260.21Z" fill="#EBEBEB"/>
<path d="M386.135 274.596C400.94 259.791 400.94 235.787 386.135 220.983C371.33 206.178 347.327 206.178 332.522 220.983C317.717 235.787 317.717 259.791 332.522 274.595C347.327 289.4 371.33 289.4 386.135 274.596Z" fill="#F0F0F0"/>
<path d="M70.6999 181H174.51C174.51 181 173.01 172.78 153.8 173.25C157.61 161.25 146.86 148.15 122.61 147.65C98.3599 147.15 106.88 166.65 106.88 166.65C106.88 166.65 66.1199 159.65 78.4499 174.17C58.2499 174.94 54.2599 177.52 70.6999 181Z" fill="#F0F0F0"/>
<path d="M340.17 232.412C342.53 220.602 322.35 207.662 285.17 207.162C247.99 206.662 266.64 225.932 266.64 225.932C266.64 225.932 202.43 218.932 225.44 233.342C194.82 234.032 189.44 236.582 215.57 240.062H374C374 240.062 369.34 232.002 340.17 232.412Z" fill="#FAFAFA"/>
<path d="M319.57 143.93H427.13C427.13 143.93 451.13 130.15 422.68 128.37C427.57 116.59 415.56 96.61 373.57 96.15C331.58 95.69 353.35 123.26 353.35 123.26C353.35 123.26 289.35 104.81 311.8 134.15C302 134.15 267.13 143.93 319.57 143.93Z" fill="#F5F5F5"/>
<path d="M94.3101 286.631H142.64C142.64 286.631 153.43 280.441 140.64 279.631C142.84 274.341 137.44 265.361 118.57 265.151C99.7001 264.941 109.49 277.331 109.49 277.331C109.49 277.331 80.7301 269.051 90.8101 282.231C86.4201 282.241 70.7401 286.631 94.3101 286.631Z" fill="#F5F5F5"/>
<path d="M92.13 97.9187C92.13 97.9187 78.49 89.1787 69 101.609C76.79 93.8887 91.6 101.669 91.6 101.669C91.6 101.669 108.6 93.9687 114.2 101.669C108.17 89.2587 92.13 97.9187 92.13 97.9187Z" fill="#F0F0F0"/>
<path d="M165.25 213C165.25 213 157.05 207.74 151.33 215.22C156.03 210.57 164.94 215.22 164.94 215.22C164.94 215.22 175.14 210.58 178.55 215.22C174.91 207.82 165.25 213 165.25 213Z" fill="#F0F0F0"/>
<path d="M314.77 91.1405C314.77 91.1405 310.67 88.5105 307.77 92.2505C310.12 89.9205 314.58 92.2505 314.58 92.2505C314.58 92.2505 319.68 89.9405 321.38 92.2505C319.6 88.5305 314.77 91.1405 314.77 91.1405Z" fill="#F5F5F5"/>
<path d="M415.07 180.922C415.07 180.922 410.96 178.292 408.07 182.032C410.41 179.712 414.87 182.032 414.87 182.032C414.87 182.032 419.97 179.712 421.67 182.032C419.89 178.312 415.07 180.922 415.07 180.922Z" fill="#F5F5F5"/>
<path d="M250 427.562C357.083 427.562 443.89 422.494 443.89 416.242C443.89 409.99 357.083 404.922 250 404.922C142.918 404.922 56.1104 409.99 56.1104 416.242C56.1104 422.494 142.918 427.562 250 427.562Z" fill="#F5F5F5"/>
<path d="M184.36 356.769C187.77 376.509 171.85 386.229 156.36 381.329C145.81 377.979 135.36 380.549 128.28 383.929C128.001 384.054 127.688 384.081 127.391 384.006C127.095 383.93 126.832 383.757 126.646 383.515C126.46 383.272 126.361 382.973 126.365 382.667C126.37 382.362 126.477 382.066 126.67 381.829C127.862 380.401 129.134 379.042 130.48 377.759C130.701 377.55 130.845 377.272 130.887 376.972C130.93 376.671 130.869 376.364 130.714 376.103C130.559 375.841 130.32 375.64 130.036 375.532C129.752 375.424 129.44 375.416 129.15 375.509C122.99 377.389 113.91 379.149 105.15 377.089C104.887 377.028 104.648 376.89 104.464 376.692C104.28 376.494 104.16 376.245 104.119 375.978C104.078 375.71 104.118 375.437 104.234 375.193C104.351 374.949 104.537 374.745 104.77 374.609C113.52 369.429 126.87 355.819 139.38 351.399C139.687 351.29 139.944 351.074 140.104 350.792C140.264 350.509 140.317 350.177 140.252 349.859C140.188 349.54 140.011 349.255 139.753 349.057C139.495 348.859 139.175 348.76 138.85 348.779C136.877 348.891 134.913 349.132 132.97 349.499C132.654 349.578 132.321 349.539 132.03 349.392C131.74 349.244 131.513 348.996 131.392 348.694C131.27 348.392 131.261 348.056 131.368 347.748C131.474 347.44 131.688 347.181 131.97 347.019C149.51 336.129 180 331.559 184.36 356.769Z" fill="#58B368"/>
<path opacity="0.7" d="M184.36 356.769C187.77 376.509 171.85 386.229 156.36 381.329C145.81 377.979 135.36 380.549 128.28 383.929C128.001 384.054 127.688 384.081 127.391 384.006C127.095 383.93 126.832 383.757 126.646 383.515C126.46 383.272 126.361 382.973 126.365 382.667C126.37 382.362 126.477 382.066 126.67 381.829C127.862 380.401 129.134 379.042 130.48 377.759C130.701 377.55 130.845 377.272 130.887 376.972C130.93 376.671 130.869 376.364 130.714 376.103C130.559 375.841 130.32 375.64 130.036 375.532C129.752 375.424 129.44 375.416 129.15 375.509C122.99 377.389 113.91 379.149 105.15 377.089C104.887 377.028 104.648 376.89 104.464 376.692C104.28 376.494 104.16 376.245 104.119 375.978C104.078 375.71 104.118 375.437 104.234 375.193C104.351 374.949 104.537 374.745 104.77 374.609C113.52 369.429 126.87 355.819 139.38 351.399C139.687 351.29 139.944 351.074 140.104 350.792C140.264 350.509 140.317 350.177 140.252 349.859C140.188 349.54 140.011 349.255 139.753 349.057C139.495 348.859 139.175 348.76 138.85 348.779C136.877 348.891 134.913 349.132 132.97 349.499C132.654 349.578 132.321 349.539 132.03 349.392C131.74 349.244 131.513 348.996 131.392 348.694C131.27 348.392 131.261 348.056 131.368 347.748C131.474 347.44 131.688 347.181 131.97 347.019C149.51 336.129 180 331.559 184.36 356.769Z" fill="white"/>
<path d="M162.84 385.578L156.14 333.998C156.106 333.721 156.133 333.44 156.22 333.174C156.306 332.909 156.45 332.665 156.641 332.461C156.831 332.257 157.064 332.098 157.323 331.993C157.583 331.889 157.861 331.843 158.14 331.858L190.64 334.178C191.077 334.209 191.491 334.39 191.81 334.691C192.128 334.992 192.334 335.394 192.39 335.828L197.39 374.618C197.436 375.048 197.334 375.479 197.101 375.843C196.868 376.206 196.519 376.48 196.11 376.618L165.28 387.148C165.016 387.229 164.738 387.251 164.464 387.214C164.19 387.176 163.928 387.079 163.696 386.929C163.464 386.78 163.267 386.582 163.119 386.348C162.971 386.115 162.876 385.852 162.84 385.578Z" fill="black"/>
<path d="M156.371 375.898L152.371 344.958C152.337 344.693 152.359 344.424 152.436 344.168C152.514 343.913 152.644 343.677 152.818 343.475C152.993 343.273 153.208 343.11 153.449 342.997C153.691 342.883 153.954 342.822 154.221 342.818L191.541 342.118C192.009 342.109 192.464 342.274 192.819 342.58C193.173 342.886 193.402 343.313 193.461 343.778L196.461 366.568C196.518 367.032 196.404 367.501 196.138 367.886C195.873 368.272 195.475 368.546 195.021 368.658L158.761 377.498C158.498 377.568 158.223 377.582 157.954 377.537C157.685 377.493 157.429 377.392 157.202 377.24C156.976 377.089 156.785 376.89 156.641 376.659C156.498 376.427 156.406 376.168 156.371 375.898Z" fill="#454D66"/>
<path d="M319.085 370.36L299.588 373.57L299.754 374.577L319.251 371.366L319.085 370.36Z" fill="#58B368"/>
<path d="M294.517 374.408L288.784 375.352L288.95 376.358L294.683 375.414L294.517 374.408Z" fill="#58B368"/>
<path d="M376.83 331.589C376.83 331.589 349.94 306.399 311.42 311.389L190.09 322.859C187.866 323.068 185.706 323.724 183.74 324.786C181.775 325.849 180.043 327.296 178.649 329.042C177.254 330.788 176.226 332.797 175.625 334.949C175.024 337.102 174.863 339.353 175.15 341.569L179.27 373.369C179.557 375.585 180.288 377.72 181.418 379.648C182.548 381.576 184.055 383.256 185.849 384.589C187.642 385.922 189.686 386.879 191.858 387.405C194.03 387.931 196.286 388.014 198.49 387.649L318.74 367.799C357.25 362.809 376.83 331.589 376.83 331.589Z" fill="#58B368"/>
<path d="M312.536 343.534C313.045 332.136 304.218 322.482 292.819 321.972C281.42 321.463 271.766 330.29 271.257 341.689C270.747 353.088 279.575 362.741 290.973 363.251C302.372 363.761 312.026 354.933 312.536 343.534Z" fill="white"/>
<path opacity="0.3" d="M305.8 343.72C305.538 346.907 304.192 349.908 301.987 352.224C299.782 354.54 296.851 356.032 293.681 356.45C293.481 356.45 293.271 356.5 293.061 356.51C292.176 356.596 291.285 356.596 290.401 356.51C290.091 356.51 289.771 356.44 289.471 356.39L288.8 356.26C286.016 355.621 283.493 354.145 281.571 352.03C279.65 349.916 278.421 347.264 278.05 344.43C277.969 343.767 277.933 343.099 277.941 342.43C278.118 338.984 279.561 335.725 281.994 333.278C284.427 330.831 287.677 329.368 291.122 329.171C294.567 328.974 297.964 330.056 300.66 332.21C303.356 334.364 305.162 337.437 305.731 340.84C305.856 341.795 305.88 342.761 305.8 343.72Z" fill="#58B368"/>
<path opacity="0.3" d="M305.8 343.72C305.538 346.907 304.192 349.908 301.987 352.224C299.782 354.54 296.851 356.031 293.681 356.45C293.481 356.45 293.271 356.5 293.061 356.51C292.176 356.59 291.285 356.59 290.401 356.51C290.091 356.51 289.771 356.44 289.471 356.39L288.8 356.26C286.016 355.621 283.493 354.144 281.571 352.03C279.65 349.915 278.421 347.263 278.05 344.43C277.969 343.766 277.933 343.098 277.941 342.43C278.261 339.355 279.639 336.487 281.838 334.315C284.037 332.143 286.922 330.802 290.001 330.52C297.651 329.61 304.66 334.68 305.681 341.84C305.765 342.463 305.805 343.091 305.8 343.72Z" fill="#58B368"/>
<path d="M262.869 311.38L269.119 310.76L269.999 296.48L263.749 297.1L262.869 311.38Z" fill="#CF7A64"/>
<path d="M226.989 315.093L233.139 314.483L234.449 299.953L228.299 300.563L226.989 315.093Z" fill="#CF7A64"/>
<path d="M233.489 313.1L226.569 313.79C226.449 313.803 226.337 313.857 226.251 313.943C226.166 314.028 226.112 314.14 226.099 314.26L225.569 319.84C225.559 319.974 225.577 320.109 225.624 320.235C225.67 320.361 225.744 320.476 225.839 320.571C225.934 320.666 226.048 320.739 226.174 320.786C226.301 320.832 226.435 320.851 226.569 320.84C228.979 320.56 230.129 320.3 233.169 320C235.039 319.81 237.549 319.64 240.169 319.38C242.789 319.12 242.779 316.54 241.689 316.38C236.819 315.82 236.219 314.54 234.529 313.33C234.221 313.132 233.852 313.05 233.489 313.1Z" fill="#454D66"/>
<path d="M269.3 309.472L262.58 310.152C262.458 310.161 262.344 310.214 262.258 310.3C262.172 310.386 262.119 310.501 262.11 310.622L261.58 316.202C261.568 316.337 261.585 316.472 261.631 316.599C261.677 316.726 261.75 316.841 261.846 316.937C261.941 317.032 262.056 317.105 262.183 317.151C262.31 317.197 262.446 317.215 262.58 317.202C265 316.922 268.48 316.422 271.53 316.122C275.1 315.762 275.12 315.952 279.3 315.532C281.82 315.272 282.2 312.652 281.12 312.532C276.17 311.962 275.31 311.942 270.82 309.802C270.351 309.561 269.827 309.447 269.3 309.472Z" fill="#454D66"/>
<path d="M245.33 110.94C246.89 111.08 248.65 111.25 250.33 111.33C252.01 111.41 253.69 111.47 255.33 111.47C256.91 111.466 258.489 111.373 260.06 111.19C261.306 111.061 262.526 110.747 263.68 110.26L261.84 113.08C261.84 113.41 261.91 113.41 261.84 113.21C261.755 112.903 261.634 112.608 261.48 112.33C261.011 111.477 260.458 110.673 259.83 109.93C258.39 108.205 256.843 106.572 255.2 105.04C253.52 103.43 251.75 101.87 249.96 100.32C248.17 98.77 246.31 97.23 244.51 95.74L246.91 92C249.14 93.14 251.24 94.38 253.36 95.67C255.48 96.96 257.52 98.36 259.54 99.86C261.625 101.377 263.594 103.048 265.43 104.86C266.448 105.889 267.369 107.01 268.18 108.21C268.678 108.949 269.087 109.745 269.4 110.58C269.852 111.75 270.01 113.014 269.86 114.26L269.64 116.02L268 117.11C266.025 118.367 263.824 119.226 261.52 119.64C259.542 120.045 257.536 120.293 255.52 120.38C253.58 120.49 251.67 120.47 249.78 120.38C247.89 120.29 246.06 120.15 244.06 119.85L245.33 110.94Z" fill="#CE7A63"/>
<path d="M249 94.0006L245.32 89.3906L242.56 96.0006C242.56 96.0006 245.9 99.9306 249.44 98.0006L249 94.0006Z" fill="#CF7A64"/>
<path d="M240.439 86.9727L239.819 94.4727L242.559 95.9527L245.309 89.3727L240.439 86.9727Z" fill="#CF7A64"/>
<path d="M235.93 87.9316L241.53 85.6116C241.621 85.5644 241.72 85.5372 241.823 85.5321C241.925 85.527 242.027 85.544 242.122 85.582C242.217 85.62 242.302 85.6781 242.373 85.7522C242.443 85.8264 242.497 85.9149 242.53 86.0116L246.14 97.5216C246.183 97.724 246.154 97.9352 246.057 98.1181C245.96 98.301 245.802 98.4439 245.61 98.5216L240.01 100.842C239.919 100.889 239.819 100.916 239.717 100.921C239.615 100.926 239.513 100.909 239.418 100.871C239.323 100.833 239.238 100.775 239.167 100.701C239.097 100.627 239.043 100.538 239.01 100.442L235.4 89.0016C235.338 88.7893 235.357 88.5613 235.456 88.363C235.554 88.1647 235.723 88.0107 235.93 87.9316Z" fill="#454D66"/>
<path d="M239.229 121.922C243.299 126.842 259.979 122.232 259.979 122.232L258.569 111.002C258.569 111.002 254.359 109.742 246.009 109.482C237.449 109.172 234.769 116.532 239.229 121.922Z" fill="#58B368"/>
<path opacity="0.2" d="M270 296.492L269.54 303.852L263.3 304.472L263.75 297.112L270 296.492Z" fill="black"/>
<path opacity="0.2" d="M228.289 300.573L234.449 299.953L233.769 307.443L227.619 308.063L228.289 300.573Z" fill="black"/>
<path d="M252.049 112.571C254.469 118.851 260.409 137.571 258.339 165.831L225.419 169.141C224.559 164.141 224.419 136.651 216.539 113.381C220.099 112.319 223.723 111.487 227.389 110.891C232.025 110.151 236.699 109.68 241.389 109.481C243.785 109.477 246.179 109.614 248.559 109.891C249.33 109.975 250.064 110.27 250.679 110.742C251.294 111.215 251.768 111.847 252.049 112.571Z" fill="#58B368"/>
<path opacity="0.2" d="M239.399 117.7L238.109 117.87C238.239 128.87 238.399 131.87 228.469 142.15C226.676 143.975 225.05 145.956 223.609 148.07C223.739 149.37 223.869 150.63 223.989 151.85C226.559 149.5 229.989 146.42 232.549 144.28C244.099 134.64 239.729 117.56 239.399 117.7Z" fill="black"/>
<path opacity="0.2" d="M224.43 118.532C225.43 122.382 225.43 131.862 223.03 143.042C221.922 133.779 220.005 124.63 217.3 115.702C219.43 115.212 223.45 114.922 224.43 118.532Z" fill="black"/>
<path d="M227.58 97.6523C229.03 102.052 230.17 107.572 227.39 110.892C227.39 110.892 229.77 115.262 238.14 114.422C245.78 113.652 241.39 109.482 241.39 109.482C236.21 108.792 235.7 102.572 236.14 98.9923L227.58 97.6523Z" fill="#CF7A64"/>
<path d="M238.5 114.001L240.5 115.821C240.569 115.884 240.621 115.965 240.651 116.054C240.681 116.143 240.687 116.239 240.67 116.331L240.26 118.161C240.239 118.262 240.188 118.354 240.113 118.424C240.037 118.494 239.942 118.538 239.84 118.551L237.89 118.841C237.799 118.855 237.707 118.846 237.621 118.814C237.536 118.783 237.459 118.73 237.4 118.661L236.06 117.061C235.987 116.968 235.948 116.854 235.948 116.736C235.948 116.618 235.987 116.504 236.06 116.411L237.73 114.071C237.774 114.014 237.83 113.967 237.894 113.932C237.957 113.897 238.027 113.876 238.099 113.869C238.172 113.863 238.244 113.871 238.313 113.894C238.382 113.916 238.445 113.953 238.5 114.001Z" fill="#454D66"/>
<path d="M237.879 113.942C237.04 116.126 235.935 118.198 234.589 120.112C234.589 120.112 226.459 116.412 225.969 111.112C225.96 111.015 225.976 110.918 226.014 110.829C226.053 110.74 226.113 110.662 226.189 110.602C226.499 110.362 227.059 109.922 227.589 109.482C227.651 109.426 227.724 109.384 227.804 109.36C227.884 109.336 227.968 109.33 228.05 109.342C228.133 109.355 228.211 109.385 228.28 109.432C228.349 109.479 228.407 109.54 228.449 109.612C229.099 110.762 231.199 113.002 237.879 113.942Z" fill="white"/>
<path d="M238.17 113.88C239.869 115.163 241.288 116.78 242.34 118.63C243.116 117.276 243.584 115.767 243.708 114.211C243.833 112.655 243.611 111.091 243.06 109.63C243.025 109.544 242.97 109.467 242.901 109.405C242.832 109.342 242.749 109.297 242.66 109.27C242.31 109.18 241.66 109.02 240.99 108.89C240.901 108.876 240.81 108.882 240.725 108.909C240.639 108.935 240.56 108.981 240.495 109.043C240.43 109.105 240.381 109.182 240.35 109.266C240.32 109.351 240.309 109.441 240.32 109.53C240.488 110.391 240.368 111.283 239.98 112.069C239.591 112.855 238.955 113.491 238.17 113.88Z" fill="white"/>
<path d="M239.34 117.634C239.66 117.494 242.9 132.794 231.72 142.084C227.16 145.874 219.83 152.644 219.84 152.634C220.52 149.944 222.66 145.794 228.03 140.354C237.74 130.524 237.73 127.854 238.13 117.854L239.34 117.634Z" fill="#454D66"/>
<path opacity="0.2" d="M236.14 99.0011C235.782 101.503 236.129 104.055 237.14 106.371C236.345 106.335 235.559 106.18 234.81 105.911C231.81 104.911 230.16 102.911 228.31 99.9111C228.1 99.1211 227.87 98.3611 227.63 97.6211L236.14 99.0011Z" fill="black"/>
<path d="M232.769 84.0023C233.959 74.5923 240.879 84.5523 238.959 89.2323C237.779 92.0923 232.479 86.2723 232.769 84.0023Z" fill="#454D66"/>
<path d="M223.25 92.5437C225.62 98.2637 226.72 101.734 230.68 103.774C236.63 106.864 242.84 101.864 242.2 95.5837C241.63 89.9337 237.85 81.5237 231.39 81.0437C229.972 80.926 228.548 81.1801 227.259 81.7809C225.969 82.3818 224.858 83.3085 224.037 84.4697C223.215 85.6309 222.71 86.9863 222.572 88.4023C222.434 89.8182 222.667 91.2456 223.25 92.5437Z" fill="#CF7A64"/>
<path d="M225.919 98.0719C226.675 97.9396 227.376 97.5931 227.939 97.0736C228.503 96.5542 228.906 95.8837 229.099 95.1419C227.393 94.4568 225.914 93.3065 224.829 91.8219C224.829 91.8219 227.369 88.1719 227.099 86.0619C230.359 86.0619 237.999 82.9119 236.269 79.4319C234.539 75.9519 227.679 74.2219 223.679 76.6819C221.158 78.4002 218.17 79.3042 215.119 79.2719C216.029 79.811 217.018 80.2025 218.049 80.4319C216.923 81.5331 216.041 82.859 215.46 84.3234C214.88 85.7878 214.614 87.358 214.679 88.9319C214.869 93.4019 212.439 95.2019 212.439 95.2019C212.439 95.2019 215.439 95.6519 216.359 94.3319C215.949 95.7919 218.419 100.912 223.849 101.622C229.929 102.412 225.919 98.0719 225.919 98.0719Z" fill="#454D66"/>
<path d="M223.429 100.811C225.679 101.811 227.429 102.151 228.589 101.471C229.749 100.791 229.419 98.4713 227.939 97.1413C226.609 95.9713 223.989 94.8613 222.469 96.1413C220.949 97.4213 221.109 99.7513 223.429 100.811Z" fill="#CF7A64"/>
<path d="M258.339 165.832C258.339 165.832 272.499 212.392 273.499 230.002C274.599 249.272 271.819 300.482 271.819 300.482L260.689 301.612C260.689 301.612 258.609 252.852 255.789 233.992C252.729 213.522 237.359 167.992 237.359 167.992L258.339 165.832Z" fill="#454D66"/>
<path opacity="0.2" d="M248.59 187.781L246.84 198.001C249.29 206.271 251.74 215.081 253.53 222.731C254.065 210.876 252.39 199.024 248.59 187.781Z" fill="black"/>
<path d="M259.77 298.833L260.13 302.943L272.58 301.693L272.94 297.043L259.77 298.833Z" fill="#58B368"/>
<path d="M246.66 167C246.66 167 251.27 208.63 249.66 226.6C247.87 246.27 236.48 305.11 236.48 305.11L225.21 306.24C225.21 306.24 231.41 249.5 231.41 230.24C231.41 209.29 225.41 169.18 225.41 169.18L246.66 167Z" fill="#454D66"/>
<path d="M224.819 302.643L224.659 306.513L237.049 305.263L238.309 300.883L224.819 302.643Z" fill="#58B368"/>
<path d="M232.579 91.3219C232.739 91.8019 233.129 92.1019 233.429 92.0019C233.729 91.9019 233.859 91.4319 233.689 91.0019C233.519 90.5719 233.149 90.2219 232.839 90.3219C232.529 90.4219 232.409 90.8419 232.579 91.3219Z" fill="#454D66"/>
<path d="M237.899 89.5914C238.059 90.0714 238.449 90.3714 238.749 90.2714C239.049 90.1714 239.179 89.7014 239.009 89.2714C238.839 88.8414 238.469 88.4914 238.159 88.5914C237.849 88.6914 237.739 89.1214 237.899 89.5914Z" fill="#454D66"/>
<path d="M236.29 90.3828C237.354 91.6498 238.581 92.7696 239.94 93.7128C239.699 94.0507 239.385 94.3303 239.022 94.531C238.658 94.7317 238.254 94.8485 237.84 94.8728L236.29 90.3828Z" fill="#BA4D3C"/>
<path d="M236.66 96.8219C236.695 96.8065 236.722 96.7782 236.737 96.7428C236.752 96.7075 236.753 96.6678 236.74 96.6319C236.724 96.5965 236.696 96.5679 236.661 96.5513C236.626 96.5348 236.587 96.5314 236.55 96.5419C235.968 96.7609 235.344 96.8415 234.726 96.7773C234.108 96.7131 233.513 96.5058 232.99 96.1719C232.961 96.1444 232.924 96.129 232.885 96.129C232.845 96.129 232.808 96.1444 232.78 96.1719C232.754 96.201 232.74 96.2383 232.74 96.2769C232.74 96.3155 232.754 96.3528 232.78 96.3819C233.342 96.7639 233.989 97.0036 234.665 97.0802C235.341 97.1569 236.025 97.0682 236.66 96.8219Z" fill="#454D66"/>
<path d="M230.38 90.1123C230.422 90.098 230.46 90.0743 230.491 90.0431C230.522 90.0119 230.546 89.9741 230.56 89.9323C230.66 89.5827 230.843 89.2625 231.093 88.9994C231.344 88.7364 231.656 88.5383 232 88.4223C232.038 88.4132 232.073 88.3964 232.104 88.373C232.135 88.3496 232.16 88.32 232.179 88.2862C232.198 88.2523 232.209 88.215 232.213 88.1765C232.217 88.1379 232.212 88.0991 232.2 88.0623C232.179 87.9875 232.13 87.9238 232.062 87.8846C231.995 87.8454 231.916 87.8339 231.84 87.8523C231.403 87.9918 231.007 88.236 230.686 88.5637C230.366 88.8914 230.13 89.2926 230 89.7323C229.982 89.7853 229.98 89.8421 229.992 89.8965C230.005 89.9509 230.033 90.0006 230.072 90.0401C230.112 90.0796 230.161 90.1073 230.216 90.1201C230.27 90.1328 230.327 90.1301 230.38 90.1123Z" fill="#454D66"/>
<path d="M239.63 86.9115C239.672 86.8942 239.71 86.8668 239.74 86.8315C239.792 86.7759 239.821 86.7026 239.821 86.6265C239.821 86.5503 239.792 86.477 239.74 86.4215C239.399 86.101 238.989 85.8645 238.541 85.7308C238.093 85.5971 237.62 85.5699 237.16 85.6515C237.123 85.6618 237.088 85.6794 237.058 85.7031C237.028 85.7269 237.003 85.7563 236.985 85.7898C236.966 85.8233 236.954 85.8601 236.95 85.8981C236.946 85.9362 236.949 85.9747 236.96 86.0115C236.969 86.0492 236.986 86.0847 237.009 86.1159C237.032 86.147 237.062 86.1732 237.095 86.1927C237.129 86.2123 237.166 86.225 237.205 86.2299C237.243 86.2348 237.282 86.232 237.32 86.2215C237.679 86.166 238.046 86.194 238.393 86.3032C238.74 86.4125 239.057 86.6001 239.32 86.8515C239.361 86.8893 239.411 86.9149 239.466 86.9255C239.521 86.9361 239.578 86.9313 239.63 86.9115Z" fill="#454D66"/>
<path d="M212.62 123.531L221 126.921C221 126.921 214.1 147.441 215.59 150.221C217.59 154.001 223 160.031 226.21 164.041C225.915 165.551 225.225 166.956 224.21 168.111C217.47 164.911 206.85 154.861 206.3 151.011C205.09 142.231 212.62 123.531 212.62 123.531Z" fill="#CF7A64"/>
<path d="M216.539 113.384C209.689 115.604 208.729 130.834 208.729 130.834L219.329 136.274C222.377 132.646 224.565 128.376 225.729 123.784C227.579 116.054 222.559 111.434 216.539 113.384Z" fill="#58B368"/>
<path d="M235.659 314.002C236.078 313.996 236.481 313.844 236.799 313.572C236.899 313.467 236.97 313.339 237.007 313.199C237.044 313.059 237.044 312.912 237.009 312.772C236.998 312.688 236.964 312.608 236.911 312.541C236.858 312.475 236.789 312.423 236.709 312.392C235.989 312.112 234.149 313.522 233.939 313.682C233.925 313.706 233.918 313.734 233.918 313.762C233.918 313.79 233.925 313.818 233.939 313.842C233.946 313.869 233.961 313.894 233.983 313.912C234.004 313.93 234.031 313.94 234.059 313.942C234.588 314.026 235.126 314.046 235.659 314.002ZM236.409 312.642C236.475 312.626 236.544 312.626 236.609 312.642C236.64 312.656 236.667 312.679 236.686 312.707C236.706 312.735 236.717 312.768 236.719 312.802C236.745 312.897 236.746 312.997 236.723 313.093C236.701 313.189 236.655 313.278 236.589 313.352C235.934 313.732 235.158 313.85 234.419 313.682C235.005 313.195 235.682 312.828 236.409 312.602V312.642Z" fill="#58B368"/>
<path d="M234.05 313.913C234.05 313.913 234.05 313.913 234.12 313.913C234.72 313.503 235.78 312.033 235.56 311.363C235.524 311.259 235.455 311.17 235.362 311.11C235.27 311.05 235.16 311.023 235.05 311.033C234.938 311.03 234.826 311.05 234.723 311.093C234.619 311.136 234.526 311.201 234.45 311.283C233.81 311.933 233.89 313.723 233.89 313.793C233.888 313.821 233.894 313.848 233.909 313.871C233.923 313.895 233.945 313.913 233.97 313.923L234.05 313.913ZM234.98 311.293H235.05C235.24 311.293 235.27 311.383 235.28 311.413C235.41 311.813 234.75 312.913 234.18 313.413C234.133 312.712 234.304 312.014 234.67 311.413C234.761 311.334 234.879 311.291 235 311.293H234.98Z" fill="#58B368"/>
<path d="M272 310.293C272.527 310.292 273.037 310.104 273.44 309.763C273.531 309.668 273.597 309.551 273.63 309.423C273.664 309.295 273.663 309.161 273.63 309.033C273.615 308.953 273.581 308.877 273.53 308.813C273.48 308.748 273.414 308.697 273.34 308.663C272.54 308.323 270.22 309.823 269.96 309.993C269.937 310.012 269.919 310.037 269.908 310.065C269.898 310.093 269.895 310.124 269.9 310.153C269.908 310.183 269.925 310.209 269.948 310.229C269.971 310.248 270 310.26 270.03 310.263C270.684 310.334 271.344 310.345 272 310.293ZM272.95 308.903C273.042 308.881 273.138 308.881 273.23 308.903C273.26 308.916 273.286 308.937 273.306 308.963C273.325 308.989 273.337 309.021 273.34 309.053C273.362 309.137 273.363 309.225 273.342 309.309C273.321 309.393 273.279 309.47 273.22 309.533C272.89 309.913 271.88 310.063 270.49 309.983C271.258 309.482 272.107 309.117 273 308.903H272.95Z" fill="#58B368"/>
<path d="M270.059 310.262H270.119C270.819 309.862 272.119 308.382 271.929 307.702C271.879 307.542 271.739 307.352 271.329 307.352C271.185 307.348 271.041 307.375 270.908 307.432C270.775 307.489 270.656 307.575 270.559 307.682C270.077 308.408 269.845 309.272 269.899 310.142C269.899 310.166 269.906 310.19 269.918 310.211C269.931 310.232 269.948 310.25 269.969 310.262C269.983 310.269 269.999 310.273 270.014 310.273C270.03 310.273 270.045 310.269 270.059 310.262ZM271.249 307.622H271.339C271.609 307.622 271.639 307.722 271.649 307.752C271.769 308.162 270.899 309.312 270.189 309.842C270.169 309.131 270.372 308.432 270.769 307.842C270.899 307.716 271.069 307.638 271.249 307.622Z" fill="#58B368"/>
<path d="M224.7 163.184L230.59 163.384L227 169.524C227 169.524 221.85 169.174 221.33 165.154L224.7 163.184Z" fill="#CF7A64"/>
<path d="M233.349 165.433L229.779 170.833L226.949 169.523L230.589 163.383L233.349 165.433Z" fill="#CF7A64"/>
</svg>
