<svg width="500" height="500" viewBox="0 0 500 500" fill="none" xmlns="http://www.w3.org/2000/svg">
<path d="M250 427.562C357.083 427.562 443.89 422.494 443.89 416.242C443.89 409.99 357.083 404.922 250 404.922C142.918 404.922 56.1104 409.99 56.1104 416.242C56.1104 422.494 142.918 427.562 250 427.562Z" fill="#F5F5F5"/>
<path d="M500 382.398H0V382.648H500V382.398Z" fill="#EBEBEB"/>
<path d="M73.67 391.922H52.46V392.172H73.67V391.922Z" fill="#EBEBEB"/>
<path d="M256.11 389.211H171.14V389.461H256.11V389.211Z" fill="#EBEBEB"/>
<path d="M105.78 401.211H67.6699V401.461H105.78V401.211Z" fill="#EBEBEB"/>
<path d="M449.9 399.531H406.71V399.781H449.9V399.531Z" fill="#EBEBEB"/>
<path d="M403.44 399.531H391.47V399.781H403.44V399.531Z" fill="#EBEBEB"/>
<path d="M370.891 395.309H347.891V395.559H370.891V395.309Z" fill="#EBEBEB"/>
<path d="M336.331 395.309H287.891V395.559H336.331V395.309Z" fill="#EBEBEB"/>
<path d="M237 337.8H43.91C42.3973 337.797 40.9475 337.195 39.8788 336.124C38.8102 335.053 38.21 333.603 38.21 332.09V60.66C38.2231 59.156 38.8292 57.718 39.8964 56.6582C40.9637 55.5985 42.4059 55.0026 43.91 55H237C238.514 55 239.967 55.6016 241.038 56.6724C242.108 57.7433 242.71 59.1956 242.71 60.71V332.09C242.71 333.604 242.108 335.057 241.038 336.128C239.967 337.198 238.514 337.8 237 337.8ZM43.91 55.2C42.4636 55.2026 41.0774 55.7791 40.0556 56.8027C39.0338 57.8264 38.46 59.2136 38.46 60.66V332.09C38.46 333.536 39.0338 334.924 40.0556 335.947C41.0774 336.971 42.4636 337.547 43.91 337.55H237C238.446 337.545 239.832 336.968 240.855 335.945C241.878 334.922 242.455 333.536 242.46 332.09V60.66C242.455 59.2135 241.878 57.8278 240.855 56.805C239.832 55.7822 238.446 55.2053 237 55.2H43.91Z" fill="#EBEBEB"/>
<path d="M453.31 337.8H260.21C258.697 337.795 257.248 337.191 256.178 336.122C255.109 335.052 254.505 333.603 254.5 332.09V60.66C254.516 59.1551 255.124 57.7171 256.193 56.6576C257.262 55.5981 258.705 55.0025 260.21 55H453.31C454.812 55.0052 456.252 55.6022 457.317 56.6617C458.382 57.7212 458.987 59.1578 459 60.66V332.09C459.001 332.839 458.855 333.58 458.57 334.272C458.285 334.964 457.866 335.593 457.338 336.123C456.809 336.654 456.182 337.075 455.491 337.362C454.799 337.65 454.059 337.799 453.31 337.8ZM260.21 55.2C258.764 55.2053 257.378 55.7822 256.355 56.805C255.332 57.8278 254.755 59.2135 254.75 60.66V332.09C254.755 333.536 255.332 334.922 256.355 335.945C257.378 336.968 258.764 337.545 260.21 337.55H453.31C454.756 337.545 456.142 336.968 457.165 335.945C458.188 334.922 458.765 333.536 458.77 332.09V60.66C458.765 59.2135 458.188 57.8278 457.165 56.805C456.142 55.7822 454.756 55.2053 453.31 55.2H260.21Z" fill="#EBEBEB"/>
<path d="M315.27 282.07H311.01V382.59H315.27V282.07Z" fill="#F0F0F0"/>
<path d="M267.57 284.938H148.58V306.647H267.57V284.938Z" fill="#E0E0E0"/>
<path d="M198.2 382.67H147.2C147.004 382.67 146.815 382.592 146.677 382.453C146.538 382.315 146.46 382.126 146.46 381.93C146.46 381.734 146.538 381.546 146.677 381.407C146.815 381.268 147.004 381.19 147.2 381.19H198.2C205.57 381.19 206.56 379.04 206.56 370.5V262.81C206.548 262.707 206.558 262.601 206.589 262.502C206.621 262.402 206.673 262.31 206.742 262.232C206.812 262.154 206.897 262.092 206.992 262.049C207.087 262.006 207.191 261.984 207.295 261.984C207.399 261.984 207.503 262.006 207.598 262.049C207.693 262.092 207.778 262.154 207.848 262.232C207.917 262.31 207.969 262.402 208.001 262.502C208.032 262.601 208.042 262.707 208.03 262.81V370.5C208 379.63 206.61 382.67 198.2 382.67Z" fill="#E0E0E0"/>
<path d="M314.11 282.461H153.16V290.001H314.11V282.461Z" fill="#F0F0F0"/>
<path d="M154.32 282.07H102.64V382.59H154.32V282.07Z" fill="#F5F5F5"/>
<path d="M154.31 282.07H150.05V382.59H154.31V282.07Z" fill="#F0F0F0"/>
<path d="M117.72 169.219H64.8604V382.599H117.72V169.219Z" fill="#FAFAFA"/>
<path d="M114.82 175.449H67.7598V222.509H114.82V175.449Z" fill="#F5F5F5"/>
<path d="M80.8701 174.82H101.74C101.74 176.115 101.226 177.356 100.311 178.271C99.3956 179.186 98.1544 179.7 96.8601 179.7H85.7801C85.1393 179.704 84.5039 179.582 83.9103 179.34C83.3167 179.099 82.7766 178.743 82.3206 178.292C81.8647 177.842 81.5019 177.306 81.253 176.716C81.0042 176.125 80.874 175.491 80.8701 174.85V174.82Z" fill="#E0E0E0"/>
<path d="M114.81 226.73H67.75V273.79H114.81V226.73Z" fill="#F5F5F5"/>
<path d="M114.82 278.02H67.7598V325.08H114.82V278.02Z" fill="#F5F5F5"/>
<path d="M114.82 329.309H67.7598V376.369H114.82V329.309Z" fill="#F5F5F5"/>
<path d="M80.8701 226.109H101.74C101.737 227.404 101.223 228.644 100.308 229.561C99.3942 230.477 98.1545 230.994 96.8601 230.999H85.7801C85.1384 231.003 84.5023 230.881 83.908 230.638C83.3138 230.396 82.7732 230.039 82.3171 229.588C81.861 229.136 81.4985 228.599 81.2502 228.008C81.0019 227.416 80.8727 226.781 80.8701 226.139V226.109Z" fill="#E0E0E0"/>
<path d="M80.8701 277.391H101.74C101.741 278.032 101.616 278.667 101.371 279.26C101.127 279.852 100.767 280.391 100.314 280.844C99.8603 281.298 99.3218 281.657 98.7292 281.902C98.1365 282.147 97.5013 282.272 96.8601 282.271H85.7801C84.4876 282.279 83.2447 281.773 82.3241 280.866C81.4036 279.959 80.8807 278.723 80.8701 277.431V277.391Z" fill="#E0E0E0"/>
<path d="M80.8701 328.668H101.74C101.741 329.309 101.616 329.944 101.371 330.537C101.127 331.13 100.767 331.668 100.314 332.122C99.8603 332.575 99.3218 332.934 98.7292 333.179C98.1365 333.424 97.5013 333.549 96.8601 333.548H85.7801C84.4876 333.556 83.2447 333.051 82.3241 332.143C81.4036 331.236 80.8807 330 80.8701 328.708V328.668Z" fill="#E0E0E0"/>
<path d="M64.86 169.219H38.46V382.599H64.86V169.219Z" fill="#F0F0F0"/>
<path d="M201.22 282.071H190.08L192.78 260.371H203.94L201.22 282.071Z" fill="#F0F0F0"/>
<path d="M203.69 282.071H192.54L195.26 260.371H206.4L203.69 282.071Z" fill="#F5F5F5"/>
<path d="M227.61 282.069H219.54L218 279.609H226.06L227.61 282.069Z" fill="#F0F0F0"/>
<path d="M270.8 282.069H222.01L220.47 279.609H264.22L270.8 282.069Z" fill="#FAFAFA"/>
<path d="M165.87 275.84H169.4C170.218 275.84 171.027 276.001 171.783 276.314C172.538 276.627 173.224 277.087 173.802 277.665C174.38 278.244 174.838 278.931 175.15 279.686C175.462 280.442 175.621 281.252 175.62 282.07H159.62C159.62 280.418 160.276 278.833 161.445 277.665C162.613 276.496 164.198 275.84 165.85 275.84H165.87Z" fill="#F0F0F0"/>
<path d="M205.04 271.221H193.9L195.26 260.371H206.4L205.04 271.221Z" fill="#F0F0F0"/>
<path d="M164.06 268.62H243C243.143 268.621 243.286 268.594 243.419 268.539C243.552 268.485 243.672 268.405 243.774 268.303C243.875 268.202 243.955 268.081 244.01 267.948C244.064 267.815 244.091 267.673 244.09 267.53C244.095 267.483 244.095 267.436 244.09 267.39L238 218.77C237.98 218.497 237.857 218.243 237.657 218.057C237.456 217.872 237.193 217.769 236.92 217.77H158C157.711 217.77 157.434 217.884 157.229 218.089C157.025 218.293 156.91 218.57 156.91 218.86C156.905 218.906 156.905 218.953 156.91 219L163 267.67C163.035 267.928 163.161 268.165 163.356 268.339C163.55 268.513 163.799 268.612 164.06 268.62Z" fill="#F0F0F0"/>
<path d="M165.25 268.62H244.12C244.263 268.621 244.406 268.594 244.539 268.539C244.671 268.485 244.792 268.405 244.894 268.303C244.995 268.202 245.075 268.081 245.13 267.948C245.184 267.815 245.211 267.673 245.21 267.53C245.215 267.483 245.215 267.436 245.21 267.39L239.14 218.77C239.111 218.499 238.984 218.248 238.783 218.064C238.583 217.88 238.322 217.775 238.05 217.77H159.17C158.881 217.77 158.604 217.884 158.399 218.089C158.195 218.293 158.08 218.57 158.08 218.86C158.075 218.906 158.075 218.953 158.08 219L164.16 267.63C164.183 267.902 164.308 268.155 164.51 268.339C164.712 268.523 164.977 268.623 165.25 268.62Z" fill="#F5F5F5"/>
<path d="M242.66 265.931L237 220.421C236.99 220.347 236.953 220.279 236.895 220.231C236.838 220.183 236.765 220.158 236.69 220.161H160.94C160.901 220.158 160.862 220.163 160.825 220.176C160.788 220.189 160.754 220.209 160.725 220.235C160.696 220.261 160.673 220.293 160.657 220.328C160.64 220.364 160.631 220.402 160.63 220.441V220.501L166.32 266.001C166.327 266.075 166.362 266.144 166.418 266.194C166.473 266.244 166.545 266.271 166.62 266.271H242.36C242.401 266.27 242.441 266.26 242.478 266.243C242.515 266.227 242.548 266.203 242.576 266.173C242.604 266.143 242.626 266.108 242.64 266.07C242.655 266.032 242.661 265.992 242.66 265.951V265.931Z" fill="#E0E0E0"/>
<path d="M213.84 282.067H195.68V281.837C195.68 281.359 195.869 280.9 196.206 280.561C196.544 280.222 197.001 280.03 197.48 280.027H212C212.48 280.027 212.94 280.218 213.28 280.557C213.619 280.897 213.81 281.357 213.81 281.837V282.067H213.84Z" fill="#FAFAFA"/>
<path d="M197.79 282.067H185.48V281.837C185.479 281.6 185.525 281.365 185.615 281.145C185.705 280.926 185.837 280.726 186.004 280.558C186.171 280.39 186.37 280.256 186.589 280.165C186.808 280.074 187.043 280.027 187.28 280.027H196.001C196.479 280.03 196.937 280.222 197.274 280.561C197.611 280.9 197.801 281.359 197.801 281.837V282.067H197.79Z" fill="#F0F0F0"/>
<path d="M87.2003 145.119C87.4003 144.439 87.5903 143.749 87.7603 143.069C88.0575 143.543 88.4623 143.941 88.9418 144.229C89.4214 144.518 89.9621 144.689 90.5203 144.729H90.7603C92.2303 144.589 93.6303 143.159 94.5203 140.919C94.5396 140.88 94.5497 140.838 94.5497 140.794C94.5497 140.751 94.5396 140.708 94.5203 140.669C94.4999 140.629 94.4717 140.593 94.4373 140.564C94.403 140.535 94.3632 140.513 94.3203 140.499C93.2658 140.232 92.1669 140.19 91.0952 140.376C90.0234 140.562 89.0029 140.972 88.1003 141.579C88.2403 140.929 88.3503 140.269 88.4503 139.579C88.6804 139.628 88.9151 139.651 89.1503 139.649C89.9701 139.575 90.767 139.339 91.4948 138.954C92.2226 138.57 92.8669 138.045 93.3903 137.409C93.4472 137.348 93.4789 137.268 93.4789 137.184C93.4789 137.101 93.4472 137.02 93.3903 136.959H93.3103C92.7543 136.683 92.1459 136.527 91.5253 136.503C90.9047 136.479 90.2861 136.587 89.7103 136.819C89.0961 137.132 88.5984 137.633 88.2903 138.249C87.8445 136.858 87.0197 135.619 85.9087 134.67C84.7976 133.721 83.4442 133.101 82.0003 132.879C81.9568 132.869 81.9115 132.868 81.868 132.879C81.8245 132.889 81.7841 132.91 81.7503 132.939C81.7135 132.966 81.6828 133.001 81.6604 133.04C81.638 133.08 81.6243 133.124 81.6203 133.169C81.5003 135.339 81.6203 138.009 83.2003 139.269C83.8779 139.771 84.7076 140.026 85.5503 139.989C86.3096 139.978 87.0637 139.86 87.7903 139.639C87.5579 141.209 87.2239 142.762 86.7903 144.289C85.1922 142.127 82.9361 140.541 80.3603 139.769C80.283 139.761 80.2051 139.779 80.1396 139.821C80.0741 139.862 80.0249 139.925 80.0003 139.999C79.5103 141.879 79.7603 143.399 80.7303 144.399C81.2244 144.838 81.8004 145.174 82.4252 145.388C83.05 145.603 83.7111 145.692 84.3703 145.649C85.0789 145.641 85.7853 145.568 86.4803 145.429C86.0803 146.709 85.6003 147.969 85.1503 149.159C84.1503 148.279 81.3003 146.099 78.1503 147.019C78.0678 147.05 78 147.111 77.9603 147.189C77.9409 147.228 77.9308 147.271 77.9308 147.314C77.9308 147.358 77.9409 147.4 77.9603 147.439C78.8403 149.519 79.7803 150.669 80.9603 151.059C81.2827 151.167 81.6205 151.221 81.9603 151.219C82.8899 151.182 83.7963 150.917 84.6003 150.449C83.9303 152.039 83.2203 153.519 82.5503 154.839C81.7457 154.019 80.735 153.432 79.6246 153.138C78.5142 152.844 77.345 152.855 76.2403 153.169C76.1652 153.186 76.0991 153.23 76.0547 153.293C76.0104 153.356 75.991 153.433 76.0003 153.509C76.0758 154.174 76.3255 154.807 76.7241 155.344C77.1227 155.882 77.656 156.304 78.2703 156.569C78.7351 156.767 79.2351 156.869 79.7403 156.869C80.4387 156.856 81.1241 156.678 81.7403 156.349C81.0503 157.619 80.4203 158.689 79.9203 159.489H74.0003C73.0003 157.869 72.0003 155.849 70.8703 153.579C71.3697 153.73 71.8885 153.808 72.4103 153.809C72.9587 153.817 73.5034 153.717 74.013 153.514C74.5226 153.311 74.9872 153.01 75.3801 152.627C75.773 152.244 76.0866 151.788 76.3028 151.284C76.5191 150.779 76.6338 150.238 76.6403 149.689C76.6472 149.322 76.6035 148.955 76.5103 148.599C76.4894 148.528 76.4436 148.466 76.3812 148.426C76.3188 148.386 76.2439 148.369 76.1703 148.379C74.9492 148.498 73.7747 148.909 72.746 149.577C71.7173 150.245 70.8647 151.152 70.2603 152.219C69.5603 150.639 68.8703 148.959 68.2603 147.219C69.0225 147.651 69.8754 147.897 70.7503 147.939C71.0908 147.94 71.429 147.882 71.7503 147.769C73.5103 147.189 74.5203 145.069 75.3803 142.879C75.3998 142.839 75.4099 142.794 75.4099 142.749C75.4099 142.704 75.3998 142.66 75.3803 142.619C75.3599 142.579 75.3317 142.543 75.2973 142.514C75.263 142.485 75.2232 142.463 75.1803 142.449C71.6603 141.449 68.7703 144.849 67.8703 146.069C67.4008 144.605 67.0102 143.116 66.7003 141.609C67.4422 141.751 68.195 141.828 68.9503 141.839C69.6975 141.894 70.448 141.794 71.1551 141.547C71.8621 141.299 72.5107 140.908 73.0603 140.399C74.1203 139.269 74.3803 137.579 73.8103 135.529C73.8009 135.489 73.7836 135.451 73.7593 135.417C73.735 135.384 73.7042 135.355 73.6688 135.334C73.6334 135.313 73.594 135.298 73.5531 135.292C73.5121 135.287 73.4703 135.289 73.4303 135.299C70.6105 136.151 68.1502 137.908 66.4303 140.299L66.2903 139.499C66.2846 139.432 66.2564 139.369 66.2103 139.319C66.0633 138.799 65.8096 138.315 65.4653 137.898C65.1209 137.482 64.6935 137.141 64.2103 136.899C63.5756 136.656 62.8968 136.548 62.2179 136.584C61.539 136.621 60.8754 136.799 60.2703 137.109C60.2247 137.13 60.1841 137.161 60.1514 137.199C60.1186 137.237 60.0943 137.281 60.0803 137.329C60.0692 137.378 60.0698 137.429 60.0819 137.478C60.0941 137.526 60.1175 137.571 60.1503 137.609C60.7242 138.294 61.4279 138.858 62.2207 139.27C63.0136 139.682 63.88 139.933 64.7703 140.009C65.052 139.999 65.3327 139.969 65.6103 139.919C65.7203 140.659 65.8603 141.409 66.0203 142.149C65.018 141.491 63.8879 141.051 62.7039 140.86C61.52 140.669 60.309 140.73 59.1503 141.039C59.0623 141.069 58.9878 141.129 58.9403 141.209C58.9105 141.293 58.9105 141.385 58.9403 141.469C59.9403 143.919 61.5203 145.469 63.1403 145.599H63.3603C63.9736 145.546 64.5656 145.348 65.0872 145.021C65.6089 144.694 66.0452 144.248 66.3603 143.719C66.8057 145.413 67.3398 147.082 67.9603 148.719C66.4403 147.999 63.0203 146.719 60.5703 148.649C60.5065 148.699 60.4638 148.771 60.4508 148.85C60.4378 148.93 60.4555 149.012 60.5003 149.079C62.0803 151.239 63.5003 152.279 64.9803 152.279C66.1603 152.279 67.3003 151.529 68.4303 150.059C69.0803 151.669 69.7903 153.219 70.4303 154.649C68.9103 153.709 67.2403 153.849 65.2703 155.089C65.2251 155.119 65.1879 155.159 65.1617 155.206C65.1356 155.253 65.1214 155.305 65.1203 155.359C65.1161 155.41 65.126 155.462 65.1489 155.507C65.1718 155.553 65.2069 155.592 65.2503 155.619C66.4222 156.466 67.8078 156.969 69.2503 157.069C69.9967 157.09 70.7298 156.869 71.3403 156.439C71.9003 157.519 72.4503 158.509 72.9603 159.439H70.4103V160.989H71.4103L72.2303 169.179H84.2303L85.0403 160.989H86.0403V159.499H80.6403C81.2403 158.499 82.0003 157.179 82.8203 155.629C82.841 155.595 82.8578 155.558 82.8703 155.519C83.0803 155.119 83.2903 154.719 83.5003 154.299C83.8568 154.841 84.3381 155.288 84.9036 155.605C85.4692 155.922 86.1024 156.098 86.7503 156.119H87.1503C87.8673 156.037 88.5476 155.758 89.1159 155.314C89.6842 154.869 90.1184 154.276 90.3703 153.599C90.3981 153.531 90.3991 153.455 90.3732 153.387C90.3472 153.318 90.2961 153.262 90.2303 153.229C89.3096 152.708 88.2778 152.413 87.2205 152.369C86.1632 152.326 85.1107 152.535 84.1503 152.979C84.6003 151.979 85.0303 150.979 85.4803 149.979C85.5169 149.94 85.5413 149.892 85.5503 149.839C85.6703 149.539 85.7803 149.239 85.9103 148.959C86.9103 150.279 87.9903 150.959 89.0703 150.959C90.3803 150.959 91.7103 149.959 93.1303 147.959C93.1557 147.927 93.1744 147.889 93.1852 147.849C93.196 147.809 93.1987 147.768 93.1931 147.727C93.1875 147.686 93.1737 147.646 93.1526 147.61C93.1316 147.575 93.1035 147.544 93.0703 147.519C90.8303 145.839 87.8003 146.989 86.3703 147.659C86.6603 146.859 86.9303 146.059 87.1703 145.249L87.2003 145.119Z" fill="#E0E0E0"/>
<path d="M286.91 332.329H320C323.024 332.322 325.926 331.133 328.086 329.016C330.245 326.9 331.492 324.023 331.56 320.999L332.8 260.469C332.843 258.23 331.995 256.065 330.442 254.45C328.89 252.836 326.76 251.904 324.52 251.859H303.63C301.557 251.856 299.554 252.617 298.007 253.997C296.459 255.377 295.474 257.279 295.24 259.339L286.91 332.329Z" fill="#E6E6E6"/>
<path d="M305 332.33H269.73C269.292 332.33 268.873 332.156 268.563 331.847C268.254 331.537 268.08 331.118 268.08 330.68V330.52C268.08 329.321 268.556 328.172 269.404 327.324C270.252 326.476 271.401 326 272.6 326H305V332.34V332.33Z" fill="#E6E6E6"/>
<path d="M302.17 383.42C302 383.424 301.833 383.368 301.7 383.262C301.567 383.156 301.475 383.007 301.44 382.84L291.11 333.07H273.11L262.79 382.84C262.733 383.02 262.611 383.171 262.449 383.266C262.286 383.361 262.094 383.392 261.91 383.353C261.726 383.315 261.562 383.209 261.452 383.057C261.341 382.905 261.29 382.717 261.31 382.53L271.77 332.18C271.803 332.01 271.896 331.857 272.031 331.749C272.167 331.641 272.337 331.585 272.51 331.59H291.69C291.861 331.587 292.029 331.644 292.162 331.752C292.296 331.86 292.387 332.012 292.42 332.18L302.87 382.53C302.89 382.624 302.892 382.721 302.875 382.816C302.858 382.91 302.823 383.001 302.771 383.082C302.719 383.162 302.651 383.232 302.572 383.287C302.493 383.342 302.404 383.38 302.31 383.4L302.17 383.42Z" fill="#E6E6E6"/>
<path d="M291 383.418H290.85C290.658 383.379 290.489 383.266 290.38 383.103C290.271 382.94 290.232 382.74 290.27 382.548L300.73 332.188C300.767 332.019 300.861 331.869 300.995 331.761C301.13 331.654 301.298 331.596 301.47 331.598H320.65C320.821 331.598 320.986 331.657 321.119 331.764C321.252 331.872 321.344 332.021 321.38 332.188L331.83 382.548C331.85 382.644 331.85 382.744 331.832 382.84C331.813 382.937 331.775 383.029 331.721 383.111C331.667 383.194 331.597 383.264 331.515 383.319C331.433 383.374 331.342 383.413 331.245 383.433C331.149 383.452 331.049 383.453 330.952 383.434C330.856 383.415 330.764 383.378 330.681 383.323C330.599 383.269 330.529 383.199 330.473 383.118C330.418 383.036 330.38 382.944 330.36 382.848L320 333.078H302L291.68 382.848C291.642 383.003 291.556 383.142 291.433 383.244C291.311 383.347 291.159 383.407 291 383.418Z" fill="#E6E6E6"/>
<path d="M415.29 368.811H417.35C417.35 364.571 417.35 353.811 417.57 329.131C417.93 284.411 418.65 281.691 418.65 281.691L413.75 302.341C410.63 325.191 414.63 348.191 415.29 368.811Z" fill="#E6E6E6"/>
<path d="M406.16 294.681C395.36 284.011 374.28 282.581 352.74 281.681C344.29 281.331 376.34 297.571 392.41 309.731C404.83 319.171 412.49 321.401 416.63 331.581C417.11 318.371 415.46 303.881 406.16 294.681Z" fill="#E6E6E6"/>
<path d="M418 271.481C425.32 257.581 443.73 244.481 464.39 239.481C472.49 237.531 445.59 265.141 435.39 282.961C427.45 296.801 416.92 313.041 415.29 324.721C412.82 301.631 410.7 285.381 418 271.481Z" fill="#E0E0E0"/>
<path d="M417.11 382.189C413.647 382.182 410.318 380.853 407.801 378.475C405.285 376.096 403.771 372.846 403.57 369.389L402.33 357.129H431.81L430.57 369.389C430.37 372.832 428.868 376.07 426.368 378.447C423.869 380.824 420.559 382.162 417.11 382.189Z" fill="#EBEBEB"/>
<path d="M433.74 361.851H400.43L399.47 348.191H434.69L433.74 361.851Z" fill="#F0F0F0"/>
<path d="M446.13 75.7812H276.59V197.001H446.13V75.7812Z" fill="#E0E0E0"/>
<path d="M442.39 75.7812H276.59V197.001H442.39V75.7812Z" fill="#F0F0F0"/>
<path d="M436.18 80.91H282.13V189.07H436.18V80.91Z" fill="#FAFAFA"/>
<path d="M448.55 70.4883H270.85V72.6083H448.55V70.4883Z" fill="#E0E0E0"/>
<path d="M269.43 74.5489C271.064 74.5489 272.39 73.2237 272.39 71.5889C272.39 69.9541 271.064 68.6289 269.43 68.6289C267.795 68.6289 266.47 69.9541 266.47 71.5889C266.47 73.2237 267.795 74.5489 269.43 74.5489Z" fill="#E0E0E0"/>
<path d="M448.55 74.5489C450.185 74.5489 451.51 73.2237 451.51 71.5889C451.51 69.9541 450.185 68.6289 448.55 68.6289C446.915 68.6289 445.59 69.9541 445.59 71.5889C445.59 73.2237 446.915 74.5489 448.55 74.5489Z" fill="#E0E0E0"/>
<path opacity="0.7" d="M420.89 80.91L372.05 189.07H352.8L401.64 80.91H420.89Z" fill="white"/>
<path opacity="0.7" d="M383.93 80.9102L335.09 189.07H300.73L349.57 80.9102H383.93Z" fill="white"/>
<path d="M446.13 124.449H276.59V128.129H446.13V124.449Z" fill="#E0E0E0"/>
<path d="M446.13 119.039H276.59V122.719H446.13V119.039Z" fill="#E0E0E0"/>
<path d="M446.13 113.641H276.59V117.321H446.13V113.641Z" fill="#E0E0E0"/>
<path d="M446.13 108.23H276.59V111.91H446.13V108.23Z" fill="#E0E0E0"/>
<path d="M446.13 102.828H276.59V106.508H446.13V102.828Z" fill="#E0E0E0"/>
<path d="M446.13 97.4297H276.59V101.11H446.13V97.4297Z" fill="#E0E0E0"/>
<path d="M446.13 92.0195H276.59V95.6995H446.13V92.0195Z" fill="#E0E0E0"/>
<path d="M446.13 86.6211H276.59V90.3011H446.13V86.6211Z" fill="#E0E0E0"/>
<path d="M446.13 81.2188H276.59V84.8988H446.13V81.2188Z" fill="#E0E0E0"/>
<path d="M446.13 75.8086H276.59V79.4886H446.13V75.8086Z" fill="#E0E0E0"/>
<path d="M216.13 74.7891H185.14V105.779H216.13V74.7891Z" fill="#F0F0F0"/>
<path d="M213.71 74.7891H182.72V105.779H213.71V74.7891Z" fill="#F5F5F5"/>
<path d="M211.33 77.1797H185.11V103.4H211.33V77.1797Z" fill="#FAFAFA"/>
<path d="M185.85 77.1797H185.11V103.4H185.85V77.1797Z" fill="#F0F0F0"/>
<path d="M208.18 84.1794V96.2494C207.167 96.2494 206.195 96.6518 205.479 97.3682C204.763 98.0846 204.36 99.0562 204.36 100.069H193.2C193.2 99.5669 193.101 99.0693 192.908 98.6052C192.716 98.1411 192.434 97.7195 192.078 97.3647C191.722 97.0098 191.3 96.7287 190.835 96.5373C190.37 96.3459 189.873 96.2481 189.37 96.2494V84.1794C189.873 84.1807 190.37 84.0829 190.835 83.8915C191.3 83.7001 191.722 83.4189 192.078 83.0641C192.434 82.7092 192.716 82.2877 192.908 81.8235C193.101 81.3594 193.2 80.8619 193.2 80.3594H204.36C204.36 80.861 204.459 81.3578 204.651 81.8212C204.843 82.2847 205.124 82.7058 205.479 83.0605C205.834 83.4152 206.255 83.6966 206.718 83.8886C207.182 84.0806 207.678 84.1794 208.18 84.1794Z" fill="white"/>
<path d="M159.9 74.5391H55.8799V127.509H159.9V74.5391Z" fill="#E6E6E6"/>
<path d="M155.68 74.5391H51.6602V127.509H155.68V74.5391Z" fill="#F0F0F0"/>
<path d="M151.94 79.16H55.5801V121.67H151.94V79.16Z" fill="#F5F5F5"/>
<path opacity="0.7" d="M129.14 79.16L110.49 121.67H97.5L117.21 79.16H129.14Z" fill="white"/>
<path opacity="0.7" d="M112.75 79.1602L92.8203 121.67H87.0303L107.26 79.1602H112.75Z" fill="white"/>
<path d="M130.26 117.732C130.26 117.732 123.9 116.312 123 108.112C122.17 100.502 125.56 98.9917 125.56 98.9917C125.56 98.9917 121.23 91.2117 128.46 86.7417C135.69 82.2717 146.76 88.2317 151.02 86.2117C155.28 84.1917 160.02 85.3217 158.67 91.3217C157.32 97.3217 151 98.8817 151 98.8817L136.41 96.3217C136.41 96.3217 142.7 112.722 138.97 115.812C135.24 118.902 130.26 117.732 130.26 117.732Z" fill="#454D66"/>
<path d="M155.68 93.5625C155.68 93.5625 158.83 105.803 155.68 107.913C152.53 110.023 151.85 95.3725 151.85 95.3725L155.68 93.5625Z" fill="#454D66"/>
<path d="M132.47 212.113L129.34 218.813L123.79 218.013C118.56 218.853 116.38 215.883 116.38 215.883L113.09 212.883C94.7001 195.663 91.6001 186.883 93.1801 179.953C94.8501 172.633 105.93 151.103 109.27 146.093C112.61 141.083 115.13 139.713 115.13 139.713C121.19 137.103 125.78 138.983 127.89 145.463C129.6 150.703 125.72 156.173 122.73 160.123C119.052 164.959 115.653 170 112.55 175.223C111.55 176.943 110.55 178.693 109.61 180.453C109.2 181.213 106.94 184.513 107.19 185.183C108.73 189.473 116.47 201.653 119.19 205.873L120.13 207.333C130.17 208.773 132.47 212.113 132.47 212.113Z" fill="#454D66"/>
<path d="M236.93 141.352L231.1 144.682C231.1 144.682 229.84 147.162 227.76 150.632C223.03 158.542 214.08 171.632 206.17 172.512C195.78 173.382 184.86 168.572 173.89 161.212C162.92 153.852 166.79 137.012 166.79 137.012C166.79 137.012 173.34 138.852 183.48 146.352C193.62 153.852 202.22 158.432 204.72 159.402C204.72 159.402 213.32 156.632 222.63 145.812L225.27 137.332L234.02 134.332L236.93 141.352Z" fill="#454D66"/>
<path d="M114.76 165.462C115.14 166.002 125 214.402 125 214.402H171.06C171.06 214.402 171.47 184.812 172.23 177.792C172.99 170.772 177.65 141.792 166.79 137.012C166.79 137.012 155.73 134.382 147.57 134.272C142.657 134.206 137.75 134.625 132.92 135.522C132.92 135.522 118.79 136.272 115.12 139.692C111.45 143.112 114.76 165.462 114.76 165.462Z" fill="#454D66"/>
<path d="M171.059 213.75C171.059 213.75 170.279 283.56 168.189 300.26C166.099 316.96 160.679 389.13 160.679 389.13L146.999 385.84C146.999 385.84 145.999 333.31 144.569 307.22C143.139 281.13 143.459 250.22 143.459 250.22C143.459 250.22 133.459 315.22 129.609 321.48C125.759 327.74 110.099 363.92 99.9994 382L88.8594 372.26C88.8594 372.26 106.999 314.52 110.099 304.78C113.199 295.04 115.899 222.78 124.999 214.4L171.059 213.75Z" fill="#58B368"/>
<path d="M98.3101 379.882L95.5301 384.132L91.7801 389.872L84.1201 385.892L87.2601 379.552L89.6001 374.852L98.3101 379.882Z" fill="#CE7A63"/>
<path d="M236.93 141.352L231.1 144.682C231.1 144.682 229.84 147.162 227.76 150.632L222.63 145.812L225.27 137.332L234.02 134.332L236.93 141.352Z" fill="#CE7A63"/>
<path opacity="0.3" d="M171.049 213.75C171.049 213.75 170.279 283.56 168.189 300.25C166.099 316.94 160.679 389.13 160.679 389.13L147.169 386.86C147.169 386.86 145.919 333.31 144.539 307.21C144.149 299.77 143.459 294.11 143.309 289.76C143.159 285.41 143.189 277.76 143.309 270.27C143.439 259.43 143.679 248.89 143.679 248.89L143.379 250.81C143.379 251.09 143.289 251.4 143.229 251.73L143.169 252.13C141.039 265.59 132.919 316.02 129.619 321.44C125.749 327.74 110.099 363.92 99.9994 382L88.8594 372.26C88.8594 372.26 106.959 314.51 110.089 304.78C113.219 295.05 115.889 222.78 124.989 214.39L171.049 213.75Z" fill="black"/>
<path opacity="0.2" d="M143.34 250.801C143.34 251.081 143.25 251.391 143.19 251.721L143.34 250.801Z" fill="black"/>
<path opacity="0.2" d="M145.53 236.793C145.53 236.793 145.27 256.793 143.27 270.263C143.4 259.423 143.64 248.883 143.64 248.883L145.53 236.793Z" fill="black"/>
<path d="M149.48 132.362C150.821 133.408 152.348 134.192 153.98 134.672C153.98 134.672 151.65 137.472 144.18 136.922C141.27 136.702 137.57 138.292 132.93 135.522C132.93 135.522 134.87 124.442 134.02 117.882C134.02 117.882 126.35 114.592 128.18 109.602C129.84 105.062 135.01 110.272 135.95 111.262C135.03 110.092 129.51 102.722 133.53 96.6917C134.817 94.7666 136.511 93.148 138.494 91.9504C140.476 90.7529 142.697 90.0057 145 89.7617L151.34 91.4617L153.89 97.4617C153.89 97.4617 157.3 102.082 157.54 111.332C157.78 120.582 152.43 123.862 148.54 124.962C148.54 124.962 148.43 125.962 148.43 127.312C148.38 129.122 148.55 131.512 149.48 132.362Z" fill="#CE7A63"/>
<path d="M151.49 112.06L150.49 104.59L154.7 110.47C154.302 110.94 153.811 111.323 153.259 111.596C152.707 111.87 152.105 112.028 151.49 112.06Z" fill="#BA4D3C"/>
<path d="M144.18 112.531C144.764 113.289 145.558 113.859 146.462 114.17C147.367 114.481 148.343 114.519 149.27 114.281" stroke="#454D66" stroke-linecap="round" stroke-linejoin="round"/>
<path d="M142.27 102.203C142.27 102.203 143.47 99.583 145.93 99.983" stroke="#454D66" stroke-linecap="round" stroke-linejoin="round"/>
<path d="M153.08 99.0002C153.812 98.9045 154.557 98.9843 155.253 99.2329C155.948 99.4815 156.574 99.8919 157.08 100.43" stroke="#454D66" stroke-linecap="round" stroke-linejoin="round"/>
<path d="M146.749 105.603C146.749 106.333 146.379 106.923 145.929 106.923C145.479 106.923 145.109 106.333 145.109 105.603C145.109 104.873 145.479 104.293 145.929 104.293C146.379 104.293 146.749 104.883 146.749 105.603Z" fill="#454D66"/>
<path d="M155.07 105.062C155.07 105.782 154.7 106.372 154.25 106.372C153.8 106.372 153.43 105.782 153.43 105.062C153.43 104.342 153.8 103.742 154.25 103.742C154.7 103.742 155.07 104.332 155.07 105.062Z" fill="#454D66"/>
<path d="M141.22 140.32L147.64 139.34L149.21 145.55L146.22 151.11H144.5L141.22 146.12V140.32Z" fill="#58B368"/>
<path d="M144.5 151.113L141.22 180.453L147.22 186.233L151.55 180.323L146.22 151.113H144.5Z" fill="#58B368"/>
<path opacity="0.3" d="M141.22 140.32L147.64 139.34L149.21 145.55L146.22 151.11H144.5L141.22 146.12V140.32Z" fill="black"/>
<path opacity="0.3" d="M144.5 151.113L141.22 180.453L147.22 186.233L151.55 180.323L146.22 151.113H144.5Z" fill="black"/>
<path d="M144.18 136.921L147.43 145.481C147.43 145.481 155.83 141.291 157.06 134.271L151.06 132.211C148.972 134.062 146.661 135.644 144.18 136.921Z" fill="white"/>
<path d="M133.5 131.652C133.5 131.652 139.31 134.712 144.18 136.922L142.27 145.482C142.27 145.482 132.65 139.722 129.42 135.222L133.5 131.652Z" fill="white"/>
<path opacity="0.2" d="M148.5 124.934C148.5 124.934 148.39 125.934 148.39 127.284C146.736 126.876 145.14 126.261 143.64 125.454C145.278 125.676 146.946 125.497 148.5 124.934Z" fill="black"/>
<path d="M136 111.261C137.087 106.925 136.7 102.351 134.9 98.2606C134.9 98.2606 146.31 101.531 146.34 91.1406C146.34 91.1406 131.12 93.5706 130.34 98.9806C129.56 104.391 134.7 109.791 136 111.261Z" fill="#454D66"/>
<path d="M146.17 92.672C146.17 92.672 150.53 98.862 154.27 97.582V88.582H141.27L134.4 92.682L139.16 97.582L142.7 94.672L146.17 92.672Z" fill="#454D66"/>
<path d="M159.77 400.383L150.01 399.883L149.77 392.483L149.59 387.083L157.49 386.293L159.05 386.363L159.39 393.043L159.77 400.383Z" fill="#CE7A63"/>
<path opacity="0.2" d="M159.39 393.043L149.77 392.483L149.59 387.083L157.49 386.293L159.05 386.363L159.39 393.043Z" fill="black"/>
<path d="M144.29 390.631L163.06 390.171L164.12 384.051H144.73L144.29 390.631Z" fill="#454D66"/>
<path d="M161.87 400.79C161.87 400.79 165.14 391.15 167.69 392.11C170.24 393.07 161.87 400.79 161.87 400.79Z" stroke="#58B368" stroke-miterlimit="10"/>
<path d="M162.43 400.793C162.43 400.793 167.37 396.093 169.36 397.923C171.35 399.753 162.43 400.793 162.43 400.793Z" stroke="#58B368" stroke-miterlimit="10"/>
<path opacity="0.2" d="M98.3098 379.882L95.5298 384.132L87.2598 379.552L89.5998 374.852L98.3098 379.882Z" fill="black"/>
<path d="M85.4199 376.042L99.7599 383.632L103.14 379.472L88.5299 371.262L85.4199 376.042Z" fill="#454D66"/>
<path d="M94.5498 392.423C94.5498 392.423 98.6098 387.343 100.26 388.543C101.91 389.743 94.5498 392.423 94.5498 392.423Z" stroke="#58B368" stroke-miterlimit="10"/>
<path d="M95.29 392.423C95.29 392.423 102.29 390.773 102.59 393.043C102.89 395.313 95.29 392.423 95.29 392.423Z" stroke="#58B368" stroke-miterlimit="10"/>
<path d="M93.7 387.001L86.17 382.771C85.6442 382.479 85.0246 382.407 84.4459 382.57C83.8672 382.733 83.3763 383.118 83.08 383.641L79.69 389.641C79.3951 390.167 79.3211 390.789 79.4842 391.37C79.6473 391.952 80.0342 392.444 80.56 392.741L101.93 404.741C102.457 405.035 103.079 405.11 103.66 404.946C104.241 404.783 104.734 404.396 105.03 403.871C105.293 403.4 105.381 402.852 105.279 402.323C105.176 401.794 104.89 401.319 104.47 400.981C101.71 398.771 96.05 393.691 94.8 388.431C94.7246 388.13 94.5881 387.847 94.3988 387.601C94.2096 387.355 93.9717 387.151 93.7 387.001Z" fill="#454D66"/>
<path d="M158.87 396.633H148.87C148.172 396.635 147.503 396.915 147.01 397.41C146.517 397.904 146.24 398.574 146.24 399.273V407.273C146.24 407.97 146.517 408.639 147.011 409.133C147.504 409.626 148.173 409.903 148.87 409.903H177.23C177.576 409.904 177.92 409.837 178.24 409.705C178.56 409.574 178.851 409.38 179.096 409.136C179.342 408.892 179.536 408.601 179.669 408.282C179.802 407.962 179.87 407.619 179.87 407.273C179.869 406.649 179.648 406.046 179.246 405.571C178.843 405.095 178.285 404.777 177.67 404.673C173.62 404.003 165.04 402.083 160.79 397.493C160.546 397.226 160.249 397.012 159.919 396.864C159.589 396.716 159.232 396.637 158.87 396.633Z" fill="#454D66"/>
<path d="M132.47 212.113L129.34 218.813L123.79 218.013C118.56 218.853 116.38 215.883 116.38 215.883L113.09 212.883L119.2 205.883L120.14 207.343C130.17 208.773 132.47 212.113 132.47 212.113Z" fill="#CE7A63"/>
<path d="M222.63 145.371L220.69 147.951L226.37 152.911L228.04 150.631L222.63 145.371Z" fill="white"/>
<path d="M112.84 213.161L119.39 205.501L117.18 202.691L110.34 210.921L112.84 213.161Z" fill="white"/>
<path d="M238.59 97.7533C237.914 99.7629 237.694 101.898 237.946 104.003C238.199 106.108 238.917 108.131 240.05 109.923C243.93 115.803 243.05 96.3633 243.05 96.3633L238.59 97.7533Z" fill="#454D66"/>
<path d="M246.54 141.841C246.54 141.841 222.54 175.441 217.85 174.031C213.16 172.621 202.35 151.661 202.35 151.661L201.72 143.371L194.64 133.621L185.64 140.721L190 148.831C190 148.831 191.3 153.041 195.14 154.221C195.14 154.221 203.97 181.331 215.14 186.421C226.31 191.511 241.81 159.211 241.81 159.211L246.54 141.841Z" fill="#FFB573"/>
<path d="M297.92 386.693L285.53 391.403C269.53 356.263 256.53 253.783 256.53 253.783C256.53 253.783 256.15 256.653 255.58 261.273C253.72 276.573 249.78 310.963 250.58 323.273C251.85 343.983 248.19 395.163 248.19 395.163L233.19 396.943C233.19 396.943 233.7 346.353 231.56 318.323C229.42 290.293 235.97 218.373 235.97 218.373L277.34 216.473C284.44 224.633 286.21 325.063 287.99 334.293C289.77 343.523 297.92 386.693 297.92 386.693Z" fill="#454D66"/>
<path d="M231.89 146.851C231.99 146.301 232.201 145.777 232.508 145.309C232.816 144.842 233.214 144.442 233.68 144.131C237.03 141.891 245.62 136.311 247.93 136.131C250.83 135.901 265.99 132.341 272 136.131C278.01 139.921 281.81 151.061 281.81 151.061C281.81 151.061 281.37 202.551 278.69 219.271L235.9 218.381C235.9 218.381 229.17 161.941 231.89 146.851Z" fill="#58B368"/>
<path d="M279.809 165.55L286.489 177.81C286.489 177.81 287.379 205.45 285.159 212.58L281.809 219.27V230L289.809 231.11L292.039 222.64C292.039 222.64 293.369 216.4 292.039 213.73C292.039 213.73 301.399 192.33 298.039 173.83C298.039 173.83 281.149 136.59 270.789 135.56C260.429 134.53 279.809 165.55 279.809 165.55Z" fill="#FFB573"/>
<path d="M266.17 135.611C266.17 135.611 259.56 141.991 253.53 141.811C247.5 141.631 249.15 136.491 249.15 136.491C252.25 135.911 253.26 132.811 253.55 130.151C253.693 128.822 253.693 127.481 253.55 126.151C253.55 126.151 246.36 126.151 242.32 117.371C238.28 108.591 242.32 97.0212 242.32 97.0212C242.32 97.0212 257.59 93.1612 264.43 95.0912C271.27 97.0212 265.84 114.211 265.84 114.211C264.06 123.861 266.17 135.611 266.17 135.611Z" fill="#FFB573"/>
<path d="M252.77 106.172C252.77 106.862 252.39 107.422 251.93 107.422C251.47 107.422 251.1 106.862 251.1 106.172C251.1 105.482 251.47 104.922 251.93 104.922C252.39 104.922 252.77 105.482 252.77 106.172Z" fill="#454D66"/>
<path d="M244.25 107C244.25 107.69 243.88 108.25 243.42 108.25C242.96 108.25 242.58 107.69 242.58 107C242.58 106.31 242.96 105.75 243.42 105.75C243.88 105.75 244.25 106.28 244.25 107Z" fill="#454D66"/>
<path d="M247.07 107.602V114.312C246.519 114.483 245.929 114.487 245.375 114.323C244.822 114.159 244.329 113.835 243.96 113.392L247.07 107.602Z" fill="#ED893E"/>
<path d="M249.92 115.481C249.92 115.481 253.48 115.481 254.78 112.551" stroke="#454D66" stroke-linecap="round" stroke-linejoin="round"/>
<path d="M251.1 101.35C251.1 101.35 254.2 101.1 255.1 103.03" stroke="#454D66" stroke-linecap="round" stroke-linejoin="round"/>
<path d="M240.51 103.71C240.754 103.1 241.149 102.563 241.658 102.148C242.167 101.734 242.774 101.456 243.42 101.34" stroke="#454D66" stroke-linecap="round" stroke-linejoin="round"/>
<path opacity="0.2" d="M259 125.082C257.59 127.159 255.73 128.892 253.56 130.152C253.702 128.823 253.702 127.482 253.56 126.152C255.426 126.155 257.274 125.792 259 125.082Z" fill="black"/>
<path d="M251.75 142.02L255.38 141.68L256.4 149.26L254.51 152.73H252.35L250.33 148.97L251.75 142.02Z" fill="#454D66"/>
<path d="M265.729 132.562C262.111 136.197 258.005 139.31 253.529 141.812L255.689 147.173C255.689 147.173 264.749 145.613 268.629 134.863L265.729 132.562Z" fill="white"/>
<path d="M253.53 141.811L251.1 147.171C251.1 147.171 247.42 143.541 246.54 136.531L251.1 133.621C251.1 133.621 251.27 138.871 253.53 141.811Z" fill="white"/>
<path d="M252.51 150.73L250.04 182.78L254.19 187.82L258.02 182.47L254.28 150.73H252.51Z" fill="#454D66"/>
<path d="M268.919 109.401C268.919 109.401 260.159 110.461 258.709 97.7714C258.709 97.7714 243.279 102.381 237.709 97.6514C232.139 92.9214 236.659 86.7714 236.659 86.7714C237.137 87.9681 237.709 89.125 238.369 90.2314V86.2314C239.306 87.4617 240.339 88.6153 241.459 89.6814C245.953 90.4047 250.558 89.5156 254.459 87.1714C261.149 83.1714 269.659 90.7614 268.089 96.6114C268.139 96.6414 275.679 102.521 268.919 109.401Z" fill="#454D66"/>
<path d="M262.91 109.761C262.91 109.761 265.27 101.391 269.15 104.341C273.03 107.291 267.5 115.531 264.8 115.061C262.1 114.591 262.91 109.761 262.91 109.761Z" fill="#FFB573"/>
<path d="M194.87 156.002L203.31 151.342C203.31 151.342 212.38 168.862 217.64 171.062C217.64 171.062 228.33 160.272 231.85 146.762L236.64 169.282C236.64 169.282 228.35 186.792 217.87 187.042C207.39 187.292 198.8 167.352 194.87 156.002Z" fill="#58B368"/>
<path d="M273.81 158.58L286.53 179L284.41 210.63L293.98 212.5C293.98 212.5 301.35 190.5 298.08 173.85C295.71 161.76 288.22 146.43 279.53 139.1C276.441 136.568 272.619 135.099 268.63 134.91C268.63 134.91 266.28 140.33 266.4 144.91C266.52 149.49 273.81 158.58 273.81 158.58Z" fill="#58B368"/>
<path opacity="0.2" d="M281.47 170.862L273.81 158.582C274.47 159.642 281.47 180.862 281.47 180.862V170.862Z" fill="black"/>
<path opacity="0.2" d="M256.53 253.783C256.53 253.783 256.15 256.653 255.58 261.273L253.58 236.953L256.53 253.783Z" fill="black"/>
<path d="M292.77 401.841L300.53 398.231L298.3 392.141L296.67 387.691L289.99 389.641L288.75 390.201L290.66 395.751L292.77 401.841Z" fill="#FFB573"/>
<path opacity="0.2" d="M290.66 395.751L298.3 392.141L296.67 387.691L289.99 389.641L288.75 390.201L290.66 395.751Z" fill="black"/>
<path d="M291.189 402.863C291.189 402.863 285.369 396.103 283.609 397.713C281.849 399.323 291.189 402.863 291.189 402.863Z" stroke="#58B368" stroke-miterlimit="10"/>
<path d="M290.74 403C290.74 403 285.18 400.8 284.16 402.94C283.14 405.08 290.74 403 290.74 403Z" stroke="#58B368" stroke-miterlimit="10"/>
<path d="M292.27 398.501L300.38 395.221C300.946 394.994 301.58 394.999 302.142 395.237C302.704 395.475 303.149 395.926 303.38 396.491L306 403.001C306.114 403.282 306.171 403.582 306.169 403.884C306.167 404.187 306.105 404.486 305.987 404.765C305.87 405.044 305.698 405.296 305.482 405.508C305.266 405.721 305.01 405.888 304.73 406.001L281.68 415.311C281.399 415.427 281.098 415.485 280.795 415.483C280.491 415.48 280.191 415.418 279.912 415.299C279.633 415.18 279.38 415.006 279.169 414.789C278.957 414.571 278.791 414.314 278.68 414.031C278.474 413.526 278.454 412.964 278.625 412.445C278.795 411.927 279.144 411.486 279.61 411.201C282.67 409.331 289.03 404.951 290.97 399.831C291.08 399.53 291.252 399.256 291.477 399.026C291.701 398.797 291.971 398.618 292.27 398.501Z" fill="#454D66"/>
<path d="M236.069 409.493L244.619 409.283L244.999 402.803L245.279 398.073L238.379 397.203L237.019 397.223L236.559 403.073L236.069 409.493Z" fill="#FFB573"/>
<path opacity="0.2" d="M236.56 403.073L245 402.803L245.28 398.073L238.38 397.203L237.02 397.223L236.56 403.073Z" fill="black"/>
<path d="M234.209 409.802C234.209 409.802 231.569 401.282 229.319 402.062C227.069 402.842 234.209 409.802 234.209 409.802Z" stroke="#58B368" stroke-miterlimit="10"/>
<path d="M233.72 409.79C233.72 409.79 229.5 405.55 227.72 407.11C225.94 408.67 233.72 409.79 233.72 409.79Z" stroke="#58B368" stroke-miterlimit="10"/>
<path d="M236.939 406.231L245.689 406.461C245.993 406.469 246.291 406.536 246.569 406.66C246.846 406.783 247.096 406.96 247.305 407.18C247.514 407.4 247.678 407.659 247.787 407.942C247.895 408.226 247.947 408.528 247.939 408.831L247.749 415.831C247.741 416.134 247.674 416.432 247.55 416.709C247.427 416.986 247.25 417.235 247.03 417.444C246.81 417.652 246.55 417.814 246.267 417.922C245.984 418.03 245.682 418.08 245.379 418.071L220.529 417.421C220.226 417.413 219.928 417.346 219.651 417.222C219.374 417.099 219.125 416.922 218.917 416.702C218.708 416.481 218.546 416.222 218.438 415.939C218.33 415.656 218.28 415.354 218.289 415.051C218.306 414.504 218.516 413.981 218.882 413.574C219.248 413.167 219.747 412.904 220.289 412.831C223.849 412.331 231.419 410.831 235.239 406.921C235.461 406.696 235.726 406.519 236.018 406.401C236.31 406.282 236.624 406.224 236.939 406.231Z" fill="#454D66"/>
<path d="M285.26 394.88L280.97 387.41L299.64 380.5L300.95 390.4L285.26 394.88Z" fill="#58B368"/>
<path d="M231.109 390.34V400H250.699L251.449 390.34H231.109Z" fill="#58B368"/>
<path d="M335.68 154.22C335.68 154.22 330 176.62 324 183.56C324 183.56 313.11 172.68 309.8 163.21C309.8 163.21 309.49 158.79 306.33 156.9L301.6 150.43L293.71 153.27L295.6 159.58L303.81 164.16C303.81 164.16 314.22 192.87 323.68 192.71C333.14 192.55 337.41 179.93 337.41 179.93L342.61 152.93L335.68 154.22Z" fill="#FF8B7B"/>
<path d="M304 166.851L309.84 163.211C309.84 163.211 319.78 179.451 324.43 182.711C324.43 182.711 330.22 172.151 332.2 163.461C333.239 158.732 334.517 154.06 336.03 149.461L342.65 159.051C342.65 159.051 338.3 189.591 329.3 192.691C320.3 195.791 315.21 187.001 313.16 183.541C311.11 180.081 304 166.851 304 166.851Z" fill="#454D66"/>
<path d="M354.05 386.692C354.05 387.062 360.05 395.542 360.05 395.542L366.33 387.422L359.56 377.832L354.05 386.692Z" fill="#FF8B7B"/>
<path d="M357.22 392.302L363.72 385.252C364.177 384.76 364.81 384.47 365.481 384.443C366.151 384.417 366.805 384.658 367.299 385.112L372.94 390.332C373.184 390.557 373.381 390.828 373.521 391.129C373.66 391.43 373.738 391.756 373.751 392.088C373.765 392.42 373.712 392.751 373.597 393.062C373.481 393.373 373.305 393.659 373.079 393.902L354.6 413.902C354.143 414.391 353.512 414.68 352.843 414.706C352.175 414.732 351.523 414.494 351.03 414.042C350.588 413.636 350.306 413.086 350.233 412.49C350.16 411.895 350.3 411.293 350.63 410.792C352.79 407.502 357.03 400.202 356.56 394.212C356.531 393.865 356.575 393.517 356.689 393.188C356.802 392.859 356.983 392.557 357.22 392.302Z" fill="#454D66"/>
<path d="M340.58 382.75L358.82 366.75L365.53 380.68L353.06 391.52L340.58 382.75Z" fill="#58B368"/>
<path d="M333.91 201.453C333.91 201.453 314.24 287.323 313.91 307.923C313.58 328.523 331.55 364.253 342.91 380.983L358.21 368.813L336.04 314.813L346.33 247.573L358.21 383.813L372.89 385.693C372.89 385.693 374.76 334.173 372.89 315.443C371.02 296.713 381.42 233.013 373.72 208.653L333.91 201.453Z" fill="#454D66"/>
<path d="M373.77 208.633C373.77 208.633 377.12 176.693 383.55 164.183L386.05 149.713C386.05 149.713 381.4 143.993 370.86 144.173C360.32 144.353 355.68 143.173 355.68 143.173C355.68 143.173 341.91 142.243 338.68 145.283C335.45 148.323 335.29 162.083 334.75 168.693C334.21 175.303 332.95 205.693 332.95 205.693L373.77 208.633Z" fill="#58B368"/>
<path d="M372.84 143.113C372.84 143.113 357 161.663 360 208.633L378.52 211.813L376 192.333L387.87 156.723C387.87 156.723 390.36 145.633 372.84 143.113Z" fill="#454D66"/>
<path d="M354.78 143.111C354.78 143.111 337.72 155.571 336.41 203.381L327.48 203.631L334.79 165.391C333.507 161.94 333.339 158.173 334.31 154.621C335.31 151.181 336.39 147.141 338.69 145.241C342.35 142.211 348.18 142.471 354.78 143.111Z" fill="#454D66"/>
<path d="M375.68 154.33C375.68 154.33 386.3 180.11 383.68 190.54C383.68 190.54 365.36 185.83 356.91 177.64C356.91 177.64 354.26 173.17 349.91 172.84L341.55 168.55L334.77 175.67L340.07 181.29L351.07 181.78C351.07 181.78 377.07 206.43 386.93 201.29C391.54 198.88 393.52 194.2 394.32 189.9C395.065 185.68 394.833 181.346 393.64 177.23L386.59 152L375.68 154.33Z" fill="#FF8B7B"/>
<path d="M350.4 184.241L357.64 175.821C357.64 175.821 373.72 188.221 383.64 190.541C382.775 182.07 381.44 173.654 379.64 165.331L374.64 156.721L375.1 153.101L387.22 151.531C387.22 151.531 398.22 182.281 395.3 193.361C392.38 204.441 386.11 205.541 375.55 201.451C364.99 197.361 350.4 184.241 350.4 184.241Z" fill="#454D66"/>
<path d="M373.09 407.963H363.02L362.44 399.583L362.15 395.393L361.98 392.973L373.08 393.903V399.583L373.09 407.963Z" fill="#FF8B7B"/>
<path d="M362.59 404.211H372.18C372.851 404.211 373.495 404.477 373.969 404.952C374.444 405.426 374.71 406.07 374.71 406.741V414.431C374.708 415.1 374.44 415.741 373.966 416.213C373.491 416.686 372.849 416.951 372.18 416.951H344.94C344.608 416.952 344.28 416.888 343.973 416.762C343.666 416.636 343.387 416.451 343.152 416.216C342.917 415.982 342.73 415.704 342.603 415.398C342.476 415.091 342.41 414.763 342.41 414.431C342.409 413.832 342.62 413.252 343.007 412.794C343.393 412.336 343.929 412.03 344.52 411.931C348.41 411.291 356.65 409.451 360.73 405.031C360.967 404.773 361.254 404.567 361.574 404.426C361.894 404.285 362.24 404.212 362.59 404.211Z" fill="#454D66"/>
<path opacity="0.1" d="M372.839 143.113C371.014 145.526 369.471 148.14 368.239 150.903C364.654 158.816 362.252 167.212 361.109 175.823L372.839 166.323L370.289 158.153L384.559 147.793C384.559 147.793 380.829 144.003 372.839 143.113Z" fill="white"/>
<path opacity="0.1" d="M340.94 169.363C340.94 169.363 346.59 149.213 354.78 143.113C354.78 143.113 345.07 141.763 340.6 144.033L341.6 158.153L337.43 159.463L340.94 169.363Z" fill="white"/>
<path d="M384.76 109.753C386.68 114.563 384.62 119.973 384.81 125.143C384.89 127.503 385.45 129.823 385.51 132.143C385.57 134.463 385.03 137.023 383.3 138.633C381.74 140.103 379.51 140.543 377.41 140.933C374.13 141.523 370.57 142.083 367.63 140.523C366.95 140.163 366.33 139.703 365.63 139.403C364.178 138.907 362.626 138.773 361.11 139.013C359.598 139.257 358.052 139.182 356.57 138.793C351.89 137.163 355.11 130.723 355.91 127.423C357.144 122.37 358.37 117.32 359.59 112.273C364.64 111.273 369.65 109.873 374.71 108.853C376.363 108.382 378.103 108.306 379.79 108.633C381.37 109.113 383.18 110.263 384.76 109.753Z" fill="#454D66"/>
<path d="M384.89 119.692C384.498 121.005 383.655 122.138 382.51 122.891C381.34 123.511 381.16 124.611 381.26 125.891C381.47 128.891 383.1 133.131 377.49 135.531C376.666 135.944 375.741 136.109 374.826 136.008C373.91 135.907 373.044 135.544 372.33 134.962C368.39 131.852 367.14 123.131 367.14 123.131L360 102.542C360.023 102.497 360.054 102.456 360.09 102.421L360.15 102.311C360.174 102.271 360.205 102.233 360.24 102.201C360.493 101.849 360.771 101.515 361.07 101.201C361.293 100.942 361.53 100.695 361.78 100.461C364.39 98.0415 369.78 94.9515 377.51 100.112C386 105.792 386.73 114.782 384.89 119.692Z" fill="#454D66"/>
<path d="M385.3 121.433C385.39 123.823 383.19 125.193 381.3 125.943C380.377 126.291 379.422 126.548 378.45 126.713C376.69 129.643 372.88 131.713 372.88 131.713C372.596 132.799 372.425 133.911 372.37 135.033C372.268 137.746 372.439 140.463 372.88 143.143L370.3 147.143C359.55 152.063 355.72 143.143 355.72 143.143C359.66 142.723 360.92 139.413 361.29 136.633C361.442 135.357 361.442 134.068 361.29 132.793C359.543 132.057 357.997 130.916 356.78 129.464C355.563 128.012 354.709 126.291 354.29 124.443C353.02 119.063 354.06 114.003 356.29 109.033C357.186 107.05 358.261 105.152 359.5 103.363L360 102.553C360.023 102.508 360.054 102.468 360.09 102.433C360.133 102.355 360.183 102.281 360.24 102.213V102.143C360.42 101.913 360.68 101.583 361.02 101.223H361.08L374.57 99.4727L380.43 104.153L382.48 115.753L379.48 119.323L378.23 120.813L377.92 121.173L378.31 120.843C380.69 118.843 383.73 117.843 384.84 119.733C385.127 120.254 385.285 120.837 385.3 121.433Z" fill="#FF8B7B"/>
<path d="M367.079 112.77C366.909 113.48 366.389 113.97 365.929 113.86C365.469 113.75 365.219 113.08 365.389 112.36C365.559 111.64 366.079 111.16 366.549 111.27C367.019 111.38 367.259 112.05 367.079 112.77Z" fill="#454D66"/>
<path d="M359.4 110.703C359.23 111.423 358.71 111.913 358.24 111.803C357.77 111.693 357.53 111.013 357.7 110.303C357.87 109.593 358.39 109.093 358.86 109.203C359.33 109.313 359.57 110.003 359.4 110.703Z" fill="#454D66"/>
<path d="M366.67 111.32L364.82 110.32C364.82 110.32 365.14 112.21 366.67 111.32Z" fill="#454D66"/>
<path d="M359 109.312L357.15 108.312C357.15 108.312 357.5 110.212 359 109.312Z" fill="#454D66"/>
<path d="M361.28 111.551L359.52 117.881C359.282 117.955 359.032 117.981 358.784 117.957C358.536 117.933 358.296 117.858 358.077 117.739C357.859 117.619 357.667 117.457 357.512 117.261C357.358 117.066 357.245 116.841 357.18 116.601L361.28 111.551Z" fill="#FF5652"/>
<path d="M361.66 122.281C361.66 122.281 366.03 122.931 367.28 119.281" stroke="#454D66" stroke-linecap="round" stroke-linejoin="round"/>
<path d="M367.14 107.812C367.51 107.618 367.915 107.501 368.332 107.47C368.748 107.438 369.167 107.492 369.562 107.628C369.957 107.763 370.32 107.978 370.629 108.259C370.938 108.54 371.187 108.881 371.36 109.262" stroke="#454D66" stroke-linecap="round" stroke-linejoin="round"/>
<path d="M361.05 105.193C360.72 104.973 360.347 104.825 359.956 104.76C359.565 104.695 359.164 104.715 358.781 104.817C358.397 104.919 358.04 105.102 357.733 105.353C357.426 105.604 357.176 105.918 357 106.273" stroke="#454D66" stroke-linecap="round" stroke-linejoin="round"/>
<path d="M383.54 115.91L378.36 120.8H378.28C369.62 118 371.36 102 371.36 102C368.91 103.56 360.23 102.7 360 102.52C360.469 101.827 361.009 101.183 361.61 100.6C361.99 100.23 363.2 100.34 363.7 100.3L366.89 100.05L373.35 99.5304C373.54 99.5304 374.44 99.3004 374.6 99.4304L380.46 104.11L383.54 115.91Z" fill="#454D66"/>
<path opacity="0.2" d="M365.7 133.471C364.57 134.948 363.018 136.047 361.25 136.621C361.402 135.346 361.402 134.057 361.25 132.781C362.689 133.238 364.19 133.47 365.7 133.471Z" fill="black"/>
<path opacity="0.3" d="M344.17 261.98L345.28 233.43L346.38 247.55L344.17 261.98Z" fill="black"/>
<path opacity="0.1" d="M373.08 394.871V399.581H362.44L362.15 395.391L373.08 394.871Z" fill="black"/>
<path d="M356.07 383.44L358.65 397.89H374.47L376.65 382.75L356.07 383.44Z" fill="#58B368"/>
</svg>
