<svg width="500" height="500" viewBox="0 0 500 500" fill="none" xmlns="http://www.w3.org/2000/svg">
<path d="M500 382.398H0V382.648H500V382.398Z" fill="#EBEBEB"/>
<path d="M435.67 398.488H416.78V398.738H435.67V398.488Z" fill="#EBEBEB"/>
<path d="M322.52 396.75H293.05V397H322.52V396.75Z" fill="#EBEBEB"/>
<path d="M415.78 389.211H368.67V389.461H415.78V389.211Z" fill="#EBEBEB"/>
<path d="M63.43 390.891H52.46V391.141H63.43V390.891Z" fill="#EBEBEB"/>
<path d="M110.89 390.891H72.3301V391.141H110.89V390.891Z" fill="#EBEBEB"/>
<path d="M225.15 395.109H171V395.359H225.15V395.109Z" fill="#EBEBEB"/>
<path d="M237 337.8H43.92C42.4056 337.8 40.9532 337.198 39.8824 336.128C38.8115 335.057 38.21 333.604 38.21 332.09V60.66C38.2231 59.1543 38.8305 57.7147 39.9 56.6547C40.9694 55.5947 42.4142 54.9999 43.92 55H237C238.514 55 239.967 55.6016 241.038 56.6724C242.108 57.7433 242.71 59.1956 242.71 60.71V332.09C242.71 333.604 242.108 335.057 241.038 336.128C239.967 337.198 238.514 337.8 237 337.8ZM43.92 55.2C42.4727 55.2026 41.0855 55.7787 40.0621 56.8021C39.0387 57.8255 38.4626 59.2127 38.46 60.66V332.09C38.4626 333.537 39.0387 334.924 40.0621 335.948C41.0855 336.971 42.4727 337.547 43.92 337.55H237C238.447 337.547 239.834 336.971 240.858 335.948C241.881 334.924 242.457 333.537 242.46 332.09V60.66C242.457 59.2127 241.881 57.8255 240.858 56.8021C239.834 55.7787 238.447 55.2026 237 55.2H43.92Z" fill="#EBEBEB"/>
<path d="M453.31 337.8H260.21C258.696 337.797 257.246 337.195 256.175 336.125C255.105 335.054 254.503 333.604 254.5 332.09V60.66C254.516 59.1551 255.124 57.7171 256.193 56.6576C257.262 55.5981 258.705 55.0025 260.21 55H453.31C454.812 55.0052 456.252 55.6022 457.317 56.6617C458.382 57.7212 458.987 59.1578 459 60.66V332.09C459 333.601 458.401 335.05 457.335 336.121C456.268 337.191 454.821 337.795 453.31 337.8ZM260.21 55.2C258.763 55.2026 257.375 55.7787 256.352 56.8021C255.329 57.8255 254.753 59.2127 254.75 60.66V332.09C254.753 333.537 255.329 334.924 256.352 335.948C257.375 336.971 258.763 337.547 260.21 337.55H453.31C454.757 337.547 456.145 336.971 457.168 335.948C458.191 334.924 458.767 333.537 458.77 332.09V60.66C458.767 59.2127 458.191 57.8255 457.168 56.8021C456.145 55.7787 454.757 55.2026 453.31 55.2H260.21Z" fill="#EBEBEB"/>
<path d="M435.67 398.488H416.78V398.738H435.67V398.488Z" fill="#EBEBEB"/>
<path d="M322.52 396.75H293.05V397H322.52V396.75Z" fill="#EBEBEB"/>
<path d="M415.78 389.211H368.67V389.461H415.78V389.211Z" fill="#EBEBEB"/>
<path d="M63.43 390.891H52.46V391.141H63.43V390.891Z" fill="#EBEBEB"/>
<path d="M110.89 390.891H72.3301V391.141H110.89V390.891Z" fill="#EBEBEB"/>
<path d="M225.15 395.109H171V395.359H225.15V395.109Z" fill="#EBEBEB"/>
<path d="M196.941 85.6211H137.561V220.661H196.941V85.6211Z" fill="#E6E6E6"/>
<path d="M200.569 85.6211H141.189V220.661H200.569V85.6211Z" fill="#F5F5F5"/>
<path d="M194.06 214.579V91.6992H147.7V214.579H194.06Z" fill="white"/>
<path d="M194.05 214.579V91.6992H191.31V214.579H194.05Z" fill="#E6E6E6"/>
<path d="M197.87 178.09H143.88V186.25H197.87V178.09Z" fill="#F5F5F5"/>
<path d="M197.87 102.422H143.88V110.582H197.87V102.422Z" fill="#F5F5F5"/>
<path d="M277 85.6211H217.62V220.661H277V85.6211Z" fill="#E6E6E6"/>
<path d="M280.62 85.6211H221.24V220.661H280.62V85.6211Z" fill="#F5F5F5"/>
<path d="M274.11 214.579V91.6992H227.75V214.579H274.11Z" fill="white"/>
<path d="M274.11 214.579V91.6992H271.37V214.579H274.11Z" fill="#E6E6E6"/>
<path d="M277.93 178.09H223.94V186.25H277.93V178.09Z" fill="#F5F5F5"/>
<path d="M277.929 102.422H223.939V110.582H277.929V102.422Z" fill="#F5F5F5"/>
<path d="M116.88 85.6211H57.5V220.661H116.88V85.6211Z" fill="#E6E6E6"/>
<path d="M120.51 85.6211H61.1299V220.661H120.51V85.6211Z" fill="#F5F5F5"/>
<path d="M114 214.579L114 91.6992H67.64V214.579H114Z" fill="white"/>
<path d="M113.99 214.571L113.99 91.6914H111.25L111.25 214.571H113.99Z" fill="#E6E6E6"/>
<path d="M117.81 178.09H63.8203V186.25H117.81V178.09Z" fill="#F5F5F5"/>
<path d="M117.81 102.422H63.8203V110.582H117.81V102.422Z" fill="#F5F5F5"/>
<path d="M329.22 247.512H319.51V382.402H329.22V247.512Z" fill="#E6E6E6"/>
<path d="M331.82 247.512H326.1V382.402H331.82V247.512Z" fill="#F0F0F0"/>
<path d="M195.71 257.621H333.59V247.501L195.71 247.501V257.621Z" fill="#F0F0F0"/>
<path d="M65.1104 247.512H55.4004V382.402H65.1104V247.512Z" fill="#E6E6E6"/>
<path d="M66.93 247.512H61.21V382.402H66.93V247.512Z" fill="#F0F0F0"/>
<path d="M53.6698 257.621H191.55V247.501L53.6698 247.501V257.621Z" fill="#E6E6E6"/>
<path d="M194.88 247.512H185.17V382.402H194.88V247.512Z" fill="#E6E6E6"/>
<path d="M197.48 247.512H191.76V382.402H197.48V247.512Z" fill="#F0F0F0"/>
<path d="M170.17 202.641H242.17L247.82 245.151H175.83L170.17 202.641Z" fill="#E6E6E6"/>
<path d="M175.83 245.148L176.12 247.498H248.12L247.83 245.148H175.83Z" fill="#E6E6E6"/>
<path d="M172.39 202.641H244.38L250.04 245.151H178.04L172.39 202.641Z" fill="#F0F0F0"/>
<path d="M179.78 243.208L174.65 204.578H242.64L247.78 243.208H179.78Z" fill="white"/>
<path d="M196.8 245.148L197.09 247.498H276.38L276.08 245.148H196.8Z" fill="#F0F0F0"/>
<path d="M326.9 211.001H291.26C285.193 210.946 279.317 213.117 274.743 217.103C270.169 221.089 267.215 226.614 266.44 232.631L261.23 272.001L241.87 271.931H241.81C237.493 271.829 233.302 273.387 230.1 276.284C226.898 279.181 224.929 283.196 224.6 287.501L223.46 301.001C221.583 301.266 219.844 302.141 218.513 303.491C217.181 304.84 216.33 306.59 216.09 308.471H311.7C317.761 308.526 323.633 306.357 328.203 302.374C332.773 298.392 335.725 292.873 336.5 286.861L344 230.361C344.285 227.94 344.057 225.486 343.33 223.159C342.602 220.832 341.392 218.685 339.778 216.858C338.164 215.031 336.183 213.565 333.964 212.556C331.745 211.546 329.338 211.017 326.9 211.001ZM242.9 300.861H228.6L229.68 288.441C229.915 285.258 231.364 282.288 233.728 280.143C236.092 277.999 239.189 276.846 242.38 276.921H242.43L260.59 276.981L259.32 286.551C258.806 290.537 256.847 294.195 253.815 296.833C250.783 299.471 246.888 300.904 242.87 300.861H242.9Z" fill="#E0E0E0"/>
<path d="M238.17 308.43H233.21L221.59 382.4H226.55L238.17 308.43Z" fill="#F0F0F0"/>
<path d="M256.79 308.43H251.83L240.2 382.4H245.16L256.79 308.43Z" fill="#F0F0F0"/>
<path d="M300.47 308.43H305.43L317.06 382.4H312.1L300.47 308.43Z" fill="#F0F0F0"/>
<path d="M281.86 308.43H286.82L298.44 382.4H293.48L281.86 308.43Z" fill="#F0F0F0"/>
<path d="M439.61 87.9883H342.92V289.998H439.61V87.9883Z" fill="#E6E6E6"/>
<path d="M446.33 87.9883H344.71V289.998H446.33V87.9883Z" fill="#F0F0F0"/>
<path d="M437.811 281.492V96.5117H353.211V281.492H437.811Z" fill="#FAFAFA"/>
<path d="M383.21 281.49L393.69 96.5H407.83L397.35 281.49H383.21Z" fill="white"/>
<path d="M400.02 281.49L410.5 96.5H424.64L414.16 281.49H400.02Z" fill="white"/>
<path d="M250 427.562C357.083 427.562 443.89 422.494 443.89 416.242C443.89 409.99 357.083 404.922 250 404.922C142.918 404.922 56.1104 409.99 56.1104 416.242C56.1104 422.494 142.918 427.562 250 427.562Z" fill="#F5F5F5"/>
<path d="M240.81 121.601L225.3 348.091H414.42L431.55 97.8711H266.17L240.81 121.601Z" fill="#58B368"/>
<path opacity="0.8" d="M240.81 121.601L225.3 348.091H414.42L431.55 97.8711H266.17L240.81 121.601Z" fill="white"/>
<path d="M398.944 174.339C411.684 162.027 412.691 142.4 401.193 130.502C389.695 118.603 370.045 118.938 357.305 131.25C344.565 143.562 343.558 163.189 355.056 175.087C366.554 186.986 386.203 186.65 398.944 174.339Z" fill="#58B368"/>
<path d="M397.845 173.202C409.915 161.538 410.869 142.946 399.977 131.675C389.085 120.404 370.471 120.722 358.402 132.386C346.333 144.049 345.378 162.641 356.27 173.912C367.162 185.183 385.776 184.865 397.845 173.202Z" fill="white"/>
<path d="M370.409 163.001L364.629 162.621C364.629 162.621 361.939 176.461 360.219 177.621C357.869 179.251 353.219 183.191 350.129 184.621C349.811 185.557 349.745 186.561 349.939 187.531C354.739 187.531 363.619 182.751 365.149 180.671C368.659 176.001 370.409 163.001 370.409 163.001Z" fill="#FFC3BD"/>
<path d="M373.17 154.321C374.92 157.581 369.47 169.321 369.47 169.321L362.05 167.001C362.263 163.392 363.099 159.846 364.52 156.521C366.36 152.691 371.25 150.741 373.17 154.321Z" fill="#454D66"/>
<path opacity="0.2" d="M367.499 160.32C368.499 162.68 367.189 168.38 366.159 171.99C363.649 167.69 363.299 163.69 367.499 160.32Z" fill="black"/>
<path d="M367.47 154.899C366.33 159.069 364.09 170.019 365.92 187.209H385.45C385.9 183.939 385.33 167.969 389.92 152.559C387.593 152.098 385.237 151.798 382.87 151.659C379.852 151.484 376.827 151.484 373.81 151.659C372.521 151.778 371.246 152.013 370 152.359C369.394 152.526 368.842 152.848 368.398 153.293C367.954 153.739 367.634 154.292 367.47 154.899Z" fill="#454D66"/>
<path opacity="0.2" d="M384.939 156.361C384.349 158.901 384.579 164.971 386.349 171.991C386.874 165.945 387.921 159.956 389.479 154.091C388.089 153.921 385.499 154.001 384.939 156.361Z" fill="black"/>
<path d="M382.47 143.18C381.63 146.1 381.01 149.71 382.87 151.66C382.87 151.66 381.42 154.66 376.01 154.66C371.06 154.66 373.81 151.66 373.81 151.66C377.13 150.88 377.34 146.86 376.98 144.6L382.47 143.18Z" fill="#FFC3BD"/>
<path d="M375.999 154.612C376.504 155.459 376.773 156.426 376.779 157.412C376.779 157.412 383.779 155.022 383.779 151.512C383.779 151.512 382.869 150.942 382.299 150.512C382.319 150.482 381.849 153.212 375.999 154.612Z" fill="white"/>
<path d="M375.81 154.612C375.18 155.373 374.71 156.254 374.43 157.202C373.605 156.571 373.003 155.694 372.71 154.698C372.417 153.702 372.448 152.638 372.8 151.662C373.381 151.429 373.979 151.242 374.59 151.102C374.59 151.102 373.74 153.862 375.81 154.612Z" fill="white"/>
<path opacity="0.2" d="M376.999 144.6C377.287 146.206 377.125 147.86 376.529 149.38C377.045 149.306 377.547 149.158 378.019 148.94C379.939 148.07 380.969 146.71 382.099 144.7C382.209 144.18 382.349 143.7 382.489 143.18L376.999 144.6Z" fill="black"/>
<path d="M372.249 141.9C372.398 142.343 372.637 142.75 372.952 143.094C373.268 143.439 373.651 143.713 374.079 143.9C375.249 144.4 376.079 143.33 376.009 142.1C375.939 140.87 375.199 139.39 373.909 139.41C373.619 139.424 373.335 139.506 373.082 139.65C372.829 139.793 372.613 139.994 372.451 140.236C372.29 140.479 372.187 140.755 372.152 141.044C372.117 141.333 372.15 141.627 372.249 141.9Z" fill="#FFC3BD"/>
<path opacity="0.2" d="M372.249 141.9C372.398 142.343 372.637 142.75 372.952 143.094C373.268 143.439 373.651 143.713 374.079 143.9C375.249 144.4 376.079 143.33 376.009 142.1C375.939 140.87 375.199 139.39 373.909 139.41C373.619 139.424 373.335 139.506 373.082 139.65C372.829 139.793 372.613 139.994 372.451 140.236C372.29 140.479 372.187 140.755 372.152 141.044C372.117 141.333 372.15 141.627 372.249 141.9Z" fill="black"/>
<path d="M377.48 133.732C377.1 131.422 373.69 135.482 374.42 137.622C375.15 139.762 377.9 136.332 377.48 133.732Z" fill="#454D66"/>
<path d="M384.78 139.592C383.53 143.462 382.99 145.772 380.54 147.432C379.799 147.999 378.91 148.341 377.98 148.418C377.05 148.494 376.118 148.302 375.294 147.864C374.47 147.425 373.789 146.76 373.333 145.946C372.877 145.132 372.664 144.204 372.72 143.272C372.82 139.612 374.85 133.902 378.99 133.002C383.13 132.102 386 135.722 384.78 139.592Z" fill="#FFC3BD"/>
<path d="M383.64 137.301C379.42 136.701 373.36 135.921 375.56 132.471C377.65 129.181 385.99 129.781 383.46 131.241C386.73 131.431 390.89 133.001 387.75 134.081C390.28 135.881 389.28 140.701 384.45 142.381C383.06 140.361 382 139.471 383.64 137.301Z" fill="#454D66"/>
<path d="M385.38 144.201C384.667 144.932 383.709 145.374 382.69 145.441C381.37 145.511 381.12 144.251 381.83 143.161C382.54 142.071 383.92 140.961 385.08 141.411C386.24 141.861 386.27 143.281 385.38 144.201Z" fill="#FFC3BD"/>
<path d="M378.709 139.672C378.629 139.992 378.399 140.212 378.189 140.182C377.979 140.152 377.889 139.862 377.979 139.542C378.069 139.222 378.289 138.992 378.489 139.032C378.689 139.072 378.799 139.352 378.709 139.672Z" fill="#454D66"/>
<path d="M375.199 139.049C375.119 139.369 374.889 139.599 374.689 139.559C374.489 139.519 374.389 139.239 374.469 138.919C374.549 138.599 374.779 138.379 374.989 138.409C375.199 138.439 375.289 138.729 375.199 139.049Z" fill="#454D66"/>
<path d="M376.279 139.41C375.651 140.318 374.912 141.145 374.079 141.87C374.257 142.063 374.476 142.212 374.721 142.305C374.965 142.399 375.228 142.435 375.489 142.41L376.279 139.41Z" fill="#ED847E"/>
<path d="M376.169 143.449C376.157 143.447 376.146 143.442 376.136 143.435C376.126 143.428 376.117 143.42 376.111 143.409C376.104 143.399 376.1 143.388 376.098 143.375C376.096 143.363 376.096 143.351 376.099 143.339C376.108 143.315 376.124 143.294 376.146 143.279C376.168 143.265 376.193 143.258 376.219 143.259C376.619 143.33 377.03 143.31 377.421 143.201C377.812 143.092 378.174 142.896 378.479 142.629C378.488 142.621 378.498 142.614 378.509 142.609C378.52 142.604 378.532 142.602 378.544 142.602C378.556 142.602 378.569 142.604 378.58 142.609C378.591 142.614 378.601 142.621 378.609 142.629C378.628 142.648 378.638 142.673 378.638 142.699C378.638 142.725 378.628 142.751 378.609 142.769C378.281 143.061 377.891 143.274 377.468 143.392C377.045 143.51 376.601 143.529 376.169 143.449Z" fill="#454D66"/>
<path d="M380.069 138.691C380.042 138.687 380.016 138.676 379.995 138.658C379.974 138.64 379.958 138.617 379.949 138.591C379.866 138.379 379.731 138.192 379.556 138.047C379.381 137.902 379.172 137.803 378.949 137.761C378.925 137.76 378.902 137.754 378.88 137.743C378.859 137.732 378.84 137.716 378.826 137.697C378.812 137.678 378.802 137.656 378.797 137.632C378.792 137.609 378.793 137.584 378.799 137.561C378.809 137.511 378.836 137.466 378.877 137.434C378.917 137.403 378.968 137.388 379.019 137.391C379.302 137.433 379.569 137.546 379.795 137.722C380.021 137.897 380.198 138.127 380.309 138.391C380.326 138.439 380.324 138.491 380.303 138.538C380.283 138.584 380.246 138.621 380.199 138.641C380.182 138.658 380.162 138.671 380.139 138.68C380.117 138.689 380.093 138.692 380.069 138.691Z" fill="#454D66"/>
<path d="M374 137.502C373.977 137.511 373.952 137.511 373.93 137.502C373.912 137.486 373.898 137.465 373.888 137.443C373.879 137.421 373.874 137.397 373.874 137.372C373.874 137.348 373.879 137.324 373.888 137.302C373.898 137.279 373.912 137.259 373.93 137.242C374.129 137.007 374.38 136.819 374.662 136.693C374.944 136.566 375.251 136.505 375.56 136.512C375.583 136.516 375.606 136.524 375.627 136.537C375.647 136.55 375.665 136.566 375.679 136.586C375.693 136.605 375.703 136.627 375.708 136.651C375.713 136.674 375.714 136.699 375.71 136.722C375.7 136.775 375.671 136.821 375.628 136.853C375.585 136.884 375.532 136.898 375.48 136.892C375.236 136.889 374.994 136.941 374.773 137.043C374.551 137.145 374.356 137.295 374.2 137.482C374.172 137.505 374.138 137.519 374.103 137.523C374.067 137.526 374.031 137.519 374 137.502Z" fill="#454D66"/>
<path d="M391.639 157.91L386.349 160.72C386.349 160.72 391.459 173.32 390.589 175.21C389.399 177.79 387.429 183.46 385.489 186.27C385.718 187.207 386.207 188.06 386.899 188.73C391.139 186.17 396.349 177.52 396.579 175.02C397.099 169.31 391.639 157.91 391.639 157.91Z" fill="#FFC3BD"/>
<path d="M389.919 152.563C393.619 153.213 396.339 166.393 396.339 166.393L387.219 169.003C385.923 165.972 384.851 162.85 384.009 159.663C382.799 154.783 385.999 151.853 389.919 152.563Z" fill="#454D66"/>
<path d="M387.41 185.801L383.64 185.531L385.26 189.711C385.26 189.711 388.58 189.841 389.36 187.301L387.41 185.801Z" fill="#FFC3BD"/>
<path d="M380.379 187.451L382.049 191.151L385.259 189.711L383.639 185.531L380.379 187.451Z" fill="#FFC3BD"/>
<path d="M388.878 321.397C401.619 309.085 402.626 289.459 391.128 277.56C379.629 265.662 359.98 265.997 347.24 278.309C334.499 290.621 333.492 310.247 344.99 322.146C356.489 334.044 376.138 333.709 388.878 321.397Z" fill="#58B368"/>
<path d="M387.781 320.252C399.85 308.589 400.805 289.997 389.913 278.726C379.021 267.455 360.407 267.773 348.338 279.436C336.268 291.1 335.314 309.692 346.206 320.963C357.098 332.234 375.712 331.916 387.781 320.252Z" fill="white"/>
<path d="M357.839 310.34L352.409 308.57C352.409 308.57 346.499 321.57 344.569 322.35C341.929 323.35 336.569 326.16 333.259 326.83C332.722 327.681 332.412 328.656 332.359 329.66C336.939 330.84 346.569 328.24 348.539 326.55C352.999 322.71 357.839 310.34 357.839 310.34Z" fill="#FFB573"/>
<path d="M362.569 302.413C363.449 306.053 355.409 316.363 355.409 316.363L348.899 312.243C349.972 308.742 351.625 305.446 353.789 302.493C356.469 299.163 361.599 298.423 362.569 302.413Z" fill="#58B368"/>
<path opacity="0.3" d="M362.569 302.413C363.449 306.053 355.409 316.363 355.409 316.363L348.899 312.243C349.972 308.742 351.625 305.446 353.789 302.493C356.469 299.163 361.599 298.423 362.569 302.413Z" fill="black"/>
<path opacity="0.2" d="M357.49 306.941C358.1 309.461 357.55 313.491 355.94 316.941C354.51 314.771 352.84 309.601 357.49 306.941Z" fill="black"/>
<path d="M357.4 302C356.26 306.17 354.03 317.12 355.85 334.31H375.39C375.84 331.04 375.26 315.07 379.85 299.66C377.523 299.2 375.168 298.899 372.8 298.76C369.782 298.585 366.757 298.585 363.74 298.76C362.452 298.881 361.177 299.115 359.93 299.46C359.325 299.629 358.774 299.952 358.33 300.397C357.887 300.842 357.566 301.395 357.4 302Z" fill="#58B368"/>
<path opacity="0.3" d="M357.4 302C356.26 306.17 354.03 317.12 355.85 334.31H375.39C375.84 331.04 375.26 315.07 379.85 299.66C377.523 299.2 375.168 298.899 372.8 298.76C369.782 298.585 366.757 298.585 363.74 298.76C362.452 298.881 361.177 299.115 359.93 299.46C359.325 299.629 358.774 299.952 358.33 300.397C357.887 300.842 357.566 301.395 357.4 302Z" fill="black"/>
<path opacity="0.2" d="M374.939 306.691C374.349 309.231 373.829 315.261 376.279 319.041C376.807 312.995 377.858 307.006 379.419 301.141C377.999 301.001 375.499 304.311 374.939 306.691Z" fill="black"/>
<g opacity="0.95">
<path opacity="0.95" d="M365.689 306.559L364.619 307.029L363.799 306.289C362.757 305.426 362 304.268 361.627 302.967C361.255 301.667 361.283 300.284 361.709 298.999C362.37 298.868 363.038 298.771 363.709 298.709C366.726 298.534 369.752 298.534 372.769 298.709C373.469 298.709 374.169 298.799 374.849 298.869L374.169 299.739C371.875 302.605 368.98 304.933 365.689 306.559Z" fill="white"/>
</g>
<path d="M372.41 290.23C371.56 293.15 370.94 296.76 372.8 298.71C370.697 301.313 368.056 303.432 365.06 304.92C364.143 304.207 363.508 303.192 363.267 302.056C363.025 300.92 363.193 299.735 363.74 298.71C367.07 297.93 367.27 293.91 366.91 291.65L372.41 290.23Z" fill="#FFB573"/>
<path opacity="0.2" d="M366.909 291.65C367.197 293.257 367.035 294.911 366.439 296.43C366.958 296.356 367.463 296.207 367.939 295.99C369.849 295.12 370.879 293.76 372.009 291.75C372.129 291.23 372.259 290.75 372.409 290.23L366.909 291.65Z" fill="black"/>
<path d="M362.179 289.002C362.327 289.446 362.568 289.854 362.885 290.199C363.202 290.544 363.588 290.817 364.019 291.002C365.189 291.502 366.019 290.432 365.939 289.202C365.859 287.972 365.129 286.492 363.849 286.512C363.557 286.524 363.273 286.605 363.018 286.748C362.764 286.891 362.546 287.092 362.384 287.334C362.221 287.577 362.118 287.854 362.082 288.144C362.047 288.433 362.08 288.727 362.179 289.002Z" fill="#FFB573"/>
<path opacity="0.2" d="M362.179 289.002C362.327 289.446 362.568 289.854 362.885 290.199C363.202 290.544 363.588 290.817 364.019 291.002C365.189 291.502 366.019 290.432 365.939 289.202C365.859 287.972 365.129 286.492 363.849 286.512C363.557 286.524 363.273 286.605 363.018 286.748C362.764 286.891 362.546 287.092 362.384 287.334C362.221 287.577 362.118 287.854 362.082 288.144C362.047 288.433 362.08 288.727 362.179 289.002Z" fill="black"/>
<path d="M366.809 282.112C366.429 279.502 363.529 282.492 363.199 284.402C362.869 286.312 364.469 288.242 365.559 286.402C366.649 284.562 366.999 283.522 366.809 282.112Z" fill="#454D66"/>
<path d="M374.709 286.639C373.459 290.509 372.919 292.809 370.469 294.479C369.728 295.046 368.84 295.388 367.91 295.465C366.98 295.541 366.047 295.349 365.223 294.91C364.4 294.472 363.719 293.806 363.263 292.992C362.806 292.179 362.593 291.251 362.649 290.319C362.749 286.659 364.779 280.949 368.919 280.049C373.059 279.149 375.999 282.769 374.709 286.639Z" fill="#FFB573"/>
<path d="M372.819 290.691C371.319 289.691 371.049 289.311 371.819 288.411C373.119 286.951 371.189 286.741 372.209 284.931C373.629 282.411 369.099 284.181 369.019 282.351C368.949 280.861 365.019 283.541 364.609 281.821C364.019 279.241 367.799 279.721 368.459 278.461C369.119 277.201 372.999 277.011 373.619 278.851C374.239 280.691 376.189 279.221 377.459 281.461C378.729 283.701 376.099 283.871 377.369 286.051C378.369 287.801 376.439 289.051 375.069 290.441C374.249 291.341 373.749 291.321 372.819 290.691Z" fill="#454D66"/>
<path d="M375.56 290.72C374.912 291.513 373.993 292.038 372.98 292.19C371.66 292.37 371.3 291.19 371.92 290C372.54 288.81 373.82 287.64 375.02 288C376.22 288.36 376.37 289.73 375.56 290.72Z" fill="#FFB573"/>
<path d="M368.639 286.723C368.559 287.043 368.329 287.263 368.129 287.233C367.929 287.203 367.829 286.913 367.909 286.593C367.989 286.273 368.219 286.043 368.429 286.083C368.639 286.123 368.729 286.403 368.639 286.723Z" fill="#454D66"/>
<path d="M365.14 286.1C365.05 286.42 364.82 286.65 364.62 286.61C364.42 286.57 364.32 286.29 364.4 285.97C364.48 285.65 364.72 285.43 364.92 285.46C365.12 285.49 365.22 285.78 365.14 286.1Z" fill="#454D66"/>
<path d="M366.21 286.461C365.586 287.37 364.85 288.196 364.02 288.921C364.197 289.114 364.417 289.262 364.661 289.356C364.906 289.45 365.169 289.486 365.43 289.461L366.21 286.461Z" fill="#ED893E"/>
<path d="M366.1 290.499C366.088 290.497 366.076 290.492 366.067 290.485C366.057 290.478 366.049 290.469 366.043 290.459C366.037 290.448 366.034 290.436 366.033 290.424C366.033 290.412 366.035 290.4 366.04 290.389C366.044 290.365 366.058 290.343 366.079 290.328C366.099 290.313 366.124 290.306 366.15 290.309C366.549 290.38 366.96 290.359 367.351 290.25C367.742 290.141 368.104 289.946 368.41 289.679C368.418 289.671 368.428 289.664 368.439 289.659C368.45 289.655 368.462 289.652 368.475 289.652C368.487 289.652 368.499 289.655 368.51 289.659C368.521 289.664 368.531 289.671 368.54 289.679C368.548 289.688 368.555 289.698 368.559 289.709C368.564 289.72 368.566 289.732 368.566 289.744C368.566 289.756 368.564 289.768 368.559 289.779C368.555 289.791 368.548 289.801 368.54 289.809C368.212 290.103 367.822 290.318 367.4 290.437C366.977 290.557 366.532 290.578 366.1 290.499Z" fill="#454D66"/>
<path d="M369.999 285.742C369.972 285.738 369.947 285.726 369.925 285.709C369.904 285.691 369.888 285.668 369.879 285.642C369.797 285.43 369.662 285.243 369.487 285.098C369.312 284.952 369.103 284.854 368.879 284.812C368.856 284.809 368.833 284.802 368.813 284.791C368.793 284.779 368.775 284.764 368.761 284.745C368.746 284.726 368.736 284.704 368.731 284.682C368.726 284.659 368.725 284.635 368.729 284.612C368.739 284.562 368.767 284.517 368.807 284.485C368.848 284.454 368.898 284.439 368.949 284.442C369.232 284.483 369.5 284.597 369.726 284.772C369.952 284.948 370.129 285.178 370.239 285.442C370.256 285.49 370.254 285.542 370.234 285.589C370.213 285.635 370.176 285.672 370.129 285.692C370.112 285.709 370.092 285.722 370.07 285.731C370.047 285.739 370.023 285.743 369.999 285.742Z" fill="#454D66"/>
<path d="M363.889 284.55C363.866 284.556 363.842 284.556 363.819 284.55C363.802 284.533 363.788 284.513 363.778 284.491C363.769 284.468 363.764 284.444 363.764 284.42C363.764 284.396 363.769 284.372 363.778 284.349C363.788 284.327 363.802 284.307 363.819 284.29C364.015 284.052 364.263 283.862 364.544 283.735C364.825 283.609 365.131 283.549 365.439 283.56C365.463 283.564 365.486 283.572 365.506 283.585C365.527 283.597 365.545 283.614 365.559 283.633C365.573 283.653 365.582 283.675 365.588 283.699C365.593 283.722 365.593 283.746 365.589 283.77C365.58 283.82 365.552 283.865 365.511 283.897C365.471 283.928 365.42 283.943 365.369 283.94C365.125 283.936 364.883 283.986 364.662 284.088C364.44 284.191 364.244 284.342 364.089 284.53C364.061 284.551 364.027 284.563 363.992 284.567C363.957 284.57 363.921 284.565 363.889 284.55Z" fill="#454D66"/>
<path d="M381.999 305.41L376.439 307.53C376.439 307.53 379.829 320.8 378.729 322.58C377.229 325.01 374.559 330.43 372.289 332.99C372.389 333.954 372.76 334.869 373.359 335.63C377.849 333.63 384.099 325.63 384.649 323.16C385.879 317.51 381.999 305.41 381.999 305.41Z" fill="#FFB573"/>
<path d="M380.999 299.831C384.549 300.961 385.519 314.491 385.519 314.491L376.219 315.931C375.337 312.732 374.689 309.474 374.279 306.181C373.699 301.141 377.179 298.621 380.999 299.831Z" fill="#58B368"/>
<path opacity="0.3" d="M380.999 299.831C384.549 300.961 385.519 314.491 385.519 314.491L376.219 315.931C375.337 312.732 374.689 309.474 374.279 306.181C373.699 301.141 377.179 298.621 380.999 299.831Z" fill="black"/>
<path d="M374.209 332.772L370.539 332.012L371.599 336.402C371.599 336.402 374.839 336.962 375.939 334.522L374.209 332.772Z" fill="#FFB573"/>
<path d="M367.1 333.522L368.26 337.432L371.6 336.402L370.54 332.012L367.1 333.522Z" fill="#FFB573"/>
<path d="M301.441 247.874C314.181 235.562 315.188 215.935 303.69 204.037C292.192 192.138 272.542 192.474 259.802 204.785C247.062 217.097 246.055 236.724 257.553 248.622C269.051 260.521 288.701 260.186 301.441 247.874Z" fill="#58B368"/>
<path d="M300.343 246.737C312.413 235.074 313.367 216.482 302.475 205.211C291.583 193.94 272.97 194.258 260.9 205.921C248.831 217.584 247.877 236.176 258.768 247.447C269.66 258.718 288.274 258.4 300.343 246.737Z" fill="white"/>
<path d="M292.91 233.25C293.06 235.63 293.18 238.03 293.27 240.42L293.56 247.56L293.61 248.43L293.68 249.19C293.76 249.71 293.82 250.25 293.93 250.81C294.14 251.91 294.41 253.03 294.73 254.15C295.33 256.4 296.06 258.67 296.73 260.91L294.66 261.91C293.408 259.791 292.302 257.589 291.35 255.32C290.89 254.17 290.46 253 290.09 251.77C289.892 251.146 289.729 250.512 289.6 249.87L289.43 248.87L289.33 247.95C288.8 243.11 288.45 238.34 288.26 233.53L292.91 233.25Z" fill="#FF8B7B"/>
<path d="M291.81 227.999C293.63 228.469 294.41 236.129 294.41 236.129L287 240.999C287 240.999 284.69 231.929 286.26 229.889C287.83 227.849 289.14 227.319 291.81 227.999Z" fill="#58B368"/>
<path opacity="0.2" d="M291.519 229.719L292.419 237.429L289.409 239.389L291.519 229.719Z" fill="black"/>
<path d="M296.789 260.389L298.789 264.639L294.849 264.749C294.849 264.749 293.699 261.749 294.919 260.219L296.789 260.389Z" fill="#FFB573"/>
<path d="M271.499 208.28C268.369 208.73 261.819 223.69 272.499 230.67C283.179 237.65 291.059 229.72 291.059 229.72C291.059 229.72 284.559 222 285.499 216.96C286.439 211.92 290.499 205.57 282.179 203.45C276.319 202 268.439 203.4 271.499 208.28Z" fill="#454D66"/>
<path d="M298.97 266.741L295.63 266.461L294.89 264.751L298.84 264.641L298.97 266.741Z" fill="#FFB573"/>
<path d="M291.809 227.999C291.809 227.999 293.899 228.759 287.809 255.239H269.459C270.279 247.779 270.599 243.179 268.079 227.869C270.672 227.348 273.299 227.014 275.939 226.869C278.709 226.674 281.489 226.674 284.259 226.869C287.809 227.179 291.809 227.999 291.809 227.999Z" fill="#58B368"/>
<path opacity="0.2" d="M269.179 233.941C270.809 234.351 272.179 236.161 271.809 239.501C271.59 241.039 270.962 242.49 269.989 243.701C269.879 241.131 269.589 238.151 269.069 234.341L269.179 233.941Z" fill="black"/>
<path d="M282.89 232.721C282.89 232.721 279.72 235.201 279.54 237.831C277.17 236.001 274.14 231.021 274.01 227.831C274.01 227.566 274.115 227.311 274.303 227.124C274.49 226.936 274.745 226.831 275.01 226.831C275.235 226.814 275.458 226.784 275.68 226.741C275.772 226.721 275.868 226.722 275.96 226.744C276.052 226.767 276.137 226.81 276.21 226.871L282.89 232.721Z" fill="#FAFAFA"/>
<path d="M282.89 232.721C283.733 233.246 284.437 233.966 284.943 234.821C285.45 235.675 285.743 236.639 285.8 237.631C288.46 235.781 287.55 230.251 286.32 227.541C286.224 227.33 286.075 227.148 285.888 227.013C285.7 226.877 285.48 226.794 285.25 226.771C284.89 226.771 284.61 226.681 284.42 226.641C284.351 226.629 284.28 226.644 284.222 226.683C284.165 226.722 284.124 226.782 284.11 226.851L282.89 232.721Z" fill="#FAFAFA"/>
<path d="M277.399 217.48C277.739 220.16 277.929 225.07 275.939 226.85C277.805 229.286 280.176 231.288 282.889 232.72C286.809 229.72 284.259 226.85 284.259 226.85C281.319 226.14 281.549 223.93 282.209 221.85L277.399 217.48Z" fill="#FF8B7B"/>
<path opacity="0.2" d="M279.36 219.258L282.21 221.838C282.047 222.32 281.927 222.815 281.85 223.318C280.72 223.148 279 222.178 278.85 220.938C278.886 220.346 279.06 219.77 279.36 219.258Z" fill="black"/>
<path d="M273.209 213.18C274.149 217.49 274.459 219.33 277.039 221.08C277.903 221.693 278.914 222.066 279.97 222.161C281.025 222.256 282.086 222.07 283.046 221.622C284.006 221.174 284.83 220.48 285.435 219.61C286.04 218.741 286.403 217.726 286.489 216.67C286.839 212.54 285.239 206.19 280.639 205.41C279.596 205.248 278.529 205.339 277.528 205.678C276.528 206.017 275.625 206.592 274.895 207.355C274.165 208.118 273.631 209.047 273.337 210.061C273.044 211.075 273 212.145 273.209 213.18Z" fill="#FF8B7B"/>
<path d="M274.44 217.06C277.21 214.42 277.31 211.15 276.61 210.13C278.99 209.93 285.15 208.43 284.16 206.13C283.17 203.83 273.58 202.59 272.26 208.47C269.08 211.13 271.11 216.46 274.44 217.06Z" fill="#454D66"/>
<path d="M280.449 212.789C280.509 213.149 280.739 213.389 280.979 213.339C281.219 213.289 281.359 212.959 281.299 212.609C281.239 212.259 281.009 211.999 280.779 212.059C280.549 212.119 280.399 212.439 280.449 212.789Z" fill="#454D66"/>
<path d="M284.529 211.899C284.579 212.259 284.819 212.499 285.049 212.449C285.279 212.399 285.439 212.069 285.379 211.709C285.319 211.349 285.089 211.109 284.859 211.159C284.725 211.222 284.617 211.332 284.557 211.468C284.496 211.603 284.486 211.756 284.529 211.899Z" fill="#454D66"/>
<path d="M284.749 211.21L285.579 210.77C285.579 210.77 285.239 211.53 284.749 211.21Z" fill="#454D66"/>
<path d="M283.369 212.82C283.814 213.562 284.363 214.235 284.999 214.82C284.839 214.989 284.644 215.123 284.429 215.213C284.214 215.302 283.982 215.346 283.749 215.34L283.369 212.82Z" fill="#FF5652"/>
<path d="M282 217.138C282.182 217.128 282.362 217.105 282.54 217.068C282.568 217.061 282.593 217.044 282.609 217.02C282.626 216.996 282.633 216.967 282.63 216.938C282.629 216.924 282.625 216.91 282.618 216.898C282.611 216.886 282.602 216.876 282.59 216.868C282.578 216.86 282.565 216.855 282.551 216.853C282.537 216.852 282.523 216.853 282.51 216.858C282.077 216.97 281.623 216.975 281.187 216.873C280.751 216.77 280.347 216.562 280.01 216.268C279.99 216.249 279.963 216.238 279.935 216.238C279.907 216.238 279.88 216.249 279.86 216.268C279.849 216.277 279.841 216.289 279.835 216.302C279.829 216.315 279.826 216.329 279.826 216.343C279.826 216.357 279.829 216.371 279.835 216.384C279.841 216.397 279.849 216.408 279.86 216.418C280.146 216.681 280.485 216.882 280.853 217.006C281.222 217.13 281.613 217.175 282 217.138Z" fill="#454D66"/>
<path d="M272.63 217.479C272.849 217.834 273.141 218.139 273.485 218.375C273.83 218.611 274.219 218.773 274.63 218.849C275.75 219.059 276.28 218.019 275.95 217.009C275.62 215.999 274.71 214.899 273.6 215.149C273.358 215.202 273.132 215.313 272.942 215.472C272.752 215.631 272.603 215.833 272.508 216.062C272.413 216.29 272.374 216.539 272.395 216.785C272.417 217.032 272.497 217.27 272.63 217.479Z" fill="#FF8B7B"/>
<path d="M278.54 211.998C278.585 211.993 278.628 211.974 278.662 211.944C278.696 211.913 278.72 211.873 278.73 211.828C278.992 211.152 279.509 210.606 280.17 210.308C280.197 210.297 280.222 210.281 280.242 210.26C280.263 210.24 280.279 210.215 280.291 210.188C280.302 210.161 280.307 210.132 280.307 210.103C280.307 210.074 280.301 210.045 280.29 210.018C280.279 209.994 280.263 209.971 280.244 209.953C280.224 209.935 280.201 209.92 280.176 209.911C280.151 209.902 280.124 209.897 280.097 209.899C280.07 209.9 280.044 209.907 280.02 209.918C279.627 210.094 279.273 210.346 278.98 210.66C278.686 210.974 278.458 211.344 278.31 211.748C278.302 211.775 278.301 211.803 278.305 211.831C278.309 211.859 278.319 211.885 278.334 211.909C278.349 211.932 278.369 211.952 278.393 211.968C278.416 211.983 278.442 211.994 278.47 211.998C278.481 212.004 278.493 212.006 278.505 212.006C278.517 212.006 278.529 212.004 278.54 211.998Z" fill="#454D66"/>
<path d="M285.52 209.06C285.557 209.06 285.594 209.051 285.627 209.033C285.66 209.016 285.689 208.991 285.71 208.96C285.748 208.919 285.769 208.866 285.769 208.81C285.769 208.754 285.748 208.701 285.71 208.66C285.433 208.469 285.114 208.346 284.78 208.303C284.446 208.259 284.107 208.296 283.79 208.41C283.737 208.432 283.695 208.473 283.671 208.525C283.647 208.577 283.643 208.635 283.66 208.69C283.67 208.717 283.685 208.741 283.704 208.762C283.724 208.782 283.748 208.799 283.774 208.81C283.8 208.821 283.828 208.827 283.857 208.827C283.885 208.827 283.914 208.821 283.94 208.81C284.189 208.718 284.458 208.69 284.721 208.726C284.984 208.763 285.235 208.864 285.45 209.02L285.52 209.06Z" fill="#454D66"/>
<path d="M280.68 212.1L281.51 211.66C281.51 211.66 281.16 212.43 280.68 212.1Z" fill="#454D66"/>
<path d="M269.26 254.169L268.68 255.809C268.6 255.939 268.75 256.069 268.96 256.069H287.82C287.99 256.069 288.13 255.989 288.15 255.879L288.42 254.239C288.42 254.129 288.31 254.029 288.12 254.029H269.57C269.511 254.024 269.451 254.034 269.397 254.058C269.343 254.083 269.296 254.121 269.26 254.169Z" fill="#58B368"/>
<path opacity="0.2" d="M269.26 254.169L268.68 255.809C268.6 255.939 268.75 256.069 268.96 256.069H287.82C287.99 256.069 288.13 255.989 288.15 255.879L288.42 254.239C288.42 254.129 288.31 254.029 288.12 254.029H269.57C269.511 254.024 269.451 254.034 269.397 254.058C269.343 254.083 269.296 254.121 269.26 254.169Z" fill="white"/>
<path d="M271.67 256.241H271.17C271.07 256.241 271 256.191 271.01 256.131L271.39 254.001C271.39 253.941 271.49 253.891 271.59 253.891H272.09C272.19 253.891 272.26 253.941 272.25 254.001L271.87 256.131C271.86 256.191 271.77 256.241 271.67 256.241Z" fill="#58B368"/>
<path opacity="0.4" d="M271.67 256.241H271.17C271.07 256.241 271 256.191 271.01 256.131L271.39 254.001C271.39 253.941 271.49 253.891 271.59 253.891H272.09C272.19 253.891 272.26 253.941 272.25 254.001L271.87 256.131C271.86 256.191 271.77 256.241 271.67 256.241Z" fill="black"/>
<path d="M286.409 256.241H285.909C285.809 256.241 285.739 256.191 285.749 256.131L286.129 254.001C286.129 253.941 286.229 253.891 286.329 253.891H286.829C286.929 253.891 286.999 253.941 286.989 254.001L286.609 256.131C286.599 256.191 286.509 256.241 286.409 256.241Z" fill="#58B368"/>
<path opacity="0.4" d="M286.409 256.241H285.909C285.809 256.241 285.739 256.191 285.749 256.131L286.129 254.001C286.129 253.941 286.229 253.891 286.329 253.891H286.829C286.929 253.891 286.999 253.941 286.989 254.001L286.609 256.131C286.599 256.191 286.509 256.241 286.409 256.241Z" fill="black"/>
<path d="M279.069 256.241H278.569C278.469 256.241 278.399 256.191 278.409 256.131L278.789 254.001C278.789 253.941 278.889 253.891 278.989 253.891H279.489C279.589 253.891 279.659 253.941 279.649 254.001L279.269 256.131C279.259 256.191 279.169 256.241 279.069 256.241Z" fill="#58B368"/>
<path opacity="0.4" d="M279.069 256.241H278.569C278.469 256.241 278.399 256.191 278.409 256.131L278.789 254.001C278.789 253.941 278.889 253.891 278.989 253.891H279.489C279.589 253.891 279.659 253.941 279.649 254.001L279.269 256.131C279.259 256.191 279.169 256.241 279.069 256.241Z" fill="black"/>
<path d="M280.219 258.898L284.809 256.898L283.239 261.308C283.239 261.308 280.369 261.958 279.239 260.538L280.219 258.898Z" fill="#FFB573"/>
<path d="M270.119 234C269.599 237 269.009 240.09 268.409 243.13C268.119 244.65 267.789 246.13 267.469 247.68L266.999 249.95L266.789 250.95C266.764 251.022 266.764 251.099 266.789 251.17C266.953 251.592 267.213 251.969 267.549 252.27C268.014 252.724 268.523 253.129 269.069 253.48C270.295 254.261 271.575 254.953 272.899 255.55C274.249 256.18 275.649 256.76 277.069 257.29C278.489 257.82 279.939 258.29 281.369 258.81L280.849 261.04C277.711 260.526 274.623 259.743 271.619 258.7C270.061 258.166 268.552 257.497 267.109 256.7C266.327 256.264 265.587 255.755 264.899 255.18C264.023 254.489 263.335 253.588 262.899 252.56C262.656 251.924 262.56 251.24 262.619 250.56C262.669 250.13 262.689 250.04 262.719 249.83L262.809 249.25L263.159 246.96C263.409 245.43 263.629 243.9 263.899 242.37C264.409 239.32 264.899 236.27 265.529 233.23L270.119 234Z" fill="#FF8B7B"/>
<path d="M268.079 227.88C266.209 228.44 263.569 234.76 263.569 234.76L269.569 241.37C269.569 241.37 273.329 234.57 272.729 232.2C272.129 229.83 270.219 227.24 268.079 227.88Z" fill="#58B368"/>
<path d="M288.429 257.83L286.919 261.46L283.239 261.32L284.809 256.91L288.429 257.83Z" fill="#FFB573"/>
<path opacity="0.3" d="M257.32 149.852H329C329.667 149.842 330.306 149.583 330.793 149.126C331.279 148.669 331.577 148.047 331.63 147.382C331.656 147.066 331.616 146.748 331.512 146.448C331.408 146.148 331.243 145.873 331.026 145.642C330.809 145.41 330.546 145.226 330.254 145.102C329.962 144.978 329.647 144.917 329.33 144.922H257.66C256.993 144.932 256.354 145.189 255.866 145.644C255.378 146.098 255.077 146.718 255.02 147.382C254.993 147.699 255.033 148.018 255.137 148.318C255.241 148.618 255.407 148.894 255.623 149.126C255.84 149.359 256.102 149.543 256.395 149.668C256.687 149.794 257.002 149.856 257.32 149.852Z" fill="#58B368"/>
<path opacity="0.3" d="M277.119 160.692H328.229C328.897 160.68 329.536 160.42 330.024 159.964C330.511 159.508 330.813 158.887 330.869 158.222C330.896 157.906 330.856 157.588 330.752 157.288C330.648 156.988 330.482 156.713 330.266 156.481C330.049 156.25 329.786 156.066 329.494 155.942C329.202 155.818 328.887 155.757 328.569 155.762H277.459C276.793 155.772 276.154 156.029 275.666 156.484C275.178 156.938 274.876 157.558 274.819 158.222C274.793 158.539 274.833 158.857 274.937 159.158C275.041 159.458 275.206 159.733 275.423 159.966C275.639 160.199 275.902 160.383 276.194 160.508C276.487 160.633 276.802 160.696 277.119 160.692Z" fill="#58B368"/>
<path d="M289.06 139H329.72C330.386 138.992 331.025 138.736 331.512 138.281C331.998 137.825 332.297 137.205 332.35 136.54C332.376 136.225 332.336 135.907 332.233 135.607C332.13 135.307 331.965 135.033 331.75 134.8C331.534 134.568 331.273 134.383 330.982 134.257C330.691 134.131 330.377 134.068 330.06 134.07H289.4C288.733 134.081 288.093 134.34 287.607 134.797C287.12 135.253 286.822 135.875 286.77 136.54C286.743 136.856 286.783 137.173 286.886 137.472C286.99 137.771 287.155 138.046 287.37 138.277C287.586 138.509 287.848 138.693 288.139 138.817C288.429 138.942 288.743 139.004 289.06 139Z" fill="white"/>
<path opacity="0.3" d="M289.15 308.231H318.15C318.467 308.225 318.782 308.287 319.074 308.411C319.366 308.535 319.629 308.718 319.846 308.95C320.063 309.182 320.228 309.457 320.333 309.756C320.437 310.056 320.477 310.375 320.45 310.691C320.398 311.358 320.098 311.981 319.609 312.438C319.121 312.895 318.479 313.153 317.81 313.161H288.81C288.492 313.165 288.177 313.102 287.885 312.977C287.593 312.852 287.33 312.667 287.113 312.435C286.897 312.202 286.731 311.927 286.627 311.627C286.523 311.326 286.483 311.007 286.51 310.691C286.565 310.026 286.866 309.405 287.354 308.95C287.842 308.495 288.483 308.238 289.15 308.231Z" fill="#58B368"/>
<path opacity="0.3" d="M249.879 308.231H278.879C279.197 308.225 279.512 308.287 279.804 308.411C280.096 308.535 280.359 308.718 280.576 308.95C280.792 309.182 280.958 309.457 281.062 309.756C281.166 310.056 281.206 310.375 281.179 310.691C281.123 311.356 280.821 311.977 280.334 312.433C279.846 312.889 279.207 313.148 278.539 313.161H249.539C249.222 313.165 248.907 313.102 248.614 312.977C248.322 312.852 248.059 312.667 247.843 312.435C247.626 312.202 247.461 311.927 247.357 311.627C247.253 311.326 247.213 311.007 247.239 310.691C247.292 310.025 247.592 309.403 248.081 308.947C248.57 308.492 249.211 308.236 249.879 308.231Z" fill="#58B368"/>
<path opacity="0.3" d="M267.76 297.391H318.87C319.187 297.386 319.502 297.447 319.794 297.571C320.086 297.695 320.349 297.879 320.566 298.111C320.783 298.342 320.949 298.617 321.053 298.917C321.157 299.217 321.197 299.535 321.17 299.851C321.118 300.516 320.819 301.138 320.333 301.595C319.846 302.052 319.207 302.311 318.54 302.321H267.42C267.103 302.325 266.788 302.263 266.496 302.137C266.204 302.012 265.942 301.827 265.726 301.595C265.511 301.362 265.346 301.086 265.243 300.786C265.141 300.486 265.102 300.167 265.13 299.851C265.182 299.187 265.481 298.566 265.968 298.111C266.454 297.656 267.094 297.399 267.76 297.391Z" fill="#58B368"/>
<path d="M261 286.539H319.6C319.917 286.535 320.232 286.598 320.524 286.723C320.815 286.848 321.078 287.033 321.293 287.266C321.509 287.498 321.674 287.774 321.776 288.074C321.879 288.375 321.918 288.693 321.89 289.009C321.837 289.674 321.539 290.294 321.052 290.749C320.565 291.205 319.926 291.461 319.26 291.469H260.69C260.373 291.475 260.058 291.413 259.765 291.289C259.473 291.165 259.21 290.982 258.994 290.75C258.777 290.518 258.611 290.243 258.507 289.944C258.403 289.644 258.363 289.325 258.39 289.009C258.442 288.347 258.737 287.728 259.22 287.272C259.702 286.816 260.336 286.555 261 286.539Z" fill="white"/>
<path opacity="0.3" d="M382.8 234.699H329.4C328.733 234.71 328.093 234.969 327.607 235.426C327.12 235.882 326.822 236.504 326.77 237.169C326.743 237.485 326.783 237.802 326.886 238.101C326.99 238.4 327.155 238.675 327.37 238.906C327.586 239.138 327.848 239.322 328.139 239.446C328.429 239.571 328.743 239.633 329.06 239.629H382.46C383.126 239.621 383.765 239.365 384.252 238.91C384.739 238.454 385.037 237.834 385.09 237.169C385.118 236.853 385.079 236.535 384.976 236.234C384.874 235.934 384.709 235.659 384.493 235.426C384.277 235.193 384.015 235.008 383.723 234.883C383.432 234.758 383.117 234.695 382.8 234.699Z" fill="#58B368"/>
<path opacity="0.3" d="M355.34 223.86H330.14C329.473 223.87 328.833 224.129 328.347 224.586C327.861 225.042 327.562 225.664 327.51 226.33C327.483 226.646 327.523 226.964 327.627 227.264C327.731 227.564 327.897 227.838 328.114 228.07C328.331 228.302 328.593 228.486 328.886 228.61C329.178 228.734 329.493 228.795 329.81 228.79H355C355.667 228.78 356.306 228.522 356.794 228.068C357.281 227.613 357.583 226.994 357.64 226.33C357.666 226.013 357.626 225.694 357.523 225.394C357.419 225.093 357.253 224.818 357.036 224.586C356.82 224.353 356.557 224.168 356.265 224.043C355.973 223.918 355.658 223.856 355.34 223.86Z" fill="#58B368"/>
<path d="M370.09 213H330.89C330.223 213.01 329.584 213.267 329.096 213.722C328.609 214.177 328.307 214.796 328.25 215.46C328.224 215.777 328.264 216.096 328.368 216.396C328.471 216.696 328.637 216.972 328.854 217.204C329.07 217.437 329.333 217.622 329.625 217.747C329.917 217.872 330.232 217.934 330.55 217.93H369.76C370.428 217.922 371.069 217.664 371.555 217.207C372.042 216.75 372.34 216.126 372.39 215.46C372.417 215.144 372.377 214.826 372.273 214.526C372.169 214.226 372.003 213.952 371.786 213.72C371.57 213.488 371.307 213.304 371.014 213.18C370.722 213.056 370.407 212.995 370.09 213Z" fill="white"/>
<path opacity="0.3" d="M401.8 223.86H366C365.332 223.872 364.693 224.131 364.205 224.587C363.718 225.044 363.416 225.664 363.36 226.33C363.333 226.646 363.373 226.964 363.477 227.264C363.581 227.564 363.747 227.838 363.963 228.07C364.18 228.302 364.443 228.486 364.735 228.61C365.027 228.734 365.342 228.795 365.66 228.79H401.46C402.126 228.78 402.765 228.522 403.253 228.068C403.741 227.613 404.043 226.994 404.1 226.33C404.126 226.013 404.086 225.694 403.982 225.394C403.878 225.093 403.713 224.818 403.496 224.586C403.28 224.353 403.017 224.168 402.725 224.043C402.432 223.918 402.117 223.856 401.8 223.86Z" fill="#58B368"/>
<path opacity="0.3" d="M240.81 121.601H267.59L266.17 97.8711L240.81 121.601Z" fill="#58B368"/>
<path d="M240.81 121.601L269.48 118.171L266.17 97.8711L240.81 121.601Z" fill="#58B368"/>
<path d="M132.781 191.901C131.931 193.901 130.991 196.121 130.161 198.261C129.331 200.401 128.481 202.591 127.711 204.761C126.145 209.006 124.859 213.348 123.861 217.761C123.721 218.301 123.651 218.831 123.551 219.361L123.411 220.161L123.301 220.791C123.202 221.681 123.182 222.578 123.241 223.471C123.413 225.656 123.71 227.83 124.131 229.981C124.991 234.471 126.131 239.121 127.261 243.681L122.181 245.831C119.657 241.515 117.528 236.98 115.821 232.281C114.907 229.811 114.202 227.269 113.711 224.681C113.418 223.193 113.287 221.677 113.321 220.161V219.511C113.321 219.301 113.321 219.171 113.321 218.991L113.421 217.991C113.491 217.341 113.531 216.671 113.641 215.991C114.382 210.948 115.549 205.977 117.131 201.131C117.911 198.741 118.711 196.381 119.641 194.071C120.571 191.761 121.471 189.491 122.641 187.121L132.781 191.901Z" fill="#7F3E3B"/>
<path d="M127.09 242.441L130.99 246.241L122.48 250.241C122.48 250.241 120.42 246.641 121.84 243.381L127.09 242.441Z" fill="#7F3E3B"/>
<path d="M134.13 251.908L126.95 254.848L122.48 250.198L130.99 246.238L134.13 251.908Z" fill="#7F3E3B"/>
<path d="M319.797 230.031C331.032 202.906 318.152 171.809 291.027 160.574C263.902 149.338 232.805 162.219 221.57 189.344C210.335 216.468 223.215 247.565 250.34 258.8C277.465 270.036 308.562 257.155 319.797 230.031Z" fill="#58B368"/>
<path d="M270.68 260.048C298.493 260.048 321.04 237.501 321.04 209.688C321.04 181.875 298.493 159.328 270.68 159.328C242.867 159.328 220.32 181.875 220.32 209.688C220.32 237.501 242.867 260.048 270.68 260.048Z" fill="white"/>
<path d="M292.541 221.281C293.101 225.401 293.541 229.541 294.031 233.671L295.391 246.001L295.571 247.481L295.781 248.811L296.071 250.191L296.421 251.601C296.941 253.491 297.531 255.411 298.191 257.331C299.471 261.181 300.971 265.041 302.441 268.881L299.001 270.741C296.641 267.187 294.51 263.486 292.621 259.661C291.691 257.721 290.801 255.751 290.041 253.661L289.481 252.081L288.981 250.431C288.831 249.861 288.701 249.271 288.561 248.691L288.251 247.091C287.481 242.911 286.851 238.791 286.251 234.651C285.651 230.511 285.121 226.371 284.681 222.211L292.541 221.281Z" fill="#FF8B7B"/>
<path d="M290.051 212.569C293.241 213.379 295.471 226.509 295.471 226.509L283.281 234.799C283.281 234.799 278.281 219.239 280.711 215.739C283.271 212.089 285.401 211.389 290.051 212.569Z" fill="#58B368"/>
<path opacity="0.2" d="M289.77 215.5L292.22 228.73L287.28 232.08L289.77 215.5Z" fill="black"/>
<path d="M302.401 268.101L306.401 275.381L299.641 275.561C299.641 275.561 297.321 270.381 299.241 267.801L302.401 268.101Z" fill="#FFB573"/>
<path d="M252.911 178.75C247.611 179.52 238.121 205.17 257.271 217.14C276.421 229.11 289.001 215.51 289.001 215.51C289.001 215.51 276.951 202.26 278.001 193.62C279.051 184.98 285.241 174.09 270.721 170.46C260.431 167.89 247.101 170.37 252.911 178.75Z" fill="#454D66"/>
<path d="M306.891 278.989L301.121 278.509L299.661 275.559L306.421 275.379L306.891 278.989Z" fill="#FFB573"/>
<path d="M290.05 212.571C290.05 212.571 293.74 213.871 286.36 259.271H254.93C255.46 246.481 255.47 238.601 249.36 212.351C253.758 211.438 258.217 210.85 262.7 210.591C267.451 210.246 272.22 210.246 276.97 210.591C283.1 211.151 290.05 212.571 290.05 212.571Z" fill="#58B368"/>
<path opacity="0.2" d="M252 222.738C254.85 223.448 257.48 226.548 257.16 232.268C256.987 234.868 256.078 237.365 254.54 239.468C254.04 235.068 253.19 229.968 251.86 223.468L252 222.738Z" fill="black"/>
<path d="M275.321 220.65C275.321 220.65 270.171 224.89 270.171 229.4C265.891 226.27 260.121 217.73 259.511 212.27C259.492 212.05 259.518 211.828 259.586 211.618C259.655 211.408 259.766 211.214 259.911 211.047C260.057 210.881 260.235 210.746 260.434 210.65C260.634 210.554 260.85 210.5 261.071 210.49C261.454 210.469 261.835 210.419 262.211 210.34C262.372 210.306 262.538 210.309 262.698 210.349C262.857 210.389 263.005 210.464 263.131 210.57L275.321 220.65Z" fill="#FAFAFA"/>
<path d="M275.32 220.649C276.821 221.542 278.101 222.762 279.065 224.218C280.03 225.674 280.654 227.329 280.89 229.059C285.22 225.889 283.01 216.409 280.6 211.769C280.411 211.408 280.136 211.099 279.8 210.868C279.463 210.638 279.075 210.494 278.67 210.449C278.03 210.369 277.55 210.289 277.23 210.219C277.172 210.208 277.113 210.208 277.055 210.221C276.997 210.234 276.943 210.258 276.895 210.293C276.847 210.328 276.807 210.372 276.777 210.423C276.747 210.474 276.727 210.53 276.72 210.589L275.32 220.649Z" fill="#FAFAFA"/>
<path d="M264.121 194.52C265.021 199.11 265.921 207.52 262.701 210.59C266.189 214.757 270.481 218.179 275.321 220.65C281.691 215.57 276.971 210.59 276.971 210.59C271.851 209.37 271.971 205.59 272.881 202L264.121 194.52Z" fill="#FF8B7B"/>
<path opacity="0.2" d="M267.691 197.57L272.871 202C272.652 202.83 272.505 203.676 272.431 204.53C270.481 204.25 267.431 202.58 266.981 200.45C266.976 199.446 267.22 198.457 267.691 197.57Z" fill="black"/>
<path d="M256.42 187.151C258.54 194.531 259.28 197.691 263.92 200.701C270.92 205.211 279.49 200.991 279.61 193.121C279.72 186.041 276.23 175.121 268.25 173.811C266.49 173.505 264.681 173.655 262.995 174.245C261.309 174.835 259.802 175.846 258.617 177.183C257.431 178.519 256.607 180.137 256.223 181.881C255.839 183.626 255.907 185.44 256.42 187.151Z" fill="#FF8B7B"/>
<path d="M259 193.8C263.45 189.26 263.23 183.66 261.91 181.91C265.97 181.57 276.36 179 274.39 175.07C272.42 171.14 255.84 169 254.26 179.07C249.11 183.62 253.21 192.77 259 193.8Z" fill="#454D66"/>
<path d="M268.79 186.481C268.93 187.091 269.36 187.481 269.79 187.421C270.22 187.361 270.4 186.771 270.27 186.161C270.14 185.551 269.7 185.161 269.27 185.221C268.84 185.281 268.66 185.871 268.79 186.481Z" fill="#454D66"/>
<path d="M275.68 185.001C275.82 185.611 276.25 186.001 276.68 185.941C277.11 185.881 277.29 185.291 277.15 184.681C277.01 184.071 276.58 183.681 276.15 183.731C275.72 183.781 275.55 184.341 275.68 185.001Z" fill="#454D66"/>
<path d="M276.001 183.758L277.371 183.008C277.371 183.008 276.861 184.318 276.001 183.758Z" fill="#454D66"/>
<path d="M273.801 186.52C274.641 187.784 275.651 188.928 276.801 189.92C276.54 190.211 276.219 190.441 275.859 190.595C275.5 190.749 275.111 190.822 274.721 190.81L273.801 186.52Z" fill="#FF5652"/>
<path d="M272.001 193.94C272.31 193.919 272.617 193.876 272.921 193.81C272.968 193.798 273.008 193.769 273.034 193.728C273.06 193.687 273.07 193.637 273.061 193.59C273.049 193.543 273.019 193.502 272.978 193.476C272.937 193.45 272.888 193.441 272.841 193.45C272.086 193.633 271.299 193.638 270.542 193.465C269.786 193.291 269.08 192.944 268.481 192.45C268.445 192.417 268.399 192.398 268.351 192.398C268.302 192.398 268.256 192.417 268.221 192.45C268.203 192.467 268.189 192.487 268.18 192.509C268.17 192.532 268.165 192.556 268.165 192.58C268.165 192.604 268.17 192.628 268.18 192.651C268.189 192.673 268.203 192.693 268.221 192.71C268.737 193.156 269.337 193.495 269.987 193.706C270.636 193.917 271.32 193.997 272.001 193.94Z" fill="#454D66"/>
<path d="M255.931 194.508C256.343 195.117 256.872 195.637 257.486 196.041C258.101 196.444 258.789 196.722 259.511 196.858C261.451 197.218 262.241 195.448 261.511 193.708C260.891 192.148 259.141 190.088 257.271 190.508C256.867 190.617 256.497 190.823 256.192 191.109C255.888 191.395 255.659 191.752 255.527 192.149C255.394 192.545 255.361 192.968 255.432 193.379C255.502 193.791 255.674 194.179 255.931 194.508Z" fill="#FF8B7B"/>
<path d="M265.421 185.14C265.497 185.131 265.567 185.098 265.623 185.046C265.679 184.994 265.717 184.925 265.731 184.85C265.911 184.279 266.208 183.752 266.602 183.301C266.996 182.85 267.479 182.485 268.021 182.23C268.066 182.211 268.106 182.183 268.14 182.147C268.173 182.112 268.199 182.07 268.216 182.024C268.233 181.978 268.24 181.929 268.238 181.881C268.235 181.832 268.223 181.784 268.201 181.74C268.181 181.696 268.152 181.657 268.116 181.624C268.08 181.592 268.038 181.567 267.992 181.551C267.946 181.535 267.898 181.529 267.85 181.532C267.801 181.535 267.754 181.548 267.711 181.57C267.062 181.872 266.485 182.309 266.019 182.852C265.553 183.396 265.209 184.033 265.011 184.72C265.002 184.767 265.003 184.815 265.013 184.861C265.023 184.908 265.042 184.952 265.069 184.991C265.096 185.03 265.13 185.063 265.17 185.089C265.21 185.114 265.254 185.132 265.301 185.14C265.34 185.151 265.382 185.151 265.421 185.14Z" fill="#454D66"/>
<path d="M277 180.068C277.082 180.077 277.166 180.058 277.235 180.013C277.305 179.969 277.357 179.901 277.383 179.823C277.409 179.744 277.407 179.659 277.377 179.581C277.348 179.504 277.292 179.439 277.22 179.398C276.742 179.064 276.191 178.851 275.613 178.776C275.035 178.701 274.447 178.767 273.9 178.968C273.812 179.007 273.743 179.08 273.708 179.169C273.672 179.259 273.673 179.359 273.71 179.448C273.729 179.492 273.756 179.533 273.79 179.566C273.825 179.6 273.865 179.627 273.91 179.644C273.955 179.662 274.003 179.671 274.051 179.669C274.099 179.668 274.146 179.658 274.19 179.638C274.626 179.486 275.093 179.44 275.55 179.504C276.007 179.568 276.443 179.741 276.82 180.008C276.872 180.047 276.935 180.068 277 180.068Z" fill="#454D66"/>
<path d="M269.101 185.289L270.471 184.539C270.471 184.539 270.001 185.849 269.101 185.289Z" fill="#454D66"/>
<path d="M254.461 257.428L253.651 260.238C253.551 260.458 253.801 260.678 254.171 260.678H286.511C286.791 260.678 287.031 260.538 287.051 260.368L287.331 257.548C287.331 257.358 287.101 257.188 286.791 257.188H255.001C254.898 257.175 254.793 257.19 254.698 257.233C254.602 257.275 254.521 257.343 254.461 257.428Z" fill="#58B368"/>
<path opacity="0.2" d="M254.461 257.428L253.651 260.238C253.551 260.458 253.801 260.678 254.171 260.678H286.511C286.791 260.678 287.031 260.538 287.051 260.368L287.331 257.548C287.331 257.358 287.101 257.188 286.791 257.188H255.001C254.898 257.175 254.793 257.19 254.698 257.233C254.602 257.275 254.521 257.343 254.461 257.428Z" fill="white"/>
<path d="M258.841 260.999H258.001C257.831 260.999 257.701 260.909 257.711 260.799L258.11 257.149C258.11 257.039 258.271 256.949 258.441 256.949H259.291C259.461 256.949 259.59 257.039 259.58 257.149L259.181 260.799C259.161 260.899 259.001 260.999 258.841 260.999Z" fill="#58B368"/>
<path opacity="0.4" d="M258.841 260.999H258.001C257.831 260.999 257.701 260.909 257.711 260.799L258.11 257.149C258.11 257.039 258.271 256.949 258.441 256.949H259.291C259.461 256.949 259.59 257.039 259.58 257.149L259.181 260.799C259.161 260.899 259.001 260.999 258.841 260.999Z" fill="black"/>
<path d="M284.121 260.999H283.261C283.091 260.999 282.961 260.909 282.981 260.799L283.381 257.149C283.381 257.039 283.541 256.949 283.711 256.949H284.561C284.731 256.949 284.861 257.039 284.851 257.149L284.451 260.799C284.425 260.864 284.379 260.918 284.319 260.955C284.26 260.991 284.19 261.006 284.121 260.999Z" fill="#58B368"/>
<path opacity="0.4" d="M284.121 260.999H283.261C283.091 260.999 282.961 260.909 282.981 260.799L283.381 257.149C283.381 257.039 283.541 256.949 283.711 256.949H284.561C284.731 256.949 284.861 257.039 284.851 257.149L284.451 260.799C284.425 260.864 284.379 260.918 284.319 260.955C284.26 260.991 284.19 261.006 284.121 260.999Z" fill="black"/>
<path d="M271.531 260.999H270.681C270.511 260.999 270.381 260.909 270.391 260.799L270.791 257.149C270.791 257.039 270.951 256.949 271.121 256.949H272.001C272.171 256.949 272.301 257.039 272.291 257.149L271.891 260.799C271.851 260.899 271.701 260.999 271.531 260.999Z" fill="#58B368"/>
<path opacity="0.4" d="M271.531 260.999H270.681C270.511 260.999 270.381 260.909 270.391 260.799L270.791 257.149C270.791 257.039 270.951 256.949 271.121 256.949H272.001C272.171 256.949 272.301 257.039 272.291 257.149L271.891 260.799C271.851 260.899 271.701 260.999 271.531 260.999Z" fill="black"/>
<path d="M273.81 265.549L281.44 262.129L279.27 269.699C279.27 269.699 274.42 270.799 272.32 268.369L273.81 265.549Z" fill="#FFB573"/>
<path d="M253.561 222.56C253.301 225.22 252.971 227.88 252.681 230.56L251.681 238.56C251.361 241.21 250.941 243.86 250.581 246.56L250.011 250.56L249.831 251.82C249.842 252.016 249.897 252.208 249.991 252.38C250.426 253.145 250.999 253.823 251.681 254.38C252.57 255.115 253.513 255.784 254.501 256.38C256.658 257.693 258.899 258.863 261.211 259.88C263.571 260.95 266.001 261.88 268.471 262.81C270.941 263.74 273.471 264.59 275.921 265.4L275.041 269.22C269.625 268.347 264.29 267.029 259.091 265.28C256.4 264.4 253.785 263.303 251.271 262C249.925 261.299 248.64 260.487 247.431 259.57C245.98 258.514 244.756 257.177 243.831 255.64C243.285 254.634 242.946 253.529 242.831 252.39C242.831 252.08 242.781 251.77 242.831 251.46C242.881 251.15 242.831 250.76 242.881 250.66L242.971 249.66L243.311 245.66C243.561 243 243.751 240.33 244.041 237.66L244.851 229.66C245.171 227 245.441 224.34 245.791 221.66L253.561 222.56Z" fill="#FF8B7B"/>
<path d="M249.361 212.351C246.211 213.351 242.431 224.151 242.431 224.151L253.431 235.491C253.431 235.491 259.081 223.831 257.751 219.761C256.401 215.521 253.001 211.251 249.361 212.351Z" fill="#58B368"/>
<path d="M287.761 263.699L285.601 269.939L279.271 269.699L281.441 262.129L287.761 263.699Z" fill="#FFB573"/>
<path opacity="0.2" d="M222.52 222.659C219.955 213.135 220.271 203.064 223.429 193.72C226.586 184.376 232.444 176.179 240.261 170.163C248.077 164.148 257.502 160.586 267.343 159.928C277.184 159.269 287 161.543 295.549 166.463C304.097 171.383 310.995 178.727 315.37 187.567C319.744 196.407 321.4 206.345 320.126 216.126C318.853 225.906 314.708 235.09 308.215 242.514C301.722 249.939 293.174 255.272 283.65 257.839C277.327 259.543 270.729 259.985 264.234 259.139C257.74 258.293 251.475 256.177 245.799 252.91C240.122 249.643 235.145 245.29 231.151 240.099C227.157 234.909 224.224 228.982 222.52 222.659Z" fill="#58B368"/>
<path opacity="0.2" d="M306.821 175.319L265.751 259.319C269.273 259.678 272.825 259.648 276.341 259.229L313.271 183.729C311.43 180.701 309.267 177.882 306.821 175.319ZM318.821 196.699L318.551 195.699L289.061 256.019C300.434 251.503 309.751 242.964 315.238 232.026C320.725 221.089 322 208.515 318.821 196.699ZM257.691 161.529C248.986 163.875 241.08 168.537 234.813 175.019C228.546 181.5 224.153 189.559 222.102 198.339C220.05 207.118 220.416 216.289 223.161 224.876C225.906 233.464 230.927 241.147 237.691 247.109L280.001 160.679C272.596 159.264 264.966 159.555 257.691 161.529Z" fill="white"/>
<path d="M214.561 204.27L213.561 204.17C213.721 202.46 213.971 200.74 214.291 199.06L215.291 199.25C215.001 200.9 214.731 202.59 214.561 204.27ZM216.501 194.12L215.501 193.84C216.818 189.385 218.664 185.105 221.001 181.09L221.871 181.59C219.586 185.537 217.784 189.744 216.501 194.12Z" fill="#58B368"/>
<path d="M322.66 195.668C319.889 185.387 314.133 176.158 306.118 169.149C298.103 162.139 288.19 157.663 277.632 156.287C267.074 154.911 256.344 156.697 246.801 161.418C237.257 166.139 229.328 173.584 224.015 182.812C218.702 192.039 216.245 202.635 216.953 213.259C217.662 223.883 221.505 234.058 227.996 242.498C234.487 250.938 243.334 257.264 253.42 260.677C263.506 264.089 274.378 264.434 284.66 261.668C291.489 259.831 297.89 256.666 303.496 252.354C309.102 248.043 313.804 242.669 317.333 236.54C320.862 230.411 323.149 223.647 324.062 216.634C324.976 209.621 324.5 202.497 322.66 195.668ZM222.52 222.668C219.954 213.144 220.27 203.074 223.428 193.73C226.586 184.386 232.443 176.188 240.26 170.173C248.077 164.158 257.502 160.596 267.343 159.937C277.184 159.278 286.999 161.553 295.548 166.472C304.096 171.392 310.994 178.736 315.369 187.576C319.744 196.416 321.399 206.354 320.126 216.135C318.852 225.916 314.707 235.099 308.214 242.524C301.722 249.948 293.173 255.281 283.65 257.848C277.325 259.552 270.727 259.993 264.232 259.147C257.737 258.301 251.472 256.183 245.795 252.915C240.119 249.648 235.141 245.293 231.148 240.102C227.154 234.91 224.222 228.983 222.52 222.658V222.668Z" fill="#58B368"/>
<path d="M223.32 230.908C223.32 233.198 222.73 233.498 222.1 233.568L220.29 234.048L216.66 235.048L209.4 236.968L194.85 240.698C185.137 243.138 175.41 245.515 165.67 247.828L136.45 254.828L121.86 258.368C117 259.578 112.12 260.698 107.31 262.098C106.822 262.241 106.311 262.287 105.806 262.233C105.3 262.178 104.81 262.025 104.364 261.781C103.918 261.537 103.524 261.208 103.205 260.812C102.886 260.416 102.648 259.961 102.505 259.473C102.362 258.985 102.316 258.474 102.371 257.969C102.425 257.463 102.579 256.973 102.823 256.527C103.066 256.081 103.396 255.687 103.792 255.368C104.187 255.049 104.642 254.811 105.13 254.668H105.29C110.16 253.468 114.94 251.978 119.74 250.588L134.14 246.318L162.91 237.658C172.504 234.758 182.107 231.922 191.72 229.148L206.17 224.998L213.41 222.998L217.03 221.998L218.84 221.498C219.42 221.248 220.06 221.218 221.24 223.188C222.627 225.523 223.347 228.193 223.32 230.908Z" fill="#58B368"/>
<path d="M160.4 156.299C160.4 156.889 160.71 157.369 161.1 157.369C161.49 157.369 161.8 156.889 161.8 156.299C161.8 155.709 161.49 155.219 161.1 155.219C160.71 155.219 160.4 155.699 160.4 156.299Z" fill="#454D66"/>
<path d="M160.66 157.371C161.363 159.183 162.312 160.889 163.48 162.441C163.076 162.73 162.613 162.928 162.124 163.019C161.635 163.111 161.132 163.094 160.65 162.971L160.66 157.371Z" fill="#630F0F"/>
<path d="M158.3 153C158.228 152.998 158.157 152.973 158.099 152.929C158.041 152.886 157.998 152.825 157.976 152.756C157.954 152.686 157.954 152.612 157.977 152.543C157.999 152.474 158.042 152.413 158.1 152.37C158.542 152.038 159.056 151.817 159.6 151.723C160.144 151.629 160.703 151.666 161.23 151.83C161.316 151.863 161.385 151.929 161.423 152.014C161.46 152.098 161.463 152.193 161.43 152.28C161.397 152.366 161.331 152.435 161.246 152.472C161.162 152.51 161.066 152.512 160.98 152.48C160.56 152.355 160.117 152.33 159.686 152.409C159.256 152.487 158.849 152.665 158.5 152.93C158.444 152.976 158.373 153.001 158.3 153Z" fill="#454D66"/>
<path d="M141.32 160.129C141.85 165.919 141.92 176.449 137.83 179.899C137.83 179.899 138.76 185.809 148.7 186.729C159.63 187.729 154.46 181.439 154.46 181.439C148.63 179.369 149.22 174.669 150.67 170.349L141.32 160.129Z" fill="#7F3E3B"/>
<path d="M125.33 397.308C124.47 397.668 122.5 396.798 121.87 396.428C121.842 396.413 121.818 396.39 121.804 396.361C121.79 396.332 121.785 396.299 121.79 396.268C121.793 396.234 121.806 396.201 121.827 396.174C121.849 396.147 121.878 396.128 121.91 396.118C122.01 396.118 124.35 395.338 125.3 395.888C125.405 395.944 125.496 396.022 125.566 396.117C125.637 396.212 125.686 396.322 125.71 396.438C125.76 396.577 125.765 396.728 125.724 396.87C125.682 397.012 125.597 397.137 125.48 397.228C125.434 397.26 125.383 397.287 125.33 397.308ZM122.42 396.308C123.42 396.808 124.85 397.228 125.27 396.928C125.27 396.928 125.44 396.808 125.37 396.488C125.356 396.42 125.327 396.357 125.285 396.302C125.244 396.246 125.191 396.201 125.13 396.168C124.231 395.955 123.289 396.011 122.42 396.328V396.308Z" fill="#58B368"/>
<path d="M122.51 396.289C122.346 396.358 122.175 396.411 122 396.449C121.97 396.46 121.938 396.46 121.907 396.452C121.877 396.443 121.85 396.424 121.83 396.399C121.815 396.371 121.808 396.34 121.808 396.309C121.808 396.277 121.815 396.246 121.83 396.219C121.83 396.139 122.64 394.159 123.66 393.739C123.781 393.684 123.913 393.656 124.045 393.656C124.178 393.656 124.309 393.684 124.43 393.739C124.556 393.774 124.666 393.852 124.739 393.96C124.812 394.068 124.845 394.199 124.83 394.329C124.73 394.999 123.44 395.899 122.51 396.289ZM122.27 396.009C123.17 395.669 124.4 394.789 124.46 394.299C124.46 394.249 124.46 394.149 124.26 394.049C124.182 394.011 124.097 393.992 124.01 393.992C123.924 393.992 123.838 394.011 123.76 394.049C123.11 394.329 122.53 395.439 122.27 395.999V396.009Z" fill="#58B368"/>
<path d="M170.76 409.108C170.006 409.105 169.253 409.038 168.51 408.908C168.475 408.901 168.444 408.884 168.419 408.859C168.394 408.834 168.377 408.803 168.37 408.768C168.362 408.733 168.367 408.695 168.383 408.662C168.399 408.63 168.427 408.603 168.46 408.588C168.57 408.518 171.13 407.058 172.36 407.388C172.59 407.447 172.788 407.594 172.91 407.798C172.988 407.91 173.03 408.042 173.03 408.178C173.03 408.314 172.988 408.447 172.91 408.558C172.62 408.998 171.71 409.108 170.76 409.108ZM169.07 408.648C170.44 408.838 172.3 408.828 172.64 408.358C172.64 408.298 172.73 408.188 172.64 407.968C172.603 407.907 172.554 407.853 172.496 407.812C172.437 407.771 172.37 407.742 172.3 407.728C171.51 407.518 170 408.188 169.07 408.648Z" fill="#58B368"/>
<path d="M168.541 408.908C168.508 408.917 168.473 408.917 168.441 408.908C168.415 408.89 168.396 408.866 168.383 408.837C168.371 408.809 168.367 408.778 168.371 408.748C168.371 408.668 168.581 406.688 169.511 405.918C169.648 405.803 169.808 405.717 169.98 405.665C170.152 405.614 170.332 405.598 170.511 405.618C170.981 405.668 171.121 405.908 171.151 406.108C171.291 406.938 169.531 408.528 168.651 408.928L168.541 408.908ZM170.341 405.908C170.117 405.914 169.902 405.995 169.731 406.138C169.175 406.772 168.827 407.56 168.731 408.398C169.641 407.858 170.831 406.608 170.731 406.108C170.731 406.108 170.731 405.948 170.391 405.918L170.341 405.908Z" fill="#58B368"/>
<path d="M160.471 408.74H167.811L168.541 391.73H161.201L160.471 408.74Z" fill="#7F3E3B"/>
<path d="M113.67 394.698L120.89 396.058L129.02 380.268L121.8 378.918L113.67 394.698Z" fill="#7F3E3B"/>
<path d="M121.68 395.309L113.78 392.929C113.641 392.888 113.492 392.895 113.357 392.949C113.223 393.004 113.111 393.102 113.04 393.229L109.76 399.069C109.681 399.212 109.637 399.37 109.628 399.533C109.62 399.696 109.649 399.858 109.712 400.008C109.776 400.159 109.872 400.292 109.995 400.4C110.117 400.507 110.263 400.585 110.42 400.629C113.19 401.409 114.58 401.629 118.05 402.699C120.19 403.339 125.81 405.699 128.77 406.569C131.73 407.439 132.98 404.649 131.85 404.019C126.79 401.209 123.96 398.169 122.69 396.089C122.463 395.712 122.102 395.433 121.68 395.309Z" fill="#454D66"/>
<path d="M167.76 407.891H159.76C159.615 407.89 159.474 407.939 159.361 408.03C159.248 408.121 159.17 408.249 159.14 408.391L157.69 414.921C157.653 415.078 157.653 415.241 157.689 415.398C157.725 415.555 157.796 415.701 157.897 415.827C157.999 415.952 158.127 416.053 158.273 416.121C158.419 416.189 158.579 416.223 158.74 416.221C161.64 416.221 165.82 416.011 169.46 416.011C173.71 416.011 177.38 416.241 182.37 416.241C185.37 416.241 186.22 413.191 184.96 412.911C179.21 411.661 174.52 411.521 169.55 408.461C169.018 408.107 168.398 407.909 167.76 407.891Z" fill="#454D66"/>
<path d="M124 181.77C117.62 184.77 115 205.33 115 205.33L129.65 211.08C131.923 205.514 133.762 199.78 135.15 193.93C137.25 184.65 130.55 178.65 124 181.77Z" fill="#58B368"/>
<path opacity="0.3" d="M124 181.77C117.62 184.77 115 205.33 115 205.33L129.65 211.08C131.923 205.514 133.762 199.78 135.15 193.93C137.25 184.65 130.55 178.65 124 181.77Z" fill="black"/>
<path opacity="0.2" d="M133.53 187.8C134.03 187.558 134.552 187.367 135.09 187.23C135.675 189.423 135.695 191.728 135.15 193.93C133.762 199.781 131.924 205.514 129.65 211.08L124.82 209.19C125.71 203.82 128.44 190.24 133.53 187.8Z" fill="black"/>
<path d="M166.52 181.608C166.52 181.608 174.34 190.438 166.95 245.108H127.66C127.39 239.108 131.18 209.648 125.36 181.228C129.707 180.392 134.103 179.838 138.52 179.568C144.082 179.248 149.658 179.248 155.22 179.568C159.034 179.953 162.813 180.635 166.52 181.608Z" fill="#58B368"/>
<path opacity="0.3" d="M166.52 181.608C166.52 181.608 174.34 190.438 166.95 245.108H127.66C127.39 239.108 131.18 209.648 125.36 181.228C129.707 180.392 134.103 179.838 138.52 179.568C144.082 179.248 149.658 179.248 155.22 179.568C159.034 179.953 162.813 180.635 166.52 181.608Z" fill="black"/>
<path opacity="0.2" d="M158.61 193.33C160.39 187.99 164.67 186.28 169.03 189.45C169.91 194.63 170.53 202.98 169.82 216.22L162.15 216.15C162.15 216.15 156 201.28 158.61 193.33Z" fill="black"/>
<path d="M171.061 189.68C171.441 191.97 171.861 194.47 172.331 196.85C172.801 199.23 173.331 201.65 173.891 204.01C174.926 208.652 176.334 213.203 178.101 217.62C178.551 218.62 179.011 219.68 179.521 220.62L180.171 221.8C180.334 222.066 180.525 222.314 180.741 222.54C182.23 223.952 183.913 225.145 185.741 226.08C190.058 228.325 194.51 230.302 199.071 232L197.981 237.4C192.602 237.027 187.295 235.945 182.201 234.18C180.832 233.703 179.496 233.139 178.201 232.49C176.782 231.766 175.441 230.898 174.201 229.9C173.471 229.3 172.801 228.63 172.201 227.9L171.721 227.27L171.411 226.8C171.201 226.49 170.991 226.18 170.801 225.87C170.021 224.62 169.331 223.37 168.691 222.11C166.349 217.213 164.494 212.098 163.151 206.84C162.481 204.27 161.861 201.71 161.361 199.12C160.861 196.53 160.361 194 160.061 191.24L171.061 189.68Z" fill="#7F3E3B"/>
<path d="M156.7 186.998C154.63 193.708 163.03 213.708 163.03 213.708L180.72 209.258C179.637 202.937 177.815 196.764 175.29 190.868C169.55 178.388 159.19 178.908 156.7 186.998Z" fill="#58B368"/>
<path opacity="0.3" d="M156.7 186.998C154.63 193.708 163.03 213.708 163.03 213.708L180.72 209.258C179.637 202.937 177.815 196.764 175.29 190.868C169.55 178.388 159.19 178.908 156.7 186.998Z" fill="black"/>
<path d="M199.18 232L206.77 235.41L199.41 241.48C199.41 241.48 196.17 240.42 195.64 235.1L194.51 230.68L197.84 231.53C198.3 231.646 198.748 231.803 199.18 232Z" fill="#7F3E3B"/>
<path d="M210.8 239.091L203.41 243.501L199.41 241.441L206.76 235.371L210.8 239.091Z" fill="#7F3E3B"/>
<path d="M158.56 178.92C155.39 176.24 147.69 174.31 139.07 173.83C134.14 173.56 129.07 174.37 126.96 175.31C124.85 176.25 127.35 183.04 130.11 183.19C128.65 185.49 130.77 189.93 133.94 190.8C133.44 194.64 143.12 195 148.94 191.9C153.64 189.43 162.36 182.13 158.56 178.92Z" fill="#454D66"/>
<path opacity="0.2" d="M168.54 391.73L168.17 400.5H160.82L161.19 391.73H168.54Z" fill="black"/>
<path opacity="0.2" d="M121.791 378.918L129.021 380.278L124.831 388.408L117.601 387.048L121.791 378.918Z" fill="black"/>
<path d="M140.641 154.998C141.081 162.278 140.961 166.558 144.641 170.298C150.161 175.918 159.151 172.598 160.891 165.298C162.461 158.758 161.471 147.958 154.351 145.048C152.781 144.398 151.07 144.162 149.383 144.362C147.696 144.562 146.088 145.19 144.713 146.188C143.338 147.186 142.242 148.52 141.529 150.062C140.816 151.605 140.51 153.304 140.641 154.998Z" fill="#7F3E3B"/>
<path d="M154.26 159.06C157.01 156.28 161.53 150.22 159.95 145.67C157.62 138.94 150.67 141.22 151.78 142.56C147.78 139.92 139.7 139.79 141.39 143.33C134.12 144.33 133.53 147.28 135.55 148.39C130.37 153.33 130.62 158.44 134.55 158.06C131.55 161.06 137.07 167 143.24 169.83C145.34 164.33 156.58 163.33 154.26 159.06Z" fill="#454D66"/>
<path d="M151.07 161.69C151.024 161.703 150.976 161.703 150.93 161.69C150.903 161.671 150.88 161.646 150.862 161.619C150.845 161.591 150.833 161.56 150.827 161.527C150.822 161.494 150.823 161.461 150.83 161.429C150.837 161.397 150.851 161.366 150.87 161.34C152.45 159.02 153.99 157.16 155.35 155.52C157.95 152.38 159.83 150.11 159.99 147.03C160.028 145.768 159.67 144.526 158.967 143.477C158.264 142.428 157.252 141.625 156.07 141.18C154.21 140.34 152.21 140.29 151.42 141.07C151 141.48 150.96 142.07 151.3 142.89C151.315 142.919 151.323 142.951 151.324 142.983C151.326 143.016 151.32 143.049 151.308 143.079C151.295 143.109 151.277 143.137 151.253 143.159C151.229 143.182 151.201 143.199 151.17 143.21C151.14 143.223 151.107 143.23 151.075 143.231C151.042 143.231 151.009 143.225 150.978 143.213C150.947 143.201 150.919 143.183 150.896 143.16C150.872 143.137 150.853 143.11 150.84 143.08C150.619 142.712 150.523 142.283 150.564 141.857C150.605 141.43 150.783 141.028 151.07 140.71C152.01 139.79 154.2 139.79 156.28 140.71C157.553 141.193 158.643 142.061 159.398 143.195C160.153 144.328 160.535 145.669 160.49 147.03C160.32 150.28 158.4 152.6 155.74 155.81C154.38 157.45 152.85 159.3 151.28 161.61C151.254 161.638 151.221 161.661 151.185 161.674C151.148 161.688 151.109 161.694 151.07 161.69Z" fill="#454D66"/>
<path d="M151.43 158.24C151.563 160.045 152.287 161.757 153.49 163.11C155.09 164.87 156.77 163.77 157.05 161.63C157.3 159.69 156.78 156.44 154.82 155.47C152.86 154.5 151.3 156.06 151.43 158.24Z" fill="#7F3E3B"/>
<path d="M153 245.109C153 245.109 155.48 294.629 150.65 315.609C143 348.829 128.37 387.359 128.37 387.359L114.75 384.789C114.75 384.789 126.22 346.209 128.75 318.549C130.98 293.709 127.68 265.179 127.68 245.109H153Z" fill="#454D66"/>
<path opacity="0.2" d="M149.33 259.779C150.33 257.849 152.28 263.599 153.64 270.979C153.64 281.159 153.46 292.739 152.57 302.549C145.77 289.999 147.22 263.779 149.33 259.779Z" fill="black"/>
<path d="M131.71 383.178C131.77 383.178 129.58 387.898 129.58 387.898L113.82 384.828L115.54 380.078L131.71 383.178Z" fill="#2C6BDB"/>
<path d="M167 245.109C167 245.109 178 291.999 178.8 314.409C179.67 339.539 170.9 398.799 170.9 398.799H158.46C158.46 398.799 156.93 339.079 156.37 316.189C155.77 291.239 141.13 245.109 141.13 245.109H167Z" fill="#454D66"/>
<path d="M173.3 393.84C173.36 393.84 172.6 399.01 172.6 399.01H157.46L157.05 394.4L173.3 393.84Z" fill="#2C6BDB"/>
</svg>
