<svg width="1440" height="433" viewBox="0 0 1440 433" fill="none" xmlns="http://www.w3.org/2000/svg">
<g clip-path="url(#clip0_26_87)">
<path d="M-398.803 125.646C-298.598 166.07 -100.238 306.102 59.9904 194.369C260.276 54.7027 394 87.1487 494.524 107.483C604.307 129.689 940.904 241.072 1166.5 88.4221C1416.62 -80.8226 1553.8 191.696 1601.36 289.425" stroke="url(#paint0_linear_26_87)" stroke-width="2" stroke-dasharray="10 10"/>
<path d="M157.837 150.421C162.877 150.309 166.601 150.197 169.009 150.085V165.961H124.573V150.085C130.621 150.309 135.185 150.421 138.265 150.421V121.441C136.249 125.865 132.133 128.721 125.917 130.009C125.749 123.401 125.133 117.381 124.069 111.949C128.549 111.333 131.657 110.577 133.393 109.681C135.185 108.729 136.557 107.693 137.509 106.573C138.517 105.453 139.189 104.697 139.525 104.305V104.137H157.837V150.421Z" fill="#58B368"/>
<path d="M129.6 244.161C126.587 244.161 124.367 243.521 122.94 242.241C121.513 240.961 120.8 239.134 120.8 236.761C120.8 234.374 121.513 232.488 122.94 231.101C124.367 229.714 126.587 229.021 129.6 229.021C133.813 229.021 136.633 230.468 138.06 233.361C136.86 233.774 135.453 234.394 133.84 235.221C133.453 234.474 132.84 233.921 132 233.561C131.173 233.201 130.327 233.021 129.46 233.021C128.18 233.021 127.227 233.361 126.6 234.041C125.973 234.708 125.66 235.534 125.66 236.521C125.66 237.588 125.993 238.461 126.66 239.141C127.34 239.808 128.373 240.141 129.76 240.141C130.867 240.141 131.747 239.961 132.4 239.601C133.053 239.228 133.533 238.641 133.84 237.841C134.933 238.428 136.333 239.088 138.04 239.821C137.373 241.434 136.26 242.561 134.7 243.201C133.14 243.841 131.44 244.161 129.6 244.161ZM156.127 234.281C156.127 235.441 155.841 236.421 155.267 237.221C154.707 238.021 153.741 238.601 152.367 238.961C152.527 239.174 152.641 239.341 152.707 239.461L155.947 243.961H150.507C149.921 242.868 148.994 241.321 147.727 239.321H144.787V243.961H140.067C140.174 241.374 140.227 238.954 140.227 236.701C140.227 234.448 140.174 232.028 140.067 229.441H144.787V229.461H148.887C151.581 229.461 153.461 229.894 154.527 230.761C155.594 231.628 156.127 232.801 156.127 234.281ZM144.787 233.301V235.581H147.487C148.621 235.581 149.474 235.548 150.047 235.481C150.634 235.401 151.041 235.281 151.267 235.121C151.494 234.961 151.607 234.728 151.607 234.421C151.607 234.128 151.501 233.901 151.287 233.741C151.074 233.581 150.674 233.468 150.087 233.401C149.501 233.334 148.634 233.301 147.487 233.301H144.787ZM162.843 240.301C167.91 240.274 171.583 240.201 173.863 240.081C173.77 240.628 173.71 241.194 173.683 241.781C173.67 242.354 173.663 243.081 173.663 243.961H158.123C158.23 241.374 158.283 238.954 158.283 236.701C158.283 234.448 158.23 232.028 158.123 229.441H173.663V233.061H162.843V234.981C163.483 234.994 164.43 235.001 165.683 235.001C167.803 235.001 169.997 234.961 172.263 234.881V238.321C169.997 238.241 167.803 238.201 165.683 238.201C164.43 238.201 163.483 238.208 162.843 238.221V240.301ZM187.296 243.961C187.042 243.201 186.702 242.248 186.276 241.101H179.896L178.896 243.961H173.876L179.476 229.441H186.836L192.476 243.961H187.296ZM185.136 237.981C184.629 236.581 184.109 235.181 183.576 233.781L183.096 232.481C182.629 233.694 181.942 235.528 181.036 237.981H185.136ZM209.932 233.641C207.838 233.574 205.805 233.534 203.832 233.521V243.961H198.832V233.521C196.845 233.534 194.818 233.574 192.752 233.641V229.441H209.932V233.641ZM216.661 240.301C221.727 240.274 225.401 240.201 227.681 240.081C227.587 240.628 227.527 241.194 227.501 241.781C227.487 242.354 227.481 243.081 227.481 243.961H211.941C212.047 241.374 212.101 238.954 212.101 236.701C212.101 234.448 212.047 232.028 211.941 229.441H227.481V233.061H216.661V234.981C217.301 234.994 218.247 235.001 219.501 235.001C221.621 235.001 223.814 234.961 226.081 234.881V238.321C223.814 238.241 221.621 238.201 219.501 238.201C218.247 238.201 217.301 238.208 216.661 238.221V240.301ZM246.708 243.961C246.455 243.201 246.115 242.248 245.688 241.101H239.308L238.308 243.961H233.288L238.888 229.441H246.248L251.888 243.961H246.708ZM244.548 237.981C244.042 236.581 243.522 235.181 242.988 233.781L242.508 232.481C242.042 233.694 241.355 235.528 240.448 237.981H244.548ZM266.839 229.461C269.493 229.461 271.339 229.934 272.379 230.881C273.419 231.814 273.939 233.134 273.939 234.841C273.939 236.014 273.733 237.014 273.319 237.841C272.906 238.654 272.179 239.294 271.139 239.761C270.099 240.214 268.666 240.441 266.839 240.441H262.679V243.961H257.759C257.866 241.374 257.919 238.954 257.919 236.701C257.919 234.448 257.866 232.028 257.759 229.441H262.679V229.461H266.839ZM265.439 236.581C266.546 236.581 267.373 236.541 267.919 236.461C268.479 236.368 268.866 236.208 269.079 235.981C269.306 235.754 269.419 235.421 269.419 234.981C269.419 234.541 269.313 234.214 269.099 234.001C268.899 233.774 268.519 233.621 267.959 233.541C267.413 233.461 266.573 233.421 265.439 233.421H262.679V236.581H265.439ZM291.993 234.281C291.993 235.441 291.706 236.421 291.133 237.221C290.573 238.021 289.606 238.601 288.233 238.961C288.393 239.174 288.506 239.341 288.573 239.461L291.813 243.961H286.373C285.786 242.868 284.859 241.321 283.593 239.321H280.653V243.961H275.933C276.039 241.374 276.093 238.954 276.093 236.701C276.093 234.448 276.039 232.028 275.933 229.441H280.653V229.461H284.753C287.446 229.461 289.326 229.894 290.393 230.761C291.459 231.628 291.993 232.801 291.993 234.281ZM280.653 233.301V235.581H283.353C284.486 235.581 285.339 235.548 285.913 235.481C286.499 235.401 286.906 235.281 287.133 235.121C287.359 234.961 287.473 234.728 287.473 234.421C287.473 234.128 287.366 233.901 287.153 233.741C286.939 233.581 286.539 233.468 285.953 233.401C285.366 233.334 284.499 233.301 283.353 233.301H280.653ZM302.889 244.161C299.836 244.161 297.589 243.501 296.149 242.181C294.709 240.848 293.989 238.981 293.989 236.581C293.989 234.208 294.702 232.354 296.129 231.021C297.569 229.688 299.822 229.021 302.889 229.021C305.969 229.021 308.222 229.688 309.649 231.021C311.089 232.354 311.809 234.208 311.809 236.581C311.809 238.994 311.096 240.861 309.669 242.181C308.242 243.501 305.982 244.161 302.889 244.161ZM302.889 240.081C304.369 240.081 305.436 239.801 306.089 239.241C306.742 238.668 307.069 237.781 307.069 236.581C307.069 235.408 306.742 234.534 306.089 233.961C305.436 233.388 304.369 233.101 302.889 233.101C301.422 233.101 300.362 233.388 299.709 233.961C299.056 234.534 298.729 235.408 298.729 236.581C298.729 237.768 299.056 238.648 299.709 239.221C300.362 239.794 301.422 240.081 302.889 240.081ZM329.403 233.181H318.523V235.281C319.203 235.294 320.223 235.301 321.583 235.301C323.93 235.301 326.316 235.261 328.743 235.181V239.101C326.316 239.008 323.756 238.961 321.063 238.961C319.943 238.961 319.096 238.968 318.523 238.981V243.961H313.803C313.91 241.374 313.963 238.954 313.963 236.701C313.963 234.448 313.91 232.028 313.803 229.441H329.403V233.181ZM343.03 233.421C341.443 233.341 340.27 233.294 339.51 233.281V240.121C340.283 240.108 341.457 240.061 343.03 239.981V243.961H331.41V239.981C332.943 240.061 334.11 240.108 334.91 240.121V233.281C334.11 233.294 332.943 233.341 331.41 233.421V229.441H343.03V233.421ZM349.913 239.921C353.779 239.894 356.979 239.828 359.513 239.721C359.339 240.401 359.233 241.054 359.193 241.681C359.153 242.308 359.133 243.068 359.133 243.961H345.033C345.139 241.374 345.193 238.954 345.193 236.701C345.193 234.448 345.139 232.028 345.033 229.441H349.913V239.921ZM366.227 240.301C371.294 240.274 374.967 240.201 377.247 240.081C377.154 240.628 377.094 241.194 377.067 241.781C377.054 242.354 377.047 243.081 377.047 243.961H361.507C361.614 241.374 361.667 238.954 361.667 236.701C361.667 234.448 361.614 232.028 361.507 229.441H377.047V233.061H366.227V234.981C366.867 234.994 367.814 235.001 369.067 235.001C371.187 235.001 373.38 234.961 375.647 234.881V238.321C373.38 238.241 371.187 238.201 369.067 238.201C367.814 238.201 366.867 238.208 366.227 238.221V240.301ZM396.275 243.961C396.021 243.201 395.681 242.248 395.255 241.101H388.875L387.875 243.961H382.855L388.455 229.441H395.815L401.455 243.961H396.275ZM394.115 237.981C393.608 236.581 393.088 235.181 392.555 233.781L392.075 232.481C391.608 233.694 390.921 235.528 390.015 237.981H394.115ZM419.311 229.461C419.218 231.714 419.171 234.128 419.171 236.701C419.171 239.288 419.218 241.708 419.311 243.961H412.151L407.311 233.041L407.671 243.961H402.531C402.638 241.374 402.691 238.954 402.691 236.701C402.691 234.461 402.638 232.048 402.531 229.461H409.891L414.751 240.681L414.411 229.461H419.311ZM427.71 229.221C430.217 229.221 432.197 229.528 433.65 230.141C435.103 230.741 436.117 231.581 436.69 232.661C437.277 233.728 437.57 235.041 437.57 236.601C437.57 238.081 437.237 239.374 436.57 240.481C435.903 241.588 434.903 242.448 433.57 243.061C432.237 243.661 430.597 243.961 428.65 243.961C427.463 243.961 426.257 243.961 425.03 243.961C423.803 243.961 422.563 243.954 421.31 243.941C421.417 241.314 421.47 238.868 421.47 236.601C421.47 234.308 421.417 231.914 421.31 229.421C422.897 229.288 425.03 229.221 427.71 229.221ZM429.21 239.981C430.45 239.981 431.277 239.681 431.69 239.081C432.103 238.481 432.31 237.654 432.31 236.601C432.31 235.588 432.09 234.768 431.65 234.141C431.223 233.514 430.41 233.201 429.21 233.201C427.917 233.201 426.95 233.241 426.31 233.321V239.981H429.21ZM129.04 267.681H137.58V275.961H134.06L133.64 272.421C133.24 273.688 132.527 274.628 131.5 275.241C130.473 275.854 129.22 276.161 127.74 276.161C126.393 276.161 125.193 275.861 124.14 275.261C123.1 274.661 122.28 273.801 121.68 272.681C121.093 271.561 120.8 270.254 120.8 268.761C120.8 266.374 121.513 264.488 122.94 263.101C124.367 261.714 126.587 261.021 129.6 261.021C131.32 261.021 132.833 261.301 134.14 261.861C135.46 262.421 136.58 263.288 137.5 264.461C136.9 264.768 135.727 265.381 133.98 266.301L133.48 266.581C132.96 266.061 132.353 265.674 131.66 265.421C130.967 265.154 130.233 265.021 129.46 265.021C128.18 265.021 127.227 265.361 126.6 266.041C125.973 266.708 125.66 267.534 125.66 268.521C125.66 269.588 125.993 270.448 126.66 271.101C127.34 271.754 128.373 272.081 129.76 272.081C130.36 272.081 130.94 271.994 131.5 271.821C132.073 271.648 132.553 271.348 132.94 270.921H129.04V267.681ZM144.299 272.301C149.366 272.274 153.039 272.201 155.319 272.081C155.226 272.628 155.166 273.194 155.139 273.781C155.126 274.354 155.119 275.081 155.119 275.961H139.579C139.686 273.374 139.739 270.954 139.739 268.701C139.739 266.448 139.686 264.028 139.579 261.441H155.119V265.061H144.299V266.981C144.939 266.994 145.886 267.001 147.139 267.001C149.259 267.001 151.452 266.961 153.719 266.881V270.321C151.452 270.241 149.259 270.201 147.139 270.201C145.886 270.201 144.939 270.208 144.299 270.221V272.301ZM173.507 265.641C171.413 265.574 169.38 265.534 167.407 265.521V275.961H162.407V265.521C160.42 265.534 158.393 265.574 156.327 265.641V261.441H173.507V265.641ZM189 261.461C191.653 261.461 193.5 261.934 194.54 262.881C195.58 263.814 196.1 265.134 196.1 266.841C196.1 268.014 195.893 269.014 195.48 269.841C195.066 270.654 194.34 271.294 193.3 271.761C192.26 272.214 190.826 272.441 189 272.441H184.84V275.961H179.92C180.026 273.374 180.08 270.954 180.08 268.701C180.08 266.448 180.026 264.028 179.92 261.441H184.84V261.461H189ZM187.6 268.581C188.706 268.581 189.533 268.541 190.08 268.461C190.64 268.368 191.026 268.208 191.24 267.981C191.466 267.754 191.58 267.421 191.58 266.981C191.58 266.541 191.473 266.214 191.26 266.001C191.06 265.774 190.68 265.621 190.12 265.541C189.573 265.461 188.733 265.421 187.6 265.421H184.84V268.581H187.6ZM202.813 272.301C207.88 272.274 211.553 272.201 213.833 272.081C213.74 272.628 213.68 273.194 213.653 273.781C213.64 274.354 213.633 275.081 213.633 275.961H198.093C198.2 273.374 198.253 270.954 198.253 268.701C198.253 266.448 198.2 264.028 198.093 261.441H213.633V265.061H202.813V266.981C203.453 266.994 204.4 267.001 205.653 267.001C207.773 267.001 209.966 266.961 212.233 266.881V270.321C209.966 270.241 207.773 270.201 205.653 270.201C204.4 270.201 203.453 270.208 202.813 270.221V272.301ZM231.897 266.281C231.897 267.441 231.61 268.421 231.037 269.221C230.477 270.021 229.51 270.601 228.137 270.961C228.297 271.174 228.41 271.341 228.477 271.461L231.717 275.961H226.277C225.69 274.868 224.763 273.321 223.497 271.321H220.557V275.961H215.837C215.943 273.374 215.997 270.954 215.997 268.701C215.997 266.448 215.943 264.028 215.837 261.441H220.557V261.461H224.657C227.35 261.461 229.23 261.894 230.297 262.761C231.363 263.628 231.897 264.801 231.897 266.281ZM220.557 265.301V267.581H223.257C224.39 267.581 225.243 267.548 225.817 267.481C226.403 267.401 226.81 267.281 227.037 267.121C227.263 266.961 227.377 266.728 227.377 266.421C227.377 266.128 227.27 265.901 227.057 265.741C226.843 265.581 226.443 265.468 225.857 265.401C225.27 265.334 224.403 265.301 223.257 265.301H220.557ZM233.893 274.241C234.346 273.561 234.72 272.928 235.013 272.341C235.32 271.754 235.613 271.074 235.893 270.301C236.84 270.848 237.94 271.274 239.193 271.581C240.446 271.888 241.613 272.041 242.693 272.041C243.8 272.041 244.58 271.948 245.033 271.761C245.486 271.561 245.713 271.348 245.713 271.121C245.713 270.308 244.473 269.901 241.993 269.901C239.273 269.901 237.3 269.621 236.073 269.061C234.846 268.488 234.233 267.568 234.233 266.301C234.233 264.501 234.98 263.174 236.473 262.321C237.966 261.468 239.906 261.041 242.293 261.041C243.68 261.041 245.1 261.221 246.553 261.581C248.02 261.928 249.34 262.408 250.513 263.021C250.126 263.901 249.72 264.974 249.293 266.241C249.213 266.508 249.146 266.708 249.093 266.841C248.413 266.294 247.386 265.841 246.013 265.481C244.64 265.108 243.426 264.921 242.373 264.921C241.106 264.921 240.253 265.008 239.813 265.181C239.373 265.341 239.153 265.581 239.153 265.901C239.153 266.221 239.453 266.481 240.053 266.681C240.666 266.868 241.546 266.961 242.693 266.961C245.52 266.961 247.573 267.288 248.853 267.941C250.133 268.581 250.773 269.568 250.773 270.901C250.773 272.768 250.093 274.114 248.733 274.941C247.373 275.754 245.313 276.161 242.553 276.161C241.073 276.161 239.566 276.001 238.033 275.681C236.5 275.348 235.12 274.868 233.893 274.241ZM261.67 276.161C258.616 276.161 256.37 275.501 254.93 274.181C253.49 272.848 252.77 270.981 252.77 268.581C252.77 266.208 253.483 264.354 254.91 263.021C256.35 261.688 258.603 261.021 261.67 261.021C264.75 261.021 267.003 261.688 268.43 263.021C269.87 264.354 270.59 266.208 270.59 268.581C270.59 270.994 269.876 272.861 268.45 274.181C267.023 275.501 264.763 276.161 261.67 276.161ZM261.67 272.081C263.15 272.081 264.216 271.801 264.87 271.241C265.523 270.668 265.85 269.781 265.85 268.581C265.85 267.408 265.523 266.534 264.87 265.961C264.216 265.388 263.15 265.101 261.67 265.101C260.203 265.101 259.143 265.388 258.49 265.961C257.836 266.534 257.51 267.408 257.51 268.581C257.51 269.768 257.836 270.648 258.49 271.221C259.143 271.794 260.203 272.081 261.67 272.081ZM289.364 261.461C289.27 263.714 289.224 266.128 289.224 268.701C289.224 271.288 289.27 273.708 289.364 275.961H282.204L277.364 265.041L277.724 275.961H272.584C272.69 273.374 272.744 270.954 272.744 268.701C272.744 266.461 272.69 264.048 272.584 261.461H279.944L284.804 272.681L284.464 261.461H289.364ZM303.983 275.961C303.729 275.201 303.389 274.248 302.963 273.101H296.583L295.583 275.961H290.562L296.163 261.441H303.523L309.163 275.961H303.983ZM301.823 269.981C301.316 268.581 300.796 267.181 300.263 265.781L299.783 264.481C299.316 265.694 298.629 267.528 297.723 269.981H301.823ZM315.119 271.921C318.986 271.894 322.186 271.828 324.719 271.721C324.546 272.401 324.439 273.054 324.399 273.681C324.359 274.308 324.339 275.068 324.339 275.961H310.239C310.346 273.374 310.399 270.954 310.399 268.701C310.399 266.448 310.346 264.028 310.239 261.441H315.119V271.921ZM338.333 265.421C336.747 265.341 335.573 265.294 334.813 265.281V272.121C335.587 272.108 336.76 272.061 338.333 271.981V275.961H326.713V271.981C328.247 272.061 329.413 272.108 330.213 272.121V265.281C329.413 265.294 328.247 265.341 326.713 265.421V261.441H338.333V265.421ZM346.976 272.021C347.736 272.008 349.696 271.954 352.856 271.861C353.256 271.848 353.723 271.828 354.256 271.801C354.789 271.774 355.383 271.754 356.036 271.741C355.943 272.368 355.883 272.994 355.856 273.621C355.843 274.248 355.836 275.028 355.836 275.961H340.496V271.501C341.229 271.088 342.029 270.581 342.896 269.981C343.763 269.368 344.883 268.568 346.256 267.581C347.536 266.648 348.463 265.981 349.036 265.581C347.983 265.594 345.869 265.668 342.696 265.801C341.603 265.854 340.869 265.888 340.496 265.901C340.496 264.914 340.483 264.088 340.456 263.421C340.443 262.754 340.403 262.094 340.336 261.441H355.836V265.921C355.129 266.388 353.823 267.294 351.916 268.641C349.783 270.161 348.136 271.288 346.976 272.021ZM362.761 272.301C367.827 272.274 371.501 272.201 373.781 272.081C373.687 272.628 373.627 273.194 373.601 273.781C373.587 274.354 373.581 275.081 373.581 275.961H358.041C358.147 273.374 358.201 270.954 358.201 268.701C358.201 266.448 358.147 264.028 358.041 261.441H373.581V265.061H362.761V266.981C363.401 266.994 364.347 267.001 365.601 267.001C367.721 267.001 369.914 266.961 372.181 266.881V270.321C369.914 270.241 367.721 270.201 365.601 270.201C364.347 270.201 363.401 270.208 362.761 270.221V272.301ZM382.184 261.221C384.691 261.221 386.671 261.528 388.124 262.141C389.578 262.741 390.591 263.581 391.164 264.661C391.751 265.728 392.044 267.041 392.044 268.601C392.044 270.081 391.711 271.374 391.044 272.481C390.378 273.588 389.378 274.448 388.044 275.061C386.711 275.661 385.071 275.961 383.124 275.961C381.938 275.961 380.731 275.961 379.504 275.961C378.278 275.961 377.038 275.954 375.784 275.941C375.891 273.314 375.944 270.868 375.944 268.601C375.944 266.308 375.891 263.914 375.784 261.421C377.371 261.288 379.504 261.221 382.184 261.221ZM383.684 271.981C384.924 271.981 385.751 271.681 386.164 271.081C386.578 270.481 386.784 269.654 386.784 268.601C386.784 267.588 386.564 266.768 386.124 266.141C385.698 265.514 384.884 265.201 383.684 265.201C382.391 265.201 381.424 265.241 380.784 265.321V271.981H383.684ZM414.52 261.421V268.481C414.52 270.974 413.873 272.881 412.58 274.201C411.3 275.508 409.266 276.161 406.48 276.161C404.88 276.161 403.4 275.928 402.04 275.461C400.693 274.994 399.493 274.388 398.44 273.641C398.693 272.814 398.9 272.021 399.06 271.261C399.22 270.501 399.34 269.668 399.42 268.761C400.793 269.868 402.06 270.634 403.22 271.061C404.38 271.488 405.486 271.701 406.54 271.701C407.633 271.701 408.413 271.454 408.88 270.961C409.346 270.468 409.586 269.621 409.6 268.421V266.901C409.6 264.741 409.54 262.914 409.42 261.421H414.52ZM425.416 276.161C422.362 276.161 420.116 275.501 418.676 274.181C417.236 272.848 416.516 270.981 416.516 268.581C416.516 266.208 417.229 264.354 418.656 263.021C420.096 261.688 422.349 261.021 425.416 261.021C428.496 261.021 430.749 261.688 432.176 263.021C433.616 264.354 434.336 266.208 434.336 268.581C434.336 270.994 433.622 272.861 432.196 274.181C430.769 275.501 428.509 276.161 425.416 276.161ZM425.416 272.081C426.896 272.081 427.962 271.801 428.616 271.241C429.269 270.668 429.596 269.781 429.596 268.581C429.596 267.408 429.269 266.534 428.616 265.961C427.962 265.388 426.896 265.101 425.416 265.101C423.949 265.101 422.889 265.388 422.236 265.961C421.582 266.534 421.256 267.408 421.256 268.581C421.256 269.768 421.582 270.648 422.236 271.221C422.889 271.794 423.949 272.081 425.416 272.081ZM448.05 268.741C451.09 268.741 452.61 269.708 452.61 271.641C452.61 272.548 452.403 273.321 451.99 273.961C451.576 274.588 450.836 275.081 449.77 275.441C448.703 275.788 447.223 275.961 445.33 275.961H436.33C436.436 273.374 436.49 270.954 436.49 268.701C436.49 266.448 436.436 264.028 436.33 261.441H441.03V261.461H445.29C446.943 261.461 448.243 261.601 449.19 261.881C450.15 262.148 450.823 262.541 451.21 263.061C451.61 263.581 451.81 264.241 451.81 265.041C451.81 265.854 451.523 266.581 450.95 267.221C450.39 267.848 449.423 268.354 448.05 268.741ZM441.03 265.101V266.961H444.87C445.696 266.961 446.27 266.888 446.59 266.741C446.923 266.594 447.09 266.328 447.09 265.941C447.09 265.634 446.916 265.421 446.57 265.301C446.236 265.168 445.67 265.101 444.87 265.101H441.03ZM444.87 272.301C445.563 272.301 446.09 272.274 446.45 272.221C446.823 272.154 447.09 272.048 447.25 271.901C447.41 271.741 447.49 271.528 447.49 271.261C447.49 270.914 447.296 270.668 446.91 270.521C446.536 270.361 445.856 270.281 444.87 270.281H441.03V272.301H444.87ZM136.86 298.281C136.86 299.441 136.573 300.421 136 301.221C135.44 302.021 134.473 302.601 133.1 302.961C133.26 303.174 133.373 303.341 133.44 303.461L136.68 307.961H131.24C130.653 306.868 129.727 305.321 128.46 303.321H125.52V307.961H120.8C120.907 305.374 120.96 302.954 120.96 300.701C120.96 298.448 120.907 296.028 120.8 293.441H125.52V293.461H129.62C132.313 293.461 134.193 293.894 135.26 294.761C136.327 295.628 136.86 296.801 136.86 298.281ZM125.52 297.301V299.581H128.22C129.353 299.581 130.207 299.548 130.78 299.481C131.367 299.401 131.773 299.281 132 299.121C132.227 298.961 132.34 298.728 132.34 298.421C132.34 298.128 132.233 297.901 132.02 297.741C131.807 297.581 131.407 297.468 130.82 297.401C130.233 297.334 129.367 297.301 128.22 297.301H125.52ZM143.576 304.301C148.643 304.274 152.316 304.201 154.596 304.081C154.503 304.628 154.443 305.194 154.416 305.781C154.403 306.354 154.396 307.081 154.396 307.961H138.856C138.963 305.374 139.016 302.954 139.016 300.701C139.016 298.448 138.963 296.028 138.856 293.441H154.396V297.061H143.576V298.981C144.216 298.994 145.163 299.001 146.416 299.001C148.536 299.001 150.73 298.961 152.996 298.881V302.321C150.73 302.241 148.536 302.201 146.416 302.201C145.163 302.201 144.216 302.208 143.576 302.221V304.301ZM165.4 308.161C162.387 308.161 160.167 307.521 158.74 306.241C157.313 304.961 156.6 303.134 156.6 300.761C156.6 298.374 157.313 296.488 158.74 295.101C160.167 293.714 162.387 293.021 165.4 293.021C169.613 293.021 172.433 294.468 173.86 297.361C172.66 297.774 171.253 298.394 169.64 299.221C169.253 298.474 168.64 297.921 167.8 297.561C166.973 297.201 166.127 297.021 165.26 297.021C163.98 297.021 163.027 297.361 162.4 298.041C161.773 298.708 161.46 299.534 161.46 300.521C161.46 301.588 161.793 302.461 162.46 303.141C163.14 303.808 164.173 304.141 165.56 304.141C166.667 304.141 167.547 303.961 168.2 303.601C168.853 303.228 169.333 302.641 169.64 301.841C170.733 302.428 172.133 303.088 173.84 303.821C173.173 305.434 172.06 306.561 170.5 307.201C168.94 307.841 167.24 308.161 165.4 308.161ZM184.162 308.161C181.108 308.161 178.862 307.501 177.422 306.181C175.982 304.848 175.262 302.981 175.262 300.581C175.262 298.208 175.975 296.354 177.402 295.021C178.842 293.688 181.095 293.021 184.162 293.021C187.242 293.021 189.495 293.688 190.922 295.021C192.362 296.354 193.082 298.208 193.082 300.581C193.082 302.994 192.368 304.861 190.942 306.181C189.515 307.501 187.255 308.161 184.162 308.161ZM184.162 304.081C185.642 304.081 186.708 303.801 187.362 303.241C188.015 302.668 188.342 301.781 188.342 300.581C188.342 299.408 188.015 298.534 187.362 297.961C186.708 297.388 185.642 297.101 184.162 297.101C182.695 297.101 181.635 297.388 180.982 297.961C180.328 298.534 180.002 299.408 180.002 300.581C180.002 301.768 180.328 302.648 180.982 303.221C181.635 303.794 182.695 304.081 184.162 304.081ZM213.385 293.441L214.945 307.961H209.765L209.445 297.601L207.445 307.961H202.205L200.165 297.681L199.865 307.961H194.685L196.245 293.441H203.045L204.785 302.901L206.305 293.441H213.385ZM235.641 293.441L237.201 307.961H232.021L231.701 297.601L229.701 307.961H224.461L222.421 297.681L222.121 307.961H216.941L218.501 293.441H225.301L227.041 302.901L228.561 293.441H235.641ZM243.916 304.301C248.983 304.274 252.656 304.201 254.936 304.081C254.843 304.628 254.783 305.194 254.756 305.781C254.743 306.354 254.736 307.081 254.736 307.961H239.196C239.303 305.374 239.356 302.954 239.356 300.701C239.356 298.448 239.303 296.028 239.196 293.441H254.736V297.061H243.916V298.981C244.556 298.994 245.503 299.001 246.756 299.001C248.876 299.001 251.069 298.961 253.336 298.881V302.321C251.069 302.241 248.876 302.201 246.756 302.201C245.503 302.201 244.556 302.208 243.916 302.221V304.301ZM273.72 293.461C273.627 295.714 273.58 298.128 273.58 300.701C273.58 303.288 273.627 305.708 273.72 307.961H266.56L261.72 297.041L262.08 307.961H256.94C257.047 305.374 257.1 302.954 257.1 300.701C257.1 298.461 257.047 296.048 256.94 293.461H264.3L269.16 304.681L268.82 293.461H273.72ZM282.119 293.221C284.625 293.221 286.605 293.528 288.059 294.141C289.512 294.741 290.525 295.581 291.099 296.661C291.685 297.728 291.979 299.041 291.979 300.601C291.979 302.081 291.645 303.374 290.979 304.481C290.312 305.588 289.312 306.448 287.979 307.061C286.645 307.661 285.005 307.961 283.059 307.961C281.872 307.961 280.665 307.961 279.439 307.961C278.212 307.961 276.972 307.954 275.719 307.941C275.825 305.314 275.879 302.868 275.879 300.601C275.879 298.308 275.825 295.914 275.719 293.421C277.305 293.288 279.439 293.221 282.119 293.221ZM283.619 303.981C284.859 303.981 285.685 303.681 286.099 303.081C286.512 302.481 286.719 301.654 286.719 300.601C286.719 299.588 286.499 298.768 286.059 298.141C285.632 297.514 284.819 297.201 283.619 297.201C282.325 297.201 281.359 297.241 280.719 297.321V303.981H283.619ZM305.399 307.961C305.146 307.201 304.806 306.248 304.379 305.101H297.999L296.999 307.961H291.979L297.579 293.441H304.939L310.579 307.961H305.399ZM303.239 301.981C302.732 300.581 302.212 299.181 301.679 297.781L301.199 296.481C300.732 297.694 300.046 299.528 299.139 301.981H303.239ZM328.035 297.641C325.941 297.574 323.908 297.534 321.935 297.521V307.961H316.935V297.521C314.948 297.534 312.921 297.574 310.855 297.641V293.441H328.035V297.641ZM341.664 297.421C340.077 297.341 338.904 297.294 338.144 297.281V304.121C338.917 304.108 340.09 304.061 341.664 303.981V307.961H330.044V303.981C331.577 304.061 332.744 304.108 333.544 304.121V297.281C332.744 297.294 331.577 297.341 330.044 297.421V293.441H341.664V297.421ZM352.566 308.161C349.513 308.161 347.266 307.501 345.826 306.181C344.386 304.848 343.666 302.981 343.666 300.581C343.666 298.208 344.38 296.354 345.806 295.021C347.246 293.688 349.5 293.021 352.566 293.021C355.646 293.021 357.9 293.688 359.326 295.021C360.766 296.354 361.486 298.208 361.486 300.581C361.486 302.994 360.773 304.861 359.346 306.181C357.92 307.501 355.66 308.161 352.566 308.161ZM352.566 304.081C354.046 304.081 355.113 303.801 355.766 303.241C356.42 302.668 356.746 301.781 356.746 300.581C356.746 299.408 356.42 298.534 355.766 297.961C355.113 297.388 354.046 297.101 352.566 297.101C351.1 297.101 350.04 297.388 349.386 297.961C348.733 298.534 348.406 299.408 348.406 300.581C348.406 301.768 348.733 302.648 349.386 303.221C350.04 303.794 351.1 304.081 352.566 304.081ZM380.26 293.461C380.167 295.714 380.12 298.128 380.12 300.701C380.12 303.288 380.167 305.708 380.26 307.961H373.1L368.26 297.041L368.62 307.961H363.48C363.587 305.374 363.64 302.954 363.64 300.701C363.64 298.461 363.587 296.048 363.48 293.461H370.84L375.7 304.681L375.36 293.461H380.26ZM382.259 306.241C382.713 305.561 383.086 304.928 383.379 304.341C383.686 303.754 383.979 303.074 384.259 302.301C385.206 302.848 386.306 303.274 387.559 303.581C388.813 303.888 389.979 304.041 391.059 304.041C392.166 304.041 392.946 303.948 393.399 303.761C393.853 303.561 394.079 303.348 394.079 303.121C394.079 302.308 392.839 301.901 390.359 301.901C387.639 301.901 385.666 301.621 384.439 301.061C383.213 300.488 382.599 299.568 382.599 298.301C382.599 296.501 383.346 295.174 384.839 294.321C386.333 293.468 388.273 293.041 390.659 293.041C392.046 293.041 393.466 293.221 394.919 293.581C396.386 293.928 397.706 294.408 398.879 295.021C398.493 295.901 398.086 296.974 397.659 298.241C397.579 298.508 397.513 298.708 397.459 298.841C396.779 298.294 395.753 297.841 394.379 297.481C393.006 297.108 391.793 296.921 390.739 296.921C389.473 296.921 388.619 297.008 388.179 297.181C387.739 297.341 387.519 297.581 387.519 297.901C387.519 298.221 387.819 298.481 388.419 298.681C389.033 298.868 389.913 298.961 391.059 298.961C393.886 298.961 395.939 299.288 397.219 299.941C398.499 300.581 399.139 301.568 399.139 302.901C399.139 304.768 398.459 306.114 397.099 306.941C395.739 307.754 393.679 308.161 390.919 308.161C389.439 308.161 387.933 308.001 386.399 307.681C384.866 307.348 383.486 306.868 382.259 306.241Z" fill="#454C62"/>
<path d="M578.444 151.722C596.644 150.714 610.756 149.594 620.78 148.362C619.828 151.274 619.1 154.354 618.596 157.602C618.092 160.85 617.84 163.79 617.84 166.422H557.78L557.696 164.658C557.696 159.17 559.292 154.41 562.484 150.378C565.732 146.346 570.24 142.622 576.008 139.206C577.688 138.198 580.32 136.91 583.904 135.342C588.552 133.326 592.136 131.562 594.656 130.05C597.176 128.482 598.436 126.942 598.436 125.43C598.436 123.526 597.652 122.014 596.084 120.894C594.516 119.774 592.08 119.214 588.776 119.214C585.136 119.214 582.364 120.138 580.46 121.986C578.612 123.834 577.688 126.186 577.688 129.042C577.688 129.938 577.772 130.862 577.94 131.814C570.884 130.918 564.024 130.302 557.36 129.966C557.36 125.206 558.592 120.922 561.056 117.114C563.576 113.25 567.328 110.198 572.312 107.958C577.352 105.718 583.512 104.598 590.792 104.598C597.456 104.598 603 105.522 607.424 107.37C611.904 109.162 615.18 111.458 617.252 114.258C619.38 117.002 620.444 119.83 620.444 122.742C620.444 126.102 619.688 128.986 618.176 131.394C616.72 133.802 614.592 135.958 611.792 137.862C609.048 139.71 605.352 141.726 600.704 143.91C600.032 144.246 598.94 144.638 597.428 145.086C595.916 145.478 594.964 145.73 594.572 145.842C590.596 147.018 587.432 147.998 585.08 148.782C582.728 149.566 580.516 150.546 578.444 151.722Z" fill="#58B368"/>
<path d="M564.6 244.622C561.587 244.622 559.367 243.982 557.94 242.702C556.513 241.422 555.8 239.595 555.8 237.222C555.8 234.835 556.513 232.949 557.94 231.562C559.367 230.175 561.587 229.482 564.6 229.482C568.813 229.482 571.633 230.929 573.06 233.822C571.86 234.235 570.453 234.855 568.84 235.682C568.453 234.935 567.84 234.382 567 234.022C566.173 233.662 565.327 233.482 564.46 233.482C563.18 233.482 562.227 233.822 561.6 234.502C560.973 235.169 560.66 235.995 560.66 236.982C560.66 238.049 560.993 238.922 561.66 239.602C562.34 240.269 563.373 240.602 564.76 240.602C565.867 240.602 566.747 240.422 567.4 240.062C568.053 239.689 568.533 239.102 568.84 238.302C569.933 238.889 571.333 239.549 573.04 240.282C572.373 241.895 571.26 243.022 569.7 243.662C568.14 244.302 566.44 244.622 564.6 244.622ZM583.362 244.622C580.308 244.622 578.062 243.962 576.622 242.642C575.182 241.309 574.462 239.442 574.462 237.042C574.462 234.669 575.175 232.815 576.602 231.482C578.042 230.149 580.295 229.482 583.362 229.482C586.442 229.482 588.695 230.149 590.122 231.482C591.562 232.815 592.282 234.669 592.282 237.042C592.282 239.455 591.568 241.322 590.142 242.642C588.715 243.962 586.455 244.622 583.362 244.622ZM583.362 240.542C584.842 240.542 585.908 240.262 586.562 239.702C587.215 239.129 587.542 238.242 587.542 237.042C587.542 235.869 587.215 234.995 586.562 234.422C585.908 233.849 584.842 233.562 583.362 233.562C581.895 233.562 580.835 233.849 580.182 234.422C579.528 234.995 579.202 235.869 579.202 237.042C579.202 238.229 579.528 239.109 580.182 239.682C580.835 240.255 581.895 240.542 583.362 240.542ZM611.056 229.922C610.962 232.175 610.916 234.589 610.916 237.162C610.916 239.749 610.962 242.169 611.056 244.422H603.896L599.056 233.502L599.416 244.422H594.276C594.382 241.835 594.436 239.415 594.436 237.162C594.436 234.922 594.382 232.509 594.276 229.922H601.636L606.496 241.142L606.156 229.922H611.056ZM629.835 229.922C629.741 232.175 629.695 234.589 629.695 237.162C629.695 239.749 629.741 242.169 629.835 244.422H622.675L617.835 233.502L618.195 244.422H613.055C613.161 241.835 613.215 239.415 613.215 237.162C613.215 234.922 613.161 232.509 613.055 229.922H620.415L625.275 241.142L624.935 229.922H629.835ZM636.554 240.762C641.62 240.735 645.294 240.662 647.574 240.542C647.48 241.089 647.42 241.655 647.394 242.242C647.38 242.815 647.374 243.542 647.374 244.422H631.834C631.94 241.835 631.994 239.415 631.994 237.162C631.994 234.909 631.94 232.489 631.834 229.902H647.374V233.522H636.554V235.442C637.194 235.455 638.14 235.462 639.394 235.462C641.514 235.462 643.707 235.422 645.974 235.342V238.782C643.707 238.702 641.514 238.662 639.394 238.662C638.14 238.662 637.194 238.669 636.554 238.682V240.762ZM658.377 244.622C655.364 244.622 653.144 243.982 651.717 242.702C650.291 241.422 649.577 239.595 649.577 237.222C649.577 234.835 650.291 232.949 651.717 231.562C653.144 230.175 655.364 229.482 658.377 229.482C662.591 229.482 665.411 230.929 666.837 233.822C665.637 234.235 664.231 234.855 662.617 235.682C662.231 234.935 661.617 234.382 660.777 234.022C659.951 233.662 659.104 233.482 658.237 233.482C656.957 233.482 656.004 233.822 655.377 234.502C654.751 235.169 654.437 235.995 654.437 236.982C654.437 238.049 654.771 238.922 655.437 239.602C656.117 240.269 657.151 240.602 658.537 240.602C659.644 240.602 660.524 240.422 661.177 240.062C661.831 239.689 662.311 239.102 662.617 238.302C663.711 238.889 665.111 239.549 666.817 240.282C666.151 241.895 665.037 243.022 663.477 243.662C661.917 244.302 660.217 244.622 658.377 244.622ZM686.025 234.102C683.931 234.035 681.898 233.995 679.925 233.982V244.422H674.925V233.982C672.938 233.995 670.911 234.035 668.845 234.102V229.902H686.025V234.102ZM706.837 238.962L707.877 229.902H712.757L710.077 244.422H703.937L702.577 236.322L700.997 244.422H695.117L692.437 229.902H697.317L698.337 238.842L699.937 229.902H705.277L706.837 238.962ZM726.372 233.882C724.785 233.802 723.612 233.755 722.852 233.742V240.582C723.625 240.569 724.798 240.522 726.372 240.442V244.422H714.752V240.442C716.285 240.522 717.452 240.569 718.252 240.582V233.742C717.452 233.755 716.285 233.802 714.752 233.882V229.902H726.372V233.882ZM745.554 234.102C743.461 234.035 741.428 233.995 739.454 233.982V244.422H734.454V233.982C732.468 233.995 730.441 234.035 728.374 234.102V229.902H745.554V234.102ZM764.323 229.902C764.23 232.155 764.183 234.575 764.183 237.162C764.183 239.749 764.23 242.169 764.323 244.422H759.623V238.982H752.263V244.422H747.563C747.67 241.835 747.723 239.415 747.723 237.162C747.723 234.909 747.67 232.489 747.563 229.902H752.263V235.342H759.623V229.902H764.323ZM560.52 272.762C565.587 272.735 569.26 272.662 571.54 272.542C571.447 273.089 571.387 273.655 571.36 274.242C571.347 274.815 571.34 275.542 571.34 276.422H555.8C555.907 273.835 555.96 271.415 555.96 269.162C555.96 266.909 555.907 264.489 555.8 261.902H571.34V265.522H560.52V267.442C561.16 267.455 562.107 267.462 563.36 267.462C565.48 267.462 567.673 267.422 569.94 267.342V270.782C567.673 270.702 565.48 270.662 563.36 270.662C562.107 270.662 561.16 270.669 560.52 270.682V272.762ZM591.853 261.902L593.413 276.422H588.233L587.913 266.062L585.913 276.422H580.673L578.633 266.142L578.333 276.422H573.153L574.713 261.902H581.513L583.253 271.362L584.773 261.902H591.853ZM604.489 261.922C607.142 261.922 608.989 262.395 610.029 263.342C611.069 264.275 611.589 265.595 611.589 267.302C611.589 268.475 611.382 269.475 610.969 270.302C610.555 271.115 609.829 271.755 608.789 272.222C607.749 272.675 606.315 272.902 604.489 272.902H600.329V276.422H595.409C595.515 273.835 595.569 271.415 595.569 269.162C595.569 266.909 595.515 264.489 595.409 261.902H600.329V261.922H604.489ZM603.089 269.042C604.195 269.042 605.022 269.002 605.569 268.922C606.129 268.829 606.515 268.669 606.729 268.442C606.955 268.215 607.069 267.882 607.069 267.442C607.069 267.002 606.962 266.675 606.749 266.462C606.549 266.235 606.169 266.082 605.609 266.002C605.062 265.922 604.222 265.882 603.089 265.882H600.329V269.042H603.089ZM618.462 272.382C622.329 272.355 625.529 272.289 628.062 272.182C627.889 272.862 627.782 273.515 627.742 274.142C627.702 274.769 627.682 275.529 627.682 276.422H613.582C613.689 273.835 613.742 271.415 613.742 269.162C613.742 266.909 613.689 264.489 613.582 261.902H618.462V272.382ZM637.96 276.622C634.907 276.622 632.66 275.962 631.22 274.642C629.78 273.309 629.06 271.442 629.06 269.042C629.06 266.669 629.773 264.815 631.2 263.482C632.64 262.149 634.893 261.482 637.96 261.482C641.04 261.482 643.293 262.149 644.72 263.482C646.16 264.815 646.88 266.669 646.88 269.042C646.88 271.455 646.167 273.322 644.74 274.642C643.313 275.962 641.053 276.622 637.96 276.622ZM637.96 272.542C639.44 272.542 640.507 272.262 641.16 271.702C641.813 271.129 642.14 270.242 642.14 269.042C642.14 267.869 641.813 266.995 641.16 266.422C640.507 265.849 639.44 265.562 637.96 265.562C636.493 265.562 635.433 265.849 634.78 266.422C634.127 266.995 633.8 267.869 633.8 269.042C633.8 270.229 634.127 271.109 634.78 271.682C635.433 272.255 636.493 272.542 637.96 272.542ZM665.678 261.902L665.298 262.482C663.871 264.695 662.645 266.655 661.618 268.362C660.605 270.055 659.758 271.615 659.078 273.042V276.422H653.858V272.702C653.365 271.702 652.785 270.675 652.118 269.622C651.451 268.555 650.505 267.095 649.278 265.242C648.318 263.829 647.585 262.715 647.078 261.902H652.678C653.078 262.715 653.731 263.922 654.638 265.522C655.545 267.149 656.165 268.295 656.498 268.962C656.965 267.989 657.591 266.795 658.378 265.382C659.298 263.729 659.918 262.569 660.238 261.902H665.678ZM671.865 272.762C676.932 272.735 680.605 272.662 682.885 272.542C682.792 273.089 682.732 273.655 682.705 274.242C682.692 274.815 682.685 275.542 682.685 276.422H667.145C667.252 273.835 667.305 271.415 667.305 269.162C667.305 266.909 667.252 264.489 667.145 261.902H682.685V265.522H671.865V267.442C672.505 267.455 673.452 267.462 674.705 267.462C676.825 267.462 679.019 267.422 681.285 267.342V270.782C679.019 270.702 676.825 270.662 674.705 270.662C673.452 270.662 672.505 270.669 671.865 270.682V272.762ZM700.949 266.742C700.949 267.902 700.662 268.882 700.089 269.682C699.529 270.482 698.562 271.062 697.189 271.422C697.349 271.635 697.462 271.802 697.529 271.922L700.769 276.422H695.329C694.742 275.329 693.816 273.782 692.549 271.782H689.609V276.422H684.889C684.996 273.835 685.049 271.415 685.049 269.162C685.049 266.909 684.996 264.489 684.889 261.902H689.609V261.922H693.709C696.402 261.922 698.282 262.355 699.349 263.222C700.416 264.089 700.949 265.262 700.949 266.742ZM689.609 265.762V268.042H692.309C693.442 268.042 694.296 268.009 694.869 267.942C695.456 267.862 695.862 267.742 696.089 267.582C696.316 267.422 696.429 267.189 696.429 266.882C696.429 266.589 696.322 266.362 696.109 266.202C695.896 266.042 695.496 265.929 694.909 265.862C694.322 265.795 693.456 265.762 692.309 265.762H689.609ZM702.945 274.702C703.399 274.022 703.772 273.389 704.065 272.802C704.372 272.215 704.665 271.535 704.945 270.762C705.892 271.309 706.992 271.735 708.245 272.042C709.499 272.349 710.665 272.502 711.745 272.502C712.852 272.502 713.632 272.409 714.085 272.222C714.539 272.022 714.765 271.809 714.765 271.582C714.765 270.769 713.525 270.362 711.045 270.362C708.325 270.362 706.352 270.082 705.125 269.522C703.899 268.949 703.285 268.029 703.285 266.762C703.285 264.962 704.032 263.635 705.525 262.782C707.019 261.929 708.959 261.502 711.345 261.502C712.732 261.502 714.152 261.682 715.605 262.042C717.072 262.389 718.392 262.869 719.565 263.482C719.179 264.362 718.772 265.435 718.345 266.702C718.265 266.969 718.199 267.169 718.145 267.302C717.465 266.755 716.439 266.302 715.065 265.942C713.692 265.569 712.479 265.382 711.425 265.382C710.159 265.382 709.305 265.469 708.865 265.642C708.425 265.802 708.205 266.042 708.205 266.362C708.205 266.682 708.505 266.942 709.105 267.142C709.719 267.329 710.599 267.422 711.745 267.422C714.572 267.422 716.625 267.749 717.905 268.402C719.185 269.042 719.825 270.029 719.825 271.362C719.825 273.229 719.145 274.575 717.785 275.402C716.425 276.215 714.365 276.622 711.605 276.622C710.125 276.622 708.619 276.462 707.085 276.142C705.552 275.809 704.172 275.329 702.945 274.702ZM743.406 266.102C741.312 266.035 739.279 265.995 737.306 265.982V276.422H732.306V265.982C730.319 265.995 728.292 266.035 726.226 266.102V261.902H743.406V266.102ZM753.123 276.622C750.07 276.622 747.823 275.962 746.383 274.642C744.943 273.309 744.223 271.442 744.223 269.042C744.223 266.669 744.937 264.815 746.363 263.482C747.803 262.149 750.057 261.482 753.123 261.482C756.203 261.482 758.457 262.149 759.883 263.482C761.323 264.815 762.043 266.669 762.043 269.042C762.043 271.455 761.33 273.322 759.903 274.642C758.477 275.962 756.217 276.622 753.123 276.622ZM753.123 272.542C754.603 272.542 755.67 272.262 756.323 271.702C756.977 271.129 757.303 270.242 757.303 269.042C757.303 267.869 756.977 266.995 756.323 266.422C755.67 265.849 754.603 265.562 753.123 265.562C751.657 265.562 750.597 265.849 749.943 266.422C749.29 266.995 748.963 267.869 748.963 269.042C748.963 270.229 749.29 271.109 749.943 271.682C750.597 272.255 751.657 272.542 753.123 272.542ZM773.321 272.382C777.188 272.355 780.388 272.289 782.921 272.182C782.748 272.862 782.641 273.515 782.601 274.142C782.561 274.769 782.541 275.529 782.541 276.422H768.441C768.548 273.835 768.601 271.415 768.601 269.162C768.601 266.909 768.548 264.489 768.441 261.902H773.321V272.382ZM789.636 272.762C794.702 272.735 798.376 272.662 800.656 272.542C800.562 273.089 800.502 273.655 800.476 274.242C800.462 274.815 800.456 275.542 800.456 276.422H784.916C785.022 273.835 785.076 271.415 785.076 269.162C785.076 266.909 785.022 264.489 784.916 261.902H800.456V265.522H789.636V267.442C790.276 267.455 791.222 267.462 792.476 267.462C794.596 267.462 796.789 267.422 799.056 267.342V270.782C796.789 270.702 794.596 270.662 792.476 270.662C791.222 270.662 790.276 270.669 789.636 270.682V272.762ZM814.088 276.422C813.835 275.662 813.495 274.709 813.068 273.562H806.688L805.688 276.422H800.668L806.268 261.902H813.628L819.268 276.422H814.088ZM811.928 270.442C811.421 269.042 810.901 267.642 810.368 266.242L809.888 264.942C809.421 266.155 808.735 267.989 807.828 270.442H811.928ZM836.795 266.742C836.795 267.902 836.508 268.882 835.935 269.682C835.375 270.482 834.408 271.062 833.035 271.422C833.195 271.635 833.308 271.802 833.375 271.922L836.615 276.422H831.175C830.588 275.329 829.662 273.782 828.395 271.782H825.455V276.422H820.735C820.842 273.835 820.895 271.415 820.895 269.162C820.895 266.909 820.842 264.489 820.735 261.902H825.455V261.922H829.555C832.248 261.922 834.128 262.355 835.195 263.222C836.262 264.089 836.795 265.262 836.795 266.742ZM825.455 265.762V268.042H828.155C829.288 268.042 830.142 268.009 830.715 267.942C831.302 267.862 831.708 267.742 831.935 267.582C832.162 267.422 832.275 267.189 832.275 266.882C832.275 266.589 832.168 266.362 831.955 266.202C831.742 266.042 831.342 265.929 830.755 265.862C830.168 265.795 829.302 265.762 828.155 265.762H825.455ZM855.571 261.922C855.478 264.175 855.431 266.589 855.431 269.162C855.431 271.749 855.478 274.169 855.571 276.422H848.411L843.571 265.502L843.931 276.422H838.791C838.898 273.835 838.951 271.415 838.951 269.162C838.951 266.922 838.898 264.509 838.791 261.922H846.151L851.011 273.142L850.671 261.922H855.571ZM574.5 293.902L576.06 308.422H570.88L570.56 298.062L568.56 308.422H563.32L561.28 298.142L560.98 308.422H555.8L557.36 293.902H564.16L565.9 303.362L567.42 293.902H574.5ZM586.565 308.622C583.512 308.622 581.265 307.962 579.825 306.642C578.385 305.309 577.665 303.442 577.665 301.042C577.665 298.669 578.378 296.815 579.805 295.482C581.245 294.149 583.498 293.482 586.565 293.482C589.645 293.482 591.898 294.149 593.325 295.482C594.765 296.815 595.485 298.669 595.485 301.042C595.485 303.455 594.772 305.322 593.345 306.642C591.918 307.962 589.658 308.622 586.565 308.622ZM586.565 304.542C588.045 304.542 589.112 304.262 589.765 303.702C590.418 303.129 590.745 302.242 590.745 301.042C590.745 299.869 590.418 298.995 589.765 298.422C589.112 297.849 588.045 297.562 586.565 297.562C585.098 297.562 584.038 297.849 583.385 298.422C582.732 298.995 582.405 299.869 582.405 301.042C582.405 302.229 582.732 303.109 583.385 303.682C584.038 304.255 585.098 304.542 586.565 304.542ZM613.539 298.742C613.539 299.902 613.252 300.882 612.679 301.682C612.119 302.482 611.152 303.062 609.779 303.422C609.939 303.635 610.052 303.802 610.119 303.922L613.359 308.422H607.919C607.332 307.329 606.406 305.782 605.139 303.782H602.199V308.422H597.479C597.586 305.835 597.639 303.415 597.639 301.162C597.639 298.909 597.586 296.489 597.479 293.902H602.199V293.922H606.299C608.992 293.922 610.872 294.355 611.939 295.222C613.006 296.089 613.539 297.262 613.539 298.742ZM602.199 297.762V300.042H604.899C606.032 300.042 606.886 300.009 607.459 299.942C608.046 299.862 608.452 299.742 608.679 299.582C608.906 299.422 609.019 299.189 609.019 298.882C609.019 298.589 608.912 298.362 608.699 298.202C608.486 298.042 608.086 297.929 607.499 297.862C606.912 297.795 606.046 297.762 604.899 297.762H602.199ZM620.255 304.762C625.322 304.735 628.995 304.662 631.275 304.542C631.182 305.089 631.122 305.655 631.095 306.242C631.082 306.815 631.075 307.542 631.075 308.422H615.535C615.642 305.835 615.695 303.415 615.695 301.162C615.695 298.909 615.642 296.489 615.535 293.902H631.075V297.522H620.255V299.442C620.895 299.455 621.842 299.462 623.095 299.462C625.215 299.462 627.408 299.422 629.675 299.342V302.782C627.408 302.702 625.215 302.662 623.095 302.662C621.842 302.662 620.895 302.669 620.255 302.682V304.762ZM650.303 308.422C650.049 307.662 649.709 306.709 649.283 305.562H642.903L641.903 308.422H636.883L642.483 293.902H649.843L655.483 308.422H650.303ZM648.143 302.442C647.636 301.042 647.116 299.642 646.583 298.242L646.103 296.942C645.636 298.155 644.949 299.989 644.043 302.442H648.143ZM668.279 301.202C671.319 301.202 672.839 302.169 672.839 304.102C672.839 305.009 672.633 305.782 672.219 306.422C671.806 307.049 671.066 307.542 669.999 307.902C668.933 308.249 667.453 308.422 665.559 308.422H656.559C656.666 305.835 656.719 303.415 656.719 301.162C656.719 298.909 656.666 296.489 656.559 293.902H661.259V293.922H665.519C667.173 293.922 668.473 294.062 669.419 294.342C670.379 294.609 671.053 295.002 671.439 295.522C671.839 296.042 672.039 296.702 672.039 297.502C672.039 298.315 671.753 299.042 671.179 299.682C670.619 300.309 669.653 300.815 668.279 301.202ZM661.259 297.562V299.422H665.099C665.926 299.422 666.499 299.349 666.819 299.202C667.153 299.055 667.319 298.789 667.319 298.402C667.319 298.095 667.146 297.882 666.799 297.762C666.466 297.629 665.899 297.562 665.099 297.562H661.259ZM665.099 304.762C665.793 304.762 666.319 304.735 666.679 304.682C667.053 304.615 667.319 304.509 667.479 304.362C667.639 304.202 667.719 303.989 667.719 303.722C667.719 303.375 667.526 303.129 667.139 302.982C666.766 302.822 666.086 302.742 665.099 302.742H661.259V304.762H665.099ZM683.73 308.622C680.677 308.622 678.43 307.962 676.99 306.642C675.55 305.309 674.83 303.442 674.83 301.042C674.83 298.669 675.544 296.815 676.97 295.482C678.41 294.149 680.664 293.482 683.73 293.482C686.81 293.482 689.064 294.149 690.49 295.482C691.93 296.815 692.65 298.669 692.65 301.042C692.65 303.455 691.937 305.322 690.51 306.642C689.084 307.962 686.824 308.622 683.73 308.622ZM683.73 304.542C685.21 304.542 686.277 304.262 686.93 303.702C687.584 303.129 687.91 302.242 687.91 301.042C687.91 299.869 687.584 298.995 686.93 298.422C686.277 297.849 685.21 297.562 683.73 297.562C682.264 297.562 681.204 297.849 680.55 298.422C679.897 298.995 679.57 299.869 679.57 301.042C679.57 302.229 679.897 303.109 680.55 303.682C681.204 304.255 682.264 304.542 683.73 304.542ZM706.485 293.882H711.445V301.842C711.418 303.802 710.745 305.422 709.425 306.702C708.118 307.982 705.911 308.622 702.805 308.622C699.658 308.622 697.505 308.015 696.345 306.802C695.185 305.575 694.618 303.969 694.645 301.982V293.882H699.605V301.662C699.605 302.249 699.645 302.729 699.725 303.102C699.818 303.462 700.098 303.802 700.565 304.122C701.045 304.442 701.811 304.602 702.865 304.602C704.011 304.602 704.851 304.442 705.385 304.122C705.918 303.789 706.231 303.422 706.325 303.022C706.431 302.622 706.485 302.109 706.485 301.482V293.882ZM730.623 298.102C728.53 298.035 726.496 297.995 724.523 297.982V308.422H719.523V297.982C717.536 297.995 715.51 298.035 713.443 298.102V293.902H730.623V298.102ZM745.836 308.622C742.823 308.622 740.603 307.982 739.176 306.702C737.749 305.422 737.036 303.595 737.036 301.222C737.036 298.835 737.749 296.949 739.176 295.562C740.603 294.175 742.823 293.482 745.836 293.482C750.049 293.482 752.869 294.929 754.296 297.822C753.096 298.235 751.689 298.855 750.076 299.682C749.689 298.935 749.076 298.382 748.236 298.022C747.409 297.662 746.563 297.482 745.696 297.482C744.416 297.482 743.463 297.822 742.836 298.502C742.209 299.169 741.896 299.995 741.896 300.982C741.896 302.049 742.229 302.922 742.896 303.602C743.576 304.269 744.609 304.602 745.996 304.602C747.103 304.602 747.983 304.422 748.636 304.062C749.289 303.689 749.769 303.102 750.076 302.302C751.169 302.889 752.569 303.549 754.276 304.282C753.609 305.895 752.496 307.022 750.936 307.662C749.376 308.302 747.676 308.622 745.836 308.622ZM764.598 308.622C761.544 308.622 759.298 307.962 757.858 306.642C756.418 305.309 755.698 303.442 755.698 301.042C755.698 298.669 756.411 296.815 757.838 295.482C759.278 294.149 761.531 293.482 764.598 293.482C767.678 293.482 769.931 294.149 771.358 295.482C772.798 296.815 773.518 298.669 773.518 301.042C773.518 303.455 772.804 305.322 771.378 306.642C769.951 307.962 767.691 308.622 764.598 308.622ZM764.598 304.542C766.078 304.542 767.144 304.262 767.798 303.702C768.451 303.129 768.778 302.242 768.778 301.042C768.778 299.869 768.451 298.995 767.798 298.422C767.144 297.849 766.078 297.562 764.598 297.562C763.131 297.562 762.071 297.849 761.418 298.422C760.764 298.995 760.438 299.869 760.438 301.042C760.438 302.229 760.764 303.109 761.418 303.682C762.071 304.255 763.131 304.542 764.598 304.542ZM793.821 293.902L795.381 308.422H790.201L789.881 298.062L787.881 308.422H782.641L780.601 298.142L780.301 308.422H775.121L776.681 293.902H783.481L785.221 303.362L786.741 293.902H793.821ZM806.457 293.922C809.11 293.922 810.957 294.395 811.997 295.342C813.037 296.275 813.557 297.595 813.557 299.302C813.557 300.475 813.35 301.475 812.937 302.302C812.523 303.115 811.797 303.755 810.757 304.222C809.717 304.675 808.283 304.902 806.457 304.902H802.297V308.422H797.377C797.483 305.835 797.537 303.415 797.537 301.162C797.537 298.909 797.483 296.489 797.377 293.902H802.297V293.922H806.457ZM805.057 301.042C806.163 301.042 806.99 301.002 807.537 300.922C808.097 300.829 808.483 300.669 808.697 300.442C808.923 300.215 809.037 299.882 809.037 299.442C809.037 299.002 808.93 298.675 808.717 298.462C808.517 298.235 808.137 298.082 807.577 298.002C807.03 297.922 806.19 297.882 805.057 297.882H802.297V301.042H805.057ZM826.178 308.422C825.924 307.662 825.584 306.709 825.158 305.562H818.778L817.778 308.422H812.758L818.358 293.902H825.718L831.358 308.422H826.178ZM824.018 302.442C823.511 301.042 822.991 299.642 822.458 298.242L821.978 296.942C821.511 298.155 820.824 299.989 819.918 302.442H824.018ZM849.214 293.922C849.121 296.175 849.074 298.589 849.074 301.162C849.074 303.749 849.121 306.169 849.214 308.422H842.054L837.214 297.502L837.574 308.422H832.434C832.541 305.835 832.594 303.415 832.594 301.162C832.594 298.922 832.541 296.509 832.434 293.922H839.794L844.654 305.142L844.314 293.922H849.214ZM869.013 293.902L868.633 294.482C867.207 296.695 865.98 298.655 864.953 300.362C863.94 302.055 863.093 303.615 862.413 305.042V308.422H857.193V304.702C856.7 303.702 856.12 302.675 855.453 301.622C854.787 300.555 853.84 299.095 852.613 297.242C851.653 295.829 850.92 294.715 850.413 293.902H856.013C856.413 294.715 857.067 295.922 857.973 297.522C858.88 299.149 859.5 300.295 859.833 300.962C860.3 299.989 860.927 298.795 861.713 297.382C862.633 295.729 863.253 294.569 863.573 293.902H869.013ZM564.6 340.622C561.587 340.622 559.367 339.982 557.94 338.702C556.513 337.422 555.8 335.595 555.8 333.222C555.8 330.835 556.513 328.949 557.94 327.562C559.367 326.175 561.587 325.482 564.6 325.482C568.813 325.482 571.633 326.929 573.06 329.822C571.86 330.235 570.453 330.855 568.84 331.682C568.453 330.935 567.84 330.382 567 330.022C566.173 329.662 565.327 329.482 564.46 329.482C563.18 329.482 562.227 329.822 561.6 330.502C560.973 331.169 560.66 331.995 560.66 332.982C560.66 334.049 560.993 334.922 561.66 335.602C562.34 336.269 563.373 336.602 564.76 336.602C565.867 336.602 566.747 336.422 567.4 336.062C568.053 335.689 568.533 335.102 568.84 334.302C569.933 334.889 571.333 335.549 573.04 336.282C572.373 337.895 571.26 339.022 569.7 339.662C568.14 340.302 566.44 340.622 564.6 340.622ZM586.907 325.882H591.867V333.842C591.841 335.802 591.167 337.422 589.847 338.702C588.541 339.982 586.334 340.622 583.227 340.622C580.081 340.622 577.927 340.015 576.767 338.802C575.607 337.575 575.041 335.969 575.067 333.982V325.882H580.027V333.662C580.027 334.249 580.067 334.729 580.147 335.102C580.241 335.462 580.521 335.802 580.987 336.122C581.467 336.442 582.234 336.602 583.287 336.602C584.434 336.602 585.274 336.442 585.807 336.122C586.341 335.789 586.654 335.422 586.747 335.022C586.854 334.622 586.907 334.109 586.907 333.482V325.882ZM598.746 336.382C602.612 336.355 605.812 336.289 608.346 336.182C608.172 336.862 608.066 337.515 608.026 338.142C607.986 338.769 607.966 339.529 607.966 340.422H593.866C593.972 337.835 594.026 335.415 594.026 333.162C594.026 330.909 593.972 328.489 593.866 325.902H598.746V336.382ZM624.922 330.102C622.829 330.035 620.796 329.995 618.822 329.982V340.422H613.822V329.982C611.836 329.995 609.809 330.035 607.742 330.102V325.902H624.922V330.102ZM638.771 325.882H643.731V333.842C643.705 335.802 643.031 337.422 641.711 338.702C640.405 339.982 638.198 340.622 635.091 340.622C631.945 340.622 629.791 340.015 628.631 338.802C627.471 337.575 626.905 335.969 626.931 333.982V325.882H631.891V333.662C631.891 334.249 631.931 334.729 632.011 335.102C632.105 335.462 632.385 335.802 632.851 336.122C633.331 336.442 634.098 336.602 635.151 336.602C636.298 336.602 637.138 336.442 637.671 336.122C638.205 335.789 638.518 335.422 638.611 335.022C638.718 334.622 638.771 334.109 638.771 333.482V325.882ZM661.79 330.742C661.79 331.902 661.503 332.882 660.93 333.682C660.37 334.482 659.403 335.062 658.03 335.422C658.19 335.635 658.303 335.802 658.37 335.922L661.61 340.422H656.17C655.583 339.329 654.656 337.782 653.39 335.782H650.45V340.422H645.73C645.836 337.835 645.89 335.415 645.89 333.162C645.89 330.909 645.836 328.489 645.73 325.902H650.45V325.922H654.55C657.243 325.922 659.123 326.355 660.19 327.222C661.256 328.089 661.79 329.262 661.79 330.742ZM650.45 329.762V332.042H653.15C654.283 332.042 655.136 332.009 655.71 331.942C656.296 331.862 656.703 331.742 656.93 331.582C657.156 331.422 657.27 331.189 657.27 330.882C657.27 330.589 657.163 330.362 656.95 330.202C656.736 330.042 656.336 329.929 655.75 329.862C655.163 329.795 654.296 329.762 653.15 329.762H650.45ZM668.506 336.762C673.573 336.735 677.246 336.662 679.526 336.542C679.433 337.089 679.373 337.655 679.346 338.242C679.333 338.815 679.326 339.542 679.326 340.422H663.786C663.893 337.835 663.946 335.415 663.946 333.162C663.946 330.909 663.893 328.489 663.786 325.902H679.326V329.522H668.506V331.442C669.146 331.455 670.093 331.462 671.346 331.462C673.466 331.462 675.659 331.422 677.926 331.342V334.782C675.659 334.702 673.466 334.662 671.346 334.662C670.093 334.662 669.146 334.669 668.506 334.682V336.762ZM698.554 340.422C698.3 339.662 697.96 338.709 697.534 337.562H691.154L690.154 340.422H685.134L690.734 325.902H698.094L703.734 340.422H698.554ZM696.394 334.442C695.887 333.042 695.367 331.642 694.834 330.242L694.354 328.942C693.887 330.155 693.2 331.989 692.294 334.442H696.394ZM721.59 325.922C721.497 328.175 721.45 330.589 721.45 333.162C721.45 335.749 721.497 338.169 721.59 340.422H714.43L709.59 329.502L709.95 340.422H704.81C704.917 337.835 704.97 335.415 704.97 333.162C704.97 330.922 704.917 328.509 704.81 325.922H712.17L717.03 337.142L716.69 325.922H721.59ZM729.989 325.682C732.496 325.682 734.476 325.989 735.929 326.602C737.382 327.202 738.396 328.042 738.969 329.122C739.556 330.189 739.849 331.502 739.849 333.062C739.849 334.542 739.516 335.835 738.849 336.942C738.182 338.049 737.182 338.909 735.849 339.522C734.516 340.122 732.876 340.422 730.929 340.422C729.742 340.422 728.536 340.422 727.309 340.422C726.082 340.422 724.842 340.415 723.589 340.402C723.696 337.775 723.749 335.329 723.749 333.062C723.749 330.769 723.696 328.375 723.589 325.882C725.176 325.749 727.309 325.682 729.989 325.682ZM731.489 336.442C732.729 336.442 733.556 336.142 733.969 335.542C734.382 334.942 734.589 334.115 734.589 333.062C734.589 332.049 734.369 331.229 733.929 330.602C733.502 329.975 732.689 329.662 731.489 329.662C730.196 329.662 729.229 329.702 728.589 329.782V336.442H731.489ZM755.145 340.622C752.091 340.622 749.845 339.962 748.405 338.642C746.965 337.309 746.245 335.442 746.245 333.042C746.245 330.669 746.958 328.815 748.385 327.482C749.825 326.149 752.078 325.482 755.145 325.482C758.225 325.482 760.478 326.149 761.905 327.482C763.345 328.815 764.065 330.669 764.065 333.042C764.065 335.455 763.351 337.322 761.925 338.642C760.498 339.962 758.238 340.622 755.145 340.622ZM755.145 336.542C756.625 336.542 757.691 336.262 758.345 335.702C758.998 335.129 759.325 334.242 759.325 333.042C759.325 331.869 758.998 330.995 758.345 330.422C757.691 329.849 756.625 329.562 755.145 329.562C753.678 329.562 752.618 329.849 751.965 330.422C751.311 330.995 750.985 331.869 750.985 333.042C750.985 334.229 751.311 335.109 751.965 335.682C752.618 336.255 753.678 336.542 755.145 336.542ZM775.139 325.922C777.792 325.922 779.639 326.395 780.679 327.342C781.719 328.275 782.239 329.595 782.239 331.302C782.239 332.475 782.032 333.475 781.619 334.302C781.205 335.115 780.479 335.755 779.439 336.222C778.399 336.675 776.965 336.902 775.139 336.902H770.979V340.422H766.059C766.165 337.835 766.219 335.415 766.219 333.162C766.219 330.909 766.165 328.489 766.059 325.902H770.979V325.922H775.139ZM773.739 333.042C774.845 333.042 775.672 333.002 776.219 332.922C776.779 332.829 777.165 332.669 777.379 332.442C777.605 332.215 777.719 331.882 777.719 331.442C777.719 331.002 777.612 330.675 777.399 330.462C777.199 330.235 776.819 330.082 776.259 330.002C775.712 329.922 774.872 329.882 773.739 329.882H770.979V333.042H773.739ZM788.952 336.762C794.019 336.735 797.692 336.662 799.972 336.542C799.879 337.089 799.819 337.655 799.792 338.242C799.779 338.815 799.772 339.542 799.772 340.422H784.232C784.339 337.835 784.392 335.415 784.392 333.162C784.392 330.909 784.339 328.489 784.232 325.902H799.772V329.522H788.952V331.442C789.592 331.455 790.539 331.462 791.792 331.462C793.912 331.462 796.105 331.422 798.372 331.342V334.782C796.105 334.702 793.912 334.662 791.792 334.662C790.539 334.662 789.592 334.669 788.952 334.682V336.762ZM818.756 325.922C818.662 328.175 818.616 330.589 818.616 333.162C818.616 335.749 818.662 338.169 818.756 340.422H811.596L806.756 329.502L807.116 340.422H801.976C802.082 337.835 802.136 335.415 802.136 333.162C802.136 330.922 802.082 328.509 801.976 325.922H809.336L814.196 337.142L813.856 325.922H818.756ZM841.219 330.742C841.219 331.902 840.932 332.882 840.359 333.682C839.799 334.482 838.832 335.062 837.459 335.422C837.619 335.635 837.732 335.802 837.799 335.922L841.039 340.422H835.599C835.012 339.329 834.085 337.782 832.819 335.782H829.879V340.422H825.159C825.265 337.835 825.319 335.415 825.319 333.162C825.319 330.909 825.265 328.489 825.159 325.902H829.879V325.922H833.979C836.672 325.922 838.552 326.355 839.619 327.222C840.685 328.089 841.219 329.262 841.219 330.742ZM829.879 329.762V332.042H832.579C833.712 332.042 834.565 332.009 835.139 331.942C835.725 331.862 836.132 331.742 836.359 331.582C836.585 331.422 836.699 331.189 836.699 330.882C836.699 330.589 836.592 330.362 836.379 330.202C836.165 330.042 835.765 329.929 835.179 329.862C834.592 329.795 833.725 329.762 832.579 329.762H829.879ZM852.115 340.622C849.062 340.622 846.815 339.962 845.375 338.642C843.935 337.309 843.215 335.442 843.215 333.042C843.215 330.669 843.928 328.815 845.355 327.482C846.795 326.149 849.048 325.482 852.115 325.482C855.195 325.482 857.448 326.149 858.875 327.482C860.315 328.815 861.035 330.669 861.035 333.042C861.035 335.455 860.322 337.322 858.895 338.642C857.468 339.962 855.208 340.622 852.115 340.622ZM852.115 336.542C853.595 336.542 854.662 336.262 855.315 335.702C855.968 335.129 856.295 334.242 856.295 333.042C856.295 331.869 855.968 330.995 855.315 330.422C854.662 329.849 853.595 329.562 852.115 329.562C850.648 329.562 849.588 329.849 848.935 330.422C848.282 330.995 847.955 331.869 847.955 333.042C847.955 334.229 848.282 335.109 848.935 335.682C849.588 336.255 850.648 336.542 852.115 336.542ZM867.909 336.382C871.776 336.355 874.976 336.289 877.509 336.182C877.336 336.862 877.229 337.515 877.189 338.142C877.149 338.769 877.129 339.529 877.129 340.422H863.029C863.136 337.835 863.189 335.415 863.189 333.162C863.189 330.909 863.136 328.489 863.029 325.902H867.909V336.382ZM884.223 336.762C889.29 336.735 892.963 336.662 895.243 336.542C895.15 337.089 895.09 337.655 895.063 338.242C895.05 338.815 895.043 339.542 895.043 340.422H879.503C879.61 337.835 879.663 335.415 879.663 333.162C879.663 330.909 879.61 328.489 879.503 325.902H895.043V329.522H884.223V331.442C884.863 331.455 885.81 331.462 887.063 331.462C889.183 331.462 891.376 331.422 893.643 331.342V334.782C891.376 334.702 889.183 334.662 887.063 334.662C885.81 334.662 884.863 334.669 884.223 334.682V336.762ZM897.247 338.702C897.7 338.022 898.074 337.389 898.367 336.802C898.674 336.215 898.967 335.535 899.247 334.762C900.194 335.309 901.294 335.735 902.547 336.042C903.8 336.349 904.967 336.502 906.047 336.502C907.154 336.502 907.934 336.409 908.387 336.222C908.84 336.022 909.067 335.809 909.067 335.582C909.067 334.769 907.827 334.362 905.347 334.362C902.627 334.362 900.654 334.082 899.427 333.522C898.2 332.949 897.587 332.029 897.587 330.762C897.587 328.962 898.334 327.635 899.827 326.782C901.32 325.929 903.26 325.502 905.647 325.502C907.034 325.502 908.454 325.682 909.907 326.042C911.374 326.389 912.694 326.869 913.867 327.482C913.48 328.362 913.074 329.435 912.647 330.702C912.567 330.969 912.5 331.169 912.447 331.302C911.767 330.755 910.74 330.302 909.367 329.942C907.994 329.569 906.78 329.382 905.727 329.382C904.46 329.382 903.607 329.469 903.167 329.642C902.727 329.802 902.507 330.042 902.507 330.362C902.507 330.682 902.807 330.942 903.407 331.142C904.02 331.329 904.9 331.422 906.047 331.422C908.874 331.422 910.927 331.749 912.207 332.402C913.487 333.042 914.127 334.029 914.127 335.362C914.127 337.229 913.447 338.575 912.087 339.402C910.727 340.215 908.667 340.622 905.907 340.622C904.427 340.622 902.92 340.462 901.387 340.142C899.854 339.809 898.474 339.329 897.247 338.702Z" fill="#454C62"/>
<path d="M1038.23 135.51C1040.25 135.118 1042.24 134.922 1044.2 134.922C1047.61 134.922 1050.38 135.51 1052.51 136.686C1054.7 137.806 1056.26 139.262 1057.22 141.054C1058.17 142.79 1058.64 144.61 1058.64 146.514C1058.64 150.938 1057.19 154.718 1054.28 157.854C1051.36 160.934 1047.42 163.286 1042.43 164.91C1037.45 166.478 1031.9 167.262 1025.8 167.262C1008.1 167.262 996.652 161.102 991.444 148.782L996.148 147.606C999.62 146.766 1002.56 145.982 1004.97 145.254C1007.43 144.47 1009.59 143.602 1011.44 142.65C1012.56 145.45 1014.15 147.466 1016.22 148.698C1018.35 149.874 1021.26 150.462 1024.96 150.462C1028.88 150.462 1032.07 150.014 1034.54 149.118C1037 148.222 1038.23 146.878 1038.23 145.086C1038.23 144.134 1037.76 143.406 1036.8 142.902C1035.85 142.398 1034.34 142.062 1032.27 141.894C1030.2 141.67 1027.28 141.558 1023.53 141.558H1017.15V126.858H1021.01C1025.27 126.858 1028.74 126.69 1031.43 126.354C1034.12 125.962 1035.46 125.15 1035.46 123.918C1035.46 122.518 1034.73 121.398 1033.28 120.558C1031.88 119.662 1029.66 119.214 1026.64 119.214C1022.72 119.214 1019.53 120.026 1017.06 121.65C1014.66 123.274 1012.78 125.626 1011.44 128.706C1005.44 126.298 999.06 124.59 992.284 123.582C994.972 117.534 999.088 112.858 1004.63 109.554C1010.23 106.25 1017.43 104.598 1026.22 104.598C1031.93 104.598 1037.06 105.354 1041.59 106.866C1046.18 108.322 1049.77 110.366 1052.34 112.998C1054.98 115.63 1056.29 118.57 1056.29 121.818C1056.29 123.722 1055.84 125.43 1054.95 126.942C1054.05 128.398 1052.29 129.854 1049.66 131.31C1047.02 132.71 1043.22 134.11 1038.23 135.51Z" fill="#58B368"/>
<path d="M1001.42 244.422C1001.17 243.662 1000.83 242.709 1000.4 241.562H994.02L993.02 244.422H988L993.6 229.902H1000.96L1006.6 244.422H1001.42ZM999.26 238.442C998.753 237.042 998.233 235.642 997.7 234.242L997.22 232.942C996.753 234.155 996.067 235.989 995.16 238.442H999.26ZM1017.15 229.922C1019.8 229.922 1021.65 230.395 1022.69 231.342C1023.73 232.275 1024.25 233.595 1024.25 235.302C1024.25 236.475 1024.04 237.475 1023.63 238.302C1023.21 239.115 1022.49 239.755 1021.45 240.222C1020.41 240.675 1018.97 240.902 1017.15 240.902H1012.99V244.422H1008.07C1008.17 241.835 1008.23 239.415 1008.23 237.162C1008.23 234.909 1008.17 232.489 1008.07 229.902H1012.99V229.922H1017.15ZM1015.75 237.042C1016.85 237.042 1017.68 237.002 1018.23 236.922C1018.79 236.829 1019.17 236.669 1019.39 236.442C1019.61 236.215 1019.73 235.882 1019.73 235.442C1019.73 235.002 1019.62 234.675 1019.41 234.462C1019.21 234.235 1018.83 234.082 1018.27 234.002C1017.72 233.922 1016.88 233.882 1015.75 233.882H1012.99V237.042H1015.75ZM1035.32 229.922C1037.97 229.922 1039.82 230.395 1040.86 231.342C1041.9 232.275 1042.42 233.595 1042.42 235.302C1042.42 236.475 1042.21 237.475 1041.8 238.302C1041.39 239.115 1040.66 239.755 1039.62 240.222C1038.58 240.675 1037.15 240.902 1035.32 240.902H1031.16V244.422H1026.24C1026.35 241.835 1026.4 239.415 1026.4 237.162C1026.4 234.909 1026.35 232.489 1026.24 229.902H1031.16V229.922H1035.32ZM1033.92 237.042C1035.03 237.042 1035.85 237.002 1036.4 236.922C1036.96 236.829 1037.35 236.669 1037.56 236.442C1037.79 236.215 1037.9 235.882 1037.9 235.442C1037.9 235.002 1037.79 234.675 1037.58 234.462C1037.38 234.235 1037 234.082 1036.44 234.002C1035.89 233.922 1035.05 233.882 1033.92 233.882H1031.16V237.042H1033.92ZM1049.29 240.382C1053.16 240.355 1056.36 240.289 1058.89 240.182C1058.72 240.862 1058.61 241.515 1058.57 242.142C1058.53 242.769 1058.51 243.529 1058.51 244.422H1044.41C1044.52 241.835 1044.57 239.415 1044.57 237.162C1044.57 234.909 1044.52 232.489 1044.41 229.902H1049.29V240.382ZM1076.09 229.902L1075.71 230.482C1074.28 232.695 1073.06 234.655 1072.03 236.362C1071.02 238.055 1070.17 239.615 1069.49 241.042V244.422H1064.27V240.702C1063.78 239.702 1063.2 238.675 1062.53 237.622C1061.86 236.555 1060.92 235.095 1059.69 233.242C1058.73 231.829 1058 230.715 1057.49 229.902H1063.09C1063.49 230.715 1064.14 231.922 1065.05 233.522C1065.96 235.149 1066.58 236.295 1066.91 236.962C1067.38 235.989 1068 234.795 1068.79 233.382C1069.71 231.729 1070.33 230.569 1070.65 229.902H1076.09ZM1093.58 233.882C1092 233.802 1090.82 233.755 1090.06 233.742V240.582C1090.84 240.569 1092.01 240.522 1093.58 240.442V244.422H1081.96V240.442C1083.5 240.522 1084.66 240.569 1085.46 240.582V233.742C1084.66 233.755 1083.5 233.802 1081.96 233.882V229.902H1093.58V233.882ZM1112.36 229.922C1112.27 232.175 1112.22 234.589 1112.22 237.162C1112.22 239.749 1112.27 242.169 1112.36 244.422H1105.2L1100.36 233.502L1100.72 244.422H1095.58C1095.69 241.835 1095.74 239.415 1095.74 237.162C1095.74 234.922 1095.69 232.509 1095.58 229.922H1102.94L1107.8 241.142L1107.46 229.922H1112.36ZM1131.39 244.422C1131.13 243.662 1130.79 242.709 1130.37 241.562H1123.99L1122.99 244.422H1117.97L1123.57 229.902H1130.93L1136.57 244.422H1131.39ZM1129.23 238.442C1128.72 237.042 1128.2 235.642 1127.67 234.242L1127.19 232.942C1126.72 234.155 1126.03 235.989 1125.13 238.442H1129.23ZM1137.23 242.702C1137.69 242.022 1138.06 241.389 1138.35 240.802C1138.66 240.215 1138.95 239.535 1139.23 238.762C1140.18 239.309 1141.28 239.735 1142.53 240.042C1143.79 240.349 1144.95 240.502 1146.03 240.502C1147.14 240.502 1147.92 240.409 1148.37 240.222C1148.83 240.022 1149.05 239.809 1149.05 239.582C1149.05 238.769 1147.81 238.362 1145.33 238.362C1142.61 238.362 1140.64 238.082 1139.41 237.522C1138.19 236.949 1137.57 236.029 1137.57 234.762C1137.57 232.962 1138.32 231.635 1139.81 230.782C1141.31 229.929 1143.25 229.502 1145.63 229.502C1147.02 229.502 1148.44 229.682 1149.89 230.042C1151.36 230.389 1152.68 230.869 1153.85 231.482C1153.47 232.362 1153.06 233.435 1152.63 234.702C1152.55 234.969 1152.49 235.169 1152.43 235.302C1151.75 234.755 1150.73 234.302 1149.35 233.942C1147.98 233.569 1146.77 233.382 1145.71 233.382C1144.45 233.382 1143.59 233.469 1143.15 233.642C1142.71 233.802 1142.49 234.042 1142.49 234.362C1142.49 234.682 1142.79 234.942 1143.39 235.142C1144.01 235.329 1144.89 235.422 1146.03 235.422C1148.86 235.422 1150.91 235.749 1152.19 236.402C1153.47 237.042 1154.11 238.029 1154.11 239.362C1154.11 241.229 1153.43 242.575 1152.07 243.402C1150.71 244.215 1148.65 244.622 1145.89 244.622C1144.41 244.622 1142.91 244.462 1141.37 244.142C1139.84 243.809 1138.46 243.329 1137.23 242.702ZM1176.11 233.642H1165.23V235.742C1165.91 235.755 1166.93 235.762 1168.29 235.762C1170.64 235.762 1173.03 235.722 1175.45 235.642V239.562C1173.03 239.469 1170.47 239.422 1167.77 239.422C1166.65 239.422 1165.81 239.429 1165.23 239.442V244.422H1160.51C1160.62 241.835 1160.67 239.415 1160.67 237.162C1160.67 234.909 1160.62 232.489 1160.51 229.902H1176.11V233.642ZM1182.84 240.762C1187.91 240.735 1191.58 240.662 1193.86 240.542C1193.77 241.089 1193.71 241.655 1193.68 242.242C1193.67 242.815 1193.66 243.542 1193.66 244.422H1178.12C1178.23 241.835 1178.28 239.415 1178.28 237.162C1178.28 234.909 1178.23 232.489 1178.12 229.902H1193.66V233.522H1182.84V235.442C1183.48 235.455 1184.43 235.462 1185.68 235.462C1187.8 235.462 1189.99 235.422 1192.26 235.342V238.782C1189.99 238.702 1187.8 238.662 1185.68 238.662C1184.43 238.662 1183.48 238.669 1182.84 238.682V240.762ZM1209.27 238.962L1210.31 229.902H1215.19L1212.51 244.422H1206.37L1205.01 236.322L1203.43 244.422H1197.55L1194.87 229.902H1199.75L1200.77 238.842L1202.37 229.902H1207.71L1209.27 238.962ZM1234.21 244.422C1233.95 243.662 1233.61 242.709 1233.19 241.562H1226.81L1225.81 244.422H1220.79L1226.39 229.902H1233.75L1239.39 244.422H1234.21ZM1232.05 238.442C1231.54 237.042 1231.02 235.642 1230.49 234.242L1230.01 232.942C1229.54 234.155 1228.85 235.989 1227.95 238.442H1232.05ZM1240.05 242.702C1240.51 242.022 1240.88 241.389 1241.17 240.802C1241.48 240.215 1241.77 239.535 1242.05 238.762C1243 239.309 1244.1 239.735 1245.35 240.042C1246.61 240.349 1247.77 240.502 1248.85 240.502C1249.96 240.502 1250.74 240.409 1251.19 240.222C1251.65 240.022 1251.87 239.809 1251.87 239.582C1251.87 238.769 1250.63 238.362 1248.15 238.362C1245.43 238.362 1243.46 238.082 1242.23 237.522C1241.01 236.949 1240.39 236.029 1240.39 234.762C1240.39 232.962 1241.14 231.635 1242.63 230.782C1244.13 229.929 1246.07 229.502 1248.45 229.502C1249.84 229.502 1251.26 229.682 1252.71 230.042C1254.18 230.389 1255.5 230.869 1256.67 231.482C1256.29 232.362 1255.88 233.435 1255.45 234.702C1255.37 234.969 1255.31 235.169 1255.25 235.302C1254.57 234.755 1253.55 234.302 1252.17 233.942C1250.8 233.569 1249.59 233.382 1248.53 233.382C1247.27 233.382 1246.41 233.469 1245.97 233.642C1245.53 233.802 1245.31 234.042 1245.31 234.362C1245.31 234.682 1245.61 234.942 1246.21 235.142C1246.83 235.329 1247.71 235.422 1248.85 235.422C1251.68 235.422 1253.73 235.749 1255.01 236.402C1256.29 237.042 1256.93 238.029 1256.93 239.362C1256.93 241.229 1256.25 242.575 1254.89 243.402C1253.53 244.215 1251.47 244.622 1248.71 244.622C1247.23 244.622 1245.73 244.462 1244.19 244.142C1242.66 243.809 1241.28 243.329 1240.05 242.702ZM1268.35 240.922C1272.69 240.682 1276.05 240.415 1278.43 240.122C1278.21 240.815 1278.03 241.549 1277.91 242.322C1277.79 243.095 1277.73 243.795 1277.73 244.422H1263.43L1263.41 244.002C1263.41 242.695 1263.79 241.562 1264.55 240.602C1265.33 239.642 1266.4 238.755 1267.77 237.942C1268.17 237.702 1268.8 237.395 1269.65 237.022C1270.76 236.542 1271.61 236.122 1272.21 235.762C1272.81 235.389 1273.11 235.022 1273.11 234.662C1273.11 234.209 1272.93 233.849 1272.55 233.582C1272.18 233.315 1271.6 233.182 1270.81 233.182C1269.95 233.182 1269.29 233.402 1268.83 233.842C1268.39 234.282 1268.17 234.842 1268.17 235.522C1268.17 235.735 1268.19 235.955 1268.23 236.182C1266.55 235.969 1264.92 235.822 1263.33 235.742C1263.33 234.609 1263.63 233.589 1264.21 232.682C1264.81 231.762 1265.71 231.035 1266.89 230.502C1268.09 229.969 1269.56 229.702 1271.29 229.702C1272.88 229.702 1274.2 229.922 1275.25 230.362C1276.32 230.789 1277.1 231.335 1277.59 232.002C1278.1 232.655 1278.35 233.329 1278.35 234.022C1278.35 234.822 1278.17 235.509 1277.81 236.082C1277.47 236.655 1276.96 237.169 1276.29 237.622C1275.64 238.062 1274.76 238.542 1273.65 239.062C1273.49 239.142 1273.23 239.235 1272.87 239.342C1272.51 239.435 1272.29 239.495 1272.19 239.522C1271.25 239.802 1270.49 240.035 1269.93 240.222C1269.37 240.409 1268.85 240.642 1268.35 240.922ZM988.8 274.702C989.253 274.022 989.627 273.389 989.92 272.802C990.227 272.215 990.52 271.535 990.8 270.762C991.747 271.309 992.847 271.735 994.1 272.042C995.353 272.349 996.52 272.502 997.6 272.502C998.707 272.502 999.487 272.409 999.94 272.222C1000.39 272.022 1000.62 271.809 1000.62 271.582C1000.62 270.769 999.38 270.362 996.9 270.362C994.18 270.362 992.207 270.082 990.98 269.522C989.753 268.949 989.14 268.029 989.14 266.762C989.14 264.962 989.887 263.635 991.38 262.782C992.873 261.929 994.813 261.502 997.2 261.502C998.587 261.502 1000.01 261.682 1001.46 262.042C1002.93 262.389 1004.25 262.869 1005.42 263.482C1005.03 264.362 1004.63 265.435 1004.2 266.702C1004.12 266.969 1004.05 267.169 1004 267.302C1003.32 266.755 1002.29 266.302 1000.92 265.942C999.547 265.569 998.333 265.382 997.28 265.382C996.013 265.382 995.16 265.469 994.72 265.642C994.28 265.802 994.06 266.042 994.06 266.362C994.06 266.682 994.36 266.942 994.96 267.142C995.573 267.329 996.453 267.422 997.6 267.422C1000.43 267.422 1002.48 267.749 1003.76 268.402C1005.04 269.042 1005.68 270.029 1005.68 271.362C1005.68 273.229 1005 274.575 1003.64 275.402C1002.28 276.215 1000.22 276.622 997.46 276.622C995.98 276.622 994.473 276.462 992.94 276.142C991.407 275.809 990.027 275.329 988.8 274.702ZM1024.06 266.102C1021.96 266.035 1019.93 265.995 1017.96 265.982V276.422H1012.96V265.982C1010.97 265.995 1008.94 266.035 1006.88 266.102V261.902H1024.06V266.102ZM1030.78 272.762C1035.85 272.735 1039.52 272.662 1041.8 272.542C1041.71 273.089 1041.65 273.655 1041.62 274.242C1041.61 274.815 1041.6 275.542 1041.6 276.422H1026.06C1026.17 273.835 1026.22 271.415 1026.22 269.162C1026.22 266.909 1026.17 264.489 1026.06 261.902H1041.6V265.522H1030.78V267.442C1031.42 267.455 1032.37 267.462 1033.62 267.462C1035.74 267.462 1037.94 267.422 1040.2 267.342V270.782C1037.94 270.702 1035.74 270.662 1033.62 270.662C1032.37 270.662 1031.42 270.669 1030.78 270.682V272.762ZM1052.89 261.922C1055.54 261.922 1057.39 262.395 1058.43 263.342C1059.47 264.275 1059.99 265.595 1059.99 267.302C1059.99 268.475 1059.78 269.475 1059.37 270.302C1058.96 271.115 1058.23 271.755 1057.19 272.222C1056.15 272.675 1054.72 272.902 1052.89 272.902H1048.73V276.422H1043.81C1043.92 273.835 1043.97 271.415 1043.97 269.162C1043.97 266.909 1043.92 264.489 1043.81 261.902H1048.73V261.922H1052.89ZM1051.49 269.042C1052.6 269.042 1053.42 269.002 1053.97 268.922C1054.53 268.829 1054.92 268.669 1055.13 268.442C1055.36 268.215 1055.47 267.882 1055.47 267.442C1055.47 267.002 1055.36 266.675 1055.15 266.462C1054.95 266.235 1054.57 266.082 1054.01 266.002C1053.46 265.922 1052.62 265.882 1051.49 265.882H1048.73V269.042H1051.49ZM1061.79 274.702C1062.24 274.022 1062.61 273.389 1062.91 272.802C1063.21 272.215 1063.51 271.535 1063.79 270.762C1064.73 271.309 1065.83 271.735 1067.09 272.042C1068.34 272.349 1069.51 272.502 1070.59 272.502C1071.69 272.502 1072.47 272.409 1072.93 272.222C1073.38 272.022 1073.61 271.809 1073.61 271.582C1073.61 270.769 1072.37 270.362 1069.89 270.362C1067.17 270.362 1065.19 270.082 1063.97 269.522C1062.74 268.949 1062.13 268.029 1062.13 266.762C1062.13 264.962 1062.87 263.635 1064.37 262.782C1065.86 261.929 1067.8 261.502 1070.19 261.502C1071.57 261.502 1072.99 261.682 1074.45 262.042C1075.91 262.389 1077.23 262.869 1078.41 263.482C1078.02 264.362 1077.61 265.435 1077.19 266.702C1077.11 266.969 1077.04 267.169 1076.99 267.302C1076.31 266.755 1075.28 266.302 1073.91 265.942C1072.53 265.569 1071.32 265.382 1070.27 265.382C1069 265.382 1068.15 265.469 1067.71 265.642C1067.27 265.802 1067.05 266.042 1067.05 266.362C1067.05 266.682 1067.35 266.942 1067.95 267.142C1068.56 267.329 1069.44 267.422 1070.59 267.422C1073.41 267.422 1075.47 267.749 1076.75 268.402C1078.03 269.042 1078.67 270.029 1078.67 271.362C1078.67 273.229 1077.99 274.575 1076.63 275.402C1075.27 276.215 1073.21 276.622 1070.45 276.622C1068.97 276.622 1067.46 276.462 1065.93 276.142C1064.39 275.809 1063.01 275.329 1061.79 274.702ZM1082.58 276.622C1082 276.622 1081.5 276.415 1081.08 276.002C1080.67 275.575 1080.46 275.069 1080.46 274.482C1080.46 273.895 1080.67 273.395 1081.08 272.982C1081.5 272.569 1082 272.362 1082.58 272.362C1083.16 272.362 1083.65 272.575 1084.06 273.002C1084.49 273.415 1084.7 273.909 1084.7 274.482C1084.7 275.069 1084.49 275.575 1084.06 276.002C1083.65 276.415 1083.16 276.622 1082.58 276.622ZM1099.16 268.142H1107.7V276.422H1104.18L1103.76 272.882C1103.36 274.149 1102.64 275.089 1101.62 275.702C1100.59 276.315 1099.34 276.622 1097.86 276.622C1096.51 276.622 1095.31 276.322 1094.26 275.722C1093.22 275.122 1092.4 274.262 1091.8 273.142C1091.21 272.022 1090.92 270.715 1090.92 269.222C1090.92 266.835 1091.63 264.949 1093.06 263.562C1094.48 262.175 1096.7 261.482 1099.72 261.482C1101.44 261.482 1102.95 261.762 1104.26 262.322C1105.58 262.882 1106.7 263.749 1107.62 264.922C1107.02 265.229 1105.84 265.842 1104.1 266.762L1103.6 267.042C1103.08 266.522 1102.47 266.135 1101.78 265.882C1101.08 265.615 1100.35 265.482 1099.58 265.482C1098.3 265.482 1097.34 265.822 1096.72 266.502C1096.09 267.169 1095.78 267.995 1095.78 268.982C1095.78 270.049 1096.11 270.909 1096.78 271.562C1097.46 272.215 1098.49 272.542 1099.88 272.542C1100.48 272.542 1101.06 272.455 1101.62 272.282C1102.19 272.109 1102.67 271.809 1103.06 271.382H1099.16V268.142ZM1114.42 272.762C1119.48 272.735 1123.16 272.662 1125.44 272.542C1125.34 273.089 1125.28 273.655 1125.26 274.242C1125.24 274.815 1125.24 275.542 1125.24 276.422H1109.7C1109.8 273.835 1109.86 271.415 1109.86 269.162C1109.86 266.909 1109.8 264.489 1109.7 261.902H1125.24V265.522H1114.42V267.442C1115.06 267.455 1116 267.462 1117.26 267.462C1119.38 267.462 1121.57 267.422 1123.84 267.342V270.782C1121.57 270.702 1119.38 270.662 1117.26 270.662C1116 270.662 1115.06 270.669 1114.42 270.682V272.762ZM1143.62 266.102C1141.53 266.035 1139.5 265.995 1137.52 265.982V276.422H1132.52V265.982C1130.54 265.995 1128.51 266.035 1126.44 266.102V261.902H1143.62V266.102ZM1167.22 266.102C1165.12 266.035 1163.09 265.995 1161.12 265.982V276.422H1156.12V265.982C1154.13 265.995 1152.1 266.035 1150.04 266.102V261.902H1167.22V266.102ZM1185.99 261.902C1185.89 264.155 1185.85 266.575 1185.85 269.162C1185.85 271.749 1185.89 274.169 1185.99 276.422H1181.29V270.982H1173.93V276.422H1169.23C1169.33 273.835 1169.39 271.415 1169.39 269.162C1169.39 266.909 1169.33 264.489 1169.23 261.902H1173.93V267.342H1181.29V261.902H1185.99ZM1192.7 272.762C1197.77 272.735 1201.44 272.662 1203.72 272.542C1203.63 273.089 1203.57 273.655 1203.54 274.242C1203.53 274.815 1203.52 275.542 1203.52 276.422H1187.98C1188.09 273.835 1188.14 271.415 1188.14 269.162C1188.14 266.909 1188.09 264.489 1187.98 261.902H1203.52V265.522H1192.7V267.442C1193.34 267.455 1194.29 267.462 1195.54 267.462C1197.66 267.462 1199.86 267.422 1202.12 267.342V270.782C1199.86 270.702 1197.66 270.662 1195.54 270.662C1194.29 270.662 1193.34 270.669 1192.7 270.682V272.762ZM1226.21 261.882V268.942C1226.21 271.435 1225.57 273.342 1224.27 274.662C1222.99 275.969 1220.96 276.622 1218.17 276.622C1216.57 276.622 1215.09 276.389 1213.73 275.922C1212.39 275.455 1211.19 274.849 1210.13 274.102C1210.39 273.275 1210.59 272.482 1210.75 271.722C1210.91 270.962 1211.03 270.129 1211.11 269.222C1212.49 270.329 1213.75 271.095 1214.91 271.522C1216.07 271.949 1217.18 272.162 1218.23 272.162C1219.33 272.162 1220.11 271.915 1220.57 271.422C1221.04 270.929 1221.28 270.082 1221.29 268.882V267.362C1221.29 265.202 1221.23 263.375 1221.11 261.882H1226.21ZM1237.11 276.622C1234.05 276.622 1231.81 275.962 1230.37 274.642C1228.93 273.309 1228.21 271.442 1228.21 269.042C1228.21 266.669 1228.92 264.815 1230.35 263.482C1231.79 262.149 1234.04 261.482 1237.11 261.482C1240.19 261.482 1242.44 262.149 1243.87 263.482C1245.31 264.815 1246.03 266.669 1246.03 269.042C1246.03 271.455 1245.31 273.322 1243.89 274.642C1242.46 275.962 1240.2 276.622 1237.11 276.622ZM1237.11 272.542C1238.59 272.542 1239.65 272.262 1240.31 271.702C1240.96 271.129 1241.29 270.242 1241.29 269.042C1241.29 267.869 1240.96 266.995 1240.31 266.422C1239.65 265.849 1238.59 265.562 1237.11 265.562C1235.64 265.562 1234.58 265.849 1233.93 266.422C1233.27 266.995 1232.95 267.869 1232.95 269.042C1232.95 270.229 1233.27 271.109 1233.93 271.682C1234.58 272.255 1235.64 272.542 1237.11 272.542ZM1259.74 269.202C1262.78 269.202 1264.3 270.169 1264.3 272.102C1264.3 273.009 1264.1 273.782 1263.68 274.422C1263.27 275.049 1262.53 275.542 1261.46 275.902C1260.4 276.249 1258.92 276.422 1257.02 276.422H1248.02C1248.13 273.835 1248.18 271.415 1248.18 269.162C1248.18 266.909 1248.13 264.489 1248.02 261.902H1252.72V261.922H1256.98C1258.64 261.922 1259.94 262.062 1260.88 262.342C1261.84 262.609 1262.52 263.002 1262.9 263.522C1263.3 264.042 1263.5 264.702 1263.5 265.502C1263.5 266.315 1263.22 267.042 1262.64 267.682C1262.08 268.309 1261.12 268.815 1259.74 269.202ZM1252.72 265.562V267.422H1256.56C1257.39 267.422 1257.96 267.349 1258.28 267.202C1258.62 267.055 1258.78 266.789 1258.78 266.402C1258.78 266.095 1258.61 265.882 1258.26 265.762C1257.93 265.629 1257.36 265.562 1256.56 265.562H1252.72ZM1256.56 272.762C1257.26 272.762 1257.78 272.735 1258.14 272.682C1258.52 272.615 1258.78 272.509 1258.94 272.362C1259.1 272.202 1259.18 271.989 1259.18 271.722C1259.18 271.375 1258.99 271.129 1258.6 270.982C1258.23 270.822 1257.55 270.742 1256.56 270.742H1252.72V272.762H1256.56ZM1268.21 276.622C1267.63 276.622 1267.13 276.415 1266.71 276.002C1266.3 275.575 1266.09 275.069 1266.09 274.482C1266.09 273.895 1266.3 273.395 1266.71 272.982C1267.13 272.569 1267.63 272.362 1268.21 272.362C1268.79 272.362 1269.28 272.575 1269.69 273.002C1270.12 273.415 1270.33 273.909 1270.33 274.482C1270.33 275.069 1270.12 275.575 1269.69 276.002C1269.28 276.415 1268.79 276.622 1268.21 276.622Z" fill="#454C62"/>
</g>
<defs>
<linearGradient id="paint0_linear_26_87" x1="1361.33" y1="106.672" x2="109.05" y2="229.836" gradientUnits="userSpaceOnUse">
<stop stop-color="#047B19"/>
<stop offset="0.322917" stop-color="#58B368" stop-opacity="0.44"/>
<stop offset="0.822917" stop-color="#58B368" stop-opacity="0.44"/>
<stop offset="1" stop-color="#70BE7E"/>
</linearGradient>
<clipPath id="clip0_26_87">
<rect width="1440" height="433" fill="white"/>
</clipPath>
</defs>
</svg>
