<svg width="178" height="48" viewBox="0 0 178 48" fill="none" xmlns="http://www.w3.org/2000/svg">
<path fill-rule="evenodd" clip-rule="evenodd" d="M0 34.1755L28.1755 6H34.5287V11.8008L40.0533 6V11.8008L10.4967 41.3574H4.14345V35.8328L0 39.9763V34.1755ZM8.83887 31.413L12.9823 27.2695V33.0704L8.83887 36.9376V31.413ZM21.2694 18.9805L17.126 23.1239V28.6485L21.2694 24.7813V18.9805ZM25.9658 14.288L30.1093 10.1445V15.9454L25.9658 19.8126V14.288Z" fill="white"/>
<path d="M51.4452 32.811C49.3592 32.811 47.8082 32.3653 46.7919 31.4739C45.7935 30.5646 45.2765 29.3523 45.2408 27.8368H49.3592C49.3592 28.2647 49.5286 28.6302 49.8674 28.9333C50.2239 29.2364 50.7499 29.3879 51.4452 29.3879C52.1227 29.3879 52.6219 29.2899 52.9428 29.0937C53.2637 28.8976 53.4242 28.6569 53.4242 28.3717C53.4242 27.819 52.9517 27.4535 52.0068 27.2752L49.9476 26.8741C47.095 26.3392 45.6687 24.8773 45.6687 22.4883C45.6687 21.2937 46.1768 20.3043 47.1931 19.5198C48.2093 18.7353 49.6178 18.3431 51.4184 18.3431C53.1835 18.3431 54.5919 18.7888 55.6438 19.6803C56.7135 20.5717 57.2484 21.686 57.2484 23.0231H53.1835C53.2013 22.6487 53.0587 22.3189 52.7556 22.0336C52.4525 21.7305 51.98 21.579 51.3382 21.579C50.839 21.579 50.4379 21.6771 50.1348 21.8732C49.8495 22.0515 49.7069 22.2743 49.7069 22.5417C49.7069 23.0409 50.0546 23.3619 50.7499 23.5045L53.4242 24.0126C54.6722 24.2444 55.6706 24.6901 56.4194 25.3497C57.186 25.9916 57.5693 26.99 57.5693 28.3449C57.5693 29.7534 57.0077 30.8499 55.8845 31.6343C54.7613 32.4188 53.2815 32.811 51.4452 32.811ZM61.7878 17.1664C60.9855 17.1664 60.3704 16.9614 59.9425 16.5513C59.5146 16.1235 59.3007 15.5262 59.3007 14.7596C59.3007 14.0108 59.5146 13.4313 59.9425 13.0213C60.3704 12.5934 60.9855 12.3795 61.7878 12.3795C62.5722 12.3795 63.1784 12.5934 63.6063 13.0213C64.052 13.4313 64.2749 14.0108 64.2749 14.7596C64.2749 15.5084 64.052 16.0967 63.6063 16.5246C63.1784 16.9525 62.5722 17.1664 61.7878 17.1664ZM59.7018 32.5703V18.5838H63.8202V32.5703H59.7018ZM65.4286 32.5703V32.3029L69.7074 25.5369L65.589 18.8512V18.5838H70.0283L72.5154 22.9964H72.6224L75.1095 18.5838H79.5488V18.8512L75.4304 25.5369L79.7092 32.3029V32.5703H75.163L72.6224 28.024H72.5154L69.9748 32.5703H65.4286Z" fill="#58B368"/>
<path d="M81.5934 32.5703V12.7806H85.7118V32.5703H81.5934ZM92.4815 32.811C90.9482 32.811 89.7448 32.4009 88.8712 31.5808C88.0154 30.7607 87.5875 29.7088 87.5875 28.4252C87.5875 27.088 88.0511 26.0361 88.9782 25.2695C89.9231 24.5029 91.3315 24.1196 93.2035 24.1196C94.398 24.1196 95.3964 24.2533 96.1987 24.5207V23.3708C96.1987 22.8537 96.0204 22.4437 95.6639 22.1406C95.3251 21.8197 94.7903 21.6592 94.0593 21.6592C93.4353 21.6592 92.9361 21.8108 92.5617 22.1139C92.2051 22.3991 92.0268 22.7646 92.0268 23.2103H88.1759C88.1759 21.8019 88.684 20.643 89.7002 19.7337C90.7343 18.8067 92.2319 18.3431 94.193 18.3431C96.065 18.3431 97.5537 18.8156 98.6591 19.7605C99.7644 20.6876 100.317 21.891 100.317 23.3708V32.5703H96.6266L96.3324 31.3134H96.2255C95.3519 32.3118 94.1039 32.811 92.4815 32.811ZM93.5244 29.6019C94.3446 29.6019 94.9953 29.3968 95.4767 28.9868C95.958 28.5767 96.1987 28.0686 96.1987 27.4624V27.3287C95.4499 27.0256 94.612 26.8741 93.6849 26.8741C93.0431 26.8741 92.5439 26.9989 92.1873 27.2485C91.8307 27.4981 91.6524 27.819 91.6524 28.2112C91.6524 28.6213 91.8129 28.96 92.1338 29.2275C92.4547 29.4771 92.9183 29.6019 93.5244 29.6019ZM107.859 32.811C106.13 32.811 104.748 32.1424 103.714 30.8053C102.698 29.4503 102.19 27.7031 102.19 25.5637C102.19 23.4421 102.698 21.7127 103.714 20.3756C104.748 19.0206 106.13 18.3431 107.859 18.3431C109.464 18.3431 110.703 18.8691 111.576 19.9209H111.683V12.7806H115.802V32.5703H112.111L111.683 31.2332H111.576C110.703 32.2851 109.464 32.811 107.859 32.811ZM107.03 28.1845C107.476 28.862 108.171 29.2007 109.116 29.2007C110.061 29.2007 110.756 28.862 111.202 28.1845C111.648 27.507 111.87 26.6334 111.87 25.5637C111.87 23.1568 110.952 21.9534 109.116 21.9534C107.28 21.9534 106.361 23.1568 106.361 25.5637C106.361 26.6334 106.584 27.507 107.03 28.1845ZM123.349 32.811C121.62 32.811 120.238 32.1424 119.204 30.8053C118.188 29.4503 117.68 27.7031 117.68 25.5637C117.68 23.4421 118.188 21.7127 119.204 20.3756C120.238 19.0206 121.62 18.3431 123.349 18.3431C124.954 18.3431 126.193 18.8691 127.066 19.9209H127.173V12.7806H131.292V32.5703H127.601L127.173 31.2332H127.066C126.193 32.2851 124.954 32.811 123.349 32.811ZM122.52 28.1845C122.966 28.862 123.661 29.2007 124.606 29.2007C125.551 29.2007 126.246 28.862 126.692 28.1845C127.138 27.507 127.36 26.6334 127.36 25.5637C127.36 23.1568 126.442 21.9534 124.606 21.9534C122.77 21.9534 121.851 23.1568 121.851 25.5637C121.851 26.6334 122.074 27.507 122.52 28.1845ZM140.096 32.811C137.956 32.811 136.263 32.1335 135.015 30.7785C133.785 29.4057 133.169 27.6764 133.169 25.5904C133.169 23.5045 133.767 21.7751 134.961 20.4023C136.156 19.0295 137.841 18.3431 140.016 18.3431C142.084 18.3431 143.715 18.9939 144.91 20.2953C146.104 21.579 146.701 23.2014 146.701 25.1625V26.6869H137.368C137.386 27.5427 137.618 28.2201 138.063 28.7193C138.509 29.2185 139.187 29.4681 140.096 29.4681C141.38 29.4681 142.191 29.0046 142.529 28.0775H146.514C146.318 29.4147 145.649 30.5379 144.508 31.4471C143.385 32.3564 141.914 32.811 140.096 32.811ZM137.395 24.0928H142.503C142.467 23.3797 142.235 22.8092 141.807 22.3813C141.397 21.9356 140.8 21.7127 140.016 21.7127C139.178 21.7127 138.536 21.9356 138.09 22.3813C137.662 22.8092 137.431 23.3797 137.395 24.0928ZM148.832 32.5703V18.5838H152.255L152.576 20.6163H152.683C153.432 19.1008 154.626 18.3431 156.266 18.3431H157.229V22.1139H155.892C154.911 22.1139 154.127 22.4348 153.539 23.0766C152.968 23.7006 152.683 24.5653 152.683 25.6707V32.5703H148.832ZM164.895 32.811C162.81 32.811 161.258 32.3653 160.242 31.4739C159.244 30.5646 158.727 29.3523 158.691 27.8368H162.81C162.81 28.2647 162.979 28.6302 163.318 28.9333C163.674 29.2364 164.2 29.3879 164.895 29.3879C165.573 29.3879 166.072 29.2899 166.393 29.0937C166.714 28.8976 166.874 28.6569 166.874 28.3717C166.874 27.819 166.402 27.4535 165.457 27.2752L163.398 26.8741C160.545 26.3392 159.119 24.8773 159.119 22.4883C159.119 21.2937 159.627 20.3043 160.643 19.5198C161.66 18.7353 163.068 18.3431 164.869 18.3431C166.634 18.3431 168.042 18.7888 169.094 19.6803C170.164 20.5717 170.699 21.686 170.699 23.0231H166.634C166.652 22.6487 166.509 22.3189 166.206 22.0336C165.903 21.7305 165.43 21.579 164.789 21.579C164.289 21.579 163.888 21.6771 163.585 21.8732C163.3 22.0515 163.157 22.2743 163.157 22.5417C163.157 23.0409 163.505 23.3619 164.2 23.5045L166.874 24.0126C168.122 24.2444 169.121 24.6901 169.87 25.3497C170.636 25.9916 171.02 26.99 171.02 28.3449C171.02 29.7534 170.458 30.8499 169.335 31.6343C168.212 32.4188 166.732 32.811 164.895 32.811Z" fill="white"/>
</svg>
