<svg width="210" height="120" viewBox="0 0 210 120" fill="none" xmlns="http://www.w3.org/2000/svg">
<path d="M105 119.858C139.695 119.858 167.82 118.227 167.82 116.216C167.82 114.205 139.695 112.574 105 112.574C70.3053 112.574 42.1797 114.205 42.1797 116.216C42.1797 118.227 70.3053 119.858 105 119.858Z" fill="#F5F5F5"/>
<path d="M102.769 66.8281H82.9761C82.697 66.8281 82.4707 67.0528 82.4707 67.33V75.5273C82.4707 75.8045 82.697 76.0292 82.9761 76.0292H102.769C103.048 76.0292 103.275 75.8045 103.275 75.5273V67.33C103.275 67.0528 103.048 66.8281 102.769 66.8281Z" fill="#58B368"/>
<path opacity="0.6" d="M102.769 66.8281H82.9761C82.697 66.8281 82.4707 67.0528 82.4707 67.33V75.5273C82.4707 75.8045 82.697 76.0292 82.9761 76.0292H102.769C103.048 76.0292 103.275 75.8045 103.275 75.5273V67.33C103.275 67.0528 103.048 66.8281 102.769 66.8281Z" fill="white"/>
<path opacity="0.1" d="M102.766 66.8281H82.9664C82.8323 66.8281 82.7038 66.881 82.609 66.9751C82.5142 67.0692 82.4609 67.1969 82.4609 67.33V69.9584L92.7641 71.9723C92.8272 71.9852 92.8922 71.9852 92.9553 71.9723L103.262 69.9584V67.33C103.262 67.1985 103.21 67.0723 103.117 66.9785C103.024 66.8846 102.898 66.8307 102.766 66.8281Z" fill="#454D66"/>
<path d="M103.201 63.4637H97.1557V62.4567C97.1548 62.0406 96.9879 61.6417 96.6916 61.3475C96.3953 61.0532 95.9936 60.8876 95.5745 60.8867H90.1735C89.7544 60.8876 89.3527 61.0532 89.0564 61.3475C88.7601 61.6417 88.5932 62.0406 88.5923 62.4567V63.4637H82.5497C82.4174 63.4637 82.2905 63.5159 82.1969 63.6088C82.1033 63.7017 82.0508 63.8277 82.0508 63.9591V68.9167C82.0514 69.0312 82.0917 69.142 82.1649 69.2304C82.238 69.3189 82.3396 69.3797 82.4525 69.4025L92.7784 71.4197C92.8418 71.4294 92.9062 71.4294 92.9696 71.4197L103.295 69.4025C103.409 69.3797 103.511 69.3191 103.584 69.2307C103.658 69.1423 103.699 69.0315 103.7 68.9167V63.9591C103.7 63.8277 103.648 63.7017 103.554 63.6088C103.461 63.5159 103.334 63.4637 103.201 63.4637ZM89.7944 62.4567C89.7952 62.3568 89.8353 62.2612 89.9061 62.1903C89.977 62.1194 90.0729 62.0787 90.1735 62.0771H95.5745C95.6751 62.0787 95.771 62.1194 95.8419 62.1903C95.9127 62.2612 95.9528 62.3568 95.9536 62.4567V63.4637H89.7976L89.7944 62.4567Z" fill="#58B368"/>
<path opacity="0.6" d="M103.201 63.4637H97.1557V62.4567C97.1548 62.0406 96.9879 61.6417 96.6916 61.3475C96.3953 61.0532 95.9936 60.8876 95.5745 60.8867H90.1735C89.7544 60.8876 89.3527 61.0532 89.0564 61.3475C88.7601 61.6417 88.5932 62.0406 88.5923 62.4567V63.4637H82.5497C82.4174 63.4637 82.2905 63.5159 82.1969 63.6088C82.1033 63.7017 82.0508 63.8277 82.0508 63.9591V68.9167C82.0514 69.0312 82.0917 69.142 82.1649 69.2304C82.238 69.3189 82.3396 69.3797 82.4525 69.4025L92.7784 71.4197C92.8418 71.4294 92.9062 71.4294 92.9696 71.4197L103.295 69.4025C103.409 69.3797 103.511 69.3191 103.584 69.2307C103.658 69.1423 103.699 69.0315 103.7 68.9167V63.9591C103.7 63.8277 103.648 63.7017 103.554 63.6088C103.461 63.5159 103.334 63.4637 103.201 63.4637ZM89.7944 62.4567C89.7952 62.3568 89.8353 62.2612 89.9061 62.1903C89.977 62.1194 90.0729 62.0787 90.1735 62.0771H95.5745C95.6751 62.0787 95.771 62.1194 95.8419 62.1903C95.9127 62.2612 95.9528 62.3568 95.9536 62.4567V63.4637H89.7976L89.7944 62.4567Z" fill="white"/>
<path d="M93.9415 70.0625H91.8096C91.5448 70.0625 91.3301 70.2757 91.3301 70.5386V71.877C91.3301 72.1399 91.5448 72.3531 91.8096 72.3531H93.9415C94.2064 72.3531 94.421 72.1399 94.421 71.877V70.5386C94.421 70.2757 94.2064 70.0625 93.9415 70.0625Z" fill="#58B368"/>
<path opacity="0.3" d="M93.9415 70.0625H91.8096C91.5448 70.0625 91.3301 70.2757 91.3301 70.5386V71.877C91.3301 72.1399 91.5448 72.3531 91.8096 72.3531H93.9415C94.2064 72.3531 94.421 72.1399 94.421 71.877V70.5386C94.421 70.2757 94.2064 70.0625 93.9415 70.0625Z" fill="white"/>
<path d="M102.769 7.64453H82.9761C82.697 7.64453 82.4707 7.86923 82.4707 8.14641V16.3437C82.4707 16.6209 82.697 16.8456 82.9761 16.8456H102.769C103.048 16.8456 103.275 16.6209 103.275 16.3437V8.14641C103.275 7.86923 103.048 7.64453 102.769 7.64453Z" fill="#58B368"/>
<path opacity="0.6" d="M102.769 7.64453H82.9761C82.697 7.64453 82.4707 7.86923 82.4707 8.14641V16.3437C82.4707 16.6209 82.697 16.8456 82.9761 16.8456H102.769C103.048 16.8456 103.275 16.6209 103.275 16.3437V8.14641C103.275 7.86923 103.048 7.64453 102.769 7.64453Z" fill="white"/>
<path opacity="0.1" d="M102.766 7.64453H82.9664C82.8323 7.64453 82.7038 7.69741 82.609 7.79153C82.5142 7.88565 82.4609 8.0133 82.4609 8.14641V10.7748L92.7641 12.7888C92.8272 12.8016 92.8922 12.8016 92.9553 12.7888L103.262 10.7748V8.14641C103.262 8.01496 103.21 7.88875 103.117 7.7949C103.024 7.70105 102.898 7.64706 102.766 7.64453Z" fill="#454D66"/>
<path d="M103.201 4.28007H97.1557V3.2731C97.1548 2.85698 96.9879 2.45814 96.6916 2.1639C96.3953 1.86966 95.9936 1.70398 95.5745 1.70312H90.1735C89.7544 1.70398 89.3527 1.86966 89.0564 2.1639C88.7601 2.45814 88.5932 2.85698 88.5923 3.2731V4.28007H82.5497C82.4174 4.28007 82.2905 4.33227 82.1969 4.42518C82.1033 4.51809 82.0508 4.64411 82.0508 4.77551V9.73315C82.0508 9.84777 82.0909 9.95883 82.1641 10.0474C82.2374 10.136 82.3393 10.1966 82.4525 10.2189L92.7784 12.2232C92.8415 12.2361 92.9065 12.2361 92.9696 12.2232L103.295 10.2061C103.407 10.185 103.509 10.1266 103.583 10.0407C103.657 9.95474 103.7 9.84629 103.704 9.73315V4.77551C103.704 4.71018 103.691 4.64549 103.665 4.58517C103.64 4.52485 103.603 4.47009 103.556 4.42404C103.51 4.37799 103.454 4.34156 103.393 4.31685C103.333 4.29215 103.267 4.27964 103.201 4.28007ZM89.7944 3.2731C89.7944 3.17297 89.8342 3.0769 89.9052 3.00579C89.9762 2.93469 90.0726 2.89432 90.1735 2.89347H95.5745C95.6748 2.89431 95.7707 2.93424 95.8416 3.00465C95.9126 3.07506 95.9528 3.17031 95.9536 3.26988V4.27685H89.7976L89.7944 3.2731Z" fill="#58B368"/>
<path opacity="0.6" d="M103.201 4.28007H97.1557V3.2731C97.1548 2.85698 96.9879 2.45814 96.6916 2.1639C96.3953 1.86966 95.9936 1.70398 95.5745 1.70312H90.1735C89.7544 1.70398 89.3527 1.86966 89.0564 2.1639C88.7601 2.45814 88.5932 2.85698 88.5923 3.2731V4.28007H82.5497C82.4174 4.28007 82.2905 4.33227 82.1969 4.42518C82.1033 4.51809 82.0508 4.64411 82.0508 4.77551V9.73315C82.0508 9.84777 82.0909 9.95883 82.1641 10.0474C82.2374 10.136 82.3393 10.1966 82.4525 10.2189L92.7784 12.2232C92.8415 12.2361 92.9065 12.2361 92.9696 12.2232L103.295 10.2061C103.407 10.185 103.509 10.1266 103.583 10.0407C103.657 9.95474 103.7 9.84629 103.704 9.73315V4.77551C103.704 4.71018 103.691 4.64549 103.665 4.58517C103.64 4.52485 103.603 4.47009 103.556 4.42404C103.51 4.37799 103.454 4.34156 103.393 4.31685C103.333 4.29215 103.267 4.27964 103.201 4.28007ZM89.7944 3.2731C89.7944 3.17297 89.8342 3.0769 89.9052 3.00579C89.9762 2.93469 90.0726 2.89432 90.1735 2.89347H95.5745C95.6748 2.89431 95.7707 2.93424 95.8416 3.00465C95.9126 3.07506 95.9528 3.17031 95.9536 3.26988V4.27685H89.7976L89.7944 3.2731Z" fill="white"/>
<path d="M93.9415 10.8828H91.8096C91.5448 10.8828 91.3301 11.096 91.3301 11.359V12.6973C91.3301 12.9603 91.5448 13.1734 91.8096 13.1734H93.9415C94.2064 13.1734 94.421 12.9603 94.421 12.6973V11.359C94.421 11.096 94.2064 10.8828 93.9415 10.8828Z" fill="#58B368"/>
<path opacity="0.3" d="M93.9415 10.8828H91.8096C91.5448 10.8828 91.3301 11.096 91.3301 11.359V12.6973C91.3301 12.9603 91.5448 13.1734 91.8096 13.1734H93.9415C94.2064 13.1734 94.421 12.9603 94.421 12.6973V11.359C94.421 11.096 94.2064 10.8828 93.9415 10.8828Z" fill="white"/>
<path d="M71.9373 66.8281H52.1441C51.865 66.8281 51.6387 67.0528 51.6387 67.33V75.5273C51.6387 75.8045 51.865 76.0292 52.1441 76.0292H71.9373C72.2164 76.0292 72.4427 75.8045 72.4427 75.5273V67.33C72.4427 67.0528 72.2164 66.8281 71.9373 66.8281Z" fill="#58B368"/>
<path opacity="0.6" d="M71.9373 66.8281H52.1441C51.865 66.8281 51.6387 67.0528 51.6387 67.33V75.5273C51.6387 75.8045 51.865 76.0292 52.1441 76.0292H71.9373C72.2164 76.0292 72.4427 75.8045 72.4427 75.5273V67.33C72.4427 67.0528 72.2164 66.8281 71.9373 66.8281Z" fill="white"/>
<path opacity="0.1" d="M71.9502 66.8281H52.1441C52.0101 66.8281 51.8815 66.881 51.7867 66.9751C51.6919 67.0692 51.6387 67.1969 51.6387 67.33V69.9584L61.9419 71.9723C62.006 71.9852 62.0721 71.9852 62.1363 71.9723L72.4427 69.9584V67.33C72.4428 67.1991 72.3913 67.0733 72.2993 66.9796C72.2073 66.8858 72.082 66.8315 71.9502 66.8281Z" fill="#454D66"/>
<path d="M72.3656 63.4637H66.3197V62.4567C66.3189 62.0406 66.152 61.6417 65.8557 61.3475C65.5593 61.0532 65.1577 60.8876 64.7386 60.8867H59.3408C58.9217 60.8876 58.52 61.0532 58.2237 61.3475C57.9274 61.6417 57.7605 62.0406 57.7596 62.4567V63.4637H51.7138C51.5815 63.4637 51.4546 63.5159 51.361 63.6088C51.2674 63.7017 51.2148 63.8277 51.2148 63.9591V68.9167C51.2155 69.0312 51.2558 69.142 51.3289 69.2304C51.4021 69.3189 51.5037 69.3797 51.6166 69.4025L61.9425 71.4197C62.0069 71.4294 62.0724 71.4294 62.1369 71.4197L72.4628 69.4025C72.5757 69.3797 72.6773 69.3189 72.7504 69.2304C72.8236 69.142 72.8639 69.0312 72.8645 68.9167V63.9591C72.8645 63.8277 72.8119 63.7017 72.7184 63.6088C72.6248 63.5159 72.4979 63.4637 72.3656 63.4637ZM58.9584 62.4567C58.9601 62.3565 59.0009 62.2609 59.0723 62.1901C59.1436 62.1193 59.2399 62.0787 59.3408 62.0771H64.7386C64.8395 62.0787 64.9358 62.1193 65.0071 62.1901C65.0784 62.2609 65.1193 62.3565 65.1209 62.4567V63.4637H58.9649L58.9584 62.4567Z" fill="#58B368"/>
<path opacity="0.6" d="M72.3656 63.4637H66.3197V62.4567C66.3189 62.0406 66.152 61.6417 65.8557 61.3475C65.5593 61.0532 65.1577 60.8876 64.7386 60.8867H59.3408C58.9217 60.8876 58.52 61.0532 58.2237 61.3475C57.9274 61.6417 57.7605 62.0406 57.7596 62.4567V63.4637H51.7138C51.5815 63.4637 51.4546 63.5159 51.361 63.6088C51.2674 63.7017 51.2148 63.8277 51.2148 63.9591V68.9167C51.2155 69.0312 51.2558 69.142 51.3289 69.2304C51.4021 69.3189 51.5037 69.3797 51.6166 69.4025L61.9425 71.4197C62.0069 71.4294 62.0724 71.4294 62.1369 71.4197L72.4628 69.4025C72.5757 69.3797 72.6773 69.3189 72.7504 69.2304C72.8236 69.142 72.8639 69.0312 72.8645 68.9167V63.9591C72.8645 63.8277 72.8119 63.7017 72.7184 63.6088C72.6248 63.5159 72.4979 63.4637 72.3656 63.4637ZM58.9584 62.4567C58.9601 62.3565 59.0009 62.2609 59.0723 62.1901C59.1436 62.1193 59.2399 62.0787 59.3408 62.0771H64.7386C64.8395 62.0787 64.9358 62.1193 65.0071 62.1901C65.0784 62.2609 65.1193 62.3565 65.1209 62.4567V63.4637H58.9649L58.9584 62.4567Z" fill="white"/>
<path d="M63.1056 70.0625H60.9737C60.7088 70.0625 60.4941 70.2757 60.4941 70.5386V71.877C60.4941 72.1399 60.7088 72.3531 60.9737 72.3531H63.1056C63.3704 72.3531 63.5851 72.1399 63.5851 71.877V70.5386C63.5851 70.2757 63.3704 70.0625 63.1056 70.0625Z" fill="#58B368"/>
<path opacity="0.3" d="M63.1056 70.0625H60.9737C60.7088 70.0625 60.4941 70.2757 60.4941 70.5386V71.877C60.4941 72.1399 60.7088 72.3531 60.9737 72.3531H63.1056C63.3704 72.3531 63.5851 72.1399 63.5851 71.877V70.5386C63.5851 70.2757 63.3704 70.0625 63.1056 70.0625Z" fill="white"/>
<path d="M71.9392 7.64453H52.1461C51.8669 7.64453 51.6406 7.86923 51.6406 8.14641V16.3437C51.6406 16.6209 51.8669 16.8456 52.1461 16.8456H71.9392C72.2184 16.8456 72.4447 16.6209 72.4447 16.3437V8.14641C72.4447 7.86923 72.2184 7.64453 71.9392 7.64453Z" fill="#58B368"/>
<path opacity="0.6" d="M71.9392 7.64453H52.1461C51.8669 7.64453 51.6406 7.86923 51.6406 8.14641V16.3437C51.6406 16.6209 51.8669 16.8456 52.1461 16.8456H71.9392C72.2184 16.8456 72.4447 16.6209 72.4447 16.3437V8.14641C72.4447 7.86923 72.2184 7.64453 71.9392 7.64453Z" fill="white"/>
<path opacity="0.1" d="M71.9522 7.64453H52.1461C52.012 7.64453 51.8835 7.69741 51.7887 7.79153C51.6939 7.88565 51.6406 8.0133 51.6406 8.14641V10.7748L61.9438 12.7888C62.008 12.8017 62.0741 12.8017 62.1382 12.7888L72.4447 10.7748V8.14641C72.4447 8.0155 72.3932 7.88976 72.3012 7.796C72.2092 7.70224 72.084 7.64789 71.9522 7.64453Z" fill="#454D66"/>
<path d="M72.3656 4.28016H66.3197V3.27319C66.3189 2.85707 66.152 2.45823 65.8557 2.16399C65.5593 1.86975 65.1577 1.70407 64.7386 1.70322H59.3408C58.9217 1.70407 58.52 1.86975 58.2237 2.16399C57.9274 2.45823 57.7605 2.85707 57.7596 3.27319V4.28016H51.7138C51.5815 4.28016 51.4546 4.33236 51.361 4.42527C51.2674 4.51819 51.2148 4.6442 51.2148 4.7756V9.73324C51.2149 9.84787 51.2549 9.95893 51.3282 10.0475C51.4015 10.1361 51.5034 10.1967 51.6166 10.219L61.9425 12.2233C62.0066 12.2362 62.0727 12.2362 62.1369 12.2233L72.4628 10.2062C72.576 10.1838 72.6779 10.1232 72.7512 10.0346C72.8244 9.94606 72.8645 9.835 72.8645 9.72038V4.7756C72.8645 4.6442 72.8119 4.51819 72.7184 4.42527C72.6248 4.33236 72.4979 4.28016 72.3656 4.28016ZM58.9584 3.27319C58.9593 3.17277 58.9998 3.0767 59.0714 3.00568C59.1429 2.93467 59.2396 2.89441 59.3408 2.89357H64.7386C64.8392 2.89439 64.9355 2.93421 65.0069 3.00454C65.0783 3.07486 65.1192 3.17011 65.1209 3.26997V4.27694H58.9649L58.9584 3.27319Z" fill="#58B368"/>
<path opacity="0.6" d="M72.3656 4.28016H66.3197V3.27319C66.3189 2.85707 66.152 2.45823 65.8557 2.16399C65.5593 1.86975 65.1577 1.70407 64.7386 1.70322H59.3408C58.9217 1.70407 58.52 1.86975 58.2237 2.16399C57.9274 2.45823 57.7605 2.85707 57.7596 3.27319V4.28016H51.7138C51.5815 4.28016 51.4546 4.33236 51.361 4.42527C51.2674 4.51819 51.2148 4.6442 51.2148 4.7756V9.73324C51.2149 9.84787 51.2549 9.95893 51.3282 10.0475C51.4015 10.1361 51.5034 10.1967 51.6166 10.219L61.9425 12.2233C62.0066 12.2362 62.0727 12.2362 62.1369 12.2233L72.4628 10.2062C72.576 10.1838 72.6779 10.1232 72.7512 10.0346C72.8244 9.94606 72.8645 9.835 72.8645 9.72038V4.7756C72.8645 4.6442 72.8119 4.51819 72.7184 4.42527C72.6248 4.33236 72.4979 4.28016 72.3656 4.28016ZM58.9584 3.27319C58.9593 3.17277 58.9998 3.0767 59.0714 3.00568C59.1429 2.93467 59.2396 2.89441 59.3408 2.89357H64.7386C64.8392 2.89439 64.9355 2.93421 65.0069 3.00454C65.0783 3.07486 65.1192 3.17011 65.1209 3.26997V4.27694H58.9649L58.9584 3.27319Z" fill="white"/>
<path d="M63.1056 10.8828H60.9737C60.7088 10.8828 60.4941 11.096 60.4941 11.359V12.6973C60.4941 12.9603 60.7088 13.1734 60.9737 13.1734H63.1056C63.3704 13.1734 63.5851 12.9603 63.5851 12.6973V11.359C63.5851 11.096 63.3704 10.8828 63.1056 10.8828Z" fill="#58B368"/>
<path opacity="0.3" d="M63.1056 10.8828H60.9737C60.7088 10.8828 60.4941 11.096 60.4941 11.359V12.6973C60.4941 12.9603 60.7088 13.1734 60.9737 13.1734H63.1056C63.3704 13.1734 63.5851 12.9603 63.5851 12.6973V11.359C63.5851 11.096 63.3704 10.8828 63.1056 10.8828Z" fill="white"/>
<path d="M69.3595 46.4394H52.1454C52.0105 46.4394 51.8811 46.3861 51.7857 46.2914C51.6903 46.1967 51.6367 46.0682 51.6367 45.9343V37.7402C51.6372 37.6726 51.6516 37.6058 51.6788 37.5439C51.692 37.515 51.7072 37.4871 51.7242 37.4603C51.7422 37.4327 51.764 37.4078 51.789 37.3863C51.8834 37.292 52.0116 37.2388 52.1454 37.2383H68.4394C68.3038 38.3611 68.2594 39.4929 68.3065 40.6227C68.3065 40.8061 68.3065 40.9895 68.3357 41.1696C68.3584 41.5074 68.3843 41.8485 68.4232 42.1863C68.5899 43.6317 68.9036 45.0567 69.3595 46.4394Z" fill="#58B368"/>
<path opacity="0.6" d="M69.3595 46.4394H52.1454C52.0105 46.4394 51.8811 46.3861 51.7857 46.2914C51.6903 46.1967 51.6367 46.0682 51.6367 45.9343V37.7402C51.6372 37.6726 51.6516 37.6058 51.6788 37.5439C51.692 37.515 51.7072 37.4871 51.7242 37.4603C51.7422 37.4327 51.764 37.4078 51.789 37.3863C51.8834 37.292 52.0116 37.2388 52.1454 37.2383H68.4394C68.3038 38.3611 68.2594 39.4929 68.3065 40.6227C68.3065 40.8061 68.3065 40.9895 68.3357 41.1696C68.3584 41.5074 68.3843 41.8485 68.4232 42.1863C68.5899 43.6317 68.9036 45.0567 69.3595 46.4394Z" fill="white"/>
<path opacity="0.1" d="M68.44 37.2383C68.3045 38.3611 68.26 39.4929 68.3072 40.6227C68.3072 40.8061 68.3072 40.9895 68.3363 41.1696L63.5865 42.0962L62.135 42.3793C62.0723 42.3954 62.0065 42.3954 61.9438 42.3793L60.4955 42.0994L51.6406 40.3686V37.7369C51.6416 37.6708 51.6548 37.6054 51.6795 37.5439C51.6927 37.515 51.7078 37.4871 51.7249 37.4603C51.7429 37.4327 51.7647 37.4078 51.7897 37.3863C51.884 37.292 52.0122 37.2388 52.1461 37.2383H68.44Z" fill="#454D66"/>
<path d="M69.1158 33.8699H66.323V32.8629C66.3213 32.4465 66.1537 32.0477 65.8568 31.7535C65.56 31.4594 65.158 31.2938 64.7386 31.293H59.3408C58.9214 31.293 58.5193 31.4584 58.2227 31.7528C57.9262 32.0472 57.7596 32.4466 57.7596 32.8629V33.8699H51.7138C51.6483 33.8699 51.5834 33.8827 51.5229 33.9076C51.4623 33.9325 51.4073 33.969 51.361 34.015C51.3147 34.061 51.2779 34.1156 51.2528 34.1758C51.2277 34.2359 51.2148 34.3003 51.2148 34.3654V39.3198C51.2149 39.4352 51.2553 39.5471 51.3292 39.6363C51.403 39.7255 51.5058 39.7864 51.6198 39.8088H51.6393L60.4942 41.5428L61.9425 41.8227C62.0055 41.8356 62.0706 41.8356 62.1336 41.8227L63.5852 41.5396L68.3058 40.6163C68.2587 39.4864 68.3031 38.3546 68.4387 37.2318C68.5732 36.095 68.7997 34.9707 69.1158 33.8699ZM58.9584 32.8629C58.9601 32.7631 59.0011 32.6678 59.0725 32.5975C59.1439 32.5272 59.2402 32.4874 59.3408 32.4865H64.7386C64.8389 32.4874 64.9348 32.5273 65.0057 32.5977C65.0766 32.6681 65.1168 32.7634 65.1177 32.8629V33.8699H58.9617L58.9584 32.8629Z" fill="#58B368"/>
<path opacity="0.6" d="M69.1158 33.8699H66.323V32.8629C66.3213 32.4465 66.1537 32.0477 65.8568 31.7535C65.56 31.4594 65.158 31.2938 64.7386 31.293H59.3408C58.9214 31.293 58.5193 31.4584 58.2227 31.7528C57.9262 32.0472 57.7596 32.4466 57.7596 32.8629V33.8699H51.7138C51.6483 33.8699 51.5834 33.8827 51.5229 33.9076C51.4623 33.9325 51.4073 33.969 51.361 34.015C51.3147 34.061 51.2779 34.1156 51.2528 34.1758C51.2277 34.2359 51.2148 34.3003 51.2148 34.3654V39.3198C51.2149 39.4352 51.2553 39.5471 51.3292 39.6363C51.403 39.7255 51.5058 39.7864 51.6198 39.8088H51.6393L60.4942 41.5428L61.9425 41.8227C62.0055 41.8356 62.0706 41.8356 62.1336 41.8227L63.5852 41.5396L68.3058 40.6163C68.2587 39.4864 68.3031 38.3546 68.4387 37.2318C68.5732 36.095 68.7997 34.9707 69.1158 33.8699ZM58.9584 32.8629C58.9601 32.7631 59.0011 32.6678 59.0725 32.5975C59.1439 32.5272 59.2402 32.4874 59.3408 32.4865H64.7386C64.8389 32.4874 64.9348 32.5273 65.0057 32.5977C65.0766 32.6681 65.1168 32.7634 65.1177 32.8629V33.8699H58.9617L58.9584 32.8629Z" fill="white"/>
<path d="M63.1056 40.4727H60.9737C60.7088 40.4727 60.4941 40.6858 60.4941 40.9488V42.2871C60.4941 42.5501 60.7088 42.7633 60.9737 42.7633H63.1056C63.3704 42.7633 63.5851 42.5501 63.5851 42.2871V40.9488C63.5851 40.6858 63.3704 40.4727 63.1056 40.4727Z" fill="#58B368"/>
<path opacity="0.3" d="M63.1056 40.4727H60.9737C60.7088 40.4727 60.4941 40.6858 60.4941 40.9488V42.2871C60.4941 42.5501 60.7088 42.7633 60.9737 42.7633H63.1056C63.3704 42.7633 63.5851 42.5501 63.5851 42.2871V40.9488C63.5851 40.6858 63.3704 40.4727 63.1056 40.4727Z" fill="white"/>
<path d="M113.809 76.0273H133.602C133.881 76.0273 134.107 75.8026 134.107 75.5255V67.3281C134.107 67.051 133.881 66.8263 133.602 66.8263H113.809C113.53 66.8263 113.303 67.051 113.303 67.3281V75.5255C113.303 75.8026 113.53 76.0273 113.809 76.0273Z" fill="#58B368"/>
<path opacity="0.6" d="M113.809 76.0273H133.602C133.881 76.0273 134.107 75.8026 134.107 75.5255V67.3281C134.107 67.051 133.881 66.8263 133.602 66.8263H113.809C113.53 66.8263 113.303 67.051 113.303 67.3281V75.5255C113.303 75.8026 113.53 76.0273 113.809 76.0273Z" fill="white"/>
<path opacity="0.1" d="M113.811 66.8283H133.601C133.735 66.8283 133.864 66.8812 133.959 66.9753C134.054 67.0694 134.107 67.1971 134.107 67.3302V69.9586L123.791 71.9725C123.728 71.9853 123.662 71.9853 123.599 71.9725L113.293 69.9586V67.3302C113.293 67.2632 113.306 67.1968 113.333 67.1351C113.359 67.0733 113.397 67.0174 113.446 66.9707C113.494 66.9239 113.551 66.8872 113.614 66.8627C113.677 66.8383 113.744 66.8266 113.811 66.8283Z" fill="#454D66"/>
<path d="M113.381 63.4637H119.427V62.4567C119.428 62.0406 119.595 61.6417 119.891 61.3475C120.187 61.0532 120.589 60.8876 121.008 60.8867H126.409C126.828 60.8876 127.23 61.0532 127.526 61.3475C127.823 61.6417 127.989 62.0406 127.99 62.4567V63.4637H134.033C134.098 63.4637 134.163 63.4765 134.224 63.5014C134.284 63.5263 134.339 63.5628 134.386 63.6088C134.432 63.6548 134.469 63.7094 134.494 63.7695C134.519 63.8296 134.532 63.894 134.532 63.9591V68.9167C134.531 69.0312 134.491 69.142 134.418 69.2304C134.345 69.3189 134.243 69.3797 134.13 69.4025L123.791 71.4197C123.727 71.4294 123.661 71.4294 123.597 71.4197L113.271 69.4025C113.158 69.3797 113.056 69.3189 112.983 69.2304C112.91 69.142 112.87 69.0312 112.869 68.9167V63.9591C112.869 63.8929 112.882 63.8275 112.908 63.7665C112.934 63.7055 112.972 63.6503 113.02 63.6041C113.068 63.558 113.124 63.5217 113.186 63.4976C113.248 63.4735 113.314 63.4619 113.381 63.4637ZM126.788 62.4567C126.787 62.3568 126.747 62.2612 126.676 62.1903C126.606 62.1194 126.51 62.0787 126.409 62.0771H121.008C120.907 62.0787 120.811 62.1193 120.74 62.1901C120.668 62.2609 120.627 62.3565 120.626 62.4567V63.4637H126.782L126.788 62.4567Z" fill="#58B368"/>
<path opacity="0.6" d="M113.381 63.4637H119.427V62.4567C119.428 62.0406 119.595 61.6417 119.891 61.3475C120.187 61.0532 120.589 60.8876 121.008 60.8867H126.409C126.828 60.8876 127.23 61.0532 127.526 61.3475C127.823 61.6417 127.989 62.0406 127.99 62.4567V63.4637H134.033C134.098 63.4637 134.163 63.4765 134.224 63.5014C134.284 63.5263 134.339 63.5628 134.386 63.6088C134.432 63.6548 134.469 63.7094 134.494 63.7695C134.519 63.8296 134.532 63.894 134.532 63.9591V68.9167C134.531 69.0312 134.491 69.142 134.418 69.2304C134.345 69.3189 134.243 69.3797 134.13 69.4025L123.791 71.4197C123.727 71.4294 123.661 71.4294 123.597 71.4197L113.271 69.4025C113.158 69.3797 113.056 69.3189 112.983 69.2304C112.91 69.142 112.87 69.0312 112.869 68.9167V63.9591C112.869 63.8929 112.882 63.8275 112.908 63.7665C112.934 63.7055 112.972 63.6503 113.02 63.6041C113.068 63.558 113.124 63.5217 113.186 63.4976C113.248 63.4735 113.314 63.4619 113.381 63.4637ZM126.788 62.4567C126.787 62.3568 126.747 62.2612 126.676 62.1903C126.606 62.1194 126.51 62.0787 126.409 62.0771H121.008C120.907 62.0787 120.811 62.1193 120.74 62.1901C120.668 62.2609 120.627 62.3565 120.626 62.4567V63.4637H126.782L126.788 62.4567Z" fill="white"/>
<path d="M122.641 72.3555H124.772C125.037 72.3555 125.252 72.1423 125.252 71.8793V70.541C125.252 70.278 125.037 70.0648 124.772 70.0648H122.641C122.376 70.0648 122.161 70.278 122.161 70.541V71.8793C122.161 72.1423 122.376 72.3555 122.641 72.3555Z" fill="#58B368"/>
<path opacity="0.3" d="M122.641 72.3555H124.772C125.037 72.3555 125.252 72.1423 125.252 71.8793V70.541C125.252 70.278 125.037 70.0648 124.772 70.0648H122.641C122.376 70.0648 122.161 70.278 122.161 70.541V71.8793C122.161 72.1423 122.376 72.3555 122.641 72.3555Z" fill="white"/>
<path d="M113.809 16.8438L133.602 16.8438C133.881 16.8438 134.107 16.6191 134.107 16.3419V8.14455C134.107 7.86738 133.881 7.64268 133.602 7.64268L113.809 7.64268C113.53 7.64268 113.303 7.86738 113.303 8.14455V16.3419C113.303 16.6191 113.53 16.8438 113.809 16.8438Z" fill="#58B368"/>
<path opacity="0.6" d="M113.809 16.8438L133.602 16.8438C133.881 16.8438 134.107 16.6191 134.107 16.3419V8.14455C134.107 7.86738 133.881 7.64268 133.602 7.64268L113.809 7.64268C113.53 7.64268 113.303 7.86738 113.303 8.14455V16.3419C113.303 16.6191 113.53 16.8438 113.809 16.8438Z" fill="white"/>
<path opacity="0.1" d="M113.812 7.64453H133.602C133.736 7.64453 133.865 7.69741 133.959 7.79153C134.054 7.88565 134.107 8.0133 134.107 8.14641V10.7748L123.791 12.7888C123.728 12.8016 123.663 12.8016 123.6 12.7888L113.307 10.7748V8.14641C113.307 8.0133 113.36 7.88565 113.455 7.79153C113.549 7.69741 113.678 7.64453 113.812 7.64453Z" fill="#454D66"/>
<path d="M113.381 4.2801H119.427V3.27313C119.428 2.85701 119.595 2.45817 119.891 2.16393C120.187 1.86969 120.589 1.704 121.008 1.70315H126.409C126.618 1.70188 126.824 1.74153 127.018 1.81982C127.211 1.89811 127.386 2.0135 127.535 2.15937C127.683 2.30524 127.8 2.47872 127.881 2.66985C127.961 2.86097 128.003 3.06599 128.003 3.27313V4.2801H134.046C134.178 4.2801 134.305 4.3323 134.399 4.42521C134.492 4.51812 134.545 4.64414 134.545 4.77554V9.73318C134.545 9.8478 134.505 9.95886 134.431 10.0474C134.358 10.136 134.256 10.1966 134.143 10.219L123.791 12.2233C123.727 12.2362 123.661 12.2362 123.597 12.2233L113.271 10.2061C113.158 10.1838 113.056 10.1232 112.982 10.0346C112.909 9.94599 112.869 9.83493 112.869 9.72031V4.77554C112.869 4.70938 112.882 4.64389 112.908 4.58292C112.934 4.52196 112.972 4.46676 113.02 4.42058C113.068 4.3744 113.124 4.33818 113.186 4.31405C113.248 4.28993 113.314 4.27838 113.381 4.2801ZM126.788 3.27313C126.788 3.173 126.748 3.07693 126.677 3.00582C126.606 2.93472 126.51 2.89435 126.409 2.8935H121.008C120.907 2.89433 120.811 2.93415 120.74 3.00447C120.668 3.0748 120.627 3.17005 120.626 3.26991V4.27688H126.782L126.788 3.27313Z" fill="#58B368"/>
<path opacity="0.6" d="M113.381 4.2801H119.427V3.27313C119.428 2.85701 119.595 2.45817 119.891 2.16393C120.187 1.86969 120.589 1.704 121.008 1.70315H126.409C126.618 1.70188 126.824 1.74153 127.018 1.81982C127.211 1.89811 127.386 2.0135 127.535 2.15937C127.683 2.30524 127.8 2.47872 127.881 2.66985C127.961 2.86097 128.003 3.06599 128.003 3.27313V4.2801H134.046C134.178 4.2801 134.305 4.3323 134.399 4.42521C134.492 4.51812 134.545 4.64414 134.545 4.77554V9.73318C134.545 9.8478 134.505 9.95886 134.431 10.0474C134.358 10.136 134.256 10.1966 134.143 10.219L123.791 12.2233C123.727 12.2362 123.661 12.2362 123.597 12.2233L113.271 10.2061C113.158 10.1838 113.056 10.1232 112.982 10.0346C112.909 9.94599 112.869 9.83493 112.869 9.72031V4.77554C112.869 4.70938 112.882 4.64389 112.908 4.58292C112.934 4.52196 112.972 4.46676 113.02 4.42058C113.068 4.3744 113.124 4.33818 113.186 4.31405C113.248 4.28993 113.314 4.27838 113.381 4.2801ZM126.788 3.27313C126.788 3.173 126.748 3.07693 126.677 3.00582C126.606 2.93472 126.51 2.89435 126.409 2.8935H121.008C120.907 2.89433 120.811 2.93415 120.74 3.00447C120.668 3.0748 120.627 3.17005 120.626 3.26991V4.27688H126.782L126.788 3.27313Z" fill="white"/>
<path d="M122.641 13.1719H124.772C125.037 13.1719 125.252 12.9587 125.252 12.6957V11.3574C125.252 11.0944 125.037 10.8813 124.772 10.8813H122.641C122.376 10.8813 122.161 11.0944 122.161 11.3574V12.6957C122.161 12.9587 122.376 13.1719 122.641 13.1719Z" fill="#58B368"/>
<path opacity="0.3" d="M122.641 13.1719H124.772C125.037 13.1719 125.252 12.9587 125.252 12.6957V11.3574C125.252 11.0944 125.037 10.8813 124.772 10.8813H122.641C122.376 10.8813 122.161 11.0944 122.161 11.3574V12.6957C122.161 12.9587 122.376 13.1719 122.641 13.1719Z" fill="white"/>
<path d="M116.4 46.4394H133.605C133.739 46.4385 133.868 46.3849 133.962 46.2903C134.057 46.1956 134.11 46.0677 134.11 45.9343V37.7402C134.11 37.6726 134.095 37.6058 134.068 37.5439C134.056 37.5144 134.041 37.4863 134.023 37.4603C134.005 37.4327 133.983 37.4078 133.958 37.3863C133.911 37.3393 133.856 37.3021 133.795 37.2766C133.734 37.2512 133.668 37.2382 133.602 37.2383H117.311C117.446 38.3611 117.491 39.4929 117.444 40.6227C117.444 40.8061 117.444 40.9895 117.415 41.1696C117.395 41.5074 117.366 41.8485 117.327 42.1863C117.163 43.6314 116.853 45.0563 116.4 46.4394Z" fill="#58B368"/>
<path opacity="0.6" d="M116.4 46.4394H133.605C133.739 46.4385 133.868 46.3849 133.962 46.2903C134.057 46.1956 134.11 46.0677 134.11 45.9343V37.7402C134.11 37.6726 134.095 37.6058 134.068 37.5439C134.056 37.5144 134.041 37.4863 134.023 37.4603C134.005 37.4327 133.983 37.4078 133.958 37.3863C133.911 37.3393 133.856 37.3021 133.795 37.2766C133.734 37.2512 133.668 37.2382 133.602 37.2383H117.311C117.446 38.3611 117.491 39.4929 117.444 40.6227C117.444 40.8061 117.444 40.9895 117.415 41.1696C117.395 41.5074 117.366 41.8485 117.327 42.1863C117.163 43.6314 116.853 45.0563 116.4 46.4394Z" fill="white"/>
<path opacity="0.1" d="M117.311 37.2383C117.446 38.3611 117.491 39.4929 117.443 40.6227C117.443 40.8061 117.443 40.9895 117.414 41.1696L122.171 42.0962L123.622 42.3793C123.685 42.3954 123.751 42.3954 123.813 42.3793L125.262 42.0994L134.116 40.3686V37.7369C134.115 37.6708 134.102 37.6054 134.078 37.5439C134.066 37.5144 134.05 37.4863 134.032 37.4603C134.014 37.4327 133.992 37.4078 133.967 37.3863C133.921 37.3393 133.865 37.3021 133.804 37.2766C133.743 37.2512 133.677 37.2382 133.611 37.2383H117.311Z" fill="#454D66"/>
<path d="M116.63 33.8699H119.426V32.8629C119.427 32.4468 119.594 32.048 119.89 31.7537C120.187 31.4595 120.588 31.2938 121.007 31.293H126.405C126.825 31.293 127.227 31.4583 127.524 31.7526C127.821 32.0469 127.989 32.4463 127.99 32.8629V33.8699H134.032C134.165 33.8699 134.291 33.9221 134.385 34.015C134.479 34.1079 134.531 34.234 134.531 34.3654V39.3198C134.531 39.4348 134.491 39.5463 134.418 39.6354C134.345 39.7245 134.243 39.7858 134.129 39.8088H134.107L125.252 41.5428L123.791 41.8195C123.727 41.8323 123.662 41.8323 123.599 41.8195L122.148 41.5364L117.427 40.6131C117.519 38.3327 117.246 36.0523 116.617 33.857L116.63 33.8699ZM126.788 32.8629C126.786 32.7631 126.745 32.6678 126.674 32.5975C126.602 32.5272 126.506 32.4874 126.405 32.4865H121.007C120.907 32.4874 120.811 32.5273 120.74 32.5977C120.669 32.6681 120.629 32.7634 120.628 32.8629V33.8699H126.784L126.788 32.8629Z" fill="#58B368"/>
<path opacity="0.6" d="M116.63 33.8699H119.426V32.8629C119.427 32.4468 119.594 32.048 119.89 31.7537C120.187 31.4595 120.588 31.2938 121.007 31.293H126.405C126.825 31.293 127.227 31.4583 127.524 31.7526C127.821 32.0469 127.989 32.4463 127.99 32.8629V33.8699H134.032C134.165 33.8699 134.291 33.9221 134.385 34.015C134.479 34.1079 134.531 34.234 134.531 34.3654V39.3198C134.531 39.4348 134.491 39.5463 134.418 39.6354C134.345 39.7245 134.243 39.7858 134.129 39.8088H134.107L125.252 41.5428L123.791 41.8195C123.727 41.8323 123.662 41.8323 123.599 41.8195L122.148 41.5364L117.427 40.6131C117.519 38.3327 117.246 36.0523 116.617 33.857L116.63 33.8699ZM126.788 32.8629C126.786 32.7631 126.745 32.6678 126.674 32.5975C126.602 32.5272 126.506 32.4874 126.405 32.4865H121.007C120.907 32.4874 120.811 32.5273 120.74 32.5977C120.669 32.6681 120.629 32.7634 120.628 32.8629V33.8699H126.784L126.788 32.8629Z" fill="white"/>
<path d="M122.641 42.7656H124.772C125.037 42.7656 125.252 42.5525 125.252 42.2895V40.9511C125.252 40.6882 125.037 40.475 124.772 40.475H122.641C122.376 40.475 122.161 40.6882 122.161 40.9511V42.2895C122.161 42.5525 122.376 42.7656 122.641 42.7656Z" fill="#58B368"/>
<path opacity="0.3" d="M122.641 42.7656H124.772C125.037 42.7656 125.252 42.5525 125.252 42.2895V40.9511C125.252 40.6882 125.037 40.475 124.772 40.475H122.641C122.376 40.475 122.161 40.6882 122.161 40.9511V42.2895C122.161 42.5525 122.376 42.7656 122.641 42.7656Z" fill="white"/>
<path d="M108.141 35.2383H79.7004C79.2995 35.2383 78.9746 35.5609 78.9746 35.9589V47.7369C78.9746 48.1349 79.2995 48.4576 79.7004 48.4576H108.141C108.542 48.4576 108.867 48.1349 108.867 47.7369V35.9589C108.867 35.5609 108.542 35.2383 108.141 35.2383Z" fill="#58B368"/>
<path d="M97.7995 33.1361H90.0397C89.4514 33.1352 88.8873 32.9028 88.4713 32.4897C88.0553 32.0766 87.8212 31.5165 87.8203 30.9323V28.9538C87.8212 28.3695 88.0553 27.8095 88.4713 27.3964C88.8873 26.9833 89.4514 26.7509 90.0397 26.75H97.7995C98.3881 26.75 98.9527 26.9822 99.3689 27.3955C99.7851 27.8087 100.019 28.3693 100.019 28.9538V30.9227C100.02 31.2129 99.9637 31.5005 99.8528 31.769C99.7418 32.0375 99.5785 32.2815 99.3723 32.4872C99.1661 32.6929 98.921 32.856 98.6511 32.9674C98.3812 33.0788 98.0918 33.1361 97.7995 33.1361ZM90.0397 28.3682C89.8835 28.3699 89.7342 28.432 89.6234 28.5414C89.5127 28.6507 89.4493 28.7987 89.4468 28.9538V30.9227C89.4468 31.0805 89.5099 31.2319 89.6224 31.3435C89.7348 31.4551 89.8872 31.5178 90.0462 31.5178H97.806C97.965 31.5178 98.1174 31.4551 98.2298 31.3435C98.3422 31.2319 98.4054 31.0805 98.4054 30.9227V28.9538C98.4054 28.7959 98.3422 28.6445 98.2298 28.5329C98.1174 28.4213 97.965 28.3586 97.806 28.3586L90.0397 28.3682Z" fill="#58B368"/>
<path opacity="0.2" d="M108.138 35.2383H79.7036C79.608 35.2379 79.5133 35.2562 79.4249 35.2922C79.3365 35.3282 79.2561 35.3813 79.1883 35.4482C79.1206 35.5152 79.0668 35.5948 79.0302 35.6824C78.9935 35.7701 78.9746 35.864 78.9746 35.9589V39.7391L93.7814 42.6345C93.8722 42.6541 93.9661 42.6541 94.0568 42.6345L108.867 39.7391V35.9589C108.867 35.864 108.848 35.7701 108.811 35.6824C108.775 35.5948 108.721 35.5152 108.653 35.4482C108.585 35.3813 108.505 35.3282 108.417 35.2922C108.328 35.2562 108.233 35.2379 108.138 35.2383Z" fill="#454D66"/>
<path d="M108.888 38.9253L94.052 41.8207C93.9598 41.8368 93.8655 41.8368 93.7733 41.8207L78.9374 38.9253C78.7744 38.8933 78.6276 38.8063 78.5218 38.6791C78.4161 38.5518 78.358 38.3921 78.3574 38.2272V31.1172C78.3574 31.0239 78.3759 30.9314 78.4119 30.8452C78.4479 30.7589 78.5007 30.6805 78.5671 30.6145C78.6336 30.5485 78.7126 30.4961 78.7994 30.4604C78.8863 30.4246 78.9794 30.4062 79.0735 30.4062H108.758C108.852 30.4062 108.945 30.4246 109.032 30.4604C109.119 30.4961 109.198 30.5485 109.265 30.6145C109.331 30.6805 109.384 30.7589 109.42 30.8452C109.456 30.9314 109.474 31.0239 109.474 31.1172V38.24C109.471 38.4039 109.411 38.5615 109.304 38.6864C109.197 38.8113 109.05 38.8957 108.888 38.9253Z" fill="#58B368"/>
<path d="M95.4583 39.8945H92.39C92.0107 39.8945 91.7031 40.1999 91.7031 40.5766V42.5036C91.7031 42.8803 92.0107 43.1857 92.39 43.1857H95.4583C95.8376 43.1857 96.1452 42.8803 96.1452 42.5036V40.5766C96.1452 40.1999 95.8376 39.8945 95.4583 39.8945Z" fill="#58B368"/>
<path opacity="0.4" d="M95.4583 39.8945H92.39C92.0107 39.8945 91.7031 40.1999 91.7031 40.5766V42.5036C91.7031 42.8803 92.0107 43.1857 92.39 43.1857H95.4583C95.8376 43.1857 96.1452 42.8803 96.1452 42.5036V40.5766C96.1452 40.1999 95.8376 39.8945 95.4583 39.8945Z" fill="#454D66"/>
<path d="M147.412 42.5352C147.784 43.2976 148.06 44.0183 148.384 44.7711C148.708 45.5239 148.944 46.2735 149.197 47.0424C149.709 48.6014 150.087 50.2007 150.328 51.8231C150.36 52.0258 150.376 52.2445 150.399 52.4665L150.431 52.7882C150.431 52.8461 150.431 52.888 150.431 52.9555V53.1646C150.442 53.6525 150.4 54.14 150.305 54.6188C150.144 55.4509 149.916 56.2686 149.621 57.0638C149.068 58.5756 148.378 60.0346 147.561 61.4231L145.915 60.7314C146.281 59.2644 146.65 57.7684 146.929 56.3239C147.065 55.6318 147.161 54.9325 147.217 54.2295C147.236 53.9421 147.23 53.6536 147.198 53.3673L147.162 53.1646L147.117 52.9073C147.081 52.7368 147.058 52.5663 147.016 52.3925C146.693 50.9724 146.276 49.5752 145.766 48.2102C145.519 47.5121 145.247 46.8172 144.975 46.1191C144.703 45.4209 144.402 44.7196 144.123 44.0762L147.412 42.5352Z" fill="#7F3E3B"/>
<path d="M145.986 60.3047L144.723 61.5272L147.48 62.8141C147.48 62.8141 148.147 61.6559 147.687 60.6071L145.986 60.3047Z" fill="#7F3E3B"/>
<path d="M143.705 63.3515L146.031 64.2973L147.48 62.8013L144.722 61.5273L143.705 63.3515Z" fill="#7F3E3B"/>
<path opacity="0.2" d="M96.5144 62.0308C101.099 61.521 105.429 59.6727 108.956 56.7198C112.483 53.7668 115.049 49.8418 116.329 45.4409C117.61 41.0401 117.547 36.361 116.15 31.9953C114.753 27.6296 112.083 23.7733 108.479 20.914C104.874 18.0547 100.497 16.3208 95.9004 15.9315C91.3037 15.5422 86.6939 16.5149 82.6539 18.7268C78.614 20.9387 75.3252 24.2904 73.2034 28.358C71.0817 32.4257 70.2222 37.0267 70.7337 41.5793C71.0734 44.6033 72.0098 47.5312 73.4895 50.1957C74.9691 52.8603 76.9629 55.2092 79.357 57.1084C81.7511 59.0076 84.4986 60.4199 87.4425 61.2645C90.3864 62.1091 93.4691 62.3695 96.5144 62.0308Z" fill="#58B368"/>
<path opacity="0.1" d="M79.5391 20.7634L115.017 48.9006C115.169 48.5789 115.312 48.2572 115.451 47.9355C116.34 45.8349 116.908 43.6141 117.136 41.3468L86.4921 17.0508C83.9773 17.8835 81.6254 19.1394 79.5391 20.7634Z" fill="white"/>
<path opacity="0.1" d="M71.3555 33.0965L104.708 59.5577C107.877 57.9165 110.624 55.5742 112.737 52.7115L76.3127 23.8086C73.9653 26.4865 72.2692 29.6643 71.3555 33.0965Z" fill="white"/>
<path d="M151.387 65.0267C151.344 64.4412 151.151 63.8764 150.826 63.386C150.59 63.0253 150.26 62.735 149.87 62.5463L147.657 61.4685C146.186 60.7447 144.706 60.0401 143.225 59.3356C141.744 58.631 140.254 57.9393 138.77 57.2412C137.286 56.5431 135.789 55.8643 134.289 55.1983C131.295 53.8514 128.282 52.5409 125.25 51.2669C123.733 50.6235 122.214 50.0058 120.681 49.401C120.234 49.226 119.87 48.8887 119.664 48.4574C119.457 48.0261 119.424 47.5331 119.57 47.0782C121.621 40.6561 121.154 33.7017 118.262 27.6071C115.37 21.5124 110.266 16.7273 103.973 14.2096C97.679 11.6919 90.6599 11.6274 84.3205 14.0291C77.9811 16.4307 72.7891 21.1212 69.7839 27.1617C66.7787 33.2022 66.182 40.1468 68.1134 46.6055C70.0448 53.0641 74.3616 58.5601 80.1997 61.9933C86.0379 65.4264 92.9665 66.5434 99.5986 65.1206C106.231 63.6978 112.077 59.8402 115.967 54.32C116.242 53.9277 116.658 53.6539 117.129 53.5541C117.6 53.4544 118.091 53.5361 118.504 53.7827C119.921 54.6192 121.344 55.4417 122.774 56.2503C125.632 57.8675 128.511 59.4439 131.412 60.9795C132.86 61.7581 134.328 62.5077 135.77 63.2701C137.212 64.0326 138.686 64.7758 140.154 65.5222C141.621 66.2685 143.07 66.9988 144.557 67.7195L146.763 68.8069C147.151 69.0004 147.584 69.085 148.017 69.0514C148.606 69.0099 149.174 68.8182 149.666 68.4948C150.253 68.1368 150.726 67.6211 151.031 67.0074C151.335 66.3938 151.459 65.7071 151.387 65.0267ZM84.5228 57.9104C80.7563 56.0649 77.6256 53.1518 75.5265 49.5395C73.4275 45.9273 72.4544 41.778 72.7303 37.6166C73.0063 33.4551 74.5188 29.4684 77.0767 26.1606C79.6346 22.8528 83.123 20.3724 87.1006 19.0332C91.0782 17.694 95.3665 17.5562 99.423 18.6371C103.48 19.718 107.122 21.9691 109.89 25.1057C112.658 28.2423 114.427 32.1235 114.974 36.2585C115.52 40.3935 114.82 44.5966 112.96 48.3361C111.726 50.8189 110.012 53.0361 107.915 54.8609C105.818 56.6858 103.379 58.0827 100.739 58.9717C98.0979 59.8608 95.3067 60.2247 92.5244 60.0425C89.7421 59.8604 87.0231 59.1359 84.5228 57.9104Z" fill="#58B368"/>
<path d="M135.194 32.5897C135.194 32.7795 135.093 32.9339 134.967 32.9339C134.841 32.9339 134.74 32.7795 134.74 32.5897C134.74 32.3998 134.841 32.2422 134.967 32.2422C135.093 32.2422 135.194 32.3966 135.194 32.5897Z" fill="#263238"/>
<path d="M135.109 32.9336C134.881 33.5164 134.574 34.0652 134.195 34.5647C134.326 34.6578 134.476 34.7213 134.635 34.7507C134.793 34.7802 134.956 34.7749 135.112 34.7352L135.109 32.9336Z" fill="#630F0F"/>
<path d="M135.873 31.5286C135.896 31.528 135.919 31.5201 135.938 31.506C135.957 31.492 135.971 31.4724 135.978 31.4502C135.985 31.4279 135.985 31.404 135.978 31.3817C135.97 31.3595 135.956 31.34 135.938 31.326C135.794 31.2194 135.628 31.1481 135.452 31.1179C135.275 31.0877 135.094 31.0995 134.923 31.1522C134.908 31.1564 134.894 31.1637 134.882 31.1736C134.869 31.1836 134.859 31.196 134.852 31.21C134.845 31.224 134.841 31.2394 134.84 31.2552C134.839 31.2709 134.842 31.2866 134.847 31.3013C134.853 31.316 134.862 31.3293 134.873 31.3405C134.884 31.3516 134.898 31.3603 134.912 31.366C134.927 31.3716 134.943 31.3741 134.959 31.3733C134.975 31.3725 134.99 31.3685 135.004 31.3614C135.14 31.3212 135.284 31.3134 135.424 31.3385C135.563 31.3637 135.695 31.4211 135.808 31.5061C135.826 31.521 135.849 31.5289 135.873 31.5286Z" fill="#263238"/>
<path d="M141.748 34.0273C141.404 35.7582 141.064 38.9271 142.282 40.0788C142.282 40.0788 141.806 41.8322 138.572 41.8322C135.008 41.8322 136.871 40.0788 136.871 40.0788C138.815 39.6188 138.764 38.1871 138.423 36.8617L141.748 34.0273Z" fill="#7F3E3B"/>
<path d="M142.907 38.9918C143.175 39.0786 142.826 40.6679 142.826 40.6679C142.826 40.6679 142.382 41.7779 136.867 41.3918C136.443 41.3596 136.605 39.8347 137.01 39.6127C138.315 38.9049 142.038 38.7087 142.907 38.9918Z" fill="#263238"/>
<path d="M154.109 105.462C154.407 105.433 154.841 104.889 154.964 104.69C154.97 104.681 154.972 104.671 154.972 104.661C154.972 104.651 154.97 104.641 154.964 104.632C154.959 104.623 154.951 104.615 154.941 104.61C154.931 104.606 154.92 104.604 154.909 104.606C154.877 104.606 154.093 104.754 153.901 105.057C153.881 105.088 153.868 105.124 153.862 105.161C153.857 105.198 153.859 105.236 153.869 105.272C153.911 105.414 153.992 105.452 154.057 105.462H154.109ZM154.792 104.745C154.582 105.034 154.235 105.372 154.07 105.35C154.054 105.35 154.005 105.35 153.976 105.24C153.97 105.219 153.968 105.197 153.971 105.175C153.975 105.154 153.983 105.133 153.995 105.115C154.219 104.916 154.496 104.788 154.792 104.745Z" fill="#58B368"/>
<path d="M154.76 104.747C154.818 104.742 154.875 104.732 154.932 104.718C154.941 104.715 154.95 104.709 154.957 104.702C154.963 104.695 154.968 104.686 154.97 104.676C154.972 104.666 154.972 104.656 154.968 104.646C154.965 104.636 154.959 104.628 154.951 104.621C154.932 104.602 154.407 104.158 154.05 104.193C154.007 104.196 153.966 104.208 153.928 104.228C153.89 104.248 153.856 104.276 153.83 104.309C153.799 104.338 153.78 104.377 153.776 104.419C153.772 104.461 153.783 104.503 153.807 104.538C153.924 104.721 154.436 104.779 154.76 104.747ZM154.786 104.634C154.462 104.673 153.989 104.608 153.898 104.477C153.898 104.477 153.872 104.435 153.917 104.377C153.936 104.356 153.958 104.338 153.983 104.325C154.008 104.313 154.035 104.305 154.063 104.303C154.332 104.34 154.583 104.455 154.786 104.634Z" fill="#58B368"/>
<path d="M131.834 113.924C132.079 113.924 132.324 113.902 132.566 113.86C132.577 113.857 132.587 113.851 132.595 113.844C132.603 113.836 132.609 113.826 132.612 113.815C132.614 113.804 132.612 113.792 132.607 113.781C132.601 113.771 132.593 113.762 132.582 113.757C132.547 113.735 131.717 113.265 131.319 113.371C131.244 113.39 131.18 113.437 131.141 113.503C131.115 113.539 131.102 113.581 131.102 113.625C131.102 113.669 131.115 113.712 131.141 113.747C131.244 113.889 131.529 113.924 131.834 113.924ZM132.385 113.776C131.941 113.838 131.338 113.834 131.228 113.683C131.212 113.664 131.199 113.628 131.228 113.558C131.24 113.538 131.256 113.521 131.275 113.507C131.294 113.494 131.315 113.485 131.338 113.48C131.594 113.413 132.093 113.628 132.385 113.776Z" fill="#58B368"/>
<path d="M132.539 113.858C132.551 113.861 132.563 113.861 132.575 113.858C132.582 113.852 132.588 113.844 132.592 113.835C132.596 113.826 132.598 113.816 132.598 113.807C132.598 113.781 132.53 113.144 132.228 112.896C132.184 112.859 132.132 112.832 132.076 112.815C132.02 112.798 131.962 112.793 131.904 112.8C131.749 112.816 131.707 112.893 131.694 112.957C131.651 113.224 132.222 113.736 132.507 113.864L132.539 113.858ZM131.959 112.893C132.032 112.895 132.101 112.921 132.157 112.967C132.337 113.171 132.45 113.425 132.481 113.694C132.186 113.52 131.801 113.118 131.833 112.957C131.833 112.957 131.833 112.906 131.943 112.896L131.959 112.893Z" fill="#58B368"/>
<path d="M135.171 113.804H132.792L132.553 108.328H134.934L135.171 113.804Z" fill="#7F3E3B"/>
<path d="M157.043 102.959L155.187 104.436L150.463 101.18L152.323 99.7031L157.043 102.959Z" fill="#7F3E3B"/>
<path d="M154.848 104.342L156.746 102.473C156.78 102.44 156.824 102.42 156.871 102.415C156.918 102.41 156.966 102.422 157.005 102.447L158.83 103.611C158.874 103.64 158.911 103.678 158.938 103.723C158.965 103.767 158.982 103.818 158.987 103.87C158.991 103.922 158.984 103.974 158.965 104.023C158.946 104.072 158.917 104.116 158.878 104.152C158.204 104.795 157.845 105.072 157.009 105.892C156.497 106.401 155.243 107.913 154.533 108.611C153.824 109.309 153.033 108.704 153.263 108.354C154.284 106.79 154.631 105.5 154.676 104.715C154.686 104.574 154.747 104.441 154.848 104.342Z" fill="#263238"/>
<path d="M132.806 113.531H135.398C135.445 113.531 135.491 113.547 135.527 113.576C135.564 113.605 135.589 113.646 135.599 113.692L136.069 115.793C136.081 115.843 136.081 115.896 136.069 115.946C136.057 115.997 136.034 116.044 136.001 116.084C135.969 116.125 135.927 116.157 135.88 116.179C135.832 116.201 135.781 116.212 135.729 116.211C134.789 116.211 133.435 116.144 132.255 116.144C130.878 116.144 129.689 116.218 128.072 116.218C127.1 116.218 126.825 115.236 127.233 115.146C129.096 114.744 130.616 114.699 132.223 113.715C132.396 113.601 132.598 113.537 132.806 113.531Z" fill="#263238"/>
<path d="M146.973 40.7834C149.036 41.7486 149.889 48.3631 149.889 48.3631L145.142 50.2129C144.405 48.422 143.808 46.5774 143.357 44.6955C142.693 41.71 144.85 39.7797 146.973 40.7834Z" fill="#58B368"/>
<path opacity="0.3" d="M146.973 40.7834C149.036 41.7486 149.889 48.3631 149.889 48.3631L145.142 50.2129C144.405 48.422 143.808 46.5774 143.357 44.6955C142.693 41.71 144.85 39.7797 146.973 40.7834Z" fill="white"/>
<path opacity="0.2" d="M143.899 42.7263C143.737 42.6484 143.568 42.5869 143.393 42.543C143.204 43.2484 143.197 43.9898 143.374 44.6985C143.823 46.5805 144.419 48.4252 145.156 50.2159L146.721 49.6079C146.432 47.8802 145.548 43.5113 143.899 42.7263Z" fill="#454D66"/>
<path d="M133.211 40.7336C133.211 40.7336 130.677 43.5743 133.068 61.1625H145.801C145.889 59.2322 144.661 49.7545 146.546 40.6113C145.138 40.3424 143.714 40.164 142.283 40.0773C140.48 39.9742 138.674 39.9742 136.872 40.0773C135.636 40.2009 134.412 40.4203 133.211 40.7336Z" fill="#58B368"/>
<path opacity="0.3" d="M133.211 40.7336C133.211 40.7336 130.677 43.5743 133.068 61.1625H145.801C145.889 59.2322 144.661 49.7545 146.546 40.6113C145.138 40.3424 143.714 40.164 142.283 40.0773C140.48 39.9742 138.674 39.9742 136.872 40.0773C135.636 40.2009 134.412 40.4203 133.211 40.7336Z" fill="white"/>
<path opacity="0.2" d="M135.779 44.5059C135.202 42.788 133.816 42.2378 132.403 43.2577C132.118 44.9242 131.917 47.6105 132.147 51.87L134.632 51.8475C134.632 51.8475 136.631 47.0636 135.779 44.5059Z" fill="#454D66"/>
<path d="M135.313 43.801C135.209 44.6632 135.067 45.445 134.908 46.259C134.749 47.0729 134.564 47.8675 134.354 48.6686C133.938 50.3059 133.372 51.9018 132.662 53.4364C132.478 53.8322 132.264 54.2214 132.037 54.6107C131.921 54.807 131.804 55.0032 131.671 55.1962C131.499 55.4645 131.295 55.7118 131.065 55.933C130.618 56.3446 130.088 56.6572 129.51 56.8499C129.041 57.0131 128.555 57.1264 128.062 57.1877C127.181 57.2961 126.291 57.3069 125.408 57.2198C124.976 57.1855 124.555 57.1308 124.145 57.0557C123.723 56.9818 123.325 56.9045 122.891 56.7919L123.101 55.0289C124.58 54.9673 126.048 54.7516 127.482 54.3855C127.773 54.2998 128.056 54.1878 128.327 54.0509C128.505 53.9699 128.661 53.8474 128.781 53.6938C128.755 53.7163 128.992 53.3271 129.131 53.0504C129.27 52.7737 129.426 52.407 129.559 52.0852C129.831 51.4225 130.064 50.7212 130.278 50.0037C130.492 49.2863 130.68 48.556 130.855 47.8161C131.029 47.0761 131.179 46.3297 131.341 45.5641C131.503 44.7984 131.619 44.0391 131.736 43.3281L135.313 43.801Z" fill="#7F3E3B"/>
<path d="M136.392 42.4694C137.063 44.6282 134.341 51.0625 134.341 51.0625L128.609 49.6308C128.96 47.5971 129.551 45.6113 130.369 43.7145C132.216 39.6995 135.585 39.8668 136.392 42.4694Z" fill="#58B368"/>
<path opacity="0.3" d="M136.392 42.4694C137.063 44.6282 134.341 51.0625 134.341 51.0625L128.609 49.6308C128.96 47.5971 129.551 45.6113 130.369 43.7145C132.216 39.6995 135.585 39.8668 136.392 42.4694Z" fill="white"/>
<path d="M123.182 55.0363L120.486 54.9688L121.782 57.7516C121.782 57.7516 122.877 57.8964 123.778 56.4261L124.727 55.3033L123.636 55.0846C123.486 55.0556 123.334 55.0395 123.182 55.0363Z" fill="#7F3E3B"/>
<path d="M118.785 55.4867L120.331 57.7934L121.785 57.7516L120.486 54.9688L118.785 55.4867Z" fill="#7F3E3B"/>
<path opacity="0.2" d="M132.555 108.332L132.675 111.153H135.056L134.933 108.332H132.555Z" fill="#454D66"/>
<path opacity="0.2" d="M152.323 99.7031L150.463 101.18L152.899 102.859L154.759 101.382L152.323 99.7031Z" fill="#454D66"/>
<path d="M141.611 32.1744C141.468 34.5165 141.507 35.8934 140.315 37.0966C138.527 38.9047 135.614 37.8366 135.05 35.4881C134.541 33.384 134.862 29.9095 137.169 28.9733C137.678 28.7644 138.232 28.6884 138.778 28.7526C139.325 28.8169 139.846 29.0192 140.292 29.3402C140.737 29.6613 141.092 30.0904 141.323 30.5865C141.554 31.0827 141.653 31.6294 141.611 32.1744Z" fill="#7F3E3B"/>
<path d="M143.515 30.0002C143.515 30.0002 144.756 30.367 144.367 31.7729C143.781 33.9091 142.401 36.367 140.619 36.5214C138.399 36.7177 137.398 34.4431 137.107 32.0914C135.778 31.1874 134.793 30.3413 135.111 29.4019C135.597 27.9541 137.359 26.7059 140.165 27.0276C142.971 27.3493 144.367 29.1509 143.515 30.0002Z" fill="#263238"/>
<path d="M138.459 32.5717C138.416 33.1526 138.181 33.7032 137.791 34.1385C137.273 34.7047 136.729 34.3508 136.638 33.6623C136.557 33.0382 136.726 31.9926 137.361 31.6806C137.996 31.3685 138.501 31.8704 138.459 32.5717Z" fill="#7F3E3B"/>
<path d="M137.585 61.1641C137.585 61.1641 136.782 77.0954 138.347 83.845C140.825 94.5324 151.721 103.097 151.721 103.097L155.22 100.314C155.22 100.314 146.255 93.6895 145.449 84.7909C144.726 76.7995 145.795 67.6209 145.795 61.1641H137.585Z" fill="#58B368"/>
<path opacity="0.2" d="M137.585 61.1641C137.585 61.1641 136.782 77.0954 138.347 83.845C140.825 94.5324 151.721 103.097 151.721 103.097L155.22 100.314C155.22 100.314 146.255 93.6895 145.449 84.7909C144.726 76.7995 145.795 67.6209 145.795 61.1641H137.585Z" fill="#454D66"/>
<path opacity="0.2" d="M138.779 65.8829C138.455 65.262 137.823 67.1119 137.383 69.4861C137.383 72.7612 137.441 76.4867 137.729 79.6427C139.929 75.6052 139.463 67.1698 138.779 65.8829Z" fill="#454D66"/>
<path d="M150.133 102.41L151.461 103.433L155.501 100.18L154.289 99.0897L150.133 102.41Z" fill="#2C6BDB"/>
<path opacity="0.4" d="M150.133 102.41L151.461 103.433L155.501 100.18L154.289 99.0897L150.133 102.41Z" fill="#FAFAFA"/>
<path d="M133.067 61.1641C133.067 61.1641 129.483 76.2525 129.231 83.459C128.949 91.5437 131.787 110.609 131.787 110.609H135.821C135.821 110.609 136.316 91.3957 136.498 84.0316C136.692 76.0048 141.436 61.1641 141.436 61.1641H133.067Z" fill="#58B368"/>
<path opacity="0.2" d="M133.067 61.1641C133.067 61.1641 129.483 76.2525 129.231 83.459C128.949 91.5437 131.787 110.609 131.787 110.609H135.821C135.821 110.609 136.316 91.3957 136.498 84.0316C136.692 76.0048 141.436 61.1641 141.436 61.1641H133.067Z" fill="#454D66"/>
<path d="M131.013 109.012C130.993 109.012 131.24 110.675 131.24 110.675H136.145L136.278 109.192L131.013 109.012Z" fill="#2C6BDB"/>
<path opacity="0.4" d="M131.013 109.012C130.993 109.012 131.24 110.675 131.24 110.675H136.145L136.278 109.192L131.013 109.012Z" fill="#FAFAFA"/>
</svg>
