<svg width="210" height="120" viewBox="0 0 210 120" fill="none" xmlns="http://www.w3.org/2000/svg">
<path d="M31.4685 101.272L48.0601 90.0181L128.456 89.6329L132.134 101.442L31.4685 101.272Z" fill="#455A64"/>
<path d="M131.927 105.878L31.3025 105.805V101.047L131.971 101.363L131.927 105.878Z" fill="#455A64"/>
<path d="M129.459 101.341C129.459 101.385 107.728 101.414 80.9323 101.401C54.1368 101.388 32.4023 101.341 32.4023 101.294C32.4023 101.246 54.1273 101.221 80.9323 101.234C107.737 101.246 129.459 101.294 129.459 101.341Z" fill="#263238"/>
<path d="M54.6197 99.2317C51.998 100.378 49.4705 100.495 47.0752 99.2317L45.3242 84.4766H56.2103L54.6197 99.2317Z" fill="#6F4439"/>
<path d="M55.4908 83.6248L55.1764 82.5701L46.9561 81.5503C46.8481 81.5374 46.7391 81.5616 46.6466 81.6189C46.5541 81.6762 46.4837 81.7633 46.4468 81.866L45.8527 83.6058H44.8027V85.5161C48.9239 86.2455 52.8691 86.2866 56.6067 85.5161V83.6058L55.4908 83.6248Z" fill="#E0E0E0"/>
<path d="M55.4905 83.6261C55.5154 83.6216 55.541 83.6216 55.5659 83.6261H55.7828H56.6064H56.6347V83.6577C56.6347 84.1502 56.6347 84.7944 56.6536 85.568V85.6059H56.6159C54.9483 85.9566 53.2519 86.1511 51.5485 86.1868C49.2974 86.2193 47.0485 86.031 44.8339 85.6248H44.7899H44.7207V83.5629H45.8524L45.7769 83.6166C45.975 83.0356 46.173 82.4673 46.3616 81.9116C46.3844 81.8316 46.4243 81.7577 46.4787 81.6949C46.533 81.6322 46.6003 81.5822 46.676 81.5484C46.7526 81.5165 46.8351 81.5015 46.918 81.5042C46.9998 81.5042 47.0626 81.5232 47.1349 81.5295L47.9648 81.6337L50.9952 81.9968L55.1761 82.5399H55.195V82.5588C55.2893 82.8904 55.3647 83.1525 55.4213 83.3419C55.4433 83.424 55.4622 83.4935 55.4779 83.5472C55.4799 83.5724 55.4799 83.5977 55.4779 83.6229C55.4666 83.6031 55.4582 83.5819 55.4527 83.5598L55.3836 83.364C55.3176 83.1714 55.2327 82.9125 55.1195 82.5778L55.1447 82.5999L50.9701 82.1199L47.9554 81.7631L47.1255 81.6621C47.0001 81.6268 46.8674 81.6268 46.742 81.6621C46.6852 81.6866 46.6347 81.7237 46.5944 81.7708C46.5541 81.8179 46.525 81.8736 46.5094 81.9336L45.9278 83.6419L45.909 83.6956H44.8024L44.8842 83.6135V85.5238L44.8182 85.4417H44.8622C47.0673 85.8398 49.305 86.0269 51.5453 86.0005C53.2405 85.9725 54.93 85.794 56.5938 85.4669L56.5561 85.5174C56.5561 84.7439 56.5561 84.0997 56.575 83.6071L56.6064 83.6387L55.7671 83.6198H55.5565L55.4905 83.6261Z" fill="#263238"/>
<path d="M55.3959 94.3453C52.5478 94.8063 49.4232 94.74 46.0816 94.3453L45.6289 89.8711C49.0561 90.2579 52.5157 90.2579 55.9429 89.8711L55.3959 94.3453Z" fill="#AE7461"/>
<path d="M50.1483 91.3086C49.9411 91.4351 49.7875 91.6337 49.7168 91.8666C49.646 92.0996 49.6631 92.3505 49.7648 92.5716L50.0603 93.2031C50.1629 93.425 50.3436 93.601 50.5676 93.6972C50.7916 93.7934 51.0431 93.803 51.2737 93.7241L50.1483 91.3086Z" fill="#6F4439"/>
<path d="M50.3477 91.218L51.473 93.6493C51.6792 93.5219 51.8319 93.3232 51.9026 93.0907C51.9732 92.8581 51.9568 92.6076 51.8566 92.3863L51.5611 91.7548C51.4607 91.5305 51.2811 91.3515 51.057 91.2523C50.8329 91.1532 50.5802 91.141 50.3477 91.218Z" fill="#6F4439"/>
<path d="M55.5817 83.6579C55.4624 83.7081 55.338 83.7452 55.2107 83.7684C54.9718 83.8316 54.6197 83.9074 54.1797 83.9863C51.8849 84.3947 49.5366 84.3947 47.2419 83.9863C46.8049 83.9042 46.4528 83.8284 46.2108 83.7621C46.0837 83.7365 45.9595 83.6984 45.8398 83.6484C45.9691 83.6512 46.0977 83.6681 46.2234 83.699C46.4686 83.7463 46.8238 83.8063 47.2607 83.8695C49.5484 84.2084 51.8731 84.2084 54.1608 83.8695C54.6009 83.8063 54.9561 83.7463 55.1982 83.7021C55.3238 83.6724 55.4526 83.6576 55.5817 83.6579Z" fill="#263238"/>
<path d="M61.1828 61.707C61.1828 61.707 59.3879 62.0954 59.0767 63.3774C58.7654 64.6593 61.5915 95.2684 61.6889 96.0104C61.8681 97.1819 62.852 98.6722 65.0651 98.5901C66.9984 98.5207 93.3129 98.5901 99.9364 98.5901C100.82 98.5901 101.348 97.8387 101.464 96.9419L68.8814 95.0095L61.1828 61.707Z" fill="#E0E0E0"/>
<path d="M60.3673 62.733L63.1965 95.7419C63.2226 96.0025 63.3429 96.2444 63.5347 96.4219C63.7264 96.5994 63.9763 96.7001 64.237 96.7049L101.472 96.8723L94.3175 89.7426L70.1312 89.5721L67.544 63.7087C67.5257 63.5401 67.4551 63.3814 67.3424 63.2551C67.2296 63.1288 67.0802 63.0412 66.9153 63.0046L61.4959 61.7416C61.3537 61.7126 61.2068 61.717 61.0666 61.7543C60.9264 61.7916 60.7966 61.861 60.6874 61.9569C60.5782 62.0528 60.4926 62.1728 60.437 62.3074C60.3815 62.442 60.3577 62.5877 60.3673 62.733Z" fill="#E0E0E0"/>
<path d="M60.3675 62.7316C60.3619 62.678 60.3619 62.6241 60.3675 62.5705C60.3746 62.4117 60.4246 62.2578 60.5121 62.1253C60.5824 62.0156 60.6746 61.9217 60.7828 61.8494C60.8909 61.7771 61.0128 61.7281 61.1408 61.7054C61.3074 61.6834 61.4767 61.6974 61.6375 61.7464L62.1876 61.8727L65.0639 62.5358L66.8872 62.9589C67.0646 62.9928 67.2267 63.0823 67.3504 63.2144C67.474 63.3466 67.5529 63.5147 67.5756 63.6946C67.6102 64.0483 67.6479 64.4114 67.6856 64.784C68.2923 70.7833 69.1568 79.3086 70.2004 89.5643L70.1313 89.498L94.3208 89.659H94.3523L94.3774 89.6843L101.529 96.8108L101.67 96.9529H101.472H99.822L72.5267 96.8234L66.3968 96.7919H64.9193C64.6741 96.7919 64.4352 96.7919 64.1837 96.7919C63.9237 96.7756 63.6772 96.6696 63.4859 96.4919C63.2959 96.3161 63.1726 96.0795 63.1369 95.8225C63.1086 95.5794 63.0929 95.3457 63.0709 95.1057C63.0332 94.6321 62.9923 94.1585 62.9515 93.6943C62.6371 89.9621 62.3416 86.4825 62.0744 83.3092C61.5431 76.9594 61.1125 71.8221 60.817 68.2699C60.6724 66.4954 60.5592 65.1124 60.4838 64.1809C60.4461 63.7136 60.4209 63.3599 60.402 63.1168C60.3832 62.8737 60.3769 62.7537 60.3769 62.7537C60.3769 62.7537 60.3958 62.8737 60.4178 63.1136C60.4398 63.3536 60.4743 63.7136 60.5152 64.1777C60.6001 65.125 60.7227 66.4922 60.8799 68.2636C61.1942 71.8158 61.6406 76.9531 62.1939 83.2966C62.4673 86.4731 62.7691 89.9495 63.0898 93.6817C63.1296 94.149 63.1705 94.6195 63.2124 95.0931C63.2344 95.3299 63.2501 95.5731 63.2752 95.8036C63.3127 96.0288 63.4232 96.2353 63.5896 96.3909C63.7629 96.5478 63.9852 96.6393 64.2183 96.6498C64.4541 96.6498 64.7024 96.6498 64.9445 96.6498H66.4251L72.555 96.675L99.8472 96.7919H101.498L101.438 96.9308L94.2548 89.7979L94.3114 89.8232L70.125 89.6401H70.0621V89.5769C69.0468 79.3212 68.2043 70.777 67.6133 64.7934C67.5756 64.4209 67.5379 64.0577 67.5033 63.7041C67.4835 63.539 67.4119 63.3845 67.2989 63.2631C67.1858 63.1416 67.0372 63.0594 66.8746 63.0284L65.0513 62.599L62.1813 61.9138L61.6312 61.7843C61.4761 61.7339 61.312 61.7178 61.1502 61.737C61.0238 61.7574 60.9029 61.8035 60.7948 61.8725C60.6867 61.9414 60.5937 62.0317 60.5215 62.138C60.4337 62.2672 60.3816 62.4176 60.3706 62.5737C60.3643 62.6779 60.3738 62.7316 60.3675 62.7316Z" fill="#263238"/>
<path d="M87.6198 96.0118H91.0809L86.7051 90.3125H84.6523L87.6198 96.0118Z" fill="#263238"/>
<path d="M61.6438 64.2258L64.2875 92.9215L69.2292 88.9746L67.0916 64.8195C67.084 64.7252 67.0446 64.6363 66.9801 64.5675C66.9155 64.4986 66.8296 64.4539 66.7364 64.4405L62.1185 63.7775C62.0566 63.7688 61.9935 63.7742 61.9339 63.7932C61.8744 63.8122 61.8198 63.8444 61.7742 63.8875C61.7287 63.9305 61.6933 63.9832 61.6708 64.0418C61.6482 64.1003 61.639 64.1632 61.6438 64.2258Z" fill="#263238"/>
<path d="M66.9355 96.0118H70.5066L74.1374 90.3125H72.0815L66.9355 96.0118Z" fill="#263238"/>
<path d="M71.3203 96.0118H74.7814L76.6769 90.3125H74.621L71.3203 96.0118Z" fill="#263238"/>
<path d="M75.5547 96.0118H79.0157L79.2012 90.3125H77.1485L75.5547 96.0118Z" fill="#263238"/>
<path d="M79.4844 96.0118H82.9454L81.666 90.3125H79.6133L79.4844 96.0118Z" fill="#263238"/>
<path d="M83.5794 96.0118H87.0405L84.2207 90.3125H82.168L83.5794 96.0118Z" fill="#263238"/>
<path d="M90.9211 94.8989C90.9211 94.9273 85.6431 94.9494 79.1328 94.9494C72.6225 94.9494 67.3477 94.9273 67.3477 94.8989C67.3477 94.8705 72.6225 94.8516 79.1328 94.8516C85.6431 94.8516 90.9211 94.8737 90.9211 94.8989Z" fill="#E0E0E0"/>
<path d="M90.2926 93.8638C90.2926 93.8922 85.2818 93.9143 79.0984 93.9143C72.9151 93.9143 67.9043 93.8922 67.9043 93.8638C67.9043 93.8353 72.9151 93.8164 79.0984 93.8164C85.2818 93.8164 90.2926 93.829 90.2926 93.8638Z" fill="#E0E0E0"/>
<path d="M90.2922 92.9182C90.2922 92.9719 85.5769 93.0161 79.7613 93.0161C73.9458 93.0161 69.2305 92.9624 69.2305 92.9182C69.2305 92.874 73.9458 92.8203 79.7645 92.8203C85.5832 92.8203 90.2922 92.855 90.2922 92.9182Z" fill="#E0E0E0"/>
<path d="M90.4247 92.0424C90.4247 92.0961 85.81 92.1403 80.1202 92.1403C74.4304 92.1403 69.8125 92.0961 69.8125 92.0424C69.8125 91.9888 74.4272 91.9414 80.1202 91.9414C85.8131 91.9414 90.4247 91.9856 90.4247 92.0424Z" fill="#E0E0E0"/>
<path d="M90.9192 91.4096C90.9192 91.4633 86.2731 91.5075 80.5456 91.5075C74.818 91.5075 70.1719 91.4633 70.1719 91.4096C70.1719 91.356 74.8149 91.3086 80.5456 91.3086C86.2762 91.3086 90.9192 91.3528 90.9192 91.4096Z" fill="#E0E0E0"/>
<path d="M91.4172 90.7463C91.4172 90.8032 86.6862 90.8474 80.8518 90.8474C75.0174 90.8474 70.2832 90.8032 70.2832 90.7463C70.2832 90.6895 74.9985 90.6484 80.8518 90.6484C86.705 90.6484 91.4172 90.7053 91.4172 90.7463Z" fill="#E0E0E0"/>
<path d="M63.7109 95.7429L70.1741 89.6836L63.7109 95.7429Z" fill="#E0E0E0"/>
<path d="M70.1718 89.6843C70.2032 89.7158 68.7823 91.0988 67.0031 92.7723C65.2238 94.4458 63.7527 95.7783 63.7212 95.7436C63.6898 95.7088 65.1075 94.329 66.8899 92.6523C68.6723 90.9757 70.1277 89.6495 70.1718 89.6843Z" fill="#263238"/>
<path d="M176.899 67.103C176.899 67.103 176.585 63.7497 168.267 61.6057C164.253 60.5701 154.668 60.0743 153.583 66.342C153.549 66.5441 148.812 105.896 148.812 105.896H166.532L176.899 67.103Z" fill="#455A64"/>
<path d="M174.092 105.885H165.919L168.648 67.3437C168.849 65.4681 170.782 64.1135 172.967 64.3219L173.699 64.3914C175.881 64.5998 177.267 66.7122 177.204 69.1277L174.092 105.885Z" fill="#455A64"/>
<path d="M166.532 104.498C166.485 104.498 167.063 96.8977 167.821 87.5356C168.578 78.1735 169.229 70.5828 169.273 70.5859C169.317 70.5891 168.742 78.183 167.984 87.5482C167.227 96.9134 166.576 104.501 166.532 104.498Z" fill="#263238"/>
<path d="M175.33 65.2787C174.953 65.1616 174.569 65.0709 174.18 65.0071C173.237 64.8781 172.279 65.0659 171.454 65.541C170.629 66.0162 169.984 66.7521 169.618 67.6342C169.478 68.0039 169.363 68.3826 169.273 68.7677C169.262 68.6623 169.268 68.5559 169.288 68.452C169.329 68.159 169.404 67.8718 169.511 67.5963C169.86 66.6714 170.518 65.8969 171.372 65.4051C172.227 64.9133 173.224 64.7346 174.195 64.8998C174.487 64.9447 174.771 65.0242 175.044 65.1366C175.146 65.1692 175.242 65.2171 175.33 65.2787Z" fill="#263238"/>
<path d="M149.518 17.0773C149.603 14.8197 148.078 14.5165 146.906 14.7755C146.178 14.2662 145.301 14.0159 144.416 14.0646C143.53 14.1132 142.686 14.4579 142.018 15.0439C141.481 14.7496 140.878 14.6002 140.266 14.61C139.655 14.6199 139.057 14.7887 138.53 15.1001C138.003 15.4115 137.565 15.8548 137.26 16.3867C136.954 16.9186 136.791 17.521 136.787 18.1351C136.171 18.0596 135.547 18.1807 135.003 18.4814C134.46 18.782 134.024 19.2469 133.759 19.8101C133.493 20.3733 133.41 21.0063 133.523 21.6192C133.635 22.2321 133.937 22.794 134.385 23.225C133.686 23.4352 133.095 23.9087 132.735 24.5465C132.375 25.1842 132.275 25.937 132.454 26.6474C132.634 27.3579 133.08 27.9711 133.7 28.3589C134.319 28.7468 135.063 28.8792 135.778 28.7286L149.565 19.5054C150.392 18.6308 149.474 18.2835 149.518 17.0773Z" fill="#263238"/>
<path d="M135.379 29.1341C135.516 26.0951 136.786 23.219 138.938 21.0782C141.089 18.9373 143.965 17.6887 146.991 17.5807L147.62 17.5586C154.357 17.7133 157.994 23.5579 157.651 30.3087L157.475 52.8345L157.431 57.113L142.028 60.7915L141.871 51.8746C141.871 51.8746 135.37 51.0979 135.062 44.6123C134.901 41.48 135.118 35.0008 135.379 29.1341Z" fill="#AE7461"/>
<path d="M141.807 51.8694C144.809 51.7634 147.717 50.7947 150.187 49.0781C150.187 49.0781 148.361 53.8144 141.892 53.4671L141.807 51.8694Z" fill="#6F4439"/>
<path d="M137.262 35.6888C137.267 35.9304 137.367 36.16 137.539 36.3288C137.711 36.4975 137.942 36.592 138.183 36.5919C138.301 36.597 138.418 36.5783 138.529 36.537C138.639 36.4957 138.74 36.4325 138.826 36.3513C138.912 36.2701 138.981 36.1724 139.029 36.0641C139.076 35.9557 139.102 35.8389 139.104 35.7204C139.098 35.4789 138.999 35.2492 138.826 35.0805C138.654 34.9117 138.423 34.8173 138.183 34.8174C138.065 34.8118 137.947 34.8302 137.836 34.8714C137.726 34.9125 137.624 34.9757 137.538 35.057C137.452 35.1383 137.384 35.2361 137.336 35.3447C137.289 35.4532 137.263 35.5703 137.262 35.6888Z" fill="#263238"/>
<path d="M136.816 32.6087C136.932 32.7224 137.614 32.1793 138.608 32.1477C139.601 32.1161 140.346 32.5866 140.45 32.4635C140.5 32.4066 140.378 32.1919 140.051 31.974C139.611 31.6888 139.093 31.5486 138.57 31.573C138.053 31.5884 137.555 31.7699 137.149 32.0909C136.857 32.3277 136.763 32.5487 136.816 32.6087Z" fill="#263238"/>
<path d="M145.243 35.4857C145.25 35.7275 145.35 35.9572 145.523 36.1259C145.695 36.2945 145.927 36.3889 146.167 36.3888C146.285 36.3938 146.403 36.3752 146.513 36.3338C146.624 36.2925 146.725 36.2294 146.811 36.1482C146.897 36.0669 146.966 35.9693 147.013 35.8609C147.061 35.7526 147.086 35.6357 147.088 35.5173C147.083 35.2758 146.983 35.0461 146.811 34.8773C146.639 34.7086 146.408 34.6142 146.167 34.6142C146.049 34.6087 145.931 34.6271 145.82 34.6682C145.71 34.7093 145.608 34.7724 145.522 34.8537C145.436 34.9349 145.367 35.0327 145.319 35.1413C145.271 35.2499 145.245 35.367 145.243 35.4857Z" fill="#263238"/>
<path d="M146.318 32.1232C146.435 32.24 147.117 31.6969 148.11 31.6622C149.104 31.6274 149.849 32.1042 149.952 31.9779C150.003 31.9211 149.88 31.7064 149.553 31.4853C149.112 31.202 148.595 31.062 148.072 31.0843C147.556 31.1024 147.059 31.2836 146.652 31.6022C146.356 31.8485 146.246 32.0727 146.318 32.1232Z" fill="#263238"/>
<path d="M143.307 39.6347C143.307 39.5779 142.678 39.4926 141.685 39.3979C141.43 39.3821 141.188 39.3411 141.138 39.1674C141.107 38.9049 141.158 38.6393 141.282 38.4064C141.492 37.7749 141.718 37.1192 141.961 36.4393C142.904 33.6417 143.58 31.343 143.467 31.3052C143.354 31.2673 142.499 33.5154 141.556 36.3067L140.902 38.2928C140.754 38.6058 140.719 38.961 140.804 39.2969C140.844 39.3856 140.903 39.464 140.978 39.5259C141.053 39.5878 141.141 39.6315 141.235 39.6537C141.377 39.6867 141.523 39.7016 141.669 39.6979C142.681 39.7073 143.307 39.6916 143.307 39.6347Z" fill="#263238"/>
<path d="M146.245 40.219C146.082 40.219 146.119 41.2989 145.223 42.1135C144.328 42.9282 143.177 42.8366 143.174 42.9881C143.174 43.0576 143.435 43.1902 143.922 43.1839C144.554 43.1713 145.161 42.9342 145.635 42.5145C146.093 42.1116 146.376 41.5452 146.424 40.9358C146.456 40.4748 146.327 40.2095 146.245 40.219Z" fill="#263238"/>
<path d="M146.202 29.276C146.331 29.5287 147.176 29.276 148.217 29.2476C149.257 29.2192 150.131 29.4118 150.229 29.1529C150.27 29.0266 150.087 28.7961 149.716 28.5909C149.233 28.3358 148.69 28.2138 148.144 28.2372C147.61 28.2482 147.088 28.4019 146.632 28.6824C146.302 28.9129 146.145 29.1529 146.202 29.276Z" fill="#263238"/>
<path d="M136.948 29.8579C137.114 30.0947 137.809 29.8895 138.629 29.9179C139.45 29.9463 140.141 30.1421 140.314 29.9179C140.39 29.8074 140.289 29.5737 140 29.3464C139.603 29.0701 139.133 28.9183 138.65 28.9105C138.167 28.9026 137.693 29.0389 137.287 29.3022C136.982 29.5169 136.875 29.7442 136.948 29.8579Z" fill="#263238"/>
<path d="M135.894 26.1429C135.894 26.1429 137.466 22.016 139.374 20.9992C141.697 19.7646 142.806 22.3349 145.032 21.6307C147.258 20.9266 149.477 19.7362 151.841 21.4034C154.425 23.2253 153.293 24.6115 153.551 27.4848C154.595 39.1424 156.836 42.3662 157.245 36.8437C157.289 36.2406 158.939 35.7007 159.093 33.1463C159.297 29.834 159.282 25.8208 158.464 23.5032C157.776 21.5518 156.607 20.2256 154.544 18.7921C151.288 16.5313 146.928 16.6355 143.976 17.0428C141.024 17.4502 135.444 21.0624 135.894 26.1429Z" fill="#263238"/>
<path d="M156.831 36.6731C156.83 36.4346 156.878 36.1985 156.971 35.9791C157.064 35.7597 157.2 35.5614 157.371 35.3964C157.542 35.2314 157.745 35.103 157.968 35.0191C158.19 34.9351 158.427 34.8973 158.664 34.908C159.874 34.9806 161.241 35.6185 161.248 38.1255C161.267 42.5682 156.822 41.6683 156.812 41.5388C156.803 41.4094 156.822 38.5329 156.831 36.6731Z" fill="#AE7461"/>
<path d="M157.767 39.8731C157.789 39.8731 157.845 39.9268 157.977 39.9868C158.162 40.0601 158.368 40.0601 158.553 39.9868C159.018 39.8131 159.411 39.0648 159.427 38.2659C159.438 37.8848 159.364 37.5061 159.21 37.1576C159.167 37.0187 159.091 36.8922 158.99 36.7889C158.888 36.6855 158.763 36.6084 158.625 36.564C158.536 36.5407 158.442 36.5495 158.36 36.5887C158.277 36.628 158.211 36.6953 158.172 36.7787C158.113 36.9019 158.141 36.9903 158.119 36.9998C158.097 37.0092 158.024 36.924 158.059 36.7408C158.082 36.6306 158.143 36.5322 158.232 36.463C158.292 36.4164 158.36 36.3824 158.433 36.3628C158.506 36.3433 158.582 36.3387 158.656 36.3493C158.838 36.3839 159.008 36.4652 159.15 36.5852C159.291 36.7053 159.4 36.86 159.464 37.0345C159.654 37.4186 159.747 37.8436 159.735 38.2722C159.713 39.1658 159.257 40.0057 158.619 40.1952C158.5 40.2298 158.375 40.2372 158.253 40.217C158.131 40.1968 158.016 40.1494 157.914 40.0783C157.776 39.9741 157.754 39.8731 157.767 39.8731Z" fill="#6F4439"/>
<path d="M156.441 28.079C155.881 28.4927 155.287 28.9189 154.599 29.0263C153.91 29.1337 153.106 28.7484 152.964 28.0633C152.901 27.7475 152.964 27.397 152.754 27.1665C152.502 26.8887 152.059 26.9929 151.691 27.0465C151.047 27.1189 150.398 26.9672 149.852 26.6166C149.306 26.266 148.897 25.7379 148.692 25.1204C148.378 25.6256 147.617 25.6288 147.12 25.3257C146.624 25.0226 146.275 24.511 145.863 24.0785C145.451 23.6459 144.901 23.2638 144.32 23.368C144.005 23.428 143.691 23.6332 143.376 23.6175C142.792 23.5859 142.487 22.9133 142.377 22.3544C142.267 21.7956 142.176 21.0914 141.676 20.8072C141.176 20.5231 140.623 20.722 140.104 20.8072C139.585 20.8925 138.881 20.8073 138.724 20.2863C138.696 20.1465 138.696 20.0024 138.725 19.8629C138.755 19.7233 138.812 19.5912 138.894 19.4748C139.233 18.9247 139.747 18.5059 140.353 18.2864C140.959 18.0669 141.622 18.0595 142.232 18.2654C142.424 17.5189 142.832 16.8462 143.404 16.3324C143.976 15.8185 144.687 15.4865 145.447 15.3784C146.207 15.2703 146.982 15.3908 147.673 15.7248C148.365 16.0589 148.943 16.5914 149.333 17.255C149.788 16.8113 150.342 16.4841 150.949 16.3012C151.556 16.1183 152.198 16.0851 152.82 16.2044C153.443 16.3237 154.027 16.592 154.525 16.9865C155.022 17.381 155.417 17.8901 155.677 18.4707C156.209 18.318 156.774 18.3242 157.303 18.4883C157.832 18.6524 158.302 18.9675 158.656 19.3952C159.01 19.8228 159.232 20.3446 159.296 20.8969C159.36 21.4493 159.262 22.0083 159.016 22.506C159.827 22.9354 160.534 23.7027 160.587 24.6215C160.641 25.5404 159.776 26.4845 158.887 26.2761C159.108 26.6328 159.18 27.0635 159.086 27.4732C158.991 27.883 158.739 28.2383 158.384 28.4611C158.029 28.6839 157.6 28.7558 157.192 28.661C156.784 28.5663 156.43 28.3126 156.208 27.9559" fill="#263238"/>
<path d="M159.207 26.2539C159.231 26.4068 159.221 26.5631 159.179 26.7118C159.136 26.8606 159.062 26.9985 158.962 27.1159C158.754 27.4068 158.444 27.6077 158.094 27.678C157.872 27.7238 157.643 27.7192 157.422 27.6646C157.202 27.61 156.997 27.5067 156.821 27.3622L157.007 27.3275C156.789 27.7508 156.505 28.1358 156.164 28.4673C155.938 28.6925 155.672 28.8726 155.378 28.9978C154.998 29.1425 154.581 29.1649 154.187 29.062C153.793 28.959 153.44 28.7358 153.178 28.4231C152.99 28.1488 152.857 27.8397 152.788 27.5138C152.747 27.3996 152.731 27.2779 152.741 27.157C152.76 27.157 152.801 27.2706 152.882 27.4727C152.983 27.7713 153.13 28.0518 153.319 28.3031C153.763 28.9346 155.136 29.203 155.979 28.2716C156.298 27.9579 156.568 27.5982 156.78 27.2043L156.856 27.0717L156.969 27.1696C157.115 27.2974 157.286 27.3919 157.472 27.4464C157.658 27.5009 157.853 27.5142 158.044 27.4853C158.351 27.4336 158.63 27.2735 158.83 27.0338C159.006 26.8014 159.134 26.5363 159.207 26.2539Z" fill="#455A64"/>
<path d="M106.952 84.3908C106.952 84.3908 98.612 84.1414 98.1122 83.9835C97.3514 83.8128 96.5625 83.8128 95.8017 83.9835C95.2076 84.1729 92.8342 85.0191 92.8342 85.0191L87.8045 86.3674C87.8045 86.3674 82.7466 89.6797 82.8472 90.3459C82.9478 91.0121 83.5042 91.4668 84.419 91.1227C85.3337 90.7785 89.895 88.3914 89.895 88.3914L94.9247 87.8578C94.9247 87.8578 101.784 90.3333 103.17 90.2101C104.556 90.087 108.106 89.4839 108.106 89.4839C108.106 89.4839 108.605 85.9127 108.354 85.3475C108.102 84.7823 106.952 84.3908 106.952 84.3908Z" fill="#AE7461"/>
<path d="M83.2093 93.3035C83.2093 93.3035 87.4373 88.7535 88.6067 88.141C89.7761 87.5284 96.2958 86.4517 96.2958 86.4517C96.2958 86.4517 98.3831 85.5834 99.147 85.8897C99.9109 86.1959 108.006 87.4242 108.361 87.4684C108.716 87.5126 106.632 94.6297 106.632 94.6297C104.613 94.9213 102.558 94.8345 100.571 94.3739C97.3143 93.6067 96.1921 92.5836 96.1921 92.5836L92.9417 91.7248L90.9487 92.4857C90.9487 92.4857 90.5934 95.4475 89.1663 95.2928L88.5061 94.8318L89.0154 91.5606L86.9281 92.4289C86.9281 92.4289 85.2966 94.8855 84.0769 94.5255C82.8572 94.1655 83.2093 93.3035 83.2093 93.3035Z" fill="#AE7461"/>
<path d="M83.2087 93.3056C83.1789 93.422 83.1682 93.5425 83.1773 93.6624C83.1922 93.807 83.2466 93.9447 83.3344 94.0602C83.4609 94.2166 83.6255 94.3374 83.8123 94.4107C84.0391 94.5229 84.2954 94.5604 84.5447 94.5181C84.8402 94.437 85.1162 94.2963 85.3557 94.1045C85.9506 93.6228 86.4681 93.052 86.8898 92.412L88.974 91.5374L89.0588 91.4995V91.5911C88.9079 92.5762 88.7445 93.6813 88.559 94.8654L88.5339 94.8086L89.194 95.2664H89.1657C89.3003 95.2772 89.4356 95.2588 89.5625 95.2125C89.6894 95.1662 89.805 95.093 89.9013 94.998C90.1086 94.7957 90.2742 94.5542 90.3885 94.2876C90.6337 93.7233 90.7977 93.1269 90.8758 92.5162V92.4752L90.9135 92.4594L92.9002 91.6953H92.9222H92.9442L96.201 92.5478H96.2198C96.9086 93.0426 97.6673 93.4311 98.4706 93.7003C99.3069 93.9988 100.163 94.2383 101.033 94.417C101.934 94.5979 102.849 94.7035 103.767 94.7328C104.713 94.767 105.66 94.7141 106.597 94.5749L106.534 94.6318C106.678 94.1297 106.848 93.5929 106.986 93.053C107.436 91.4427 107.885 89.8607 108.209 88.2946C108.25 88.1027 108.281 87.9088 108.3 87.7136C108.304 87.6695 108.304 87.6251 108.3 87.581C108.3 87.5589 108.282 87.5494 108.3 87.581H108.263L107.97 87.5368L106.807 87.36L104.528 87C103.035 86.7569 101.586 86.5169 100.193 86.2517C99.8475 86.1791 99.508 86.1191 99.1622 86.0149C98.8446 85.919 98.5076 85.9082 98.1845 85.9833C97.5387 86.11 96.907 86.3004 96.2984 86.5516H96.2827C94.0068 86.9337 91.9226 87.3126 90.1025 87.7483C89.6647 87.8498 89.2332 87.9774 88.8105 88.1304C88.4331 88.3067 88.0861 88.5422 87.7826 88.8282C87.1538 89.3524 86.632 89.8702 86.1511 90.3375C85.1891 91.2848 84.4598 92.0363 83.9506 92.5478L83.3816 93.1382C83.2496 93.2709 83.1804 93.334 83.1804 93.334C83.1804 93.334 83.2401 93.2614 83.3659 93.1225L83.9191 92.5194C84.4127 91.9984 85.1357 91.2279 86.0882 90.2807C86.566 89.8102 87.0973 89.2861 87.7134 88.7556C87.8674 88.623 88.0278 88.4872 88.1975 88.3609C88.371 88.2304 88.5614 88.1242 88.7633 88.0451C89.1912 87.8888 89.6278 87.7581 90.0711 87.6536C91.8943 87.2052 93.9753 86.82 96.2544 86.4253H96.2387C96.8562 86.1679 97.4974 85.9723 98.1531 85.8412C98.5012 85.7614 98.864 85.7734 99.2062 85.8759C99.5205 85.9738 99.8726 86.0338 100.215 86.1064C101.602 86.3685 103.044 86.6022 104.547 86.8421L106.826 87.1989L107.989 87.3789L108.282 87.4231H108.344H108.379C108.4 87.4372 108.417 87.4559 108.43 87.4778C108.442 87.4997 108.45 87.5242 108.451 87.5494C108.456 87.604 108.456 87.659 108.451 87.7136C108.432 87.9162 108.402 88.1176 108.36 88.3167C108.046 89.8955 107.584 91.4742 107.134 93.0877C106.98 93.6308 106.82 94.1708 106.682 94.6665V94.717H106.631C105.686 94.8588 104.729 94.9117 103.774 94.8749C102.846 94.8487 101.923 94.7431 101.014 94.5591C100.136 94.3802 99.2724 94.1375 98.4297 93.8329C98.0193 93.6861 97.6173 93.5164 97.2257 93.3245C96.8365 93.1404 96.4686 92.9138 96.1287 92.6488L96.1601 92.6646L92.9097 91.8026H92.9537L90.9607 92.5636L91.0047 92.5067C90.9239 93.1322 90.7535 93.7427 90.4986 94.3192C90.3775 94.6011 90.2011 94.8556 89.9799 95.0675C89.8699 95.1737 89.7389 95.2553 89.5953 95.307C89.4517 95.3587 89.2989 95.3793 89.1469 95.3675H89.1311L88.471 94.9065L88.4396 94.8844V94.8465C88.625 93.6656 88.8011 92.5604 88.9551 91.5753L89.0274 91.6321L86.9369 92.4941L86.9558 92.4783C86.5235 93.1236 85.9931 93.6968 85.384 94.1771C85.1352 94.3708 84.8496 94.5116 84.5447 94.5907C84.2839 94.6338 84.0161 94.5918 83.7808 94.4707C83.5881 94.3926 83.4198 94.2639 83.2936 94.0981C83.2042 93.9766 83.1508 93.8321 83.1395 93.6813C83.128 93.5521 83.1519 93.4222 83.2087 93.3056Z" fill="#6F4439"/>
<path d="M96.0053 89.4461C95.9009 89.4582 95.7954 89.4582 95.691 89.4461C95.4866 89.4304 95.1911 89.4019 94.8234 89.364L93.5408 89.2188L93.1699 89.1778C93.0481 89.1573 92.9238 89.1573 92.8021 89.1778C92.5353 89.2185 92.2709 89.2734 92.0099 89.342C90.9505 89.6577 89.888 89.8566 89.4951 90.4881C89.3252 90.7183 89.1975 90.9771 89.1178 91.2523C89.0612 91.448 89.0455 91.568 89.0361 91.568C89.0193 91.4625 89.0268 91.3544 89.0581 91.2523C89.1149 90.9593 89.2328 90.6817 89.4039 90.4376C89.5224 90.2667 89.6678 90.1163 89.8346 89.9924C90.0275 89.8566 90.2393 89.7502 90.4633 89.6766C90.9612 89.4945 91.468 89.3374 91.9816 89.2062C92.2484 89.1344 92.5192 89.0785 92.7926 89.0388C92.9281 89.0183 93.0658 89.0183 93.2013 89.0388L93.5691 89.0893L94.8516 89.2662C95.2163 89.3198 95.5086 89.3672 95.713 89.4019C95.812 89.403 95.9104 89.4178 96.0053 89.4461Z" fill="#6F4439"/>
<path d="M84.6582 91.7897C84.7644 91.6622 84.8811 91.5439 85.0071 91.436C85.2429 91.2182 85.5887 90.9119 86.0256 90.5456C86.4626 90.1793 86.9938 89.7499 87.5974 89.3047C87.9118 89.0837 88.2261 88.8563 88.5845 88.6416C88.7666 88.5327 88.9545 88.4336 89.1472 88.3448C89.3521 88.2646 89.5622 88.1982 89.7759 88.1459C91.2241 87.7936 92.6945 87.5404 94.1768 87.3881L95.516 87.2207C95.6791 87.1935 95.8442 87.1797 96.0095 87.1797C95.8517 87.2294 95.6896 87.2643 95.5254 87.2839L94.1957 87.5018C93.0735 87.7007 91.4985 87.8396 89.8262 88.3038C89.6221 88.3547 89.4215 88.419 89.2258 88.4964C89.0384 88.581 88.8558 88.6759 88.6788 88.7806C88.3299 88.989 88.0061 89.21 87.698 89.4279C87.0693 89.8636 86.5506 90.2804 86.1042 90.634L85.0543 91.4834C84.9304 91.5957 84.798 91.6981 84.6582 91.7897Z" fill="#6F4439"/>
<path d="M137.321 62.1356C135.815 64.2749 134.483 66.5325 133.338 68.8864C131.826 72.044 126.941 82.7954 126.941 82.7954L107.033 83.8437L107.329 91.5701C107.329 91.5701 126.555 98.4504 130.858 97.1211C135.162 95.7918 139.748 90.806 139.748 90.806L141.807 58.2203C141.807 58.2203 140.1 57.9014 137.321 62.1356Z" fill="#58B368"/>
<path d="M141.485 58.2975C141.485 58.2975 136.379 69.9267 135.634 74.8525C134.154 84.6408 133.657 90.7507 133.657 90.7507L131.922 105.885H165.919C165.919 105.885 167.045 77.8364 166.322 68.4332C165.781 61.3856 160.405 56.9966 158.208 54.5875C158.076 54.4422 157.473 52.4688 157.473 52.4688L141.629 56.5451L141.485 58.2975Z" fill="#58B368"/>
<path d="M139.84 60.0586C139.832 60.097 139.82 60.1342 139.802 60.1691C139.767 60.248 139.727 60.3554 139.67 60.4849L139.164 61.7005C138.727 62.7551 138.095 64.2865 137.46 66.2316C136.722 68.5054 136.135 70.826 135.703 73.1781C135.197 75.8336 134.788 78.7796 134.445 81.8834C133.817 88.0975 133.254 93.721 132.842 97.8006C132.632 99.8309 132.462 101.476 132.342 102.622C132.28 103.184 132.232 103.623 132.198 103.932C132.179 104.078 132.166 104.188 132.157 104.273C132.153 104.313 132.145 104.352 132.135 104.39C132.132 104.351 132.132 104.312 132.135 104.273C132.135 104.188 132.151 104.075 132.16 103.929C132.188 103.614 132.226 103.181 132.273 102.616C132.38 101.466 132.534 99.8214 132.723 97.7879C133.116 93.7147 133.634 88.0817 134.295 81.8645C134.634 78.7606 135.049 75.8084 135.552 73.1497C135.991 70.7894 136.591 68.4621 137.347 66.1842C137.998 64.2423 138.645 62.7109 139.101 61.6658C139.327 61.1385 139.513 60.7343 139.639 60.4628C139.698 60.3301 139.745 60.2291 139.783 60.147C139.8 60.1165 139.819 60.087 139.84 60.0586Z" fill="#263238"/>
<g opacity="0.3">
<path d="M157.504 78.3699C157.19 75.2723 155.803 72.1622 153.267 70.375L132.538 100.106C136.197 102.089 140.262 104.135 144.326 103.264C146.527 102.793 148.457 101.499 150.035 99.9042C153.314 96.592 155.093 92.0799 156.341 87.5899C157.174 84.5839 157.815 81.4674 157.504 78.3699Z" fill="black"/>
</g>
<path d="M159.851 74.7772C157.27 83.9562 151.458 95.1559 149.672 97.4072C148.383 99.0627 146.738 100.404 144.86 101.329C142.981 102.255 140.919 102.742 138.827 102.753C136.488 102.753 116.721 98.885 110.849 97.7293C110.366 97.6331 109.922 97.3966 109.572 97.0492C109.221 96.7017 108.98 96.2586 108.878 95.7748L108.828 95.5317L106.203 94.8117L107.608 87.7041L107.888 87.3095L136.158 88.203L144.381 65.1941C144.539 64.932 146.912 57.2119 153.353 57.5624" fill="#58B368"/>
<path d="M153.353 57.5688H153.139C152.929 57.5628 152.719 57.5681 152.51 57.5846C151.691 57.6335 150.887 57.8247 150.134 58.1498C148.93 58.7011 147.868 59.5233 147.031 60.5526C145.9 61.947 145.018 63.5269 144.422 65.2226C142.344 71.0514 139.524 78.9705 136.22 88.2379L136.205 88.2884H136.151L107.894 87.398L107.963 87.3632L107.683 87.7579V87.7264C107.278 89.7819 106.847 91.9669 106.426 94.1772L106.297 94.834L106.237 94.7361L108.875 95.4497L108.925 95.4655V95.5128C109.002 96.0974 109.276 96.6379 109.701 97.0442C109.913 97.2406 110.158 97.3977 110.424 97.5084C110.698 97.6094 110.982 97.6824 111.27 97.7263L114.728 98.4051L121.487 99.7092C125.916 100.552 130.182 101.354 134.252 102.046C135.271 102.216 136.277 102.362 137.27 102.519C137.767 102.583 138.264 102.652 138.751 102.674C139.24 102.68 139.729 102.656 140.216 102.601C142.095 102.399 143.913 101.813 145.56 100.881C147.088 99.9991 148.441 98.8407 149.549 97.4642C150.049 96.8016 150.507 96.1077 150.92 95.3865C151.331 94.6824 151.721 93.9846 152.089 93.2994C154.4 88.9654 156.424 84.4837 158.15 79.8831C158.747 78.2538 159.174 76.975 159.445 76.094C159.577 75.6614 159.681 75.3299 159.759 75.1025C159.838 74.8752 159.866 74.7678 159.866 74.7678C159.866 74.7678 159.838 74.8815 159.775 75.1057L159.486 76.1035C159.225 76.9781 158.807 78.2601 158.228 79.8925C156.522 84.5053 154.51 88.998 152.205 93.3404C151.841 94.0288 151.451 94.7266 151.042 95.4339C150.629 96.1625 150.168 96.8629 149.662 97.5305C148.541 98.9296 147.168 100.105 145.616 100.997C143.956 101.942 142.122 102.536 140.225 102.744C139.733 102.801 139.237 102.826 138.741 102.819C138.239 102.797 137.745 102.728 137.245 102.665C136.249 102.523 135.24 102.349 134.221 102.194C130.134 101.506 125.881 100.707 121.449 99.8671L114.69 98.563L111.232 97.8873C110.934 97.8417 110.641 97.7655 110.358 97.6599C110.073 97.5433 109.811 97.3754 109.585 97.1642C109.135 96.7352 108.843 96.1651 108.758 95.5476L108.818 95.6107L106.181 94.8971L106.108 94.875V94.8024C106.149 94.594 106.196 94.3698 106.24 94.1456C106.677 91.9354 107.108 89.7503 107.498 87.6948V87.6758L107.778 87.2811L107.803 87.2464H107.894L136.164 88.1495L136.095 88.1968L144.343 65.1974C144.945 63.5001 145.837 61.921 146.978 60.5305C147.826 59.4955 148.902 58.6729 150.121 58.1277C150.88 57.8058 151.69 57.6208 152.513 57.5814C152.723 57.5673 152.933 57.5673 153.142 57.5814L153.353 57.5688Z" fill="#263238"/>
<path d="M129.931 86.3886C129.556 85.6682 129.098 84.9943 128.567 84.3804C127.999 83.8047 127.366 83.2982 126.681 82.8711C126.915 82.9338 127.137 83.0351 127.338 83.1711C127.842 83.4681 128.3 83.8372 128.699 84.2667C129.097 84.6966 129.431 85.1814 129.692 85.7066C129.806 85.9202 129.887 86.1503 129.931 86.3886Z" fill="#263238"/>
<path d="M139.579 93.7779C139.551 93.7779 139.494 93.4148 139.331 92.8307C139.114 92.0862 138.802 91.3729 138.403 90.7088C137.999 90.0482 137.51 89.4441 136.948 88.9122C136.517 88.5017 136.215 88.2807 136.231 88.2617C136.314 88.2924 136.391 88.3361 136.461 88.3912C136.658 88.5233 136.847 88.6678 137.026 88.8238C138.222 89.8669 139.067 91.2569 139.444 92.8022C139.502 93.0336 139.543 93.2689 139.566 93.5064C139.585 93.5957 139.589 93.6873 139.579 93.7779Z" fill="#263238"/>
<g opacity="0.3">
<path d="M132.037 88.0291L133.681 88.0923C133.948 81.6036 135.278 75.1464 136.416 68.7461C133.515 74.7012 132.754 81.4425 132.037 88.0291Z" fill="black"/>
</g>
<path d="M157.657 54.5859C157.607 54.6114 157.555 54.6295 157.5 54.6396L157.047 54.7659L155.381 55.2111C153.976 55.5869 152.036 56.1237 149.88 56.6699C147.723 57.2162 145.752 57.6393 144.313 57.8761C143.593 57.9961 143.008 58.0813 142.603 58.1224L142.134 58.1697C142.08 58.1774 142.025 58.1774 141.971 58.1697C142.022 58.1501 142.076 58.1373 142.131 58.1318L142.593 58.0529C142.996 57.9929 143.577 57.8887 144.291 57.7561C145.721 57.4909 147.686 57.052 149.839 56.4931C151.992 55.9342 153.926 55.4258 155.353 55.0785C156.06 54.9048 156.635 54.7628 157.035 54.6838L157.493 54.5891C157.548 54.5809 157.603 54.5798 157.657 54.5859Z" fill="#263238"/>
</svg>
