<svg width="210" height="121" viewBox="0 0 210 121" fill="none" xmlns="http://www.w3.org/2000/svg">
<path d="M141.407 84.168L142.664 86.6827L145.398 87.0654L143.402 89.0335L143.894 91.767L141.407 90.4822L138.947 91.767L139.411 89.0335L137.416 87.0654L140.177 86.6827L141.407 84.168Z" fill="#58B368"/>
<path d="M147.31 81.9492L147.884 83.1246L149.196 83.3159L148.239 84.2453L148.458 85.53L147.31 84.9287L146.135 85.53L146.353 84.2453L145.424 83.3159L146.736 83.1246L147.31 81.9492Z" fill="#58B368"/>
<path d="M139.59 16.8647L140.547 13.8305C139.809 12.3271 139.426 10.6051 139.59 8.80098C140.055 3.63474 144.647 -0.192093 149.813 0.272594C155.007 0.737282 158.807 5.32949 158.342 10.4957C157.877 15.662 153.285 19.4888 148.119 19.0241C145.959 18.8328 144.183 18.0401 142.706 16.6733L139.59 16.8647Z" fill="#FAFAFA"/>
<path d="M139.591 16.8633C139.591 16.8633 139.673 16.8633 139.809 16.836C139.946 16.836 140.137 16.8086 140.411 16.7813C140.93 16.754 141.723 16.6993 142.734 16.6173C143.636 17.4373 144.975 18.3394 146.834 18.7494C147.299 18.8587 147.764 18.9134 148.283 18.9681C148.529 18.9681 148.802 18.9954 149.048 18.9954C149.294 18.9954 149.568 18.9681 149.841 18.9407C150.907 18.8314 152.028 18.558 153.094 18.0387C154.16 17.5193 155.199 16.754 156.046 15.7699C156.893 14.7859 157.604 13.6105 157.987 12.2711C158.369 10.9317 158.479 9.48297 158.233 8.03424C158.178 7.67889 158.069 7.32354 157.987 6.96819C157.959 6.77685 157.877 6.61284 157.795 6.44883C157.741 6.28482 157.659 6.09348 157.604 5.92948C157.276 5.24611 156.921 4.59008 156.456 3.98872C156.237 3.68804 155.964 3.4147 155.718 3.14135C155.609 3.00468 155.445 2.89534 155.308 2.75867C155.171 2.64933 155.035 2.51266 154.898 2.37598L154.461 2.04797L154.242 1.88396L153.996 1.74729L153.531 1.47394C153.367 1.39194 153.203 1.30993 153.039 1.22793C151.727 0.599236 150.278 0.298556 148.884 0.325891C147.49 0.353225 146.151 0.681239 145.003 1.25527C143.827 1.82929 142.843 2.59466 142.051 3.4967C141.258 4.39874 140.684 5.38278 140.301 6.39416C140.247 6.53084 140.219 6.64017 140.165 6.77685C140.11 6.91352 140.083 7.02286 140.055 7.15953C140.001 7.40554 139.919 7.65155 139.864 7.89756C139.809 8.38959 139.7 8.88161 139.7 9.34629C139.618 11.2324 140.11 12.7631 140.657 13.8565C140.329 14.8405 140.083 15.5786 139.919 16.0979C139.837 16.3439 139.782 16.5353 139.727 16.672C139.618 16.7813 139.591 16.8633 139.591 16.8633C139.591 16.8633 139.618 16.8086 139.645 16.672C139.7 16.5353 139.755 16.3439 139.809 16.0979C139.973 15.5786 140.219 14.8132 140.52 13.8292V13.8565C139.973 12.7631 139.454 11.205 139.536 9.31896C139.536 8.85427 139.645 8.36225 139.7 7.87023C139.755 7.62422 139.809 7.37821 139.891 7.1322C139.919 6.99552 139.946 6.88618 140.001 6.74951C140.055 6.61284 140.083 6.5035 140.137 6.36683C140.52 5.35545 141.094 4.34407 141.887 3.44203C142.679 2.53999 143.691 1.74729 144.866 1.17326C146.042 0.599236 147.408 0.243887 148.802 0.216552C150.196 0.189218 151.672 0.489898 153.012 1.11859C153.176 1.2006 153.34 1.2826 153.504 1.3646L153.996 1.66528L154.242 1.80196L154.461 1.96596L154.925 2.29398C155.062 2.40332 155.199 2.53999 155.363 2.67666C155.499 2.81334 155.663 2.92267 155.773 3.05935C156.019 3.33269 156.292 3.60604 156.511 3.93405C157.003 4.53541 157.358 5.21878 157.686 5.90214C157.768 6.06615 157.823 6.25749 157.877 6.4215C157.932 6.61284 158.014 6.77685 158.069 6.96819C158.151 7.32354 158.287 7.67889 158.315 8.06157C158.561 9.53764 158.479 11.0137 158.069 12.3531C157.686 13.7198 156.975 14.9225 156.101 15.9066C155.226 16.8906 154.187 17.656 153.094 18.1754C152 18.6947 150.88 18.9954 149.786 19.0774C149.513 19.0774 149.24 19.1047 148.994 19.1047C148.72 19.1047 148.474 19.0774 148.228 19.0774C147.709 19.0501 147.244 18.9681 146.78 18.8587C144.921 18.4487 143.554 17.5193 142.679 16.6993H142.707C141.695 16.754 140.903 16.7813 140.356 16.8086C140.11 16.8086 139.891 16.836 139.755 16.836C139.673 16.8633 139.591 16.8633 139.591 16.8633Z" fill="#263238"/>
<path d="M143.65 9.29568L145.208 7.95629L147.805 10.6351L153.655 5.76953L154.912 7.30026L147.395 13.3959L143.65 9.29568Z" fill="#58B368"/>
<path d="M123.364 84.0388L70.9359 95.7107C69.6512 95.984 68.3938 95.1913 68.1205 93.934L51.1184 17.5885C50.845 16.3038 51.6377 15.0464 52.8951 14.7731L105.323 3.10121C106.608 2.82786 107.865 3.62057 108.138 4.87796L125.14 81.196C125.441 82.4808 124.648 83.7655 123.364 84.0388Z" fill="#E0E0E0"/>
<path d="M123.364 84.0394C123.364 84.0394 123.419 84.012 123.528 83.9847C123.637 83.9574 123.801 83.8754 124.02 83.766C124.211 83.6567 124.457 83.4653 124.676 83.192C124.895 82.9187 125.086 82.536 125.168 82.0986C125.195 81.8799 125.195 81.6339 125.168 81.3606C125.113 81.1146 125.059 80.8412 125.004 80.5679C124.867 80.0212 124.731 79.3925 124.594 78.7365C124.293 77.4244 123.965 75.8937 123.583 74.1716C122.052 67.2833 119.811 57.3335 117.077 45.033C115.71 38.8827 114.207 32.1311 112.594 24.9147C111.774 21.3066 110.954 17.5617 110.079 13.7076C109.642 11.7941 109.205 9.82605 108.767 7.85796C108.549 6.87392 108.33 5.86254 108.084 4.8785C107.975 4.38647 107.674 3.94912 107.264 3.62111C106.854 3.32043 106.362 3.12908 105.843 3.12908C105.597 3.12908 105.351 3.18375 105.077 3.23842C104.831 3.29309 104.558 3.34776 104.312 3.40243C103.792 3.51177 103.3 3.62111 102.781 3.75778C101.742 3.97645 100.704 4.22247 99.6649 4.44114C97.5875 4.90583 95.4827 5.37052 93.3507 5.86254C89.0865 6.81925 84.7403 7.77596 80.3121 8.76C71.4557 10.7281 62.2986 12.7782 52.9228 14.8556C52.3488 14.9923 51.8295 15.3476 51.5014 15.8123C51.1734 16.3043 51.0368 16.9057 51.1461 17.4797C51.3921 18.6551 51.6654 19.8032 51.9115 20.9786C52.4308 23.302 52.9502 25.5981 53.4422 27.8942C54.4536 32.4591 55.465 36.9693 56.449 41.3975C58.4171 50.2539 60.3305 58.7822 62.1346 66.9279C63.9387 75.0736 65.6607 82.782 67.2735 90.0256C67.4648 90.9277 67.6835 91.8297 67.8748 92.7044C67.9842 93.1418 68.0662 93.6065 68.1755 94.0165C68.2849 94.4538 68.5309 94.8365 68.8589 95.1372C69.1869 95.4379 69.5969 95.6292 70.0069 95.7112C70.2256 95.7386 70.4443 95.7386 70.663 95.7386C70.8816 95.7112 71.1003 95.6566 71.2917 95.6019C72.139 95.4106 72.9864 95.2192 73.8338 95.0279C77.1959 94.2898 80.4214 93.5518 83.4829 92.8684C95.7834 90.135 105.733 87.9209 112.622 86.3902C116.066 85.6248 118.744 85.0234 120.549 84.6407C121.451 84.4494 122.134 84.2854 122.599 84.176C123.118 84.094 123.364 84.0394 123.364 84.0394C123.364 84.0394 123.118 84.094 122.653 84.2034C122.189 84.3127 121.505 84.4767 120.603 84.6681C118.799 85.0781 116.12 85.6794 112.676 86.4448C105.788 87.9755 95.8381 90.217 83.5375 92.9504C80.4487 93.6338 77.2506 94.3445 73.8884 95.1099C73.0411 95.3012 72.1937 95.4926 71.3463 95.6839C71.1277 95.7386 70.909 95.7932 70.6903 95.8206C70.4716 95.8479 70.2529 95.8479 70.0069 95.7932C69.5696 95.7112 69.1322 95.5199 68.8042 95.1919C68.4762 94.8912 68.2029 94.4812 68.0935 94.0438C67.9842 93.6065 67.9022 93.1691 67.7928 92.7044C67.6015 91.8024 67.3828 90.9277 67.1915 90.0256C65.5787 82.782 63.8567 75.0736 62.0252 66.9279C60.2212 58.7822 58.3077 50.2539 56.3397 41.3975C55.3556 36.9693 54.3442 32.4591 53.3329 27.8942C52.8135 25.5981 52.3215 23.302 51.8021 20.9786C51.5561 19.8305 51.2828 18.6551 51.0368 17.4797C50.9274 16.8784 51.0641 16.2223 51.4194 15.7303C51.7475 15.211 52.2941 14.8556 52.8955 14.7189C62.2713 12.6142 71.4557 10.5914 80.2847 8.62333C84.7129 7.63929 89.0591 6.68258 93.3233 5.72587C95.4554 5.26118 97.5602 4.76916 99.6376 4.3318C100.676 4.11313 101.715 3.86712 102.754 3.64844C103.273 3.5391 103.792 3.42976 104.284 3.29309C104.53 3.23842 104.804 3.18375 105.05 3.12908C105.296 3.07441 105.569 3.01974 105.843 3.01974C106.389 3.01974 106.909 3.21109 107.319 3.5391C107.729 3.86712 108.029 4.3318 108.166 4.85116C108.385 5.86254 108.603 6.84658 108.849 7.83063C109.287 9.79872 109.724 11.7668 110.161 13.7076C111.009 17.5617 111.856 21.3066 112.649 24.9147C114.262 32.1584 115.765 38.8827 117.132 45.033C119.865 57.3335 122.079 67.2833 123.61 74.1716C123.993 75.8937 124.321 77.4244 124.621 78.7365C124.758 79.3925 124.895 80.0212 125.031 80.5679C125.086 80.8412 125.168 81.1146 125.195 81.3606C125.223 81.6066 125.25 81.8799 125.195 82.0986C125.113 82.5633 124.922 82.946 124.703 83.2193C124.485 83.4927 124.239 83.684 124.02 83.7934C123.801 83.9027 123.637 83.9574 123.528 84.012C123.419 84.012 123.364 84.0394 123.364 84.0394Z" fill="#263238"/>
<g opacity="0.3">
<path d="M73.6145 93.0112L121.368 82.1047L119.865 72.7563L117.158 67.508L71.4551 85.4395L73.6145 93.0112Z" fill="black"/>
</g>
<g opacity="0.3">
<path d="M93.543 5.89865L95.347 8.87811L95.7024 10.4635L94.4723 10.7369L93.543 5.89865Z" fill="black"/>
</g>
<path d="M53.8516 18.0549L70.4163 92.4049L122.352 80.8151L119.4 67.5305L105.787 6.46506L53.8516 18.0549Z" fill="white"/>
<path d="M53.8518 18.0549C54.2345 17.9729 74.2161 13.49 105.787 6.43771H105.842V6.49238C110.462 27.1573 116.202 52.9338 122.434 80.8424V80.8971H122.38C103.819 85.0246 86.1886 88.9608 70.4439 92.4596H70.3892V92.4049C60.6034 48.5056 53.9338 18.4923 53.8518 18.0549C53.9611 18.5196 60.6581 48.5056 70.4712 92.4049L70.4165 92.3776C86.1613 88.8788 103.792 84.9426 122.352 80.7877L122.298 80.8424C116.093 52.9338 110.352 27.1573 105.733 6.49238L105.787 6.51972C74.2161 13.5174 54.2072 17.9456 53.8518 18.0549Z" fill="#263238"/>
<path d="M94.7681 11.3396L68.4723 17.2166L67.1602 11.285C66.9415 10.3556 67.5429 9.42621 68.4723 9.20753L91.3786 4.09597C92.308 3.8773 93.2374 4.47866 93.4561 5.40803L94.7681 11.3396Z" fill="#263238"/>
<path d="M82.6325 3.05099L75.9355 4.52706L77.9856 10.076L83.0425 8.95524L82.6325 3.05099Z" fill="#263238"/>
<path d="M91.3829 4.09836C91.3829 4.12569 86.2714 5.30108 79.9571 6.69514C73.6428 8.11654 68.5039 9.20992 68.5039 9.18259C68.5039 9.15525 73.6155 7.97987 79.9571 6.5858C86.244 5.19174 91.3556 4.07102 91.3829 4.09836Z" fill="#455A64"/>
<path d="M68.8047 15.854C68.7773 15.854 68.504 14.788 68.2033 13.4486C67.9026 12.1092 67.684 11.0432 67.7113 11.0158C67.7386 11.0158 68.012 12.0819 68.3126 13.4213C68.6133 14.7607 68.832 15.854 68.8047 15.854Z" fill="#455A64"/>
<path d="M93.5042 9.72139C93.4769 9.72139 93.2309 8.76468 92.9575 7.53463C92.6842 6.33191 92.4928 5.34787 92.5202 5.34787C92.5475 5.34787 92.7935 6.30458 93.0669 7.53463C93.3402 8.73735 93.5315 9.72139 93.5042 9.72139Z" fill="#455A64"/>
<path d="M92.4726 11.0435C92.4726 11.0709 87.2243 12.2736 80.7187 13.7223C74.2131 15.1711 68.9648 16.3191 68.9375 16.2918C68.9375 16.2644 74.1857 15.0617 80.6914 13.613C87.197 12.1643 92.4452 11.0162 92.4726 11.0435Z" fill="#455A64"/>
<path d="M78.6138 32.6572C78.6138 32.6845 75.0876 33.5045 70.6868 34.4886C66.3132 35.4726 62.7598 36.238 62.7324 36.2107C62.7324 36.1833 66.2586 35.3633 70.6594 34.3793C75.0603 33.3952 78.6138 32.6298 78.6138 32.6572Z" fill="#263238"/>
<path d="M105.076 29.6802C105.076 29.7075 95.8095 31.8123 84.3837 34.3544C72.9578 36.8965 63.6641 38.9466 63.6641 38.9192C63.6641 38.8919 72.9305 36.7872 84.3563 34.245C95.7822 31.7029 105.049 29.6528 105.076 29.6802Z" fill="#263238"/>
<path d="M105.625 32.2427C105.625 32.27 96.3583 34.3748 84.9325 36.9169C73.5066 39.459 64.2129 41.5091 64.2129 41.4818C64.2129 41.4544 73.4793 39.3497 84.9052 36.8075C96.3583 34.2381 105.625 32.2153 105.625 32.2427Z" fill="#263238"/>
<path d="M106.191 34.7974C106.191 34.8247 96.9247 36.9295 85.4989 39.4716C74.073 42.0137 64.7793 44.0638 64.7793 44.0364C64.7793 44.0091 74.0457 41.9043 85.4716 39.3622C96.9247 36.8201 106.191 34.77 106.191 34.7974Z" fill="#263238"/>
<path d="M106.769 37.3677C106.769 37.395 97.5029 39.4998 86.077 42.0419C74.6512 44.584 65.3574 46.6341 65.3574 46.6068C65.3574 46.5794 74.6238 44.4747 86.0497 41.9325C97.4755 39.3631 106.769 37.3403 106.769 37.3677Z" fill="#263238"/>
<path d="M107.347 39.9028C107.347 39.9302 98.081 42.0349 86.6551 44.577C75.2293 47.1192 65.9355 49.1692 65.9355 49.1419C65.9355 49.1146 75.202 47.0098 86.6278 44.4677C98.0537 41.9256 107.347 39.8755 107.347 39.9028Z" fill="#263238"/>
<path d="M73.9725 57.8893C73.9725 57.8893 73.9725 57.862 73.9451 57.8073C73.9178 57.7526 73.9178 57.6706 73.8905 57.5613C73.8358 57.3426 73.7538 57.0419 73.6718 56.6593C73.4804 55.8666 73.2344 54.7458 72.9337 53.4338L72.9884 53.4611C71.6764 53.7618 70.1456 54.0898 68.5056 54.4725C68.5056 54.4998 68.5876 54.3358 68.5602 54.4178V54.4452V54.4725L68.5876 54.5545L68.6149 54.7185C68.6422 54.8278 68.6696 54.9099 68.6696 55.0192C68.7242 55.2105 68.7516 55.4292 68.8062 55.6205C68.8882 56.0032 68.9702 56.4132 69.0523 56.7686C69.2163 57.534 69.3803 58.2447 69.5169 58.8733L69.4623 58.846C70.8017 58.5727 71.9224 58.3267 72.7151 58.1627C73.0978 58.0806 73.3984 58.026 73.6444 57.9713C73.7538 57.944 73.8358 57.944 73.8905 57.9166C73.9451 57.8893 73.9725 57.8893 73.9725 57.8893C73.9725 57.8893 73.9451 57.8893 73.8905 57.9166C73.8358 57.944 73.7538 57.944 73.6444 57.9713C73.4258 58.026 73.1251 58.108 72.7424 58.19C71.9497 58.3813 70.829 58.6273 69.4896 58.9554H69.4349V58.9007C69.2983 58.2447 69.1343 57.534 68.9702 56.7959C68.8882 56.4132 68.8062 56.0306 68.6969 55.6479C68.6422 55.4565 68.6149 55.2379 68.5602 55.0465C68.5329 54.9372 68.5056 54.8552 68.5056 54.7458L68.4782 54.5818L68.4509 54.4998V54.4725V54.4452C68.4236 54.4998 68.5056 54.3632 68.5056 54.3632C70.1456 54.0078 71.6764 53.6525 72.9884 53.3791H73.0431V53.4338C73.3438 54.7732 73.5624 55.8939 73.7538 56.7139C73.8358 57.0966 73.8905 57.3973 73.9451 57.616C73.9725 57.7253 73.9725 57.78 73.9998 57.862C73.9725 57.862 73.9725 57.8893 73.9725 57.8893Z" fill="#263238"/>
<path d="M107.274 46.8488L76.0039 53.8166L76.5865 56.4314L107.857 49.4635L107.274 46.8488Z" fill="#E0E0E0"/>
<path d="M75.6932 65.6862C75.6932 65.6862 75.6932 65.6589 75.6658 65.6042C75.6385 65.5495 75.6385 65.4675 75.6112 65.3582C75.5565 65.1395 75.4745 64.8388 75.3925 64.4561C75.2011 63.6634 74.9551 62.5427 74.6544 61.2307L74.7091 61.258C73.3971 61.5587 71.8663 61.8867 70.2263 62.2694C70.2263 62.2967 70.3083 62.1327 70.2809 62.2147V62.242V62.2694L70.3083 62.3514L70.3356 62.5154C70.3629 62.6247 70.3903 62.7067 70.3903 62.8161C70.4449 63.0074 70.4723 63.2261 70.5269 63.4174C70.6089 63.8001 70.6909 64.2101 70.773 64.5655C70.937 65.3308 71.101 66.0415 71.2376 66.6702L71.183 66.6429C72.5224 66.3695 73.6431 66.1235 74.4358 65.9595C74.8185 65.8775 75.1191 65.8229 75.3651 65.7682C75.4745 65.7409 75.5565 65.7409 75.6112 65.7135C75.6658 65.6862 75.6932 65.6862 75.6932 65.6862C75.6932 65.6862 75.6658 65.6862 75.6112 65.7135C75.5565 65.7409 75.4745 65.7409 75.3651 65.7682C75.1465 65.8229 74.8458 65.9049 74.4631 65.9869C73.6704 66.1782 72.5497 66.4242 71.2103 66.7522H71.1556V66.6976C71.019 66.0415 70.855 65.3308 70.6909 64.5928C70.6089 64.2101 70.5269 63.8274 70.4176 63.4448C70.3629 63.2534 70.3356 63.0347 70.2809 62.8434C70.2536 62.7341 70.2263 62.6521 70.2263 62.5427L70.1989 62.3787L70.1716 62.2967V62.2694V62.242C70.1443 62.2967 70.2263 62.16 70.2263 62.16C71.8663 61.8047 73.3971 61.4493 74.7091 61.176H74.7638V61.2307C75.0645 62.5701 75.2831 63.6908 75.4745 64.5108C75.5565 64.8935 75.6112 65.1942 75.6658 65.4128C75.6932 65.5222 75.6932 65.5769 75.7205 65.6589C75.6932 65.6589 75.6932 65.6862 75.6932 65.6862Z" fill="#263238"/>
<path d="M109.026 54.6378L77.7559 61.6057L78.3385 64.2204L109.609 57.2526L109.026 54.6378Z" fill="#E0E0E0"/>
<path d="M77.4432 73.4401C77.4432 73.4401 77.4432 73.4128 77.4158 73.3581C77.3885 73.3034 77.3885 73.2214 77.3612 73.1121C77.3065 72.8934 77.2245 72.5927 77.1425 72.21C76.9511 71.4173 76.7051 70.2966 76.4044 68.9846L76.4591 69.0119C75.1471 69.3126 73.6163 69.6406 71.9763 70.0233C71.9763 70.0506 72.0583 69.8866 72.0309 69.9686V69.9959V70.0233L72.0583 70.1053L72.0856 70.2693C72.1129 70.3786 72.1403 70.4606 72.1403 70.57C72.1949 70.7613 72.2223 70.98 72.2769 71.1713C72.3589 71.554 72.4409 71.964 72.523 72.3194C72.687 73.0847 72.851 73.7954 72.9876 74.4241L72.933 74.3968C74.2724 74.1235 75.3931 73.8774 76.1858 73.7134C76.5685 73.6314 76.8691 73.5768 77.1151 73.5221C77.2245 73.4948 77.3065 73.4948 77.3612 73.4674C77.3885 73.4401 77.4158 73.4401 77.4432 73.4401C77.4432 73.4401 77.4158 73.4401 77.3612 73.4674C77.3065 73.4948 77.2245 73.4948 77.1151 73.5221C76.8965 73.5768 76.5958 73.6588 76.2131 73.7408C75.4204 73.9321 74.2997 74.1781 72.9603 74.5061H72.9056V74.4515C72.769 73.7954 72.605 73.0847 72.4409 72.3467C72.3589 71.964 72.2769 71.5813 72.1676 71.1987C72.1129 71.0073 72.0856 70.7886 72.0309 70.5973C72.0036 70.488 71.9763 70.406 71.9763 70.2966L71.9489 70.1326L71.9216 70.0506V70.0233V69.9959C71.8943 70.0506 71.9763 69.9139 71.9763 69.9139C73.6163 69.5586 75.1471 69.2032 76.4591 68.9299H76.5138V68.9846C76.8145 70.324 77.0331 71.4447 77.2245 72.2647C77.3065 72.6474 77.3612 72.9481 77.4158 73.1667C77.4432 73.2761 77.4432 73.3308 77.4705 73.4128C77.4158 73.4128 77.4432 73.4401 77.4432 73.4401Z" fill="#263238"/>
<path d="M110.745 62.4035L79.4746 69.3713L80.0572 71.9861L111.328 65.0182L110.745 62.4035Z" fill="#E0E0E0"/>
<path d="M69.6462 56.2729L70.1109 55.5349L71.505 56.3276L73.3091 53.6214L74.0198 54.0861L71.6963 57.5029L69.6462 56.2729Z" fill="#58B368"/>
<path d="M71.3145 63.8001L71.8065 63.0621L73.2005 63.8548L74.9773 61.1487L75.688 61.6133L73.3645 65.0301L71.3145 63.8001Z" fill="#58B368"/>
<path d="M73.0469 71.4954L73.5116 70.7574L74.933 71.5501L76.7097 68.8166L77.4204 69.3086L75.097 72.7255L73.0469 71.4954Z" fill="#58B368"/>
<path d="M87.3651 81.1652C87.3651 81.1925 84.741 81.8212 81.4609 82.5319C78.2081 83.27 75.5566 83.8167 75.5293 83.7893C75.5293 83.762 78.1534 83.1333 81.4335 82.4226C84.7137 81.7119 87.3651 81.1379 87.3651 81.1652Z" fill="#263238"/>
<path d="M93.2407 79.7841C93.2407 79.8114 92.284 80.0574 91.0813 80.3308C89.8786 80.6041 88.8945 80.7954 88.8945 80.7681C88.8945 80.7408 89.8512 80.4948 91.054 80.2214C92.2567 79.9481 93.2407 79.7567 93.2407 79.7841Z" fill="#263238"/>
<path d="M112.762 73.6458C112.762 73.6732 110.384 74.2199 107.459 74.8759C104.534 75.5319 102.129 76.0239 102.129 75.9966C102.129 75.9693 104.507 75.4226 107.432 74.7665C110.357 74.1105 112.762 73.6185 112.762 73.6458Z" fill="#263238"/>
<path d="M110.22 80.8247C110.22 80.8247 110.247 80.7427 110.274 80.606C110.302 80.4693 110.302 80.2506 110.247 79.9773C110.165 79.704 110.028 79.4033 109.864 79.0479C109.7 78.6926 109.482 78.2552 109.482 77.7359C109.482 77.2165 109.7 76.6698 110.165 76.2598C110.63 75.8498 111.34 75.7131 111.969 75.9318C112.297 76.0411 112.598 76.2325 112.844 76.5058C112.953 76.6425 113.035 76.8338 113.062 77.0252C113.09 77.2165 112.926 77.4352 112.734 77.4899C112.543 77.5719 112.379 77.5719 112.188 77.6265C111.996 77.6539 111.832 77.7085 111.641 77.7359C111.286 77.8179 110.903 77.8725 110.52 77.9272C109.755 78.0366 108.99 78.0366 108.279 77.9272C107.924 77.8999 107.568 77.8725 107.295 78.0912C107.021 78.2826 106.912 78.6106 106.693 78.8839C106.584 79.0206 106.475 79.1573 106.311 79.2119C106.147 79.2939 105.955 79.2939 105.819 79.2393C105.491 79.1299 105.272 78.9113 105.026 78.7746C104.889 78.6926 104.78 78.6379 104.643 78.6379C104.507 78.6379 104.37 78.6652 104.288 78.7199C104.069 78.8566 103.96 79.1299 103.823 79.3213C103.55 79.7586 103.058 79.9773 102.675 79.9773C102.265 80.0046 101.937 79.8133 101.719 79.6493C101.5 79.4579 101.391 79.2666 101.336 79.1299C101.281 78.9933 101.281 78.9113 101.281 78.9113C101.281 78.9113 101.309 78.9933 101.363 79.1299C101.418 79.2666 101.527 79.4579 101.746 79.6219C101.965 79.786 102.265 79.95 102.675 79.9226C103.058 79.8953 103.495 79.704 103.769 79.2666C103.905 79.0753 104.015 78.8019 104.261 78.6379C104.37 78.5559 104.534 78.5012 104.698 78.5286C104.862 78.5559 104.999 78.6106 105.108 78.6926C105.381 78.8292 105.6 79.0479 105.901 79.1299C106.037 79.1846 106.201 79.1846 106.338 79.1026C106.475 79.0479 106.584 78.9386 106.666 78.8019C106.857 78.5286 106.994 78.2006 107.267 77.9819C107.404 77.8725 107.596 77.8179 107.787 77.7905C107.978 77.7632 108.142 77.7905 108.334 77.7905C109.044 77.8999 109.782 77.8725 110.548 77.7632C110.93 77.7085 111.286 77.6539 111.668 77.5719C111.86 77.5445 112.024 77.4899 112.215 77.4625C112.379 77.4079 112.57 77.4079 112.734 77.3259C112.898 77.2712 113.008 77.1345 112.98 76.9705C112.98 76.8065 112.898 76.6425 112.789 76.5332C112.57 76.2871 112.27 76.0958 111.969 75.9865C111.368 75.7951 110.684 75.9045 110.247 76.2871C109.81 76.6698 109.591 77.1892 109.564 77.6812C109.564 78.1732 109.755 78.5832 109.919 78.9659C110.083 79.3213 110.22 79.6493 110.274 79.9226C110.329 80.196 110.329 80.4146 110.274 80.5787C110.247 80.77 110.22 80.8247 110.22 80.8247Z" fill="#263238"/>
<path d="M115.875 77.3205C115.875 77.3205 115.82 77.3479 115.738 77.3752C115.629 77.4025 115.492 77.4299 115.328 77.4845C114.946 77.5666 114.426 77.7032 113.798 77.8399C112.513 78.1406 110.736 78.5507 108.768 79.0427C106.827 79.5348 105.05 80.0268 103.765 80.3549C103.136 80.5189 102.617 80.6556 102.262 80.7649C102.098 80.8196 101.961 80.8469 101.852 80.8743C101.77 80.9016 101.715 80.9016 101.715 80.9016C101.715 80.9016 101.77 80.8743 101.852 80.8469C101.961 80.8196 102.098 80.7649 102.262 80.7102C102.617 80.6009 103.136 80.4369 103.765 80.2729C105.023 79.8902 106.799 79.4254 108.74 78.906C110.709 78.414 112.485 78.0039 113.77 77.7306C114.426 77.5939 114.946 77.4846 115.301 77.4025C115.465 77.3752 115.602 77.3479 115.711 77.3205C115.82 77.3205 115.875 77.3205 115.875 77.3205Z" fill="#263238"/>
<path d="M93.4668 17.3576L72.2285 22.0901L73.1144 26.0656L94.3526 21.3331L93.4668 17.3576Z" fill="#E0E0E0"/>
<path d="M113.529 82.0925L120.39 118.338L126.65 106.748L138.54 113.719L125.939 78.4297L113.529 82.0925Z" fill="#58B368"/>
<g opacity="0.3">
<path d="M115.849 94.278C117.107 94.5513 118.61 94.0866 119.485 93.1572C120.114 92.5012 120.524 91.6265 121.316 91.1892C122.027 90.8065 122.902 90.8611 123.667 91.0798C124.432 91.2985 125.17 91.6538 125.963 91.8452C127.494 92.2552 129.189 91.9819 130.528 91.1618L128.56 85.6676L119.375 84.5195L115.002 89.7678L115.849 94.278Z" fill="black"/>
</g>
<path d="M126.21 105.295C126.182 105.295 125.144 101.55 123.941 96.9034C122.711 92.2565 121.754 88.4844 121.809 88.457C121.836 88.457 122.875 92.2019 124.078 96.8761C125.28 101.523 126.237 105.295 126.21 105.295Z" fill="#263238"/>
<path d="M114.531 83.9597L107.67 120.205L101.41 108.615L89.5195 115.586L102.121 80.2969L114.531 83.9597Z" fill="#58B368"/>
<g opacity="0.3">
<path d="M98.3516 90.8652C98.3516 90.8652 100.292 92.478 102.643 91.74C104.967 91.0019 106.415 90.8379 107.673 91.74C108.93 92.642 112.347 95.5668 112.347 95.5668L113.14 91.3846L108.575 85.0977L103.791 86.0544L100.374 86.3824L99.1169 88.7878L98.3516 90.8652Z" fill="black"/>
</g>
<path d="M154.746 51.252C154.746 53.8488 151.411 56.0902 150.947 58.5503C150.455 61.0925 152.641 64.4273 151.685 66.7507C150.701 69.1288 146.765 69.9215 145.37 72.0263C143.949 74.1584 144.714 78.0946 142.91 79.8713C141.106 81.6754 137.17 80.91 135.065 82.3314C132.961 83.7528 132.168 87.6616 129.79 88.6457C127.466 89.6024 124.132 87.4156 121.589 87.9077C119.129 88.3997 116.888 91.7072 114.291 91.7072C111.694 91.7072 109.453 88.3723 106.993 87.9077C104.451 87.4156 101.116 89.6024 98.7924 88.6457C96.4143 87.6616 95.6216 83.7255 93.5168 82.3314C91.3847 80.91 87.4485 81.6754 85.6718 79.8713C83.8677 78.0672 84.6331 74.131 83.2117 72.0263C81.7903 69.9215 77.8815 69.1288 76.8974 66.7507C75.9407 64.4273 78.1275 61.0925 77.6354 58.5503C77.1434 56.0902 73.8359 53.8488 73.8359 51.252C73.8359 48.6552 77.1708 46.4138 77.6354 43.9537C78.1275 41.4116 75.9407 38.0768 76.8974 35.7533C77.8815 33.3752 81.8176 32.5825 83.2117 30.4778C84.6331 28.3457 83.8677 24.4095 85.6718 22.6327C87.4759 20.8287 91.4121 21.594 93.5168 20.1726C95.6216 18.7512 96.4143 14.8424 98.7924 13.8583C101.116 12.9016 104.451 15.0884 106.993 14.5964C109.453 14.1044 111.694 10.7969 114.291 10.7969C116.888 10.7969 119.129 14.1317 121.589 14.5964C124.132 15.0884 127.466 12.9016 129.79 13.8583C132.168 14.8424 132.961 18.7786 135.065 20.1726C137.197 21.594 141.134 20.8287 142.91 22.6327C144.714 24.4368 143.949 28.373 145.37 30.4778C146.792 32.5825 150.701 33.3752 151.685 35.7533C152.641 38.0768 150.455 41.4116 150.947 43.9537C151.411 46.4138 154.746 48.6552 154.746 51.252Z" fill="#58B368"/>
<path d="M104.803 28.5701C104.803 28.5701 104.776 28.5428 104.721 28.4607C104.666 28.3787 104.612 28.2694 104.53 28.1327C104.366 27.8321 104.147 27.422 103.874 26.8753C103.354 25.8093 102.671 24.3332 102.015 22.6385C101.359 20.9438 100.84 19.3857 100.512 18.265C100.348 17.691 100.211 17.2263 100.129 16.8983C100.102 16.7616 100.074 16.6249 100.047 16.5156C100.02 16.4336 100.02 16.3789 100.02 16.3789C100.02 16.3789 100.047 16.4336 100.074 16.5156C100.102 16.6249 100.156 16.7343 100.184 16.8709C100.293 17.1989 100.43 17.6636 100.594 18.2103C100.949 19.331 101.468 20.8891 102.124 22.5838C102.78 24.2786 103.436 25.7546 103.956 26.8207C104.202 27.34 104.42 27.7774 104.557 28.0781C104.612 28.2147 104.666 28.3241 104.721 28.4334C104.776 28.5427 104.803 28.5701 104.803 28.5701Z" fill="#263238"/>
<path d="M108.383 27.2004C108.383 27.2004 108.329 27.0911 108.274 26.8997C108.219 26.7084 108.137 26.4077 108.055 26.0524C107.864 25.3417 107.645 24.3576 107.454 23.2643C107.263 22.1709 107.099 21.1595 107.017 20.4215C106.962 20.0661 106.935 19.7654 106.935 19.5468C106.907 19.3554 106.907 19.2188 106.935 19.2188C106.935 19.2188 106.962 19.3281 106.989 19.5194C107.017 19.7381 107.071 20.0388 107.126 20.3668C107.235 21.0775 107.399 22.0889 107.591 23.1822C107.782 24.2756 108.001 25.2597 108.165 25.9704C108.247 26.2984 108.301 26.5991 108.356 26.8177C108.383 27.0911 108.411 27.2004 108.383 27.2004Z" fill="#263238"/>
<path d="M114.758 26.5745C114.731 26.5745 114.622 23.5128 114.54 19.713C114.458 15.9406 114.403 12.8516 114.458 12.8516C114.485 12.8516 114.594 15.9132 114.676 19.713C114.758 23.5128 114.786 26.5745 114.758 26.5745Z" fill="#263238"/>
<path d="M121.145 20.2816C121.172 20.2816 120.735 21.8397 120.161 23.6984C119.587 25.5845 119.068 27.0879 119.04 27.0879C119.013 27.0879 119.45 25.5298 120.024 23.6711C120.598 21.785 121.118 20.2543 121.145 20.2816Z" fill="#263238"/>
<path d="M123.75 28.1834C123.75 28.1834 123.75 28.1287 123.777 28.0467C123.805 27.9374 123.859 27.828 123.914 27.6914C124.023 27.3907 124.187 26.926 124.406 26.3793C124.843 25.2859 125.445 23.7552 126.155 22.0878C126.866 20.4204 127.495 18.917 127.987 17.8236C128.233 17.3043 128.424 16.8669 128.561 16.5389C128.616 16.4022 128.67 16.2929 128.725 16.1836C128.752 16.1016 128.78 16.0742 128.78 16.0742C128.78 16.0742 128.78 16.1289 128.752 16.2109C128.725 16.3202 128.67 16.4296 128.616 16.5662C128.479 16.8943 128.288 17.3316 128.069 17.851C127.604 18.9717 126.975 20.4477 126.292 22.1151C125.609 23.7825 124.98 25.2859 124.515 26.3793C124.297 26.8987 124.105 27.336 123.969 27.664C123.914 27.8007 123.859 27.91 123.832 28.0194C123.777 28.1561 123.777 28.2107 123.75 28.1834Z" fill="#263238"/>
<path d="M127.164 29.9822C127.164 29.9822 127.219 29.8729 127.328 29.7089C127.437 29.5449 127.601 29.2989 127.793 28.9708C128.203 28.3695 128.804 27.5494 129.487 26.6474C130.171 25.7727 130.827 25.0073 131.319 24.4607C131.565 24.1873 131.756 23.9686 131.92 23.832C132.057 23.6953 132.139 23.6133 132.139 23.6133C132.139 23.6133 132.084 23.7226 131.948 23.8593C131.811 24.0506 131.62 24.2693 131.401 24.5153C130.936 25.0893 130.28 25.8547 129.597 26.7294C128.913 27.6041 128.312 28.4242 127.875 28.9982C127.683 29.2715 127.492 29.5175 127.355 29.7089C127.246 29.9002 127.191 29.9822 127.164 29.9822Z" fill="#263238"/>
<path d="M132.141 34.0636C132.114 34.0363 134.273 31.9862 136.979 29.4714C139.685 26.9566 141.872 24.9612 141.899 24.9886C141.927 25.0159 139.767 27.066 137.061 29.5808C134.382 32.0682 132.168 34.0909 132.141 34.0636Z" fill="#263238"/>
<path d="M140.832 34.9057C140.832 34.933 140.531 35.0971 140.012 35.3431C139.493 35.6164 138.809 35.9991 138.017 36.4364C137.251 36.8738 136.541 37.2565 136.021 37.5025C135.748 37.6118 135.556 37.7212 135.392 37.7758C135.228 37.8305 135.146 37.8578 135.146 37.8578C135.146 37.8305 135.447 37.6665 135.967 37.4205C136.486 37.1471 137.169 36.7645 137.962 36.3271C138.727 35.8897 139.438 35.5071 139.957 35.2611C140.231 35.1517 140.422 35.0424 140.586 34.9877C140.75 34.933 140.832 34.8784 140.832 34.9057Z" fill="#263238"/>
<path d="M148.867 38.2445C148.867 38.2719 146.298 39.2286 143.127 40.3493C139.929 41.47 137.332 42.3447 137.332 42.3174C137.332 42.2901 139.901 41.3333 143.072 40.2126C146.243 39.0919 148.84 38.1899 148.867 38.2445Z" fill="#263238"/>
<path d="M151.408 52.8378C151.408 52.8652 148.62 52.6465 145.148 52.3185C141.704 51.9905 138.916 51.6898 138.916 51.6625C138.916 51.6351 141.704 51.8538 145.176 52.1818C148.62 52.5098 151.435 52.8105 151.408 52.8378Z" fill="#263238"/>
<path d="M149.361 65.9556C149.334 65.983 146.737 64.7802 143.512 63.2768C140.314 61.7734 137.717 60.4887 137.717 60.4614C137.744 60.4341 140.341 61.6368 143.566 63.1402C146.792 64.6709 149.389 65.9283 149.361 65.9556Z" fill="#263238"/>
<path d="M140.753 78.4188C140.726 78.4461 138.84 76.2594 136.544 73.5259C134.248 70.7925 132.416 68.5784 132.444 68.551C132.471 68.5237 134.357 70.7105 136.653 73.4439C138.949 76.1774 140.808 78.3914 140.753 78.4188Z" fill="#263238"/>
<path d="M133.588 80.0948C133.588 80.0948 133.506 79.9855 133.37 79.7941C133.233 79.6028 133.042 79.3021 132.796 78.9194C132.331 78.1814 131.675 77.1427 131.019 75.9946C130.335 74.8193 129.761 73.7532 129.379 72.9878C129.187 72.6052 129.023 72.2772 128.914 72.0585C128.805 71.8398 128.75 71.7031 128.75 71.7031C128.75 71.7031 128.832 71.8125 128.941 72.0311C129.078 72.2772 129.242 72.5778 129.461 72.9332C129.898 73.6985 130.472 74.7646 131.155 75.9126C131.839 77.0607 132.44 78.1267 132.905 78.8648C133.124 79.2201 133.288 79.5208 133.452 79.7668C133.534 79.9581 133.588 80.0675 133.588 80.0948Z" fill="#263238"/>
<path d="M129.104 86.3513C129.104 86.3513 129.077 86.324 129.022 86.242C128.967 86.16 128.913 86.0507 128.831 85.914C128.667 85.6133 128.475 85.2033 128.202 84.6566C127.71 83.5906 127.054 82.0872 126.425 80.4198C125.824 78.725 125.359 77.167 125.058 76.0462C124.922 75.4722 124.785 75.0075 124.73 74.6795C124.703 74.5428 124.676 74.4062 124.648 74.2968C124.621 74.2148 124.621 74.1602 124.621 74.1602C124.621 74.1602 124.648 74.2148 124.676 74.2968C124.703 74.4062 124.73 74.5155 124.785 74.6522C124.867 74.9802 125.004 75.4449 125.168 75.9916C125.496 77.1123 125.96 78.6703 126.589 80.3651C127.191 82.0598 127.847 83.5359 128.311 84.6019C128.557 85.1213 128.749 85.5586 128.885 85.8593C128.94 85.996 128.995 86.1053 129.049 86.2147C129.104 86.2967 129.131 86.3513 129.104 86.3513Z" fill="#263238"/>
<path d="M120.079 81.9431C120.052 81.9431 120.024 81.5878 119.97 80.9864C119.915 80.3851 119.806 79.5924 119.669 78.6903C119.532 77.7883 119.341 76.9956 119.232 76.4216C119.095 75.8475 119.013 75.4922 119.04 75.4922C119.04 75.4922 119.095 75.5742 119.122 75.7382C119.177 75.9022 119.232 76.1209 119.314 76.4216C119.478 76.9956 119.669 77.7883 119.806 78.6903C119.942 79.5924 120.052 80.4124 120.079 80.9864C120.106 81.2871 120.106 81.5331 120.106 81.6971C120.079 81.8611 120.079 81.9431 120.079 81.9431Z" fill="#263238"/>
<path d="M114.182 89.8206C114.182 89.8206 114.182 89.7659 114.182 89.6839C114.182 89.5745 114.182 89.4378 114.182 89.2738C114.182 88.9185 114.182 88.4264 114.182 87.7977C114.209 86.5402 114.264 84.818 114.373 82.9318C114.482 81.0182 114.592 79.3233 114.701 78.0659C114.756 77.4371 114.81 76.9451 114.838 76.5897C114.865 76.4257 114.865 76.289 114.892 76.1797C114.892 76.0976 114.92 76.043 114.92 76.043C114.92 76.043 114.92 76.0976 114.92 76.1797C114.92 76.289 114.92 76.4257 114.892 76.5897C114.865 76.9724 114.838 77.4645 114.81 78.0659C114.728 79.3233 114.646 81.0455 114.537 82.9318C114.428 84.8453 114.373 86.5402 114.318 87.7977C114.291 88.3991 114.264 88.8911 114.264 89.2738C114.264 89.4378 114.236 89.5745 114.236 89.6839C114.182 89.7659 114.182 89.8206 114.182 89.8206Z" fill="#263238"/>
<path d="M109.372 76.043C109.399 76.043 109.372 76.3163 109.29 76.7537C109.208 77.191 109.098 77.765 108.962 78.4211C108.798 79.0771 108.661 79.6511 108.524 80.0611C108.388 80.4711 108.306 80.7172 108.278 80.7172C108.251 80.7172 108.306 80.4438 108.415 80.0338C108.524 79.5691 108.661 78.9951 108.798 78.3937C108.934 77.765 109.071 77.2183 109.18 76.7537C109.29 76.3163 109.344 76.043 109.372 76.043Z" fill="#263238"/>
<path d="M100.676 71.8953C100.703 71.9226 100.184 72.688 99.4732 73.59C98.7899 74.4921 98.1885 75.2301 98.1612 75.2028C98.1339 75.1754 98.6532 74.4101 99.3639 73.508C100.047 72.5787 100.649 71.868 100.676 71.8953Z" fill="#263238"/>
<path d="M96.1129 68.8284C96.1403 68.8557 94.4455 70.8512 92.3135 73.2839C90.1814 75.7167 88.4593 77.6575 88.4046 77.6301C88.3773 77.6028 90.072 75.6074 92.2041 73.1746C94.3362 70.7418 96.0856 68.8011 96.1129 68.8284Z" fill="#263238"/>
<path d="M93.8429 65.4363C93.8702 65.4636 92.9135 66.2836 91.7381 67.2677C90.5354 68.2517 89.5514 69.0171 89.5514 68.9897C89.524 68.9624 90.4807 68.1424 91.6561 67.1583C92.8315 66.1743 93.8155 65.3816 93.8429 65.4363Z" fill="#263238"/>
<path d="M91.1666 60.2974C91.1939 60.3247 88.8158 61.5001 85.891 62.9215C82.9662 64.3429 80.5608 65.4636 80.5608 65.4089C80.5334 65.3816 82.9115 64.2062 85.8363 62.7848C88.7611 61.3907 91.1392 60.27 91.1666 60.2974Z" fill="#263238"/>
<path d="M90.0974 57.761C90.0974 57.761 90.0154 57.7884 89.8514 57.843C89.6874 57.8704 89.4687 57.925 89.1681 57.9797C88.594 58.089 87.8013 58.1984 86.8993 58.3077C85.9973 58.3897 85.2046 58.4444 84.6032 58.4444C84.3025 58.4444 84.0838 58.4444 83.9198 58.4444C83.7558 58.4444 83.6738 58.4444 83.6738 58.417C83.6738 58.3897 84.0292 58.3897 84.6305 58.335C85.2046 58.3077 86.0246 58.253 86.8993 58.1437C87.774 58.0617 88.594 57.9524 89.1681 57.8704C89.7147 57.7883 90.0974 57.7337 90.0974 57.761Z" fill="#263238"/>
<path d="M89.2244 51.8788C89.2244 51.8788 89.0604 51.8788 88.7597 51.8788C88.4317 51.8515 87.9943 51.8515 87.4477 51.8241C86.3543 51.7695 84.8235 51.7148 83.1561 51.7421C81.4887 51.7421 79.958 51.8241 78.8646 51.8788C78.3453 51.9061 77.9079 51.9335 77.5526 51.9608C77.2519 51.9881 77.0879 51.9881 77.0879 51.9881C77.0879 51.9881 77.2519 51.9608 77.5526 51.9061C77.8533 51.8788 78.2906 51.8241 78.8373 51.7695C79.9307 51.6875 81.4614 51.6055 83.1288 51.5781C84.7962 51.5781 86.3269 51.6328 87.4203 51.7148C87.967 51.7421 88.4044 51.7968 88.7324 51.8241C89.0604 51.8241 89.2244 51.8515 89.2244 51.8788Z" fill="#263238"/>
<path d="M89.7691 46.688C89.7691 46.7153 87.9924 46.2779 85.8056 45.6493C83.6462 45.0479 81.8695 44.5285 81.8968 44.4739C81.8968 44.4465 83.6735 44.8839 85.8603 45.5126C88.0197 46.1413 89.7691 46.6606 89.7691 46.688Z" fill="#263238"/>
<path d="M90.9179 42.3692C90.9179 42.3692 90.8633 42.3692 90.7813 42.3418C90.6719 42.3145 90.5626 42.2872 90.4259 42.2325C90.1253 42.1232 89.6606 41.9865 89.1139 41.7951C88.0205 41.3851 86.5171 40.7838 84.9044 39.9911C83.2916 39.1984 81.8976 38.3783 80.9135 37.7496C80.4215 37.4216 80.0115 37.1756 79.7655 36.9843C79.6561 36.9023 79.5468 36.8203 79.4648 36.7656C79.3828 36.7109 79.3555 36.6836 79.3555 36.6836C79.3555 36.6836 79.4101 36.7109 79.4648 36.7383C79.5468 36.7929 79.6561 36.8476 79.7928 36.9296C80.0662 37.0936 80.4762 37.367 80.9682 37.6676C81.9796 38.269 83.3736 39.089 84.9864 39.8544C86.5991 40.6471 88.0752 41.2758 89.1685 41.6858C89.7152 41.9045 90.1526 42.0685 90.4533 42.1778C90.5899 42.2325 90.6993 42.2872 90.8086 42.3145C90.8633 42.3418 90.9179 42.3692 90.9179 42.3692Z" fill="#263238"/>
<path d="M93.4905 37.9991C93.4632 38.0265 92.0965 37.0971 90.4017 35.9217C88.707 34.7463 87.3676 33.735 87.3949 33.7076C87.4223 33.6803 88.789 34.6097 90.4837 35.785C92.1511 36.9878 93.5179 37.9718 93.4905 37.9991Z" fill="#263238"/>
<path d="M88.0488 24.7109C88.0488 24.7109 88.0762 24.7383 88.1582 24.7929C88.2402 24.8476 88.3222 24.9296 88.4315 25.039C88.6775 25.2576 89.0329 25.5583 89.4429 25.941C90.3176 26.7064 91.4656 27.7451 92.7504 28.8931C94.0351 30.0412 95.2105 31.0799 96.0852 31.8452C96.4952 32.2006 96.8232 32.5013 97.0965 32.7473C97.2059 32.8566 97.2879 32.9386 97.3699 32.9933C97.4246 33.048 97.4519 33.0753 97.4519 33.0753C97.4519 33.0753 97.4246 33.048 97.3426 32.9933C97.2605 32.9386 97.1785 32.8566 97.0692 32.7746C96.8232 32.5833 96.4679 32.2826 96.0305 31.9272C95.1558 31.1892 93.9804 30.1778 92.6684 29.0298C91.3836 27.8817 90.2083 26.8157 89.3882 26.0503C88.9782 25.6676 88.6502 25.3396 88.4042 25.121C88.2948 25.0116 88.2128 24.9296 88.1308 24.8749C88.0762 24.7656 88.0488 24.7109 88.0488 24.7109Z" fill="#263238"/>
<path d="M96.5785 24.9609C96.5785 24.9609 96.6605 25.0156 96.7698 25.1523C96.8791 25.289 97.0431 25.4803 97.2345 25.699C97.6172 26.1637 98.1092 26.847 98.6559 27.6124C99.1752 28.3777 99.6126 29.0884 99.9133 29.6078C100.077 29.8811 100.187 30.0998 100.269 30.2365C100.351 30.4005 100.378 30.4825 100.378 30.4825C100.351 30.4825 100.159 30.1818 99.8313 29.6625C99.5033 29.1431 99.0386 28.4598 98.5192 27.6944C97.9999 26.929 97.5078 26.2457 97.1525 25.7536C96.7698 25.2889 96.5511 24.9883 96.5785 24.9609Z" fill="#263238"/>
<g opacity="0.2">
<path d="M85.6426 22.6359L97.5331 33.0503L100.485 30.6722L93.5969 20.0938C93.5969 20.0938 93.0776 20.4764 91.6835 20.8865C90.3441 21.2691 86.4353 21.3785 85.6426 22.6359Z" fill="black"/>
</g>
<g opacity="0.2">
<path d="M98.875 13.829L104.67 28.371L108.387 27.1956L107.157 14.5944C107.157 14.5944 106.529 14.731 105.107 14.567C103.741 14.403 100.406 13.091 98.875 13.829Z" fill="black"/>
</g>
<g opacity="0.3">
<path d="M114.373 10.7987L114.756 26.5707L118.227 26.7347L121.753 14.6255C121.699 14.6255 120.769 14.4615 119.703 13.7782C118.501 13.0128 116.04 10.662 114.373 10.7987Z" fill="black"/>
</g>
<g opacity="0.2">
<path d="M129.541 13.7734L123.773 28.3154L126.917 29.8188L134.871 20.0057C134.817 19.9784 134.051 19.3497 133.368 18.229C132.575 17.0262 131.29 14.2655 129.541 13.7734Z" fill="black"/>
</g>
<g opacity="0.2">
<path d="M143.075 22.8516L132.332 34.0587L134.737 37.2842L145.234 30.2866C145.234 30.2866 144.797 29.5759 144.551 28.2365C144.277 26.8697 144.25 24.3823 143.075 22.8516Z" fill="black"/>
</g>
<g opacity="0.2">
<path d="M151.573 35.5117L137.113 41.4707L138.316 45.1608L150.917 43.7941C150.917 43.7941 150.835 43.4114 150.999 41.99C151.136 40.596 152.585 37.5345 151.573 35.5117Z" fill="black"/>
</g>
<g opacity="0.2">
<path d="M154.77 51.25L138.998 51.7967L138.861 55.2682L150.889 58.7943C150.889 58.7397 150.998 58.0563 151.353 57.3456C152.255 55.7055 154.77 53.3274 154.77 51.25Z" fill="black"/>
</g>
<g opacity="0.2">
<path d="M151.874 66.1739L137.359 60.5156L135.883 63.6591L145.778 71.5041C145.805 71.4495 146.379 70.9028 147.5 70.1921C148.675 69.454 151.518 68.1966 151.874 66.1739Z" fill="black"/>
</g>
<g opacity="0.2">
<path d="M130.499 65.957L126.891 68.9638C127.164 69.2372 131.948 77.3829 134.9 82.4398C134.927 82.4124 134.982 82.3851 135.009 82.3578C136.95 81.0457 140.421 81.5651 142.362 80.2803L130.499 65.957Z" fill="black"/>
<path d="M123.883 71.6758L118.525 73.5072L121.068 88.0765C121.232 88.0218 121.396 87.9672 121.56 87.9398C124.102 87.4478 127.436 89.6346 129.76 88.6779C130.088 88.5412 130.361 88.3499 130.635 88.1312L123.883 71.6758Z" fill="black"/>
<path d="M114.07 91.7432L114.917 72.691L110.27 71.5156L106.826 87.9164C106.881 87.9164 106.908 87.9164 106.963 87.9437C109.368 88.4084 111.555 91.5792 114.07 91.7432Z" fill="black"/>
<path d="M102.399 69.457C102.399 69.457 96.2763 77.6847 93.0508 82.0856C93.1875 82.1676 93.3515 82.2496 93.4881 82.3316C95.5929 83.753 96.3856 87.6618 98.7637 88.6459C98.873 88.7006 98.9824 88.7279 99.0917 88.7552L107.647 72.5458L102.399 69.457Z" fill="black"/>
<path d="M96.1128 62.8438L83.0195 71.8368C83.0742 71.8915 83.1289 71.9735 83.1562 72.0282C84.5776 74.1603 83.8122 78.0964 85.6163 79.8732C85.7803 80.0372 85.9717 80.1739 86.163 80.3105C90.7825 75.0896 99.0923 65.7412 99.3929 65.4132L96.1128 62.8438Z" fill="black"/>
<path d="M93.1069 56.418L77.6356 58.9054C77.8816 61.3929 75.9135 64.509 76.8429 66.7504C76.8975 66.8871 76.9795 67.0238 77.0342 67.1331C82.4465 64.427 93.763 58.8234 94.2276 58.7961L93.1069 56.418Z" fill="black"/>
<path d="M92.2594 47.8111L77.6354 43.6016C77.6354 43.7382 77.6081 43.8476 77.5808 43.9842C77.0887 46.4444 73.7812 48.6858 73.7812 51.2826C73.7812 51.4466 73.8086 51.6379 73.8359 51.8019H91.6854L92.2594 47.8111Z" fill="black"/>
<path d="M76.9238 35.6466C82.3907 38.5714 93.0786 44.503 93.0786 44.503L95.7027 39.5008L83.3475 30.207C83.2928 30.3164 83.2381 30.3984 83.1834 30.4804C81.7894 32.5578 77.9899 33.3778 76.9238 35.6466Z" fill="black"/>
</g>
<path d="M154.746 51.2535C154.746 51.2535 154.746 51.1988 154.719 51.0895C154.692 50.9802 154.719 50.7888 154.637 50.5701C154.555 50.1328 154.309 49.4768 153.817 48.7387C153.352 47.9734 152.641 47.1533 151.903 46.0599C151.548 45.5133 151.165 44.9119 150.974 44.1739C150.783 43.4358 150.81 42.6158 150.974 41.7958C151.138 40.9757 151.384 40.101 151.603 39.199C151.794 38.2969 152.013 37.3129 151.821 36.3015C151.712 35.8095 151.466 35.3175 151.138 34.9074C150.81 34.4974 150.373 34.1421 149.935 33.8414C149.033 33.1854 147.995 32.6933 146.983 32.01C146.491 31.682 145.999 31.2993 145.589 30.8073C145.179 30.3426 144.906 29.7412 144.742 29.1125C144.386 27.8825 144.304 26.5431 144.058 25.2037C143.922 24.5476 143.73 23.8643 143.375 23.2629C143.02 22.6616 142.473 22.1969 141.817 21.9235C141.161 21.6228 140.45 21.4862 139.74 21.3768C139.002 21.2675 138.264 21.1855 137.525 21.0488C136.787 20.9122 136.022 20.7481 135.339 20.3655C134.655 19.9828 134.109 19.3814 133.644 18.7254C133.179 18.0694 132.797 17.386 132.387 16.6753C131.977 15.9919 131.539 15.2812 130.965 14.7072C130.391 14.1332 129.653 13.6958 128.806 13.6412C127.986 13.5865 127.138 13.7505 126.318 13.9418C125.498 14.1332 124.651 14.3792 123.804 14.5432C122.956 14.7072 122.027 14.7619 121.152 14.4885C120.305 14.1878 119.539 13.6685 118.829 13.1491C118.091 12.6024 117.38 12.0558 116.615 11.5637C115.849 11.099 114.947 10.7164 114.045 10.8257H113.881C113.826 10.8257 113.772 10.853 113.717 10.853C113.608 10.8804 113.498 10.9077 113.389 10.935C113.17 11.017 112.952 11.0717 112.733 11.181C112.296 11.3724 111.913 11.6184 111.53 11.8917C110.765 12.4111 110.027 13.0398 109.234 13.5865C108.852 13.8598 108.414 14.1058 107.977 14.3245C107.539 14.5159 107.047 14.6525 106.555 14.6799C105.571 14.7345 104.587 14.5159 103.631 14.2699C102.674 14.0238 101.717 13.7505 100.733 13.6685C100.241 13.6138 99.7491 13.6412 99.2571 13.7778C98.7651 13.8872 98.355 14.1605 97.9724 14.4885C97.207 15.1446 96.6876 16.0193 96.1683 16.894C95.6489 17.7687 95.1569 18.6707 94.4462 19.4634C94.0909 19.8461 93.6808 20.2015 93.2162 20.4475C92.7515 20.6935 92.2321 20.8301 91.7128 20.9668C90.674 21.1855 89.6353 21.2948 88.5966 21.4862C87.5852 21.6775 86.5192 21.9509 85.7538 22.6889C85.3985 23.0716 85.1251 23.5363 84.9338 24.0283C84.7424 24.5203 84.6331 25.0397 84.5238 25.5864C84.3324 26.6524 84.2504 27.7185 83.9771 28.7845C83.8677 29.3039 83.6764 29.8505 83.403 30.3152C83.1297 30.8073 82.747 31.2173 82.3097 31.5453C81.435 32.2287 80.4509 32.748 79.5215 33.322C79.0568 33.6227 78.5922 33.9234 78.1548 34.2514C77.7448 34.6068 77.3621 35.0168 77.0888 35.4815C76.8154 35.9462 76.7061 36.4929 76.7061 37.0669C76.7061 37.6136 76.7881 38.1603 76.8974 38.707C77.1161 39.8003 77.4714 40.8664 77.6628 41.9871C77.7721 42.5338 77.7995 43.1351 77.7175 43.7092C77.6355 44.2832 77.4168 44.8299 77.1434 45.3219C76.5694 46.3333 75.8314 47.208 75.1753 48.1374C74.8473 48.6021 74.5466 49.0941 74.3006 49.5861C74.0546 50.1055 73.8906 50.6521 73.8906 51.2262C73.8906 51.8002 74.0546 52.3469 74.3006 52.8662C74.5466 53.3856 74.8473 53.8503 75.1753 54.315C75.8314 55.2444 76.5694 56.1191 77.1434 57.1304C77.4168 57.6225 77.6355 58.1692 77.7175 58.7432C77.7995 59.3172 77.7721 59.8912 77.6628 60.4653C77.4714 61.586 77.1434 62.6794 76.8974 63.7454C76.7881 64.2921 76.7061 64.8388 76.7061 65.3855C76.7061 65.9322 76.8154 66.4789 77.0888 66.9709C77.3348 67.4629 77.7175 67.8456 78.1548 68.2009C78.5922 68.5563 79.0295 68.857 79.5215 69.1303C80.4509 69.7043 81.435 70.2237 82.3097 70.9071C82.747 71.2624 83.1297 71.6724 83.403 72.1371C83.6764 72.6291 83.8677 73.1485 83.9771 73.6679C84.2231 74.7339 84.3324 75.8273 84.5238 76.866C84.6331 77.3854 84.7424 77.9047 84.9338 78.4241C85.1251 78.9161 85.3711 79.3808 85.7538 79.7635C86.5192 80.5015 87.5852 80.8022 88.5966 80.9662C89.6353 81.1575 90.674 81.2395 91.7128 81.4855C92.2321 81.5949 92.7241 81.7589 93.2162 82.0049C93.6808 82.2509 94.0909 82.6063 94.4462 82.9889C95.1296 83.7816 95.6489 84.6837 96.1683 85.5584C96.6876 86.4331 97.207 87.3078 97.9724 87.9638C98.355 88.2918 98.7651 88.5652 99.2571 88.6745C99.7218 88.7839 100.241 88.8112 100.733 88.7839C101.717 88.7019 102.674 88.4012 103.631 88.1825C104.587 87.9365 105.544 87.7178 106.555 87.7725C107.047 87.7998 107.539 87.9365 107.977 88.1278C108.414 88.3465 108.852 88.5925 109.234 88.8659C110.027 89.4126 110.765 90.0139 111.558 90.5606C111.94 90.8066 112.35 91.08 112.76 91.2713C112.979 91.3806 113.198 91.4353 113.416 91.5173C113.526 91.5447 113.635 91.572 113.744 91.5993C113.799 91.5993 113.854 91.6267 113.908 91.6267H114.072C115.002 91.736 115.877 91.3533 116.642 90.8886C117.435 90.4239 118.145 89.8499 118.856 89.3032C119.594 88.7839 120.332 88.2645 121.179 87.9638C122.054 87.6905 122.956 87.7452 123.831 87.9092C124.706 88.0732 125.526 88.3192 126.346 88.5105C127.166 88.7019 128.013 88.8659 128.833 88.8112C129.653 88.7565 130.418 88.3465 130.993 87.7452C131.567 87.1438 132.004 86.4604 132.414 85.7771C132.824 85.0937 133.207 84.383 133.671 83.727C134.136 83.0709 134.655 82.4696 135.366 82.0869C136.049 81.7042 136.815 81.5402 137.553 81.4035C138.291 81.2669 139.029 81.1849 139.767 81.0755C140.478 80.9662 141.216 80.8022 141.844 80.5288C142.5 80.2555 143.047 79.7908 143.402 79.1894C143.758 78.5881 143.949 77.932 144.086 77.2487C144.359 75.9093 144.441 74.5972 144.769 73.3398C144.96 72.7111 145.206 72.1371 145.617 71.6451C146.027 71.1531 146.519 70.7977 147.011 70.4424C148.022 69.759 149.061 69.267 149.963 68.611C150.4 68.2829 150.837 67.9549 151.165 67.5449C151.493 67.1349 151.739 66.6702 151.849 66.1508C151.958 65.6588 151.931 65.1395 151.903 64.6748C151.849 64.1828 151.739 63.7181 151.657 63.2534C151.439 62.3513 151.193 61.4766 151.029 60.6566C150.865 59.8366 150.837 59.0165 151.029 58.2785C151.22 57.5405 151.603 56.9391 151.958 56.3924C152.696 55.3264 153.407 54.479 153.872 53.7136C154.364 52.9756 154.61 52.3196 154.692 51.8822C154.746 51.6635 154.746 51.4995 154.774 51.3628C154.746 51.3082 154.746 51.2535 154.746 51.2535C154.746 51.2535 154.746 51.3082 154.746 51.4175C154.746 51.5269 154.746 51.7182 154.692 51.9369C154.61 52.3742 154.364 53.0303 153.872 53.7683C153.407 54.5337 152.696 55.381 151.958 56.4471C151.603 56.9938 151.22 57.5951 151.029 58.3058C150.837 59.0165 150.865 59.8366 151.029 60.6566C151.193 61.4766 151.439 62.3513 151.657 63.2534C151.767 63.7181 151.876 64.1828 151.931 64.6748C151.985 65.1668 152.013 65.6862 151.903 66.1782C151.794 66.6975 151.548 67.1622 151.22 67.5996C150.865 68.0096 150.455 68.3649 149.99 68.693C149.088 69.349 148.022 69.8683 147.038 70.5244C146.546 70.8524 146.054 71.2351 145.671 71.6998C145.261 72.1644 145.015 72.7385 144.824 73.3672C144.468 74.5972 144.414 75.9366 144.14 77.276C144.004 77.932 143.812 78.6154 143.457 79.2441C143.102 79.8728 142.528 80.3375 141.872 80.6382C141.216 80.9388 140.478 81.0755 139.767 81.2122C139.029 81.3215 138.291 81.4309 137.553 81.5402C136.815 81.6769 136.049 81.8409 135.393 82.2236C134.71 82.5789 134.191 83.1803 133.753 83.8363C133.316 84.4923 132.906 85.1757 132.496 85.8864C132.086 86.5698 131.649 87.2805 131.075 87.8818C130.5 88.4832 129.708 88.9205 128.86 88.9752C128.013 89.0299 127.166 88.8659 126.318 88.6745C125.471 88.4832 124.651 88.2372 123.804 88.0732C122.956 87.9092 122.054 87.8545 121.234 88.1278C120.414 88.4285 119.649 88.9205 118.938 89.4672C118.2 90.0139 117.489 90.5606 116.724 91.0526C116.533 91.162 116.314 91.2986 116.123 91.3806C116.013 91.4353 115.904 91.49 115.794 91.5173L115.466 91.6267C115.029 91.7633 114.537 91.8453 114.072 91.7907L113.908 91.7633C113.854 91.7633 113.799 91.736 113.744 91.736C113.635 91.7087 113.498 91.6813 113.389 91.654C113.17 91.572 112.924 91.5173 112.733 91.408C112.296 91.2166 111.886 90.9433 111.503 90.6973C110.71 90.1506 109.972 89.5492 109.18 89.0299C108.797 88.7565 108.359 88.5105 107.949 88.3192C107.512 88.1278 107.047 88.0185 106.583 87.9638C105.626 87.9092 104.669 88.1278 103.713 88.3738C102.756 88.6199 101.799 88.8932 100.788 88.9752C100.296 89.0299 99.7764 89.0025 99.2844 88.8659C98.7924 88.7565 98.3277 88.4558 97.945 88.1278C97.1797 87.4445 96.633 86.5424 96.1136 85.6951C95.5943 84.8204 95.1022 83.9183 94.4189 83.1529C94.0635 82.7703 93.6808 82.4423 93.2162 82.1962C92.7515 81.9776 92.2594 81.8136 91.7674 81.7042C90.756 81.4855 89.7173 81.3762 88.6513 81.1849C88.1319 81.0755 87.6126 80.9662 87.0932 80.7748C86.6012 80.5835 86.1092 80.3101 85.7265 79.9275C85.3438 79.5448 85.0705 79.0528 84.8791 78.5334C84.6878 78.014 84.5784 77.4947 84.4691 76.9753C84.2778 75.9093 84.1957 74.8432 83.9224 73.7772C83.8131 73.2578 83.6217 72.7385 83.3484 72.2738C83.075 71.8091 82.7197 71.3991 82.2823 71.0711C81.435 70.3877 80.4509 69.8683 79.5215 69.2943C79.0568 68.9936 78.5922 68.693 78.1548 68.3376C77.7175 67.9823 77.3348 67.5449 77.0614 67.0529C76.7881 66.5609 76.6514 65.9868 76.6787 65.4128C76.6787 64.8388 76.7607 64.2921 76.8701 63.7454C77.1161 62.652 77.4441 61.5586 77.6355 60.4653C77.7175 59.9186 77.7721 59.3445 77.6901 58.7979C77.6081 58.2512 77.3894 57.7318 77.1434 57.2398C76.5967 56.2557 75.8314 55.381 75.1753 54.4517C74.8473 53.987 74.5193 53.4949 74.2733 52.9756C74.0273 52.4562 73.8633 51.8822 73.8633 51.2808C73.8633 50.6795 74.0546 50.1055 74.3006 49.5861C74.5466 49.0667 74.8473 48.5747 75.2027 48.11C75.8587 47.1807 76.5967 46.306 77.1708 45.3219C77.4441 44.8299 77.6628 44.3105 77.7175 43.7638C77.7995 43.2172 77.7448 42.6431 77.6628 42.0964C77.4714 40.9757 77.1434 39.9097 76.8974 38.8163C76.7881 38.2696 76.7061 37.6956 76.7061 37.1489C76.7061 36.5749 76.8154 36.0008 77.1161 35.5088C77.3894 35.0168 77.7721 34.5794 78.2095 34.2241C78.6468 33.8687 79.1115 33.5681 79.5762 33.2674C80.5329 32.6933 81.4896 32.174 82.337 31.4906C82.7743 31.1626 83.1297 30.7526 83.403 30.2879C83.6764 29.8232 83.8404 29.3039 83.9771 28.7845C84.2231 27.7458 84.3051 26.6524 84.5238 25.5864C84.6331 25.067 84.7424 24.5203 84.9338 24.0283C85.1251 23.5363 85.3985 23.0442 85.7812 22.6342C86.1638 22.2515 86.6559 21.9782 87.1479 21.7869C87.6399 21.5955 88.1866 21.4862 88.7059 21.3768C89.7447 21.1855 90.7834 21.1035 91.8221 20.8575C92.3141 20.7481 92.8335 20.5841 93.2708 20.3655C93.7355 20.1468 94.1182 19.7914 94.4735 19.4088C95.1569 18.6434 95.6489 17.7413 96.1683 16.8666C96.6876 15.9919 97.2343 15.0899 97.9997 14.4339C98.3824 14.1058 98.8471 13.8325 99.3391 13.6958C99.8311 13.5592 100.35 13.5592 100.842 13.5865C101.854 13.6958 102.811 13.9692 103.767 14.1879C104.724 14.4339 105.681 14.6525 106.637 14.5979C107.102 14.5705 107.594 14.4339 108.004 14.2425C108.442 14.0512 108.852 13.8052 109.234 13.5318C110.027 12.9851 110.765 12.3838 111.558 11.8644C111.94 11.5911 112.35 11.3451 112.788 11.1537C113.006 11.0444 113.225 10.9897 113.444 10.9077C113.553 10.8804 113.662 10.853 113.799 10.8257C113.854 10.8257 113.908 10.7984 113.963 10.7984L114.127 10.771C114.592 10.7164 115.084 10.7984 115.521 10.935L115.849 11.0444C115.959 11.099 116.068 11.1537 116.177 11.181C116.396 11.2631 116.587 11.3997 116.779 11.5091C117.571 12.0011 118.282 12.5751 118.993 13.0945C119.703 13.6138 120.469 14.1332 121.289 14.4339C122.136 14.7072 123.011 14.6525 123.858 14.4885C124.706 14.3245 125.553 14.0785 126.373 13.8872C127.193 13.6958 128.068 13.5318 128.915 13.5865C129.762 13.6412 130.555 14.0785 131.129 14.6799C131.703 15.2812 132.141 15.9919 132.551 16.6753C132.961 17.3587 133.343 18.0694 133.808 18.7254C134.245 19.3541 134.792 19.9554 135.448 20.3381C136.104 20.7208 136.869 20.8848 137.607 21.0215C138.346 21.1582 139.084 21.2402 139.822 21.3495C140.56 21.4588 141.27 21.6228 141.926 21.9235C142.582 22.1969 143.184 22.6889 143.512 23.3176C143.867 23.919 144.058 24.6023 144.195 25.2857C144.468 26.6251 144.55 27.9645 144.878 29.1945C145.042 29.7959 145.316 30.3972 145.726 30.8619C146.136 31.3266 146.601 31.7093 147.093 32.0373C148.077 32.6933 149.115 33.2127 150.045 33.8687C150.509 34.1967 150.919 34.5521 151.275 34.9621C151.603 35.3721 151.849 35.8642 151.958 36.3835C152.067 36.9029 152.04 37.3949 151.985 37.8869C151.931 38.3789 151.821 38.8436 151.712 39.3083C151.493 40.2104 151.247 41.0851 151.083 41.9051C150.919 42.7251 150.892 43.5452 151.083 44.2559C151.275 44.9666 151.657 45.5679 152.013 46.1146C152.751 47.1807 153.462 48.028 153.926 48.7934C154.418 49.5314 154.664 50.1875 154.746 50.6248C154.801 50.8435 154.801 51.0348 154.801 51.1442C154.746 51.1988 154.746 51.2535 154.746 51.2535Z" fill="#263238"/>
<path d="M106.663 88.8361C106.69 88.8361 105.679 92.9363 104.422 97.9658C103.137 102.995 102.071 107.068 102.044 107.068C102.016 107.068 103.028 102.968 104.285 97.9385C105.57 92.8816 106.636 88.8087 106.663 88.8361Z" fill="#263238"/>
<path d="M114.263 76.0771C127.971 76.0771 139.083 64.9649 139.083 51.2573C139.083 37.5497 127.971 26.4375 114.263 26.4375C100.556 26.4375 89.4434 37.5497 89.4434 51.2573C89.4434 64.9649 100.556 76.0771 114.263 76.0771Z" fill="white"/>
<path d="M98.9815 42.6685C98.6262 43.0239 96.7674 46.4407 96.5761 49.2561C96.4121 52.0716 96.8221 67.9256 96.8221 67.9256L96.9041 68.9644C101.36 74.1853 117.596 81.9483 132.22 68.937L133.04 59.1786L130.635 38.541L122.243 36.4909L120.275 33.2928L107.182 36.3542L106.007 39.115L98.9815 42.6685Z" fill="#455A64"/>
<path d="M119.359 25.031C119.933 22.899 120.507 20.7395 120.698 18.5254C120.89 16.3113 120.726 14.0152 119.824 11.9925C119.687 11.6918 118.594 9.61436 118.238 9.66903C117.992 9.69636 118.73 11.6371 118.594 11.8558C117.555 13.9059 117.364 16.284 117.664 18.5801C117.992 20.8489 118.594 22.8716 119.359 25.031Z" fill="#263238"/>
<path d="M119.152 16.5413C119.042 10.9651 115.707 6.40021 110.159 6.64622L109.639 6.70089C104.473 7.24758 100.591 11.6484 100.728 16.842C100.837 21.6802 101.029 27.0105 101.329 29.5526C101.958 34.8555 107.37 35.1288 107.37 35.1288L107.616 38.6277L109.913 41.1151L120.491 34.5548L119.152 16.5413Z" fill="#AE7461"/>
<path d="M107.379 35.1748C107.379 35.1748 110.741 35.0108 114.076 32.3867C114.076 32.3867 112.955 37.1976 107.598 37.2796L107.379 35.1748Z" fill="#6F4439"/>
<path d="M103.797 21.1733C103.824 21.5834 104.179 21.884 104.617 21.8567C105.027 21.8294 105.355 21.5014 105.327 21.0913C105.3 20.6813 104.945 20.3806 104.507 20.408C104.097 20.4353 103.769 20.7633 103.797 21.1733Z" fill="#263238"/>
<path d="M102.104 18.965C102.213 19.047 102.733 18.555 103.553 18.473C104.373 18.391 105.002 18.7464 105.084 18.637C105.111 18.5824 105.002 18.4184 104.728 18.2543C104.455 18.0903 103.99 17.9537 103.498 18.0083C102.979 18.063 102.569 18.309 102.35 18.5277C102.131 18.7464 102.077 18.9377 102.104 18.965Z" fill="#263238"/>
<path d="M111.023 20.6108C111.05 21.0209 111.406 21.3215 111.843 21.2942C112.253 21.2669 112.581 20.9389 112.554 20.5288C112.526 20.1188 112.171 19.8181 111.734 19.8455C111.324 19.8455 110.996 20.2008 111.023 20.6108Z" fill="#263238"/>
<path d="M110.151 18.4299C110.261 18.5119 110.78 18.0199 111.6 17.9379C112.42 17.8559 113.049 18.2112 113.131 18.1019C113.158 18.0472 113.049 17.8832 112.775 17.7192C112.502 17.5552 112.037 17.4185 111.545 17.4732C111.026 17.5278 110.616 17.7739 110.397 17.9925C110.179 18.2112 110.096 18.4026 110.151 18.4299Z" fill="#263238"/>
<path d="M107.878 25.0409C107.878 24.9863 107.358 24.9589 106.538 24.9316C106.32 24.9316 106.128 24.9043 106.074 24.7676C106.019 24.6309 106.074 24.3849 106.156 24.1389C106.292 23.6196 106.456 23.0729 106.593 22.4988C107.222 20.1481 107.632 18.2347 107.55 18.2073C107.468 18.18 106.866 20.0661 106.265 22.4168C106.128 22.9909 105.964 23.5375 105.855 24.0842C105.8 24.3302 105.691 24.6036 105.828 24.9043C105.91 25.0409 106.074 25.1503 106.21 25.1776C106.347 25.205 106.456 25.205 106.566 25.1776C107.386 25.1503 107.878 25.0956 107.878 25.0409Z" fill="#263238"/>
<path d="M110.323 25.315C110.187 25.315 110.269 26.217 109.585 26.9277C108.902 27.6384 107.945 27.6384 107.945 27.7751C107.945 27.8297 108.164 27.9118 108.574 27.8844C108.957 27.8571 109.531 27.6657 109.941 27.2284C110.351 26.791 110.515 26.2443 110.487 25.889C110.515 25.5063 110.405 25.2876 110.323 25.315Z" fill="#263238"/>
<path d="M109.834 15.1286C109.944 15.3473 110.737 15.156 111.721 15.156C112.705 15.156 113.497 15.3473 113.607 15.1286C113.661 15.0193 113.497 14.828 113.169 14.664C112.841 14.4726 112.322 14.3359 111.748 14.3359C111.174 14.3359 110.655 14.4726 110.326 14.664C109.944 14.828 109.78 15.0193 109.834 15.1286Z" fill="#263238"/>
<path d="M102.158 16.1703C102.322 16.3343 102.869 16.0883 103.552 16.0063C104.236 15.8969 104.81 16.0063 104.919 15.7876C104.974 15.6783 104.865 15.5143 104.591 15.3502C104.318 15.2136 103.908 15.1042 103.443 15.1589C102.978 15.2136 102.596 15.4323 102.377 15.6509C102.158 15.8969 102.104 16.0883 102.158 16.1703Z" fill="#263238"/>
<path d="M119.137 20.5196C119.219 20.4649 122.663 19.0435 122.936 22.7064C123.21 26.3418 119.492 25.8772 119.465 25.7678C119.465 25.6585 119.137 20.5196 119.137 20.5196Z" fill="#AE7461"/>
<path d="M120.502 24.3147C120.529 24.3147 120.557 24.342 120.666 24.3967C120.775 24.424 120.967 24.4514 121.131 24.3694C121.513 24.2054 121.787 23.5767 121.759 22.8933C121.732 22.5653 121.65 22.2373 121.513 21.9913C121.377 21.7453 121.185 21.5539 120.994 21.5266C120.803 21.4992 120.666 21.6086 120.639 21.7179C120.584 21.8273 120.639 21.8819 120.611 21.9093C120.611 21.9093 120.529 21.8546 120.557 21.6906C120.557 21.6086 120.611 21.5266 120.693 21.4446C120.775 21.3626 120.912 21.3079 121.049 21.3352C121.322 21.3352 121.595 21.5812 121.759 21.8546C121.923 22.1279 122.033 22.4833 122.06 22.866C122.087 23.604 121.759 24.3147 121.24 24.506C120.994 24.588 120.775 24.5334 120.639 24.4514C120.529 24.3967 120.502 24.3147 120.502 24.3147Z" fill="#6F4439"/>
<path d="M102.694 10.6766C102.093 10.3759 103.733 8.35314 105.127 7.6151C107.259 6.46705 110.567 5.64701 112.617 6.08437C115.104 6.63106 117.182 7.69711 118.548 9.8292C119.915 11.9613 120.544 14.5307 120.626 17.0455C120.653 17.8109 120.626 18.6309 120.243 19.3143C119.778 20.1617 118.849 20.7357 118.958 21.8291C119.013 22.2391 118.904 22.6491 118.658 22.9771C118.029 23.7425 117.182 23.1138 116.772 22.4578C115.869 21.091 115.678 19.369 115.514 17.7562C115.377 16.6082 115.268 15.4055 115.514 14.2847C115.651 13.656 115.897 13.082 116.006 12.4533C116.115 11.8246 116.061 11.1413 115.623 10.6492C115.569 10.5672 115.459 10.4852 115.295 10.3759C114.202 9.52852 112.753 9.36451 111.469 9.91121C109.473 10.7586 106.029 12.0706 105.072 11.4419C103.678 10.5126 103.323 9.88387 103.323 9.88387L102.694 10.6766Z" fill="#263238"/>
<path d="M98.98 42.668C98.7613 42.9686 95.7818 43.9527 94.6611 45.8388C93.5404 47.7249 92.4197 56.1986 92.4197 56.1986L91.709 61.7748C93.1304 64.0163 95.0438 66.9957 97.0666 69.1005L98.98 42.668Z" fill="#455A64"/>
<g opacity="0.3">
<path d="M121.428 50.8516C121.564 51.9996 121.674 53.1477 122.084 54.2137C122.466 55.2797 123.15 56.2911 124.161 56.8651C124.571 57.0838 125.063 57.2478 125.419 57.5758C125.801 57.9312 125.993 58.4232 126.321 58.8332C126.731 59.2706 127.277 59.5439 127.851 59.7353C129.519 60.3366 131.159 60.61 132.936 60.5553C132.99 59.9813 132.99 57.8219 133.045 57.2478L121.428 50.8516Z" fill="black"/>
</g>
<path d="M130.635 38.5742C130.635 38.5742 134.407 39.6949 135.501 41.2803C136.594 42.8931 138.562 49.098 138.972 50.2461C139.382 51.3941 139.027 54.0729 138.262 55.9863C137.496 57.8998 136.211 59.5672 133.943 59.8132C131.674 60.0592 128.12 58.7471 127.328 57.8998C126.535 57.0524 126.18 55.139 126.18 55.139C127.191 54.975 128.175 54.7016 129.132 54.4009" fill="#455A64"/>
<path d="M129.159 54.4283C129.159 54.4283 129.132 54.4283 129.104 54.4556C129.077 54.4556 129.022 54.4829 128.968 54.5103C128.831 54.5649 128.64 54.6196 128.394 54.7016C127.902 54.8383 127.164 55.057 126.207 55.221L126.234 55.1663C126.316 55.6037 126.453 56.0683 126.617 56.5604C126.699 56.8064 126.808 57.0524 126.945 57.2984C127.082 57.5444 127.246 57.7904 127.437 57.9818C127.656 58.1731 127.929 58.3371 128.202 58.4738C128.476 58.6378 128.776 58.7471 129.077 58.8838C129.706 59.1298 130.362 59.3485 131.073 59.5125C131.783 59.6765 132.549 59.7858 133.314 59.8132C133.505 59.8132 133.697 59.7859 133.915 59.7859C134.107 59.7585 134.298 59.7312 134.489 59.6765C134.872 59.5945 135.255 59.4305 135.61 59.2392C136.321 58.8291 136.949 58.2278 137.414 57.4897C137.879 56.7517 138.234 55.9317 138.48 55.057C138.672 54.4009 138.808 53.7176 138.918 53.0615C139 52.4055 139.054 51.7222 139.027 51.0661C139 50.7381 138.945 50.4374 138.836 50.1367C138.726 49.8361 138.644 49.5354 138.535 49.2347C138.344 48.6333 138.152 48.0593 137.961 47.4853C137.578 46.3372 137.195 45.2712 136.813 44.2598C136.43 43.2758 136.047 42.3191 135.61 41.5537C135.391 41.171 135.091 40.843 134.763 40.597C134.435 40.351 134.107 40.1323 133.806 39.9683C133.177 39.6129 132.603 39.3669 132.139 39.1483C131.674 38.9569 131.291 38.8202 131.045 38.7382C130.936 38.6836 130.827 38.6562 130.745 38.6289C130.69 38.6016 130.635 38.6016 130.635 38.6016C130.635 38.6016 130.663 38.6016 130.745 38.6289C130.827 38.6562 130.909 38.6836 131.045 38.7109C131.291 38.7929 131.674 38.9296 132.166 39.1209C132.631 39.3123 133.205 39.5583 133.861 39.9136C134.189 40.105 134.517 40.2963 134.845 40.5423C135.173 40.7883 135.501 41.1163 135.719 41.5264C136.184 42.3191 136.567 43.2484 136.949 44.2598C137.332 45.2712 137.715 46.3372 138.125 47.4853C138.316 48.0593 138.508 48.6333 138.726 49.2347C138.836 49.5354 138.918 49.8361 139.027 50.1367C139.136 50.4374 139.218 50.7654 139.218 51.0935C139.273 51.7495 139.218 52.4329 139.109 53.1162C139.027 53.7996 138.863 54.4829 138.672 55.139C138.426 56.0137 138.07 56.861 137.578 57.5991C137.113 58.3371 136.485 58.9931 135.719 59.4032C135.364 59.6218 134.954 59.7585 134.544 59.8405C134.353 59.8952 134.134 59.9225 133.943 59.9499C133.751 59.9499 133.533 59.9772 133.341 59.9772C132.549 59.9772 131.783 59.8405 131.073 59.6765C130.362 59.5125 129.678 59.2938 129.05 59.0205C128.749 58.8838 128.448 58.7471 128.148 58.6105C127.874 58.4465 127.601 58.3098 127.355 58.0911C127.136 57.8724 126.972 57.6264 126.836 57.3804C126.699 57.1344 126.59 56.8611 126.508 56.615C126.344 56.123 126.207 55.6583 126.125 55.221V55.1936H126.152C127.109 55.0296 127.847 54.8383 128.366 54.7016C128.612 54.6196 128.804 54.5649 128.94 54.5376C128.995 54.5103 129.05 54.5103 129.077 54.4829C129.132 54.4283 129.159 54.4283 129.159 54.4283Z" fill="#263238"/>
<path d="M136.045 52.4046C136.018 52.4046 135.936 51.9399 135.608 51.2565C135.307 50.5732 134.733 49.6438 133.913 48.8511C133.503 48.4411 133.038 48.1404 132.601 47.9217C132.491 47.867 132.382 47.8124 132.273 47.785C132.163 47.7304 132.054 47.703 131.945 47.6757C131.726 47.5937 131.535 47.5937 131.343 47.539C131.289 47.539 131.261 47.5117 131.207 47.5117C131.152 47.5117 131.125 47.5117 131.07 47.5117C130.988 47.5117 130.906 47.5117 130.824 47.5117C130.66 47.5117 130.551 47.539 130.441 47.539C130.223 47.5664 130.113 47.5937 130.113 47.5664C130.113 47.5664 130.223 47.539 130.441 47.4844C130.551 47.457 130.687 47.4297 130.824 47.4297C130.906 47.4297 130.988 47.4297 131.07 47.4297C131.125 47.4297 131.152 47.4297 131.207 47.4297C131.261 47.4297 131.289 47.4297 131.343 47.457C131.535 47.4844 131.753 47.4844 131.972 47.5664C132.081 47.5937 132.191 47.621 132.3 47.6757C132.409 47.7304 132.519 47.785 132.655 47.8124C133.12 48.031 133.585 48.3591 134.022 48.7691C134.869 49.5891 135.416 50.5458 135.717 51.2565C135.799 51.4479 135.854 51.5845 135.908 51.7485C135.963 51.8852 135.99 52.0219 136.018 52.1312C136.045 52.2952 136.072 52.4046 136.045 52.4046Z" fill="#263238"/>
<path d="M138.126 49.0425C138.099 49.0425 137.99 48.5505 137.552 47.8944C137.115 47.2384 136.322 46.4184 135.147 46.0904C133.999 45.735 132.878 45.8443 132.086 45.9263C131.703 45.981 131.402 46.0083 131.156 46.0357C130.937 46.063 130.801 46.063 130.801 46.063C130.801 46.063 130.91 46.0357 131.129 45.981C131.347 45.9263 131.675 45.8717 132.058 45.817C132.851 45.7077 133.972 45.5983 135.174 45.9537C135.776 46.145 136.295 46.4457 136.705 46.7737C137.115 47.1291 137.416 47.5117 137.634 47.8398C137.853 48.1951 137.962 48.4958 138.044 48.7145C138.099 48.9058 138.126 49.0425 138.126 49.0425Z" fill="#263238"/>
<path d="M135.284 44.9935C135.284 45.0482 134.3 44.7202 133.042 44.7748C131.785 44.8295 130.828 45.2122 130.828 45.1575C130.828 45.1302 131.047 45.0209 131.457 44.9115C131.84 44.7748 132.414 44.6655 133.042 44.6382C133.671 44.6108 134.245 44.6928 134.655 44.7748C135.038 44.8569 135.284 44.9662 135.284 44.9935Z" fill="#263238"/>
<path d="M129.186 39.4961C129.213 39.4961 129.159 39.8788 129.104 40.5075C129.049 41.1362 129.049 41.9835 129.131 42.9129C129.213 43.8149 129.377 44.635 129.514 45.209L129.405 45.2363C129.295 44.9083 129.213 44.6623 129.159 44.4983C129.104 44.307 129.077 44.225 129.077 44.225C129.077 44.225 129.131 44.307 129.213 44.4983C129.295 44.6896 129.377 44.9083 129.514 45.2363L129.405 45.2637C129.241 44.6896 129.049 43.8696 128.967 42.9402C128.885 41.9835 128.913 41.1362 128.995 40.5075C129.022 40.2068 129.077 39.9608 129.104 39.7694C129.159 39.5781 129.159 39.4961 129.186 39.4961Z" fill="#263238"/>
<path d="M123.851 32.4727C123.851 32.4727 121.883 32.4727 121.637 34.8234C121.445 36.6275 121.637 38.3769 121.637 39.1696C121.637 39.9623 121.281 42.7778 121.281 42.7778C121.281 42.7778 119.942 43.9532 119.969 45.3746C119.996 46.796 121.008 47.2333 121.008 47.2333C121.008 47.2333 120.379 48.6 121.582 49.8301C121.582 49.8301 121.008 51.1422 121.473 52.0169C121.828 52.7002 122.648 52.9189 122.648 52.9189C122.648 52.9189 122.074 54.2036 123.468 54.7503C124.288 55.0783 125.491 54.9963 125.491 54.9963L126.939 54.969L128.224 55.6797C128.224 55.6797 130.438 54.723 130.493 53.4109C130.548 52.1262 130.548 52.1262 130.548 52.1262C130.548 52.1262 129.919 49.9941 129.864 49.3107C129.81 48.6274 130.384 46.9873 130.028 46.2766C129.7 45.5386 128.498 45.1012 128.607 44.0898C128.716 43.0511 128.498 42.5044 127.978 41.9304C127.459 41.3564 125.217 40.2357 125.217 40.2357C125.217 40.2357 124.643 38.5956 124.643 37.4749C124.698 36.3542 125.819 32.91 123.851 32.4727Z" fill="#AE7461"/>
<path d="M125.165 40.6797C125.165 40.707 124.973 40.8164 124.618 41.035C124.263 41.2264 123.798 41.4997 123.251 41.8004C122.705 42.1011 122.24 42.3471 121.885 42.5111C121.529 42.6751 121.311 42.7844 121.283 42.7844C121.283 42.7571 121.475 42.6478 121.83 42.4291C122.185 42.2378 122.65 41.9644 123.197 41.6637C123.743 41.363 124.208 41.117 124.563 40.953C124.946 40.7617 125.165 40.6797 125.165 40.6797Z" fill="#6F4439"/>
<path d="M126.451 45.1042C126.451 45.1042 126.397 45.1588 126.287 45.2682C126.178 45.3502 125.987 45.4868 125.768 45.6235C125.331 45.8969 124.675 46.2522 123.937 46.5529C123.199 46.8262 122.46 47.0176 121.941 47.0996C121.695 47.1269 121.476 47.1542 121.312 47.1816C121.176 47.1816 121.094 47.1816 121.094 47.1816C121.094 47.1542 121.422 47.1269 121.914 47.0176C122.433 46.9082 123.117 46.7442 123.855 46.4435C124.593 46.1702 125.249 45.8148 125.686 45.5688C126.178 45.2682 126.451 45.0768 126.451 45.1042Z" fill="#6F4439"/>
<path d="M128.117 43.7096C128.145 43.7096 128.09 43.983 127.844 44.1743C127.625 44.393 127.352 44.4477 127.352 44.393C127.325 44.3657 127.543 44.2563 127.762 44.065C127.981 43.8737 128.09 43.6823 128.117 43.7096Z" fill="#6F4439"/>
<path d="M127.322 48.9897C127.322 49.017 127.022 49.1263 126.502 49.2904C125.983 49.4544 125.272 49.6184 124.452 49.755C123.632 49.8917 122.894 49.9464 122.347 49.9464C121.801 49.9464 121.473 49.9464 121.473 49.919C121.473 49.8917 121.801 49.8917 122.347 49.837C122.894 49.8097 123.605 49.7277 124.425 49.591C125.217 49.4544 125.956 49.2904 126.475 49.1537C126.994 49.0443 127.322 48.9623 127.322 48.9897Z" fill="#6F4439"/>
<path d="M129.103 48.6592C129.076 48.6592 129.158 48.4952 129.24 48.2492C129.322 48.0032 129.404 47.6205 129.349 47.2105C129.294 46.8005 129.13 46.4451 128.994 46.2264C128.857 46.0078 128.72 45.8711 128.748 45.8438C128.748 45.8438 128.912 45.9258 129.076 46.1718C129.24 46.3904 129.431 46.7458 129.486 47.1831C129.54 47.6205 129.458 48.0032 129.322 48.2765C129.24 48.5225 129.13 48.6592 129.103 48.6592Z" fill="#6F4439"/>
<path d="M127.434 52.9215C127.434 52.9488 127.188 53.0035 126.75 53.0855C126.313 53.1675 125.712 53.2222 125.028 53.2222C124.345 53.2222 123.744 53.1402 123.306 53.0855C122.869 53.0035 122.596 52.9215 122.623 52.9215C122.623 52.8942 122.896 52.9488 123.334 52.9762C123.771 53.0308 124.372 53.0855 125.028 53.0855C125.684 53.0855 126.286 53.0308 126.723 53.0035C127.16 52.9488 127.434 52.8942 127.434 52.9215Z" fill="#6F4439"/>
<path d="M123.963 37.5329C123.963 37.5603 123.881 37.6149 123.69 37.6969C123.499 37.7516 123.225 37.8063 122.952 37.7789C122.651 37.7516 122.405 37.6423 122.241 37.5329C122.077 37.4236 121.995 37.3416 122.023 37.3143C122.05 37.2869 122.433 37.5876 122.979 37.6423C123.499 37.6969 123.936 37.4783 123.963 37.5329Z" fill="#6F4439"/>
<path d="M129.512 48.8242C129.512 48.8242 129.539 48.9062 129.539 49.0429C129.539 49.1796 129.539 49.3709 129.485 49.6169C129.43 49.8629 129.348 50.1363 129.266 50.437C129.184 50.7376 129.102 51.093 129.156 51.421C129.211 51.7763 129.457 52.0497 129.512 52.405C129.567 52.7604 129.43 53.0337 129.293 53.2524C129.156 53.4711 129.02 53.6078 128.938 53.7171C128.856 53.8264 128.801 53.8538 128.774 53.8538C128.746 53.8264 128.965 53.6078 129.184 53.1977C129.293 52.9791 129.403 52.7057 129.348 52.4324C129.32 52.1317 129.047 51.8583 128.992 51.4483C128.938 51.0656 129.02 50.7103 129.102 50.3823C129.184 50.0816 129.293 49.8083 129.348 49.5622C129.512 49.1249 129.485 48.8242 129.512 48.8242Z" fill="#6F4439"/>
<path d="M130.251 50.5156C130.251 50.5156 130.306 50.5976 130.333 50.7616C130.388 50.9256 130.442 51.1717 130.497 51.4723C130.552 51.773 130.606 52.1557 130.634 52.5657C130.634 52.9757 130.606 53.4677 130.388 53.9051C130.169 54.3425 129.841 54.6978 129.54 54.9711C129.24 55.2445 128.939 55.4632 128.666 55.6545C128.42 55.8185 128.201 55.9552 128.037 56.0372C127.873 56.1192 127.791 56.1739 127.791 56.1465C127.791 56.1192 128.119 55.9279 128.611 55.5452C128.857 55.3538 129.158 55.1352 129.458 54.8618C129.759 54.5885 130.06 54.2331 130.251 53.8231C130.442 53.4131 130.497 52.9484 130.497 52.5384C130.497 52.1284 130.442 51.773 130.388 51.445C130.333 50.8983 130.224 50.543 130.251 50.5156Z" fill="#263238"/>
<path d="M109.645 41.4368C109.645 41.4368 109.536 41.3548 109.317 41.1907C109.098 40.9994 108.825 40.7807 108.497 40.5074C108.333 40.3707 108.141 40.2067 107.923 40.0154C107.813 39.9334 107.731 39.8514 107.595 39.7967C107.485 39.742 107.349 39.7147 107.239 39.7967C106.993 39.9334 106.857 40.234 106.638 40.4801C106.447 40.7534 106.255 41.0267 106.037 41.3001C105.709 41.7374 105.381 42.1748 105.107 42.5575L104.943 42.8035L104.998 42.5028C105.189 41.5188 105.463 40.6987 105.681 40.1247C105.791 39.8514 105.9 39.6053 105.955 39.4687C106.037 39.3047 106.064 39.25 106.064 39.25C106.064 39.25 106.037 39.332 105.982 39.496C105.927 39.66 105.845 39.8787 105.736 40.1794C105.545 40.7534 105.299 41.5734 105.107 42.5575L104.998 42.5028C105.299 42.1201 105.599 41.6828 105.927 41.2454C106.146 40.9721 106.337 40.6987 106.529 40.4254C106.638 40.2887 106.72 40.1794 106.829 40.0427C106.939 39.906 107.048 39.7967 107.185 39.7147C107.349 39.6327 107.54 39.66 107.649 39.742C107.786 39.824 107.895 39.906 108.005 39.988C108.196 40.152 108.388 40.316 108.552 40.4801C108.88 40.7807 109.153 40.9994 109.344 41.1907C109.536 41.3274 109.645 41.4094 109.645 41.4368Z" fill="#263238"/>
<path d="M121.178 39.125C121.178 39.125 121.151 39.1523 121.069 39.207C120.987 39.2617 120.877 39.371 120.741 39.453C120.44 39.6717 120.03 39.9724 119.538 40.3551C118.499 41.1204 117.078 42.1591 115.52 43.3072L115.465 43.3618L115.438 43.3072C115.41 43.2525 115.383 43.1978 115.328 43.1432C114.59 41.9678 113.907 40.8744 113.306 39.945L113.388 39.9724C112.431 40.355 111.666 40.7651 111.146 41.0931C110.9 41.2571 110.682 41.3664 110.545 41.4758C110.408 41.5578 110.326 41.6124 110.326 41.6124C110.326 41.6124 110.381 41.5578 110.518 41.4484C110.654 41.3391 110.846 41.2024 111.092 41.0384C111.611 40.7104 112.349 40.273 113.333 39.863L113.388 39.8357L113.415 39.8904C114.016 40.8197 114.7 41.9131 115.438 43.0612C115.465 43.1158 115.492 43.1705 115.547 43.2252L115.438 43.1978C117.023 42.0498 118.445 41.0384 119.483 40.273C120.003 39.9177 120.413 39.617 120.713 39.3983C120.85 39.3163 120.959 39.2343 121.041 39.1797C121.123 39.1523 121.178 39.125 121.178 39.125Z" fill="#263238"/>
<path d="M96.6309 50C96.6309 50 96.6308 50.0547 96.6582 50.1913C96.6582 50.328 96.6582 50.5194 96.6855 50.738C96.6855 51.2301 96.7129 51.9134 96.7129 52.7608C96.7402 54.4829 96.8222 56.861 96.9042 59.4578C96.9862 62.0819 97.0409 64.46 97.0409 66.1821C97.0409 67.0294 97.0409 67.7401 97.0409 68.2048C97.0409 68.4235 97.0409 68.6148 97.0409 68.7515C97.0409 68.8882 97.0409 68.9429 97.0135 68.9429C97.0135 68.9429 97.0135 68.8882 96.9862 68.7515C96.9862 68.6148 96.9862 68.4235 96.9589 68.2048C96.9589 67.7128 96.9315 67.0294 96.9315 66.1821C96.9042 64.46 96.8222 62.0819 96.7402 59.4578C96.6582 56.8336 96.6035 54.4555 96.6035 52.7335C96.6035 51.8861 96.6035 51.1754 96.6035 50.7107C96.6035 50.492 96.6035 50.3007 96.6035 50.164C96.6309 50.0547 96.6309 50 96.6309 50Z" fill="#263238"/>
<path d="M109.725 74.6811C109.725 74.6811 109.725 74.6537 109.697 74.5991C109.697 74.5444 109.67 74.4624 109.67 74.3804C109.643 74.1617 109.615 73.861 109.588 73.4783C109.506 72.713 109.424 71.5649 109.342 70.1709C109.26 68.7768 109.178 67.1094 109.123 65.278C109.096 63.4465 109.069 61.3965 109.123 59.2644C109.178 57.1323 109.26 55.1095 109.397 53.2781C109.533 51.4467 109.67 49.7793 109.807 48.3852C109.943 46.9911 110.08 45.8704 110.189 45.1051C110.244 44.7224 110.299 44.4217 110.326 44.203C110.353 44.121 110.353 44.039 110.353 43.9843C110.353 43.9297 110.381 43.9023 110.381 43.9023C110.381 43.9023 110.381 43.9297 110.381 43.9843C110.381 44.039 110.381 44.121 110.353 44.2304C110.326 44.449 110.299 44.7497 110.244 45.1324C110.162 45.8978 110.025 47.0185 109.889 48.4125C109.752 49.8066 109.615 51.4467 109.506 53.3054C109.397 55.1368 109.287 57.1596 109.26 59.2917C109.205 61.4238 109.233 63.4465 109.26 65.278C109.287 67.1094 109.369 68.7768 109.451 70.1709C109.533 71.5649 109.588 72.6856 109.67 73.4783C109.697 73.861 109.725 74.1617 109.725 74.3804C109.725 74.4897 109.725 74.5444 109.725 74.6264C109.725 74.6537 109.725 74.6811 109.725 74.6811Z" fill="#263238"/>
<path d="M101.581 29.9251C101.581 29.9251 101.471 29.9797 101.28 30.1164C101.089 30.2531 100.788 30.4171 100.433 30.6631C100.05 30.9091 99.6127 31.2645 99.0934 31.6471C98.82 31.8385 98.574 32.0845 98.2733 32.3305C98.1366 32.4398 97.9726 32.5765 97.836 32.7132C97.672 32.8499 97.5353 32.9865 97.3713 33.1505C96.1412 34.2986 94.7198 35.8567 93.4078 37.9068C93.2438 38.1528 93.0797 38.4261 92.9157 38.6995C92.7517 38.9728 92.6151 39.2462 92.4511 39.5195C92.3144 39.7928 92.123 40.0935 91.9864 40.3942C91.8497 40.6949 91.713 40.9956 91.5763 41.3236C91.4943 41.4876 91.4397 41.6243 91.3577 41.7883C91.303 41.9523 91.221 42.1163 91.1663 42.2803C91.0297 42.6083 90.9203 42.9363 90.7836 43.2917C90.5923 43.975 90.319 44.6857 90.1823 45.4238C89.7996 46.8998 89.5809 48.4852 89.4989 50.1253C89.4169 51.7927 89.4989 53.5148 89.7996 55.2642C90.3736 58.7904 91.7677 62.4532 94.1185 65.706C96.4419 68.9588 99.7494 71.8016 103.686 73.6877C107.622 75.5738 112.241 76.3665 116.861 75.9018C121.48 75.4371 125.799 73.6057 129.271 70.9542C130.145 70.2982 130.938 69.5602 131.703 68.8221C131.895 68.6308 132.086 68.4395 132.25 68.2481C132.442 68.0568 132.606 67.8654 132.797 67.6468C132.961 67.4554 133.152 67.2367 133.316 67.0454C133.48 66.8267 133.644 66.6354 133.808 66.4167C135.12 64.7766 136.132 62.9725 136.952 61.1138C137.772 59.2824 138.291 57.369 138.619 55.5102C138.783 54.5808 138.892 53.6515 138.947 52.7221C138.974 52.2574 138.974 51.7927 139.002 51.3554C139.002 50.8907 138.974 50.4533 138.947 50.016C138.947 49.7973 138.92 49.5786 138.92 49.3599C138.92 49.1413 138.865 48.9226 138.838 48.7039C138.783 48.2666 138.728 47.8292 138.674 47.4192C138.619 46.9818 138.51 46.5718 138.428 46.1618C138.346 45.7518 138.264 45.3418 138.154 44.9317C138.045 44.5217 137.936 44.139 137.826 43.7564C137.772 43.565 137.717 43.3737 137.635 43.1823C137.553 42.991 137.498 42.7996 137.416 42.6083C137.28 42.2256 137.143 41.8703 136.979 41.5149C136.815 41.1596 136.651 40.8042 136.487 40.4762C135.175 37.7428 133.48 35.5286 131.758 33.8066C130.063 32.0845 128.341 30.8818 126.893 30.0071C126.537 29.7884 126.182 29.5971 125.854 29.4057C125.69 29.2964 125.526 29.2417 125.362 29.1597C125.198 29.0777 125.061 29.023 124.897 28.941C124.596 28.8043 124.323 28.6677 124.077 28.5583C123.831 28.4217 123.585 28.367 123.394 28.285C122.984 28.121 122.656 28.0116 122.437 27.9296C122.218 27.8476 122.109 27.793 122.109 27.793C122.109 27.793 122.218 27.8203 122.437 27.9023C122.656 27.9843 122.984 28.0936 123.394 28.2577C123.612 28.3397 123.831 28.4217 124.104 28.531C124.35 28.6403 124.624 28.777 124.925 28.9137C125.061 28.9957 125.225 29.0504 125.389 29.1324C125.553 29.2144 125.717 29.269 125.881 29.3784C126.209 29.5697 126.565 29.7611 126.92 29.9797C128.369 30.8544 130.091 32.0572 131.813 33.7792C133.535 35.5013 135.23 37.7154 136.569 40.4489C136.733 40.8042 136.897 41.1322 137.061 41.4876C137.225 41.8429 137.334 42.2256 137.498 42.581C137.58 42.7723 137.635 42.9636 137.717 43.155C137.799 43.3463 137.854 43.5377 137.908 43.729C138.018 44.1117 138.127 44.5217 138.264 44.9044C138.4 45.3144 138.455 45.7244 138.564 46.1345C138.646 46.5445 138.756 46.9818 138.81 47.3918C138.865 47.8292 138.92 48.2666 138.974 48.7039C139.002 48.9226 139.029 49.1413 139.056 49.3599C139.056 49.5786 139.084 49.7973 139.084 50.016C139.111 50.4533 139.138 50.918 139.138 51.3827C139.111 51.8474 139.111 52.3121 139.084 52.7494C139.029 53.6788 138.92 54.6082 138.756 55.5649C138.428 57.451 137.881 59.3644 137.088 61.1958C136.268 63.0272 135.257 64.8586 133.945 66.526C133.781 66.7447 133.617 66.9361 133.453 67.1547C133.289 67.3461 133.098 67.5648 132.934 67.7561C132.77 67.9474 132.578 68.1661 132.387 68.3575C132.195 68.5488 132.004 68.7401 131.84 68.9315C131.075 69.6695 130.255 70.4075 129.38 71.0636C125.909 73.7424 121.562 75.5738 116.915 76.0385C112.269 76.5305 107.649 75.7105 103.686 73.797C99.722 71.9109 96.4146 69.0682 94.0638 65.7607C91.6857 62.4805 90.2916 58.7904 89.7449 55.2642C89.4716 53.4875 89.3622 51.7654 89.4716 50.098C89.5536 48.4306 89.7723 46.8452 90.155 45.3691C90.319 44.6311 90.565 43.9204 90.7836 43.237C90.893 42.909 91.0297 42.5536 91.1663 42.2256C91.221 42.0616 91.303 41.8976 91.3577 41.7336C91.4123 41.5696 91.4943 41.4056 91.5763 41.2689C91.713 40.9682 91.8497 40.6402 92.0137 40.3395C92.1504 40.0389 92.3144 39.7655 92.4784 39.4648C92.6424 39.1915 92.7791 38.8908 92.9431 38.6448C93.1071 38.3714 93.2711 38.1254 93.4351 37.8521C94.7472 35.802 96.1686 34.2713 97.4259 33.0959C97.5899 32.9592 97.7266 32.7952 97.8906 32.6859C98.0546 32.5492 98.1913 32.4398 98.328 32.3032C98.6287 32.0572 98.8747 31.8385 99.148 31.6198C99.6947 31.2371 100.132 30.9091 100.487 30.6631C100.87 30.4171 101.143 30.2531 101.362 30.1164C101.471 29.9797 101.581 29.9251 101.581 29.9251Z" fill="#263238"/>
</svg>
