<svg width="421" height="661" viewBox="0 0 421 661" fill="none" xmlns="http://www.w3.org/2000/svg">
<g clip-path="url(#clip0_29_1869)">
<path d="M546 505.535H-115V505.866H546V505.535Z" fill="#B3C8B6"/>
<path d="M43.1778 519.281H-3.81934V519.612H43.1778V519.281Z" fill="#B3C8B6"/>
<path d="M108.775 527.004H70.6885V527.334H108.775V527.004Z" fill="#B3C8B6"/>
<path d="M232.051 512.898H155.666V513.229H232.051V512.898Z" fill="#B3C8B6"/>
<path d="M451.027 518.648H382.653V518.979H451.027V518.648Z" fill="#B3C8B6"/>
<path d="M375.317 518.648H362.309V518.979H375.317V518.648Z" fill="#B3C8B6"/>
<path d="M198.314 446.572H-56.9509C-58.9507 446.569 -60.8673 445.772 -62.2801 444.357C-63.6928 442.942 -64.4863 441.024 -64.4863 439.024V80.1935C-64.4689 78.2052 -63.6678 76.3041 -62.2568 74.9031C-60.8459 73.5021 -58.9393 72.7143 -56.9509 72.7109H198.314C200.316 72.7109 202.236 73.5062 203.652 74.9219C205.067 76.3375 205.863 78.2575 205.863 80.2596V439.024C205.863 441.026 205.067 442.946 203.652 444.362C202.236 445.777 200.316 446.572 198.314 446.572V446.572ZM-56.9509 72.9753C-58.863 72.9788 -60.6956 73.7409 -62.0464 75.0941C-63.3972 76.4474 -64.1558 78.2814 -64.1558 80.1935V439.024C-64.1558 440.936 -63.3972 442.77 -62.0464 444.123C-60.6956 445.476 -58.863 446.238 -56.9509 446.242H198.314C200.227 446.239 202.061 445.477 203.414 444.124C204.767 442.771 205.529 440.937 205.532 439.024V80.1935C205.529 78.2802 204.767 76.4462 203.414 75.0933C202.061 73.7404 200.227 72.9788 198.314 72.9753H-56.9509Z" fill="#B3C8B6"/>
<path d="M484.276 446.572H228.998C226.997 446.569 225.079 445.773 223.664 444.358C222.249 442.943 221.453 441.025 221.449 439.024V80.1935C221.47 78.204 222.274 76.3029 223.687 74.9023C225.1 73.5016 227.008 72.7143 228.998 72.7109H484.276C486.262 72.7178 488.165 73.5071 489.573 74.9077C490.981 76.3084 491.781 78.2075 491.798 80.1935V439.024C491.798 441.021 491.007 442.937 489.597 444.352C488.187 445.767 486.273 446.565 484.276 446.572V446.572ZM228.998 72.9753C227.085 72.9788 225.251 73.7404 223.898 75.0933C222.545 76.4462 221.783 78.2802 221.78 80.1935V439.024C221.783 440.937 222.545 442.771 223.898 444.124C225.251 445.477 227.085 446.239 228.998 446.242H484.276C486.189 446.239 488.023 445.477 489.376 444.124C490.729 442.771 491.491 440.937 491.494 439.024V80.1935C491.491 78.2802 490.729 76.4462 489.376 75.0933C488.023 73.7404 486.189 72.9788 484.276 72.9753H228.998Z" fill="#B3C8B6"/>
<path d="M304.061 97.5508H-38.8525V251.934H304.061V97.5508Z" fill="#B3C8B6"/>
<path d="M311.252 97.5508H-35.4951V251.934H311.252V97.5508Z" fill="#CBE2CF"/>
<path d="M304.061 251.934H-38.8525V265.299H304.061V251.934Z" fill="#B3C8B6"/>
<path d="M323.243 251.934H-23.5039V265.299H323.243V251.934Z" fill="#CADCCD"/>
<path d="M301.179 241.861V107.625L-25.4214 107.625V241.861L301.179 241.861Z" fill="#FAFAFA"/>
<path d="M37.1221 241.861L96.2287 107.625H124.123L65.0295 241.861H37.1221Z" fill="white"/>
<path d="M71.0186 241.861L130.125 107.625H141.005L81.8986 241.861H71.0186Z" fill="white"/>
<path d="M301.192 241.861V107.625H299.91V241.861H301.192Z" fill="#B3C8B6"/>
<path d="M313.632 120.502H-29.2816L-30.207 111.539H312.707L313.632 120.502Z" fill="#B3C8B6"/>
<path d="M313.632 127.07H-29.2816L-30.207 118.094H312.707L313.632 127.07Z" fill="#B3C8B6"/>
<path d="M313.632 134.949H-29.2816L-30.207 125.973H312.707L313.632 134.949Z" fill="#B3C8B6"/>
<path d="M313.632 143.715H-29.2816L-30.207 134.738H312.707L313.632 143.715Z" fill="#B3C8B6"/>
<path d="M313.632 154.213H-29.2816L-30.207 145.25H312.707L313.632 154.213Z" fill="#B3C8B6"/>
<path d="M313.632 166.03H-29.2816L-30.207 157.066H312.707L313.632 166.03Z" fill="#B3C8B6"/>
<path d="M449.732 108.945H363.154V222.743H449.732V108.945Z" fill="#B3C8B6"/>
<path d="M455.628 108.945H366.208V222.743H455.628V108.945Z" fill="#D5E8D8"/>
<path d="M448.146 215.261V116.441H373.704V215.261H448.146Z" fill="white"/>
<path d="M429.043 184.697H409.715C405.041 184.69 400.561 182.829 397.257 179.523C393.954 176.217 392.096 171.735 392.093 167.061V147.733C392.093 147.64 392.111 147.547 392.147 147.46C392.183 147.374 392.236 147.295 392.302 147.229C392.368 147.162 392.447 147.11 392.533 147.074C392.62 147.038 392.713 147.02 392.807 147.02H412.134C416.806 147.027 421.284 148.885 424.587 152.189C427.891 155.492 429.75 159.97 429.757 164.642V183.969C429.757 184.16 429.682 184.343 429.548 184.479C429.415 184.615 429.233 184.693 429.043 184.697V184.697ZM393.534 148.461V167.061C393.537 171.353 395.243 175.468 398.276 178.504C401.31 181.54 405.423 183.249 409.715 183.256H428.342V164.642C428.335 160.35 426.626 156.236 423.59 153.203C420.554 150.17 416.439 148.464 412.148 148.461H393.534Z" fill="#CADCCD"/>
<path d="M209.789 326.537C209.789 330.503 212.578 333.332 208.573 333.332C204.567 333.332 195.353 330.542 195.353 326.537C195.353 324.608 196.119 322.759 197.482 321.395C198.846 320.032 200.695 319.266 202.624 319.266C204.552 319.266 206.401 320.032 207.765 321.395C209.129 322.759 209.895 324.608 209.895 326.537H209.789Z" fill="#B3C8B6"/>
<path d="M222.189 330.013C222.189 333.979 224.979 336.795 220.973 336.795C216.967 336.795 207.753 334.006 207.753 330.013C207.753 328.085 208.519 326.235 209.883 324.872C211.246 323.508 213.096 322.742 215.024 322.742C216.952 322.742 218.802 323.508 220.165 324.872C221.529 326.235 222.295 328.085 222.295 330.013H222.189Z" fill="#B3C8B6"/>
<path d="M234.074 327.857C234.074 331.823 236.863 334.639 232.858 334.639C228.852 334.639 219.638 331.849 219.638 327.857C219.638 325.929 220.404 324.079 221.767 322.716C223.131 321.352 224.98 320.586 226.909 320.586C228.837 320.586 230.686 321.352 232.05 322.716C233.414 324.079 234.18 325.929 234.18 327.857H234.074Z" fill="#B3C8B6"/>
<path d="M190.857 328.82C190.857 328.82 191.452 342.953 214.164 342.953C236.876 342.953 237.471 328.82 237.471 328.82H190.857Z" fill="#D5E8D8"/>
<path d="M238.305 243.422H371.007L378.714 323.522H246.012L238.305 243.422Z" fill="#B3C8B6"/>
<path d="M304.854 260.672H325.411L316.237 340.772H295.68L304.854 260.672Z" fill="#B3C8B6"/>
<path d="M326.68 260.672L318.973 327.962L317.505 340.772H296.948L298.416 327.962L306.123 260.672H326.68Z" fill="#CBE2CF"/>
<path d="M326.68 260.672L318.973 327.962H298.416L306.123 260.672H326.68Z" fill="#B3C8B6"/>
<path d="M239.534 243.422H375.185L382.892 323.522H247.241L239.534 243.422Z" fill="#CBE2CF"/>
<path d="M250.665 319.871L243.646 247.082H371.761L378.78 319.871H250.665Z" fill="white"/>
<path d="M303.744 340.773H285.566V342.968H303.744V340.773Z" fill="#B3C8B6"/>
<path d="M303.744 342.969H334.044V340.774H303.744V342.969Z" fill="#CBE2CF"/>
<path d="M42.4895 355.617L456.249 355.617V342.966L42.4895 342.966V355.617Z" fill="#CBE2CF"/>
<path d="M37.8892 355.617H27.5908V505.532H37.8892V355.617Z" fill="#B3C8B6"/>
<path d="M41.1286 355.617H33.9766V505.532H41.1286V355.617Z" fill="#CBE2CF"/>
<path d="M385.615 355.617H375.316V505.532H385.615V355.617Z" fill="#B3C8B6"/>
<path d="M388.867 355.617H381.715V505.532H388.867V355.617Z" fill="#CBE2CF"/>
<path d="M42.4901 342.969H-37.5967V355.62H42.4901V342.969Z" fill="#B3C8B6"/>
<path d="M41.1416 289.398H127.085L139.551 340.15H53.5948L41.1416 289.398Z" fill="#B3C8B6"/>
<path d="M53.5947 340.152L53.9384 342.968H139.895L139.551 340.152H53.5947Z" fill="#B3C8B6"/>
<path d="M43.7852 289.398H129.742L142.195 340.15H56.2384L43.7852 289.398Z" fill="#CBE2CF"/>
<path d="M58.0629 337.839L46.7334 291.715H127.917L139.234 337.839H58.0629Z" fill="white"/>
<path d="M78.6338 340.152L78.9775 342.968H173.633L173.289 340.152H78.6338Z" fill="#FAFAFA"/>
<path d="M148.078 505.533H145.209L137.039 465.239L135.611 458.179L126.688 414.275H92.4744L73.9664 505.493H71.0977L89.9097 412.596C89.974 412.289 90.1388 412.012 90.3782 411.808C90.6176 411.605 90.9179 411.487 91.2317 411.473H127.719C128.038 411.469 128.347 411.581 128.59 411.787C128.833 411.994 128.993 412.281 129.041 412.596L136.867 451.159L138.308 458.205L148.078 505.533Z" fill="#CBE2CF"/>
<path d="M202.954 505.532H200.099L181.591 414.314H147.377L138.454 458.244L137.026 465.277L128.843 505.572H125.987L135.598 458.218L137.013 451.198L144.852 412.635C144.914 412.327 145.079 412.048 145.318 411.844C145.558 411.641 145.86 411.523 146.174 411.512H182.648C182.963 411.521 183.266 411.637 183.506 411.842C183.747 412.046 183.91 412.326 183.97 412.635L202.954 505.532Z" fill="#CBE2CF"/>
<path d="M118.677 412.873H181.498C187.273 412.892 192.824 410.643 196.958 406.611C201.092 402.579 203.477 397.085 203.602 391.311L205.942 295.823C205.984 293.689 205.6 291.568 204.813 289.584C204.025 287.6 202.85 285.793 201.355 284.269C199.86 282.745 198.077 281.535 196.109 280.708C194.141 279.882 192.027 279.457 189.893 279.457H150.444C146.504 279.457 142.702 280.907 139.762 283.531C136.821 286.154 134.949 289.767 134.501 293.682L118.677 412.873Z" fill="#B3C8B6"/>
<path d="M152.943 412.875H85.9973C85.1663 412.875 84.3694 412.545 83.7818 411.957C83.1942 411.37 82.8641 410.573 82.8641 409.742V409.451C82.8641 407.169 83.7709 404.979 85.3849 403.365C86.9988 401.752 89.1878 400.845 91.4704 400.845H152.943V412.875Z" fill="#B3C8B6"/>
<path d="M366.208 505.534H363.34L355.17 465.239L353.729 458.18L344.818 414.276H310.684L292.176 505.494H289.308L308.186 412.557C308.25 412.25 308.415 411.972 308.654 411.769C308.894 411.566 309.194 411.448 309.508 411.434H345.995C346.314 411.43 346.623 411.542 346.866 411.748C347.109 411.955 347.269 412.242 347.317 412.557L355.143 451.12L356.584 458.166L366.208 505.534Z" fill="#CBE2CF"/>
<path d="M421.11 505.532H418.255L399.747 414.314H365.534L356.61 458.244L355.182 465.277L346.999 505.572H344.144L353.741 458.218L355.169 451.198L363.008 412.635C363.071 412.327 363.235 412.048 363.475 411.844C363.714 411.641 364.016 411.523 364.33 411.512H400.804C401.12 411.521 401.422 411.637 401.663 411.842C401.903 412.046 402.067 412.326 402.126 412.635L421.11 505.532Z" fill="#CBE2CF"/>
<path d="M336.833 412.873H399.654C405.425 412.885 410.969 410.633 415.097 406.602C419.225 402.57 421.607 397.08 421.732 391.311L424.072 295.823C424.114 293.689 423.73 291.568 422.942 289.584C422.155 287.6 420.979 285.793 419.485 284.269C417.99 282.745 416.207 281.535 414.239 280.708C412.27 279.882 410.157 279.457 408.023 279.457H368.601C364.66 279.457 360.858 280.907 357.918 283.531C354.978 286.154 353.105 289.767 352.657 293.682L336.833 412.873Z" fill="#CBE2CF"/>
<path d="M371.1 412.875H304.154C303.323 412.875 302.526 412.545 301.938 411.957C301.35 411.37 301.02 410.573 301.02 409.742V409.451C301.02 407.169 301.927 404.979 303.541 403.365C305.155 401.752 307.344 400.845 309.627 400.845H371.1V412.875Z" fill="#CBE2CF"/>
<path d="M17.0546 322.277C16.8066 322.29 16.5594 322.317 16.3142 322.356V320.69C16.3142 320.136 16.0942 319.605 15.7025 319.213C15.3107 318.822 14.7795 318.602 14.2255 318.602H-2.07478C-2.62998 318.602 -3.16264 318.821 -3.55646 319.213C-3.95027 319.604 -4.17327 320.135 -4.17676 320.69V342.953H16.3142V339.212C16.5597 339.247 16.8068 339.269 17.0546 339.278C18.6896 339.278 20.258 338.629 21.4154 337.474C22.5728 336.319 23.2248 334.752 23.2283 333.117V328.45C23.2248 326.814 22.5732 325.246 21.4162 324.089C20.2592 322.932 18.6909 322.28 17.0546 322.277V322.277ZM20.5843 333.117C20.5808 334.051 20.2074 334.945 19.5458 335.604C18.8842 336.264 17.9884 336.634 17.0546 336.634C16.8056 336.634 16.5574 336.607 16.3142 336.554V325C16.5584 324.953 16.806 324.927 17.0546 324.921C17.9896 324.924 18.8854 325.297 19.5466 325.958C20.2078 326.62 20.5808 327.515 20.5843 328.45V333.117Z" fill="#B3C8B6"/>
<path d="M215.5 565.235C357.063 565.235 471.823 558.535 471.823 550.27C471.823 542.005 357.063 535.305 215.5 535.305C73.9373 535.305 -40.8223 542.005 -40.8223 550.27C-40.8223 558.535 73.9373 565.235 215.5 565.235Z" fill="#D5E8D8"/>
<path d="M68.4932 241.531L69.2335 253.244L76.5309 253.495L78.4346 242.073L68.4932 241.531Z" fill="#AE7461"/>
<path d="M136.18 220.021C134.171 226.287 131.963 232.315 129.504 238.383C127.03 244.555 124.205 250.58 121.043 256.428L119.721 258.702L118.24 261.016C118.095 261.227 118.042 261.346 117.831 261.637C117.619 261.928 117.447 262.179 117.236 262.444C116.823 262.983 116.382 263.499 115.914 263.99C114.876 265.049 113.681 265.941 112.371 266.634C109.868 267.907 107.068 268.478 104.267 268.287C102.039 268.114 99.852 267.587 97.7891 266.727C96.0059 266.014 94.2968 265.129 92.6862 264.083C91.1653 263.135 89.708 262.088 88.3236 260.95C86.9831 259.857 85.6991 258.696 84.4765 257.473C83.2291 256.258 82.0465 254.978 80.9336 253.639L86.2216 247.928C87.4114 248.629 88.773 249.475 90.0554 250.202C91.3377 250.929 92.6994 251.603 94.0214 252.264C96.4281 253.488 98.9706 254.425 101.596 255.054C102.537 255.243 103.502 255.274 104.452 255.146C105.179 255.04 105.457 254.802 105.549 254.631L105.748 254.3L105.893 254.009L105.985 253.824L106.184 253.428L107.136 251.63L108.074 249.673C110.52 244.319 112.767 238.489 114.909 232.646C117.051 226.802 119.205 220.84 121.281 215.023L136.18 220.021Z" fill="#AE7461"/>
<path d="M86.4595 248.099L78.4481 242.07L76.5312 253.492C76.5312 253.492 83.1413 258.542 87.874 254.14L86.4595 248.099Z" fill="#AE7461"/>
<path d="M143.146 209.434C146.504 218.317 128.723 249.966 128.723 249.966L106.395 242.365C106.395 242.365 114.327 220.657 121.148 210.452C128.247 199.968 139.471 199.624 143.146 209.434Z" fill="#58B368"/>
<path opacity="0.3" d="M143.146 209.434C146.504 218.317 128.723 249.966 128.723 249.966L106.395 242.365C106.395 242.365 114.327 220.657 121.148 210.452C128.247 199.968 139.471 199.624 143.146 209.434Z" fill="black"/>
<path d="M131.354 202.624C131.354 202.624 119.615 224.82 130.759 280.701H183.917C184.287 272.545 179.158 240.565 187.024 202.122C181.148 200.984 175.204 200.233 169.23 199.874C161.705 199.438 154.161 199.438 146.637 199.874C141.479 200.393 136.369 201.312 131.354 202.624V202.624Z" fill="#58B368"/>
<path opacity="0.3" d="M131.354 202.624C131.354 202.624 119.615 224.82 130.759 280.701H183.917C184.287 272.545 179.158 240.565 187.024 202.122C181.148 200.984 175.204 200.233 169.23 199.874C161.705 199.438 154.161 199.438 146.637 199.874C141.479 200.393 136.369 201.312 131.354 202.624V202.624Z" fill="black"/>
<path d="M197.627 541.546H187.91L186.072 519.059H195.776L197.627 541.546Z" fill="#AE7461"/>
<path d="M186.072 519.07L187.024 530.651H196.741L195.789 519.07H186.072Z" fill="#6F4439"/>
<path d="M140.515 541.546H130.812L130.481 519.059H140.198L140.515 541.546Z" fill="#AE7461"/>
<path d="M130.481 519.07L130.653 530.651H140.37L140.198 519.07H130.481Z" fill="#6F4439"/>
<path d="M130.759 280.699C130.759 280.699 123.621 371.811 122.285 402.112C120.897 433.615 127.507 527.874 127.507 527.874H143.305C143.305 527.874 149.069 440.45 151.779 409.594C154.74 375.963 165.7 280.699 165.7 280.699H130.759Z" fill="#58B368"/>
<path opacity="0.7" d="M130.759 280.699C130.759 280.699 123.621 371.811 122.285 402.112C120.897 433.615 127.507 527.874 127.507 527.874H143.305C143.305 527.874 149.069 440.45 151.779 409.594C154.74 375.963 165.7 280.699 165.7 280.699H130.759Z" fill="black"/>
<path d="M187.54 540.422H198.116C198.31 540.423 198.499 540.491 198.65 540.613C198.801 540.736 198.907 540.906 198.948 541.096L200.865 549.729C200.911 549.937 200.909 550.153 200.86 550.36C200.811 550.568 200.715 550.762 200.58 550.927C200.445 551.092 200.275 551.225 200.082 551.315C199.888 551.405 199.677 551.45 199.464 551.447C195.643 551.381 190.118 551.157 185.305 551.157C179.687 551.157 178.907 551.474 172.31 551.474C168.344 551.474 167.207 547.508 168.886 547.072C176.474 545.406 178.603 545.234 185.173 541.189C185.873 540.713 186.694 540.447 187.54 540.422V540.422Z" fill="#454C62"/>
<path d="M130.429 540.422H141.005C141.199 540.421 141.387 540.488 141.536 540.611C141.686 540.735 141.788 540.906 141.825 541.096L143.755 549.729C143.801 549.937 143.799 550.153 143.75 550.36C143.7 550.568 143.605 550.762 143.47 550.927C143.335 551.092 143.165 551.225 142.971 551.315C142.778 551.405 142.567 551.45 142.354 551.447C138.52 551.381 132.994 551.157 128.195 551.157C122.563 551.157 117.712 551.474 111.115 551.474C107.149 551.474 106.025 547.508 107.691 547.072C115.292 545.406 121.493 545.234 128.063 541.189C128.762 540.711 129.583 540.445 130.429 540.422Z" fill="#454C62"/>
<path d="M126.423 541.916C125.763 542.074 125.069 542.005 124.453 541.718C124.247 541.602 124.076 541.433 123.957 541.228C123.839 541.023 123.777 540.791 123.779 540.554C123.757 540.42 123.773 540.282 123.824 540.156C123.876 540.03 123.961 539.921 124.07 539.84C125.048 539.113 128.538 540.554 128.935 540.726C128.976 540.745 129.011 540.775 129.037 540.812C129.062 540.849 129.077 540.892 129.08 540.938C129.078 540.985 129.064 541.03 129.038 541.07C129.013 541.109 128.977 541.141 128.935 541.162C128.126 541.5 127.284 541.753 126.423 541.916V541.916ZM124.638 540.118C124.534 540.126 124.433 540.163 124.348 540.224C124.281 540.224 124.229 540.329 124.242 540.515C124.247 540.673 124.29 540.828 124.368 540.967C124.447 541.105 124.558 541.222 124.691 541.308C125.868 541.638 127.126 541.505 128.208 540.938C127.082 540.438 125.87 540.159 124.638 540.118Z" fill="#58B368"/>
<path d="M128.882 541.176H128.763C127.653 540.78 125.352 538.942 125.392 537.819C125.396 537.642 125.462 537.473 125.578 537.34C125.694 537.207 125.853 537.119 126.027 537.092C126.201 537.043 126.384 537.031 126.564 537.056C126.744 537.081 126.916 537.142 127.071 537.237C128.393 537.99 129.041 540.78 129.067 540.899C129.08 540.939 129.08 540.981 129.068 541.021C129.056 541.061 129.033 541.097 129.001 541.124C128.967 541.151 128.926 541.169 128.882 541.176V541.176ZM126.238 537.501H126.132C125.842 537.594 125.842 537.726 125.828 537.792C125.828 538.453 127.322 539.881 128.472 540.436C128.226 539.33 127.655 538.321 126.833 537.541C126.653 537.465 126.453 537.451 126.265 537.501H126.238Z" fill="#58B368"/>
<path d="M146.346 528.27H126.741L125.035 520.867L146.69 521.251L146.346 528.27Z" fill="#58B368"/>
<path d="M183.533 541.916C182.873 542.074 182.179 542.005 181.564 541.718C181.365 541.593 181.2 541.422 181.083 541.219C180.965 541.017 180.899 540.788 180.889 540.554C180.868 540.42 180.883 540.282 180.935 540.156C180.986 540.03 181.071 539.921 181.18 539.84C182.172 539.113 185.649 540.554 186.045 540.726C186.088 540.742 186.125 540.771 186.151 540.809C186.177 540.847 186.191 540.892 186.191 540.938C186.192 540.985 186.178 541.032 186.153 541.072C186.127 541.112 186.089 541.144 186.045 541.162C185.237 541.5 184.395 541.753 183.533 541.916V541.916ZM181.749 540.118C181.645 540.129 181.545 540.165 181.458 540.224C181.415 540.257 181.382 540.302 181.363 540.354C181.344 540.405 181.341 540.461 181.352 540.515C181.357 540.673 181.401 540.828 181.479 540.967C181.557 541.105 181.668 541.222 181.802 541.308C182.978 541.638 184.236 541.505 185.318 540.938C184.192 540.438 182.98 540.159 181.749 540.118Z" fill="#58B368"/>
<path d="M185.993 541.173H185.874C184.776 540.776 182.463 538.939 182.502 537.815C182.51 537.637 182.578 537.468 182.696 537.335C182.814 537.203 182.975 537.115 183.15 537.088C183.322 537.036 183.504 537.022 183.682 537.047C183.86 537.072 184.03 537.136 184.181 537.233C185.503 537.987 186.151 540.776 186.178 540.895C186.199 540.929 186.21 540.968 186.21 541.008C186.21 541.047 186.199 541.086 186.178 541.12C186.125 541.16 186.059 541.179 185.993 541.173V541.173ZM183.349 537.498H183.256C182.952 537.59 182.952 537.722 182.952 537.788C182.952 538.449 184.433 539.877 185.596 540.432C185.345 539.325 184.77 538.317 183.943 537.537C183.764 537.461 183.564 537.447 183.375 537.498H183.349Z" fill="#58B368"/>
<path d="M149.624 280.699C149.624 280.699 154.132 369.762 160.319 398.212C167.101 429.371 181.907 527.874 181.907 527.874H200.098C200.098 527.874 194.004 431.883 190.13 401.041C185.939 367.555 183.917 280.739 183.917 280.739L149.624 280.699Z" fill="#58B368"/>
<path opacity="0.7" d="M149.624 280.699C149.624 280.699 154.132 369.762 160.319 398.212C167.101 429.371 181.907 527.874 181.907 527.874H200.098C200.098 527.874 194.004 431.883 190.13 401.041C185.939 367.555 183.917 280.739 183.917 280.739L149.624 280.699Z" fill="black"/>
<path d="M192.761 517.126C192.782 517.122 192.802 517.115 192.82 517.104C192.838 517.093 192.854 517.078 192.866 517.061C192.879 517.044 192.887 517.024 192.892 517.004C192.897 516.983 192.897 516.961 192.893 516.941C192.748 516.015 188.293 429.874 184.816 402.165C181.048 372.089 179.872 292.293 179.792 291.619C179.783 291.575 179.757 291.535 179.721 291.508C179.684 291.482 179.639 291.469 179.594 291.473C179.572 291.475 179.55 291.481 179.531 291.492C179.511 291.502 179.494 291.516 179.48 291.534C179.466 291.551 179.457 291.571 179.451 291.593C179.446 291.614 179.445 291.637 179.449 291.659C179.528 292.333 180.771 372.129 184.485 402.204C187.962 429.966 192.417 516.068 192.563 516.993C192.572 517.037 192.598 517.075 192.635 517.1C192.672 517.124 192.717 517.134 192.761 517.126V517.126Z" fill="#58B368"/>
<path opacity="0.4" d="M192.761 517.126C192.782 517.122 192.802 517.115 192.82 517.104C192.838 517.093 192.854 517.078 192.866 517.061C192.879 517.044 192.887 517.024 192.892 517.004C192.897 516.983 192.897 516.961 192.893 516.941C192.748 516.015 188.293 429.874 184.816 402.165C181.048 372.089 179.872 292.293 179.792 291.619C179.783 291.575 179.757 291.535 179.721 291.508C179.684 291.482 179.639 291.469 179.594 291.473C179.572 291.475 179.55 291.481 179.531 291.492C179.511 291.502 179.494 291.516 179.48 291.534C179.466 291.551 179.457 291.571 179.451 291.593C179.446 291.614 179.445 291.637 179.449 291.659C179.528 292.333 180.771 372.129 184.485 402.204C187.962 429.966 192.417 516.068 192.563 516.993C192.572 517.037 192.598 517.075 192.635 517.1C192.672 517.124 192.717 517.134 192.761 517.126V517.126Z" fill="black"/>
<path d="M200.812 528.273H181.194L179.488 520.87L201.196 520.262L200.812 528.273Z" fill="#58B368"/>
<path d="M166.995 174.426C165.568 181.697 164.14 195.023 169.229 199.874C169.229 199.874 166.942 204.752 153.432 204.752C141.084 204.752 146.636 199.874 146.636 199.874C154.74 197.931 154.568 191.942 153.128 186.271L166.995 174.426Z" fill="#AE7461"/>
<path d="M161.298 179.266L153.088 186.272C153.44 187.571 153.674 188.898 153.789 190.238C156.433 192.75 161.139 186.391 161.469 183.152C161.644 181.857 161.586 180.541 161.298 179.266Z" fill="#6F4439"/>
<path d="M142.141 152.269C137.726 155.217 137.66 169.177 144.402 171.107C151.144 173.037 150.51 146.743 142.141 152.269Z" fill="#454C62"/>
<path d="M167.907 163.49C167.312 173.326 167.458 179.117 162.487 184.18C155.005 191.781 142.855 187.26 140.502 177.438C138.387 168.593 139.736 153.985 149.373 150.059C151.494 149.184 153.803 148.866 156.082 149.136C158.36 149.406 160.532 150.255 162.389 151.601C164.247 152.947 165.73 154.747 166.695 156.828C167.661 158.909 168.078 161.203 167.907 163.49V163.49Z" fill="#AE7461"/>
<path d="M171.318 151.078L161.813 155.335C165.541 162.289 157.159 174.028 165.607 172.746C169.48 172.151 181.696 160.068 171.318 151.078Z" fill="#454C62"/>
<path d="M168.859 168.912C166.506 168.37 159.182 166.862 159.103 166.849C159.048 166.837 159 166.804 158.968 166.757C158.936 166.711 158.923 166.654 158.931 166.598C158.936 166.57 158.946 166.543 158.961 166.519C158.977 166.495 158.997 166.475 159.02 166.459C159.044 166.443 159.07 166.432 159.098 166.426C159.126 166.42 159.154 166.42 159.182 166.426C159.262 166.426 166.599 167.947 168.965 168.489C169.021 168.489 169.075 168.511 169.115 168.55C169.154 168.59 169.177 168.644 169.177 168.7C169.177 168.756 169.154 168.81 169.115 168.85C169.075 168.889 169.021 168.912 168.965 168.912H168.859Z" fill="#454C62"/>
<path d="M172.31 174.332C171.656 175.373 170.804 176.274 169.801 176.984C168.798 177.694 167.665 178.199 166.467 178.47C163.254 179.184 161.827 176.262 162.871 173.327C163.823 170.683 166.625 167.141 169.772 167.749C170.456 167.896 171.093 168.211 171.625 168.666C172.158 169.121 172.568 169.701 172.82 170.354C173.072 171.008 173.157 171.713 173.068 172.408C172.979 173.102 172.718 173.764 172.31 174.332Z" fill="#AE7461"/>
<path d="M153.537 166.243C153.537 167.036 153.101 167.684 152.586 167.684C152.07 167.684 151.634 167.036 151.634 166.243C151.634 165.45 152.057 164.789 152.586 164.789C153.114 164.789 153.537 165.437 153.537 166.243Z" fill="#454C62"/>
<path d="M144.469 166.243C144.469 167.036 144.046 167.684 143.517 167.684C142.988 167.684 142.578 167.036 142.578 166.243C142.578 165.45 143.001 164.789 143.517 164.789C144.032 164.789 144.469 165.437 144.469 166.243Z" fill="#454C62"/>
<path d="M146.755 166.641C145.8 169.087 144.515 171.391 142.935 173.489C143.479 173.883 144.103 174.153 144.764 174.278C145.424 174.404 146.104 174.383 146.755 174.216V166.641Z" fill="#6F4439"/>
<path d="M147.946 177.639C147.915 177.637 147.884 177.629 147.856 177.616C147.827 177.602 147.802 177.583 147.781 177.56C147.76 177.537 147.744 177.509 147.734 177.48C147.724 177.45 147.719 177.419 147.721 177.388C147.721 177.357 147.727 177.327 147.739 177.299C147.751 177.27 147.769 177.245 147.792 177.224C147.814 177.203 147.84 177.187 147.869 177.176C147.898 177.166 147.928 177.161 147.959 177.163C148.956 177.227 149.954 177.056 150.873 176.663C151.791 176.27 152.605 175.667 153.247 174.902C153.284 174.852 153.339 174.818 153.4 174.806C153.461 174.793 153.524 174.804 153.578 174.836C153.62 174.881 153.644 174.94 153.644 175.002C153.644 175.063 153.62 175.122 153.578 175.167C152.902 175.996 152.039 176.653 151.06 177.082C150.081 177.512 149.013 177.703 147.946 177.639V177.639Z" fill="#454C62"/>
<path d="M157.622 159.488C157.552 159.496 157.48 159.487 157.413 159.462C157.347 159.436 157.287 159.395 157.239 159.343C156.859 158.886 156.375 158.527 155.827 158.297C155.28 158.067 154.685 157.972 154.093 158.021C153.969 158.036 153.844 158.004 153.743 157.93C153.642 157.856 153.573 157.747 153.551 157.624C153.531 157.501 153.561 157.376 153.632 157.275C153.704 157.174 153.812 157.105 153.934 157.082C154.675 157.014 155.421 157.124 156.111 157.402C156.8 157.68 157.414 158.119 157.9 158.682C157.986 158.77 158.034 158.889 158.034 159.012C158.034 159.135 157.986 159.254 157.9 159.343C157.824 159.418 157.728 159.469 157.622 159.488V159.488Z" fill="#454C62"/>
<path d="M175.229 226.298L159.704 225.777L159.662 227.046L175.186 227.566L175.229 226.298Z" fill="#B3C8B6"/>
<path d="M140.436 159.394C140.368 159.372 140.305 159.336 140.251 159.288C140.164 159.197 140.116 159.076 140.116 158.951C140.116 158.825 140.164 158.705 140.251 158.614C140.765 158.071 141.402 157.659 142.108 157.413C142.814 157.167 143.569 157.094 144.309 157.199C144.377 157.204 144.443 157.223 144.503 157.255C144.562 157.287 144.614 157.331 144.656 157.385C144.697 157.439 144.726 157.501 144.741 157.567C144.757 157.633 144.758 157.701 144.744 157.767C144.731 157.834 144.704 157.897 144.664 157.952C144.625 158.007 144.574 158.053 144.515 158.086C144.457 158.12 144.391 158.141 144.324 158.148C144.257 158.154 144.189 158.146 144.124 158.125V158.125C143.538 158.051 142.943 158.117 142.387 158.317C141.831 158.517 141.33 158.845 140.925 159.275C140.862 159.337 140.783 159.381 140.697 159.402C140.611 159.423 140.521 159.42 140.436 159.394V159.394Z" fill="#454C62"/>
<path d="M150.312 151.079C150.312 151.079 150.021 143.411 157.768 143.808C163.783 144.112 175.06 152.837 178.59 151.079C178.59 151.079 171.98 158.879 163.281 156.367C158.743 155.187 154.381 153.409 150.312 151.079V151.079Z" fill="#454C62"/>
<path d="M150.312 151.077C150.312 151.077 156.816 147.111 152.507 144.851C146.24 141.598 138.705 153.417 135.188 151.659C135.188 151.659 135.955 157.277 144.35 153.986C146.409 153.17 148.402 152.197 150.312 151.077Z" fill="#454C62"/>
<path d="M153.537 173.01C150.338 173.01 147.733 169.758 147.733 165.765C147.733 162.222 149.796 160.266 153.537 160.266C157.278 160.266 159.354 162.222 159.354 165.765C159.354 169.758 156.749 173.01 153.537 173.01ZM153.537 160.689C151.091 160.689 148.156 161.574 148.156 165.765C148.156 169.52 150.576 172.573 153.537 172.573C156.498 172.573 158.918 169.52 158.918 165.765C158.918 161.574 156.009 160.689 153.537 160.689V160.689Z" fill="#454C62"/>
<path d="M140.423 173.01C137.779 173.01 135.545 169.758 135.545 165.765C135.545 160.979 138.599 160.266 140.423 160.266C142.247 160.266 145.301 160.979 145.301 165.765C145.301 169.758 143.12 173.01 140.423 173.01ZM140.423 160.689C138.387 160.689 135.968 161.574 135.968 165.765C135.968 169.52 137.964 172.573 140.423 172.573C142.882 172.573 144.878 169.52 144.878 165.765C144.878 161.574 142.459 160.689 140.423 160.689V160.689Z" fill="#454C62"/>
<path d="M144.693 163.425C144.656 163.426 144.619 163.416 144.586 163.397C144.554 163.379 144.527 163.352 144.508 163.32C144.492 163.296 144.481 163.269 144.476 163.241C144.472 163.212 144.473 163.184 144.481 163.156C144.488 163.128 144.502 163.103 144.52 163.081C144.538 163.059 144.561 163.041 144.587 163.029C145.187 162.67 145.872 162.48 146.57 162.48C147.269 162.48 147.954 162.67 148.553 163.029C148.602 163.057 148.639 163.102 148.657 163.156C148.674 163.21 148.67 163.268 148.646 163.32C148.633 163.345 148.616 163.368 148.594 163.387C148.572 163.405 148.547 163.419 148.52 163.428C148.493 163.436 148.464 163.44 148.436 163.437C148.408 163.434 148.38 163.426 148.355 163.412C147.824 163.087 147.213 162.916 146.59 162.916C145.967 162.916 145.357 163.087 144.825 163.412L144.693 163.425Z" fill="#454C62"/>
<path d="M156.194 203.338C156.194 203.338 159.605 208.11 160.266 211.561C164.338 209.869 172.045 205.638 173.076 199.663C171.589 199.192 170.17 198.525 168.859 197.68C168.859 197.68 164.748 201.17 156.194 203.338Z" fill="#CBE2CF"/>
<path d="M153.445 203.113C151.32 205.145 149.926 207.822 149.479 210.728C145.407 209.036 143.808 203.51 144.878 199.848C146.424 199.144 148.042 198.612 149.704 198.262C149.643 199.384 149.987 200.492 150.673 201.382C151.36 202.273 152.343 202.887 153.445 203.113Z" fill="#CBE2CF"/>
<path d="M179.144 200.324L176.632 200.099C176.513 200.09 176.394 200.126 176.299 200.199C176.204 200.272 176.139 200.378 176.117 200.496C169.123 238.001 173.05 277.819 173.05 277.819H175.839C174.317 252.111 175.585 226.314 179.62 200.879C179.629 200.81 179.624 200.741 179.605 200.675C179.585 200.608 179.552 200.547 179.507 200.494C179.462 200.442 179.406 200.4 179.344 200.37C179.281 200.341 179.213 200.325 179.144 200.324V200.324Z" fill="#58B368"/>
<path opacity="0.7" d="M179.144 200.324L176.632 200.099C176.513 200.09 176.394 200.126 176.299 200.199C176.204 200.272 176.139 200.378 176.117 200.496C169.123 238.001 173.05 277.819 173.05 277.819H175.839C174.317 252.111 175.585 226.314 179.62 200.879C179.629 200.81 179.624 200.741 179.605 200.675C179.585 200.608 179.552 200.547 179.507 200.494C179.462 200.442 179.406 200.4 179.344 200.37C179.281 200.341 179.213 200.325 179.144 200.324V200.324Z" fill="black"/>
<path d="M175.324 278.707H173.407C173.172 278.707 172.947 278.613 172.781 278.447C172.615 278.281 172.521 278.056 172.521 277.821V277.821C172.521 277.585 172.614 277.358 172.78 277.19C172.946 277.022 173.171 276.925 173.407 276.922H175.324C175.561 276.925 175.788 277.021 175.956 277.189C176.124 277.357 176.22 277.583 176.223 277.821V277.821C176.22 278.057 176.123 278.282 175.955 278.448C175.787 278.614 175.56 278.707 175.324 278.707V278.707Z" fill="#B3C8B6"/>
<path d="M173.195 281.046V278.535C173.195 278.381 173.226 278.228 173.285 278.086C173.344 277.944 173.431 277.815 173.541 277.707C173.65 277.599 173.78 277.514 173.923 277.456C174.065 277.398 174.218 277.369 174.372 277.371C174.68 277.371 174.976 277.494 175.195 277.712C175.413 277.93 175.535 278.226 175.535 278.535V281.046C175.532 281.354 175.408 281.648 175.191 281.865C174.973 282.083 174.679 282.206 174.372 282.21V282.21C174.062 282.21 173.765 282.088 173.545 281.87C173.324 281.652 173.199 281.356 173.195 281.046Z" fill="#B3C8B6"/>
<path d="M137.066 200.826L134.58 201.288C134.478 201.307 134.384 201.359 134.312 201.435C134.241 201.511 134.196 201.608 134.184 201.711C128.896 239.23 134.699 277.819 134.699 277.819H137.502C133.364 236.982 137.039 206.206 137.674 201.368C137.689 201.287 137.683 201.204 137.656 201.126C137.63 201.049 137.584 200.98 137.522 200.925C137.461 200.871 137.387 200.833 137.307 200.815C137.227 200.798 137.144 200.801 137.066 200.826V200.826Z" fill="#58B368"/>
<path opacity="0.7" d="M137.066 200.826L134.58 201.288C134.478 201.307 134.384 201.359 134.312 201.435C134.241 201.511 134.196 201.608 134.184 201.711C128.896 239.23 134.699 277.819 134.699 277.819H137.502C133.364 236.982 137.039 206.206 137.674 201.368C137.689 201.287 137.683 201.204 137.656 201.126C137.63 201.049 137.584 200.98 137.522 200.925C137.461 200.871 137.387 200.833 137.307 200.815C137.227 200.798 137.144 200.801 137.066 200.826V200.826Z" fill="black"/>
<path d="M137.012 278.707H135.095C134.856 278.704 134.627 278.611 134.453 278.447C134.279 278.283 134.173 278.059 134.157 277.821V277.821C134.153 277.705 134.173 277.59 134.214 277.482C134.256 277.374 134.318 277.275 134.398 277.191C134.478 277.108 134.574 277.041 134.68 276.995C134.786 276.948 134.9 276.924 135.016 276.922H136.933C137.173 276.925 137.402 277.02 137.574 277.187C137.747 277.354 137.848 277.581 137.858 277.821V277.821C137.866 277.936 137.849 278.051 137.81 278.159C137.77 278.267 137.709 278.366 137.629 278.449C137.55 278.532 137.454 278.598 137.348 278.643C137.241 278.687 137.127 278.709 137.012 278.707Z" fill="#B3C8B6"/>
<path d="M134.989 281.046L134.87 278.535C134.863 278.383 134.887 278.232 134.94 278.09C134.994 277.948 135.076 277.819 135.181 277.71C135.286 277.601 135.413 277.515 135.552 277.457C135.692 277.398 135.843 277.369 135.994 277.371C136.307 277.374 136.607 277.496 136.833 277.712C137.058 277.928 137.194 278.222 137.21 278.535L137.329 281.046C137.336 281.197 137.313 281.347 137.26 281.488C137.208 281.628 137.127 281.757 137.023 281.866C136.92 281.975 136.795 282.061 136.656 282.12C136.518 282.179 136.369 282.21 136.219 282.21V282.21C135.905 282.207 135.604 282.086 135.375 281.87C135.147 281.654 135.009 281.36 134.989 281.046V281.046Z" fill="#B3C8B6"/>
<path d="M163.083 231.351C162.891 231.338 162.712 231.25 162.584 231.107C162.455 230.964 162.388 230.777 162.395 230.585L162.765 223.975C162.769 223.878 162.791 223.784 162.832 223.697C162.873 223.61 162.931 223.532 163.002 223.468C163.074 223.403 163.158 223.354 163.249 223.323C163.34 223.292 163.436 223.28 163.532 223.287C163.628 223.292 163.721 223.316 163.807 223.357C163.894 223.399 163.971 223.457 164.035 223.528C164.099 223.599 164.148 223.682 164.18 223.772C164.211 223.863 164.225 223.958 164.219 224.054L163.849 230.664C163.846 230.76 163.823 230.855 163.783 230.942C163.742 231.029 163.684 231.107 163.612 231.171C163.541 231.235 163.457 231.284 163.366 231.315C163.275 231.346 163.178 231.359 163.083 231.351V231.351Z" fill="#58B368"/>
<path d="M165.343 233.73C165.284 233.73 165.225 233.718 165.171 233.694C165.117 233.671 165.069 233.636 165.029 233.592C164.989 233.549 164.959 233.497 164.94 233.441C164.921 233.385 164.914 233.326 164.92 233.267L165.369 223.854C165.376 223.734 165.43 223.621 165.519 223.54C165.607 223.458 165.725 223.415 165.845 223.418C165.904 223.422 165.962 223.437 166.015 223.462C166.069 223.488 166.116 223.524 166.156 223.568C166.195 223.613 166.225 223.664 166.244 223.72C166.264 223.776 166.272 223.835 166.268 223.894L165.819 233.307C165.815 233.366 165.8 233.424 165.775 233.477C165.749 233.53 165.713 233.578 165.669 233.617C165.624 233.656 165.573 233.687 165.517 233.706C165.461 233.725 165.402 233.733 165.343 233.73V233.73Z" fill="#58B368"/>
<path opacity="0.7" d="M163.083 231.351C162.891 231.338 162.712 231.25 162.584 231.107C162.455 230.964 162.388 230.777 162.395 230.585L162.765 223.975C162.769 223.878 162.791 223.784 162.832 223.697C162.873 223.61 162.931 223.532 163.002 223.468C163.074 223.403 163.158 223.354 163.249 223.323C163.34 223.292 163.436 223.28 163.532 223.287C163.628 223.292 163.721 223.316 163.807 223.357C163.894 223.399 163.971 223.457 164.035 223.528C164.099 223.599 164.148 223.682 164.18 223.772C164.211 223.863 164.225 223.958 164.219 224.054L163.849 230.664C163.846 230.76 163.823 230.855 163.783 230.942C163.742 231.029 163.684 231.107 163.612 231.171C163.541 231.235 163.457 231.284 163.366 231.315C163.275 231.346 163.178 231.359 163.083 231.351V231.351Z" fill="black"/>
<path opacity="0.7" d="M165.343 233.73C165.284 233.73 165.225 233.718 165.171 233.694C165.117 233.671 165.069 233.636 165.029 233.592C164.989 233.549 164.959 233.497 164.94 233.441C164.921 233.385 164.914 233.326 164.92 233.267L165.369 223.854C165.376 223.734 165.43 223.621 165.519 223.54C165.607 223.458 165.725 223.415 165.845 223.418C165.904 223.422 165.962 223.437 166.015 223.462C166.069 223.488 166.116 223.524 166.156 223.568C166.195 223.613 166.225 223.664 166.244 223.72C166.264 223.776 166.272 223.835 166.268 223.894L165.819 233.307C165.815 233.366 165.8 233.424 165.775 233.477C165.749 233.53 165.713 233.578 165.669 233.617C165.624 233.656 165.573 233.687 165.517 233.706C165.461 233.725 165.402 233.733 165.343 233.73V233.73Z" fill="black"/>
<path d="M154.251 204.737L156.194 203.336L160.319 207.302L154.251 204.737Z" fill="#58B368"/>
<path opacity="0.5" d="M154.251 204.737L156.194 203.336L160.319 207.302L154.251 204.737Z" fill="black"/>
<path d="M154.251 204.739L153.445 203.113L148.117 207.304L154.251 204.739Z" fill="#58B368"/>
<path opacity="0.5" d="M154.251 204.739L153.445 203.113L148.117 207.304L154.251 204.739Z" fill="black"/>
<path d="M156.103 206.775C158.403 205.916 167.604 198.487 170.221 202.347C172.839 206.207 169.309 207.635 170.459 210.279C171.61 212.923 173.341 217.391 167.564 216.228C161.113 214.906 158.205 210.398 156.34 210.292C156.235 208.732 156.103 206.775 156.103 206.775Z" fill="#58B368"/>
<path opacity="0.7" d="M156.103 206.775C158.403 205.916 167.604 198.487 170.221 202.347C172.839 206.207 169.309 207.635 170.459 210.279C171.61 212.923 173.341 217.391 167.564 216.228C161.113 214.906 158.205 210.398 156.34 210.292C156.235 208.732 156.103 206.775 156.103 206.775Z" fill="black"/>
<path d="M152.44 206.232C150.51 205.412 142.552 198.458 140.622 202.028C138.692 205.597 141.666 206.906 140.86 209.338C140.053 211.771 138.89 215.948 143.57 214.891C148.779 213.728 150.92 209.537 152.44 209.444V206.232Z" fill="#58B368"/>
<path opacity="0.7" d="M152.44 206.232C150.51 205.412 142.552 198.458 140.622 202.028C138.692 205.597 141.666 206.906 140.86 209.338C140.053 211.771 138.89 215.948 143.57 214.891C148.779 213.728 150.92 209.537 152.44 209.444V206.232Z" fill="black"/>
<path d="M156.512 210.489C157.463 208.89 158.098 204.488 156.062 205.268C154.026 206.048 153.801 206.153 153.22 205.77C152.638 205.387 151.118 204.686 150.853 206.299C150.589 207.912 150.986 211.124 152.493 211.058C154 210.992 155.546 212.129 156.512 210.489Z" fill="#58B368"/>
<path opacity="0.7" d="M156.512 210.489C157.463 208.89 158.098 204.488 156.062 205.268C154.026 206.048 153.801 206.153 153.22 205.77C152.638 205.387 151.118 204.686 150.853 206.299C150.589 207.912 150.986 211.124 152.493 211.058C154 210.992 155.546 212.129 156.512 210.489Z" fill="black"/>
<path d="M85.3623 238.914L82.4539 260.436C82.4279 260.605 82.3406 260.757 82.2087 260.864C82.0769 260.972 81.9099 261.027 81.74 261.018L72.486 260.463C72.3163 260.447 72.1583 260.37 72.0415 260.246C71.9247 260.121 71.8571 259.959 71.8514 259.789L71.7853 254.937L71.6135 243.621L71.5342 238.121L85.3623 238.914Z" fill="#58B368"/>
<path opacity="0.3" d="M85.3623 238.914L82.4539 260.436C82.4279 260.605 82.3406 260.757 82.2087 260.864C82.0769 260.972 81.9099 261.027 81.74 261.018L72.486 260.463C72.3163 260.447 72.1583 260.37 72.0415 260.246C71.9247 260.121 71.8571 259.959 71.8514 259.789L71.7853 254.937L71.6135 243.621L71.5342 238.121L85.3623 238.914Z" fill="black"/>
<path d="M86.9336 237.933L70.0557 236.918L69.9248 239.095L86.8027 240.11L86.9336 237.933Z" fill="#58B368"/>
<path d="M85.864 236.777L71.2559 235.898L71.125 238.076L85.7332 238.954L85.864 236.777Z" fill="#58B368"/>
<path d="M85.864 236.777L71.2559 235.898L71.125 238.076L85.7332 238.954L85.864 236.777Z" fill="#D5E8D8"/>
<path d="M86.9336 237.933L70.0557 236.918L69.9248 239.095L86.8027 240.11L86.9336 237.933Z" fill="#CADCCD"/>
<path opacity="0.43" d="M77.0597 243.909L76.3855 255.172L71.6924 254.894L71.5205 243.578L77.0597 243.909Z" fill="#CADCCD"/>
<path d="M205.32 310.669L155.362 309.546C154.713 309.509 154.079 309.337 153.501 309.041C152.922 308.746 152.411 308.333 152.001 307.83C151.591 307.326 151.29 306.742 151.117 306.116C150.945 305.49 150.905 304.834 150.999 304.192L155.137 260.394C155.155 259.753 155.315 259.124 155.604 258.552C155.893 257.98 156.304 257.478 156.809 257.083C157.314 256.688 157.9 256.409 158.525 256.266C159.15 256.123 159.799 256.12 160.425 256.256L209.339 267.466C211.005 267.85 212.195 270.005 211.983 272.252L208.81 306.624C208.572 308.845 207.026 310.669 205.32 310.669Z" fill="#58B368"/>
<path opacity="0.3" d="M205.32 310.669L155.362 309.546C154.713 309.509 154.079 309.337 153.501 309.041C152.922 308.746 152.411 308.333 152.001 307.83C151.591 307.326 151.29 306.742 151.117 306.116C150.945 305.49 150.905 304.834 150.999 304.192L155.137 260.394C155.155 259.753 155.315 259.124 155.604 258.552C155.893 257.98 156.304 257.478 156.809 257.083C157.314 256.688 157.9 256.409 158.525 256.266C159.15 256.123 159.799 256.12 160.425 256.256L209.339 267.466C211.005 267.85 212.195 270.005 211.983 272.252L208.81 306.624C208.572 308.845 207.026 310.669 205.32 310.669Z" fill="white"/>
<path d="M206.245 310.67L156.736 309.546C156.097 309.507 155.472 309.336 154.902 309.043C154.331 308.75 153.828 308.343 153.423 307.846C153.018 307.349 152.721 306.774 152.549 306.156C152.378 305.539 152.336 304.893 152.427 304.258L156.538 260.632C156.549 260 156.699 259.379 156.976 258.811C157.254 258.244 157.652 257.744 158.144 257.347C158.635 256.95 159.208 256.665 159.821 256.513C160.435 256.362 161.074 256.346 161.694 256.468L210.158 267.573C211.824 267.943 213.001 270.098 212.802 272.345L209.643 306.572C209.431 308.872 207.884 310.67 206.245 310.67Z" fill="#58B368"/>
<path opacity="0.7" d="M206.245 310.67L156.736 309.546C156.097 309.507 155.472 309.336 154.902 309.043C154.331 308.75 153.828 308.343 153.423 307.846C153.018 307.349 152.721 306.774 152.549 306.156C152.378 305.539 152.336 304.893 152.427 304.258L156.538 260.632C156.549 260 156.699 259.379 156.976 258.811C157.254 258.244 157.652 257.744 158.144 257.347C158.635 256.95 159.208 256.665 159.821 256.513C160.435 256.362 161.074 256.346 161.694 256.468L210.158 267.573C211.824 267.943 213.001 270.098 212.802 272.345L209.643 306.572C209.431 308.872 207.884 310.67 206.245 310.67Z" fill="white"/>
<path d="M206.431 308.634L156.975 307.021C156.672 307.013 156.375 306.942 156.102 306.812C155.828 306.682 155.585 306.497 155.388 306.267C155.16 305.996 154.989 305.682 154.884 305.344C154.78 305.006 154.744 304.65 154.78 304.298L158.852 261.134C158.882 260.792 158.982 260.459 159.145 260.156C159.309 259.854 159.533 259.588 159.804 259.376C160.048 259.202 160.325 259.08 160.619 259.019C160.912 258.957 161.216 258.957 161.509 259.019L210.04 269.595C210.505 269.791 210.89 270.141 211.131 270.585C211.371 271.03 211.453 271.543 211.362 272.041L208.189 306.532C208.198 307.035 208.026 307.525 207.703 307.911C207.38 308.298 206.928 308.554 206.431 308.634ZM160.993 259.231C160.607 259.23 160.231 259.355 159.923 259.587C159.679 259.776 159.478 260.013 159.332 260.284C159.187 260.555 159.099 260.854 159.077 261.161L154.992 304.324C154.932 304.963 155.126 305.6 155.534 306.095C155.709 306.296 155.924 306.459 156.165 306.573C156.406 306.686 156.668 306.749 156.935 306.756V306.756L206.391 308.383C207.131 308.383 207.805 307.563 207.898 306.545L211.071 272.054C211.159 271.612 211.089 271.153 210.874 270.757C210.659 270.361 210.313 270.053 209.894 269.886L161.377 259.31C161.253 259.267 161.124 259.241 160.993 259.231V259.231Z" fill="white"/>
<path d="M186.006 294.226H185.504C184.729 294.136 183.979 293.893 183.299 293.512C182.618 293.131 182.019 292.619 181.538 292.005C180.108 290.192 179.448 287.889 179.7 285.593C179.775 284.473 180.078 283.379 180.589 282.379C181.1 281.379 181.81 280.494 182.675 279.777C183.28 279.292 183.978 278.937 184.726 278.734C185.475 278.532 186.257 278.486 187.024 278.6C187.864 278.748 188.664 279.07 189.372 279.546C190.08 280.022 190.681 280.641 191.135 281.363C191.147 281.374 191.156 281.388 191.163 281.402C191.169 281.417 191.172 281.433 191.172 281.449C191.172 281.465 191.169 281.481 191.163 281.496C191.156 281.51 191.147 281.524 191.135 281.535C191.124 281.547 191.111 281.556 191.096 281.562C191.081 281.568 191.066 281.572 191.049 281.572C191.033 281.572 191.018 281.568 191.003 281.562C190.988 281.556 190.975 281.547 190.964 281.535C190.52 280.845 189.939 280.253 189.257 279.798C188.574 279.343 187.805 279.034 186.998 278.891C186.265 278.784 185.517 278.829 184.803 279.025C184.089 279.221 183.422 279.562 182.846 280.028C182.011 280.721 181.325 281.576 180.83 282.542C180.334 283.507 180.04 284.564 179.964 285.646C179.721 287.88 180.361 290.119 181.749 291.886C182.703 293.073 184.084 293.837 185.596 294.015C186.394 294.073 187.194 293.958 187.943 293.678C188.691 293.397 189.37 292.957 189.932 292.389C189.957 292.364 189.99 292.351 190.025 292.351C190.06 292.351 190.093 292.364 190.117 292.389C190.139 292.415 190.151 292.447 190.151 292.481C190.151 292.515 190.139 292.548 190.117 292.574C189.575 293.107 188.933 293.527 188.227 293.811C187.521 294.094 186.766 294.236 186.006 294.226V294.226Z" fill="white"/>
<path d="M189.945 292.547C189.911 292.559 189.874 292.559 189.84 292.547C188.691 290.827 188.181 288.76 188.399 286.703C188.56 284.698 189.443 282.819 190.884 281.415C190.91 281.391 190.945 281.378 190.981 281.379C191.017 281.38 191.051 281.396 191.076 281.422C191.1 281.448 191.113 281.483 191.112 281.519C191.111 281.555 191.095 281.589 191.069 281.614C189.649 282.977 188.787 284.819 188.65 286.783C188.446 288.774 188.941 290.775 190.051 292.441C190.065 292.452 190.076 292.466 190.084 292.482C190.091 292.498 190.095 292.516 190.095 292.533C190.095 292.551 190.091 292.569 190.084 292.585C190.076 292.601 190.065 292.615 190.051 292.626L189.945 292.547Z" fill="white"/>
<path d="M196.754 213.898C198.565 220.865 200.138 227.819 201.539 234.879C202.24 238.408 202.861 241.938 203.483 245.521C203.787 247.305 204.091 249.103 204.342 250.928L204.712 253.677L204.924 255.145L205.016 255.845L205.096 256.692C205.379 260.764 205.175 264.856 204.487 268.88C203.895 272.596 203.101 276.277 202.108 279.906C200.188 286.993 197.717 293.92 194.718 300.622L187.315 298.229C188.637 291.407 189.708 284.414 190.567 277.619C190.99 274.221 191.294 270.837 191.453 267.545C191.643 264.504 191.515 261.451 191.069 258.437L190.99 257.961L190.858 257.353L190.606 256.11L190.051 253.611L188.875 248.535L186.416 238.223C184.75 231.388 183.098 224.474 181.551 217.613L196.754 213.898Z" fill="#AE7461"/>
<path d="M195.035 294.953L188.689 295.839L183.586 304.207L181.339 310.592L191.479 310.09L193.911 306.217C193.911 306.217 198.419 300.479 195.035 294.953Z" fill="#AE7461"/>
<path d="M187.023 202.119C197.599 203.997 209.167 243.432 209.167 243.432L184.75 251.774C184.75 251.774 176.606 232.195 178.14 220.046C179.594 208.042 176.989 200.335 187.023 202.119Z" fill="#58B368"/>
<path opacity="0.3" d="M187.023 202.119C197.599 203.997 209.167 243.432 209.167 243.432L184.75 251.774C184.75 251.774 176.606 232.195 178.14 220.046C179.594 208.042 176.989 200.335 187.023 202.119Z" fill="black"/>
<path d="M304.153 187.303C299.619 185.558 287.8 181.341 295.058 167.103C302.316 152.865 320.004 172.299 326.019 165.781C325.226 174.044 318.153 192.684 304.153 187.303Z" fill="#454C62"/>
<path d="M296.035 187.807C290.668 185.097 289.425 182.519 289.069 181.356C289.024 181.193 289.022 181.022 289.061 180.858C289.1 180.694 289.18 180.542 289.293 180.417C290.298 179.28 293.458 176.173 296.168 178.844C298.878 181.514 301.456 181.792 297.331 187.477C297.19 187.677 296.981 187.82 296.744 187.88C296.507 187.941 296.256 187.915 296.035 187.807V187.807Z" fill="#58B368"/>
<path opacity="0.3" d="M296.035 187.807C290.668 185.097 289.425 182.519 289.069 181.356C289.024 181.193 289.022 181.022 289.061 180.858C289.1 180.694 289.18 180.542 289.293 180.417C290.298 179.28 293.458 176.173 296.168 178.844C298.878 181.514 301.456 181.792 297.331 187.477C297.19 187.677 296.981 187.82 296.744 187.88C296.507 187.941 296.256 187.915 296.035 187.807V187.807Z" fill="black"/>
<path d="M287.668 234.51C281.132 234.04 274.572 234.04 268.036 234.51C272.465 230.293 271.222 218.143 269.979 211.824L278.321 218.95L282.036 222.123C281.735 223.244 281.532 224.39 281.428 225.547C281.097 229.446 282.234 233.201 287.668 234.51Z" fill="#AE7461"/>
<path d="M309.123 248.961C309.348 251.367 309.626 254.011 309.956 256.536C310.287 259.061 310.683 261.652 311.106 264.19C311.942 269.242 313.045 274.247 314.411 279.182C315.112 281.614 315.866 284.02 316.738 286.36L317.888 289.348C318.072 289.815 318.351 290.238 318.708 290.591C319.2 290.963 319.786 291.192 320.4 291.252C321.364 291.355 322.338 291.328 323.295 291.172C325.608 290.769 327.866 290.099 330.024 289.176L333.104 293.605C331.995 294.617 330.8 295.532 329.535 296.341C328.253 297.191 326.889 297.908 325.463 298.483C323.876 299.134 322.201 299.544 320.493 299.699C318.37 299.908 316.23 299.525 314.312 298.591C312.393 297.658 310.771 296.211 309.626 294.411C309.115 293.677 308.673 292.899 308.304 292.085L307.431 290.141C306.281 287.497 305.303 284.853 304.43 282.209C302.708 276.935 301.343 271.551 300.345 266.094C299.803 263.45 299.38 260.674 299.023 257.951C298.666 255.227 298.362 252.544 298.19 249.622L309.123 248.961Z" fill="#AE7461"/>
<path d="M305.673 236.641C310.062 237.751 313.129 255.81 313.129 255.81L301.033 264.033C301.033 264.033 289.439 245.816 292.81 241.003C296.327 235.993 299.261 235.041 305.673 236.641Z" fill="#58B368"/>
<path opacity="0.7" d="M305.673 236.641C310.062 237.751 313.129 255.81 313.129 255.81L301.033 264.033C301.033 264.033 289.439 245.816 292.81 241.003C296.327 235.993 299.261 235.041 305.673 236.641Z" fill="black"/>
<path d="M350.29 268.459L332.351 265.59L331.439 269.291L322.502 288.659L340.442 291.527L349.378 272.16L350.29 268.459Z" fill="#454C62"/>
<path d="M351.309 268.63L333.369 265.762L332.457 269.45L323.521 288.831L341.46 291.699L350.397 272.319L351.309 268.63Z" fill="#58B368"/>
<path d="M332.656 293.87L341.13 287.26L330.554 285.039C330.554 285.039 326.099 290.221 327.698 294.293L332.656 293.87Z" fill="#AE7461"/>
<path d="M343.285 278.56L334.308 277.172L330.527 285.025L341.13 287.246L343.285 278.56Z" fill="#AE7461"/>
<path d="M305.674 236.641C305.674 236.641 310.737 238.426 300.584 300.903H257.341C258.069 283.294 258.082 272.454 249.674 236.337C255.73 235.114 261.867 234.332 268.036 233.997C274.572 233.527 281.133 233.527 287.668 233.997C296.142 234.711 305.674 236.641 305.674 236.641Z" fill="#58B368"/>
<path opacity="0.7" d="M305.674 236.641C305.674 236.641 310.737 238.426 300.584 300.903H257.341C258.069 283.294 258.082 272.454 249.674 236.337C255.73 235.114 261.867 234.332 268.036 233.997C274.572 233.527 281.133 233.527 287.668 233.997C296.142 234.711 305.674 236.641 305.674 236.641Z" fill="black"/>
<path d="M281.573 540.593H292.215L293.643 515.938H283.001L281.573 540.593Z" fill="#AE7461"/>
<path d="M233.135 540.593H243.777L248.351 515.938H237.709L233.135 540.593Z" fill="#AE7461"/>
<path d="M244.861 539.379H232.963C232.758 539.377 232.559 539.45 232.403 539.584C232.248 539.718 232.146 539.903 232.117 540.107L230.795 549.572C230.769 549.811 230.794 550.053 230.868 550.282C230.942 550.51 231.063 550.721 231.224 550.9C231.385 551.078 231.582 551.22 231.802 551.317C232.022 551.415 232.26 551.464 232.501 551.463C236.665 551.396 238.674 551.145 243.936 551.145C247.175 551.145 251.868 551.489 256.376 551.489C260.884 551.489 261.082 547.06 259.218 546.664C250.876 544.866 249.554 542.394 246.752 540.054C246.225 539.605 245.553 539.366 244.861 539.379V539.379Z" fill="#454C62"/>
<path d="M292.942 539.379H280.978C280.772 539.374 280.571 539.446 280.415 539.58C280.259 539.714 280.158 539.902 280.132 540.106L278.81 549.572C278.784 549.811 278.808 550.053 278.882 550.281C278.956 550.51 279.078 550.721 279.239 550.899C279.4 551.078 279.597 551.22 279.817 551.317C280.037 551.414 280.275 551.464 280.515 551.462C284.68 551.396 286.689 551.145 291.951 551.145C295.189 551.145 301.879 551.489 306.347 551.489C310.815 551.489 311.053 547.06 309.203 546.663C300.848 544.865 297.569 542.393 294.753 540.053C294.25 539.618 293.607 539.379 292.942 539.379V539.379Z" fill="#454C62"/>
<path d="M293.643 515.953L292.903 528.658H282.261L283.001 515.953H293.643Z" fill="#6F4439"/>
<path d="M237.709 515.953H248.351L245.998 528.658H235.343L237.709 515.953Z" fill="#6F4439"/>
<path d="M269.9 230.742C268.465 231.401 267.229 232.427 266.317 233.717C267.362 235.422 275.413 238.608 277.594 238.41C277.515 236.677 278.044 234.97 279.088 233.584C279.088 233.584 273.483 233.399 269.9 230.742Z" fill="#58B368"/>
<path d="M282.921 231.02C284.376 231.649 285.717 232.515 286.887 233.584C286.438 235.038 282.921 237.682 281.388 238.264C281.079 236.51 280.266 234.884 279.048 233.584C280.517 233.035 281.842 232.158 282.921 231.02V231.02Z" fill="#58B368"/>
<path d="M300.584 300.93C300.584 300.93 308.978 382.894 308.278 415.402C307.551 449.179 295.177 526.198 295.177 526.198H280.78C280.78 526.198 283.067 451.149 281.785 417.98C280.397 381.823 268.922 300.93 268.922 300.93H300.584Z" fill="#3D455E"/>
<path d="M289.161 300.93C289.161 300.93 282.988 373.997 276.576 415.177C271.394 448.438 248.431 526.225 248.431 526.225H233.889C233.889 526.225 245.866 451.135 248.431 418.231C255.041 334.945 243.42 320.244 257.275 300.956L289.161 300.93Z" fill="#454D66"/>
<path opacity="0.57" d="M279.264 267.038L285.038 267.242C287.73 267.337 289.99 265.231 290.085 262.539L290.28 257.003C290.375 254.311 288.27 252.051 285.577 251.956L279.804 251.752C277.111 251.657 274.851 253.763 274.756 256.456L274.561 261.991C274.466 264.684 276.572 266.944 279.264 267.038Z" fill="#58B368"/>
<path d="M282.036 222.098C281.735 223.22 281.532 224.366 281.428 225.522C278.532 225.02 274.738 222.151 274.448 219.415C274.272 218.279 274.326 217.119 274.606 216.004L278.321 218.926L282.036 222.098Z" fill="#6F4439"/>
<path d="M266.555 197.454C267.203 208.03 267.256 212.472 272.583 217.893C280.595 226.036 293.405 222.929 295.917 212.406C298.19 202.928 296.749 187.288 286.425 183.071C284.152 182.133 281.678 181.792 279.236 182.08C276.795 182.368 274.467 183.276 272.476 184.718C270.484 186.159 268.895 188.086 267.859 190.316C266.822 192.545 266.373 195.003 266.555 197.454V197.454Z" fill="#AE7461"/>
<path d="M264.903 201.977C264.856 201.991 264.805 201.991 264.758 201.977C264.718 201.96 264.682 201.935 264.652 201.904C264.622 201.872 264.598 201.835 264.584 201.794C264.569 201.753 264.562 201.709 264.565 201.666C264.568 201.622 264.579 201.58 264.599 201.541C265.921 198.818 276.59 196.954 277.819 196.742C281.278 196.25 284.783 196.161 288.263 196.478C288.676 196.282 289.128 196.18 289.585 196.18C290.042 196.18 290.494 196.282 290.907 196.478C293.165 196.227 295.444 196.227 297.702 196.478C297.746 196.481 297.789 196.493 297.829 196.514C297.868 196.535 297.902 196.563 297.93 196.598C297.957 196.633 297.977 196.673 297.988 196.716C297.999 196.759 298 196.804 297.993 196.848C297.98 196.933 297.934 197.01 297.864 197.062C297.795 197.114 297.708 197.137 297.623 197.126C295.386 196.88 293.13 196.88 290.894 197.126C290.837 197.139 290.778 197.139 290.722 197.126C290.387 196.951 290.015 196.859 289.638 196.859C289.26 196.859 288.888 196.951 288.554 197.126C288.518 197.14 288.48 197.148 288.441 197.148C288.403 197.148 288.365 197.14 288.329 197.126C284.872 196.794 281.387 196.883 277.951 197.39C274.765 197.932 266.238 199.77 265.247 201.819C265.214 201.879 265.163 201.926 265.101 201.955C265.039 201.983 264.97 201.991 264.903 201.977V201.977Z" fill="#454C62"/>
<path d="M282.988 205.373H282.671C281.997 205.369 281.332 205.217 280.725 204.927C280.117 204.637 279.58 204.216 279.154 203.694C277.25 201.275 278.004 197.19 278.03 197.084C278.033 197.062 278.041 197.04 278.053 197.021C278.065 197.002 278.081 196.986 278.1 196.973C278.118 196.961 278.14 196.952 278.162 196.949C278.184 196.945 278.207 196.946 278.229 196.952C278.25 196.955 278.27 196.962 278.288 196.974C278.306 196.985 278.322 196.999 278.334 197.017C278.346 197.034 278.355 197.053 278.36 197.074C278.364 197.095 278.365 197.116 278.361 197.137C278.361 197.137 277.607 201.262 279.418 203.562C279.816 204.047 280.316 204.438 280.883 204.706C281.45 204.973 282.07 205.111 282.697 205.109C283.297 205.169 283.902 205.095 284.469 204.891C285.037 204.688 285.551 204.36 285.976 203.932C288.21 201.671 287.919 196.912 287.919 196.859C287.917 196.839 287.919 196.818 287.926 196.798C287.932 196.778 287.942 196.759 287.956 196.743C287.969 196.727 287.986 196.714 288.005 196.705C288.023 196.695 288.044 196.689 288.064 196.688V196.688C288.108 196.687 288.15 196.704 288.181 196.733C288.213 196.762 288.233 196.803 288.236 196.846C288.236 197.044 288.527 201.804 286.2 204.17C285.773 204.576 285.268 204.892 284.716 205.098C284.165 205.305 283.577 205.398 282.988 205.373V205.373Z" fill="#454C62"/>
<path d="M294.713 205.138C294.206 205.157 293.699 205.066 293.229 204.872C292.76 204.679 292.337 204.386 291.99 204.014C289.981 201.806 290.668 197.206 290.668 197.007C290.669 196.986 290.675 196.964 290.686 196.945C290.696 196.926 290.711 196.91 290.729 196.897C290.747 196.884 290.767 196.876 290.789 196.872C290.81 196.868 290.832 196.869 290.853 196.875C290.874 196.878 290.894 196.886 290.912 196.897C290.93 196.908 290.946 196.923 290.958 196.94C290.971 196.957 290.979 196.977 290.984 196.997C290.989 197.018 290.989 197.039 290.985 197.06C290.985 197.06 290.298 201.701 292.188 203.789C292.54 204.163 292.974 204.449 293.456 204.626C293.938 204.803 294.455 204.865 294.965 204.807C295.308 204.795 295.645 204.706 295.95 204.545C296.254 204.385 296.518 204.158 296.723 203.882C298.296 201.793 297.186 196.862 297.172 196.809C297.168 196.766 297.178 196.722 297.202 196.686C297.227 196.65 297.263 196.623 297.305 196.611C297.326 196.605 297.349 196.604 297.371 196.608C297.394 196.611 297.415 196.62 297.434 196.632C297.452 196.645 297.468 196.661 297.48 196.68C297.492 196.699 297.5 196.721 297.503 196.743C297.503 196.955 298.653 201.872 296.987 204.08C296.752 204.395 296.449 204.653 296.102 204.836C295.754 205.019 295.37 205.122 294.978 205.138H294.713Z" fill="#454C62"/>
<path d="M264.902 203.034C281.203 199.729 288.09 184.857 288.09 184.857C288.09 184.857 286.015 178.247 276.496 179.132C268.921 179.86 253.626 193.119 264.902 203.034Z" fill="#454C62"/>
<path d="M258.412 187.461C263.568 185.809 276.92 181.856 267.93 166.243C258.941 150.631 239.428 170.632 232.236 163.361C233.572 172.245 242.548 192.551 258.412 187.461Z" fill="#454C62"/>
<path d="M296.022 196.333C289.888 183.509 279.365 182.544 279.365 182.544C279.365 182.544 285.275 177.375 293.378 182.399C299.182 186.008 298.283 192.221 296.022 196.333Z" fill="#454C62"/>
<path d="M264.004 203.313C264.223 205.347 265.241 207.211 266.833 208.495C268.948 210.174 271.05 208.495 271.341 205.983C271.605 203.683 270.812 200.048 268.261 199.373C267.702 199.233 267.118 199.235 266.56 199.378C266.002 199.52 265.489 199.8 265.066 200.191C264.644 200.582 264.325 201.072 264.14 201.618C263.954 202.163 263.908 202.745 264.004 203.313Z" fill="#AE7461"/>
<path d="M282.486 201.964C283.048 201.964 283.504 201.265 283.504 200.404C283.504 199.542 283.048 198.844 282.486 198.844C281.924 198.844 281.468 199.542 281.468 200.404C281.468 201.265 281.924 201.964 282.486 201.964Z" fill="#454C62"/>
<path d="M292.361 201.964C292.923 201.964 293.379 201.265 293.379 200.404C293.379 199.542 292.923 198.844 292.361 198.844C291.799 198.844 291.343 199.542 291.343 200.404C291.343 201.265 291.799 201.964 292.361 201.964Z" fill="#454C62"/>
<path d="M292.176 198.896L294.238 198.301C294.238 198.301 293.114 199.914 292.176 198.896Z" fill="#454C62"/>
<path d="M289.69 201.871C290.459 203.83 291.491 205.676 292.757 207.357C292.318 207.67 291.817 207.882 291.287 207.98C290.757 208.079 290.212 208.06 289.69 207.926V201.871Z" fill="#6F4439"/>
<path d="M286.676 211.311C285.522 211.344 284.377 211.099 283.337 210.597C282.298 210.096 281.393 209.353 280.7 208.429C280.665 208.371 280.654 208.301 280.668 208.235C280.683 208.168 280.723 208.11 280.78 208.072C280.836 208.038 280.904 208.027 280.968 208.042C281.032 208.056 281.088 208.096 281.123 208.152C281.779 208.994 282.623 209.672 283.587 210.131C284.551 210.59 285.608 210.817 286.676 210.796C286.741 210.799 286.803 210.826 286.85 210.873C286.896 210.919 286.924 210.981 286.927 211.047C286.929 211.081 286.924 211.115 286.912 211.147C286.9 211.179 286.882 211.208 286.858 211.233C286.835 211.258 286.806 211.278 286.775 211.291C286.744 211.304 286.71 211.311 286.676 211.311V211.311Z" fill="#454C62"/>
<path d="M280.106 193.237C279.998 193.236 279.893 193.2 279.808 193.134C279.722 193.068 279.659 192.977 279.63 192.873C279.6 192.769 279.605 192.658 279.643 192.557C279.681 192.456 279.751 192.37 279.842 192.312C280.731 191.795 281.724 191.483 282.749 191.401C283.774 191.319 284.804 191.467 285.764 191.836C285.826 191.861 285.883 191.897 285.931 191.944C285.978 191.991 286.016 192.047 286.042 192.108C286.068 192.17 286.081 192.236 286.081 192.303C286.081 192.369 286.068 192.435 286.042 192.497C285.987 192.618 285.888 192.712 285.764 192.762C285.641 192.811 285.504 192.811 285.381 192.761C284.566 192.462 283.696 192.343 282.831 192.414C281.965 192.484 281.126 192.743 280.371 193.171C280.291 193.218 280.199 193.241 280.106 193.237V193.237Z" fill="#454C62"/>
<path d="M294.41 192.723C294.311 192.723 294.215 192.696 294.132 192.643C293.61 192.286 293.01 192.059 292.382 191.98C291.754 191.902 291.117 191.975 290.523 192.194C290.462 192.221 290.397 192.237 290.33 192.239C290.263 192.242 290.196 192.231 290.134 192.208C290.071 192.184 290.014 192.149 289.965 192.103C289.916 192.058 289.877 192.003 289.849 191.943C289.821 191.882 289.805 191.816 289.803 191.749C289.801 191.683 289.811 191.616 289.835 191.553C289.858 191.491 289.893 191.433 289.939 191.384C289.984 191.336 290.039 191.296 290.1 191.268C290.849 190.983 291.655 190.882 292.452 190.974C293.248 191.067 294.01 191.349 294.674 191.797C294.786 191.868 294.865 191.98 294.894 192.108C294.924 192.237 294.902 192.372 294.833 192.485C294.789 192.558 294.727 192.618 294.653 192.66C294.579 192.701 294.495 192.723 294.41 192.723V192.723Z" fill="#454C62"/>
<path d="M248.55 541.227C247.601 541.204 246.657 541.08 245.734 540.857C245.684 540.845 245.638 540.818 245.603 540.781C245.568 540.743 245.544 540.696 245.535 540.645C245.524 540.596 245.528 540.544 245.547 540.497C245.566 540.449 245.599 540.409 245.641 540.381C246.011 540.13 249.264 538.041 250.493 538.609C250.633 538.674 250.754 538.774 250.844 538.899C250.934 539.024 250.991 539.17 251.009 539.323C251.054 539.561 251.039 539.807 250.965 540.038C250.891 540.269 250.761 540.478 250.586 540.645C249.999 541.078 249.276 541.284 248.55 541.227V541.227ZM246.474 540.473C248.312 540.843 249.687 540.777 250.229 540.288C250.342 540.174 250.424 540.033 250.468 539.878C250.512 539.723 250.516 539.559 250.48 539.403C250.479 539.336 250.461 539.272 250.426 539.216C250.391 539.16 250.341 539.115 250.281 539.085C249.594 538.794 247.743 539.68 246.434 540.473H246.474Z" fill="#58B368"/>
<path d="M245.748 540.858C245.704 540.87 245.659 540.87 245.615 540.858C245.577 540.835 245.546 540.802 245.525 540.762C245.504 540.723 245.494 540.678 245.496 540.634C245.496 540.502 245.496 537.435 246.66 536.403C246.805 536.271 246.977 536.173 247.164 536.116C247.352 536.059 247.55 536.044 247.744 536.073C247.947 536.077 248.142 536.151 248.298 536.28C248.454 536.41 248.561 536.588 248.603 536.787C248.841 537.99 246.898 540.29 245.88 540.858C245.837 540.872 245.791 540.872 245.748 540.858ZM247.559 536.549C247.357 536.547 247.163 536.623 247.017 536.76C246.352 537.738 246.006 538.897 246.025 540.079C247.043 539.272 248.233 537.567 248.087 536.84C248.087 536.734 247.995 536.588 247.678 536.549H247.559Z" fill="#58B368"/>
<path d="M296.935 541.228C295.811 541.205 294.691 541.081 293.59 540.858C293.537 540.847 293.489 540.821 293.451 540.782C293.414 540.743 293.389 540.694 293.38 540.641C293.372 540.587 293.38 540.533 293.403 540.484C293.426 540.435 293.464 540.395 293.511 540.368C294 540.117 298.243 537.949 299.552 538.663C299.677 538.729 299.782 538.825 299.858 538.943C299.935 539.061 299.98 539.197 299.988 539.337C300.014 539.566 299.986 539.798 299.905 540.014C299.825 540.23 299.695 540.424 299.526 540.58C298.76 541.082 297.847 541.31 296.935 541.228V541.228ZM294.462 540.474C296.802 540.871 298.534 540.765 299.169 540.183C299.279 540.085 299.362 539.961 299.413 539.823C299.464 539.685 299.48 539.536 299.46 539.39C299.461 539.336 299.446 539.282 299.418 539.235C299.39 539.188 299.35 539.151 299.301 539.126C298.6 538.729 296.141 539.655 294.462 540.474Z" fill="#58B368"/>
<path d="M293.63 540.858C293.583 540.876 293.531 540.876 293.484 540.858C293.446 540.835 293.416 540.802 293.397 540.762C293.379 540.722 293.372 540.677 293.378 540.633C293.378 540.501 293.63 537.632 294.978 536.522C295.169 536.356 295.392 536.232 295.633 536.157C295.874 536.082 296.128 536.057 296.379 536.086C297.12 536.086 297.291 536.562 297.331 536.8C297.529 538.029 295.044 540.303 293.749 540.885L293.63 540.858ZM296.168 536.548C295.853 536.548 295.548 536.661 295.308 536.866C294.536 537.789 294.074 538.931 293.986 540.131C295.308 539.338 296.961 537.553 296.842 536.839C296.842 536.773 296.842 536.601 296.353 536.548H296.168Z" fill="#58B368"/>
<path d="M282.234 198.896L284.244 198.301C284.244 198.301 283.239 199.914 282.234 198.896Z" fill="#454C62"/>
<path d="M249.038 526.54H232.791L232.936 517.074L252.185 517.286L249.038 526.54Z" fill="#363C50"/>
<path d="M297.081 526.54H279.472L279.604 517.074L298.231 517.286L297.081 526.54Z" fill="#363C50"/>
<path d="M256.865 298.775L254.922 302.648C254.763 302.939 255.12 303.243 255.623 303.243H300.967C301.35 303.243 301.681 303.058 301.707 302.807L302.091 298.947C302.091 298.669 301.787 298.444 301.351 298.444H257.566C257.43 298.432 257.294 298.457 257.171 298.515C257.048 298.573 256.942 298.663 256.865 298.775V298.775Z" fill="#58B368"/>
<path opacity="0.6" d="M256.865 298.775L254.922 302.648C254.763 302.939 255.12 303.243 255.623 303.243H300.967C301.35 303.243 301.681 303.058 301.707 302.807L302.091 298.947C302.091 298.669 301.787 298.444 301.351 298.444H257.566C257.43 298.432 257.294 298.457 257.171 298.515C257.048 298.573 256.942 298.663 256.865 298.775V298.775Z" fill="white"/>
<path d="M260.897 303.28H259.721C259.483 303.28 259.311 303.161 259.324 303.016L259.879 297.979C259.879 297.834 260.091 297.715 260.329 297.715H261.505C261.73 297.715 261.915 297.834 261.902 297.979L261.347 303.016C261.333 303.161 261.122 303.28 260.897 303.28Z" fill="#58B368"/>
<path d="M298.786 303.28H297.609C297.384 303.28 297.199 303.161 297.213 303.016L297.768 297.979C297.768 297.834 297.993 297.715 298.217 297.715H299.394C299.632 297.715 299.804 297.834 299.79 297.979L299.235 303.016C299.222 303.161 299.024 303.28 298.786 303.28Z" fill="#58B368"/>
<path d="M283.464 303.28H282.301C282.063 303.28 281.891 303.161 281.904 303.016L282.446 297.979C282.446 297.834 282.671 297.715 282.909 297.715H284.085C284.31 297.715 284.495 297.834 284.469 297.979L283.927 303.016C283.913 303.161 283.702 303.28 283.464 303.28Z" fill="#58B368"/>
<path d="M265.471 296.129H267.388C267.634 296.125 267.87 296.033 268.054 295.871C268.238 295.709 268.358 295.486 268.393 295.243V295.243C268.41 295.131 268.403 295.016 268.372 294.908C268.34 294.799 268.285 294.698 268.211 294.613C268.137 294.527 268.045 294.459 267.942 294.412C267.838 294.366 267.726 294.342 267.613 294.344H265.736C265.488 294.348 265.251 294.441 265.066 294.606C264.882 294.771 264.763 294.997 264.731 295.243C264.714 295.351 264.72 295.461 264.749 295.567C264.779 295.672 264.83 295.77 264.9 295.854C264.97 295.938 265.057 296.005 265.156 296.053C265.254 296.1 265.362 296.126 265.471 296.129V296.129Z" fill="#B3C8B6"/>
<path d="M267.322 298.457L267.626 295.945C267.65 295.799 267.64 295.648 267.599 295.505C267.557 295.363 267.485 295.231 267.386 295.12C267.287 295.008 267.165 294.92 267.028 294.862C266.891 294.803 266.743 294.776 266.595 294.782V294.782C266.27 294.78 265.956 294.897 265.712 295.112C265.468 295.326 265.312 295.623 265.273 295.945L264.969 298.457C264.945 298.604 264.954 298.754 264.996 298.897C265.038 299.04 265.11 299.172 265.209 299.283C265.308 299.394 265.43 299.482 265.566 299.541C265.703 299.599 265.851 299.626 266 299.621V299.621C266.325 299.623 266.639 299.506 266.883 299.291C267.127 299.076 267.283 298.78 267.322 298.457Z" fill="#B3C8B6"/>
<path d="M292.889 296.129H294.819C295.063 296.124 295.298 296.032 295.48 295.87C295.662 295.707 295.779 295.485 295.811 295.243V295.243C295.828 295.131 295.821 295.016 295.79 294.908C295.758 294.799 295.703 294.698 295.629 294.613C295.555 294.527 295.463 294.459 295.36 294.412C295.256 294.366 295.144 294.342 295.031 294.344H293.101C292.855 294.353 292.62 294.448 292.437 294.612C292.253 294.777 292.133 294.999 292.096 295.243V295.243C292.081 295.355 292.09 295.469 292.123 295.577C292.156 295.685 292.212 295.785 292.288 295.869C292.363 295.953 292.456 296.02 292.56 296.065C292.664 296.11 292.776 296.131 292.889 296.129V296.129Z" fill="#B3C8B6"/>
<path d="M294.727 298.457L295.031 295.945C295.055 295.799 295.045 295.648 295.004 295.505C294.962 295.363 294.89 295.231 294.791 295.12C294.692 295.008 294.57 294.92 294.433 294.862C294.296 294.803 294.148 294.776 294 294.782V294.782C293.675 294.78 293.361 294.897 293.117 295.112C292.873 295.326 292.717 295.623 292.678 295.945L292.374 298.457C292.353 298.604 292.364 298.753 292.406 298.895C292.448 299.037 292.521 299.167 292.619 299.278C292.718 299.389 292.839 299.477 292.974 299.536C293.11 299.595 293.257 299.624 293.405 299.621C293.73 299.623 294.044 299.506 294.288 299.291C294.532 299.076 294.688 298.78 294.727 298.457Z" fill="#B3C8B6"/>
<path d="M259.457 233.995L261.611 233.783C261.775 233.771 261.938 233.815 262.073 233.909C262.208 234.003 262.307 234.141 262.352 234.299C271.328 264.123 267.904 295.296 267.904 295.296H265.141C267.23 258.201 259.999 238.833 258.862 234.854C258.836 234.758 258.832 234.658 258.849 234.56C258.866 234.462 258.905 234.369 258.961 234.287C259.018 234.206 259.091 234.137 259.177 234.087C259.262 234.036 259.358 234.005 259.457 233.995V233.995Z" fill="#58B368"/>
<path opacity="0.6" d="M259.457 233.995L261.611 233.783C261.775 233.771 261.938 233.815 262.073 233.909C262.208 234.003 262.307 234.141 262.352 234.299C271.328 264.123 267.904 295.296 267.904 295.296H265.141C267.23 258.201 259.999 238.833 258.862 234.854C258.836 234.758 258.832 234.658 258.849 234.56C258.866 234.462 258.905 234.369 258.961 234.287C259.018 234.206 259.091 234.137 259.177 234.087C259.262 234.036 259.358 234.005 259.457 233.995V233.995Z" fill="white"/>
<path d="M292.625 233.877L294.516 234.141C294.662 234.169 294.796 234.241 294.9 234.347C295.004 234.453 295.073 234.589 295.097 234.736C300.465 257.897 295.322 295.231 295.322 295.231H292.546C296.063 254.711 292.467 238.385 291.859 234.657C291.843 234.552 291.853 234.445 291.886 234.344C291.919 234.244 291.975 234.152 292.049 234.077C292.123 234.001 292.214 233.944 292.314 233.909C292.414 233.874 292.52 233.863 292.625 233.877V233.877Z" fill="#58B368"/>
<path opacity="0.6" d="M292.625 233.877L294.516 234.141C294.662 234.169 294.796 234.241 294.9 234.347C295.004 234.453 295.073 234.589 295.097 234.736C300.465 257.897 295.322 295.231 295.322 295.231H292.546C296.063 254.711 292.467 238.385 291.859 234.657C291.843 234.552 291.853 234.445 291.886 234.344C291.919 234.244 291.975 234.152 292.049 234.077C292.123 234.001 292.214 233.944 292.314 233.909C292.414 233.874 292.52 233.863 292.625 233.877V233.877Z" fill="white"/>
<path d="M255.49 249.358C255.49 252.332 255.582 255.505 255.754 258.612C255.926 261.719 256.058 264.786 256.376 267.866C256.693 270.946 257.09 273.894 257.698 276.776C257.989 278.204 258.319 279.605 258.702 280.927C258.905 281.588 259.117 282.223 259.337 282.831L259.641 283.598C259.635 283.61 259.632 283.624 259.632 283.637C259.632 283.651 259.635 283.665 259.641 283.677C259.641 283.796 260.143 284.219 261.135 284.51C262.312 284.823 263.525 284.983 264.744 284.986C267.663 285.007 270.579 284.768 273.456 284.272C276.457 283.809 279.497 283.161 282.512 282.421C285.526 281.681 288.606 280.861 291.567 280.015L293.603 284.999C287.705 287.976 281.534 290.375 275.175 292.164C271.828 293.131 268.39 293.747 264.916 294.002C262.94 294.141 260.954 294.03 259.006 293.671C257.841 293.444 256.708 293.071 255.635 292.561C254.337 291.95 253.177 291.082 252.225 290.009C251.712 289.433 251.268 288.798 250.903 288.119C250.691 287.736 250.638 287.603 250.519 287.365L250.202 286.718C249.819 285.845 249.462 284.986 249.144 284.074C248.53 282.412 248.009 280.717 247.584 278.997C246.763 275.715 246.14 272.386 245.72 269.029C244.856 262.456 244.481 255.828 244.597 249.199L255.49 249.358Z" fill="#AE7461"/>
<path d="M289.228 281.364L292.572 271.145L298.27 280.399C298.27 280.399 294.925 286.361 290.497 286.268L289.228 281.364Z" fill="#AE7461"/>
<path d="M300.002 266.16L304.365 274.119L298.27 280.345L292.572 271.144L300.002 266.16Z" fill="#AE7461"/>
<path d="M249.673 236.361C245.337 237.683 240.142 252.595 240.142 252.595L256.944 264.612C256.944 264.612 263.078 252.159 261.254 246.553C259.363 240.723 254.617 234.854 249.673 236.361Z" fill="#58B368"/>
<path opacity="0.7" d="M249.673 236.361C245.337 237.683 240.142 252.595 240.142 252.595L256.944 264.612C256.944 264.612 263.078 252.159 261.254 246.553C259.363 240.723 254.617 234.854 249.673 236.361Z" fill="black"/>
<path d="M266.794 187.397C272.677 185.189 274.329 182.598 274.726 181.474C274.79 181.309 274.811 181.131 274.788 180.955C274.765 180.779 274.698 180.613 274.594 180.469C273.681 179.147 270.747 175.578 267.627 178.05C264.507 180.522 261.836 180.522 265.419 186.908C265.546 187.146 265.757 187.328 266.012 187.418C266.266 187.509 266.545 187.501 266.794 187.397V187.397Z" fill="#58B368"/>
<path opacity="0.3" d="M266.794 187.397C272.677 185.189 274.329 182.598 274.726 181.474C274.79 181.309 274.811 181.131 274.788 180.955C274.765 180.779 274.698 180.613 274.594 180.469C273.681 179.147 270.747 175.578 267.627 178.05C264.507 180.522 261.836 180.522 265.419 186.908C265.546 187.146 265.757 187.328 266.012 187.418C266.266 187.509 266.545 187.501 266.794 187.397V187.397Z" fill="black"/>
</g>
<defs>
<clipPath id="clip0_29_1869">
<rect width="421" height="661" fill="white"/>
</clipPath>
</defs>
</svg>
