<svg width="205" height="160" viewBox="0 0 205 160" fill="none" xmlns="http://www.w3.org/2000/svg">
<path d="M103.77 159.508C157.43 159.508 200.931 156.966 200.931 153.83C200.931 150.694 157.43 148.152 103.77 148.152C50.1097 148.152 6.60938 150.694 6.60938 153.83C6.60938 156.966 50.1097 159.508 103.77 159.508Z" fill="#F5F5F5"/>
<path d="M194.145 127.353L196.69 86.7949C196.914 83.2279 196.405 79.6529 195.196 76.2903C193.986 72.9278 192.101 69.8489 189.656 67.2438C187.212 64.6387 184.26 62.5625 180.983 61.1433C177.706 59.7241 174.173 58.992 170.602 58.9922V58.9922C163.926 58.9931 157.503 61.5513 152.651 66.142C147.799 70.7327 144.886 77.0078 144.509 83.68L141.854 131.049H190.211C191.213 131.049 192.177 130.666 192.908 129.98C193.639 129.293 194.081 128.354 194.145 127.353Z" fill="#58B368"/>
<path opacity="0.1" d="M194.235 125.891L196.69 86.8027C196.914 83.2357 196.405 79.6607 195.196 76.2981C193.986 72.9356 192.101 69.8567 189.656 67.2516C187.212 64.6465 184.26 62.5703 180.983 61.1511C177.706 59.7319 174.173 58.9998 170.602 59V59C163.926 59.0009 157.503 61.5591 152.651 66.1498C147.799 70.7405 144.886 77.0156 144.509 83.6878L141.854 131.047H188.753C190.149 131.043 191.491 130.508 192.509 129.551C193.527 128.594 194.143 127.286 194.235 125.891V125.891Z" fill="#454D66"/>
<path d="M186.298 131.049L189.074 86.7949C189.298 83.2281 188.788 79.6534 187.578 76.2911C186.368 72.9289 184.483 69.8504 182.039 67.2454C179.594 64.6404 176.643 62.5642 173.366 61.1448C170.089 59.7253 166.557 58.9927 162.987 58.9922V58.9922C156.31 58.9919 149.886 61.5497 145.034 66.1406C140.181 70.7316 137.269 77.0074 136.894 83.68L134.223 131.049H186.298Z" fill="#58B368"/>
<path d="M187.132 138.669H187.798C187.978 138.659 188.148 138.585 188.279 138.461C188.409 138.337 188.491 138.171 188.51 137.992L189.512 131.055H185.453L186.455 137.992C186.474 138.165 186.551 138.326 186.674 138.45C186.797 138.573 186.959 138.65 187.132 138.669Z" fill="#58B368"/>
<path opacity="0.7" d="M187.132 138.669H187.798C187.978 138.659 188.148 138.585 188.279 138.461C188.409 138.337 188.491 138.171 188.51 137.992L189.512 131.055H185.453L186.455 137.992C186.474 138.165 186.551 138.326 186.674 138.45C186.797 138.573 186.959 138.65 187.132 138.669Z" fill="white"/>
<path d="M121.658 138.669H122.26C122.43 138.651 122.589 138.573 122.707 138.449C122.826 138.325 122.896 138.163 122.906 137.992L123.813 131.055H120.125L121.022 137.992C121.031 138.161 121.1 138.322 121.217 138.446C121.333 138.57 121.49 138.649 121.658 138.669V138.669Z" fill="#58B368"/>
<path opacity="0.5" d="M121.658 138.669H122.26C122.43 138.651 122.589 138.573 122.707 138.449C122.826 138.325 122.896 138.163 122.906 137.992L123.813 131.055H120.125L121.022 137.992C121.031 138.161 121.1 138.322 121.217 138.446C121.333 138.57 121.49 138.649 121.658 138.669V138.669Z" fill="white"/>
<path d="M140.507 138.669H141.114C141.284 138.651 141.443 138.573 141.561 138.449C141.68 138.325 141.75 138.163 141.76 137.992L142.652 131.055H138.969L139.851 137.992C139.861 138.164 139.933 138.328 140.053 138.452C140.174 138.577 140.335 138.653 140.507 138.669V138.669Z" fill="#58B368"/>
<path opacity="0.7" d="M140.507 138.669H141.114C141.284 138.651 141.443 138.573 141.561 138.449C141.68 138.325 141.75 138.163 141.76 137.992L142.652 131.055H138.969L139.851 137.992C139.861 138.164 139.933 138.328 140.053 138.452C140.174 138.577 140.335 138.653 140.507 138.669V138.669Z" fill="white"/>
<path d="M166.835 138.669H167.501C167.681 138.658 167.852 138.584 167.983 138.461C168.114 138.337 168.197 138.171 168.218 137.992L169.22 131.055H165.156L166.158 137.992C166.176 138.165 166.253 138.327 166.376 138.451C166.499 138.574 166.662 138.651 166.835 138.669V138.669Z" fill="#58B368"/>
<path opacity="0.5" d="M166.835 138.669H167.501C167.681 138.658 167.852 138.584 167.983 138.461C168.114 138.337 168.197 138.171 168.218 137.992L169.22 131.055H165.156L166.158 137.992C166.176 138.165 166.253 138.327 166.376 138.451C166.499 138.574 166.662 138.651 166.835 138.669V138.669Z" fill="white"/>
<path d="M144.769 114.358H126.949L125.772 97.1639L125.516 93.4722L125.401 91.7719C125.369 91.3257 125.31 90.8819 125.226 90.4427C125.226 90.3474 125.186 90.242 125.166 90.1467C125.155 90.0747 125.136 90.0041 125.11 89.9361C124.63 88.1836 123.695 86.5897 122.399 85.3165C120.905 83.8386 118.928 82.9484 116.832 82.8086H133.594C133.775 82.8086 133.96 82.8086 134.145 82.8086C136.418 82.8186 138.596 83.7188 140.214 85.3165C141.511 86.5894 142.448 88.1832 142.93 89.9361C142.956 90.0041 142.974 90.0747 142.985 90.1467C143.103 90.682 143.181 91.2252 143.221 91.7719L143.336 93.4722L144.769 114.358Z" fill="#58B368"/>
<path opacity="0.1" d="M144.769 114.358H126.949L125.772 97.1639L125.516 93.4722L125.401 91.7719C125.369 91.3257 125.31 90.8819 125.226 90.4427C125.226 90.3474 125.186 90.242 125.166 90.1467C125.155 90.0747 125.136 90.0041 125.11 89.9361C124.63 88.1836 123.695 86.5897 122.399 85.3165C120.905 83.8386 118.928 82.9484 116.832 82.8086H133.594C133.775 82.8086 133.96 82.8086 134.145 82.8086C136.418 82.8186 138.596 83.7188 140.214 85.3165C141.511 86.5894 142.448 88.1832 142.93 89.9361C142.956 90.0041 142.974 90.0747 142.985 90.1467C143.103 90.682 143.181 91.2252 143.221 91.7719L143.336 93.4722L144.769 114.358Z" fill="#454D66"/>
<g opacity="0.1">
<path opacity="0.1" d="M158.891 105.18H166.047C167.79 105.18 169.198 106.283 169.198 107.642V111.876C169.198 113.24 167.79 114.339 166.047 114.339H158.891V105.18Z" fill="#454D66"/>
</g>
<path d="M129.672 114.328H161.192C162.692 114.328 163.908 113.111 163.908 111.61V107.883C163.908 106.381 162.692 105.164 161.192 105.164H129.672C128.172 105.164 126.956 106.381 126.956 107.883V111.61C126.956 113.111 128.172 114.328 129.672 114.328Z" fill="#58B368"/>
<path d="M203.99 92.921C203.995 95.3192 203.151 97.6416 201.61 99.4775C200.068 101.313 197.928 102.544 195.567 102.953L193.738 127.395C193.577 129.471 192.069 131.061 190.265 131.061H170.611C172.415 131.061 173.919 129.471 174.079 127.395L175.081 114.354L175.928 102.938C177.473 102.672 178.934 102.051 180.198 101.123C181.462 100.195 182.493 98.9858 183.209 97.5907C183.308 97.4135 183.396 97.231 183.475 97.044C184.054 95.747 184.351 94.3416 184.347 92.921C184.346 92.2252 184.275 91.5313 184.136 90.8495C184.081 90.5786 184.011 90.3078 183.936 90.0419C183.579 88.8473 183.009 87.7273 182.252 86.7365V86.7365C181.304 85.5003 180.085 84.4984 178.688 83.8079C177.292 83.1175 175.756 82.7569 174.199 82.754H193.853C195.428 82.7482 196.982 83.1161 198.388 83.8274C199.762 84.5121 200.962 85.5019 201.896 86.7215V86.7215C203.26 88.4994 203.996 90.6795 203.99 92.921V92.921Z" fill="#58B368"/>
<path opacity="0.1" d="M203.99 92.921C203.995 95.3192 203.151 97.6416 201.61 99.4775C200.068 101.313 197.928 102.544 195.567 102.953L193.738 127.395C193.577 129.471 192.069 131.061 190.265 131.061H170.611C172.415 131.061 173.919 129.471 174.079 127.395L175.081 114.354L175.928 102.938C177.473 102.672 178.934 102.051 180.198 101.123C181.462 100.195 182.493 98.9858 183.209 97.5907C183.308 97.4135 183.396 97.231 183.475 97.044C184.054 95.747 184.351 94.3416 184.347 92.921C184.346 92.2252 184.275 91.5313 184.136 90.8495C184.081 90.5786 184.011 90.3078 183.936 90.0419C183.579 88.8473 183.009 87.7273 182.252 86.7365V86.7365C181.304 85.5003 180.085 84.4984 178.688 83.8079C177.292 83.1175 175.756 82.7569 174.199 82.754H193.853C195.428 82.7482 196.982 83.1161 198.388 83.8274C199.762 84.5121 200.962 85.5019 201.896 86.7215V86.7215C203.26 88.4994 203.996 90.6795 203.99 92.921V92.921Z" fill="#454D66"/>
<path d="M184.353 92.9293C184.353 97.9452 181.05 102.123 176.716 102.961L175.042 127.398C174.897 129.475 173.539 131.07 171.895 131.07H119.408C117.775 131.07 116.402 129.475 116.261 127.398L114.583 102.916C110.333 102.023 107.121 97.9 107.121 92.9444C107.111 90.8637 107.701 88.8244 108.82 87.0709C109.667 85.7338 110.832 84.6288 112.213 83.8557C113.469 83.1487 114.886 82.7773 116.327 82.7773C118.6 82.7908 120.779 83.6904 122.4 85.2853C123.695 86.5566 124.631 88.1488 125.111 89.8998C125.137 89.9712 125.156 90.0452 125.166 90.1205C125.285 90.6539 125.363 91.1955 125.402 91.7406L125.522 93.441L126.95 114.357H164.353L165.902 91.7857C166.122 88.5957 167.676 85.9373 169.83 84.6783C171.192 83.5876 172.856 82.9416 174.596 82.8275C174.779 82.809 174.963 82.8006 175.147 82.8024C176.546 82.7946 177.925 83.1396 179.156 83.8056C179.194 83.8226 179.231 83.8428 179.266 83.8658C180.537 84.572 181.628 85.5625 182.453 86.7599C183.697 88.5758 184.36 90.7276 184.353 92.9293V92.9293Z" fill="#58B368"/>
<path opacity="0.1" d="M163.487 131.05H119.389C117.755 131.05 116.382 129.455 116.242 127.378L114.563 102.896C110.314 102.003 107.102 97.8805 107.102 92.9249C107.092 90.8442 107.681 88.8048 108.8 87.0513C109.647 85.7143 110.813 84.6093 112.193 83.8362C113.449 83.1292 114.866 82.7578 116.307 82.7578C118.58 82.7713 120.759 83.6709 122.381 85.2657C123.676 86.537 124.611 88.1293 125.092 89.8803C125.118 89.9517 125.136 90.0257 125.147 90.101C125.265 90.6344 125.344 91.1759 125.382 91.7211L125.503 93.4214L126.951 114.352H164.354L163.487 131.05Z" fill="white"/>
<path d="M157.766 61.5477C156.894 62.0493 156.097 62.4656 155.261 62.8919C154.424 63.3183 153.602 63.7095 152.755 64.1007C151.071 64.8682 149.368 65.6055 147.614 66.2425C145.846 66.9006 144.046 67.4698 142.222 67.9479C140.324 68.4585 138.386 68.8058 136.429 68.9861L136.013 69.0263H135.817C134.048 68.8206 132.48 68.5247 130.907 68.1736C129.333 67.8225 127.775 67.4764 126.231 67.0801C124.688 66.6839 123.154 66.2776 121.621 65.8362C120.088 65.3948 118.569 64.9384 117.051 64.4218L117.747 60.9408C120.899 61.1414 124.046 61.4424 127.163 61.7684L131.819 62.2349C133.352 62.3853 134.92 62.5157 136.293 62.5659H135.687C137.26 62.2854 138.81 61.8932 140.327 61.3922C141.896 60.8906 143.464 60.3188 145.033 59.6467C146.601 58.9746 148.155 58.2824 149.698 57.5451C150.49 57.1839 151.257 56.8027 152.008 56.4265C152.76 56.0504 153.562 55.6491 154.248 55.293L157.766 61.5477Z" fill="#454D66"/>
<path opacity="0.1" d="M157.766 61.5477C156.894 62.0493 156.097 62.4656 155.261 62.8919C154.424 63.3183 153.602 63.7095 152.755 64.1007C151.071 64.8682 149.368 65.6055 147.614 66.2425C145.846 66.9006 144.046 67.4698 142.222 67.9479C140.324 68.4585 138.386 68.8058 136.429 68.9861L136.013 69.0263H135.817C134.048 68.8206 132.48 68.5247 130.907 68.1736C129.333 67.8225 127.775 67.4764 126.231 67.0801C124.688 66.6839 123.154 66.2776 121.621 65.8362C120.088 65.3948 118.569 64.9384 117.051 64.4218L117.747 60.9408C120.899 61.1414 124.046 61.4424 127.163 61.7684L131.819 62.2349C133.352 62.3853 134.92 62.5157 136.293 62.5659H135.687C137.26 62.2854 138.81 61.8932 140.327 61.3922C141.896 60.8906 143.464 60.3188 145.033 59.6467C146.601 58.9746 148.155 58.2824 149.698 57.5451C150.49 57.1839 151.257 56.8027 152.008 56.4265C152.76 56.0504 153.562 55.6491 154.248 55.293L157.766 61.5477Z" fill="#454D66"/>
<path d="M117.114 59.0314C116.373 58.511 115.554 58.1115 114.689 57.8477L113.391 62.9187L117.279 64.5538L117.72 64.0121C118.019 63.6503 118.241 63.2313 118.373 62.7807C118.505 62.3301 118.544 61.8573 118.487 61.3912C118.43 60.9251 118.279 60.4755 118.043 60.0698C117.807 59.664 117.491 59.3107 117.114 59.0314V59.0314Z" fill="#AE7461"/>
<path d="M113.391 62.9233L114.689 57.8523L111.061 55.8711L109.969 59.4424L113.391 62.9233Z" fill="#AE7461"/>
<path opacity="0.2" d="M145.566 66.7044H145.707H145.767C147.681 66.4987 153.309 65.5508 157.378 61.5331C156.771 60.3594 155.939 59.4515 154.922 59.2459C152.116 58.7142 148.678 60.7255 145.566 66.7044Z" fill="#454D66"/>
<path d="M148.869 92.9203C153.67 79.9444 150.513 68.0117 151.114 61.4059C151.262 59.7775 151.936 58.2417 153.033 57.0307C154.131 55.8198 155.593 54.9998 157.198 54.6947C160.475 54.0627 164.529 53.3505 168.392 52.8289C169.472 52.6797 170.571 52.766 171.614 53.082C172.658 53.3979 173.62 53.936 174.436 54.6593C175.252 55.3825 175.902 56.2739 176.341 57.2722C176.781 58.2705 176.999 59.3521 176.982 60.4429C176.646 80.0045 170.382 92.9203 170.382 92.9203L160.259 92.8751L148.869 92.9203Z" fill="#58B368"/>
<path opacity="0.8" d="M148.869 92.9203C153.67 79.9444 150.513 68.0117 151.114 61.4059C151.262 59.7775 151.936 58.2417 153.033 57.0307C154.131 55.8198 155.593 54.9998 157.198 54.6947C160.475 54.0627 164.529 53.3505 168.392 52.8289C169.472 52.6797 170.571 52.766 171.614 53.082C172.658 53.3979 173.62 53.936 174.436 54.6593C175.252 55.3825 175.902 56.2739 176.341 57.2722C176.781 58.2705 176.999 59.3521 176.982 60.4429C176.646 80.0045 170.382 92.9203 170.382 92.9203L160.259 92.8751L148.869 92.9203Z" fill="white"/>
<path d="M110.464 137.203L109.182 145.645H113.256L115.932 137.203H110.464Z" fill="#FFC3BD"/>
<path d="M108.66 143.757L114.107 143.627C114.15 143.622 114.193 143.626 114.234 143.639C114.275 143.652 114.312 143.673 114.344 143.702C114.377 143.73 114.402 143.765 114.42 143.804C114.438 143.843 114.447 143.885 114.448 143.928V147.941C114.423 148.163 114.319 148.369 114.154 148.519C113.989 148.67 113.774 148.755 113.551 148.758C111.657 148.758 110.755 148.688 108.359 148.758C105.809 148.75 103.262 148.583 100.732 148.257C98.7931 147.926 99.3193 146.105 100.196 146.075C104.155 145.929 106.37 145.102 107.793 144.068C108.041 143.874 108.345 143.765 108.66 143.757V143.757Z" fill="#454D66"/>
<path opacity="0.2" d="M109.947 140.589L110.463 137.203H115.931L114.618 141.426L109.947 140.589Z" fill="#454D66"/>
<path d="M146.363 89.8872C146.363 89.8872 113.214 90.2183 112.698 100.726C111.967 115.834 109.416 138.847 109.416 138.847L115.665 140.567C115.665 140.567 124.585 117.73 124.93 105.928C134.256 104.072 158.224 105.928 161.041 99.7985C162.417 96.6789 162.788 93.2077 162.103 89.8672L146.363 89.8872Z" fill="#58B368"/>
<path opacity="0.6" d="M146.363 89.8872C146.363 89.8872 113.214 90.2183 112.698 100.726C111.967 115.834 109.416 138.847 109.416 138.847L115.665 140.567C115.665 140.567 124.585 117.73 124.93 105.928C134.256 104.072 158.224 105.928 161.041 99.7985C162.417 96.6789 162.788 93.2077 162.103 89.8672L146.363 89.8872Z" fill="#454D66"/>
<path d="M139.629 140.468L141.839 146.196H146.309L144.77 140.172L139.629 140.468Z" fill="#FFC3BD"/>
<path opacity="0.2" d="M145.186 141.8L144.319 137.391L138.672 138.093L140.12 141.925L145.186 141.8Z" fill="#454D66"/>
<path d="M140.624 144.302H146.332C146.424 144.295 146.516 144.325 146.586 144.385C146.656 144.445 146.7 144.53 146.708 144.623L146.983 148.901C146.978 149.133 146.882 149.353 146.716 149.514C146.55 149.676 146.328 149.765 146.096 149.764C144.092 149.729 143.16 149.619 140.649 149.619C139.111 149.619 135.994 149.769 133.864 149.769C131.735 149.769 131.795 147.763 132.692 147.607C136.751 146.795 138.319 145.676 139.747 144.598C140.001 144.409 140.308 144.306 140.624 144.302V144.302Z" fill="#454D66"/>
<path d="M155.278 89.8839C155.278 89.8839 125.211 91.9253 125.953 102.423C126.76 113.92 138.801 140.579 138.801 140.579H144.86C144.86 140.579 140.851 116.393 139.007 104.676C147.486 104.676 167.134 105.955 169.961 99.8102C171.331 96.689 171.699 93.2185 171.013 89.8789L155.278 89.8839Z" fill="#58B368"/>
<path opacity="0.5" d="M155.278 89.8839C155.278 89.8839 125.211 91.9253 125.953 102.423C126.76 113.92 138.801 140.579 138.801 140.579H144.86C144.86 140.579 140.851 116.393 139.007 104.676C147.486 104.676 167.134 105.955 169.961 99.8102C171.331 96.689 171.699 93.2185 171.013 89.8789L155.278 89.8839Z" fill="#454D66"/>
<path d="M159.833 47.3531C160.524 50.0316 160.74 53.3721 157.002 54.7514C155.964 56.4067 155.458 58.1522 159.452 57.5302C162.631 57.1188 165.524 55.481 167.515 52.9658C165.125 50.8692 165.561 44.4389 166.167 40.8125L159.833 47.3531Z" fill="#AE7461"/>
<path d="M159.393 52.2266C155.961 52.8134 153.14 55.4718 151.626 58.6067C150.113 61.7416 149.747 65.3128 149.777 68.7988C149.807 72.2848 150.203 75.7558 150.108 79.2367C150.003 83.2494 149.035 86.0934 147.652 89.8753C147.652 90.7731 149.01 91.2797 150.158 91.5155C152.553 86.284 154.127 81.2782 153.961 75.5301C153.836 71.3569 153.781 66.6019 154.462 62.4889C155.144 58.376 160.06 53.004 159.824 52.2617L159.393 52.2266Z" fill="#454D66"/>
<path opacity="0.3" d="M162.75 49.3153C162.39 49.5827 161.98 49.7747 161.545 49.8799C161.109 49.985 160.657 50.0011 160.215 49.9272C160.223 49.2757 160.176 48.6246 160.074 47.9811L164.223 44.5703C164.314 45.0136 164.373 45.4628 164.399 45.9145C164.444 46.576 164.315 47.2377 164.026 47.8342C163.737 48.4306 163.297 48.9412 162.75 49.3153V49.3153Z" fill="#6F4439"/>
<path d="M156.547 31.5113C152.162 33.9941 152.117 41.0112 153.47 45.054C153.812 46.1148 154.438 47.0613 155.28 47.79C156.122 48.5187 157.149 49.0016 158.247 49.1859C159.345 49.3702 160.473 49.2488 161.506 48.835C162.54 48.4212 163.441 47.7309 164.109 46.8396C166.254 44.126 165.943 41.3874 165.838 36.6726C165.732 31.9577 160.937 29.0335 156.547 31.5113Z" fill="#AE7461"/>
<path opacity="0.2" d="M157.96 44.1302C156.547 44.7371 154.998 45.5246 153.57 45.354C153.955 46.3705 154.604 47.2653 155.452 47.9449C156.299 48.6244 157.313 49.064 158.388 49.2177C159.463 49.3714 160.559 49.2336 161.563 48.8187C162.566 48.4038 163.44 47.7269 164.094 46.8588C165.863 44.6317 166.409 43.127 165.908 39.0742C163.162 42.2944 160.982 42.826 157.96 44.1302Z" fill="#6F4439"/>
<path d="M162.198 33.1C161.743 33.8405 161.54 34.7089 161.621 35.5746C161.701 36.4403 162.06 37.2565 162.644 37.9002C163.04 38.3165 163.526 38.6375 163.907 39.0639C164.501 39.7328 164.81 40.6076 164.769 41.5015C164.858 40.9264 165.144 40.4001 165.579 40.013C166.013 39.6259 166.568 39.4021 167.149 39.3799C166.555 41.2223 165.96 43.0615 165.365 44.8973C166.542 44.3477 167.56 43.5064 168.321 42.453C169.082 41.3997 169.562 40.1692 169.715 38.8783C170.096 35.317 165.706 27.688 162.198 33.1Z" fill="#454D66"/>
<path d="M151.965 33.3441C151.63 33.717 151.391 34.1665 151.269 34.6532C151.21 34.8943 151.227 35.1476 151.316 35.379C151.406 35.6104 151.564 35.8087 151.77 35.9473C152.15 36.1003 152.569 36.1215 152.963 36.0075L156.971 35.3103C159.267 34.909 161.562 34.5127 163.827 33.966C164.829 33.7253 165.986 33.339 166.387 32.376C167.685 29.2411 162.143 28.8348 160.289 28.9201C157.132 29.0856 153.94 30.9014 151.965 33.3441Z" fill="#454D66"/>
<path d="M166.548 38.5768C165.235 38.8727 164.673 40.7637 164.709 41.9775C164.709 43.3569 165.711 44.2547 166.873 43.4221C167.737 42.7797 168.324 41.8331 168.517 40.7737C168.753 39.4746 167.866 38.2809 166.548 38.5768Z" fill="#AE7461"/>
<path d="M157.274 43.3599C157.075 43.4926 156.85 43.5798 156.613 43.6154C156.377 43.6509 156.135 43.6339 155.906 43.5656C156.407 42.432 156.347 42.6878 156.503 40.7617L157.274 43.3599Z" fill="#6F4439"/>
<path d="M159.584 37.1071C159.208 36.6858 158.181 36.5253 157.624 36.6056C157.568 36.6129 157.511 36.5982 157.465 36.5646C157.42 36.5309 157.389 36.4809 157.379 36.425C157.371 36.3648 157.387 36.304 157.422 36.2547C157.457 36.2054 157.51 36.1713 157.569 36.1591C158.271 36.0538 159.438 36.2645 159.914 36.7911C159.956 36.8333 159.979 36.8901 159.979 36.9491C159.979 37.0082 159.956 37.0649 159.914 37.1071C159.886 37.1362 159.852 37.1585 159.814 37.1723C159.774 37.1849 159.73 37.1854 159.689 37.1738C159.648 37.1622 159.612 37.1391 159.584 37.1071V37.1071Z" fill="#454D66"/>
<path d="M153.099 38.05C153.052 38.0175 153.019 37.9679 153.008 37.9117C152.997 37.8556 153.008 37.7973 153.039 37.7491C153.214 37.4326 153.461 37.1613 153.759 36.9567C154.058 36.7521 154.4 36.6199 154.758 36.5704C154.785 36.5697 154.812 36.5745 154.838 36.5846C154.863 36.5946 154.887 36.6096 154.906 36.6288C154.926 36.648 154.941 36.6709 154.952 36.6962C154.963 36.7214 154.968 36.7486 154.968 36.776C154.971 36.8369 154.95 36.8966 154.91 36.9424C154.87 36.9882 154.813 37.0167 154.753 37.0218C154.47 37.067 154.202 37.1757 153.967 37.34C153.733 37.5042 153.539 37.7195 153.4 37.9698C153.382 38.0025 153.356 38.0301 153.324 38.0503C153.293 38.0704 153.257 38.0824 153.219 38.0851C153.176 38.0887 153.133 38.0762 153.099 38.05Z" fill="#454D66"/>
<path d="M156.887 45.4057C157.369 46.0197 157.812 46.663 158.215 47.3318L158.525 47.2014C159.938 46.5895 160.339 45.7368 160.359 44.9794C160.342 44.3768 160.156 43.7912 159.823 43.2891C159.322 44.1568 158.054 44.849 157.363 45.185C157.067 45.3305 156.887 45.4057 156.887 45.4057Z" fill="#2E353A"/>
<path d="M157.354 45.185L157.559 45.4659C157.615 45.5413 157.695 45.5956 157.786 45.6202C157.877 45.6447 157.973 45.6381 158.06 45.6014C159.102 45.0998 159.794 44.5982 160.065 44.0314C160.089 43.9779 160.102 43.9198 160.102 43.8609C160.102 43.802 160.089 43.7438 160.065 43.6903C159.998 43.5511 159.921 43.417 159.834 43.2891C159.308 44.1568 158.045 44.849 157.354 45.185Z" fill="white"/>
<path d="M158.516 47.2025C159.929 46.5905 160.33 45.7379 160.35 44.9805C159.813 45.2284 159.336 45.5894 158.952 46.0388C158.687 46.3707 158.534 46.7782 158.516 47.2025Z" fill="#DE5753"/>
<path d="M154.706 39.6211C154.461 39.6662 154.325 40.0173 154.395 40.3935C154.466 40.7697 154.731 41.0406 154.977 40.9904C155.222 40.9403 155.358 40.5992 155.287 40.223C155.217 39.8468 154.952 39.6211 154.706 39.6211Z" fill="#454D66"/>
<path d="M159.005 38.923C158.759 38.9681 158.624 39.3142 158.694 39.6954C158.764 40.0766 159.03 40.3424 159.276 40.2923C159.521 40.2421 159.656 39.896 159.586 39.5198C159.516 39.1437 159.251 38.8778 159.005 38.923Z" fill="#454D66"/>
<path opacity="0.9" d="M152.812 41.6576L155.975 40.9453L156.03 42.2896L153.088 42.9918L152.812 41.6576Z" fill="white"/>
<g opacity="0.8">
<path opacity="0.9" d="M156.938 40.7313L157.313 41.9652L161.372 41.0925L161.132 39.668L156.938 40.7313Z" fill="white"/>
</g>
<path d="M155.993 41.4377L155.973 40.9411L156.935 40.7305L157.075 41.1969L155.993 41.4377Z" fill="#454D66"/>
<path d="M154.844 92.3443C154.844 92.3443 160.551 94.5562 161.859 94.9876C163.363 95.5767 164.945 95.9401 166.555 96.066C167.371 96.1209 168.189 96.0012 168.956 95.7149C169.722 95.4287 170.419 94.9824 171 94.4058C172.363 92.9512 172.789 90.7442 173.144 88.6727C174.187 82.5902 175.232 76.5076 176.281 70.4251C176.782 67.4156 178.1 62.9014 177.99 61.201C177.785 58.0411 175.775 54.3093 170.659 52.2578C168.654 51.4603 166.705 51.7563 165.031 53.7626C164.029 54.9563 161.113 57.8354 160.396 62.9064C159.825 66.9692 158.933 72.2308 158.988 76.3588C159.053 81.786 156.888 88.6275 154.844 92.3443Z" fill="#454D66"/>
<path d="M177.708 59.5296C178.29 64.8163 175.368 78.1433 174.807 78.9459C172.412 86.6753 165.832 82.5071 164.88 82.151C163.221 81.539 161.533 80.3403 159.954 79.5428C156.892 78.038 153.991 76.7941 151.145 74.9031L152.748 71.7331C155.87 72.7965 164.705 75.0837 166.163 75.4398C166.794 75.6053 169.255 76.8944 169.23 75.194C169.575 74.6273 170.056 63.5874 171.114 59.6851C171.234 59.2472 171.444 58.8391 171.73 58.4864L171.825 58.366C172.211 57.8818 172.723 57.5131 173.304 57.3C173.885 57.087 174.513 57.0378 175.12 57.1579C175.727 57.278 176.29 57.5627 176.746 57.9809C177.203 58.3992 177.536 58.9349 177.708 59.5296V59.5296Z" fill="#454D66"/>
<path opacity="0.1" d="M177.708 59.5296C178.29 64.8163 175.368 78.1433 174.807 78.9459C172.412 86.6753 165.832 82.5071 164.88 82.151C163.221 81.539 161.533 80.3403 159.954 79.5428C156.892 78.038 153.991 76.7941 151.145 74.9031L152.748 71.7331C155.87 72.7965 164.705 75.0837 166.163 75.4398C166.794 75.6053 169.255 76.8944 169.23 75.194C169.575 74.6273 170.056 63.5874 171.114 59.6851C171.234 59.2472 171.444 58.8391 171.73 58.4864L171.825 58.366C172.211 57.8818 172.723 57.5131 173.304 57.3C173.885 57.087 174.513 57.0378 175.12 57.1579C175.727 57.278 176.29 57.5627 176.746 57.9809C177.203 58.3992 177.536 58.9349 177.708 59.5296V59.5296Z" fill="white"/>
<path d="M151.495 79.4961H136.663L134.969 60.125H149.802L151.495 79.4961Z" fill="#454D66"/>
<path opacity="0.5" d="M151.495 79.4961H136.663L134.969 60.125H149.802L151.495 79.4961Z" fill="white"/>
<path d="M150.968 79.4023H136.135L134.441 60.0312H149.274L150.968 79.4023Z" fill="#58B368"/>
<path opacity="0.8" d="M150.968 79.4023H136.135L134.441 60.0312H149.274L150.968 79.4023Z" fill="white"/>
<path d="M145.084 61.2391H138.845L138.635 58.8164H144.869L145.084 61.2391Z" fill="#58B368"/>
<path d="M138.635 58.8122L139.246 58.6016H145.705L145.796 59.6298L145.315 60.1865L145.285 61.0292L145.084 61.2349L144.869 58.8122H138.635Z" fill="#58B368"/>
<path opacity="0.5" d="M138.635 58.8122L139.246 58.6016H145.705L145.796 59.6298L145.315 60.1865L145.285 61.0292L145.084 61.2349L144.869 58.8122H138.635Z" fill="#454D66"/>
<path d="M153.93 72.7826L154.266 74.5933C153.464 76.6849 148.869 76.1331 148.869 76.1331V70.7812L152.923 71.7242C153.175 71.7857 153.403 71.9181 153.582 72.1057C153.76 72.2933 153.881 72.5282 153.93 72.7826V72.7826Z" fill="#AE7461"/>
<path d="M148.86 70.7812L148.88 76.1431L144.811 76.2435L143.879 71.5286L148.86 70.7812Z" fill="#AE7461"/>
<path d="M164.353 114.352L165.902 91.7804C166.122 88.5904 167.676 85.932 169.83 84.673C171.192 83.5823 172.856 82.9363 174.596 82.8222C174.779 82.8037 174.963 82.7953 175.147 82.7971C176.546 82.7893 177.925 83.1343 179.156 83.8003C179.194 83.8173 179.231 83.8375 179.266 83.8605C180.537 84.5667 181.628 85.5572 182.453 86.7546C183.703 88.5756 184.367 90.735 184.358 92.9441C184.358 97.9599 181.055 102.138 176.721 102.976L175.042 127.393C174.897 129.469 173.539 131.064 171.895 131.064H163.486L164.353 114.352Z" fill="#58B368"/>
<path opacity="0.1" d="M164.353 114.352L165.902 91.7804C166.122 88.5904 167.676 85.932 169.83 84.673C171.192 83.5823 172.856 82.9363 174.596 82.8222C174.779 82.8037 174.963 82.7953 175.147 82.7971C176.546 82.7893 177.925 83.1343 179.156 83.8003C179.194 83.8173 179.231 83.8375 179.266 83.8605C180.537 84.5667 181.628 85.5572 182.453 86.7546C183.703 88.5756 184.367 90.735 184.358 92.9441C184.358 97.9599 181.055 102.138 176.721 102.976L175.042 127.393C174.897 129.469 173.539 131.064 171.895 131.064H163.486L164.353 114.352Z" fill="white"/>
<path d="M87.8854 9.33082V30.302C87.8854 30.8341 87.6742 31.3444 87.2983 31.7206C86.9224 32.0969 86.4126 32.3083 85.8809 32.3083H64.4233L56.7563 38.242C56.5388 38.4064 56.2797 38.5068 56.0082 38.5318C55.7368 38.5568 55.4638 38.5053 55.2199 38.3833C54.9761 38.2613 54.7712 38.0735 54.6283 37.8412C54.4854 37.6088 54.4102 37.3411 54.4111 37.0683V32.3083H53.2134C52.6818 32.3083 52.172 32.0969 51.7961 31.7206C51.4202 31.3444 51.209 30.8341 51.209 30.302V9.3258C51.2103 9.06457 51.2633 8.8062 51.365 8.56561C51.4667 8.32502 51.615 8.107 51.8014 7.92416C51.9878 7.74132 52.2086 7.59728 52.451 7.50037C52.6933 7.40347 52.9525 7.35562 53.2134 7.3596H85.916C86.4383 7.3596 86.9392 7.56729 87.3086 7.93696C87.6779 8.30663 87.8854 8.80802 87.8854 9.33082V9.33082Z" stroke="#58B368" stroke-miterlimit="10"/>
<path d="M77.5972 22.7169C77.3795 22.7182 77.1638 22.6743 76.9637 22.5881C76.7637 22.5019 76.5837 22.3752 76.4349 22.216C76.2862 22.0568 76.172 21.8684 76.0995 21.6629C76.027 21.4573 75.9978 21.239 76.0137 21.0216V21.0216C76.5499 14.9073 81.3907 14.3455 81.997 7.3936C82.1724 5.38728 81.4408 4.6349 80.0427 4.6349C78.6446 4.6349 77.7826 5.39229 77.6073 7.3936L77.507 8.53721C77.4619 9.05388 77.2247 9.53479 76.8424 9.88491C76.4602 10.235 75.9606 10.4289 75.4424 10.4282V10.4282C75.1556 10.4279 74.872 10.3679 74.6096 10.2521C74.3472 10.1363 74.1116 9.9671 73.918 9.75534C73.7243 9.54359 73.5768 9.29385 73.4847 9.02199C73.3925 8.75012 73.3579 8.46205 73.3829 8.17607L73.428 7.67449C73.8188 3.20038 76.2392 0.652344 80.5137 0.652344C84.7882 0.652344 86.7576 3.21041 86.3667 7.67449C85.7303 14.9223 80.4436 16.0459 79.9925 21.157C79.995 21.182 79.995 21.2072 79.9925 21.2322C79.9696 21.6377 79.793 22.0191 79.4987 22.2987C79.2045 22.5783 78.8148 22.7351 78.409 22.737L77.5972 22.7169ZM79.7671 26.9703C79.7218 27.4963 79.481 27.9862 79.0921 28.3428C78.7033 28.6995 78.1948 28.8971 77.6674 28.8964C77.3751 28.8969 77.0859 28.8364 76.8183 28.7188C76.5507 28.6012 76.3104 28.4291 76.1129 28.2134C75.9154 27.9978 75.7649 27.7433 75.671 27.4663C75.5772 27.1892 75.542 26.8956 75.5677 26.6042C75.613 26.0773 75.8546 25.5868 76.2445 25.23C76.6344 24.8732 77.1441 24.6762 77.6724 24.6781C77.964 24.6791 78.2523 24.7406 78.519 24.8588C78.7857 24.9769 79.025 25.1492 79.2218 25.3646C79.4186 25.58 79.5687 25.8339 79.6626 26.1102C79.7564 26.3866 79.792 26.6795 79.7671 26.9703V26.9703Z" fill="#58B368"/>
<path d="M71.9497 17.8071H60.4241C60.1583 17.8071 59.9034 17.7014 59.7154 17.5133C59.5275 17.3252 59.4219 17.07 59.4219 16.8039C59.4219 16.5379 59.5275 16.2827 59.7154 16.0946C59.9034 15.9065 60.1583 15.8008 60.4241 15.8008H71.9497C72.2155 15.8008 72.4704 15.9065 72.6584 16.0946C72.8463 16.2827 72.9519 16.5379 72.9519 16.8039C72.9519 17.07 72.8463 17.3252 72.6584 17.5133C72.4704 17.7014 72.2155 17.8071 71.9497 17.8071Z" fill="#58B368"/>
<path d="M70.3556 21.7798H60.4436C60.1778 21.7798 59.9229 21.6741 59.735 21.4859C59.547 21.2978 59.4414 21.0427 59.4414 20.7766C59.4414 20.5105 59.547 20.2554 59.735 20.0673C59.9229 19.8791 60.1778 19.7734 60.4436 19.7734H70.3556C70.6214 19.7734 70.8764 19.8791 71.0643 20.0673C71.2523 20.2554 71.3579 20.5105 71.3579 20.7766C71.3579 21.0427 71.2523 21.2978 71.0643 21.4859C70.8764 21.6741 70.6214 21.7798 70.3556 21.7798Z" fill="#58B368"/>
<path d="M68.7621 25.7485H60.4436C60.1778 25.7485 59.9229 25.6428 59.735 25.4547C59.547 25.2666 59.4414 25.0114 59.4414 24.7454C59.4414 24.4793 59.547 24.2241 59.735 24.036C59.9229 23.8479 60.1778 23.7422 60.4436 23.7422H68.7621C69.0279 23.7422 69.2828 23.8479 69.4708 24.036C69.6587 24.2241 69.7643 24.4793 69.7643 24.7454C69.7643 25.0114 69.6587 25.2666 69.4708 25.4547C69.2828 25.6428 69.0279 25.7485 68.7621 25.7485Z" fill="#58B368"/>
<path d="M45.1773 107.594H37.8561C36.0721 107.594 34.6289 108.722 34.6289 110.102V114.435C34.6289 115.83 36.0721 116.943 37.8561 116.943H45.1773V107.594Z" fill="#58B368"/>
<path d="M11.1537 127.996L8.60807 87.4383C8.38422 83.872 8.89275 80.2976 10.1023 76.9357C11.3118 73.5737 13.1967 70.4954 15.6407 67.8908C18.0847 65.2861 21.036 63.2103 24.3124 61.7913C27.5888 60.3724 31.121 59.6404 34.691 59.6406V59.6406C41.3684 59.6403 47.7928 62.1979 52.6458 66.7887C57.4988 71.3795 60.4125 77.6554 60.7889 84.3285L63.4548 131.698H15.0724C14.072 131.693 13.1106 131.309 12.383 130.621C11.6554 129.934 11.216 128.996 11.1537 127.996V127.996Z" fill="#58B368"/>
<path opacity="0.1" d="M11.0635 126.527L8.60807 87.4383C8.38422 83.872 8.89275 80.2976 10.1023 76.9357C11.3118 73.5737 13.1967 70.4954 15.6407 67.8908C18.0847 65.2861 21.036 63.2103 24.3124 61.7913C27.5888 60.3724 31.121 59.6404 34.691 59.6406V59.6406C41.3684 59.6403 47.7928 62.1979 52.6458 66.7887C57.4988 71.3795 60.4125 77.6554 60.7889 84.3285L63.4548 131.698H16.5758C15.1718 131.701 13.8197 131.167 12.7953 130.206C11.771 129.245 11.1516 127.929 11.0635 126.527Z" fill="#454D66"/>
<path d="M19.0014 131.698L16.2253 87.4383C16.0014 83.8716 16.5101 80.2968 17.7199 76.9345C18.9298 73.5722 20.8151 70.4937 23.2596 67.8889C25.7042 65.2842 28.656 63.2085 31.933 61.7898C35.2101 60.3712 38.7428 59.6398 42.3132 59.6406V59.6406C48.9897 59.6415 55.4128 62.1997 60.2648 66.7904C65.1168 71.3811 68.0297 77.6563 68.4061 84.3285L71.077 131.698H19.0014Z" fill="#58B368"/>
<path d="M18.1685 139.318H17.502C17.3217 139.307 17.1512 139.232 17.0202 139.107C16.8893 138.982 16.8062 138.816 16.7854 138.636L15.7832 131.699H19.8472L18.845 138.636C18.8276 138.81 18.7509 138.973 18.6277 139.097C18.5045 139.222 18.3424 139.3 18.1685 139.318V139.318Z" fill="#58B368"/>
<path opacity="0.7" d="M18.1685 139.318H17.502C17.3217 139.307 17.1512 139.232 17.0202 139.107C16.8893 138.982 16.8062 138.816 16.7854 138.636L15.7832 131.699H19.8472L18.845 138.636C18.8276 138.81 18.7509 138.973 18.6277 139.097C18.5045 139.222 18.3424 139.3 18.1685 139.318V139.318Z" fill="white"/>
<path d="M83.6389 139.318H83.0326C82.8616 139.3 82.7028 139.221 82.5844 139.096C82.466 138.971 82.3958 138.808 82.3861 138.636L81.4941 131.699H85.1773L84.2853 138.636C84.2757 138.808 84.2054 138.971 84.0871 139.096C83.9687 139.221 83.8099 139.3 83.6389 139.318V139.318Z" fill="#58B368"/>
<path opacity="0.5" d="M83.6389 139.318H83.0326C82.8616 139.3 82.7028 139.221 82.5844 139.096C82.466 138.971 82.3958 138.808 82.3861 138.636L81.4941 131.699H85.1773L84.2853 138.636C84.2757 138.808 84.2054 138.971 84.0871 139.096C83.9687 139.221 83.8099 139.3 83.6389 139.318V139.318Z" fill="white"/>
<path d="M64.7915 139.318H64.1801C64.0092 139.3 63.8504 139.221 63.732 139.096C63.6136 138.971 63.5434 138.808 63.5337 138.636L62.6367 131.699H66.3249L65.4329 138.636C65.4225 138.807 65.3526 138.969 65.2354 139.093C65.1183 139.218 64.9612 139.297 64.7915 139.318Z" fill="#58B368"/>
<path opacity="0.7" d="M64.7915 139.318H64.1801C64.0092 139.3 63.8504 139.221 63.732 139.096C63.6136 138.971 63.5434 138.808 63.5337 138.636L62.6367 131.699H66.3249L65.4329 138.636C65.4225 138.807 65.3526 138.969 65.2354 139.093C65.1183 139.218 64.9612 139.297 64.7915 139.318Z" fill="white"/>
<path d="M38.4634 139.318H37.7969C37.6163 139.307 37.4452 139.233 37.3141 139.108C37.1829 138.983 37.1001 138.816 37.0803 138.636L36.0781 131.699H40.1421L39.1399 138.636C39.1225 138.81 39.0458 138.973 38.9226 139.097C38.7994 139.222 38.6373 139.3 38.4634 139.318V139.318Z" fill="#58B368"/>
<path opacity="0.5" d="M38.4634 139.318H37.7969C37.6163 139.307 37.4452 139.233 37.3141 139.108C37.1829 138.983 37.1001 138.816 37.0803 138.636L36.0781 131.699H40.1421L39.1399 138.636C39.1225 138.81 39.0458 138.973 38.9226 139.097C38.7994 139.222 38.6373 139.3 38.4634 139.318V139.318Z" fill="white"/>
<path d="M60.5273 114.979H78.3469L79.5245 97.7995L79.775 94.1078L79.8953 92.4075C79.9261 91.9614 79.983 91.5176 80.0657 91.0783C80.0657 90.983 80.1108 90.8826 80.1308 90.7873C80.1415 90.7137 80.16 90.6414 80.186 90.5717C80.6663 88.8207 81.6017 87.2284 82.897 85.9571C84.3902 84.4799 86.3645 83.5897 88.4593 83.4492H71.6971C71.5117 83.4492 71.3313 83.4492 71.1459 83.4492C68.8722 83.4606 66.6928 84.3605 65.0724 85.9571C63.7772 87.2284 62.8417 88.8207 62.3614 90.5717C62.3354 90.6414 62.317 90.7137 62.3063 90.7873C62.1886 91.3209 62.1099 91.8624 62.0708 92.4075L61.9555 94.1078L60.5273 114.979Z" fill="#58B368"/>
<path opacity="0.1" d="M60.5273 114.979H78.3469L79.5245 97.7995L79.775 94.1078L79.8953 92.4075C79.9261 91.9614 79.983 91.5176 80.0657 91.0783C80.0657 90.983 80.1108 90.8826 80.1308 90.7873C80.1415 90.7137 80.16 90.6414 80.186 90.5717C80.6663 88.8207 81.6017 87.2284 82.897 85.9571C84.3902 84.4799 86.3645 83.5897 88.4593 83.4492H71.6971C71.5117 83.4492 71.3313 83.4492 71.1459 83.4492C68.8722 83.4606 66.6928 84.3605 65.0724 85.9571C63.7772 87.2284 62.8417 88.8207 62.3614 90.5717C62.3354 90.6414 62.317 90.7137 62.3063 90.7873C62.1886 91.3209 62.1099 91.8624 62.0708 92.4075L61.9555 94.1078L60.5273 114.979Z" fill="#454D66"/>
<g opacity="0.1">
<path opacity="0.1" d="M46.4055 105.824H39.2446C37.5058 105.824 36.0977 106.928 36.0977 108.287V112.525C36.0977 113.885 37.5058 114.988 39.2446 114.988H46.4055V105.824Z" fill="#454D66"/>
</g>
<path d="M75.6266 105.82H44.1067C42.6066 105.82 41.3906 107.037 41.3906 108.539V112.266C41.3906 113.767 42.6066 114.984 44.1067 114.984H75.6266C77.1266 114.984 78.3426 113.767 78.3426 112.266V108.539C78.3426 107.037 77.1266 105.82 75.6266 105.82Z" fill="#58B368"/>
<path d="M1.29103 93.575C1.28679 95.9732 2.13003 98.2956 3.67162 100.131C5.2132 101.967 7.35378 103.198 9.71473 103.607L11.5638 128.029C11.7242 130.105 13.2275 131.7 15.0315 131.7H34.6901C32.8861 131.7 31.3828 130.105 31.2225 128.029L30.2202 114.988L29.3583 103.597C27.816 103.326 26.357 102.703 25.0956 101.774C23.8342 100.846 22.8045 99.6378 22.0872 98.2447C21.992 98.0642 21.9068 97.8786 21.8266 97.693C21.2452 96.3983 20.9463 94.9944 20.9497 93.575C20.9498 92.8772 21.022 92.1813 21.1651 91.4984C21.2203 91.2276 21.2904 90.9567 21.3606 90.6959C21.7202 89.4998 22.2922 88.3784 23.0493 87.3855V87.3855C23.9859 86.1686 25.185 85.1793 26.5571 84.4913C27.9565 83.7871 29.5008 83.4195 31.0671 83.418H11.4436C10.4241 83.4174 9.41036 83.5713 8.43689 83.8744C6.43209 84.4933 4.66882 85.7202 3.39069 87.3855V87.3855C2.0272 89.16 1.28892 91.3364 1.29103 93.575Z" fill="#58B368"/>
<path opacity="0.1" d="M1.29103 93.575C1.28679 95.9732 2.13003 98.2956 3.67162 100.131C5.2132 101.967 7.35378 103.198 9.71473 103.607L11.5638 128.029C11.7242 130.105 13.2275 131.7 15.0315 131.7H34.6901C32.8861 131.7 31.3828 130.105 31.2225 128.029L30.2202 114.988L29.3583 103.597C27.816 103.326 26.357 102.703 25.0956 101.774C23.8342 100.846 22.8045 99.6378 22.0872 98.2447C21.992 98.0642 21.9068 97.8786 21.8266 97.693C21.2452 96.3983 20.9463 94.9944 20.9497 93.575C20.9498 92.8772 21.022 92.1813 21.1651 91.4984C21.2203 91.2276 21.2904 90.9567 21.3606 90.6959C21.7202 89.4998 22.2922 88.3784 23.0493 87.3855V87.3855C23.9859 86.1686 25.185 85.1793 26.5571 84.4913C27.9565 83.7871 29.5008 83.4195 31.0671 83.418H11.4436C10.4241 83.4174 9.41036 83.5713 8.43689 83.8744C6.43209 84.4933 4.66882 85.7202 3.39069 87.3855V87.3855C2.0272 89.16 1.28892 91.3364 1.29103 93.575Z" fill="#454D66"/>
<path d="M20.9455 93.5756C20.9455 98.5914 24.2478 102.775 28.5824 103.607L30.2561 128.049C30.4015 130.131 31.7595 131.721 33.4031 131.721H85.8896C87.5232 131.721 88.8963 130.131 89.0366 128.049L90.7153 103.572C94.9597 102.679 98.1719 98.5563 98.1719 93.5956C98.1834 91.5155 97.5953 89.4761 96.4781 87.7221C95.6292 86.3852 94.4617 85.2804 93.0806 84.507C91.8247 83.8044 90.4102 83.4349 88.9714 83.4336C86.6975 83.4439 84.5177 84.344 82.898 85.9415C81.6018 87.213 80.6648 88.805 80.1819 90.556C80.16 90.6266 80.1432 90.6987 80.1318 90.7717C80.0117 91.3049 79.9329 91.8465 79.8963 92.3918L79.776 94.0922L78.3479 114.978H40.9449L39.3964 92.4069C39.1709 89.2168 37.6225 86.5584 35.4677 85.2995C34.1036 84.2127 32.4415 83.5672 30.7021 83.4486C30.5167 83.4486 30.3363 83.4486 30.1509 83.4486C28.7516 83.4408 27.373 83.7858 26.142 84.4518C26.1017 84.466 26.0631 84.4845 26.0267 84.507C24.759 85.2175 23.6692 86.2071 22.8397 87.4011C21.5946 89.2181 20.9337 91.3723 20.9455 93.5756V93.5756Z" fill="#58B368"/>
<path opacity="0.1" d="M41.8033 131.701H85.9012C87.5348 131.701 88.9078 130.111 89.0482 128.03L90.7269 103.553C94.9713 102.66 98.1834 98.5368 98.1834 93.5761C98.195 91.496 97.6069 89.4566 96.4897 87.7026C95.6408 86.3657 94.4733 85.2609 93.0921 84.4875C91.8362 83.7849 90.4217 83.4154 88.983 83.4141C86.7091 83.4243 84.5293 84.3244 82.9095 85.922C81.6134 87.1934 80.6764 88.7855 80.1935 90.5365C80.1715 90.6071 80.1548 90.6792 80.1434 90.7522C80.0233 91.2854 79.9445 91.827 79.9079 92.3723L79.7876 94.0727L78.3594 114.959H40.9414L41.8033 131.701Z" fill="white"/>
<path d="M55.2266 140.334L59.5011 141.518L63.3396 131.461L59.0651 130.277L55.2266 140.334Z" fill="#FFC3BD"/>
<path d="M61.4149 140.183C61.0776 139.746 60.5901 139.449 60.0468 139.35L55.6621 138.493C55.5598 138.463 55.4499 138.475 55.3561 138.525C55.2624 138.576 55.1923 138.662 55.161 138.764L53.803 142.776C53.7641 142.885 53.7472 143.001 53.7531 143.116C53.7591 143.232 53.7878 143.345 53.8376 143.45C53.8874 143.554 53.9574 143.648 54.0435 143.725C54.1296 143.802 54.2301 143.861 54.3392 143.9H54.3692C55.9928 144.542 57.0903 144.321 59.6259 144.813C61.1944 145.114 64.4767 146.157 66.6716 146.067C68.8664 145.976 68.8614 143.804 67.9394 143.644C64.6821 143.142 62.1766 141.176 61.4149 140.183Z" fill="#454D66"/>
<g opacity="0.2">
<path opacity="0.2" d="M63.3359 131.466L61.3565 136.652L57.082 135.459L59.0564 130.277L63.3359 131.466Z" fill="#454D66"/>
</g>
<path d="M49.0707 93.2893C49.0707 93.2893 74.8078 93.1489 74.0061 101.776C73.4649 107.604 70.6686 113.729 68.4938 119.642C65.3318 128.214 62.5907 135.693 62.5907 135.693L56.7277 133.662C56.7277 133.662 61.9944 108.873 65.5423 106.335H43.779C36.578 106.335 33.4661 98.4205 40.4766 89.1914C44.7611 89.2065 49.0707 93.2893 49.0707 93.2893Z" fill="#58B368"/>
<path opacity="0.6" d="M49.0707 93.2916C49.0707 93.2916 74.8078 93.1511 74.0061 101.778C74.4019 107.14 62.5857 135.685 62.5857 135.685L56.7227 133.654C56.7227 133.654 61.9894 108.866 65.5373 106.328H43.779C36.578 106.328 33.4661 98.4127 40.4766 89.1836C44.7611 89.2087 49.0707 93.2916 49.0707 93.2916Z" fill="#454D66"/>
<path d="M67.2217 77.6239C64.0547 80.5181 57.8359 73.6665 56.8337 72.8539C54.6889 71.0984 48.3849 65.2098 48.7157 63.1634C49.7179 57.1444 59.5798 65.6713 62.4311 71.5498L67.2217 77.6239Z" fill="#454D66"/>
<path d="M39.5077 59.5153C37.9192 59.8513 36.2004 59.2795 35.0829 60.4582C33.9654 61.637 33.4994 63.2922 33.339 64.9073C33.1979 67.1637 33.3156 69.4289 33.6898 71.6586C34.0239 74.3771 34.373 77.094 34.7371 79.8093C34.963 82.0457 34.877 84.3027 34.4815 86.5154V86.5154C34.4398 86.7505 34.4772 86.9927 34.5879 87.2042C34.6985 87.4157 34.8761 87.5845 35.0929 87.6841C35.0929 87.6841 47.4152 88.1054 50.9982 87.97C52.9024 87.8998 51.5945 82.884 52.1808 79.9447C52.3111 79.2926 53.5839 76.6142 53.7744 75.932C54.6563 72.6968 54.07 70.4698 53.2732 67.2196C52.6769 64.8571 52.4314 61.4514 51.2287 61.2006C49.0639 60.7542 43.9275 58.5723 39.5077 59.5153Z" fill="#58B368"/>
<path opacity="0.8" d="M39.5077 59.5153C37.9192 59.8513 36.2004 59.2795 35.0829 60.4582C33.9654 61.637 33.4994 63.2922 33.339 64.9073C33.1979 67.1637 33.3156 69.4289 33.6898 71.6586C34.0239 74.3771 34.373 77.094 34.7371 79.8093C34.963 82.0457 34.877 84.3027 34.4815 86.5154V86.5154C34.4398 86.7505 34.4772 86.9927 34.5879 87.2042C34.6985 87.4157 34.8761 87.5845 35.0929 87.6841C35.0929 87.6841 47.4152 88.1054 50.9982 87.97C52.9024 87.8998 51.5945 82.884 52.1808 79.9447C52.3111 79.2926 53.5839 76.6142 53.7744 75.932C54.6563 72.6968 54.07 70.4698 53.2732 67.2196C52.6769 64.8571 52.4314 61.4514 51.2287 61.2006C49.0639 60.7542 43.9275 58.5723 39.5077 59.5153Z" fill="white"/>
<path d="M37.7466 61.8309C37.5812 61.5801 33.2365 57.9285 32.4598 62.1469C31.3624 68.0204 33.6324 73.7986 33.6324 73.7986C33.6324 73.7986 34.1335 80.1536 35.9977 80.7906C37.8618 81.4276 39.5957 81.5831 40.217 80.4947C40.6189 79.6462 40.8309 78.7201 40.8384 77.7811C40.8384 77.7811 40.6279 66.2046 37.7466 61.8309Z" fill="#454D66"/>
<path d="M40.7481 51.4492C41.1941 54.1527 41.5699 59.0933 39.6406 60.8338C39.6406 60.8338 44.3561 63.3066 47.453 67.6202C48.1406 67.1065 48.6491 66.3891 48.9064 65.5698C49.1636 64.7505 49.1566 63.8709 48.8862 63.0558C48.7309 62.5415 48.4733 62.064 48.1288 61.6519C47.7843 61.2399 47.3601 60.9019 46.8817 60.6583C45.0526 59.6551 45.228 57.7591 45.7291 55.9835L40.7481 51.4492Z" fill="#AE7461"/>
<path opacity="0.2" d="M41.3633 56.0391L43.1222 56.7162C43.8752 57.0076 44.681 57.1374 45.4874 57.0974C45.362 57.6488 45.362 58.2213 45.4874 58.7727C44.8568 58.9453 44.1897 58.931 43.5671 58.7316C42.9444 58.5322 42.393 58.1561 41.9796 57.6491C41.6954 57.1461 41.4876 56.6034 41.3633 56.0391V56.0391Z" fill="#6F4439"/>
<path d="M85.0274 131.683H89.818L84.8019 119.66L81.5547 125.178L85.0274 131.683Z" fill="#FFC3BD"/>
<path d="M89.4212 130.545L83.8037 129.266C83.7074 129.242 83.6056 129.254 83.5183 129.302C83.4311 129.349 83.3648 129.428 83.3326 129.522L81.7642 133.845C81.7328 133.954 81.7232 134.068 81.7359 134.181C81.7487 134.294 81.7835 134.403 81.8384 134.502C81.8934 134.601 81.9673 134.689 82.056 134.76C82.1447 134.83 82.2465 134.882 82.3555 134.914C84.3249 135.325 85.292 135.415 87.7625 135.982C89.2658 136.328 93.1344 137.341 95.2341 137.818C97.3337 138.294 97.8849 136.238 97.0481 135.847C93.2998 134.111 91.2703 132.451 90.1829 131.036C89.993 130.79 89.724 130.616 89.4212 130.545V130.545Z" fill="#454D66"/>
<g opacity="0.2">
<path opacity="0.2" d="M84.8019 119.66L86.9366 124.781L82.6271 127.189L81.5547 125.183L84.8019 119.66Z" fill="#454D66"/>
</g>
<path d="M34.386 87.736L33.8849 89.3712C33.8197 89.4966 33.965 89.627 34.1755 89.637L52.7166 90.1988C52.887 90.1988 53.0223 90.1286 53.0373 90.0232L53.2528 88.3781C53.2528 88.2677 53.1225 88.1674 52.9471 88.1574L34.7067 87.6056C34.6464 87.5962 34.5847 87.6033 34.5282 87.6263C34.4717 87.6492 34.4225 87.6872 34.386 87.736V87.736Z" fill="#454D66"/>
<path d="M57.5784 101.154C51.4799 103.758 44.8652 106.356 41.2672 106.356C34.0612 106.356 27.662 101.149 34.4822 89.302C38.7717 89.302 46.2232 89.4224 46.2232 89.4224C46.2232 89.4224 60.2544 85.4097 70.467 86.5935C72.8871 86.8762 75.1553 87.9193 76.9461 89.5729C78.7368 91.2266 79.958 93.4058 80.4341 95.7975C83.0199 108.839 87.0037 122.943 87.0037 122.943L81.8773 126.454C81.8773 126.454 73.8846 109.636 69.2844 96.2991C66.849 97.0665 62.3741 99.1079 57.5784 101.154Z" fill="#58B368"/>
<path opacity="0.5" d="M80.43 95.7977C79.9558 93.4042 78.7355 91.2228 76.9445 89.5672C75.1536 87.9116 72.8843 86.867 70.4629 86.5837C60.2703 85.42 46.2191 89.4126 46.2191 89.4126C46.2191 89.4126 38.7676 89.2772 34.4781 89.2922C27.5477 101.089 34.0571 106.346 41.2631 106.346C44.8611 106.346 51.4758 103.748 57.5743 101.145C62.37 99.0982 66.8449 97.0567 69.2803 96.2743C73.8805 109.626 81.8732 126.449 81.8732 126.449L86.9996 122.938C86.9996 122.938 83.0158 108.839 80.43 95.7977Z" fill="#454D66"/>
<path d="M74.0062 101.821C73.8433 103.497 73.5924 105.162 73.2545 106.812C73.2295 106.757 73.2094 106.706 73.1894 106.651C73.1694 106.596 73.1894 106.626 73.1894 106.611C73.1729 106.556 73.1511 106.502 73.1243 106.451C71.7612 103.06 70.4283 99.5839 69.3008 96.3086H69.3359C72.2523 97.5475 74.2417 99.3131 74.0062 101.821Z" fill="#58B368"/>
<path opacity="0.6" d="M74.0062 101.821C73.8433 103.497 73.5924 105.162 73.2545 106.812C73.2295 106.757 73.2094 106.706 73.1894 106.651C73.1694 106.596 73.1894 106.626 73.1894 106.611C73.1729 106.556 73.1511 106.502 73.1243 106.451C71.7612 103.06 70.4283 99.5839 69.3008 96.3086H69.3359C72.2523 97.5475 74.2417 99.3131 74.0062 101.821Z" fill="#454D66"/>
<path d="M37.4615 48.8537C38.9648 53.092 39.5161 54.9178 42.3323 56.5078C46.5767 58.9054 51.4375 56.1166 51.2271 51.492C51.0366 47.3539 48.6062 41.1143 43.8958 40.6127C42.8566 40.4957 41.8047 40.6468 40.8404 41.0516C39.876 41.4564 39.0311 42.1015 38.3862 42.9255C37.7413 43.7495 37.3177 44.725 37.1559 45.7591C36.994 46.7933 37.0992 47.8517 37.4615 48.8336V48.8537Z" fill="#AE7461"/>
<path d="M45.0727 48.3048C45.178 48.671 45.4436 48.8867 45.6741 48.8064C45.9046 48.7262 45.9948 48.4052 45.9046 48.049C45.8144 47.6929 45.5388 47.4672 45.3032 47.5475C45.0677 47.6277 44.9725 47.9537 45.0727 48.3048Z" fill="#454D66"/>
<path d="M49.0059 47.0587C49.1112 47.4299 49.3768 47.6456 49.6073 47.5603C49.8378 47.475 49.928 47.1591 49.8378 46.8029C49.7476 46.4468 49.467 46.2211 49.2415 46.3014C49.016 46.3816 48.9057 46.7127 49.0059 47.0587Z" fill="#454D66"/>
<path d="M49.1484 46.3531L49.9201 45.8516C49.9201 45.8516 49.6746 46.639 49.1484 46.3531Z" fill="#454D66"/>
<path d="M47.5977 47.8594C48.1399 48.5718 48.7772 49.2064 49.4919 49.7453C49.3484 49.9229 49.1676 50.0666 48.9623 50.1663C48.757 50.266 48.5324 50.3192 48.3042 50.3221L47.5977 47.8594Z" fill="#6F4439"/>
<path d="M34.696 51.6536C35.0038 52.4167 35.2371 53.2079 35.3925 54.016C35.4352 54.8288 35.174 55.6283 34.6598 56.2589C34.1457 56.8894 33.4154 57.3057 32.6113 57.4268C33.3116 57.6135 34.0548 57.5522 34.715 57.2533C35.3753 56.9544 35.9121 56.4363 36.2344 55.7866C35.8513 56.8077 35.0931 57.6438 34.1147 58.124C34.814 58.1316 35.5056 57.9776 36.1357 57.674C36.7659 57.3704 37.3175 56.9253 37.7477 56.3734C37.5122 56.9854 37.2466 57.5923 37.0361 58.2042C38.226 57.4829 39.2031 56.4582 39.8674 55.2349C40.133 54.7333 40.3335 54.0812 39.9827 53.6398C39.6319 53.1984 39.0757 53.2285 38.5645 53.2185C38.0534 53.2085 37.437 53.0881 37.2516 52.6116C37.0662 52.1351 37.407 51.6586 37.7778 51.3325C38.1486 51.0065 38.5946 50.7056 38.7299 50.2291C38.7941 49.8842 38.7699 49.5288 38.6597 49.1958C38.4292 48.2729 38.2021 47.3483 37.9782 46.4221C37.9174 46.0951 37.8004 45.7811 37.6325 45.4941C36.6302 43.9894 35.5128 46.1963 35.1269 46.9437C34.4046 48.4058 34.2511 50.0844 34.696 51.6536V51.6536Z" fill="#454D66"/>
<path d="M37.1657 53.0045C37.7332 53.7429 38.5686 54.2277 39.4908 54.3537C40.7186 54.5042 41.1495 53.3506 40.6584 52.3023C40.2124 51.3392 39.0398 50.1104 37.8823 50.4364C36.7247 50.7624 36.4741 52.0816 37.1657 53.0045Z" fill="#AE7461"/>
<path d="M45.1387 45.2702C45.1306 45.317 45.1085 45.3602 45.0754 45.3942C45.0423 45.4282 44.9998 45.4514 44.9533 45.4608C43.9511 45.6514 43.3698 46.8602 43.3698 46.8703C43.3446 46.925 43.2991 46.9676 43.2429 46.9892C43.1867 47.0108 43.1244 47.0095 43.0691 46.9856C43.0157 46.9605 42.9743 46.9155 42.9537 46.8602C42.9331 46.8049 42.9349 46.7437 42.9589 46.6897C43.004 46.6445 43.6253 45.2552 44.8681 45.0144C44.9264 45.0054 44.9858 45.0192 45.0343 45.0527C45.0828 45.0863 45.1165 45.1372 45.1287 45.195C45.1394 45.2185 45.1429 45.2447 45.1387 45.2702V45.2702Z" fill="#454D66"/>
<path d="M47.8145 44.2647C47.781 44.2594 47.7468 44.2612 47.7141 44.2698C47.6813 44.2784 47.6507 44.2938 47.6241 44.3148C47.569 44.375 47.3836 44.4804 47.4888 44.5355C48.1001 44.8465 48.947 45.3581 49.5985 45.2528C49.7087 45.2528 49.9693 45.1374 49.9142 45.0572C49.8765 45.0167 49.829 44.9867 49.7764 44.97C49.7237 44.9533 49.6676 44.9505 49.6135 44.9619C49.1124 45.0321 48.4058 44.5456 47.9248 44.2948C47.8894 44.2801 47.8524 44.27 47.8145 44.2647Z" fill="#454D66"/>
<path d="M45.207 47.5953L45.9838 47.0938C45.9838 47.0938 45.7382 47.8913 45.207 47.5953Z" fill="#454D66"/>
<path d="M45.137 38.7593C43.4282 38.4483 43.2077 38.3329 41.4739 38.4433C39.7226 38.4981 38.0293 39.0841 36.6181 40.1236C35.2997 41.2143 34.3697 42.703 33.9672 44.3669C33.5733 46.0249 33.5289 47.7468 33.8369 49.4229C33.8922 50.2235 34.238 50.9763 34.8091 51.5396C34.8673 50.6382 35.0201 49.7455 35.2651 48.8762C35.5206 47.9986 36.0468 47.2244 36.7684 46.6642C37.0869 46.4918 37.3613 46.248 37.5702 45.9519C37.6786 45.6592 37.7395 45.351 37.7506 45.0391C37.9077 44.3368 38.3273 43.7213 38.9232 43.3186C39.5151 42.9254 40.1487 42.5991 40.8124 42.3456C42.9221 41.4377 45.2222 40.9161 47.1665 39.6922C46.5303 39.2999 45.8488 38.9866 45.137 38.7593V38.7593Z" fill="#454D66"/>
<path d="M36.3935 45.4686C36.8524 46.0264 37.4805 46.419 38.1825 46.5871C39.0143 46.7777 41.094 46.7276 41.2192 46.5119C41.3445 46.2962 40.6029 43.9589 39.761 43.8184C40.3418 44.3796 41.0353 44.8105 41.7955 45.0824C42.6556 45.2545 43.5412 45.2545 44.4013 45.0824C44.8423 44.9821 43.8551 43.1563 43.1385 42.6347C45.2983 43.0861 47.5834 43.6027 49.1518 45.1426C50.7203 46.6824 51.3968 49.1201 51.3166 51.3923C51.6842 51.096 51.9794 50.7197 52.18 50.2921C52.3806 49.8645 52.4812 49.3968 52.4742 48.9245C52.8525 50.0994 52.9912 51.3384 52.8818 52.568C52.7725 53.7975 52.4175 54.9925 51.8378 56.0821C54.1329 54.1961 54.9898 50.9007 54.3885 47.9916C53.7871 45.0824 51.8829 42.5494 49.5728 40.6886C47.5683 39.0985 45.183 37.9098 42.6424 37.8496C39.31 37.7493 33.1363 41.5412 36.3935 45.4686Z" fill="#454D66"/>
<path d="M39.0957 58.8819C39.0957 58.7164 39.1357 58.4957 39.1558 58.265C39.1995 57.7353 39.0454 57.2082 38.7233 56.7857C38.4012 56.3632 37.9339 56.0753 37.4119 55.9778C37.257 55.9501 37.1122 55.8816 36.9924 55.7793C36.8726 55.6771 36.7822 55.5447 36.7304 55.396C36.3446 54.2724 36.1942 53.9313 35.8234 52.8279C34.8212 52.5821 33.6135 52.9583 32.5662 53.0686C32.2758 54.3274 32.2553 55.6334 32.506 56.9007C32.5462 57.1842 32.6565 57.4531 32.8268 57.6832C33.7778 58.4631 34.8296 59.1109 35.9537 59.6092C36.8557 59.8851 38.1235 58.9672 39.0957 58.8819Z" fill="#AE7461"/>
<path d="M36.0578 59.6341C36.0578 59.6341 33.2967 77.4654 36.143 80.199C37.8117 81.794 39.2549 80.9112 40.1519 79.9131C40.4806 79.5411 40.7281 79.1044 40.8782 78.631C41.0284 78.1577 41.078 77.6581 41.0238 77.1644L39.0845 58.8968C39.0845 58.8968 37.1803 57.7683 36.0578 59.6341Z" fill="#AE7461"/>
<path d="M65.7223 75.7346C66.8561 74.7442 67.6691 73.438 68.0575 71.9828C68.1461 71.4695 68.1797 70.9482 68.1577 70.4279C68.1327 67.1977 67.2206 61.274 67.2206 61.274L64.5998 60.4062C64.5998 60.4062 63.783 64.9205 63.5976 67.3883C63.5625 67.8898 63.5074 68.4466 63.4472 69.0535C63.332 70.157 63.1917 71.3708 63.0664 72.379L65.7223 75.7346Z" fill="#AE7461"/>
<path d="M67.2218 77.6231C68.0286 76.8858 68.1639 75.993 68.5799 74.112C68.9757 72.3164 68.5297 70.0994 68.1589 70.4354C68.1126 70.4777 68.078 70.5313 68.0587 70.5909C67.4223 72.0957 64.9468 70.7765 64.2452 70.0241C63.9431 69.7366 63.6772 69.4132 63.4535 69.0611C63.3615 68.9267 63.3122 68.7676 63.3122 68.6047C63.3122 68.4417 63.3615 68.2826 63.4535 68.1482C62.6918 67.8322 62.0804 70.8317 62.4512 71.569L62.6417 72.1258C62.9435 73.0291 63.409 73.869 64.0147 74.6036L65.3928 76.2638L67.2218 77.6231Z" fill="#454D66"/>
<path d="M64.5314 60.7798L64.2207 56.1953C65.0312 56.5814 65.8686 56.9083 66.7263 57.1734C67.9991 57.6098 69.7329 56.8424 69.332 57.675C68.6928 58.9137 67.98 60.113 67.1973 61.2663L64.5314 60.7798Z" fill="#AE7461"/>
<path d="M64.2207 56.1949L66.1851 51.6055L68.7508 53.1754C69.4573 54.7103 69.3721 57.6897 69.3721 57.6897C69.3721 57.6897 65.8042 57.8301 64.2207 56.1949Z" fill="#AE7461"/>
<path d="M47.3009 52.6608C47.366 52.9868 47.6016 53.2175 47.802 53.1623C48.0024 53.1072 48.1277 52.8162 48.0576 52.4902C47.9874 52.1642 47.7569 51.9335 47.5565 51.9886C47.356 52.0438 47.2307 52.3548 47.3009 52.6608Z" fill="#454D66"/>
<path d="M40.9431 114.979L39.3947 92.4076C39.1692 89.2175 37.6208 86.5591 35.466 85.3002C34.1019 84.2134 32.4398 83.5679 30.7004 83.4493C30.515 83.4493 30.3346 83.4493 30.1492 83.4493C28.7499 83.4416 27.3713 83.7865 26.1403 84.4525C26.1 84.4668 26.0614 84.4852 26.025 84.5077C24.7573 85.2182 23.6675 86.2078 22.838 87.4018C21.5864 89.2218 20.9219 91.3819 20.9338 93.5913C20.9338 98.6071 24.2361 102.79 28.5707 103.623L30.2444 128.065C30.3897 130.147 31.7477 131.737 33.3914 131.737H41.795L40.9431 114.979Z" fill="#58B368"/>
<path opacity="0.1" d="M40.9431 114.979L39.3947 92.4076C39.1692 89.2175 37.6208 86.5591 35.466 85.3002C34.1019 84.2134 32.4398 83.5679 30.7004 83.4493C30.515 83.4493 30.3346 83.4493 30.1492 83.4493C28.7499 83.4416 27.3713 83.7865 26.1403 84.4525C26.1 84.4668 26.0614 84.4852 26.025 84.5077C24.7573 85.2182 23.6675 86.2078 22.838 87.4018C21.5864 89.2218 20.9219 91.3819 20.9338 93.5913C20.9338 98.6071 24.2361 102.79 28.5707 103.623L30.2444 128.065C30.3897 130.147 31.7477 131.737 33.3914 131.737H41.795L40.9431 114.979Z" fill="white"/>
<path d="M100.844 156.228C110.127 156.228 117.652 154.301 117.652 151.925C117.652 149.548 110.127 147.621 100.844 147.621C91.562 147.621 84.0371 149.548 84.0371 151.925C84.0371 154.301 91.562 156.228 100.844 156.228Z" fill="#454D66"/>
<path opacity="0.3" d="M100.844 154.794C110.127 154.794 117.652 153.188 117.652 151.207C117.652 149.227 110.127 147.621 100.844 147.621C91.562 147.621 84.0371 149.227 84.0371 151.207C84.0371 153.188 91.562 154.794 100.844 154.794Z" fill="white"/>
<path d="M102.231 151.193H99.4552L96.248 116.574H105.438L102.231 151.193Z" fill="#454D66"/>
<path d="M105.438 116.576C105.438 117.579 103.384 118.402 100.843 118.402C98.3026 118.402 96.248 117.584 96.248 116.576C96.248 115.568 98.3076 114.75 100.843 114.75C103.379 114.75 105.438 115.568 105.438 116.576Z" fill="#454D66"/>
<path opacity="0.7" d="M105.438 116.576C105.438 117.579 103.384 118.402 100.843 118.402C98.3026 118.402 96.248 117.584 96.248 116.576C96.248 115.568 98.3076 114.75 100.843 114.75C103.379 114.75 105.438 115.568 105.438 116.576Z" fill="white"/>
<path opacity="0.7" d="M44.6387 117.119C44.6512 116.911 44.7052 116.709 44.7972 116.523C44.8893 116.336 45.0177 116.171 45.1749 116.035C49.0585 119.947 73.6982 122.962 103.514 122.962C133.331 122.962 157.97 119.952 161.859 116.035C162.016 116.171 162.144 116.336 162.236 116.523C162.329 116.709 162.382 116.911 162.395 117.119C162.395 121.537 136.032 125.144 103.514 125.144C70.9972 125.144 44.6387 121.537 44.6387 117.119Z" fill="white"/>
<path opacity="0.7" d="M45.1934 118.117C49.077 114.205 73.7167 111.195 103.533 111.195C133.349 111.195 157.989 114.205 161.877 118.117C157.989 122.029 133.349 125.044 103.533 125.044C73.7167 125.044 49.077 122.029 45.1934 118.117Z" fill="white"/>
<path opacity="0.7" d="M44.6387 116.963C44.6387 112.539 70.9972 108.938 103.514 108.938C136.032 108.938 162.395 112.519 162.395 116.963C162.383 117.169 162.329 117.372 162.237 117.557C162.145 117.742 162.016 117.907 161.859 118.041C157.97 114.129 133.331 111.119 103.514 111.119C73.6982 111.119 49.0585 114.129 45.1749 118.041C45.0175 117.907 44.8888 117.742 44.7967 117.557C44.7045 117.372 44.6508 117.169 44.6387 116.963Z" fill="white"/>
<path d="M126.245 113.07L101.61 112.603C101.544 112.597 101.479 112.577 101.421 112.545C101.362 112.512 101.31 112.469 101.269 112.417C101.227 112.364 101.197 112.304 101.179 112.24C101.161 112.175 101.156 112.108 101.164 112.042V112.042C101.159 111.975 101.167 111.908 101.187 111.844C101.208 111.781 101.242 111.722 101.286 111.671C101.329 111.621 101.383 111.58 101.443 111.55C101.503 111.521 101.568 111.504 101.635 111.5L126.27 111.966C126.337 111.973 126.402 111.992 126.461 112.024C126.52 112.056 126.572 112.099 126.614 112.152C126.656 112.204 126.687 112.264 126.706 112.329C126.724 112.394 126.729 112.462 126.721 112.528C126.726 112.595 126.718 112.663 126.697 112.727C126.676 112.791 126.642 112.85 126.598 112.9C126.553 112.951 126.499 112.992 126.438 113.021C126.378 113.05 126.312 113.067 126.245 113.07Z" fill="#454D66"/>
<path opacity="0.2" d="M126.245 113.07L101.61 112.603C101.544 112.597 101.479 112.577 101.421 112.545C101.362 112.512 101.31 112.469 101.269 112.417C101.227 112.364 101.197 112.304 101.179 112.24C101.161 112.175 101.156 112.108 101.164 112.042V112.042C101.159 111.975 101.167 111.908 101.187 111.844C101.208 111.781 101.242 111.722 101.286 111.671C101.329 111.621 101.383 111.58 101.443 111.55C101.503 111.521 101.568 111.504 101.635 111.5L126.27 111.966C126.337 111.973 126.402 111.992 126.461 112.024C126.52 112.056 126.572 112.099 126.614 112.152C126.656 112.204 126.687 112.264 126.706 112.329C126.724 112.394 126.729 112.462 126.721 112.528C126.726 112.595 126.718 112.663 126.697 112.727C126.676 112.791 126.642 112.85 126.598 112.9C126.553 112.951 126.499 112.992 126.438 113.021C126.378 113.05 126.312 113.067 126.245 113.07Z" fill="white"/>
<path d="M138.205 111.261L126.429 113.042C126.301 113.042 126.177 112.993 126.083 112.904C125.99 112.815 125.935 112.694 125.928 112.566C125.908 112.431 125.938 112.293 126.013 112.179C126.088 112.065 126.202 111.983 126.334 111.949L138.11 110.168C138.239 110.168 138.363 110.217 138.456 110.306C138.549 110.395 138.605 110.516 138.611 110.644C138.632 110.779 138.602 110.917 138.527 111.031C138.452 111.145 138.337 111.227 138.205 111.261V111.261Z" fill="#454D66"/>
<path d="M138.103 110.168H113.207L101.637 111.492L125.6 111.944L138.103 110.168Z" fill="#454D66"/>
<path opacity="0.6" d="M138.103 110.168H113.207L101.637 111.492L125.6 111.944L138.103 110.168Z" fill="white"/>
<path opacity="0.5" d="M138.205 111.261L126.429 113.042C126.301 113.042 126.177 112.993 126.083 112.904C125.99 112.815 125.935 112.694 125.928 112.566C125.908 112.431 125.938 112.293 126.013 112.179C126.088 112.065 126.202 111.983 126.334 111.949L138.11 110.168C138.239 110.168 138.363 110.217 138.456 110.306C138.549 110.395 138.605 110.516 138.611 110.644C138.632 110.779 138.602 110.917 138.527 111.031C138.452 111.145 138.337 111.227 138.205 111.261V111.261Z" fill="white"/>
<path d="M125.599 111.953L102.628 111.521C102.195 111.466 101.797 111.254 101.51 110.925C101.223 110.596 101.066 110.172 101.069 109.736L100.378 95.8518C100.328 94.8837 100.954 94.1063 101.761 94.1213L124.732 94.5577C125.166 94.6108 125.565 94.8224 125.852 95.152C126.14 95.4815 126.296 95.9058 126.29 96.3433L126.987 110.222C127.032 111.19 126.411 111.968 125.599 111.953Z" fill="#58B368"/>
<path opacity="0.2" d="M125.599 111.953L102.628 111.521C102.195 111.466 101.797 111.254 101.51 110.925C101.223 110.596 101.066 110.172 101.069 109.736L100.378 95.8518C100.328 94.8837 100.954 94.1063 101.761 94.1213L124.732 94.5577C125.166 94.6108 125.565 94.8224 125.852 95.152C126.14 95.4815 126.296 95.9058 126.29 96.3433L126.987 110.222C127.032 111.19 126.411 111.968 125.599 111.953Z" fill="white"/>
<path d="M124.928 111.878L101.957 111.441C101.523 111.387 101.124 111.176 100.836 110.846C100.548 110.517 100.39 110.093 100.394 109.656L99.702 95.7971C99.6519 94.829 100.278 94.0516 101.09 94.0666L124.056 94.498C124.49 94.5521 124.889 94.7638 125.177 95.093C125.466 95.4222 125.623 95.8459 125.62 96.2836L126.321 110.147C126.361 111.115 125.735 111.893 124.928 111.878Z" fill="#58B368"/>
<path opacity="0.6" d="M124.928 111.878L101.957 111.441C101.523 111.387 101.124 111.176 100.836 110.846C100.548 110.517 100.39 110.093 100.394 109.656L99.702 95.7971C99.6519 94.829 100.278 94.0516 101.09 94.0666L124.056 94.498C124.49 94.5521 124.889 94.7638 125.177 95.093C125.466 95.4222 125.623 95.8459 125.62 96.2836L126.321 110.147C126.361 111.115 125.735 111.893 124.928 111.878Z" fill="white"/>
<path d="M109.964 102.735C110.032 103.396 110.339 104.009 110.827 104.458C111.316 104.907 111.952 105.162 112.615 105.173C112.927 105.178 113.237 105.117 113.523 104.994C113.81 104.87 114.067 104.687 114.277 104.457C114.487 104.226 114.646 103.953 114.744 103.657C114.841 103.36 114.874 103.046 114.84 102.735C114.767 102.078 114.458 101.47 113.97 101.025C113.483 100.579 112.85 100.326 112.189 100.313C111.879 100.308 111.571 100.368 111.285 100.491C111 100.614 110.744 100.795 110.533 101.024C110.323 101.253 110.164 101.524 110.066 101.819C109.968 102.114 109.933 102.426 109.964 102.735V102.735Z" fill="white"/>
</svg>
