<svg width="200" height="160" viewBox="0 0 200 160" fill="none" xmlns="http://www.w3.org/2000/svg">
<path d="M99.7759 159.379C147.701 159.379 186.552 157.11 186.552 154.312C186.552 151.514 147.701 149.246 99.7759 149.246C51.8509 149.246 13 151.514 13 154.312C13 157.11 51.8509 159.379 99.7759 159.379Z" fill="#F5F5F5"/>
<path d="M95.5657 75.1569H55.2501C53.9877 75.1322 52.7782 74.6452 51.851 73.7881C50.9237 72.931 50.3433 71.7634 50.2197 70.5068L48.2012 45.7213C48.1426 45.1277 48.2099 44.5285 48.3987 43.9627C48.5876 43.3969 48.8938 42.8774 49.2972 42.4381C49.7006 41.9987 50.1922 41.6495 50.7399 41.4132C51.2875 41.1769 51.8789 41.0589 52.4753 41.0668H92.7864C94.0495 41.0915 95.2596 41.5792 96.1869 42.4372C97.1143 43.2953 97.6943 44.4639 97.8169 45.7213L99.8353 70.5068C99.894 71.0998 99.8267 71.6984 99.6381 72.2637C99.4495 72.8289 99.1437 73.348 98.7406 73.7869C98.3376 74.2258 97.8465 74.5747 97.2994 74.8108C96.7523 75.0469 96.1615 75.1648 95.5657 75.1569V75.1569Z" fill="white"/>
<path d="M95.5632 75.3527H55.2477C53.9338 75.3298 52.6744 74.8231 51.7108 73.9296C50.7471 73.0361 50.1468 71.8187 50.0247 70.5102L48.0063 45.7203C47.9457 45.0996 48.0169 44.4731 48.2152 43.8817C48.4134 43.2904 48.7342 42.7476 49.1567 42.2888C49.5792 41.83 50.0937 41.4656 50.6667 41.2194C51.2397 40.9731 51.8582 40.8506 52.4818 40.8599H92.7928C94.1047 40.8825 95.3622 41.3873 96.3256 42.278C97.2889 43.1687 97.8906 44.3829 98.0158 45.6889L100.025 70.5102C100.086 71.1309 100.015 71.7574 99.8164 72.3488C99.6182 72.9401 99.2973 73.4829 98.8749 73.9417C98.4524 74.4004 97.9379 74.7649 97.3649 75.0111C96.7919 75.2574 96.1734 75.3799 95.5498 75.3706L95.5632 75.3527ZM52.4729 41.2627C51.9029 41.2521 51.3372 41.3626 50.8131 41.5869C50.289 41.8112 49.8185 42.1441 49.4327 42.5638C49.0469 42.9835 48.7546 43.4802 48.575 44.0213C48.3955 44.5623 48.3328 45.1353 48.3912 45.7024L50.4096 70.5102C50.5259 71.7201 51.0833 72.8449 51.9755 73.6702C52.8677 74.4956 54.0324 74.9638 55.2477 74.9857H95.5632C96.1361 74.9963 96.7047 74.8845 97.231 74.6578C97.7573 74.4311 98.2292 74.0947 98.6151 73.6711C99.001 73.2475 99.2921 72.7464 99.4689 72.2013C99.6457 71.6562 99.7042 71.0797 99.6404 70.5102L97.6219 45.7203C97.5057 44.5104 96.9483 43.3856 96.0561 42.5603C95.1638 41.7349 93.9991 41.2667 92.7839 41.2448L52.4729 41.2627Z" fill="#58B368"/>
<path d="M84.6217 67.9192C83.022 69.6454 80.9684 70.8863 78.6961 71.4996L78.0293 69.611C82.9927 68.2683 86.3538 63.6227 85.9062 58.1223C85.6181 54.8979 84.1313 51.8988 81.7395 49.7172L83.024 48.3164C88.8422 53.6826 89.5627 62.5351 84.6217 67.9192Z" fill="#E0E0E0"/>
<path d="M83.0209 48.3027L81.7365 49.7036C79.3801 47.4915 76.2769 46.2483 73.045 46.2216C71.5232 46.2031 70.0145 46.5039 68.6162 47.1044C67.2178 47.7049 65.9609 48.5918 64.9264 49.708L63.4092 48.3027C64.6194 47.0042 66.087 45.9722 67.7183 45.2725C69.3496 44.5728 71.1089 44.2208 72.8839 44.2389C76.6528 44.2753 80.2706 45.7256 83.0209 48.3027Z" fill="#454D66"/>
<path d="M78.6944 71.5131C74.0175 72.7886 68.7901 71.4191 65.0082 67.9326C59.1901 62.562 58.4695 53.696 63.4105 48.3164L64.9277 49.7217C63.9026 50.8503 63.1243 52.1803 62.6427 53.6269C62.161 55.0734 61.9866 56.6045 62.1305 58.1223C62.6631 64.6879 68.4186 70.0093 74.9842 70.0093C76.0118 70.0115 77.0351 69.8775 78.0275 69.611L78.6944 71.5131Z" fill="#58B368"/>
<path d="M40.6483 1H37.417V1.38937H40.6483V1Z" fill="#58B368"/>
<path d="M34.2796 1H26.9219V1.38937H34.2796V1Z" fill="#58B368"/>
<path d="M68.5085 36.6257H28.1974C26.9347 36.602 25.7246 36.1153 24.7972 35.258C23.8698 34.4007 23.2896 33.2326 23.1669 31.9756L21.1485 7.18566C21.0898 6.5923 21.1571 5.99323 21.346 5.42768C21.5349 4.86214 21.8411 4.34287 22.2446 3.90388C22.6481 3.46489 23.1398 3.11607 23.6875 2.88028C24.2351 2.64448 24.8264 2.52703 25.4226 2.53559H65.7337C66.9961 2.56022 68.2056 3.04726 69.1328 3.90437C70.0601 4.76147 70.6405 5.92904 70.7641 7.18566L72.7826 31.9756C72.8413 32.569 72.774 33.168 72.5851 33.7336C72.3962 34.2991 72.0899 34.8184 71.6864 35.2574C71.2829 35.6964 70.7913 36.0452 70.2436 36.281C69.696 36.5168 69.1047 36.6342 68.5085 36.6257V36.6257Z" fill="white"/>
<path d="M68.5089 36.8237H28.1979C26.8861 36.8011 25.6285 36.2962 24.6651 35.4055C23.7018 34.5148 23.1001 33.3006 22.9749 31.9946L20.9565 7.20466C20.8959 6.58394 20.9671 5.95743 21.1654 5.36611C21.3636 4.7748 21.6844 4.232 22.1069 3.77321C22.5293 3.31442 23.0439 2.94999 23.6169 2.70374C24.1899 2.4575 24.8084 2.33499 25.432 2.34424H65.743C67.0549 2.36685 68.3124 2.87167 69.2758 3.76237C70.2391 4.65307 70.8408 5.8673 70.966 7.17333L72.9844 31.9633C73.045 32.584 72.9738 33.2105 72.7756 33.8018C72.5773 34.3931 72.2565 34.9359 71.834 35.3947C71.4116 35.8535 70.897 36.2179 70.324 36.4642C69.751 36.7104 69.1325 36.8329 68.5089 36.8237V36.8237ZM25.4231 2.72913C24.8527 2.71846 24.2865 2.82907 23.7621 3.05363C23.2377 3.2782 22.767 3.6116 22.3811 4.03176C21.9952 4.45192 21.703 4.94926 21.5237 5.49084C21.3445 6.03243 21.2823 6.60592 21.3414 7.17333L23.3598 31.9633C23.4761 33.1731 24.0335 34.2979 24.9257 35.1233C25.8179 35.9486 26.9826 36.4169 28.1979 36.4388H68.5089C69.0789 36.4494 69.6446 36.3389 70.1687 36.1146C70.6927 35.8903 71.1632 35.5573 71.5491 35.1376C71.9349 34.718 72.2272 34.2212 72.4068 33.6802C72.5863 33.1391 72.649 32.5661 72.5906 31.9991L70.5721 7.20913C70.4549 5.99964 69.8972 4.87541 69.0052 4.05023C68.1132 3.22506 66.949 2.75648 65.7341 2.73361L25.4231 2.72913Z" fill="#58B368"/>
<path d="M24.7976 9.64313H46.1593L45.9847 7.53516H24.623L24.7976 9.64313Z" fill="#E0E0E0"/>
<path d="M67.5186 9.64313H46.157L45.9824 7.53516H67.3486L67.5186 9.64313Z" fill="#58B368"/>
<path d="M25.2458 15.1437H31.337L31.167 13.0312H25.0713L25.2458 15.1437Z" fill="#E0E0E0"/>
<path d="M67.9673 15.1437H31.3351L31.165 13.0312H67.7972L67.9673 15.1437Z" fill="#58B368"/>
<path d="M25.6931 20.6353H44.7051L44.5351 18.5273H25.5186L25.6931 20.6353Z" fill="#E0E0E0"/>
<path d="M68.4156 20.6353H44.7042L44.5342 18.5273H68.2455L68.4156 20.6353Z" fill="#58B368"/>
<path d="M26.1384 26.1275H58.5904L58.4159 24.0195H25.9639L26.1384 26.1275Z" fill="#E0E0E0"/>
<path d="M68.8609 26.1275H58.5896L58.415 24.0195H68.6864L68.8609 26.1275Z" fill="#58B368"/>
<path d="M26.5822 31.6281H41.5931L41.423 29.5156H26.4121L26.5822 31.6281Z" fill="#E0E0E0"/>
<path d="M69.3098 31.6281H41.5929L41.4229 29.5156H69.1353L69.3098 31.6281Z" fill="#58B368"/>
<path d="M123.62 36.6254H83.309C82.0486 36.5985 80.8418 36.1104 79.9172 35.2534C78.9926 34.3964 78.4143 33.2301 78.2919 31.9754L76.2735 7.18544C76.215 6.5936 76.2818 5.99606 76.4696 5.43178C76.6575 4.86749 76.9621 4.34911 77.3637 3.9104C77.7652 3.4717 78.2547 3.12251 78.8002 2.88559C79.3457 2.64868 79.935 2.52935 80.5297 2.53537H120.845C122.108 2.56 123.317 3.04704 124.244 3.90415C125.172 4.76125 125.752 5.92882 125.876 7.18544L127.894 31.9754C127.953 32.5687 127.886 33.1678 127.697 33.7334C127.508 34.2989 127.201 34.8182 126.798 35.2572C126.394 35.6962 125.903 36.045 125.355 36.2808C124.808 36.5165 124.216 36.634 123.62 36.6254Z" fill="white"/>
<path d="M123.621 36.8237H83.3099C81.9994 36.7954 80.7444 36.2887 79.7816 35.3992C78.8187 34.5097 78.2144 33.2988 78.0825 31.9946L76.0551 7.20466C75.9946 6.58394 76.0657 5.95743 76.264 5.36611C76.4622 4.7748 76.7831 4.232 77.2055 3.77321C77.628 3.31442 78.1425 2.94999 78.7155 2.70374C79.2885 2.4575 79.907 2.33499 80.5306 2.34424H120.846C122.158 2.36685 123.416 2.87167 124.379 3.76237C125.342 4.65307 125.944 5.8673 126.069 7.17333L128.088 31.9633C128.148 32.584 128.077 33.2105 127.879 33.8018C127.68 34.3931 127.36 34.9359 126.937 35.3947C126.515 35.8535 126 36.2179 125.427 36.4642C124.854 36.7104 124.236 36.8329 123.612 36.8237H123.621ZM80.5306 2.72913C79.9606 2.7191 79.395 2.83019 78.8711 3.05503C78.3472 3.27988 77.877 3.61337 77.4917 4.03346C77.1063 4.45355 76.8144 4.95066 76.6354 5.49193C76.4565 6.0332 76.3944 6.6063 76.4534 7.17333L78.4719 31.9633C78.5882 33.1731 79.1455 34.2979 80.0378 35.1233C80.93 35.9486 82.0947 36.4169 83.3099 36.4388H123.621C124.191 36.4494 124.757 36.3389 125.281 36.1146C125.805 35.8903 126.275 35.5573 126.661 35.1376C127.047 34.718 127.339 34.2212 127.519 33.6802C127.698 33.1391 127.761 32.5661 127.703 31.9991L125.684 7.20913C125.567 5.99964 125.009 4.87541 124.117 4.05023C123.225 3.22506 122.061 2.75648 120.846 2.73361L80.5306 2.72913Z" fill="#58B368"/>
<path d="M103.415 31.6224H102.703L100.743 7.53516H101.455L103.415 31.6224Z" fill="#E0E0E0"/>
<path d="M104.486 21.6146H99.9973L99.2275 12.207H103.721L104.486 21.6146Z" fill="#58B368"/>
<path d="M94.5762 31.6224H93.8646L91.9043 7.53516H92.6159L94.5762 31.6224Z" fill="#E0E0E0"/>
<path d="M95.8239 23.7054H91.3305L90.6592 15.457H95.1481L95.8239 23.7054Z" fill="#58B368"/>
<path d="M85.7402 31.6224H85.0286L83.0684 7.53516H83.78L85.7402 31.6224Z" fill="#E0E0E0"/>
<path d="M86.4324 16.9233H81.9434L81.4824 11.2617H85.9714L86.4324 16.9233Z" fill="#454D66"/>
<path d="M112.248 31.6224H111.536L109.576 7.53516H110.288L112.248 31.6224Z" fill="#E0E0E0"/>
<path d="M113.757 26.9584H109.268L108.068 12.207H112.557L113.757 26.9584Z" fill="#454D66"/>
<path d="M121.086 31.6224H120.369L118.409 7.53516H119.121L121.086 31.6224Z" fill="#E0E0E0"/>
<path d="M122.738 28.7255H118.249L117.287 16.9102H121.776L122.738 28.7255Z" fill="#58B368"/>
<path d="M80.4831 113.371H40.1676C38.9054 113.346 37.6964 112.858 36.7694 112.001C35.8424 111.144 35.2616 109.977 35.1371 108.721L33.1231 83.9356C33.0645 83.3426 33.1317 82.7439 33.3203 82.1787C33.5089 81.6135 33.8147 81.0944 34.2178 80.6555C34.6208 80.2166 35.1119 79.8677 35.659 79.6316C36.2061 79.3955 36.7969 79.2776 37.3927 79.2855H77.7083C78.9704 79.3111 80.1794 79.7985 81.1064 80.6554C82.0334 81.5123 82.6142 82.6793 82.7387 83.9356L84.7572 108.726C84.8145 109.318 84.7462 109.917 84.5567 110.481C84.3672 111.046 84.0609 111.564 83.6576 112.003C83.2543 112.441 82.7632 112.79 82.2162 113.025C81.6692 113.261 81.0787 113.379 80.4831 113.371V113.371Z" fill="white"/>
<path d="M80.4822 113.563H40.1666C38.8551 113.54 37.5981 113.034 36.6349 112.144C35.6718 111.253 35.0698 110.04 34.9437 108.734L32.9252 83.9351C32.8647 83.3144 32.9359 82.6879 33.1341 82.0966C33.3323 81.5053 33.6532 80.9625 34.0756 80.5037C34.4981 80.0449 35.0127 79.6805 35.5856 79.4342C36.1586 79.188 36.7772 79.0655 37.4008 79.0747H77.7163C79.0312 79.1013 80.2901 79.6118 81.2521 80.5086C82.2141 81.4053 82.8116 82.6253 82.9303 83.9351L84.9487 108.721C85.0093 109.341 84.9381 109.968 84.7398 110.559C84.5416 111.15 84.2208 111.693 83.7983 112.152C83.3758 112.611 82.8613 112.975 82.2883 113.221C81.7153 113.468 81.0968 113.59 80.4732 113.581L80.4822 113.563ZM37.3918 79.4596C36.8189 79.449 36.2503 79.5608 35.724 79.7876C35.1977 80.0143 34.7258 80.3507 34.3399 80.7743C33.954 81.1979 33.6629 81.699 33.4861 82.244C33.3093 82.7891 33.2508 83.3656 33.3146 83.9351L35.3286 108.703C35.4448 109.912 36.0015 111.036 36.8928 111.861C37.7841 112.686 38.9477 113.155 40.1622 113.178H80.4777C81.0477 113.188 81.6133 113.077 82.1372 112.852C82.6611 112.627 83.1313 112.294 83.5167 111.874C83.902 111.454 84.1939 110.957 84.3729 110.415C84.5518 109.874 84.6139 109.301 84.5549 108.734L82.5454 83.9351C82.4281 82.7256 81.8705 81.6014 80.9785 80.7762C80.0864 79.951 78.9223 79.4825 77.7073 79.4596H37.3918Z" fill="#58B368"/>
<path d="M42.8458 95.7327L51.5327 105.771L61.4997 90.4023L67.6581 98.3464L69.1618 96.0281L79.2362 108.099L40.5498 108.085L42.8458 95.7327Z" fill="#58B368"/>
<path d="M71.853 96.3572L67.8161 105.004L54.9355 84.5508L48.8712 97.5387L46.9243 94.4551L40.5557 108.097L79.2331 108.074L71.853 96.3572Z" fill="#E0E0E0"/>
<path d="M154.771 39.2048C155.85 41.2277 156.776 43.2327 157.649 45.3094C158.524 47.4092 159.271 49.5599 159.887 51.7496C160.043 52.3046 160.178 52.8775 160.307 53.4503C160.408 53.8475 160.468 54.2539 160.486 54.6632C160.502 55.0702 160.479 55.4777 160.419 55.8806C160.183 57.1825 159.729 58.4353 159.077 59.5863C157.948 61.6297 156.54 63.5052 154.892 65.1583C154.68 65.3767 154.397 65.5115 154.094 65.5381C153.791 65.5647 153.488 65.4812 153.241 65.303C152.995 65.1248 152.82 64.8638 152.75 64.5677C152.68 64.2715 152.719 63.9601 152.86 63.6903L152.892 63.6322C153.882 61.809 154.743 59.9186 155.469 57.9751C155.777 57.1562 155.962 56.2967 156.02 55.4241C156.022 55.2815 156.01 55.1391 155.984 54.9989C155.978 54.9542 155.966 54.9106 155.948 54.8691L155.863 54.605C155.716 54.1217 155.563 53.6383 155.384 53.155C154.704 51.2126 153.867 49.2613 152.994 47.3368C152.122 45.4123 151.204 43.4475 150.273 41.5813V41.541C149.966 40.9421 149.909 40.2457 150.115 39.6049C150.321 38.9641 150.773 38.4313 151.372 38.1239C151.971 37.8165 152.667 37.7595 153.308 37.9656C153.949 38.1716 154.482 38.6238 154.789 39.2227L154.771 39.2048Z" fill="#58B368"/>
<path d="M153.369 63.441L151.243 64.1168L153.758 67.0572C154.367 66.4837 154.82 65.7643 155.074 64.9672C155.129 64.7625 155.12 64.5459 155.048 64.3465C154.976 64.1472 154.845 63.9748 154.671 63.8528L154.313 63.5932C154.179 63.4953 154.024 63.4305 153.859 63.4041C153.695 63.3776 153.527 63.3903 153.369 63.441V63.441Z" fill="#7F3E3B"/>
<path d="M148.29 65.9337L150.984 68.073L153.75 67.0615L151.235 64.1211L148.29 65.9337Z" fill="#7F3E3B"/>
<path d="M139.093 24.2364C139.039 24.5005 138.856 24.684 138.681 24.6526C138.507 24.6213 138.413 24.3752 138.466 24.1111C138.52 23.8471 138.703 23.6636 138.878 23.6949C139.053 23.7262 139.16 23.9634 139.093 24.2364Z" fill="#454D66"/>
<path d="M138.877 24.6914C138.397 25.4363 137.817 26.1124 137.154 26.7009C137.309 26.8669 137.498 26.997 137.708 27.0821C137.919 27.1671 138.145 27.2051 138.372 27.1932L138.877 24.6914Z" fill="#630F0F"/>
<path d="M140.358 22.9687C140.389 22.968 140.419 22.9585 140.445 22.9413C140.47 22.9241 140.49 22.9 140.502 22.8717C140.515 22.8435 140.519 22.8123 140.514 22.7819C140.509 22.7515 140.495 22.7231 140.475 22.7002C140.309 22.5121 140.101 22.3664 139.867 22.2753C139.633 22.1842 139.381 22.1504 139.132 22.1766C139.109 22.1767 139.086 22.1819 139.064 22.1918C139.043 22.2018 139.024 22.2162 139.009 22.2341C138.994 22.252 138.983 22.273 138.977 22.2956C138.971 22.3182 138.97 22.3418 138.974 22.3649C138.978 22.388 138.987 22.4099 139 22.4292C139.013 22.4484 139.031 22.4646 139.051 22.4764C139.071 22.4883 139.094 22.4957 139.117 22.498C139.14 22.5003 139.164 22.4975 139.186 22.4899V22.4899C139.385 22.4746 139.586 22.5073 139.77 22.5851C139.955 22.663 140.118 22.7837 140.246 22.9374C140.278 22.9618 140.318 22.973 140.358 22.9687V22.9687Z" fill="#454D66"/>
<path d="M146.448 29.0586C145.969 31.5112 145.678 34.9036 147.392 36.5417C147.392 36.5417 146.721 39.0256 142.17 39.0256C137.161 39.0256 139.762 36.846 139.762 36.846C141.843 36.1971 141.825 33.8295 141.346 31.9229L146.448 29.0586Z" fill="#7F3E3B"/>
<path d="M138.878 36.4592C138.878 36.4592 139.612 34.7316 140.355 34.4317C141.098 34.1319 145.851 33.3531 146.943 34.0424C148.035 34.7316 148.778 36.9425 148.778 36.9425L138.878 36.4592Z" fill="#58B368"/>
<path d="M143.897 151.067C143.45 151.067 143.052 151.009 142.913 150.812C142.877 150.762 142.857 150.702 142.857 150.64C142.857 150.578 142.877 150.518 142.913 150.468C142.94 150.421 142.977 150.38 143.021 150.348C143.065 150.317 143.115 150.295 143.168 150.284C143.723 150.132 144.896 150.799 144.958 150.826C144.972 150.834 144.983 150.846 144.989 150.86C144.995 150.875 144.997 150.891 144.994 150.906C144.992 150.923 144.985 150.938 144.974 150.95C144.963 150.963 144.948 150.971 144.931 150.974C144.59 151.034 144.244 151.066 143.897 151.067V151.067ZM143.365 150.419C143.314 150.411 143.263 150.411 143.213 150.419C143.18 150.424 143.149 150.437 143.121 150.456C143.094 150.476 143.072 150.501 143.056 150.53C143.002 150.629 143.02 150.674 143.056 150.705C143.213 150.92 144.059 150.924 144.681 150.839C144.274 150.612 143.827 150.466 143.365 150.41V150.419Z" fill="#58B368"/>
<path d="M144.91 150.965H144.879C144.471 150.782 143.67 150.07 143.733 149.681C143.733 149.591 143.809 149.48 144.028 149.457C144.108 149.448 144.189 149.455 144.266 149.478C144.343 149.501 144.414 149.54 144.476 149.592C144.923 149.945 144.995 150.845 145 150.885C144.999 150.899 144.996 150.912 144.99 150.925C144.983 150.937 144.975 150.948 144.964 150.957C144.948 150.966 144.928 150.969 144.91 150.965ZM144.091 149.623H144.046C143.903 149.623 143.894 149.694 143.89 149.712C143.854 149.941 144.395 150.509 144.812 150.76C144.771 150.377 144.615 150.017 144.364 149.726C144.288 149.652 144.187 149.611 144.082 149.609L144.091 149.623Z" fill="#58B368"/>
<path d="M148.593 150.885H145.245L144.909 143.129H148.257L148.593 150.885Z" fill="#7F3E3B"/>
<path d="M145.263 150.5H148.924C148.991 150.5 149.055 150.523 149.107 150.564C149.159 150.606 149.196 150.664 149.211 150.728L149.869 153.704C149.886 153.776 149.886 153.851 149.87 153.923C149.854 153.995 149.821 154.062 149.775 154.119C149.729 154.177 149.67 154.223 149.603 154.254C149.537 154.285 149.464 154.301 149.39 154.3C148.07 154.277 146.163 154.201 144.503 154.201C142.565 154.201 142.327 154.309 140.054 154.309C138.68 154.309 138.299 152.917 138.872 152.791C141.495 152.219 142.193 152.156 144.458 150.76C144.697 150.6 144.976 150.51 145.263 150.5Z" fill="#454D66"/>
<path d="M153.386 36.5468C156.518 37.2674 158.595 45.7395 158.595 45.7395L153.354 49.678C151.402 48.2813 150.016 46.2289 149.452 43.8956C148.386 39.6976 150.177 35.8128 153.386 36.5468Z" fill="#454D66"/>
<path opacity="0.2" d="M150.696 42.4414C152.401 44.1287 153.502 46.7916 153.637 49.4635L153.359 49.6783C151.41 48.2804 150.028 46.2281 149.465 43.896C149.403 43.6453 149.345 43.3947 149.3 43.1485L150.696 42.4414Z" fill="black"/>
<path d="M164.675 49.1691L139.24 59.332L146.798 78.2462L172.233 68.0832L164.675 49.1691Z" fill="#58B368"/>
<path opacity="0.5" d="M164.304 49.3185L139.243 59.332L146.801 78.2462L171.862 68.2327L164.304 49.3185Z" fill="white"/>
<g opacity="0.5">
<path d="M143.829 59.4346L141.456 60.3828L142.129 62.066L144.502 61.1178L143.829 59.4346Z" fill="#58B368"/>
<path d="M147.748 57.8682L145.375 58.8164L146.048 60.4996L148.421 59.5514L147.748 57.8682Z" fill="#58B368"/>
<path d="M151.665 56.3057L149.292 57.2539L149.965 58.9371L152.338 57.9889L151.665 56.3057Z" fill="#58B368"/>
<path d="M155.584 54.7393L153.211 55.6875L153.883 57.3707L156.257 56.4225L155.584 54.7393Z" fill="#58B368"/>
<path d="M159.498 53.1768L157.125 54.125L157.798 55.8082L160.171 54.86L159.498 53.1768Z" fill="#58B368"/>
<path d="M163.418 51.6143L161.045 52.5625L161.717 54.2457L164.091 53.2975L163.418 51.6143Z" fill="#58B368"/>
<path d="M144.943 62.2119L142.57 63.1602L143.243 64.8434L145.616 63.8951L144.943 62.2119Z" fill="#58B368"/>
<path d="M148.856 60.6494L146.482 61.5977L147.155 63.2809L149.528 62.3326L148.856 60.6494Z" fill="#58B368"/>
<path d="M152.772 59.083L150.398 60.0312L151.071 61.7144L153.444 60.7662L152.772 59.083Z" fill="#58B368"/>
<path d="M156.693 57.5205L154.32 58.4688L154.993 60.1519L157.366 59.2037L156.693 57.5205Z" fill="#58B368"/>
<path d="M160.61 55.9502L158.237 56.8984L158.91 58.5816L161.283 57.6334L160.61 55.9502Z" fill="#58B368"/>
<path d="M164.527 54.3877L162.154 55.3359L162.827 57.0191L165.2 56.0709L164.527 54.3877Z" fill="#58B368"/>
<path d="M146.048 64.9893L143.675 65.9375L144.347 67.6207L146.72 66.6725L146.048 64.9893Z" fill="#58B368"/>
<path d="M149.965 63.419L147.592 64.3672L148.264 66.0504L150.637 65.1022L149.965 63.419Z" fill="#58B368"/>
<path d="M153.887 61.8643L151.514 62.8125L152.186 64.4957L154.559 63.5475L153.887 61.8643Z" fill="#58B368"/>
<path d="M157.803 60.294L155.43 61.2422L156.102 62.9254L158.475 61.9772L157.803 60.294Z" fill="#58B368"/>
<path d="M161.72 58.7276L159.347 59.6758L160.019 61.359L162.392 60.4108L161.72 58.7276Z" fill="#58B368"/>
<path d="M165.637 57.1651L163.264 58.1133L163.936 59.7965L166.309 58.8483L165.637 57.1651Z" fill="#58B368"/>
<path d="M147.162 67.7705L144.789 68.7188L145.462 70.4019L147.835 69.4537L147.162 67.7705Z" fill="#58B368"/>
<path d="M151.076 66.208L148.703 67.1562L149.376 68.8394L151.749 67.8912L151.076 66.208Z" fill="#58B368"/>
<path d="M154.99 64.6338L152.617 65.582L153.29 67.2652L155.663 66.317L154.99 64.6338Z" fill="#58B368"/>
<path d="M158.915 63.0674L156.542 64.0156L157.215 65.6988L159.588 64.7506L158.915 63.0674Z" fill="#58B368"/>
<path d="M162.829 61.5049L160.456 62.4531L161.129 64.1363L163.502 63.1881L162.829 61.5049Z" fill="#58B368"/>
<path d="M166.746 59.9424L164.373 60.8906L165.046 62.5738L167.419 61.6256L166.746 59.9424Z" fill="#58B368"/>
<path d="M148.27 70.544L145.896 71.4922L146.569 73.1754L148.942 72.2272L148.27 70.544Z" fill="#58B368"/>
<path d="M152.184 68.9776L149.811 69.9258L150.483 71.609L152.856 70.6608L152.184 68.9776Z" fill="#58B368"/>
<path d="M156.103 67.4151L153.729 68.3633L154.402 70.0465L156.775 69.0983L156.103 67.4151Z" fill="#58B368"/>
<path d="M160.02 65.8526L157.646 66.8008L158.319 68.484L160.692 67.5358L160.02 65.8526Z" fill="#58B368"/>
<path d="M163.939 64.2862L161.565 65.2344L162.238 66.9176L164.611 65.9694L163.939 64.2862Z" fill="#58B368"/>
<path d="M167.857 62.7159L165.484 63.6641L166.157 65.3473L168.53 64.3991L167.857 62.7159Z" fill="#58B368"/>
<path d="M149.381 73.3213L147.008 74.2695L147.68 75.9527L150.053 75.0045L149.381 73.3213Z" fill="#58B368"/>
<path d="M153.298 71.7549L150.925 72.7031L151.597 74.3863L153.97 73.4381L153.298 71.7549Z" fill="#58B368"/>
<path d="M157.212 70.1924L154.839 71.1406L155.511 72.8238L157.885 71.8756L157.212 70.1924Z" fill="#58B368"/>
<path d="M161.126 68.6221L158.753 69.5703L159.425 71.2535L161.799 70.3053L161.126 68.6221Z" fill="#58B368"/>
<path d="M165.048 67.0557L162.675 68.0039L163.347 69.6871L165.72 68.7389L165.048 67.0557Z" fill="#58B368"/>
<path d="M168.965 65.4932L166.592 66.4414L167.264 68.1246L169.637 67.1764L168.965 65.4932Z" fill="#58B368"/>
</g>
<path d="M162.57 55.1552C162.509 54.982 162.517 54.792 162.593 54.6248C162.669 54.4576 162.806 54.3261 162.977 54.2579C163.147 54.1897 163.337 54.1901 163.508 54.2589C163.678 54.3277 163.815 54.4596 163.89 54.6271C163.929 54.7146 163.951 54.8092 163.952 54.9051C163.954 55.001 163.937 55.0963 163.901 55.1853C163.865 55.2742 163.811 55.355 163.743 55.4227C163.675 55.4904 163.594 55.5437 163.505 55.5794C163.416 55.615 163.321 55.6322 163.225 55.6301C163.129 55.6279 163.034 55.6064 162.947 55.5667C162.86 55.5271 162.781 55.4702 162.716 55.3995C162.652 55.3288 162.602 55.2457 162.57 55.1552V55.1552Z" fill="white"/>
<path d="M161.984 65.0549C161.933 64.9249 161.922 64.7827 161.952 64.6463C161.982 64.5099 162.051 64.3854 162.151 64.2884C162.252 64.1914 162.379 64.1263 162.516 64.1013C162.653 64.0763 162.795 64.0925 162.923 64.1478C163.051 64.2032 163.16 64.2953 163.236 64.4124C163.312 64.5296 163.352 64.6666 163.35 64.8061C163.348 64.9457 163.305 65.0817 163.226 65.1968C163.147 65.3119 163.036 65.4011 162.906 65.4532C162.82 65.488 162.727 65.5053 162.634 65.504C162.54 65.5028 162.448 65.4832 162.362 65.4461C162.277 65.4091 162.199 65.3554 162.134 65.2883C162.069 65.2211 162.018 65.1418 161.984 65.0549V65.0549Z" fill="white"/>
<path d="M153.033 65.4089C152.981 65.2781 152.969 65.1347 152.998 64.9969C153.027 64.8591 153.097 64.7332 153.198 64.635C153.299 64.5368 153.427 64.4708 153.565 64.4453C153.704 64.4199 153.847 64.4361 153.976 64.492C154.106 64.5478 154.215 64.6408 154.292 64.7591C154.368 64.8775 154.408 65.0158 154.406 65.1567C154.403 65.2975 154.359 65.4345 154.279 65.5503C154.199 65.6661 154.086 65.7555 153.955 65.8072C153.868 65.842 153.776 65.8593 153.682 65.8581C153.589 65.8569 153.497 65.8372 153.411 65.8002C153.325 65.7631 153.248 65.7095 153.183 65.6423C153.118 65.5752 153.067 65.4958 153.033 65.4089V65.4089Z" fill="white"/>
<path d="M147.42 74.0885C147.367 73.9579 147.354 73.8145 147.383 73.6764C147.412 73.5384 147.481 73.412 147.581 73.3132C147.682 73.2145 147.809 73.1478 147.948 73.1217C148.087 73.0956 148.23 73.1112 148.359 73.1666C148.489 73.222 148.599 73.3146 148.676 73.4327C148.753 73.5509 148.793 73.6892 148.791 73.8302C148.789 73.9711 148.746 74.1084 148.666 74.2245C148.586 74.3406 148.473 74.4304 148.342 74.4824C148.168 74.5517 147.973 74.5492 147.8 74.4754C147.628 74.4016 147.491 74.2626 147.42 74.0885Z" fill="white"/>
<path d="M148.084 74.087C148.033 74.088 147.983 74.0723 147.941 74.0423C147.912 74.024 147.886 74.0001 147.866 73.9719C147.846 73.9437 147.832 73.9118 147.825 73.878C147.817 73.8442 147.816 73.8093 147.823 73.7752C147.829 73.7412 147.842 73.7087 147.861 73.6798L153.482 65.0017C153.505 64.9662 153.536 64.9367 153.572 64.9157C153.609 64.8947 153.65 64.8827 153.692 64.8809L162.397 64.5363L162.974 54.8781C162.986 54.8143 163.02 54.757 163.071 54.7169C163.122 54.6768 163.186 54.6568 163.25 54.6606C163.315 54.6645 163.376 54.692 163.421 54.7378C163.467 54.7837 163.494 54.8448 163.498 54.9094L162.912 64.8048C162.907 64.8702 162.879 64.9316 162.832 64.977C162.785 65.0225 162.722 65.0489 162.657 65.051L153.849 65.4L148.308 73.9707C148.284 74.0072 148.25 74.037 148.211 74.0573C148.172 74.0776 148.128 74.0878 148.084 74.087Z" fill="white"/>
<path d="M133.548 39.9117C132.863 43.5279 132.434 50.9617 134.443 65.6773H152.345C152.023 63.1262 150.739 49.5117 153.393 36.5505C151.412 36.1707 149.408 35.918 147.395 35.7942C144.861 35.6467 142.321 35.6467 139.787 35.7942C138.946 35.8703 138.122 35.9911 137.388 36.1209C136.439 36.2884 135.563 36.7408 134.877 37.4179C134.191 38.095 133.728 38.9648 133.548 39.9117V39.9117Z" fill="#454D66"/>
<path opacity="0.2" d="M136.368 45.4805L133.002 45.749C132.881 50.1037 133.181 56.4589 134.425 65.674H134.587C136.605 59.0368 139.281 49.5487 136.368 45.4805Z" fill="black"/>
<path opacity="0.2" d="M144.909 143.137L145.079 147.133H148.431L148.261 143.137H144.909Z" fill="black"/>
<path d="M148.039 25.4681C147.18 28.6816 146.835 30.6016 144.857 31.9398C141.876 33.9448 138.144 31.6399 138.045 28.2385C137.942 25.1728 139.366 20.4377 142.812 19.7887C143.571 19.6427 144.355 19.6931 145.089 19.9351C145.824 20.1772 146.484 20.6029 147.008 21.1719C147.532 21.7408 147.901 22.4341 148.082 23.186C148.262 23.9379 148.247 24.7235 148.039 25.4681V25.4681Z" fill="#7F3E3B"/>
<path d="M140.502 25.494L138.761 25.9416L140.381 21.7391C139.952 20.7099 139.9 19.5627 140.233 18.4988C140.295 18.3098 140.415 18.1451 140.575 18.0278C140.736 17.9106 140.929 17.8468 141.128 17.8454C144.736 17.7782 148.508 19.8012 150.406 21.3318C150.583 21.4745 150.702 21.6768 150.741 21.9008C150.78 22.1249 150.735 22.3553 150.616 22.5492C150.149 23.2427 149.6 23.8782 148.983 24.4423C148.947 25.6194 147.027 30.9318 145.966 31.5315C144.906 32.1313 142.869 31.8851 142.328 30.9139C141.786 29.9427 139.969 28.6627 140.502 25.494Z" fill="#454D66"/>
<path d="M142.132 25.5631C141.933 26.3642 141.477 27.0781 140.834 27.595C139.979 28.2663 139.312 27.6487 139.348 26.6596C139.379 25.7645 139.863 24.3502 140.816 24.0593C141.769 23.7684 142.356 24.5919 142.132 25.5631Z" fill="#7F3E3B"/>
<path d="M172.764 149.905C172.764 149.457 172.817 149.059 173.01 148.915C173.061 148.879 173.122 148.859 173.184 148.859C173.247 148.859 173.308 148.879 173.359 148.915C173.45 148.972 173.516 149.062 173.542 149.166C173.699 149.721 173.041 150.898 173.01 150.956C173.003 150.971 172.991 150.983 172.977 150.991C172.962 150.998 172.945 151 172.929 150.997C172.914 150.994 172.899 150.987 172.888 150.975C172.877 150.964 172.869 150.95 172.867 150.934C172.803 150.594 172.768 150.25 172.764 149.905ZM173.413 149.367C173.42 149.317 173.42 149.266 173.413 149.215C173.407 149.182 173.394 149.151 173.375 149.124C173.355 149.097 173.33 149.075 173.301 149.059C173.202 149.005 173.153 149.023 173.126 149.059C172.911 149.215 172.911 150.061 173.005 150.683C173.224 150.275 173.362 149.828 173.413 149.367V149.367Z" fill="#58B368"/>
<path d="M172.86 150.915C172.858 150.905 172.858 150.894 172.86 150.884C173.039 150.481 173.755 149.675 174.135 149.733C174.225 149.733 174.336 149.81 174.359 150.024C174.369 150.104 174.363 150.185 174.339 150.262C174.316 150.34 174.277 150.411 174.225 150.472C173.88 150.919 172.976 150.996 172.94 151C172.926 151.002 172.912 151.001 172.9 150.995C172.887 150.989 172.876 150.98 172.869 150.969C172.863 150.961 172.86 150.952 172.858 150.943C172.857 150.934 172.857 150.924 172.86 150.915V150.915ZM174.202 150.091C174.202 150.091 174.202 150.06 174.202 150.042C174.202 149.899 174.131 149.89 174.113 149.89C173.884 149.854 173.321 150.4 173.074 150.817C173.455 150.775 173.814 150.619 174.104 150.369C174.172 150.292 174.211 150.194 174.216 150.091H174.202Z" fill="#58B368"/>
<path d="M172.914 150.932L169.643 151.165L167.808 143.346L171.075 143.113L172.914 150.932Z" fill="#7F3E3B"/>
<path d="M172.901 150.172L169.258 149.849C169.192 149.842 169.125 149.858 169.07 149.895C169.014 149.932 168.973 149.987 168.954 150.051L168.032 152.96C168.009 153.031 168.003 153.108 168.014 153.182C168.026 153.256 168.054 153.327 168.098 153.389C168.141 153.45 168.198 153.501 168.264 153.537C168.33 153.573 168.404 153.593 168.479 153.595C169.795 153.689 171.702 153.779 173.353 153.926C175.282 154.097 174.033 154.092 176.298 154.293C177.668 154.414 178.173 153.063 177.609 152.888C175.049 152.083 174.584 151.545 173.702 150.503C173.597 150.397 173.472 150.314 173.335 150.257C173.197 150.2 173.05 150.171 172.901 150.172V150.172Z" fill="#454D66"/>
<path opacity="0.2" d="M167.808 143.349L168.756 147.382L172.024 147.149L171.079 143.121L167.808 143.349Z" fill="black"/>
<path d="M140.779 65.6758C140.779 65.6758 148.482 91.4101 151.409 100.961C154.609 111.42 166.791 146.119 166.791 146.119L172.699 144.821C172.699 144.821 164.352 115.009 160.892 100.419C158.234 89.2305 152.34 65.6758 152.34 65.6758H140.779Z" fill="#58B368"/>
<path d="M165.754 144.291C165.727 144.291 166.336 146.596 166.336 146.596L173.438 145.835L173.407 143.723L165.754 144.291Z" fill="#454D66"/>
<path opacity="0.3" d="M145.044 77.6008C149.31 78.1602 151.006 93.0235 151.646 101.742C151.565 101.464 151.48 101.205 151.404 100.954C149.811 95.7401 146.79 85.6925 144.373 77.65C144.59 77.5812 144.82 77.5643 145.044 77.6008V77.6008Z" fill="black"/>
<path d="M134.425 65.6758C134.425 65.6758 137.007 90.7387 138.122 100.938C139.276 111.55 143.635 146.356 143.635 146.356H149.31C149.31 146.356 148.621 112.185 148.393 101.749C148.142 90.3717 146.209 65.6758 146.209 65.6758H134.425Z" fill="#58B368"/>
<path d="M142.739 144.094C142.712 144.094 143.057 146.448 143.057 146.448H149.958L150.146 144.349L142.739 144.094Z" fill="#454D66"/>
<path d="M110.19 89.2499C111.25 90.9298 112.784 92.2577 114.599 93.0656C116.413 93.8735 118.427 94.1252 120.385 93.7887C122.342 93.4522 124.156 92.5427 125.597 91.1752C127.038 89.8077 128.041 88.0437 128.479 86.1062C128.917 84.1687 128.771 82.1448 128.059 80.2904C127.347 78.436 126.101 76.8345 124.479 75.6883C122.856 74.5421 120.93 73.9027 118.945 73.8511C116.959 73.7994 115.002 74.3378 113.323 75.3981C112.207 76.1016 111.241 77.018 110.48 78.095C109.718 79.172 109.177 80.3884 108.886 81.6748C108.595 82.9612 108.56 84.2923 108.784 85.5921C109.008 86.8918 109.485 88.1348 110.19 89.2499V89.2499ZM125.854 79.4037C126.746 80.818 127.198 82.465 127.154 84.1363C127.11 85.8077 126.571 87.4284 125.606 88.7936C124.64 90.1588 123.292 91.2071 121.731 91.8061C120.17 92.405 118.467 92.5276 116.836 92.1584C115.205 91.7892 113.721 90.9448 112.57 89.7319C111.419 88.519 110.654 86.9922 110.37 85.3444C110.087 83.6965 110.299 82.0018 110.979 80.4744C111.659 78.9469 112.777 77.6554 114.191 76.7631C116.084 75.5703 118.373 75.1765 120.555 75.6681C122.738 76.1597 124.637 77.4966 125.836 79.3858L125.854 79.4037Z" fill="#454D66"/>
<path opacity="0.2" d="M126.24 85.6095C125.899 87.1024 125.123 88.4608 124.01 89.513C122.897 90.5652 121.498 91.2639 119.988 91.521C118.478 91.7781 116.926 91.582 115.528 90.9574C114.13 90.3329 112.948 89.3079 112.132 88.012C111.316 86.716 110.902 85.2073 110.943 83.6764C110.984 82.1455 111.478 80.6611 112.362 79.4108C113.246 78.1604 114.481 77.2001 115.911 76.6513C117.341 76.1025 118.901 75.9897 120.395 76.3272C121.388 76.5529 122.327 76.972 123.159 77.5606C123.99 78.1492 124.697 78.8958 125.24 79.7577C125.783 80.6197 126.151 81.5801 126.322 82.5841C126.494 83.5882 126.466 84.6162 126.24 85.6095V85.6095Z" fill="#58B368"/>
<path d="M127.451 77.3258L128.396 78.8206C128.429 78.8744 128.452 78.9343 128.463 78.9969C128.474 79.0596 128.472 79.1237 128.458 79.1856C128.444 79.2475 128.417 79.3061 128.381 79.3579C128.344 79.4097 128.297 79.4537 128.243 79.4875V79.4875C128.134 79.556 128.002 79.5785 127.876 79.55C127.75 79.5215 127.641 79.4443 127.572 79.3353L126.632 77.845C126.564 77.7357 126.541 77.6037 126.57 77.4779C126.598 77.3521 126.675 77.2427 126.784 77.1736V77.1736C126.838 77.1392 126.898 77.1158 126.961 77.1048C127.023 77.0938 127.088 77.0955 127.15 77.1097C127.212 77.1238 127.271 77.1502 127.322 77.1874C127.374 77.2245 127.418 77.2715 127.451 77.3258V77.3258Z" fill="#454D66"/>
<path d="M133.543 73.0815C132.454 73.8274 131.377 74.5867 130.311 75.3595C129.242 76.1383 128.186 76.9304 127.179 77.7718C127.057 77.8768 126.977 78.0219 126.954 78.1807C126.93 78.3395 126.964 78.5015 127.049 78.6374C127.135 78.7732 127.266 78.874 127.42 78.9213C127.573 78.9686 127.739 78.9593 127.886 78.8952C129.085 78.3313 130.258 77.7181 131.421 77.105C132.585 76.4918 133.731 75.8294 134.868 75.1715C135.837 74.6076 136.801 74.0318 137.759 73.444C137.824 73.4037 137.88 73.3511 137.925 73.289C137.969 73.227 138.001 73.1568 138.019 73.0824C138.036 73.008 138.039 72.9309 138.026 72.8555C138.014 72.7801 137.987 72.7078 137.947 72.6429L137.15 71.4076C137.109 71.3428 137.056 71.2867 136.993 71.2426C136.93 71.1985 136.859 71.1672 136.785 71.1506C136.71 71.1339 136.632 71.1323 136.557 71.1457C136.481 71.159 136.409 71.1872 136.344 71.2286C135.405 71.8552 134.469 72.4504 133.543 73.0815Z" fill="#454D66"/>
<path d="M138.535 41.1663C137.989 43.8516 137.407 46.5294 136.789 49.1998L134.936 57.1931C134.332 59.7979 133.817 62.4384 133.348 65.1193L131.942 73.1752C131.89 73.4845 131.725 73.7633 131.479 73.9574C131.232 74.1516 130.923 74.247 130.61 74.2252C130.297 74.2034 130.003 74.066 129.786 73.8396C129.569 73.6132 129.444 73.3142 129.436 73.0007C129.337 70.2035 129.382 67.4376 129.539 64.6538C129.694 61.8535 129.992 59.0631 130.434 56.2935C130.882 53.5545 131.36 50.8468 131.888 48.1436C132.417 45.4404 132.976 42.7461 133.598 40.0877C133.748 39.4374 134.149 38.8725 134.712 38.5152C135.276 38.158 135.958 38.0372 136.61 38.1791C137.262 38.3209 137.832 38.714 138.197 39.2731C138.561 39.8322 138.691 40.5124 138.557 41.1663H138.535Z" fill="#58B368"/>
<path d="M131.551 72.4466C131.438 72.3277 131.296 72.2407 131.139 72.1943C130.982 72.1479 130.815 72.1439 130.656 72.1825L129.931 72.3571C129.748 72.4001 129.584 72.4977 129.458 72.6368C129.332 72.7759 129.252 72.95 129.228 73.1358L129.018 74.7515C128.952 75.2176 129.05 75.6921 129.295 76.0941L130.298 77.7501C130.426 77.9204 130.601 78.0505 130.8 78.125C131 78.1996 131.217 78.2154 131.426 78.1708L132.468 77.9515C132.623 77.9184 132.768 77.8534 132.896 77.7605C133.024 77.6677 133.13 77.5491 133.209 77.4124C133.288 77.2758 133.337 77.1241 133.354 76.9671C133.371 76.8102 133.354 76.6515 133.305 76.5014L133.032 75.66C132.932 74.448 132.407 73.3103 131.551 72.4466V72.4466Z" fill="#7F3E3B"/>
<path d="M142.019 39.6276C143.648 43.9465 138.018 50.1093 138.018 50.1093L130.889 47.7507C130.889 47.7507 131.435 41.8564 133.91 38.5311C136.962 34.4091 140.78 36.3202 142.019 39.6276Z" fill="#454D66"/>
</svg>
