<svg width="200" height="160" viewBox="0 0 200 160" fill="none" xmlns="http://www.w3.org/2000/svg">
<path d="M7 129.726H163.193L174.418 32.8945H18.2318L7 129.726Z" fill="#58B368"/>
<path opacity="0.4" d="M7 129.726H163.193L174.418 32.8945H18.2318L7 129.726Z" fill="white"/>
<path d="M193.87 133.355H37.6772L18.2305 32.8945H174.417L193.87 133.355Z" fill="#58B368"/>
<path opacity="0.6" d="M193.87 133.355H37.6772L18.2305 32.8945H174.417L193.87 133.355Z" fill="white"/>
<path d="M187.888 127.964H41.5686L25.8594 46.793H172.179L187.888 127.964Z" fill="white"/>
<g opacity="0.5">
<path opacity="0.5" d="M52.9611 66.4767H37.6601L34.707 51.2227H50.008L52.9611 66.4767Z" fill="#58B368"/>
<path opacity="0.5" d="M168.002 66.4767H152.695L149.748 51.2227H165.049L168.002 66.4767Z" fill="#58B368"/>
<path opacity="0.5" d="M148.822 66.4767H133.521L130.568 51.2227H145.876L148.822 66.4767Z" fill="#58B368"/>
<path opacity="0.5" d="M129.651 66.4767H114.351L111.397 51.2227H126.705L129.651 66.4767Z" fill="#58B368"/>
<path opacity="0.5" d="M110.479 66.4767H95.1777L92.2246 51.2227H107.526L110.479 66.4767Z" fill="#58B368"/>
<path opacity="0.5" d="M91.3058 66.4767H76.0048L73.0518 51.2227H88.3528L91.3058 66.4767Z" fill="#58B368"/>
<path opacity="0.5" d="M72.1349 66.4767H56.8339L53.8809 51.2227H69.1819L72.1349 66.4767Z" fill="#58B368"/>
<path opacity="0.5" d="M56.6408 85.4977H41.3398L38.3867 70.25H53.6877L56.6408 85.4977Z" fill="#58B368"/>
<path opacity="0.5" d="M171.682 85.4979H156.381L153.428 70.2502H168.729L171.682 85.4979Z" fill="#58B368"/>
<path opacity="0.5" d="M152.51 85.4977H137.209L134.256 70.25H149.557L152.51 85.4977Z" fill="#58B368"/>
<path opacity="0.5" d="M133.339 85.4979H118.032L115.085 70.2502H130.386L133.339 85.4979Z" fill="#58B368"/>
<path opacity="0.5" d="M114.158 85.4979H98.8573L95.9043 70.2502H111.212L114.158 85.4979Z" fill="#58B368"/>
<path opacity="0.5" d="M94.9864 85.4977H79.6855L76.7324 70.25H92.0334L94.9864 85.4977Z" fill="#58B368"/>
<path opacity="0.5" d="M75.8146 85.4977H60.5136L57.5605 70.25H72.8615L75.8146 85.4977Z" fill="#58B368"/>
<path opacity="0.5" d="M60.3195 104.509H45.0185L42.0654 89.2617H57.3664L60.3195 104.509Z" fill="#58B368"/>
<path opacity="0.5" d="M175.361 104.509H160.06L157.107 89.2617H172.408L175.361 104.509Z" fill="#58B368"/>
<path opacity="0.5" d="M156.19 104.509H140.889L137.936 89.2617H153.237L156.19 104.509Z" fill="#58B368"/>
<path opacity="0.5" d="M137.019 104.509H121.718L118.765 89.2617H134.066L137.019 104.509Z" fill="#58B368"/>
<path opacity="0.5" d="M117.844 104.509H102.537L99.5898 89.2617H114.891L117.844 104.509Z" fill="#58B368"/>
<path opacity="0.5" d="M98.6662 104.509H83.3652L80.4121 89.2617H95.7195L98.6662 104.509Z" fill="#58B368"/>
<path opacity="0.5" d="M79.4953 104.509H64.1943L61.2412 89.2617H76.5422L79.4953 104.509Z" fill="#58B368"/>
<path opacity="0.5" d="M64.0021 123.535H48.7011L45.748 108.281H61.0554L64.0021 123.535Z" fill="#58B368"/>
<path opacity="0.5" d="M179.042 123.535H163.741L160.788 108.281H176.089L179.042 123.535Z" fill="#58B368"/>
<path opacity="0.5" d="M159.87 123.535H144.569L141.616 108.281H156.917L159.87 123.535Z" fill="#58B368"/>
<path opacity="0.5" d="M140.697 123.535H125.396L122.443 108.281H137.744L140.697 123.535Z" fill="#58B368"/>
<path opacity="0.5" d="M121.526 123.535H106.225L103.271 108.281H118.572L121.526 123.535Z" fill="#58B368"/>
<path opacity="0.5" d="M102.352 123.535H87.0443L84.0977 108.281H99.3986L102.352 123.535Z" fill="#58B368"/>
<path opacity="0.5" d="M83.1808 123.535H67.8734L64.9268 108.281H80.2278L83.1808 123.535Z" fill="#58B368"/>
</g>
<path d="M37.4944 39.7922L37.2966 38.7816C39.1016 38.7816 40.1094 36.0867 39.4907 32.8961C38.872 29.7055 36.8247 27.0042 35.026 27.0042C33.2274 27.0042 32.2133 29.7055 32.8256 32.8961H31.8179C31.0653 29.0254 32.3919 26 34.8283 26C37.2648 26 39.765 29.0254 40.5112 32.8961C41.2574 36.7668 39.9308 39.7922 37.4944 39.7922Z" fill="#454D66"/>
<path d="M52.5979 39.7922L52.4002 38.7816C54.2052 38.7816 55.2129 36.0867 54.5942 32.8961C53.9755 29.7055 51.9282 27.0042 50.1296 27.0042C48.3309 27.0042 47.3168 29.7055 47.9291 32.8961H46.9214C46.1688 29.0254 47.4954 26 49.9318 26C52.3683 26 54.8685 29.0254 55.6147 32.8961C56.3609 36.7668 55.0343 39.7922 52.5979 39.7922Z" fill="#454D66"/>
<path d="M67.732 39.7922L67.5343 38.7816C69.3393 38.7816 70.347 36.0867 69.7283 32.8961C69.1096 29.7055 67.0623 27.0042 65.2637 27.0042C63.465 27.0042 62.4445 29.7055 63.0632 32.8961H61.9917C61.2391 29.0254 62.5657 26 65.0022 26C67.4386 26 69.9388 29.0254 70.685 32.8961C71.4313 36.7668 70.1365 39.7922 67.732 39.7922Z" fill="#454D66"/>
<path d="M82.7975 39.7922L82.6062 38.7816C84.4112 38.7816 85.4189 36.0867 84.8002 32.8961C84.1816 29.7055 82.1342 27.0042 80.3356 27.0042C78.537 27.0042 77.5229 29.7055 78.1415 32.8961H77.1274C76.3812 29.0254 77.7078 26 80.1442 26C82.5807 26 85.0745 29.0254 85.8271 32.8961C86.5797 36.7668 85.2403 39.7922 82.7975 39.7922Z" fill="#454D66"/>
<path d="M97.9001 39.7922L97.7087 38.7816C99.5137 38.7816 100.521 36.0867 99.9028 32.8961C99.2841 29.7055 97.2367 27.0042 95.4381 27.0042C93.6395 27.0042 92.6254 29.7055 93.2441 32.8961H92.2299C91.4837 29.0254 92.8103 26 95.2468 26C97.6832 26 100.177 29.0254 100.93 32.8961C101.682 36.7668 100.343 39.7922 97.9001 39.7922Z" fill="#454D66"/>
<path d="M113.017 39.7922L112.825 38.7816C114.63 38.7816 115.638 36.0867 115.02 32.8961C114.401 29.7055 112.353 27.0042 110.555 27.0042C108.756 27.0042 107.742 29.7055 108.361 32.8961H107.347C106.6 29.0254 107.921 26 110.364 26C112.806 26 115.294 29.0254 116.046 32.8961C116.799 36.7668 115.447 39.7922 113.017 39.7922Z" fill="#454D66"/>
<path d="M128.107 39.7922L127.915 38.7816C129.72 38.7816 130.728 36.0867 130.109 32.8961C129.491 29.7055 127.443 27.0042 125.645 27.0042C123.846 27.0042 122.832 29.7055 123.451 32.8961H122.437C121.69 29.0254 123.011 26 125.453 26C127.896 26 130.384 29.0254 131.136 32.8961C131.889 36.7668 130.549 39.7922 128.107 39.7922Z" fill="#454D66"/>
<path d="M143.21 39.7922L143.019 38.7816C144.824 38.7816 145.832 36.0867 145.213 32.8961C144.594 29.7055 142.547 27.0042 140.748 27.0042C138.95 27.0042 137.936 29.7055 138.554 32.8961H137.54C136.794 29.0254 138.114 26 140.557 26C143 26 145.487 29.0254 146.24 32.8961C146.992 36.7668 145.647 39.7922 143.21 39.7922Z" fill="#454D66"/>
<path d="M158.302 39.7922L158.111 38.7816C159.916 38.7816 160.923 36.0867 160.305 32.8961C159.686 29.7055 157.639 27.0042 155.84 27.0042C154.041 27.0042 153.027 29.7055 153.646 32.8961H152.632C151.886 29.0254 153.206 26 155.649 26C158.091 26 160.579 29.0254 161.325 32.8961C162.071 36.7668 160.751 39.7922 158.302 39.7922Z" fill="#454D66"/>
<path d="M93.0478 64.3297H39.3954L36.4424 49.082H90.0947L93.0478 64.3297Z" fill="#58B368"/>
<path d="M115.911 83.3517H100.604L97.6572 68.0977H112.958L115.911 83.3517Z" fill="#58B368"/>
<path d="M163.785 102.883L162.956 102.165C161.254 100.68 159.36 99.4295 157.324 98.447L157.854 96.8898C159.75 97.8041 161.535 98.9323 163.173 100.252C165.998 96.0776 169.697 92.5626 174.016 89.9492L175.157 91.5C170.761 94.1619 167.038 97.7958 164.276 102.121L163.785 102.883Z" fill="#58B368"/>
<path d="M110.299 70.6211H108.915L106.6 74.7969L102.677 70.6211H101.293L106.089 75.7248L103.264 80.8222H104.654L106.963 76.6528L110.886 80.8222H112.276L107.473 75.7248L110.299 70.6211Z" fill="white"/>
<path d="M138.663 107.151L141.214 120.378H127.948L125.396 107.151H138.669H138.663ZM139.492 106.141H124.185L127.138 121.395H142.445L139.498 106.141H139.492Z" fill="#58B368"/>
<path d="M100.406 102.373H65.9325L62.9795 87.125H97.453L100.406 102.373Z" fill="#454D66"/>
<path d="M76.6615 93.2053C76.7533 93.5595 76.7607 93.9302 76.683 94.2878C76.6054 94.6454 76.4449 94.9799 76.2143 95.2647C75.9838 95.5494 75.6896 95.7764 75.3552 95.9276C75.0209 96.0788 74.6557 96.1499 74.2888 96.1353C73.4606 96.1045 72.6662 95.7998 72.031 95.2693C71.3958 94.7387 70.956 94.0125 70.7809 93.2053C70.6905 92.8511 70.6841 92.4809 70.7623 92.1239C70.8405 91.7669 71.0011 91.4329 71.2314 91.1485C71.4616 90.8642 71.7553 90.6372 72.0889 90.4856C72.4226 90.334 72.7871 90.262 73.1535 90.2752C73.9814 90.3071 74.7753 90.6122 75.4102 91.1425C76.0452 91.6729 76.4854 92.3985 76.6615 93.2053Z" fill="white"/>
<path d="M77.3707 95.9727C77.0462 96.422 76.6159 96.7851 76.1177 97.03C75.6195 97.2749 75.0686 97.3941 74.5133 97.3773C73.2473 97.3469 72.0379 96.8485 71.1202 95.979C70.5523 96.2849 70.096 96.762 69.8165 97.3418C69.537 97.9217 69.4486 98.5748 69.5639 99.2078H80.177C79.985 98.4923 79.6327 97.8294 79.1467 97.2691C78.6606 96.7087 78.0534 96.2655 77.3707 95.9727V95.9727Z" fill="white"/>
<path d="M94.6596 93.7976H82.9239L82.5986 92.1133H94.3343L94.6596 93.7976Z" fill="white"/>
<path d="M91.427 97.3796H83.6202L83.2949 95.6953H91.1017L91.427 97.3796Z" fill="white"/>
<path d="M153.045 50.5022C156.068 50.5022 160.348 50.9408 163.582 53.0446C164.169 53.3898 164.682 53.8489 165.088 54.3947C165.494 54.9406 165.787 55.5621 165.948 56.2225C166.516 58.7204 165.183 61.447 163.709 62.9279C161.381 65.2669 157.759 66.7414 153.505 67.0338C153.02 67.0719 152.522 67.091 152.031 67.091C149.036 67.0648 146.072 66.4784 143.293 65.3622C140.557 64.2754 137.655 62.8199 136.839 59.9852C136.625 59.332 136.56 58.6399 136.647 57.9586C136.734 57.2772 136.972 56.6236 137.342 56.0445C137.824 55.3095 138.462 54.689 139.211 54.2268C142.745 52.0487 146.772 50.7919 150.921 50.5722C151.629 50.5277 152.344 50.5022 153.045 50.5022V50.5022ZM152.854 49.5234C152.095 49.5234 151.361 49.5234 150.673 49.5997C146.379 49.8248 142.212 51.1231 138.554 53.3751C137.713 53.8967 136.997 54.5952 136.456 55.4217C136.023 56.1087 135.747 56.882 135.647 57.6869C135.547 58.4918 135.625 59.3089 135.876 60.0805C136.832 63.3728 140.104 65.0826 143.076 66.2584C145.982 67.4284 149.083 68.0408 152.216 68.0635C152.733 68.0635 153.243 68.0634 153.753 68.0126C157.797 67.7202 161.828 66.3474 164.481 63.6779C167.134 61.0085 168.825 55.3454 164.009 52.2374C160.763 50.1463 156.515 49.5234 152.848 49.5234H152.854Z" fill="#454D66"/>
</svg>
