<svg width="200" height="160" viewBox="0 0 200 160" fill="none" xmlns="http://www.w3.org/2000/svg">
<path d="M100.071 160C147.054 160 185.141 157.792 185.141 155.068C185.141 152.344 147.054 150.136 100.071 150.136C53.0875 150.136 15 152.344 15 155.068C15 157.792 53.0875 160 100.071 160Z" fill="#F5F5F5"/>
<path d="M97.0531 88.1943H70.2494C69.8714 88.1943 69.5649 88.4986 69.5649 88.874V99.9747C69.5649 100.35 69.8714 100.654 70.2494 100.654H97.0531C97.4311 100.654 97.7376 100.35 97.7376 99.9747V88.874C97.7376 88.4986 97.4311 88.1943 97.0531 88.1943Z" fill="#58B368"/>
<path opacity="0.6" d="M97.0531 88.1943H70.2494C69.8714 88.1943 69.5649 88.4986 69.5649 88.874V99.9747C69.5649 100.35 69.8714 100.654 70.2494 100.654H97.0531C97.4311 100.654 97.7376 100.35 97.7376 99.9747V88.874C97.7376 88.4986 97.4311 88.1943 97.0531 88.1943Z" fill="white"/>
<path opacity="0.1" d="M97.046 88.1943H70.2335C70.052 88.1943 69.8779 88.2659 69.7495 88.3934C69.6212 88.5209 69.5491 88.6937 69.5491 88.874V92.4333L83.5016 95.1606C83.587 95.1779 83.675 95.1779 83.7604 95.1606L97.7173 92.4333V88.874C97.7173 88.696 97.647 88.525 97.5215 88.398C97.396 88.2709 97.2252 88.1978 97.046 88.1943V88.1943Z" fill="#454D66"/>
<path d="M97.6357 83.6342H89.4485V82.2706C89.4474 81.7071 89.2214 81.167 88.8201 80.7685C88.4188 80.37 87.8749 80.1457 87.3074 80.1445H79.9933C79.4258 80.1457 78.8819 80.37 78.4806 80.7685C78.0793 81.167 77.8533 81.7071 77.8522 82.2706V83.6342H69.6693C69.4901 83.6342 69.3183 83.7049 69.1916 83.8307C69.0648 83.9565 68.9937 84.1272 68.9937 84.3051V91.0187C68.9945 91.1737 69.0491 91.3237 69.1481 91.4435C69.2472 91.5633 69.3848 91.6456 69.5377 91.6766L83.5209 94.4082C83.6067 94.4213 83.694 94.4213 83.7798 94.4082L97.763 91.6766C97.9164 91.6457 98.0545 91.5636 98.1543 91.4439C98.2541 91.3242 98.3095 91.1741 98.3114 91.0187V84.3051C98.3114 84.1272 98.2402 83.9565 98.1135 83.8307C97.9868 83.7049 97.8149 83.6342 97.6357 83.6342V83.6342ZM79.48 82.2706C79.4811 82.1353 79.5354 82.0059 79.6313 81.9098C79.7272 81.8138 79.8571 81.7588 79.9933 81.7565H87.3074C87.4436 81.7588 87.5735 81.8138 87.6694 81.9098C87.7653 82.0059 87.8196 82.1353 87.8207 82.2706V83.6342H79.4843L79.48 82.2706Z" fill="#58B368"/>
<path opacity="0.6" d="M97.6357 83.6342H89.4485V82.2706C89.4474 81.7071 89.2214 81.167 88.8201 80.7685C88.4188 80.37 87.8749 80.1457 87.3074 80.1445H79.9933C79.4258 80.1457 78.8819 80.37 78.4806 80.7685C78.0793 81.167 77.8533 81.7071 77.8522 82.2706V83.6342H69.6693C69.4901 83.6342 69.3183 83.7049 69.1916 83.8307C69.0648 83.9565 68.9937 84.1272 68.9937 84.3051V91.0187C68.9945 91.1737 69.0491 91.3237 69.1481 91.4435C69.2472 91.5633 69.3848 91.6456 69.5377 91.6766L83.5209 94.4082C83.6067 94.4213 83.694 94.4213 83.7798 94.4082L97.763 91.6766C97.9164 91.6457 98.0545 91.5636 98.1543 91.4439C98.2541 91.3242 98.3095 91.1741 98.3114 91.0187V84.3051C98.3114 84.1272 98.2402 83.9565 98.1135 83.8307C97.9868 83.7049 97.8149 83.6342 97.6357 83.6342V83.6342ZM79.48 82.2706C79.4811 82.1353 79.5354 82.0059 79.6313 81.9098C79.7272 81.8138 79.8571 81.7588 79.9933 81.7565H87.3074C87.4436 81.7588 87.5735 81.8138 87.6694 81.9098C87.7653 82.0059 87.8196 82.1353 87.8207 82.2706V83.6342H79.4843L79.48 82.2706Z" fill="white"/>
<path d="M85.0928 92.5742H82.2058C81.8471 92.5742 81.5564 92.8629 81.5564 93.219V95.0314C81.5564 95.3875 81.8471 95.6762 82.2058 95.6762H85.0928C85.4514 95.6762 85.7422 95.3875 85.7422 95.0314V93.219C85.7422 92.8629 85.4514 92.5742 85.0928 92.5742Z" fill="#58B368"/>
<path opacity="0.3" d="M85.0928 92.5742H82.2058C81.8471 92.5742 81.5564 92.8629 81.5564 93.219V95.0314C81.5564 95.3875 81.8471 95.6762 82.2058 95.6762H85.0928C85.4514 95.6762 85.7422 95.3875 85.7422 95.0314V93.219C85.7422 92.8629 85.4514 92.5742 85.0928 92.5742Z" fill="white"/>
<path d="M97.0531 8.0498H70.2494C69.8714 8.0498 69.5649 8.35409 69.5649 8.72944V19.8302C69.5649 20.2055 69.8714 20.5098 70.2494 20.5098H97.0531C97.4311 20.5098 97.7376 20.2055 97.7376 19.8302V8.72944C97.7376 8.35409 97.4311 8.0498 97.0531 8.0498Z" fill="#58B368"/>
<path opacity="0.6" d="M97.0531 8.0498H70.2494C69.8714 8.0498 69.5649 8.35409 69.5649 8.72944V19.8302C69.5649 20.2055 69.8714 20.5098 70.2494 20.5098H97.0531C97.4311 20.5098 97.7376 20.2055 97.7376 19.8302V8.72944C97.7376 8.35409 97.4311 8.0498 97.0531 8.0498Z" fill="white"/>
<path opacity="0.1" d="M97.046 8.0498H70.2335C70.052 8.0498 69.8779 8.12141 69.7495 8.24887C69.6212 8.37632 69.5491 8.54919 69.5491 8.72944V12.2888L83.5016 15.0161C83.587 15.0335 83.675 15.0335 83.7604 15.0161L97.7173 12.2888V8.72944C97.7173 8.55143 97.647 8.38052 97.5215 8.25343C97.396 8.12634 97.2252 8.05323 97.046 8.0498V8.0498Z" fill="#454D66"/>
<path d="M97.6357 3.48967H89.4485V2.12604C89.4474 1.56253 89.2214 1.02244 88.8201 0.623976C88.4188 0.225515 87.8749 0.00115119 87.3074 0H79.9933C79.4258 0.00115119 78.8819 0.225515 78.4806 0.623976C78.0793 1.02244 77.8533 1.56253 77.8522 2.12604V3.48967H69.6693C69.4901 3.48967 69.3183 3.56036 69.1916 3.68618C69.0648 3.812 68.9937 3.98265 68.9937 4.16059V10.8742C68.9937 11.0294 69.048 11.1798 69.1472 11.2998C69.2464 11.4197 69.3844 11.5018 69.5377 11.532L83.5209 14.2462C83.6063 14.2636 83.6944 14.2636 83.7798 14.2462L97.763 11.5146C97.9146 11.486 98.052 11.407 98.1525 11.2906C98.2529 11.1743 98.3105 11.0274 98.3158 10.8742V4.16059C98.3158 4.07212 98.2982 3.98452 98.264 3.90283C98.2297 3.82115 98.1796 3.74699 98.1163 3.68463C98.0531 3.62228 97.9781 3.57295 97.8957 3.53949C97.8132 3.50603 97.7248 3.4891 97.6357 3.48967V3.48967ZM79.48 2.12604C79.48 1.99045 79.5339 1.86035 79.63 1.76406C79.7262 1.66778 79.8568 1.61311 79.9933 1.61196H87.3074C87.4432 1.6131 87.5731 1.66717 87.6691 1.76251C87.7651 1.85786 87.8196 1.98685 87.8207 2.12168V3.48532H79.4843L79.48 2.12604Z" fill="#58B368"/>
<path opacity="0.6" d="M97.6357 3.48967H89.4485V2.12604C89.4474 1.56253 89.2214 1.02244 88.8201 0.623976C88.4188 0.225515 87.8749 0.00115119 87.3074 0H79.9933C79.4258 0.00115119 78.8819 0.225515 78.4806 0.623976C78.0793 1.02244 77.8533 1.56253 77.8522 2.12604V3.48967H69.6693C69.4901 3.48967 69.3183 3.56036 69.1916 3.68618C69.0648 3.812 68.9937 3.98265 68.9937 4.16059V10.8742C68.9937 11.0294 69.048 11.1798 69.1472 11.2998C69.2464 11.4197 69.3844 11.5018 69.5377 11.532L83.5209 14.2462C83.6063 14.2636 83.6944 14.2636 83.7798 14.2462L97.763 11.5146C97.9146 11.486 98.052 11.407 98.1525 11.2906C98.2529 11.1743 98.3105 11.0274 98.3158 10.8742V4.16059C98.3158 4.07212 98.2982 3.98452 98.264 3.90283C98.2297 3.82115 98.1796 3.74699 98.1163 3.68463C98.0531 3.62228 97.9781 3.57295 97.8957 3.53949C97.8132 3.50603 97.7248 3.4891 97.6357 3.48967V3.48967ZM79.48 2.12604C79.48 1.99045 79.5339 1.86035 79.63 1.76406C79.7262 1.66778 79.8568 1.61311 79.9933 1.61196H87.3074C87.4432 1.6131 87.5731 1.66717 87.6691 1.76251C87.7651 1.85786 87.8196 1.98685 87.8207 2.12168V3.48532H79.4843L79.48 2.12604Z" fill="white"/>
<path d="M85.0928 12.4336H82.2058C81.8471 12.4336 81.5564 12.7223 81.5564 13.0784V14.8907C81.5564 15.2468 81.8471 15.5355 82.2058 15.5355H85.0928C85.4514 15.5355 85.7422 15.2468 85.7422 14.8907V13.0784C85.7422 12.7223 85.4514 12.4336 85.0928 12.4336Z" fill="#58B368"/>
<path opacity="0.3" d="M85.0928 12.4336H82.2058C81.8471 12.4336 81.5564 12.7223 81.5564 13.0784V14.8907C81.5564 15.2468 81.8471 15.5355 82.2058 15.5355H85.0928C85.4514 15.5355 85.7422 15.2468 85.7422 14.8907V13.0784C85.7422 12.7223 85.4514 12.4336 85.0928 12.4336Z" fill="white"/>
<path d="M55.2968 88.1943H28.4931C28.115 88.1943 27.8086 88.4986 27.8086 88.874V99.9747C27.8086 100.35 28.115 100.654 28.4931 100.654H55.2968C55.6748 100.654 55.9812 100.35 55.9812 99.9747V88.874C55.9812 88.4986 55.6748 88.1943 55.2968 88.1943Z" fill="#58B368"/>
<path opacity="0.6" d="M55.2968 88.1943H28.4931C28.115 88.1943 27.8086 88.4986 27.8086 88.874V99.9747C27.8086 100.35 28.115 100.654 28.4931 100.654H55.2968C55.6748 100.654 55.9812 100.35 55.9812 99.9747V88.874C55.9812 88.4986 55.6748 88.1943 55.2968 88.1943Z" fill="white"/>
<path opacity="0.1" d="M55.3143 88.1943H28.4931C28.3115 88.1943 28.1374 88.2659 28.0091 88.3934C27.8807 88.5209 27.8086 88.6937 27.8086 88.874V92.4333L41.7611 95.1606C41.848 95.1779 41.9375 95.1779 42.0243 95.1606L55.9812 92.4333V88.874C55.9813 88.6967 55.9116 88.5264 55.787 88.3994C55.6624 88.2725 55.4928 88.1989 55.3143 88.1943Z" fill="#454D66"/>
<path d="M55.8774 83.6342H47.6902V82.2706C47.6891 81.7071 47.4631 81.167 47.0618 80.7685C46.6605 80.37 46.1166 80.1457 45.5491 80.1445H38.2394C37.6719 80.1457 37.1279 80.37 36.7267 80.7685C36.3254 81.167 36.0994 81.7071 36.0983 82.2706V83.6342H27.911C27.7318 83.6342 27.56 83.7049 27.4333 83.8307C27.3065 83.9565 27.2354 84.1272 27.2354 84.3051V91.0187C27.2362 91.1737 27.2908 91.3237 27.3898 91.4435C27.4889 91.5633 27.6265 91.6456 27.7794 91.6766L41.7626 94.4082C41.8499 94.4213 41.9386 94.4213 42.0259 94.4082L56.0091 91.6766C56.162 91.6456 56.2996 91.5633 56.3986 91.4435C56.4977 91.3237 56.5523 91.1737 56.5531 91.0187V84.3051C56.5531 84.1272 56.4819 83.9565 56.3552 83.8307C56.2285 83.7049 56.0566 83.6342 55.8774 83.6342V83.6342ZM37.7217 82.2706C37.7239 82.1349 37.7792 82.0055 37.8758 81.9095C37.9724 81.8136 38.1028 81.7587 38.2394 81.7565H45.5491C45.6857 81.7587 45.8161 81.8136 45.9127 81.9095C46.0093 82.0055 46.0646 82.1349 46.0668 82.2706V83.6342H37.7304L37.7217 82.2706Z" fill="#58B368"/>
<path opacity="0.6" d="M55.8774 83.6342H47.6902V82.2706C47.6891 81.7071 47.4631 81.167 47.0618 80.7685C46.6605 80.37 46.1166 80.1457 45.5491 80.1445H38.2394C37.6719 80.1457 37.1279 80.37 36.7267 80.7685C36.3254 81.167 36.0994 81.7071 36.0983 82.2706V83.6342H27.911C27.7318 83.6342 27.56 83.7049 27.4333 83.8307C27.3065 83.9565 27.2354 84.1272 27.2354 84.3051V91.0187C27.2362 91.1737 27.2908 91.3237 27.3898 91.4435C27.4889 91.5633 27.6265 91.6456 27.7794 91.6766L41.7626 94.4082C41.8499 94.4213 41.9386 94.4213 42.0259 94.4082L56.0091 91.6766C56.162 91.6456 56.2996 91.5633 56.3986 91.4435C56.4977 91.3237 56.5523 91.1737 56.5531 91.0187V84.3051C56.5531 84.1272 56.4819 83.9565 56.3552 83.8307C56.2285 83.7049 56.0566 83.6342 55.8774 83.6342V83.6342ZM37.7217 82.2706C37.7239 82.1349 37.7792 82.0055 37.8758 81.9095C37.9724 81.8136 38.1028 81.7587 38.2394 81.7565H45.5491C45.6857 81.7587 45.8161 81.8136 45.9127 81.9095C46.0093 82.0055 46.0646 82.1349 46.0668 82.2706V83.6342H37.7304L37.7217 82.2706Z" fill="white"/>
<path d="M43.3384 92.5742H40.4514C40.0927 92.5742 39.802 92.8629 39.802 93.219V95.0314C39.802 95.3875 40.0927 95.6762 40.4514 95.6762H43.3384C43.697 95.6762 43.9878 95.3875 43.9878 95.0314V93.219C43.9878 92.8629 43.697 92.5742 43.3384 92.5742Z" fill="#58B368"/>
<path opacity="0.3" d="M43.3384 92.5742H40.4514C40.0927 92.5742 39.802 92.8629 39.802 93.219V95.0314C39.802 95.3875 40.0927 95.6762 40.4514 95.6762H43.3384C43.697 95.6762 43.9878 95.3875 43.9878 95.0314V93.219C43.9878 92.8629 43.697 92.5742 43.3384 92.5742Z" fill="white"/>
<path d="M55.3007 8.0498H28.497C28.1189 8.0498 27.8125 8.35409 27.8125 8.72944V19.8302C27.8125 20.2055 28.1189 20.5098 28.497 20.5098H55.3007C55.6787 20.5098 55.9851 20.2055 55.9851 19.8302V8.72944C55.9851 8.35409 55.6787 8.0498 55.3007 8.0498Z" fill="#58B368"/>
<path opacity="0.6" d="M55.3007 8.0498H28.497C28.1189 8.0498 27.8125 8.35409 27.8125 8.72944V19.8302C27.8125 20.2055 28.1189 20.5098 28.497 20.5098H55.3007C55.6787 20.5098 55.9851 20.2055 55.9851 19.8302V8.72944C55.9851 8.35409 55.6787 8.0498 55.3007 8.0498Z" fill="white"/>
<path opacity="0.1" d="M55.3182 8.0498H28.497C28.3154 8.0498 28.1413 8.12141 28.013 8.24887C27.8846 8.37632 27.8125 8.54919 27.8125 8.72944V12.2888L41.765 15.0161C41.8519 15.0336 41.9414 15.0336 42.0282 15.0161L55.9851 12.2888V8.72944C55.9852 8.55217 55.9155 8.38189 55.7909 8.25493C55.6663 8.12796 55.4967 8.05435 55.3182 8.0498V8.0498Z" fill="#454D66"/>
<path d="M55.8774 3.48967H47.6902V2.12604C47.6891 1.56253 47.4631 1.02244 47.0618 0.623976C46.6605 0.225515 46.1166 0.00115119 45.5491 0H38.2394C37.6719 0.00115119 37.1279 0.225515 36.7267 0.623976C36.3254 1.02244 36.0994 1.56253 36.0983 2.12604V3.48967H27.911C27.7318 3.48967 27.56 3.56036 27.4333 3.68618C27.3065 3.812 27.2354 3.98265 27.2354 4.16059V10.8742C27.2354 11.0294 27.2897 11.1798 27.3889 11.2998C27.4881 11.4197 27.6261 11.5018 27.7794 11.532L41.7626 14.2462C41.8495 14.2637 41.939 14.2637 42.0259 14.2462L56.0091 11.5146C56.1624 11.4844 56.3004 11.4023 56.3996 11.2823C56.4988 11.1624 56.5531 11.012 56.5531 10.8568V4.16059C56.5531 3.98265 56.4819 3.812 56.3552 3.68618C56.2285 3.56036 56.0566 3.48967 55.8774 3.48967V3.48967ZM37.7217 2.12604C37.7228 1.99005 37.7777 1.85995 37.8746 1.76379C37.9714 1.66762 38.1024 1.6131 38.2394 1.61196H45.5491C45.6853 1.61308 45.8157 1.667 45.9124 1.76223C46.0091 1.85746 46.0645 1.98645 46.0668 2.12168V3.48532H37.7304L37.7217 2.12604Z" fill="#58B368"/>
<path opacity="0.6" d="M55.8774 3.48967H47.6902V2.12604C47.6891 1.56253 47.4631 1.02244 47.0618 0.623976C46.6605 0.225515 46.1166 0.00115119 45.5491 0H38.2394C37.6719 0.00115119 37.1279 0.225515 36.7267 0.623976C36.3254 1.02244 36.0994 1.56253 36.0983 2.12604V3.48967H27.911C27.7318 3.48967 27.56 3.56036 27.4333 3.68618C27.3065 3.812 27.2354 3.98265 27.2354 4.16059V10.8742C27.2354 11.0294 27.2897 11.1798 27.3889 11.2998C27.4881 11.4197 27.6261 11.5018 27.7794 11.532L41.7626 14.2462C41.8495 14.2637 41.939 14.2637 42.0259 14.2462L56.0091 11.5146C56.1624 11.4844 56.3004 11.4023 56.3996 11.2823C56.4988 11.1624 56.5531 11.012 56.5531 10.8568V4.16059C56.5531 3.98265 56.4819 3.812 56.3552 3.68618C56.2285 3.56036 56.0566 3.48967 55.8774 3.48967V3.48967ZM37.7217 2.12604C37.7228 1.99005 37.7777 1.85995 37.8746 1.76379C37.9714 1.66762 38.1024 1.6131 38.2394 1.61196H45.5491C45.6853 1.61308 45.8157 1.667 45.9124 1.76223C46.0091 1.85746 46.0645 1.98645 46.0668 2.12168V3.48532H37.7304L37.7217 2.12604Z" fill="white"/>
<path d="M43.3384 12.4336H40.4514C40.0927 12.4336 39.802 12.7223 39.802 13.0784V14.8907C39.802 15.2468 40.0927 15.5355 40.4514 15.5355H43.3384C43.697 15.5355 43.9878 15.2468 43.9878 14.8907V13.0784C43.9878 12.7223 43.697 12.4336 43.3384 12.4336Z" fill="#58B368"/>
<path opacity="0.3" d="M43.3384 12.4336H40.4514C40.0927 12.4336 39.802 12.7223 39.802 13.0784V14.8907C39.802 15.2468 40.0927 15.5355 40.4514 15.5355H43.3384C43.697 15.5355 43.9878 15.2468 43.9878 14.8907V13.0784C43.9878 12.7223 43.697 12.4336 43.3384 12.4336Z" fill="white"/>
<path d="M51.8067 60.5801H28.4955C28.3128 60.5801 28.1376 60.508 28.0084 60.3798C27.8792 60.2515 27.8066 60.0775 27.8066 59.8961V48.7998C27.8073 48.7082 27.8267 48.6178 27.8637 48.534C27.8815 48.4949 27.902 48.457 27.9251 48.4207C27.9495 48.3834 27.9791 48.3497 28.0129 48.3205C28.1407 48.1929 28.3142 48.1208 28.4955 48.1201H50.5606C50.377 49.6406 50.3169 51.1733 50.3807 52.7033C50.3807 52.9516 50.3807 53.2 50.4202 53.4439C50.4509 53.9014 50.486 54.3632 50.5387 54.8206C50.7645 56.778 51.1893 58.7077 51.8067 60.5801V60.5801Z" fill="#58B368"/>
<path opacity="0.6" d="M51.8067 60.5801H28.4955C28.3128 60.5801 28.1376 60.508 28.0084 60.3798C27.8792 60.2515 27.8066 60.0775 27.8066 59.8961V48.7998C27.8073 48.7082 27.8267 48.6178 27.8637 48.534C27.8815 48.4949 27.902 48.457 27.9251 48.4207C27.9495 48.3834 27.9791 48.3497 28.0129 48.3205C28.1407 48.1929 28.3142 48.1208 28.4955 48.1201H50.5606C50.377 49.6406 50.3169 51.1733 50.3807 52.7033C50.3807 52.9516 50.3807 53.2 50.4202 53.4439C50.4509 53.9014 50.486 54.3632 50.5387 54.8206C50.7645 56.778 51.1893 58.7077 51.8067 60.5801V60.5801Z" fill="white"/>
<path opacity="0.1" d="M50.5621 48.1201C50.3785 49.6406 50.3184 51.1733 50.3822 52.7033C50.3822 52.9516 50.3822 53.2 50.4217 53.4439L43.9895 54.6987L42.0239 55.082C41.939 55.1038 41.8499 55.1038 41.765 55.082L39.8037 54.703L27.8125 52.3591V48.7954C27.8139 48.7058 27.8317 48.6172 27.8652 48.534C27.883 48.4949 27.9035 48.457 27.9266 48.4207C27.951 48.3834 27.9805 48.3497 28.0143 48.3205C28.1421 48.1929 28.3157 48.1208 28.497 48.1201H50.5621Z" fill="#454D66"/>
<path d="M51.4767 43.5561H47.6946V42.1924C47.6923 41.6285 47.4654 41.0885 47.0634 40.6901C46.6614 40.2918 46.117 40.0676 45.5491 40.0664H38.2394C37.6715 40.0664 37.1269 40.2904 36.7254 40.6891C36.3238 41.0878 36.0983 41.6286 36.0983 42.1924V43.5561H27.911C27.8223 43.5561 27.7344 43.5734 27.6525 43.6071C27.5705 43.6409 27.496 43.6903 27.4333 43.7526C27.3705 43.8149 27.3207 43.8888 27.2868 43.9702C27.2528 44.0516 27.2354 44.1389 27.2354 44.227V50.9362C27.2354 51.0926 27.2901 51.2441 27.3902 51.3648C27.4902 51.4856 27.6293 51.5682 27.7838 51.5984H27.8101L39.8014 53.9467L41.7626 54.3257C41.848 54.3431 41.9361 54.3431 42.0215 54.3257L43.9871 53.9423L50.3798 52.692C50.316 51.1619 50.3761 49.6292 50.5597 48.1088C50.7419 46.5692 51.0486 45.0468 51.4767 43.5561V43.5561ZM37.7217 42.1924C37.7239 42.0572 37.7794 41.9282 37.8761 41.833C37.9728 41.7378 38.1032 41.6838 38.2394 41.6827H45.5491C45.6849 41.6839 45.8148 41.7379 45.9108 41.8333C46.0068 41.9286 46.0613 42.0576 46.0624 42.1924V43.5561H37.726L37.7217 42.1924Z" fill="#58B368"/>
<path opacity="0.6" d="M51.4767 43.5561H47.6946V42.1924C47.6923 41.6285 47.4654 41.0885 47.0634 40.6901C46.6614 40.2918 46.117 40.0676 45.5491 40.0664H38.2394C37.6715 40.0664 37.1269 40.2904 36.7254 40.6891C36.3238 41.0878 36.0983 41.6286 36.0983 42.1924V43.5561H27.911C27.8223 43.5561 27.7344 43.5734 27.6525 43.6071C27.5705 43.6409 27.496 43.6903 27.4333 43.7526C27.3705 43.8149 27.3207 43.8888 27.2868 43.9702C27.2528 44.0516 27.2354 44.1389 27.2354 44.227V50.9362C27.2354 51.0926 27.2901 51.2441 27.3902 51.3648C27.4902 51.4856 27.6293 51.5682 27.7838 51.5984H27.8101L39.8014 53.9467L41.7626 54.3257C41.848 54.3431 41.9361 54.3431 42.0215 54.3257L43.9871 53.9423L50.3798 52.692C50.316 51.1619 50.3761 49.6292 50.5597 48.1088C50.7419 46.5692 51.0486 45.0468 51.4767 43.5561V43.5561ZM37.7217 42.1924C37.7239 42.0572 37.7794 41.9282 37.8761 41.833C37.9728 41.7378 38.1032 41.6838 38.2394 41.6827H45.5491C45.6849 41.6839 45.8148 41.7379 45.9108 41.8333C46.0068 41.9286 46.0613 42.0576 46.0624 42.1924V43.5561H37.726L37.7217 42.1924Z" fill="white"/>
<path d="M43.3384 52.5H40.4514C40.0927 52.5 39.802 52.7887 39.802 53.1448V54.9571C39.802 55.3133 40.0927 55.6019 40.4514 55.6019H43.3384C43.697 55.6019 43.9878 55.3133 43.9878 54.9571V53.1448C43.9878 52.7887 43.697 52.5 43.3384 52.5Z" fill="#58B368"/>
<path opacity="0.3" d="M43.3384 52.5H40.4514C40.0927 52.5 39.802 52.7887 39.802 53.1448V54.9571C39.802 55.3133 40.0927 55.6019 40.4514 55.6019H43.3384C43.697 55.6019 43.9878 55.3133 43.9878 54.9571V53.1448C43.9878 52.7887 43.697 52.5 43.3384 52.5Z" fill="white"/>
<path d="M111.999 100.648H138.803C139.181 100.648 139.488 100.343 139.488 99.9681V88.8673C139.488 88.492 139.181 88.1877 138.803 88.1877H111.999C111.621 88.1877 111.315 88.492 111.315 88.8673V99.9681C111.315 100.343 111.621 100.648 111.999 100.648Z" fill="#58B368"/>
<path opacity="0.6" d="M111.999 100.648H138.803C139.181 100.648 139.488 100.343 139.488 99.9681V88.8673C139.488 88.492 139.181 88.1877 138.803 88.1877H111.999C111.621 88.1877 111.315 88.492 111.315 88.8673V99.9681C111.315 100.343 111.621 100.648 111.999 100.648Z" fill="white"/>
<path opacity="0.1" d="M112.004 88.1946H138.803C138.984 88.1946 139.158 88.2662 139.287 88.3936C139.415 88.5211 139.487 88.6939 139.487 88.8742V92.4336L125.517 95.1608C125.432 95.1782 125.344 95.1782 125.258 95.1608L111.302 92.4336V88.8742C111.301 88.7835 111.32 88.6936 111.355 88.61C111.391 88.5264 111.443 88.4507 111.508 88.3873C111.574 88.324 111.651 88.2743 111.736 88.2412C111.821 88.2081 111.912 88.1922 112.004 88.1946V88.1946Z" fill="#454D66"/>
<path d="M111.42 83.6342H119.607V82.2706C119.608 81.7071 119.834 81.167 120.235 80.7685C120.636 80.37 121.18 80.1457 121.748 80.1445H129.062C129.629 80.1457 130.173 80.37 130.575 80.7685C130.976 81.167 131.202 81.7071 131.203 82.2706V83.6342H139.386C139.475 83.6342 139.563 83.6516 139.645 83.6853C139.727 83.719 139.801 83.7684 139.864 83.8307C139.926 83.893 139.976 83.967 140.01 84.0484C140.044 84.1298 140.062 84.217 140.062 84.3051V91.0187C140.061 91.1737 140.006 91.3237 139.907 91.4435C139.808 91.5633 139.671 91.6456 139.518 91.6766L125.517 94.4082C125.43 94.4213 125.341 94.4213 125.254 94.4082L111.27 91.6766C111.117 91.6456 110.98 91.5633 110.881 91.4435C110.782 91.3237 110.727 91.1737 110.726 91.0187V84.3051C110.726 84.2155 110.744 84.1268 110.779 84.0443C110.814 83.9617 110.866 83.887 110.93 83.8244C110.995 83.7619 111.072 83.7129 111.156 83.6802C111.24 83.6475 111.329 83.6319 111.42 83.6342V83.6342ZM129.575 82.2706C129.574 82.1353 129.52 82.0059 129.424 81.9098C129.328 81.8138 129.198 81.7588 129.062 81.7565H121.748C121.611 81.7587 121.481 81.8136 121.384 81.9095C121.288 82.0055 121.232 82.1349 121.23 82.2706V83.6342H129.567L129.575 82.2706Z" fill="#58B368"/>
<path opacity="0.6" d="M111.42 83.6342H119.607V82.2706C119.608 81.7071 119.834 81.167 120.235 80.7685C120.636 80.37 121.18 80.1457 121.748 80.1445H129.062C129.629 80.1457 130.173 80.37 130.575 80.7685C130.976 81.167 131.202 81.7071 131.203 82.2706V83.6342H139.386C139.475 83.6342 139.563 83.6516 139.645 83.6853C139.727 83.719 139.801 83.7684 139.864 83.8307C139.926 83.893 139.976 83.967 140.01 84.0484C140.044 84.1298 140.062 84.217 140.062 84.3051V91.0187C140.061 91.1737 140.006 91.3237 139.907 91.4435C139.808 91.5633 139.671 91.6456 139.518 91.6766L125.517 94.4082C125.43 94.4213 125.341 94.4213 125.254 94.4082L111.27 91.6766C111.117 91.6456 110.98 91.5633 110.881 91.4435C110.782 91.3237 110.727 91.1737 110.726 91.0187V84.3051C110.726 84.2155 110.744 84.1268 110.779 84.0443C110.814 83.9617 110.866 83.887 110.93 83.8244C110.995 83.7619 111.072 83.7129 111.156 83.6802C111.24 83.6475 111.329 83.6319 111.42 83.6342V83.6342ZM129.575 82.2706C129.574 82.1353 129.52 82.0059 129.424 81.9098C129.328 81.8138 129.198 81.7588 129.062 81.7565H121.748C121.611 81.7587 121.481 81.8136 121.384 81.9095C121.288 82.0055 121.232 82.1349 121.23 82.2706V83.6342H129.567L129.575 82.2706Z" fill="white"/>
<path d="M123.96 95.6807H126.847C127.206 95.6807 127.496 95.392 127.496 95.0359V93.2235C127.496 92.8674 127.206 92.5787 126.847 92.5787H123.96C123.601 92.5787 123.311 92.8674 123.311 93.2235V95.0359C123.311 95.392 123.601 95.6807 123.96 95.6807Z" fill="#58B368"/>
<path opacity="0.3" d="M123.96 95.6807H126.847C127.206 95.6807 127.496 95.392 127.496 95.0359V93.2235C127.496 92.8674 127.206 92.5787 126.847 92.5787H123.96C123.601 92.5787 123.311 92.8674 123.311 93.2235V95.0359C123.311 95.392 123.601 95.6807 123.96 95.6807Z" fill="white"/>
<path d="M111.999 20.5032L138.803 20.5032C139.181 20.5032 139.488 20.1989 139.488 19.8235V8.72281C139.488 8.34746 139.181 8.04317 138.803 8.04317L111.999 8.04317C111.621 8.04317 111.315 8.34746 111.315 8.72281V19.8235C111.315 20.1989 111.621 20.5032 111.999 20.5032Z" fill="#58B368"/>
<path opacity="0.6" d="M111.999 20.5032L138.803 20.5032C139.181 20.5032 139.488 20.1989 139.488 19.8235V8.72281C139.488 8.34746 139.181 8.04317 138.803 8.04317L111.999 8.04317C111.621 8.04317 111.315 8.34746 111.315 8.72281V19.8235C111.315 20.1989 111.621 20.5032 111.999 20.5032Z" fill="white"/>
<path opacity="0.1" d="M112.004 8.0498H138.803C138.985 8.0498 139.159 8.12141 139.287 8.24887C139.415 8.37632 139.488 8.54919 139.488 8.72944V12.2888L125.518 15.0161C125.432 15.0335 125.344 15.0335 125.259 15.0161L111.319 12.2888V8.72944C111.319 8.54919 111.391 8.37632 111.52 8.24887C111.648 8.12141 111.822 8.0498 112.004 8.0498V8.0498Z" fill="#454D66"/>
<path d="M111.42 3.48971H119.607V2.12608C119.608 1.56257 119.834 1.02248 120.235 0.624016C120.636 0.225555 121.18 0.00119132 121.748 4.01219e-05H129.062C129.344 -0.00168134 129.625 0.0520089 129.886 0.158028C130.148 0.264047 130.385 0.420308 130.586 0.617843C130.787 0.815379 130.946 1.0503 131.055 1.30912C131.164 1.56795 131.22 1.84558 131.221 2.12608V3.48971H139.403C139.583 3.48971 139.755 3.5604 139.881 3.68622C140.008 3.81204 140.079 3.98269 140.079 4.16063V10.8742C140.079 11.0294 140.025 11.1798 139.926 11.2998C139.826 11.4197 139.688 11.5018 139.535 11.5321L125.517 14.2463C125.43 14.2637 125.34 14.2637 125.254 14.2463L111.27 11.5146C111.117 11.4844 110.979 11.4023 110.88 11.2824C110.781 11.1624 110.726 11.012 110.726 10.8568V4.16063C110.726 4.07104 110.744 3.98235 110.779 3.89979C110.814 3.81724 110.866 3.74249 110.93 3.67995C110.995 3.61742 111.072 3.56837 111.156 3.53569C111.24 3.50302 111.329 3.48738 111.42 3.48971ZM129.575 2.12608C129.575 1.99049 129.521 1.86039 129.425 1.7641C129.329 1.66782 129.199 1.61315 129.062 1.612H121.748C121.612 1.61312 121.481 1.66704 121.385 1.76227C121.288 1.8575 121.232 1.98649 121.23 2.12172V3.48536H129.567L129.575 2.12608Z" fill="#58B368"/>
<path opacity="0.6" d="M111.42 3.48971H119.607V2.12608C119.608 1.56257 119.834 1.02248 120.235 0.624016C120.636 0.225555 121.18 0.00119132 121.748 4.01219e-05H129.062C129.344 -0.00168134 129.625 0.0520089 129.886 0.158028C130.148 0.264047 130.385 0.420308 130.586 0.617843C130.787 0.815379 130.946 1.0503 131.055 1.30912C131.164 1.56795 131.22 1.84558 131.221 2.12608V3.48971H139.403C139.583 3.48971 139.755 3.5604 139.881 3.68622C140.008 3.81204 140.079 3.98269 140.079 4.16063V10.8742C140.079 11.0294 140.025 11.1798 139.926 11.2998C139.826 11.4197 139.688 11.5018 139.535 11.5321L125.517 14.2463C125.43 14.2637 125.34 14.2637 125.254 14.2463L111.27 11.5146C111.117 11.4844 110.979 11.4023 110.88 11.2824C110.781 11.1624 110.726 11.012 110.726 10.8568V4.16063C110.726 4.07104 110.744 3.98235 110.779 3.89979C110.814 3.81724 110.866 3.74249 110.93 3.67995C110.995 3.61742 111.072 3.56837 111.156 3.53569C111.24 3.50302 111.329 3.48738 111.42 3.48971ZM129.575 2.12608C129.575 1.99049 129.521 1.86039 129.425 1.7641C129.329 1.66782 129.199 1.61315 129.062 1.612H121.748C121.612 1.61312 121.481 1.66704 121.385 1.76227C121.288 1.8575 121.232 1.98649 121.23 2.12172V3.48536H129.567L129.575 2.12608Z" fill="white"/>
<path d="M123.96 15.5283H126.847C127.206 15.5283 127.496 15.2396 127.496 14.8835V13.0712C127.496 12.7151 127.206 12.4264 126.847 12.4264H123.96C123.601 12.4264 123.311 12.7151 123.311 13.0712V14.8835C123.311 15.2396 123.601 15.5283 123.96 15.5283Z" fill="#58B368"/>
<path opacity="0.3" d="M123.96 15.5283H126.847C127.206 15.5283 127.496 15.2396 127.496 14.8835V13.0712C127.496 12.7151 127.206 12.4264 126.847 12.4264H123.96C123.601 12.4264 123.311 12.7151 123.311 13.0712V14.8835C123.311 15.2396 123.601 15.5283 123.96 15.5283Z" fill="white"/>
<path d="M115.509 60.5801H138.807C138.989 60.579 139.163 60.5064 139.291 60.3782C139.42 60.2501 139.492 60.0768 139.492 59.8961V48.7998C139.491 48.7082 139.471 48.6178 139.434 48.534C139.418 48.494 139.398 48.456 139.373 48.4207C139.349 48.3834 139.319 48.3497 139.285 48.3205C139.222 48.2569 139.147 48.2065 139.064 48.1721C138.981 48.1377 138.893 48.12 138.803 48.1201H116.742C116.926 49.6406 116.986 51.1733 116.922 52.7033C116.922 52.9516 116.922 53.2 116.882 53.4439C116.856 53.9014 116.817 54.3632 116.764 54.8206C116.542 56.7776 116.122 58.7072 115.509 60.5801V60.5801Z" fill="#58B368"/>
<path opacity="0.6" d="M115.509 60.5801H138.807C138.989 60.579 139.163 60.5064 139.291 60.3782C139.42 60.2501 139.492 60.0768 139.492 59.8961V48.7998C139.491 48.7082 139.471 48.6178 139.434 48.534C139.418 48.494 139.398 48.456 139.373 48.4207C139.349 48.3834 139.319 48.3497 139.285 48.3205C139.222 48.2569 139.147 48.2065 139.064 48.1721C138.981 48.1377 138.893 48.12 138.803 48.1201H116.742C116.926 49.6406 116.986 51.1733 116.922 52.7033C116.922 52.9516 116.922 53.2 116.882 53.4439C116.856 53.9014 116.817 54.3632 116.764 54.8206C116.542 56.7776 116.122 58.7072 115.509 60.5801V60.5801Z" fill="white"/>
<path opacity="0.1" d="M116.741 48.1201C116.924 49.6406 116.984 51.1733 116.921 52.7033C116.921 52.9516 116.921 53.2 116.881 53.4439L123.322 54.6987L125.288 55.082C125.373 55.1038 125.462 55.1038 125.547 55.082L127.508 54.703L139.499 52.3591V48.7954C139.498 48.7058 139.48 48.6172 139.446 48.534C139.43 48.494 139.41 48.456 139.385 48.4207C139.361 48.3834 139.331 48.3497 139.297 48.3205C139.234 48.2569 139.159 48.2065 139.076 48.1721C138.993 48.1377 138.904 48.12 138.815 48.1201H116.741Z" fill="#454D66"/>
<path d="M115.82 43.5561H119.607V42.1924C119.608 41.6289 119.834 41.0888 120.235 40.6904C120.636 40.2919 121.18 40.0676 121.748 40.0664H129.057C129.626 40.0664 130.171 40.2903 130.573 40.6888C130.975 41.0874 131.202 41.6282 131.203 42.1924V43.5561H139.386C139.565 43.5561 139.737 43.6268 139.863 43.7526C139.99 43.8784 140.061 44.0491 140.061 44.227V50.9362C140.062 51.092 140.007 51.243 139.908 51.3637C139.809 51.4843 139.671 51.5673 139.517 51.5984H139.487L127.495 53.9467L125.517 54.3213C125.431 54.3387 125.343 54.3387 125.258 54.3213L123.292 53.938L116.899 52.6876C117.024 49.5995 116.654 46.5114 115.802 43.5387L115.82 43.5561ZM129.575 42.1924C129.573 42.0572 129.517 41.9282 129.421 41.833C129.324 41.7378 129.194 41.6838 129.057 41.6827H121.748C121.612 41.6839 121.482 41.7379 121.386 41.8333C121.29 41.9286 121.235 42.0576 121.234 42.1924V43.5561H129.571L129.575 42.1924Z" fill="#58B368"/>
<path opacity="0.6" d="M115.82 43.5561H119.607V42.1924C119.608 41.6289 119.834 41.0888 120.235 40.6904C120.636 40.2919 121.18 40.0676 121.748 40.0664H129.057C129.626 40.0664 130.171 40.2903 130.573 40.6888C130.975 41.0874 131.202 41.6282 131.203 42.1924V43.5561H139.386C139.565 43.5561 139.737 43.6268 139.863 43.7526C139.99 43.8784 140.061 44.0491 140.061 44.227V50.9362C140.062 51.092 140.007 51.243 139.908 51.3637C139.809 51.4843 139.671 51.5673 139.517 51.5984H139.487L127.495 53.9467L125.517 54.3213C125.431 54.3387 125.343 54.3387 125.258 54.3213L123.292 53.938L116.899 52.6876C117.024 49.5995 116.654 46.5114 115.802 43.5387L115.82 43.5561ZM129.575 42.1924C129.573 42.0572 129.517 41.9282 129.421 41.833C129.324 41.7378 129.194 41.6838 129.057 41.6827H121.748C121.612 41.6839 121.482 41.7379 121.386 41.8333C121.29 41.9286 121.235 42.0576 121.234 42.1924V43.5561H129.571L129.575 42.1924Z" fill="white"/>
<path d="M123.96 55.6064H126.847C127.206 55.6064 127.496 55.3178 127.496 54.9617V53.1493C127.496 52.7932 127.206 52.5045 126.847 52.5045H123.96C123.601 52.5045 123.311 52.7932 123.311 53.1493V54.9617C123.311 55.3178 123.601 55.6064 123.96 55.6064Z" fill="#58B368"/>
<path opacity="0.3" d="M123.96 55.6064H126.847C127.206 55.6064 127.496 55.3178 127.496 54.9617V53.1493C127.496 52.7932 127.206 52.5045 126.847 52.5045H123.96C123.601 52.5045 123.311 52.7932 123.311 53.1493V54.9617C123.311 55.3178 123.601 55.6064 123.96 55.6064Z" fill="white"/>
<path d="M104.327 45.4143H65.8129C65.2701 45.4143 64.8301 45.8512 64.8301 46.3902V62.3399C64.8301 62.8788 65.2701 63.3158 65.8129 63.3158H104.327C104.87 63.3158 105.31 62.8788 105.31 62.3399V46.3902C105.31 45.8512 104.87 45.4143 104.327 45.4143Z" fill="#58B368"/>
<path d="M90.3192 42.5688H79.8109C79.0142 42.5677 78.2504 42.2529 77.687 41.6935C77.1236 41.1341 76.8066 40.3757 76.8054 39.5845V36.9052C76.8066 36.1141 77.1236 35.3557 77.687 34.7963C78.2504 34.2368 79.0142 33.9221 79.8109 33.9209H90.3192C91.1163 33.9209 91.8807 34.2353 92.4444 34.795C93.008 35.3546 93.3246 36.1137 93.3246 36.9052V39.5715C93.3264 39.9645 93.2499 40.3539 93.0997 40.7175C92.9494 41.0811 92.7283 41.4116 92.449 41.6902C92.1698 41.9687 91.8379 42.1896 91.4724 42.3404C91.1069 42.4912 90.715 42.5688 90.3192 42.5688V42.5688ZM79.8109 36.1123C79.5994 36.1145 79.3972 36.1987 79.2472 36.3468C79.0972 36.4949 79.0114 36.6952 79.008 36.9052V39.5715C79.008 39.7852 79.0935 39.9902 79.2457 40.1414C79.398 40.2925 79.6044 40.3775 79.8197 40.3775H90.3279C90.5432 40.3775 90.7497 40.2925 90.9019 40.1414C91.0541 39.9902 91.1396 39.7852 91.1396 39.5715V36.9052C91.1396 36.6914 91.0541 36.4864 90.9019 36.3353C90.7497 36.1841 90.5432 36.0992 90.3279 36.0992L79.8109 36.1123Z" fill="#58B368"/>
<path opacity="0.2" d="M104.323 45.4143H65.8173C65.6878 45.4137 65.5596 45.4386 65.4398 45.4873C65.3201 45.5361 65.2112 45.6079 65.1195 45.6986C65.0278 45.7893 64.955 45.8971 64.9053 46.0157C64.8556 46.1344 64.8301 46.2617 64.8301 46.3902V51.5093L84.8813 55.4302C85.0042 55.4568 85.1314 55.4568 85.2542 55.4302L105.31 51.5093V46.3902C105.31 46.2617 105.284 46.1344 105.235 46.0157C105.185 45.8971 105.112 45.7893 105.02 45.6986C104.929 45.6079 104.82 45.5361 104.7 45.4873C104.58 45.4386 104.452 45.4137 104.323 45.4143V45.4143Z" fill="#454D66"/>
<path d="M105.335 50.4085L85.2444 54.3295C85.1196 54.3513 84.9919 54.3513 84.867 54.3295L64.7763 50.4085C64.5556 50.3652 64.3568 50.2474 64.2136 50.0751C64.0704 49.9027 63.9918 49.6865 63.991 49.4631V39.8349C63.991 39.7084 64.016 39.5832 64.0648 39.4664C64.1135 39.3496 64.1849 39.2435 64.275 39.1541C64.365 39.0647 64.4719 38.9937 64.5895 38.9454C64.7072 38.897 64.8333 38.8721 64.9606 38.8721H105.16C105.287 38.8721 105.413 38.897 105.531 38.9454C105.648 38.9937 105.755 39.0647 105.845 39.1541C105.935 39.2435 106.007 39.3496 106.055 39.4664C106.104 39.5832 106.129 39.7084 106.129 39.8349V49.4805C106.125 49.7024 106.043 49.9159 105.899 50.085C105.754 50.2541 105.555 50.3684 105.335 50.4085Z" fill="#58B368"/>
<path d="M87.1494 51.7224H82.9944C82.4807 51.7224 82.0642 52.1359 82.0642 52.646V55.2557C82.0642 55.7657 82.4807 56.1793 82.9944 56.1793H87.1494C87.6631 56.1793 88.0796 55.7657 88.0796 55.2557V52.646C88.0796 52.1359 87.6631 51.7224 87.1494 51.7224Z" fill="#58B368"/>
<path opacity="0.4" d="M87.1494 51.7224H82.9944C82.4807 51.7224 82.0642 52.1359 82.0642 52.646V55.2557C82.0642 55.7657 82.4807 56.1793 82.9944 56.1793H87.1494C87.6631 56.1793 88.0796 55.7657 88.0796 55.2557V52.646C88.0796 52.1359 87.6631 51.7224 87.1494 51.7224Z" fill="#454D66"/>
<path d="M157.503 55.2947C158.008 56.3272 158.381 57.3031 158.82 58.3225C159.258 59.342 159.579 60.3571 159.921 61.3983C160.615 63.5095 161.127 65.6752 161.452 67.8723C161.496 68.1468 161.518 68.443 161.549 68.7436L161.593 69.1793C161.593 69.2577 161.593 69.3144 161.593 69.4058V69.689C161.607 70.3496 161.55 71.0099 161.422 71.6582C161.204 72.785 160.894 73.8924 160.496 74.9693C159.747 77.0165 158.813 78.9922 157.705 80.8725L155.476 79.9359C155.972 77.9492 156.472 75.9234 156.85 73.9673C157.034 73.03 157.165 72.0831 157.24 71.1311C157.266 70.7419 157.257 70.3512 157.214 69.9635L157.166 69.689L157.104 69.3405C157.056 69.1096 157.025 68.8787 156.968 68.6434C156.531 66.7203 155.965 64.8283 155.275 62.9798C154.941 62.0344 154.573 61.0934 154.204 60.148C153.835 59.2026 153.427 58.2528 153.05 57.3815L157.503 55.2947Z" fill="#7F3E3B"/>
<path d="M155.575 79.3567L153.864 81.0122L157.597 82.7549C157.597 82.7549 158.501 81.1865 157.878 79.7662L155.575 79.3567Z" fill="#7F3E3B"/>
<path d="M152.485 83.4893L155.635 84.7701L157.596 82.7443L153.863 81.019L152.485 83.4893Z" fill="#7F3E3B"/>
<path opacity="0.2" d="M88.5804 81.7009C94.789 81.0105 100.652 78.5076 105.428 74.5088C110.204 70.5099 113.679 65.1947 115.413 59.2351C117.147 53.2755 117.063 46.9391 115.171 41.0271C113.279 35.1151 109.663 29.893 104.782 26.0209C99.9014 22.1489 93.9738 19.8009 87.7489 19.2737C81.5241 18.7465 75.2816 20.0638 69.8107 23.0591C64.3398 26.0544 59.8862 30.5932 57.0129 36.1016C54.1396 41.61 52.9758 47.8406 53.6684 54.0058C54.1285 58.1008 55.3966 62.0657 57.4003 65.674C59.4039 69.2823 62.1039 72.4632 65.346 75.0351C68.5881 77.607 72.3087 79.5194 76.2953 80.6632C80.2819 81.8069 84.4564 82.1596 88.5804 81.7009V81.7009Z" fill="#58B368"/>
<path opacity="0.1" d="M65.5918 25.8142L113.636 63.9174C113.842 63.4817 114.035 63.0461 114.224 62.6104C115.428 59.7658 116.197 56.7584 116.505 53.688V53.688L75.0075 20.7866C71.602 21.9143 68.417 23.6149 65.5918 25.8142V25.8142Z" fill="white"/>
<path opacity="0.1" d="M54.509 42.5129L99.6747 78.3463C103.966 76.1239 107.686 72.9519 110.547 69.0754L61.222 29.9353C58.0432 33.5616 55.7464 37.865 54.509 42.5129V42.5129Z" fill="white"/>
<path d="M162.887 85.7539C162.829 84.961 162.568 84.1961 162.128 83.532C161.808 83.0435 161.361 82.6505 160.834 82.3949L157.837 80.9354C155.845 79.9552 153.84 79.0011 151.835 78.047C149.83 77.0929 147.811 76.1562 145.802 75.2108C143.792 74.2654 141.765 73.3462 139.734 72.4443C135.68 70.6204 131.599 68.8457 127.493 67.1205C125.439 66.2492 123.381 65.4127 121.306 64.5937C120.7 64.3567 120.208 63.9 119.928 63.3159C119.649 62.7319 119.603 62.0642 119.801 61.4482C122.579 52.7515 121.946 43.3339 118.03 35.0806C114.114 26.8273 107.202 20.3473 98.6794 16.9379C90.1567 13.5284 80.6516 13.4411 72.0668 16.6934C63.482 19.9457 56.4511 26.2975 52.3815 34.4775C48.3119 42.6574 47.5039 52.0618 50.1193 60.808C52.7347 69.5542 58.5805 76.9968 66.4865 81.646C74.3924 86.2951 83.7751 87.8077 92.7563 85.881C101.737 83.9542 109.654 78.7303 114.922 71.255C115.295 70.7236 115.857 70.3529 116.495 70.2178C117.133 70.0827 117.799 70.1934 118.358 70.5274C120.276 71.6601 122.204 72.774 124.14 73.869C128.01 76.0589 131.909 78.1936 135.838 80.2732C137.799 81.3275 139.787 82.3426 141.739 83.3752C143.691 84.4077 145.688 85.4141 147.675 86.4248C149.663 87.4355 151.624 88.4245 153.638 89.4004L156.626 90.8729C157.151 91.1351 157.738 91.2496 158.324 91.204C159.121 91.1479 159.891 90.8883 160.557 90.4503C161.352 89.9655 161.993 89.2672 162.405 88.4362C162.817 87.6051 162.985 86.6752 162.887 85.7539V85.7539ZM72.3407 76.117C67.2402 73.6179 63.0006 69.673 60.1581 64.7813C57.3156 59.8896 55.9979 54.2707 56.3715 48.6354C56.7452 43 58.7935 37.6012 62.2574 33.1218C65.7213 28.6423 70.4452 25.2835 75.8316 23.47C81.2181 21.6565 87.0252 21.4698 92.5185 22.9335C98.0119 24.3972 102.945 27.4456 106.693 31.6932C110.442 35.9408 112.837 41.1967 113.577 46.7963C114.317 52.3958 113.368 58.0876 110.85 63.1516C109.179 66.5138 106.858 69.5163 104.018 71.9875C101.178 74.4587 97.8761 76.3503 94.3001 77.5543C90.7241 78.7582 86.9442 79.251 83.1764 79.0044C79.4086 78.7578 75.7266 77.7766 72.3407 76.117V76.117Z" fill="#58B368"/>
<path d="M140.957 41.828C140.957 42.085 140.821 42.2941 140.65 42.2941C140.479 42.2941 140.343 42.085 140.343 41.828C140.343 41.5709 140.479 41.3574 140.65 41.3574C140.821 41.3574 140.957 41.5665 140.957 41.828Z" fill="#263238"/>
<path d="M140.844 42.2898C140.536 43.079 140.119 43.8222 139.607 44.4986C139.784 44.6247 139.987 44.7107 140.202 44.7506C140.416 44.7905 140.637 44.7833 140.848 44.7295L140.844 42.2898Z" fill="#630F0F"/>
<path d="M141.878 40.3884C141.91 40.3875 141.941 40.3768 141.966 40.3578C141.992 40.3387 142.011 40.3123 142.02 40.2821C142.03 40.252 142.03 40.2196 142.02 40.1894C142.01 40.1593 141.992 40.1329 141.966 40.1139C141.772 39.9696 141.547 39.8731 141.308 39.8322C141.069 39.7913 140.824 39.8072 140.593 39.8787C140.572 39.8843 140.553 39.8941 140.536 39.9076C140.519 39.9211 140.506 39.9379 140.496 39.9569C140.486 39.9759 140.481 39.9968 140.48 40.0181C140.479 40.0394 140.482 40.0606 140.49 40.0805C140.497 40.1004 140.509 40.1185 140.524 40.1336C140.54 40.1487 140.558 40.1604 140.578 40.1681C140.598 40.1758 140.619 40.1792 140.641 40.1781C140.662 40.177 140.683 40.1715 140.702 40.1619V40.1619C140.887 40.1075 141.081 40.0969 141.27 40.1309C141.459 40.165 141.637 40.2427 141.791 40.3579C141.815 40.378 141.846 40.3888 141.878 40.3884V40.3884Z" fill="#263238"/>
<path d="M149.835 43.7734C149.37 46.1173 148.909 50.4086 150.559 51.9683C150.559 51.9683 149.914 54.3427 145.535 54.3427C140.708 54.3427 143.231 51.9683 143.231 51.9683C145.864 51.3453 145.794 49.4066 145.333 47.6116L149.835 43.7734Z" fill="#7F3E3B"/>
<path d="M151.403 50.5003C151.767 50.6179 151.293 52.7701 151.293 52.7701C151.293 52.7701 150.692 54.2731 143.224 53.7503C142.65 53.7068 142.869 51.6417 143.417 51.3411C145.186 50.3826 150.227 50.1169 151.403 50.5003Z" fill="#263238"/>
<path d="M166.573 140.515C166.977 140.476 167.565 139.74 167.732 139.469C167.739 139.458 167.743 139.444 167.743 139.43C167.743 139.416 167.739 139.403 167.732 139.391C167.725 139.378 167.713 139.368 167.7 139.362C167.687 139.355 167.672 139.353 167.657 139.356C167.613 139.356 166.551 139.557 166.293 139.966C166.265 140.009 166.247 140.057 166.24 140.107C166.232 140.158 166.235 140.209 166.249 140.258C166.306 140.45 166.415 140.502 166.503 140.515H166.573ZM167.499 139.544C167.214 139.936 166.744 140.393 166.521 140.363C166.499 140.363 166.433 140.363 166.393 140.214C166.385 140.186 166.383 140.156 166.387 140.127C166.392 140.097 166.403 140.069 166.42 140.045C166.722 139.776 167.098 139.602 167.499 139.544Z" fill="#58B368"/>
<path d="M167.456 139.544C167.534 139.537 167.612 139.524 167.688 139.505C167.701 139.5 167.713 139.493 167.722 139.483C167.731 139.473 167.738 139.461 167.741 139.448C167.743 139.434 167.742 139.42 167.738 139.407C167.733 139.394 167.725 139.383 167.715 139.374C167.688 139.348 166.977 138.747 166.495 138.794C166.437 138.798 166.38 138.814 166.329 138.841C166.277 138.868 166.232 138.906 166.196 138.951C166.155 138.991 166.129 139.044 166.124 139.1C166.118 139.157 166.133 139.214 166.166 139.261C166.324 139.509 167.017 139.587 167.456 139.544ZM167.491 139.391C167.052 139.444 166.411 139.356 166.289 139.178C166.289 139.178 166.253 139.121 166.315 139.043C166.34 139.014 166.37 138.99 166.404 138.973C166.437 138.956 166.474 138.946 166.512 138.943V138.943C166.876 138.993 167.217 139.149 167.491 139.391V139.391Z" fill="#58B368"/>
<path d="M136.409 151.972C136.741 151.971 137.073 151.942 137.401 151.885C137.415 151.881 137.429 151.873 137.439 151.862C137.45 151.852 137.458 151.838 137.462 151.824C137.465 151.808 137.462 151.792 137.455 151.778C137.448 151.764 137.437 151.753 137.423 151.745C137.374 151.715 136.251 151.079 135.711 151.223C135.61 151.248 135.524 151.312 135.47 151.401C135.436 151.45 135.417 151.507 135.417 151.567C135.417 151.626 135.436 151.684 135.47 151.732C135.61 151.924 135.997 151.972 136.409 151.972ZM137.155 151.771C136.554 151.854 135.738 151.85 135.589 151.645C135.567 151.619 135.549 151.571 135.589 151.475C135.605 151.448 135.626 151.425 135.652 151.407C135.678 151.389 135.707 151.377 135.738 151.371C136.084 151.279 136.76 151.571 137.155 151.771V151.771Z" fill="#58B368"/>
<path d="M137.365 151.881C137.381 151.885 137.397 151.885 137.413 151.881C137.423 151.872 137.431 151.862 137.437 151.849C137.442 151.837 137.444 151.824 137.444 151.811C137.444 151.776 137.352 150.914 136.944 150.578C136.883 150.528 136.813 150.491 136.738 150.468C136.662 150.446 136.583 150.439 136.505 150.447C136.294 150.469 136.237 150.574 136.22 150.661C136.163 151.023 136.935 151.715 137.321 151.889L137.365 151.881ZM136.58 150.574C136.678 150.577 136.772 150.612 136.847 150.674C137.091 150.95 137.244 151.294 137.286 151.659C136.887 151.423 136.365 150.879 136.408 150.661C136.408 150.661 136.408 150.591 136.558 150.578L136.58 150.574Z" fill="#58B368"/>
<path d="M140.928 151.805H137.708L137.383 144.39H140.608L140.928 151.805Z" fill="#7F3E3B"/>
<path d="M170.547 137.119L168.033 139.118L161.635 134.709L164.154 132.71L170.547 137.119Z" fill="#7F3E3B"/>
<path d="M167.573 138.994L170.144 136.463C170.191 136.419 170.25 136.391 170.314 136.385C170.378 136.379 170.442 136.394 170.495 136.428L172.966 138.005C173.026 138.043 173.076 138.095 173.113 138.156C173.15 138.216 173.172 138.284 173.178 138.355C173.185 138.426 173.175 138.497 173.149 138.563C173.124 138.629 173.084 138.689 173.032 138.737C172.119 139.608 171.632 139.983 170.5 141.094C169.807 141.782 168.109 143.83 167.148 144.775C166.187 145.721 165.116 144.902 165.428 144.427C166.81 142.309 167.279 140.562 167.341 139.499C167.354 139.308 167.437 139.129 167.573 138.994V138.994Z" fill="#263238"/>
<path d="M137.726 151.436H141.236C141.3 151.435 141.362 151.457 141.411 151.496C141.461 151.536 141.495 151.592 141.508 151.653L142.144 154.498C142.16 154.567 142.161 154.638 142.145 154.706C142.129 154.775 142.098 154.838 142.053 154.893C142.009 154.948 141.952 154.992 141.888 155.021C141.824 155.051 141.754 155.066 141.684 155.065C140.411 155.065 138.577 154.973 136.98 154.973C135.116 154.973 133.505 155.073 131.316 155.073C130 155.073 129.627 153.745 130.18 153.623C132.702 153.078 134.76 153.017 136.936 151.684C137.171 151.53 137.445 151.444 137.726 151.436V151.436Z" fill="#263238"/>
<path d="M156.91 52.924C159.705 54.2309 160.859 63.1882 160.859 63.1882L154.431 65.6933C153.434 63.268 152.625 60.7701 152.014 58.2216C151.114 54.1787 154.037 51.5647 156.91 52.924Z" fill="#58B368"/>
<path opacity="0.3" d="M156.91 52.924C159.705 54.2309 160.859 63.1882 160.859 63.1882L154.431 65.6933C153.434 63.268 152.625 60.7701 152.014 58.2216C151.114 54.1787 154.037 51.5647 156.91 52.924Z" fill="white"/>
<path opacity="0.2" d="M152.748 55.5589C152.529 55.4533 152.299 55.3701 152.063 55.3105C151.807 56.2658 151.798 57.2699 152.037 58.2295C152.646 60.7782 153.453 63.2762 154.45 65.7011L156.569 64.8777C156.179 62.5382 154.981 56.6219 152.748 55.5589Z" fill="#454D66"/>
<path d="M138.273 52.8564C138.273 52.8564 134.841 56.7033 138.079 80.5211H155.323C155.441 77.9071 153.778 65.0725 156.332 52.6909C154.425 52.3267 152.496 52.0851 150.558 51.9677C148.117 51.8282 145.671 51.8282 143.23 51.9677C141.557 52.1351 139.899 52.4322 138.273 52.8564Z" fill="#58B368"/>
<path opacity="0.3" d="M138.273 52.8564C138.273 52.8564 134.841 56.7033 138.079 80.5211H155.323C155.441 77.9071 153.778 65.0725 156.332 52.6909C154.425 52.3267 152.496 52.0851 150.558 51.9677C148.117 51.8282 145.671 51.8282 143.23 51.9677C141.557 52.1351 139.899 52.4322 138.273 52.8564Z" fill="white"/>
<path opacity="0.2" d="M141.751 57.9635C140.97 55.637 139.092 54.892 137.179 56.2731C136.793 58.5298 136.521 62.1676 136.832 67.9358L140.198 67.9053C140.198 67.9053 142.905 61.427 141.751 57.9635Z" fill="#454D66"/>
<path d="M141.121 57.0103C140.98 58.1779 140.787 59.2365 140.572 60.3388C140.357 61.441 140.107 62.5171 139.822 63.6019C139.259 65.8191 138.492 67.9803 137.532 70.0585C137.282 70.5943 136.992 71.1215 136.685 71.6486C136.527 71.9144 136.369 72.1801 136.189 72.4415C135.956 72.8048 135.681 73.1397 135.369 73.4392C134.763 73.9967 134.045 74.4199 133.263 74.6809C132.627 74.902 131.97 75.0553 131.301 75.1383C130.109 75.2851 128.904 75.2997 127.708 75.1819C127.123 75.1354 126.553 75.0613 125.997 74.9597C125.426 74.8595 124.887 74.7549 124.299 74.6024L124.584 72.215C126.587 72.1315 128.575 71.8395 130.516 71.3437C130.911 71.2276 131.294 71.076 131.661 70.8906C131.902 70.7809 132.113 70.615 132.275 70.407C132.24 70.4375 132.561 69.9103 132.749 69.5357C132.938 69.161 133.149 68.6643 133.328 68.2287C133.697 67.3312 134.013 66.3814 134.302 65.4099C134.592 64.4384 134.847 63.4494 135.083 62.4474C135.32 61.4454 135.522 60.4346 135.742 59.3977C135.961 58.3609 136.119 57.3327 136.277 56.3699L141.121 57.0103Z" fill="#7F3E3B"/>
<path d="M142.582 55.2043C143.49 58.1277 139.805 66.8409 139.805 66.8409L132.043 64.9022C132.518 62.1481 133.318 59.459 134.425 56.8904C136.926 51.4533 141.489 51.6798 142.582 55.2043Z" fill="#58B368"/>
<path opacity="0.3" d="M142.582 55.2043C143.49 58.1277 139.805 66.8409 139.805 66.8409L132.043 64.9022C132.518 62.1481 133.318 59.459 134.425 56.8904C136.926 51.4533 141.489 51.6798 142.582 55.2043Z" fill="white"/>
<path d="M124.692 72.2277L121.042 72.1362L122.797 75.9047C122.797 75.9047 124.28 76.1008 125.499 74.1098L126.785 72.5893L125.306 72.2931C125.104 72.2539 124.898 72.232 124.692 72.2277Z" fill="#7F3E3B"/>
<path d="M118.739 72.8377L120.831 75.9614L122.801 75.9047L121.042 72.1362L118.739 72.8377Z" fill="#7F3E3B"/>
<path opacity="0.2" d="M137.385 144.401L137.547 148.222H140.772L140.605 144.401H137.385Z" fill="#454D66"/>
<path opacity="0.2" d="M164.154 132.71L161.635 134.709L164.935 136.984L167.453 134.984L164.154 132.71Z" fill="#454D66"/>
<path d="M149.652 41.2643C149.459 44.4359 149.512 46.3006 147.897 47.93C145.475 50.3784 141.531 48.932 140.768 45.7516C140.079 42.9024 140.513 38.1972 143.637 36.9294C144.326 36.6465 145.076 36.5436 145.817 36.6306C146.557 36.7176 147.262 36.9915 147.866 37.4263C148.469 37.8611 148.95 38.4422 149.263 39.1141C149.576 39.786 149.71 40.5263 149.652 41.2643V41.2643Z" fill="#7F3E3B"/>
<path d="M152.228 38.3188C152.228 38.3188 153.908 38.8154 153.382 40.7193C152.587 43.6121 150.718 46.9406 148.305 47.1497C145.3 47.4154 143.944 44.3353 143.549 41.1506C141.75 39.9264 140.416 38.7806 140.846 37.5084C141.504 35.5479 143.891 33.8576 147.691 34.2932C151.491 34.7289 153.382 37.1686 152.228 38.3188Z" fill="#263238"/>
<path d="M145.381 41.8037C145.323 42.5903 145.005 43.3359 144.477 43.9254C143.775 44.6921 143.038 44.2129 142.915 43.2806C142.806 42.4354 143.034 41.0195 143.894 40.5969C144.754 40.1743 145.438 40.8539 145.381 41.8037Z" fill="#7F3E3B"/>
<path d="M144.197 80.5232C144.197 80.5232 143.108 102.097 145.228 111.238C148.584 125.71 163.34 137.308 163.34 137.308L168.078 133.539C168.078 133.539 155.938 124.569 154.845 112.518C153.867 101.696 155.315 89.267 155.315 80.5232H144.197Z" fill="#58B368"/>
<path opacity="0.2" d="M144.197 80.5232C144.197 80.5232 143.108 102.097 145.228 111.238C148.584 125.71 163.34 137.308 163.34 137.308L168.078 133.539C168.078 133.539 155.938 124.569 154.845 112.518C153.867 101.696 155.315 89.267 155.315 80.5232H144.197Z" fill="#454D66"/>
<path opacity="0.2" d="M145.814 86.9119C145.376 86.0711 144.52 88.5762 143.923 91.7914C143.923 96.2265 144.002 101.271 144.393 105.545C147.372 100.078 146.74 88.6546 145.814 86.9119Z" fill="#454D66"/>
<path d="M161.189 136.377L162.988 137.762L168.459 133.358L166.818 131.881L161.189 136.377Z" fill="#2C6BDB"/>
<path opacity="0.4" d="M161.189 136.377L162.988 137.762L168.459 133.358L166.818 131.881L161.189 136.377Z" fill="#FAFAFA"/>
<path d="M138.078 80.5232C138.078 80.5232 133.225 100.956 132.883 110.715C132.501 121.663 136.345 147.48 136.345 147.48H141.807C141.807 147.48 142.479 121.463 142.724 111.49C142.988 100.62 149.411 80.5232 149.411 80.5232H138.078Z" fill="#58B368"/>
<path opacity="0.2" d="M138.078 80.5232C138.078 80.5232 133.225 100.956 132.883 110.715C132.501 121.663 136.345 147.48 136.345 147.48H141.807C141.807 147.48 142.479 121.463 142.724 111.49C142.988 100.62 149.411 80.5232 149.411 80.5232H138.078Z" fill="#454D66"/>
<path d="M135.298 145.314C135.271 145.314 135.605 147.566 135.605 147.566H142.248L142.427 145.558L135.298 145.314Z" fill="#2C6BDB"/>
<path opacity="0.4" d="M135.298 145.314C135.271 145.314 135.605 147.566 135.605 147.566H142.248L142.427 145.558L135.298 145.314Z" fill="#FAFAFA"/>
</svg>
