<svg width="200" height="160" viewBox="0 0 200 160" fill="none" xmlns="http://www.w3.org/2000/svg">
<path d="M99.6379 152.576C144.725 152.576 181.276 150.442 181.276 147.809C181.276 145.177 144.725 143.043 99.6379 143.043C54.5505 143.043 18 145.177 18 147.809C18 150.442 54.5505 152.576 99.6379 152.576Z" fill="#F5F5F5"/>
<path d="M165.999 104.1H55.0814C54.4288 104.105 53.7823 103.975 53.182 103.72C52.5816 103.464 52.0403 103.087 51.5917 102.613C51.1431 102.14 50.7968 101.578 50.5743 100.965C50.3517 100.352 50.2578 99.6989 50.2982 99.0476L54.4372 14.4161C54.5138 13.0618 55.1015 11.7871 56.0815 10.8493C57.0615 9.91149 58.3608 9.38047 59.7172 9.36344H170.635C171.288 9.3581 171.935 9.48724 172.535 9.74281C173.136 9.99838 173.677 10.3749 174.126 10.8489C174.575 11.3229 174.921 11.8843 175.143 12.498C175.366 13.1117 175.459 13.7646 175.418 14.4161L171.279 99.0476C171.202 100.402 170.614 101.676 169.634 102.613C168.654 103.551 167.355 104.082 165.999 104.1V104.1Z" fill="#58B368"/>
<path opacity="0.7" d="M165.999 104.1H55.0814C54.4288 104.105 53.7823 103.975 53.182 103.72C52.5816 103.464 52.0403 103.087 51.5917 102.613C51.1431 102.14 50.7968 101.578 50.5743 100.965C50.3517 100.352 50.2578 99.6989 50.2982 99.0476L54.4372 14.4161C54.5138 13.0618 55.1015 11.7871 56.0815 10.8493C57.0615 9.91149 58.3608 9.38047 59.7172 9.36344H170.635C171.288 9.3581 171.935 9.48724 172.535 9.74281C173.136 9.99838 173.677 10.3749 174.126 10.8489C174.575 11.3229 174.921 11.8843 175.143 12.498C175.366 13.1117 175.459 13.7646 175.418 14.4161L171.279 99.0476C171.202 100.402 170.614 101.676 169.634 102.613C168.654 103.551 167.355 104.082 165.999 104.1V104.1Z" fill="white"/>
<path d="M174.93 10.2757C174.339 9.62129 173.602 9.11624 172.778 8.80204L172.93 8.40625C173.812 8.7486 174.603 9.29045 175.241 9.98941L174.93 10.2757Z" fill="#58B368"/>
<path d="M170.691 8H161.823V8.42105H170.691V8Z" fill="#58B368"/>
<path d="M170.635 9.39086H59.7175C58.3612 9.40789 57.0619 9.93891 56.0818 10.8767C55.1018 11.8145 54.5142 13.0892 54.4375 14.4435H175.427C175.468 13.7913 175.374 13.1377 175.152 12.5234C174.929 11.9091 174.582 11.3474 174.132 10.8732C173.682 10.3991 173.14 10.0227 172.538 9.76769C171.937 9.51264 171.289 9.38436 170.635 9.39086V9.39086Z" fill="#58B368"/>
<path d="M53.684 98.3919L57.5325 20.1309C57.5687 19.5 57.8433 18.9064 58.3006 18.4702C58.7578 18.034 59.3637 17.7878 59.9956 17.7814H169.532C169.837 17.7779 170.139 17.8372 170.419 17.9556C170.699 18.0739 170.952 18.2488 171.162 18.4692C171.372 18.6897 171.534 18.951 171.638 19.2369C171.743 19.5228 171.787 19.8271 171.768 20.1309L167.941 98.3961C167.905 99.0282 167.63 99.6228 167.172 100.06C166.713 100.497 166.107 100.743 165.474 100.75H55.9198C55.615 100.753 55.3127 100.693 55.0321 100.574C54.7514 100.455 54.4983 100.279 54.2885 100.058C54.0787 99.8365 53.9167 99.5744 53.8127 99.2878C53.7088 99.0012 53.6649 98.6962 53.684 98.3919V98.3919Z" fill="white"/>
<path opacity="0.3" d="M69.2294 44.6085H64.1767C64.0673 44.6098 63.9588 44.5886 63.8579 44.5463C63.757 44.504 63.6658 44.4415 63.5901 44.3625C63.5143 44.2836 63.4555 44.19 63.4174 44.0874C63.3792 43.9849 63.3625 43.8756 63.3683 43.7664L63.7894 34.9243C63.8042 34.6971 63.9046 34.484 64.0702 34.3278C64.2357 34.1715 64.4543 34.0838 64.682 34.0821H69.7346C69.8444 34.0803 69.9533 34.101 70.0547 34.143C70.1561 34.1851 70.2478 34.2475 70.324 34.3265C70.4003 34.4055 70.4594 34.4993 70.4978 34.6022C70.5362 34.705 70.553 34.8146 70.5472 34.9243L70.1262 43.7664C70.1113 43.9942 70.0103 44.208 69.8439 44.3643C69.6774 44.5206 69.4577 44.6079 69.2294 44.6085V44.6085Z" fill="#58B368"/>
<path opacity="0.3" d="M79.3425 44.6105H74.2899C74.1805 44.6111 74.0721 44.5896 73.9712 44.5471C73.8704 44.5047 73.7792 44.4422 73.7033 44.3634C73.6273 44.2847 73.5681 44.1914 73.5292 44.0891C73.4904 43.9868 73.4727 43.8777 73.4773 43.7684L73.9867 33.3263C74.0036 33.0991 74.1051 32.8865 74.2712 32.7306C74.4372 32.5746 74.6558 32.4867 74.8836 32.4841H79.9362C80.0456 32.4835 80.154 32.505 80.2549 32.5475C80.3557 32.59 80.4469 32.6525 80.5229 32.7312C80.5988 32.8099 80.658 32.9033 80.6969 33.0055C80.7357 33.1078 80.7534 33.2169 80.7488 33.3263L80.2394 43.7684C80.2225 43.9955 80.121 44.2081 79.9549 44.3641C79.7889 44.52 79.5703 44.6079 79.3425 44.6105V44.6105Z" fill="#58B368"/>
<path opacity="0.3" d="M89.4548 44.6114H84.4022C84.2928 44.6121 84.1844 44.5905 84.0835 44.548C83.9827 44.5056 83.8915 44.4431 83.8156 44.3644C83.7396 44.2856 83.6804 44.1923 83.6415 44.09C83.6027 43.9877 83.585 43.8786 83.5896 43.7693L84.1538 32.2367C84.1706 32.0095 84.2721 31.7969 84.4382 31.641C84.6043 31.485 84.8228 31.3971 85.0506 31.3945H90.1033C90.2127 31.3939 90.3211 31.4154 90.4219 31.4579C90.5228 31.5004 90.6139 31.5629 90.6899 31.6416C90.7659 31.7203 90.8251 31.8137 90.8639 31.9159C90.9028 32.0182 90.9204 32.1273 90.9159 32.2367L90.3727 43.7567C90.3587 43.9897 90.2556 44.2084 90.0847 44.3676C89.9138 44.5267 89.6883 44.614 89.4548 44.6114V44.6114Z" fill="#58B368"/>
<path opacity="0.3" d="M99.5758 44.6126H94.5232C94.414 44.6133 94.3057 44.5917 94.2051 44.5492C94.1045 44.5067 94.0136 44.4441 93.9379 44.3653C93.8623 44.2865 93.8035 44.1931 93.7651 44.0909C93.7267 43.9886 93.7096 43.8796 93.7148 43.7705L94.3253 31.2484C94.3422 31.0212 94.4437 30.8086 94.6097 30.6527C94.7758 30.4967 94.9943 30.4088 95.2221 30.4063H100.275C100.384 30.4056 100.493 30.4272 100.593 30.4696C100.694 30.5121 100.785 30.5746 100.861 30.6533C100.937 30.732 100.997 30.8254 101.035 30.9277C101.074 31.0299 101.092 31.1391 101.087 31.2484L100.481 43.7578C100.469 43.9894 100.368 44.2075 100.2 44.3667C100.031 44.5259 99.8077 44.614 99.5758 44.6126V44.6126Z" fill="#58B368"/>
<path d="M109.689 44.6073H104.637C104.527 44.608 104.419 44.5864 104.318 44.544C104.217 44.5015 104.126 44.439 104.05 44.3603C103.974 44.2815 103.915 44.1882 103.876 44.0859C103.837 43.9836 103.819 43.8745 103.824 43.7652L104.624 27.4242C104.64 27.1966 104.741 26.9835 104.907 26.8273C105.074 26.6712 105.293 26.5836 105.521 26.582H110.573C110.683 26.5814 110.791 26.6029 110.892 26.6454C110.993 26.6879 111.084 26.7504 111.16 26.8291C111.236 26.9078 111.295 27.0012 111.334 27.1034C111.373 27.2057 111.391 27.3148 111.386 27.4242L110.586 43.7526C110.572 43.982 110.472 44.1977 110.306 44.3563C110.139 44.5148 109.919 44.6045 109.689 44.6073Z" fill="#58B368"/>
<path d="M108.371 24.8282L108.851 24.0618C108.878 24.0204 108.893 23.9726 108.894 23.9235C108.896 23.8743 108.884 23.8257 108.861 23.7826C108.837 23.7395 108.802 23.7036 108.76 23.6786C108.717 23.6537 108.669 23.6406 108.62 23.6408H107.731C107.682 23.6391 107.632 23.651 107.589 23.6753C107.545 23.6996 107.509 23.7354 107.484 23.7788C107.459 23.8221 107.447 23.8714 107.448 23.9213C107.45 23.9712 107.465 24.0198 107.491 24.0618L107.912 24.8282C107.937 24.8673 107.97 24.8997 108.01 24.9221C108.051 24.9446 108.096 24.9564 108.142 24.9564C108.188 24.9564 108.233 24.9446 108.273 24.9221C108.314 24.8997 108.347 24.8673 108.371 24.8282V24.8282Z" fill="#454D66"/>
<path opacity="0.3" d="M119.801 44.6086H114.748C114.639 44.6093 114.53 44.5877 114.429 44.5452C114.328 44.5028 114.237 44.4403 114.161 44.3616C114.085 44.2828 114.026 44.1895 113.987 44.0872C113.948 43.9849 113.931 43.8758 113.935 43.7665L114.609 30.0023C114.626 29.7751 114.727 29.5625 114.893 29.4066C115.059 29.2506 115.278 29.1627 115.506 29.1602H120.558C120.668 29.1595 120.776 29.1811 120.877 29.2235C120.978 29.266 121.069 29.3285 121.145 29.4072C121.221 29.4859 121.28 29.5793 121.319 29.6816C121.358 29.7839 121.376 29.893 121.371 30.0023L120.689 43.7539C120.676 43.9822 120.578 44.1973 120.413 44.3558C120.248 44.5144 120.029 44.6047 119.801 44.6086V44.6086Z" fill="#58B368"/>
<path opacity="0.1" d="M120.244 47.3566H63.4816C63.4455 47.3573 63.4097 47.3504 63.3764 47.3365C63.343 47.3226 63.313 47.302 63.288 47.2759C63.2631 47.2497 63.2439 47.2187 63.2315 47.1848C63.2192 47.1509 63.214 47.1148 63.2164 47.0787V47.0787C63.2216 47.0039 63.2549 46.9337 63.3095 46.8822C63.3641 46.8308 63.4361 46.8017 63.5111 46.8008H120.269C120.305 46.8002 120.341 46.807 120.374 46.8209C120.408 46.8348 120.438 46.8555 120.463 46.8816C120.488 46.9077 120.507 46.9387 120.519 46.9726C120.531 47.0066 120.537 47.0427 120.534 47.0787C120.531 47.1536 120.499 47.2243 120.445 47.276C120.391 47.3278 120.319 47.3567 120.244 47.3566V47.3566Z" fill="#454D66"/>
<path opacity="0.1" d="M124.286 96.5859L127.941 21.9333C127.944 21.8618 127.975 21.7943 128.027 21.7449C128.079 21.6955 128.148 21.6679 128.219 21.668H128.244C128.279 21.6674 128.313 21.6739 128.345 21.6871C128.377 21.7004 128.405 21.7201 128.429 21.7451C128.453 21.77 128.471 21.7996 128.483 21.832C128.494 21.8644 128.499 21.8989 128.497 21.9333L124.846 96.5859C124.842 96.6575 124.811 96.7248 124.76 96.7747C124.708 96.8246 124.64 96.8534 124.569 96.8554H124.539C124.505 96.8549 124.471 96.8474 124.439 96.8335C124.408 96.8195 124.379 96.7994 124.356 96.7742C124.332 96.7491 124.314 96.7195 124.302 96.6871C124.29 96.6548 124.285 96.6203 124.286 96.5859V96.5859Z" fill="#454D66"/>
<path d="M143.027 35.8355C142.642 37.858 143.001 39.9513 144.037 41.7303L141.536 43.2882C140.165 40.9242 139.689 38.1466 140.193 35.4608C140.712 32.7112 142.139 30.2154 144.246 28.3733C146.352 26.5312 149.016 25.4492 151.81 25.3008V28.1724C149.698 28.2763 147.682 29.0891 146.088 30.4795C144.495 31.8699 143.416 33.7568 143.027 35.8355Z" fill="#58B368"/>
<path opacity="0.3" d="M162.794 32.5351L160.082 33.6298C159.562 32.1995 158.659 30.9399 157.47 29.9892C156.282 29.0385 154.855 28.4334 153.345 28.2403C152.837 28.1705 152.324 28.1466 151.812 28.1688V25.2972C154.173 25.1876 156.508 25.8291 158.481 27.1296C160.454 28.4301 161.964 30.3226 162.794 32.5351V32.5351Z" fill="#58B368"/>
<path d="M163.275 38.5499C162.113 44.9246 155.949 49.4678 149.616 48.6214C147.952 48.4072 146.359 47.8156 144.959 46.8917C143.559 45.9679 142.388 44.7363 141.536 43.2909L144.037 41.7499C144.678 42.8423 145.561 43.7733 146.618 44.4711C147.675 45.1689 148.878 45.615 150.134 45.7751C152.493 46.0528 154.869 45.4247 156.782 44.0178C158.695 42.611 160.003 40.5303 160.441 38.1962C160.726 36.6773 160.598 35.1098 160.071 33.6572L162.782 32.5625C163.474 34.4795 163.644 36.5457 163.275 38.5499Z" fill="#454D66"/>
<path opacity="0.3" d="M155.144 60.4486C153.385 59.3599 151.289 58.9483 149.249 59.2907L148.938 56.4486C151.635 56.0103 154.4 56.5541 156.731 57.9812C161.443 60.9033 163.224 66.9412 160.942 72.2254L158.31 71.198C160.024 67.2865 158.773 62.697 155.144 60.4486Z" fill="#58B368"/>
<path d="M149.435 79.7382L149.628 76.8624C151.206 76.8779 152.762 76.4932 154.15 75.7444C155.539 74.9956 156.715 73.907 157.569 72.5803C157.857 72.1421 158.106 71.68 158.315 71.1992L160.946 72.2266C160.671 72.8655 160.341 73.4796 159.961 74.0624C158.826 75.8184 157.267 77.2593 155.426 78.2515C153.586 79.2438 151.525 79.7551 149.435 79.7382Z" fill="#454D66"/>
<path d="M143.684 78.0661C138.336 74.7524 136.888 67.4892 140.471 61.9818C141.42 60.5175 142.665 59.2685 144.126 58.3155C145.588 57.3624 147.233 56.7267 148.955 56.4492L149.267 59.2913C147.967 59.4989 146.724 59.9776 145.621 60.6965C144.518 61.4153 143.578 62.3582 142.863 63.464C140.143 67.6492 141.229 73.085 145.288 75.6029C146.593 76.4118 148.094 76.8486 149.629 76.8661L149.435 79.7419C147.402 79.7142 145.414 79.135 143.684 78.0661V78.0661Z" fill="#58B368"/>
<path d="M135.872 90.1993H133.742C133.454 90.204 133.178 90.3171 132.97 90.5161C132.761 90.7151 132.636 90.9854 132.618 91.2729L132.512 93.4077C132.504 93.5465 132.525 93.6856 132.573 93.8161C132.621 93.9467 132.695 94.066 132.791 94.1667C132.887 94.2674 133.002 94.3473 133.131 94.4014C133.259 94.4555 133.397 94.4828 133.536 94.4814H135.666C135.955 94.4777 136.232 94.365 136.441 94.1659C136.65 93.9668 136.777 93.696 136.795 93.4077L136.9 91.2729C136.907 91.1339 136.886 90.9948 136.838 90.8642C136.789 90.7336 136.715 90.6143 136.619 90.5137C136.522 90.4131 136.406 90.3333 136.278 90.2792C136.15 90.2251 136.012 90.1979 135.872 90.1993Z" fill="#58B368"/>
<path d="M147.823 90.1997H145.692C145.401 90.2037 145.121 90.3187 144.912 90.5214C144.702 90.724 144.578 90.999 144.564 91.2903L144.463 93.425C144.455 93.5635 144.475 93.7022 144.523 93.8324C144.57 93.9627 144.644 94.0819 144.74 94.1825C144.835 94.2831 144.95 94.3631 145.078 94.4175C145.205 94.4719 145.343 94.4995 145.482 94.4987H147.637C147.925 94.4939 148.201 94.3808 148.41 94.1818C148.618 93.9828 148.744 93.7126 148.762 93.425L148.867 91.2903C148.878 91.1483 148.858 91.0056 148.81 90.8715C148.762 90.7375 148.686 90.615 148.588 90.5122C148.489 90.4093 148.37 90.3283 148.239 90.2745C148.107 90.2207 147.965 90.1952 147.823 90.1997V90.1997Z" fill="#454D66"/>
<path opacity="0.3" d="M159.777 90.1992H157.642C157.354 90.204 157.079 90.3171 156.87 90.5161C156.662 90.7151 156.536 90.9853 156.518 91.2729L156.413 93.4077C156.405 93.5461 156.425 93.6848 156.473 93.8151C156.52 93.9454 156.594 94.0645 156.69 94.1651C156.785 94.2658 156.9 94.3457 157.028 94.4001C157.156 94.4545 157.293 94.4821 157.432 94.4813H159.567C159.857 94.4774 160.135 94.3628 160.344 94.1609C160.553 93.9591 160.677 93.6852 160.691 93.395L160.796 91.2603C160.802 91.1228 160.781 90.9855 160.732 90.8567C160.684 90.7279 160.61 90.6103 160.514 90.5111C160.419 90.4118 160.304 90.333 160.178 90.2794C160.051 90.2258 159.915 90.1985 159.777 90.1992V90.1992Z" fill="#58B368"/>
<path opacity="0.1" d="M116.057 74.326H65.0463C64.6105 74.329 64.1787 74.2427 63.7775 74.0724C63.3763 73.902 63.0142 73.6514 62.7136 73.3358C62.413 73.0202 62.1802 72.6463 62.0296 72.2373C61.879 71.8283 61.8138 71.3928 61.8379 70.9576L62.5832 56.1029C62.6333 55.1997 63.0248 54.3493 63.6783 53.7239C64.3319 53.0985 65.1987 52.7448 66.1032 52.7344H117.093C117.528 52.7315 117.96 52.8178 118.362 52.9881C118.763 53.1584 119.125 53.4091 119.425 53.7247C119.726 54.0403 119.959 54.4142 120.109 54.8232C120.26 55.2322 120.325 55.6677 120.301 56.1029L119.577 70.9534C119.528 71.8573 119.137 72.7088 118.483 73.335C117.829 73.9613 116.962 74.3156 116.057 74.326ZM66.0821 53.1681C65.2889 53.1773 64.5284 53.4862 63.9536 54.033C63.3787 54.5797 63.032 55.3237 62.9832 56.1155L62.259 70.966C62.234 71.346 62.2878 71.7271 62.417 72.0853C62.5461 72.4436 62.7478 72.7713 63.0095 73.048C63.2711 73.3247 63.5871 73.5443 63.9376 73.6933C64.2881 73.8422 64.6655 73.9171 65.0463 73.9134H116.057C116.85 73.9043 117.611 73.5953 118.185 73.0486C118.76 72.5019 119.107 71.7578 119.156 70.966L119.884 56.1155C119.908 55.7354 119.853 55.3546 119.723 54.9966C119.593 54.6386 119.391 54.3112 119.129 54.0347C118.868 53.7582 118.552 53.5386 118.201 53.3895C117.851 53.2405 117.473 53.1651 117.093 53.1681H66.0821Z" fill="#454D66"/>
<path opacity="0.1" d="M76.0847 56.9558H67.8405C67.715 56.956 67.5908 56.9305 67.4755 56.8811C67.3602 56.8316 67.2562 56.7591 67.1699 56.6681C67.0836 56.577 67.0168 56.4693 66.9735 56.3516C66.9303 56.2338 66.9115 56.1084 66.9184 55.9831C66.9323 55.7269 67.0431 55.4855 67.2284 55.308C67.4138 55.1305 67.6597 55.0302 67.9163 55.0274H76.1563C76.2821 55.0266 76.4067 55.0516 76.5225 55.1008C76.6383 55.15 76.7428 55.2224 76.8296 55.3135C76.9164 55.4046 76.9836 55.5125 77.0271 55.6306C77.0706 55.7486 77.0895 55.8744 77.0826 56C77.0677 56.2559 76.9566 56.4967 76.7715 56.674C76.5863 56.8513 76.341 56.952 76.0847 56.9558V56.9558ZM67.9163 55.4484C67.7685 55.4513 67.6271 55.5096 67.5203 55.6117C67.4135 55.7139 67.3489 55.8525 67.3394 56C67.3342 56.0691 67.3435 56.1384 67.3667 56.2037C67.3899 56.269 67.4265 56.3287 67.4742 56.3789C67.5219 56.4278 67.5789 56.4667 67.6418 56.4934C67.7046 56.5202 67.7722 56.5342 67.8405 56.5347H76.0847C76.2322 56.5309 76.373 56.4723 76.4796 56.3703C76.5863 56.2684 76.6511 56.1303 76.6615 55.9831C76.6659 55.9138 76.6558 55.8443 76.6319 55.7791C76.608 55.7138 76.5708 55.6543 76.5226 55.6042C76.4759 55.554 76.4191 55.5141 76.356 55.4873C76.2929 55.4605 76.2248 55.4472 76.1563 55.4484H67.9163Z" fill="#454D66"/>
<path opacity="0.3" d="M70.9519 96.8311H66.5898C66.4012 96.8326 66.2143 96.7953 66.0406 96.7218C65.8669 96.6482 65.7101 96.5398 65.5799 96.4033C65.4497 96.2668 65.3489 96.1051 65.2836 95.9281C65.2183 95.7511 65.19 95.5626 65.2003 95.3743L65.4151 91.008C65.4384 90.6165 65.6089 90.2483 65.8924 89.9774C66.1759 89.7064 66.5514 89.5526 66.9435 89.5469H71.3098C71.4986 89.5454 71.6857 89.5828 71.8595 89.6566C72.0333 89.7305 72.19 89.8394 72.3199 89.9764C72.4499 90.1134 72.5502 90.2757 72.6147 90.4532C72.6793 90.6307 72.7066 90.8195 72.6951 91.008L72.4845 95.3743C72.4591 95.7654 72.2873 96.1325 72.0032 96.4026C71.7192 96.6726 71.3438 96.8256 70.9519 96.8311V96.8311Z" fill="#58B368"/>
<path opacity="0.1" d="M87.6874 94.4482H76.4327C76.2691 94.4496 76.107 94.4174 75.9563 94.3537C75.8057 94.2899 75.6697 94.196 75.5568 94.0776C75.444 93.9592 75.3566 93.8189 75.3001 93.6654C75.2436 93.5118 75.2192 93.3484 75.2285 93.185C75.2445 92.8472 75.3891 92.5283 75.6325 92.2935C75.8759 92.0587 76.1998 91.9258 76.5379 91.9219H87.7885C87.952 91.9211 88.1141 91.9537 88.2646 92.0176C88.4152 92.0815 88.5512 92.1754 88.6643 92.2936C88.7773 92.4118 88.8652 92.5518 88.9223 92.7051C88.9795 92.8583 89.0049 93.0217 88.9969 93.185C88.9808 93.5229 88.8363 93.8418 88.5929 94.0765C88.3495 94.3113 88.0256 94.4443 87.6874 94.4482V94.4482ZM76.5379 92.3429C76.3109 92.3465 76.0934 92.4349 75.9282 92.5908C75.763 92.7466 75.6621 92.9586 75.6453 93.185C75.6403 93.292 75.6568 93.3988 75.6937 93.4993C75.7305 93.5998 75.7871 93.692 75.86 93.7703C75.9342 93.847 76.0233 93.9079 76.1217 93.9491C76.2201 93.9904 76.3259 94.0112 76.4327 94.0103H87.6874C87.9146 94.0086 88.1327 93.9207 88.2976 93.7644C88.4625 93.6081 88.562 93.395 88.5758 93.1682C88.5833 93.061 88.5681 92.9535 88.531 92.8526C88.494 92.7517 88.4361 92.6598 88.3611 92.5829C88.2876 92.505 88.1988 92.4432 88.1002 92.4011C88.0017 92.3591 87.8956 92.3379 87.7885 92.3387L76.5379 92.3429Z" fill="#454D66"/>
<path d="M68.9005 94.4512C68.8729 94.4501 68.8457 94.4436 68.8206 94.432C68.7954 94.4204 68.7728 94.404 68.7541 94.3836C68.7353 94.3633 68.7207 94.3395 68.7112 94.3135C68.7016 94.2875 68.6973 94.2599 68.6984 94.2322L68.791 92.367C68.7909 92.3391 68.7966 92.3116 68.8079 92.2861C68.8191 92.2606 68.8356 92.2377 68.8562 92.219C68.8769 92.2004 68.9013 92.1863 68.9278 92.1777C68.9543 92.1691 68.9823 92.1661 69.01 92.1691C69.0376 92.1702 69.0648 92.1767 69.0899 92.1883C69.1151 92.1999 69.1377 92.2163 69.1564 92.2367C69.1752 92.257 69.1898 92.2808 69.1993 92.3068C69.2089 92.3328 69.2132 92.3604 69.2121 92.388L69.1195 94.2533C69.1162 94.3084 69.0914 94.36 69.0505 94.397C69.0095 94.4341 68.9557 94.4535 68.9005 94.4512Z" fill="#58B368"/>
<path d="M68.0967 93.2166C68.0393 93.2149 67.9848 93.1907 67.9451 93.1493C67.9253 93.1297 67.9097 93.1064 67.899 93.0807C67.8883 93.0551 67.8828 93.0276 67.8828 92.9998C67.8828 92.972 67.8883 92.9445 67.899 92.9188C67.9097 92.8932 67.9253 92.8699 67.9451 92.8503L68.8461 92.0082C68.887 91.9694 68.9414 91.9483 68.9977 91.9493C69.0534 91.9528 69.1059 91.9768 69.1451 92.0166L69.9619 92.8587C70.0005 92.8995 70.0212 92.9539 70.0196 93.0099C70.018 93.066 69.9943 93.1191 69.9535 93.1577C69.9127 93.1962 69.8583 93.217 69.8023 93.2154C69.7462 93.2138 69.6931 93.19 69.6546 93.1493L68.9851 92.4419L68.2356 93.1577C68.1974 93.1926 68.1483 93.2134 68.0967 93.2166V93.2166Z" fill="#58B368"/>
<path opacity="0.4" d="M99.7326 89.5469H95.3705C94.9779 89.5525 94.602 89.7061 94.3178 89.977C94.0336 90.2479 93.8622 90.6161 93.8379 91.008L93.6273 95.3743C93.6164 95.5624 93.6442 95.7508 93.709 95.9278C93.7738 96.1047 93.8742 96.2665 94.0041 96.4031C94.1339 96.5397 94.2904 96.6481 94.4639 96.7217C94.6374 96.7954 94.8241 96.8326 95.0126 96.8311H99.3789C99.7704 96.8255 100.145 96.6723 100.429 96.4022C100.712 96.1321 100.883 95.765 100.907 95.3743L101.122 91.008C101.133 90.8193 101.105 90.6303 101.04 90.4529C100.975 90.2754 100.874 90.1132 100.744 89.9762C100.614 89.8392 100.457 89.7305 100.283 89.6566C100.109 89.5828 99.9216 89.5454 99.7326 89.5469V89.5469Z" fill="#454D66"/>
<path opacity="0.1" d="M116.112 94.4482H104.861C104.698 94.449 104.536 94.4164 104.385 94.3525C104.234 94.2886 104.099 94.1946 103.985 94.0764C103.872 93.9582 103.785 93.8182 103.727 93.665C103.67 93.5117 103.645 93.3484 103.653 93.185C103.669 92.8472 103.813 92.5283 104.057 92.2935C104.3 92.0587 104.624 91.9258 104.962 91.9219H116.217C116.38 91.9217 116.542 91.9547 116.692 92.0188C116.843 92.0829 116.978 92.1769 117.091 92.2949C117.204 92.413 117.292 92.5528 117.35 92.7058C117.407 92.8587 117.433 93.0218 117.425 93.185C117.408 93.5232 117.263 93.8421 117.019 94.0768C116.775 94.3115 116.45 94.4443 116.112 94.4482V94.4482ZM104.962 92.3429C104.736 92.3466 104.519 92.4351 104.354 92.5911C104.19 92.747 104.09 92.9589 104.074 93.185C104.069 93.292 104.085 93.3988 104.122 93.4993C104.159 93.5998 104.216 93.6919 104.289 93.7703C104.363 93.8472 104.452 93.9082 104.55 93.9495C104.649 93.9907 104.754 94.0114 104.861 94.0103H116.112C116.339 94.0087 116.558 93.9209 116.724 93.7647C116.889 93.6085 116.989 93.3954 117.004 93.1682C117.013 93.0601 116.998 92.9516 116.962 92.8494C116.926 92.7471 116.87 92.6535 116.796 92.5743C116.722 92.4952 116.632 92.4323 116.532 92.3895C116.433 92.3468 116.325 92.3252 116.217 92.3261L104.962 92.3429Z" fill="#454D66"/>
<path d="M97.3322 94.2362C97.3045 94.2352 97.2773 94.2286 97.2522 94.217C97.2271 94.2054 97.2045 94.189 97.1857 94.1687C97.1669 94.1483 97.1524 94.1245 97.1428 94.0985C97.1333 94.0725 97.1289 94.0449 97.1301 94.0173L97.2227 92.152C97.2226 92.124 97.2283 92.0963 97.2395 92.0706C97.2507 92.0449 97.2671 92.0218 97.2877 92.0028C97.3083 91.9838 97.3326 91.9693 97.3591 91.9602C97.3856 91.9511 97.4137 91.9476 97.4416 91.9499C97.4979 91.9532 97.5505 91.9784 97.5883 92.0201C97.6262 92.0619 97.646 92.1168 97.6437 92.1731L97.5511 94.0341C97.55 94.0618 97.5435 94.089 97.5319 94.1141C97.5203 94.1392 97.5039 94.1618 97.4835 94.1806C97.4632 94.1994 97.4394 94.2139 97.4134 94.2235C97.3874 94.233 97.3598 94.2374 97.3322 94.2362V94.2362Z" fill="white"/>
<path d="M97.3263 94.4507C97.271 94.4486 97.2185 94.4261 97.1789 94.3875L96.3621 93.5454C96.3423 93.5259 96.3267 93.5026 96.316 93.4769C96.3053 93.4513 96.2998 93.4237 96.2998 93.396C96.2998 93.3682 96.3053 93.3406 96.316 93.315C96.3267 93.2893 96.3423 93.2661 96.3621 93.2465C96.3817 93.2267 96.4049 93.2111 96.4306 93.2004C96.4562 93.1897 96.4838 93.1842 96.5116 93.1842C96.5393 93.1842 96.5669 93.1897 96.5925 93.2004C96.6182 93.2111 96.6415 93.2267 96.661 93.2465L97.3305 93.9538L98.08 93.2381C98.0995 93.2183 98.1228 93.2027 98.1485 93.192C98.1741 93.1813 98.2017 93.1758 98.2294 93.1758C98.2572 93.1758 98.2848 93.1813 98.3104 93.192C98.3361 93.2027 98.3593 93.2183 98.3789 93.2381C98.3985 93.2573 98.4141 93.2802 98.4247 93.3055C98.4354 93.3308 98.4408 93.358 98.4408 93.3854C98.4408 93.4129 98.4354 93.4401 98.4247 93.4654C98.4141 93.4907 98.3985 93.5136 98.3789 93.5328L97.4779 94.396C97.4359 94.4324 97.3819 94.452 97.3263 94.4507V94.4507Z" fill="white"/>
<path d="M41.5783 20.9753C39.8941 23.169 39.5825 26.1921 39.6793 27.7374C39.7972 29.6532 37.292 29.7416 37.9951 33.0764C38.5972 35.9648 36.8415 36.8658 36.8836 39.1269C36.9762 44.369 41.6793 45.9185 50.4499 44.369C59.2204 42.8195 53.953 34.8111 55.1236 31.6574C56.2941 28.5037 55.3678 21.11 53.0183 21.4427C53.2751 15.8764 44.9593 16.6006 41.5783 20.9753Z" fill="#454D66"/>
<path d="M44.5422 44.5542C44.4833 45.6195 44.3696 46.5795 44.2306 47.5858C44.0917 48.5921 43.9106 49.5689 43.6875 50.5542C43.4643 51.5395 43.2117 52.5331 42.9001 53.5016C42.5826 54.5084 42.1986 55.493 41.7506 56.4489L41.6538 56.6595C41.4287 57.1485 41.0249 57.5328 40.5253 57.7333C40.0256 57.9338 39.4682 57.9352 38.9675 57.7374C38.3911 57.5001 37.8288 57.2302 37.2833 56.9289C36.7485 56.6426 36.2559 56.3226 35.759 56.011C35.2622 55.6995 34.7948 55.35 34.3317 54.9963C33.8685 54.6426 33.4222 54.2805 32.9801 53.8679C32.7946 53.6717 32.6754 53.4222 32.6394 53.1546C32.6034 52.887 32.6524 52.6148 32.7794 52.3765C32.9065 52.1383 33.1052 51.946 33.3474 51.8267C33.5897 51.7075 33.8633 51.6674 34.1296 51.7121H34.1717C34.7106 51.8342 35.2538 51.9942 35.7843 52.1331L37.3633 52.5963L38.9001 53.0468C39.3969 53.19 39.8938 53.3121 40.3359 53.4089L37.5485 54.6974C37.8222 53.9142 38.0454 53.0763 38.2559 52.2174C38.4664 51.3584 38.6222 50.47 38.778 49.5774C38.9338 48.6847 39.0643 47.7795 39.199 46.87C39.3338 45.9605 39.4264 45.0258 39.5233 44.1795V44.1331C39.5791 43.4631 39.8988 42.8427 40.4121 42.4084C40.9253 41.9741 41.5901 41.7615 42.2601 41.8174C42.9301 41.8732 43.5505 42.1929 43.9848 42.7062C44.4191 43.2194 44.6317 43.8842 44.5759 44.5542H44.5422Z" fill="#B55B52"/>
<path d="M32.647 50.2603L31.6112 49.894C31.4841 49.8491 31.3493 49.8299 31.2147 49.8376C31.0801 49.8453 30.9484 49.8798 30.8273 49.939C30.7062 49.9982 30.598 50.0809 30.5092 50.1823C30.4204 50.2838 30.3528 50.4019 30.3101 50.5298L29.9143 51.713C29.8381 51.9412 29.8458 52.1892 29.9362 52.4123C30.0265 52.6353 30.1934 52.8189 30.407 52.9298L31.7038 53.6119C31.7038 53.6119 33.8091 55.2288 34.8659 54.2393L35.4428 52.5551L33.8807 51.0351C33.5296 50.6915 33.1089 50.4273 32.647 50.2603V50.2603Z" fill="#B55B52"/>
<path d="M44.0287 38.7617C40.9256 39.347 40.2687 40.6143 37.9824 45.3259C38.6729 48.4249 44.5635 51.1491 44.5635 51.1491C44.5635 51.1491 49.1445 42.7701 44.0287 38.7617Z" fill="#454D66"/>
<path d="M49.3543 145.062C51.2996 142.469 51.4596 141.753 52.6849 140.389C53.3579 139.607 54.1211 138.907 54.9586 138.304C55.7754 137.643 55.287 136.688 54.5375 136.283C53.9522 135.972 53.308 135.694 52.6007 135.281L49.3922 137.9C49.708 139.387 49.047 142.485 47.708 144.549C46.727 146.027 48.5754 146.098 49.3543 145.062Z" fill="#454D66"/>
<path d="M39.8814 62.3516C39.8814 62.3516 36.8919 83.3284 34.6646 97.64C34.2108 100.424 34.4835 103.278 35.4561 105.926C39.2667 116.078 49.1446 138.149 49.1446 138.149C49.5993 138.596 52.3319 135.998 52.5972 135.282C52.5972 135.282 49.1824 107.387 43.873 101.135C54.7067 78.7852 54.5382 62.3516 54.5382 62.3516H39.8814Z" fill="#58B368"/>
<g opacity="0.2">
<path d="M54.5286 62.9766L46.5286 63.5366C46.5286 63.5366 44.9791 86.5766 44.6465 99.4945C53.5265 80.4881 54.436 66.0755 54.5286 62.9766Z" fill="black"/>
<path d="M44.6006 102.137C44.4911 108.76 44.1585 117.379 43.5059 125.341C45.5311 130.002 47.3543 134.124 48.3522 136.364C49.3122 133.589 50.3816 130.276 51.3459 126.764C50.0027 118.659 47.649 106.97 44.6006 102.137Z" fill="black"/>
</g>
<path d="M47.7276 137.061C47.9718 137.419 48.3971 138.063 48.6918 138.552C48.7182 138.59 48.7521 138.623 48.7915 138.648C48.8309 138.673 48.875 138.689 48.921 138.697C48.9671 138.704 49.0141 138.702 49.0594 138.691C49.1047 138.68 49.1472 138.66 49.1844 138.632C50.5332 137.669 51.8006 136.597 52.9739 135.427C53.03 135.375 53.0692 135.307 53.0865 135.232C53.1037 135.157 53.0983 135.078 53.0708 135.006L52.4265 133.541C52.4026 133.494 52.3681 133.453 52.3257 133.421C52.2833 133.389 52.2341 133.367 52.182 133.357C52.1299 133.348 52.0762 133.35 52.0252 133.364C51.9741 133.379 51.927 133.405 51.8876 133.44L47.8455 136.56C47.7671 136.614 47.7117 136.695 47.6899 136.788C47.6681 136.88 47.6815 136.978 47.7276 137.061Z" fill="#58B368"/>
<path opacity="0.3" d="M47.7276 137.061C47.9718 137.419 48.3971 138.063 48.6918 138.552C48.7182 138.59 48.7521 138.623 48.7915 138.648C48.8309 138.673 48.875 138.689 48.921 138.697C48.9671 138.704 49.0141 138.702 49.0594 138.691C49.1047 138.68 49.1472 138.66 49.1844 138.632C50.5332 137.669 51.8006 136.597 52.9739 135.427C53.03 135.375 53.0692 135.307 53.0865 135.232C53.1037 135.157 53.0983 135.078 53.0708 135.006L52.4265 133.541C52.4026 133.494 52.3681 133.453 52.3257 133.421C52.2833 133.389 52.2341 133.367 52.182 133.357C52.1299 133.348 52.0762 133.35 52.0252 133.364C51.9741 133.379 51.927 133.405 51.8876 133.44L47.8455 136.56C47.7671 136.614 47.7117 136.695 47.6899 136.788C47.6681 136.88 47.6815 136.978 47.7276 137.061Z" fill="white"/>
<path d="M38.1918 146.1C41.2487 146.706 42.4276 146.895 44.1708 147.182C45.6613 147.422 45.9392 147.67 47.1182 147.881C48.1118 148.053 48.4655 147.144 48.6087 146.041C48.6845 145.489 48.8192 144.129 48.975 143.245L44.2382 142.992C43.1097 144.02 40.0992 144.356 38.2845 144.255C36.5624 144.121 36.975 145.855 38.1918 146.1Z" fill="#454D66"/>
<path d="M44.2756 62.3516C44.2756 62.3516 45.8461 89.2989 46.1367 101.509C46.4356 114.331 46.1914 134.352 43.8672 142.882C44.503 143.303 47.4503 143.303 48.9872 142.857C48.9872 142.857 58.5577 115.699 54.9535 102.078C62.2082 72.0737 57.9009 64.9874 56.6924 62.3642L44.2756 62.3516Z" fill="#58B368"/>
<path d="M44.2714 141.124C44.0772 141.701 43.8451 142.263 43.5767 142.809C43.5502 142.848 43.5336 142.893 43.5283 142.94C43.5229 142.987 43.5289 143.035 43.5459 143.079C43.5628 143.123 43.5901 143.162 43.6255 143.194C43.6609 143.225 43.7034 143.248 43.7493 143.259C45.3872 143.68 48.0061 143.524 48.844 143.457C48.9252 143.449 49.0029 143.421 49.07 143.374C49.137 143.328 49.1911 143.265 49.2272 143.192L49.9809 141.617C50.0084 141.574 50.024 141.524 50.026 141.473C50.0281 141.422 50.0166 141.371 49.9926 141.325C49.9687 141.28 49.9332 141.242 49.8897 141.215C49.8462 141.188 49.7963 141.172 49.7451 141.171L44.7346 140.809C44.6341 140.807 44.5356 140.836 44.4526 140.893C44.3696 140.949 44.3063 141.03 44.2714 141.124Z" fill="#58B368"/>
<path opacity="0.3" d="M44.2714 141.124C44.0772 141.701 43.8451 142.263 43.5767 142.809C43.5502 142.848 43.5336 142.893 43.5283 142.94C43.5229 142.987 43.5289 143.035 43.5459 143.079C43.5628 143.123 43.5901 143.162 43.6255 143.194C43.6609 143.225 43.7034 143.248 43.7493 143.259C45.3872 143.68 48.0061 143.524 48.844 143.457C48.9252 143.449 49.0029 143.421 49.07 143.374C49.137 143.328 49.1911 143.265 49.2272 143.192L49.9809 141.617C50.0084 141.574 50.024 141.524 50.026 141.473C50.0281 141.422 50.0166 141.371 49.9926 141.325C49.9687 141.28 49.9332 141.242 49.8897 141.215C49.8462 141.188 49.7963 141.172 49.7451 141.171L44.7346 140.809C44.6341 140.807 44.5356 140.836 44.4526 140.893C44.3696 140.949 44.3063 141.03 44.2714 141.124Z" fill="white"/>
<path d="M56.5742 38.5381C55.9047 38.4707 55.2016 38.4118 54.4689 38.3781C51.9276 38.1969 49.3766 38.1969 46.8353 38.3781C45.9931 38.4539 45.151 38.5592 44.3089 38.6728C42.8573 38.8845 41.5246 39.5949 40.5396 40.682C39.5546 41.7692 38.9788 43.1653 38.911 44.6307C38.8605 46.2855 39.2184 48.7823 39.5637 52.7192C40.0184 57.8518 38.7679 60.4623 39.8626 62.3528C42.0058 64.3907 51.8458 63.3718 56.6753 62.3528C58.1279 60.4834 55.2858 55.616 59.9089 43.6328C60.8521 41.2371 59.0668 38.7907 56.5742 38.5381Z" fill="#454D66"/>
<path d="M46.5847 42.4759C46.4963 42.7917 46.3152 43.0107 46.1636 42.9728C46.0121 42.9349 45.9826 42.6485 46.071 42.337C46.1594 42.0254 46.3447 41.8022 46.4921 41.8401C46.6394 41.878 46.6773 42.1643 46.5847 42.4759Z" fill="white"/>
<path d="M45.9706 45.0687C45.9285 45.3929 45.7812 45.6413 45.638 45.6203C45.4948 45.5992 45.4148 45.3297 45.4527 45.0055C45.4906 44.6813 45.6422 44.4371 45.7812 44.4539C45.9201 44.4708 46.0085 44.7445 45.9706 45.0687Z" fill="white"/>
<path d="M52.8625 30.043C52.7867 32.5693 52.4625 36.7377 54.0583 38.3756C54.0583 38.3756 51.7298 38.0261 46.7909 41.083C45.3593 39.0282 46.4204 38.3756 46.4204 38.3756C46.7994 38.3204 47.1602 38.1773 47.474 37.9577C47.7877 37.7381 48.0458 37.4481 48.2275 37.1109C48.4091 36.7738 48.5094 36.3988 48.5202 36.0159C48.5311 35.6331 48.4522 35.253 48.2898 34.9061L52.8625 30.043Z" fill="#B55B52"/>
<path d="M47.8467 40.4696C49.4762 40.7012 49.9856 43.1559 49.9856 43.1559C49.9856 43.1559 53.893 40.3938 55.1309 38.4443C54.6393 38.1682 54.1628 37.866 53.7035 37.5391C53.7035 37.5391 48.7772 39.5306 47.8467 40.4696Z" fill="white"/>
<path d="M46.2811 40.2023C46.2811 40.2023 44.9884 40.4844 44.34 42.2823C43.9695 38.6991 45.6663 38.3665 45.6663 38.3665C46.1155 38.1192 46.6395 38.0443 47.14 38.156C46.7809 38.3436 46.4985 38.6507 46.3417 39.0243C46.1849 39.3979 46.1634 39.8146 46.2811 40.2023V40.2023Z" fill="white"/>
<path opacity="0.2" d="M50.0027 33.3786L49.3585 33.7702L48.2891 34.907C48.5663 35.4855 48.6026 36.1503 48.3901 36.7555C49.6112 36.2839 50.8406 35.3281 51.1649 34.2965C51.2135 34.1433 51.2142 33.9788 51.1671 33.8251C51.12 33.6714 51.0271 33.5357 50.901 33.436C50.7748 33.3364 50.6213 33.2775 50.4608 33.2672C50.3003 33.257 50.1406 33.2958 50.0027 33.3786V33.3786Z" fill="black"/>
<path d="M52.0576 24.0859C53.2323 27.9469 53.8091 29.5596 52.6849 32.288C51.0007 36.4017 46.1418 37.2227 43.8723 33.8459C41.8344 30.8017 40.2554 25.0038 43.2744 21.9469C43.8996 21.2684 44.6951 20.7696 45.5782 20.5025C46.4613 20.2354 47.3999 20.2096 48.2963 20.428C49.1928 20.6463 50.0144 21.1007 50.6758 21.7439C51.3373 22.3872 51.8144 23.1959 52.0576 24.0859Z" fill="#B55B52"/>
<path opacity="0.4" d="M47.9531 21.8169C46.9636 24.4527 49.3088 27.7327 52.6646 27.4801C54.2267 24.4948 53.2794 22.2127 52.4457 21.2822C51.612 20.3517 49.0857 20.1917 47.9531 21.8169Z" fill="#454D66"/>
<path d="M52.4238 21.7928C51.9732 24.9886 41.5985 23.0096 41.0343 26.2138C41.009 22.0286 45.6869 16.437 52.4238 21.7928Z" fill="#454D66"/>
<path d="M46.9617 28.0245C47.0711 28.3445 47.0038 28.673 46.8059 28.7572C46.608 28.8414 46.3553 28.6519 46.2417 28.3361C46.128 28.0203 46.1996 27.6877 46.3974 27.5993C46.5953 27.5109 46.848 27.7087 46.9617 28.0245Z" fill="#454D66"/>
<path d="M43.0727 29.246C43.1864 29.566 43.119 29.8944 42.9211 29.9787C42.7232 30.0629 42.4706 29.8734 42.3569 29.5576C42.2432 29.2418 42.3148 28.9092 42.5127 28.825C42.7106 28.7408 42.9632 28.926 43.0727 29.246Z" fill="#454D66"/>
<path d="M42.6069 28.7969L41.8027 28.8895C41.8027 28.8895 42.3754 29.3274 42.6069 28.7969Z" fill="#454D66"/>
<path d="M44.1648 29.0625C44.1516 29.9096 44.0299 30.7516 43.8027 31.5678C44.0022 31.6164 44.2102 31.6189 44.4108 31.5751C44.6115 31.5314 44.7995 31.4424 44.9606 31.3151L44.1648 29.0625Z" fill="#A02724"/>
<path d="M45.9686 32.3667C45.7956 32.4384 45.6167 32.4948 45.4339 32.5351C45.4216 32.5382 45.4089 32.5386 45.3965 32.5364C45.3841 32.5341 45.3723 32.5292 45.3619 32.5221C45.3515 32.5149 45.3428 32.5056 45.3364 32.4948C45.3299 32.4839 45.3258 32.4718 45.3244 32.4593C45.3205 32.4332 45.3266 32.4066 45.3414 32.3848C45.3562 32.3629 45.3787 32.3475 45.4044 32.3414C45.8166 32.2507 46.2031 32.0685 46.5355 31.8084C46.8678 31.5482 47.1374 31.2166 47.3244 30.8383C47.3273 30.8244 47.3333 30.8114 47.3418 30.8002C47.3503 30.7889 47.3612 30.7796 47.3737 30.773C47.3862 30.7664 47.4 30.7626 47.4141 30.7618C47.4282 30.7611 47.4423 30.7635 47.4554 30.7688C47.4685 30.7741 47.4803 30.7822 47.4899 30.7925C47.4996 30.8029 47.5068 30.8152 47.5112 30.8286C47.5155 30.8421 47.5169 30.8563 47.5152 30.8703C47.5135 30.8844 47.5087 30.8979 47.5012 30.9098C47.1881 31.5683 46.6421 32.0874 45.9686 32.3667V32.3667Z" fill="#454D66"/>
<path d="M54.512 27.4055C54.5348 27.7923 54.4762 28.1795 54.3398 28.5422C54.2034 28.9049 53.9924 29.2348 53.7204 29.5107C53.0214 30.1592 52.1709 29.4139 51.9435 28.336C51.7414 27.3676 51.8593 25.8602 52.7857 25.6413C53.712 25.4223 54.4867 26.3655 54.512 27.4055Z" fill="#B55B52"/>
<path d="M46.8842 26.1884C46.8593 26.1934 46.8336 26.193 46.8089 26.1871C46.7842 26.1813 46.7611 26.1703 46.741 26.1547C46.5531 26.0046 46.3307 25.9037 46.094 25.8611C45.8573 25.8185 45.6137 25.8354 45.3852 25.9105C45.3621 25.9204 45.3372 25.9254 45.3121 25.9249C45.287 25.9245 45.2622 25.9187 45.2395 25.9079C45.2168 25.8972 45.1966 25.8817 45.1804 25.8625C45.1641 25.8434 45.1521 25.821 45.1452 25.7968C45.1296 25.7459 45.1334 25.691 45.156 25.6428C45.1785 25.5945 45.2182 25.5564 45.2673 25.5358C45.5545 25.4373 45.8618 25.4123 46.1611 25.4631C46.4604 25.5138 46.7423 25.6387 46.981 25.8263C47.022 25.86 47.048 25.9085 47.0535 25.9613C47.0591 26.0141 47.0436 26.0669 47.0105 26.1084C46.9786 26.1485 46.9341 26.1767 46.8842 26.1884V26.1884Z" fill="#454D66"/>
<path d="M41.2978 28.1734C41.2519 28.1921 41.2005 28.1921 41.1547 28.1734C41.1308 28.1641 41.109 28.1502 41.0906 28.1324C41.0721 28.1147 41.0574 28.0934 41.0472 28.0699C41.037 28.0464 41.0316 28.0212 41.0313 27.9956C41.0309 27.97 41.0356 27.9445 41.0452 27.9208C41.1465 27.6186 41.3151 27.3433 41.5383 27.1157C41.7615 26.8882 42.0334 26.7142 42.3336 26.6071C42.3583 26.6009 42.3839 26.5999 42.409 26.6041C42.4341 26.6083 42.458 26.6175 42.4793 26.6314C42.5007 26.6452 42.5189 26.6632 42.533 26.6844C42.547 26.7056 42.5565 26.7294 42.561 26.7545C42.5706 26.8062 42.5609 26.8596 42.5337 26.9046C42.5065 26.9496 42.4638 26.9831 42.4136 26.9987C42.1759 27.084 41.961 27.2229 41.7858 27.4048C41.6105 27.5866 41.4796 27.8064 41.4031 28.0471C41.3949 28.0741 41.3814 28.0993 41.3633 28.121C41.3452 28.1427 41.3229 28.1605 41.2978 28.1734V28.1734Z" fill="#454D66"/>
<path d="M46.4917 27.5859L45.6875 27.6744C45.6875 27.6744 46.2728 28.1333 46.4917 27.5859Z" fill="#454D66"/>
<path d="M59.1268 47.4282C59.1268 47.6514 59.1268 47.7566 59.1268 47.9082V48.3293C59.1268 48.5987 59.0889 48.864 59.0594 49.1293C59.0026 49.6554 58.9183 50.1782 58.8068 50.6956C58.5872 51.7507 58.2526 52.7786 57.8089 53.7608C57.3525 54.7892 56.7544 55.7487 56.032 56.6114C55.2914 57.5028 54.4095 58.2666 53.4215 58.8724L53.2699 58.965C53.1383 59.0428 52.9966 59.1023 52.8489 59.1419C52.1336 59.3482 51.3746 59.3482 50.6594 59.1419C50.1854 59.0081 49.7278 58.8217 49.2952 58.5861C48.5966 58.1941 47.9393 57.7328 47.3331 57.2093C46.7749 56.7293 46.2462 56.2161 45.7499 55.6724C45.2589 55.138 44.7992 54.5757 44.3731 53.9882C44.1865 53.7529 44.0898 53.4588 44.1004 53.1586C44.111 52.8585 44.2282 52.572 44.431 52.3504C44.6338 52.1289 44.9089 51.9868 45.2069 51.9498C45.5049 51.9127 45.8064 51.9831 46.0573 52.1482L46.1036 52.1777L47.7878 53.1671C48.3478 53.4871 48.9078 53.8029 49.472 54.0766C49.9742 54.3372 50.4966 54.5569 51.0341 54.7335C51.2141 54.7978 51.4031 54.8333 51.5941 54.8387C51.7162 54.8387 51.7078 54.7629 51.4173 54.8387L50.8657 55.1082C51.3844 54.6954 51.8398 54.2089 52.2173 53.664C52.4148 53.3859 52.5907 53.0931 52.7436 52.7882C52.9121 52.4769 53.0597 52.1548 53.1857 51.824C53.4508 51.1329 53.6551 50.4201 53.7962 49.6935C53.872 49.3229 53.9268 48.9482 53.9773 48.5735C53.9983 48.384 54.0194 48.1987 54.0362 48.0135L54.0699 47.5461V47.3229C54.0889 46.6529 54.3733 46.0179 54.8605 45.5575C55.3477 45.0972 55.9978 44.8492 56.6678 44.8682C57.3378 44.8872 57.9729 45.1716 58.4332 45.6588C58.8936 46.146 59.1415 46.7961 59.1226 47.4661L59.1268 47.4282Z" fill="#B55B52"/>
<path d="M43.355 55.9978H34.235C33.8291 56.004 33.4325 55.8762 33.1067 55.6341C32.7809 55.3921 32.544 55.0492 32.4329 54.6589L31.3171 48.8736C31.1739 48.141 31.7381 47.5473 32.6055 47.5473H41.7213C42.1259 47.5388 42.5219 47.6643 42.8478 47.9041C43.1737 48.144 43.4112 48.4848 43.5234 48.8736L44.6434 54.6589C44.7824 55.4041 44.2055 55.9978 43.355 55.9978Z" fill="#58B368"/>
<path d="M43.0734 55.6211H34.2313C33.9206 55.6283 33.616 55.5345 33.3632 55.3538C33.1104 55.1731 32.923 54.9153 32.8292 54.619L31.7387 48.9895C31.7184 48.8934 31.7201 48.7939 31.7434 48.6984C31.7667 48.603 31.8111 48.514 31.8734 48.438C31.9712 48.3328 32.0909 48.2504 32.2241 48.1965C32.3572 48.1427 32.5005 48.1188 32.6439 48.1264H41.4861C41.7959 48.1203 42.0995 48.214 42.352 48.3937C42.6045 48.5734 42.7924 48.8295 42.8882 49.1243L43.9745 54.7537C43.9965 54.8495 43.9962 54.9491 43.9736 55.0448C43.951 55.1404 43.9066 55.2296 43.8439 55.3053C43.7462 55.4108 43.6266 55.4937 43.4935 55.5482C43.3604 55.6028 43.2171 55.6276 43.0734 55.6211V55.6211ZM32.6229 48.2316C32.4948 48.2245 32.3667 48.2452 32.2475 48.2925C32.1283 48.3397 32.0207 48.4124 31.9324 48.5053C31.8804 48.5701 31.8435 48.6457 31.8246 48.7266C31.8056 48.8075 31.8051 48.8916 31.8229 48.9727L32.9092 54.598C33.001 54.8677 33.177 55.1008 33.4112 55.263C33.6454 55.4252 33.9255 55.5079 34.2103 55.499H43.0524C43.1802 55.5065 43.3081 55.4855 43.4268 55.4374C43.5455 55.3893 43.6521 55.3155 43.7387 55.2211C43.7922 55.158 43.8303 55.0833 43.85 55.0029C43.8697 54.9225 43.8705 54.8387 43.8524 54.758L42.7955 49.1453C42.7067 48.8736 42.5325 48.6379 42.2988 48.4732C42.0651 48.3086 41.7844 48.2238 41.4987 48.2316H32.6229Z" fill="white"/>
<path d="M43.5498 50.483L42.4804 50.2135C42.3495 50.181 42.2136 50.1749 42.0804 50.1956C41.9472 50.2162 41.8194 50.2632 41.7046 50.3337C41.5897 50.4043 41.4901 50.497 41.4115 50.6065C41.3328 50.716 41.2768 50.84 41.2467 50.9714L40.9688 52.1883C40.9152 52.4224 40.9469 52.668 41.058 52.881C41.1691 53.0939 41.3524 53.2603 41.5751 53.3504L42.9309 53.9062C42.9309 53.9062 45.2004 55.3083 46.1435 54.2262L46.5646 52.4914L44.8804 51.1272C44.49 50.8166 44.0356 50.5966 43.5498 50.483Z" fill="#B55B52"/>
<path d="M56.7318 38.5586C60.4244 38.7775 61.5613 42.6302 60.3318 49.6365C59.7339 52.2681 52.3571 48.6723 52.3571 48.6723C52.3571 48.6723 52.1002 41.186 56.7318 38.5586Z" fill="#454D66"/>
<path d="M161.061 113.379C159.718 104.958 163.398 93.9133 168.063 94.726C171.929 95.3997 161.861 110.806 161.061 113.379Z" fill="#58B368"/>
<path d="M159.592 117.671C163.98 111.435 161.276 98.6185 156.645 98.328C152.013 98.0375 159.213 114.534 159.592 117.671Z" fill="#454D66"/>
<path d="M159.811 121.322C159.31 107.848 167.516 101.074 171.179 102.682C174.948 104.341 162.678 113.865 159.811 121.322Z" fill="#58B368"/>
<path d="M158.709 129.714C163.097 120.228 159.336 105.403 152.36 107.007C146.574 108.337 157.673 125.723 158.709 129.714Z" fill="#58B368"/>
<path d="M159.007 132.553C158.522 123.459 155.765 111.863 150.097 112.937C144.691 113.947 157.322 124.6 159.007 132.553Z" fill="#454D66"/>
<path d="M157.617 137.002C159.007 123.583 170.493 116.092 170.375 121.183C170.253 126.619 161.478 130.16 157.617 137.002Z" fill="#58B368"/>
<path d="M158.732 134.162C160.345 129.362 156.556 122.844 152.577 124.238C149.28 125.396 157.697 132.411 158.732 134.162Z" fill="#58B368"/>
<path d="M158.837 132.369C157.102 122.079 165.969 104.369 173.969 108.176C181.742 111.877 162.626 120.546 158.837 132.369Z" fill="#454D66"/>
<path d="M162.795 147.899H155.131C154.462 147.901 153.811 147.687 153.272 147.29C152.734 146.893 152.338 146.333 152.142 145.693C151.14 142.631 150.681 139.418 150.786 136.198C150.84 135.183 150.981 134.175 151.207 133.184C151.251 132.986 151.361 132.808 151.518 132.681C151.676 132.553 151.872 132.482 152.075 132.48H165.872C166.075 132.482 166.271 132.552 166.428 132.68C166.585 132.808 166.693 132.986 166.736 133.184C166.962 134.175 167.103 135.183 167.157 136.198C167.261 139.418 166.803 142.631 165.805 145.693C165.607 146.336 165.207 146.897 164.665 147.294C164.123 147.692 163.467 147.904 162.795 147.899Z" fill="#58B368"/>
<path opacity="0.5" d="M167.132 136.198H150.787C150.841 135.183 150.982 134.175 151.208 133.184C151.252 132.986 151.362 132.808 151.519 132.681C151.677 132.553 151.873 132.482 152.076 132.48H165.873C166.076 132.482 166.272 132.552 166.429 132.68C166.586 132.808 166.694 132.986 166.737 133.184C166.955 134.175 167.087 135.184 167.132 136.198V136.198Z" fill="white"/>
</svg>
