<svg width="200" height="160" viewBox="0 0 200 160" fill="none" xmlns="http://www.w3.org/2000/svg">
<path d="M99.8443 156.114C146.15 156.114 183.689 153.923 183.689 151.219C183.689 148.516 146.15 146.324 99.8443 146.324C53.5384 146.324 16 148.516 16 151.219C16 153.923 53.5384 156.114 99.8443 156.114Z" fill="#F5F5F5"/>
<path d="M92.2795 27.1488H40.6947C39.8779 27.1403 39.0682 27.3019 38.3172 27.6232C37.5662 27.9445 36.8902 28.4185 36.3323 29.0151C35.7743 29.6117 35.3465 30.3179 35.0761 31.0887C34.8058 31.8595 34.6987 32.6781 34.7617 33.4925L42.1563 143.503C42.2958 145.217 43.0684 146.817 44.3235 147.993C45.5786 149.168 47.2263 149.834 48.9455 149.86H100.53C101.348 149.869 102.159 149.708 102.911 149.386C103.663 149.064 104.34 148.589 104.898 147.991C105.456 147.392 105.883 146.684 106.152 145.912C106.421 145.139 106.525 144.319 106.459 143.503L99.0644 33.4925C98.9219 31.7819 98.1486 30.1852 96.8947 29.0129C95.6408 27.8405 93.9959 27.1761 92.2795 27.1488V27.1488Z" fill="#58B368"/>
<path opacity="0.3" d="M92.2795 27.1488H40.6947C39.8779 27.1403 39.0682 27.3019 38.3172 27.6232C37.5662 27.9445 36.8902 28.4185 36.3323 29.0151C35.7743 29.6117 35.3465 30.3179 35.0761 31.0887C34.8058 31.8595 34.6987 32.6781 34.7617 33.4925L42.1563 143.503C42.2958 145.217 43.0684 146.817 44.3235 147.993C45.5786 149.168 47.2263 149.834 48.9455 149.86H100.53C101.348 149.869 102.159 149.708 102.911 149.386C103.663 149.064 104.34 148.589 104.898 147.991C105.456 147.392 105.883 146.684 106.152 145.912C106.421 145.139 106.525 144.319 106.459 143.503L99.0644 33.4925C98.9219 31.7819 98.1486 30.1852 96.8947 29.0129C95.6408 27.8405 93.9959 27.1761 92.2795 27.1488V27.1488Z" fill="white"/>
<path d="M34.827 50.7171L34.3955 50.7461L35.092 61.1227L35.5235 61.0938L34.827 50.7171Z" fill="#58B368"/>
<path d="M35.9051 66.553L35.4736 66.582L35.7866 71.2331L36.2181 71.2041L35.9051 66.553Z" fill="#58B368"/>
<path d="M45.902 144.628C45.9371 145.047 45.8183 145.465 45.5676 145.803C45.3169 146.141 44.9516 146.376 44.5401 146.464C44.1286 146.552 43.6991 146.487 43.3321 146.281C42.9651 146.075 42.6857 145.743 42.5463 145.346C42.3312 144.76 42.2002 144.147 42.1571 143.525L34.7625 33.4926C34.7187 32.8732 34.7683 32.2508 34.9095 31.6461C34.9964 31.2341 35.2307 30.8679 35.5684 30.6162C35.9061 30.3646 36.3239 30.2448 36.7437 30.2793C37.1634 30.3137 37.5561 30.5002 37.8482 30.8036C38.1402 31.107 38.3116 31.5065 38.3301 31.9272L45.902 144.628Z" fill="#58B368"/>
<path d="M100.532 147.795H52.6052C51.4152 147.763 50.2785 147.295 49.4105 146.481C48.5424 145.666 48.0036 144.561 47.896 143.376L40.5014 33.3694C40.454 32.8383 40.5189 32.3031 40.6919 31.7986C40.8648 31.2941 41.142 30.8317 41.5054 30.4414C41.8688 30.0511 42.3103 29.7416 42.8011 29.5331C43.2919 29.3246 43.8211 29.2217 44.3544 29.2311H92.2808C93.4701 29.2631 94.6063 29.7303 95.4742 30.544C96.3421 31.3577 96.8814 32.4615 96.99 33.6462L104.385 143.657C104.431 144.188 104.365 144.723 104.191 145.226C104.018 145.73 103.741 146.192 103.377 146.582C103.014 146.972 102.573 147.282 102.083 147.491C101.593 147.7 101.064 147.803 100.532 147.795V147.795ZM44.3544 29.6938C43.8847 29.6851 43.4186 29.7756 42.9862 29.9592C42.5539 30.1428 42.1651 30.4155 41.8452 30.7595C41.5254 31.1034 41.2816 31.5109 41.1297 31.9554C40.9779 32.3999 40.9215 32.8714 40.9641 33.3392L48.3587 143.328C48.4548 144.398 48.9404 145.395 49.7232 146.13C50.5061 146.865 51.5317 147.287 52.6052 147.315H100.532C101.001 147.324 101.467 147.234 101.9 147.05C102.332 146.866 102.721 146.594 103.041 146.25C103.361 145.906 103.604 145.498 103.756 145.054C103.908 144.609 103.965 144.138 103.922 143.67L96.5273 33.6635C96.4312 32.5939 95.9456 31.597 95.1628 30.8619C94.3799 30.1269 93.3543 29.705 92.2808 29.6765L44.3544 29.6938Z" fill="white"/>
<g opacity="0.5">
<path d="M88.5963 79.1595C95.9051 71.4307 94.8261 58.542 86.1863 50.3718C77.5465 42.2015 64.6176 41.8436 57.3089 49.5724C50.0001 57.3012 51.0791 70.1899 59.7189 78.3602C68.3587 86.5305 81.2876 86.8883 88.5963 79.1595Z" fill="#58B368"/>
<path d="M85.4676 76.2003C91.3143 70.0176 90.4511 59.7072 83.5396 53.1713C76.6281 46.6354 66.2856 46.3491 60.4389 52.5318C54.5922 58.7145 55.4554 69.0249 62.3669 75.5608C69.2784 82.0967 79.6209 82.383 85.4676 76.2003Z" fill="white"/>
<path d="M82.3343 73.2655C86.7197 68.6297 86.0737 60.8974 80.8914 55.995C75.709 51.0926 67.9528 50.8765 63.5674 55.5124C59.182 60.1482 59.8281 67.8804 65.0104 72.7828C70.1927 77.6852 77.9489 77.9013 82.3343 73.2655Z" fill="#58B368"/>
<path d="M79.2116 70.2893C82.1357 67.1971 81.7041 62.0405 78.2475 58.7717C74.7909 55.503 69.6182 55.3599 66.6941 58.4521C63.7699 61.5443 64.2016 66.7009 67.6582 69.9696C71.1148 73.2384 76.2874 73.3815 79.2116 70.2893Z" fill="white"/>
<path d="M76.0813 67.3433C77.5437 65.7975 77.3283 63.2192 75.6003 61.5845C73.8723 59.9498 71.286 59.8778 69.8236 61.4236C68.3613 62.9695 68.5766 65.5478 70.3046 67.1825C72.0327 68.8172 74.619 68.8892 76.0813 67.3433Z" fill="#58B368"/>
</g>
<path d="M76.878 92.0946C76.8002 92.0946 76.7267 92.0946 76.6488 92.0946C76.0554 90.9486 75.1618 89.9853 74.0636 89.3074C72.9653 88.6296 71.7036 88.2627 70.4132 88.246C69.7513 88.2454 69.0934 88.3475 68.4629 88.5487C67.841 87.4087 66.9267 86.455 65.8141 85.7854C64.7014 85.1158 63.4306 84.7547 62.1321 84.739C61.3159 84.7269 60.5054 84.8762 59.7471 85.1781C58.9887 85.4801 58.2975 85.9287 57.7129 86.4984C57.1283 87.0681 56.662 87.7476 56.3407 88.4979C56.0193 89.2483 55.8492 90.0546 55.8402 90.8708C55.1947 90.9089 54.5634 91.0759 53.9835 91.3618C53.4036 91.6478 52.8868 92.047 52.4636 92.5359C52.0404 93.0248 51.7194 93.5934 51.5195 94.2083C51.3196 94.8233 51.2448 95.472 51.2997 96.1162C51.4117 97.5365 52.0504 98.8636 53.0904 99.8372C54.1304 100.811 55.4968 101.361 56.9213 101.379H77.5137C78.1115 101.386 78.7041 101.268 79.2535 101.032C79.803 100.797 80.2971 100.449 80.7043 100.011C81.1114 99.5736 81.4226 99.0556 81.6179 98.4906C81.8131 97.9256 81.8881 97.326 81.838 96.7303C81.736 95.4791 81.1712 94.3109 80.2541 93.4537C79.3369 92.5966 78.1333 92.112 76.878 92.0946V92.0946Z" fill="white"/>
<path d="M89.9939 41.781H89.8166C89.3538 40.8881 88.6571 40.1377 87.8011 39.6099C86.945 39.0821 85.9617 38.7968 84.956 38.7843C84.4397 38.7831 83.9262 38.8619 83.4339 39.0178C82.9484 38.1302 82.2356 37.3876 81.3686 36.8663C80.5015 36.345 79.5114 36.0637 78.4998 36.0513C77.219 36.0328 75.9833 36.5233 75.0639 37.4152C74.1444 38.307 73.6165 39.5273 73.596 40.808C73.0927 40.838 72.6005 40.9683 72.1483 41.1914C71.6961 41.4145 71.2931 41.7258 70.9631 42.107C70.6331 42.4883 70.3826 42.9316 70.2266 43.4111C70.0705 43.8906 70.012 44.3964 70.0544 44.8989C70.1427 46.0051 70.6407 47.0385 71.4509 47.7968C72.2612 48.555 73.3253 48.9835 74.435 48.9983H90.4869C90.9534 49.0048 91.4162 48.9135 91.8453 48.7304C92.2745 48.5473 92.6605 48.2763 92.9787 47.935C93.2968 47.5936 93.5399 47.1894 93.6924 46.7485C93.8449 46.3075 93.9034 45.8395 93.8641 45.3745C93.7786 44.4026 93.3354 43.497 92.6204 42.8332C91.9054 42.1693 90.9695 41.7944 89.9939 41.781V41.781Z" fill="white"/>
<path opacity="0.3" d="M96.3858 109.106H66.7382C66.524 109.103 66.3115 109.145 66.1146 109.23C65.9176 109.314 65.7403 109.438 65.5942 109.595C65.4481 109.752 65.3363 109.937 65.2659 110.14C65.1956 110.342 65.1683 110.557 65.1858 110.77L66.388 128.453C66.4225 128.902 66.6241 129.322 66.9531 129.63C67.2821 129.939 67.7145 130.112 68.1652 130.117H72.1436L72.4766 135.008L77.0301 130.117H97.7869C98.0013 130.121 98.214 130.079 98.4114 129.995C98.6087 129.911 98.7862 129.786 98.9324 129.629C99.0787 129.473 99.1905 129.287 99.2605 129.084C99.3306 128.881 99.3575 128.666 99.3393 128.453L98.1415 110.77C98.1054 110.325 97.9063 109.909 97.5822 109.602C97.2582 109.295 96.8322 109.118 96.3858 109.106V109.106Z" fill="white"/>
<path d="M96.1571 120.732H68.542L68.3906 118.496H96.0101L96.1571 120.732Z" fill="white"/>
<path d="M87.7364 125.372H68.8564L68.7051 123.137H87.5851L87.7364 125.372Z" fill="white"/>
<path d="M95.845 116.087H68.2256L68.0742 113.852H95.6937L95.845 116.087Z" fill="white"/>
<path d="M119.582 34.3553L120.719 35.1726C121.114 35.4609 121.512 35.7333 121.913 35.9899C122.713 36.5218 123.517 37.0537 124.33 37.538C125.143 38.0224 125.965 38.4807 126.777 38.8872C127.54 39.2714 128.329 39.5995 129.139 39.8688C128.959 39.8243 128.772 39.8155 128.589 39.8429C128.48 39.8563 128.373 39.8869 128.274 39.9337C128.148 39.9986 128.187 40.0029 128.252 39.964C128.502 39.7906 128.728 39.584 128.922 39.3499C129.491 38.6707 130.006 37.9478 130.462 37.1878C130.968 36.3921 131.452 35.5488 131.915 34.684C132.377 33.8191 132.84 32.9326 133.268 32.0894L133.299 32.0332C133.518 31.602 133.889 31.2679 134.342 31.0959C134.794 30.9239 135.293 30.9265 135.744 31.103C136.194 31.2796 136.562 31.6175 136.777 32.0509C136.992 32.4842 137.037 32.982 136.905 33.4472C136.317 35.5075 135.573 37.5199 134.678 39.4667C134.193 40.5142 133.622 41.5195 132.97 42.4721C132.562 43.0624 132.085 43.6011 131.547 44.0764C131.154 44.4188 130.709 44.6961 130.228 44.898C129.89 45.0367 129.536 45.1312 129.173 45.1791C128.74 45.2284 128.301 45.2035 127.876 45.1056C126.721 44.8375 125.59 44.4745 124.494 44.0202C123.469 43.603 122.467 43.131 121.493 42.6061C120.533 42.0959 119.598 41.5582 118.687 40.9932C118.233 40.7078 117.783 40.418 117.337 40.1283C116.892 39.8386 116.473 39.5359 115.984 39.1813C115.438 38.6779 115.096 37.9914 115.023 37.2524C114.951 36.5133 115.152 35.7733 115.589 35.1732C116.027 34.573 116.669 34.1545 117.395 33.9973C118.121 33.8402 118.879 33.9553 119.526 34.3207L119.582 34.3553Z" fill="#58B368"/>
<path opacity="0.2" d="M119.582 34.3553L120.719 35.1726C121.114 35.4609 121.512 35.7333 121.913 35.9899C122.713 36.5218 123.517 37.0537 124.33 37.538C125.143 38.0224 125.965 38.4807 126.777 38.8872C127.54 39.2714 128.329 39.5995 129.139 39.8688C128.959 39.8243 128.772 39.8155 128.589 39.8429C128.48 39.8563 128.373 39.8869 128.274 39.9337C128.148 39.9986 128.187 40.0029 128.252 39.964C128.502 39.7906 128.728 39.584 128.922 39.3499C129.491 38.6707 130.006 37.9478 130.462 37.1878C130.968 36.3921 131.452 35.5488 131.915 34.684C132.377 33.8191 132.84 32.9326 133.268 32.0894L133.299 32.0332C133.518 31.602 133.889 31.2679 134.342 31.0959C134.794 30.9239 135.293 30.9265 135.744 31.103C136.194 31.2796 136.562 31.6175 136.777 32.0509C136.992 32.4842 137.037 32.982 136.905 33.4472C136.317 35.5075 135.573 37.5199 134.678 39.4667C134.193 40.5142 133.622 41.5195 132.97 42.4721C132.562 43.0624 132.085 43.6011 131.547 44.0764C131.154 44.4188 130.709 44.6961 130.228 44.898C129.89 45.0367 129.536 45.1312 129.173 45.1791C128.74 45.2284 128.301 45.2035 127.876 45.1056C126.721 44.8375 125.59 44.4745 124.494 44.0202C123.469 43.603 122.467 43.131 121.493 42.6061C120.533 42.0959 119.598 41.5582 118.687 40.9932C118.233 40.7078 117.783 40.418 117.337 40.1283C116.892 39.8386 116.473 39.5359 115.984 39.1813C115.438 38.6779 115.096 37.9914 115.023 37.2524C114.951 36.5133 115.152 35.7733 115.589 35.1732C116.027 34.573 116.669 34.1545 117.395 33.9973C118.121 33.8402 118.879 33.9553 119.526 34.3207L119.582 34.3553Z" fill="black"/>
<path d="M134.358 31.2813L135.53 29.3008L137.778 31.7267C137.453 32.4312 136.867 32.9818 136.144 33.2619C135.981 33.3173 135.808 33.3344 135.638 33.3119C135.467 33.2894 135.305 33.2279 135.162 33.1321L134.73 32.8554C134.477 32.691 134.298 32.4359 134.229 32.1428C134.159 31.8497 134.206 31.5412 134.358 31.2813V31.2813Z" fill="#7F3E3B"/>
<path d="M138.716 28.1173L139.214 28.4244C139.37 28.5209 139.501 28.6527 139.597 28.809C139.693 28.9653 139.751 29.1419 139.766 29.3247C139.782 29.5075 139.755 29.6914 139.686 29.8616C139.618 30.0319 139.511 30.1839 139.374 30.3054L137.778 31.7238L135.529 29.2979L137.488 28.113C137.673 28.0001 137.886 27.9407 138.103 27.9414C138.32 27.9422 138.532 28.0031 138.716 28.1173V28.1173Z" fill="#7F3E3B"/>
<path d="M92.0693 147.708L95.4942 147.808L96.7828 139.877L93.3623 139.777L92.0693 147.708Z" fill="#7F3E3B"/>
<path d="M96.0343 146.843L92.2072 146.358C92.1431 146.348 92.0775 146.364 92.0249 146.402C91.9723 146.44 91.9368 146.498 91.9262 146.562L91.3597 149.563C91.3388 149.722 91.3816 149.882 91.4789 150.009C91.5762 150.137 91.7199 150.22 91.8786 150.242C93.2148 150.389 93.8591 150.389 95.5413 150.601C96.5748 150.735 99.2689 151.383 100.7 151.206C102.132 151.029 101.915 149.623 101.293 149.571C98.5035 149.329 97.457 148.002 96.5921 147.124C96.4421 146.971 96.246 146.873 96.0343 146.843V146.843Z" fill="#454D66"/>
<path opacity="0.2" d="M93.3583 139.781L96.7832 139.881L96.1172 143.967L92.6924 143.868L93.3583 139.781Z" fill="black"/>
<path d="M112.079 63.7621C112.079 63.7621 109.09 92.1254 107.101 101.76C104.939 112.311 97.9466 143.178 97.9466 143.178L91.6807 142.716C91.6807 142.716 95.1142 110.785 97.925 100.45C97.925 89.7167 100.52 59.6367 100.52 59.6367L112.079 63.7621Z" fill="#454D66"/>
<path opacity="0.3" d="M102.093 73.348C102.037 71.1297 100.835 70.4161 99.6497 70.4421C99.2173 75.7783 98.7546 82.321 98.4043 88.2237C100.506 84.8161 102.249 79.5102 102.093 73.348Z" fill="black"/>
<path d="M91.4945 142.755L98.2059 143.252L98.9756 140.722L91.248 140.645L91.4945 142.755Z" fill="white"/>
<path d="M57.3408 121.122L59.4987 123.79L65.9549 119.133L63.7927 116.469L57.3408 121.122Z" fill="#7F3E3B"/>
<path d="M59.9659 123.797L58.0459 120.455C58.0155 120.398 57.9642 120.355 57.9027 120.336C57.8413 120.316 57.7747 120.322 57.7173 120.351L54.98 121.709C54.8411 121.788 54.739 121.918 54.6961 122.072C54.6532 122.226 54.6728 122.391 54.7508 122.53C55.4383 123.685 55.8275 124.199 56.6708 125.67C57.1897 126.573 58.5562 129.172 59.2654 130.426C59.9746 131.68 61.1983 130.932 60.9951 130.34C60.1302 127.676 59.8837 125.639 60.061 124.424C60.1006 124.211 60.0671 123.99 59.9659 123.797V123.797Z" fill="#454D66"/>
<path opacity="0.2" d="M63.7926 116.469L65.9548 119.137L62.6251 121.533L60.4629 118.869L63.7926 116.469Z" fill="black"/>
<path d="M105.83 61.3225C105.83 61.3225 97.4021 85.4436 93.5707 94.5074C89.3805 104.432 64.321 122.058 64.321 122.058L60.3643 117.176C60.3643 117.176 77.3934 100.107 83.7156 92.0123C87.2183 80.9896 94.6951 57.3398 94.6951 57.3398L105.83 61.3225Z" fill="#454D66"/>
<path d="M60.2041 116.975L64.4809 122.251L66.5695 121.044L61.5619 115.457L60.2041 116.975Z" fill="white"/>
<path d="M112.044 63.9278L94.6777 57.3418C95.1102 55.7548 97.3804 51.0932 99.3999 44.6024C100.927 39.806 102.038 34.8869 102.721 29.8997C102.739 29.7543 102.786 29.6141 102.86 29.4875C102.933 29.361 103.032 29.2509 103.15 29.1639C103.268 29.0768 103.402 29.0147 103.545 28.9814C103.687 28.9481 103.835 28.9442 103.979 28.9699C104.304 29.0262 104.689 29.0997 105.112 29.1818C106.206 29.4024 107.573 29.7137 108.874 30.1116C111.373 30.844 113.827 31.7189 116.226 32.7321C117.029 33.0937 117.81 33.5023 118.565 33.9559C119.015 34.2117 119.431 34.521 119.806 34.877C119.942 34.9857 120.054 35.1206 120.137 35.2736C120.219 35.4267 120.27 35.5947 120.286 35.7678C120.286 38.2499 117.8 47.8672 112.044 63.9278Z" fill="#F0F0F0"/>
<path d="M115.879 32.5679C113.925 31.2966 114.02 29.8436 114.681 28.4425C114.847 28.0961 115.034 27.7596 115.239 27.435L113.358 24.2566L111.974 21.9258C111.672 24.4858 110.746 29.0177 108.584 30.0209C109.766 31.6894 111.453 32.9327 113.397 33.5669C116.588 34.5615 115.879 32.5679 115.879 32.5679Z" fill="#7F3E3B"/>
<path d="M113.276 33.5161L113.246 32.7031L111.084 33.1269L113.276 33.5161Z" fill="#E0E0E0"/>
<path d="M113.276 33.5171L113.679 32.8555L115.075 34.5549L113.276 33.5171Z" fill="#E0E0E0"/>
<path d="M108.879 29.6368C110.194 30.847 111.662 31.8792 113.246 32.7071C112.381 33.239 111.56 34.6401 111.248 35.799C110.548 35.3104 107.746 30.7006 107.356 29.4336L108.879 29.6368Z" fill="white"/>
<path d="M115.473 32.0781C114.961 32.5056 114.336 32.7759 113.674 32.8565C114.137 33.5354 114.539 35.2954 114.539 36.316C115.347 35.7884 116.597 33.9462 116.796 33.1116L115.473 32.0781Z" fill="white"/>
<path opacity="0.3" d="M115.542 32.0156C115.542 32.0156 117.432 32.9237 119.101 33.9529C119.785 34.3745 120.313 35.0069 120.607 35.7549C120.9 36.5029 120.942 37.3259 120.727 38.1C118.664 45.3908 115.88 52.4697 114.725 56.4091C113.501 60.6081 111.797 65.8751 111.797 65.8751L108.853 66.5713C108.853 66.5713 116.234 38.3378 115.542 32.0156Z" fill="black"/>
<path opacity="0.3" d="M108.836 29.307C108.836 29.307 106.297 28.974 104.079 28.8745C103.301 28.8395 102.535 29.0737 101.909 29.5376C101.284 30.0016 100.837 30.6669 100.645 31.4215C99.5209 35.867 98.6907 44.3686 97.5534 47.6767C96.1393 51.8107 94.2236 59.8713 94.2236 59.8713L104.282 65.6832C104.282 65.6832 114.444 34.4659 108.836 29.307Z" fill="black"/>
<path d="M108.835 29.307C108.835 29.307 106.297 28.974 104.079 28.8745C103.301 28.8395 102.534 29.0737 101.909 29.5376C101.284 30.0016 100.837 30.6669 100.645 31.4215C99.5207 35.867 97.9899 44.1697 96.8483 47.4821C95.4256 51.6161 92.4072 58.6432 92.4072 58.6432L105.095 64.5934C105.095 64.5934 114.444 34.4659 108.835 29.307Z" fill="#58B368"/>
<path opacity="0.2" d="M108.835 29.307C108.835 29.307 106.297 28.974 104.079 28.8745C103.301 28.8395 102.534 29.0737 101.909 29.5376C101.284 30.0016 100.837 30.6669 100.645 31.4215C99.5207 35.867 97.9899 44.1697 96.8483 47.4821C95.4256 51.6161 92.4072 58.6432 92.4072 58.6432L105.095 64.5934C105.095 64.5934 114.444 34.4659 108.835 29.307Z" fill="black"/>
<path d="M115.542 32.0156C115.542 32.0156 117.431 32.9237 119.101 33.9529C119.784 34.3745 120.313 35.0069 120.606 35.7549C120.899 36.5029 120.942 37.3259 120.727 38.1C118.664 45.3908 117.034 53.0318 116.212 57.0535C115.347 61.3345 114.443 65.2308 114.443 65.2308L109.687 65.8751C109.687 65.8751 116.234 38.3378 115.542 32.0156Z" fill="#58B368"/>
<path opacity="0.2" d="M115.542 32.0156C115.542 32.0156 117.431 32.9237 119.101 33.9529C119.784 34.3745 120.313 35.0069 120.606 35.7549C120.899 36.5029 120.942 37.3259 120.727 38.1C118.664 45.3908 117.034 53.0318 116.212 57.0535C115.347 61.3345 114.443 65.2308 114.443 65.2308L109.687 65.8751C109.687 65.8751 116.234 38.3378 115.542 32.0156Z" fill="black"/>
<path opacity="0.2" d="M115.24 27.4401C115.034 27.769 114.848 28.1097 114.682 28.4606C113.757 27.9028 112.806 26.3633 113.03 25.2952C113.101 24.9395 113.211 24.5929 113.359 24.2617L115.24 27.4401Z" fill="black"/>
<path d="M117.907 14.3281C120.208 14.6265 121.051 17.7314 119.78 19.7811C117.696 16.7584 117.907 14.3281 117.907 14.3281Z" fill="#454D66"/>
<path d="M110.746 20.0483C111.524 23.3737 111.805 25.3543 113.799 26.8462C114.441 27.3387 115.206 27.646 116.011 27.735C116.815 27.8239 117.629 27.691 118.363 27.3507C119.098 27.0104 119.725 26.4757 120.178 25.8044C120.63 25.1331 120.89 24.3509 120.93 23.5424C121.146 20.4332 119.84 15.5164 116.316 14.6256C115.558 14.4118 114.756 14.4012 113.993 14.595C113.229 14.7887 112.53 15.18 111.966 15.7296C111.401 16.2791 110.992 16.9675 110.777 17.7255C110.563 18.4836 110.552 19.2847 110.746 20.0483Z" fill="#7F3E3B"/>
<path d="M111.771 23.0135C113.773 23.0697 113.462 19.753 112.589 18.4989C115.365 18.9313 119.966 16.4795 120.429 13.9108C121.099 10.1876 115.421 10.1876 113.583 11.3724C114.374 11.4286 114.777 12.0989 114.586 12.4449C114.586 12.4449 111.845 11.6146 110.072 12.5789C110.846 12.8643 111.667 13.98 108.723 14.3346C105.92 14.6719 106.768 17.4913 108.182 17.4395C107.43 18.594 106.526 21.2189 108.221 22.3346C109.916 23.4503 111.075 24.9032 110.707 25.5C111.3 25.4784 112.558 24.7649 111.771 23.0135Z" fill="#454D66"/>
<path d="M108.585 17.1836C107.244 17.3133 106.475 18.3598 106.423 19.7782C106.997 18.8011 107.727 17.9246 108.585 17.1836V17.1836Z" fill="#454D66"/>
<path d="M109.947 23.0565C110.288 23.739 110.875 24.2672 111.59 24.5354C112.528 24.877 113.021 24.0467 112.779 23.1213C112.558 22.2824 111.806 21.1019 110.855 21.1624C109.903 21.2229 109.531 22.2089 109.947 23.0565Z" fill="#7F3E3B"/>
<path d="M116.017 20.3077C116.061 20.5801 116.247 20.779 116.424 20.7401C116.601 20.7012 116.709 20.4763 116.666 20.2039C116.623 19.9314 116.437 19.7282 116.255 19.7714C116.074 19.8147 115.97 20.0352 116.017 20.3077Z" fill="#454D66"/>
<path d="M119.119 19.8892C119.162 20.1617 119.344 20.3606 119.525 20.3217C119.707 20.2828 119.811 20.0579 119.768 19.7811C119.724 19.5044 119.538 19.3098 119.357 19.3487C119.175 19.3876 119.071 19.6125 119.119 19.8892Z" fill="#454D66"/>
<path d="M118.154 20.1602C118.625 20.9527 119.197 21.6797 119.858 22.3223C119.452 22.8369 118.591 22.7548 118.591 22.7548L118.154 20.1602Z" fill="#630F0F"/>
<path d="M117.597 23.6212C117.277 23.6298 116.959 23.5733 116.661 23.4551C116.364 23.3369 116.094 23.1595 115.867 22.9337C115.853 22.9184 115.845 22.8983 115.845 22.8774C115.845 22.8566 115.853 22.8365 115.867 22.8212C115.875 22.8135 115.884 22.8074 115.894 22.8032C115.904 22.799 115.914 22.7969 115.925 22.7969C115.936 22.7969 115.947 22.799 115.957 22.8032C115.967 22.8074 115.976 22.8135 115.984 22.8212C116.234 23.064 116.538 23.2453 116.87 23.3511C117.202 23.4569 117.555 23.4842 117.899 23.431C117.911 23.4271 117.923 23.4259 117.935 23.4273C117.947 23.4287 117.959 23.4328 117.969 23.4392C117.979 23.4456 117.988 23.4542 117.994 23.4643C118.001 23.4745 118.005 23.4859 118.007 23.4979C118.008 23.5099 118.007 23.5221 118.004 23.5336C118 23.5451 117.994 23.5557 117.986 23.5646C117.978 23.5735 117.968 23.5804 117.956 23.585C117.945 23.5896 117.933 23.5916 117.921 23.591C117.814 23.6095 117.705 23.6196 117.597 23.6212V23.6212Z" fill="#454D66"/>
<path d="M116.731 24.5242C116.472 24.3336 116.255 24.0922 116.093 23.8149C115.931 23.5375 115.827 23.23 115.788 22.9112C115.787 22.8901 115.794 22.8693 115.808 22.8532C115.821 22.8371 115.841 22.8269 115.862 22.8247C115.872 22.8235 115.883 22.8245 115.893 22.8276C115.903 22.8307 115.913 22.8359 115.921 22.8427C115.929 22.8496 115.936 22.8581 115.94 22.8677C115.945 22.8772 115.948 22.8876 115.948 22.8982C115.999 23.2434 116.127 23.5726 116.323 23.8609C116.52 24.1493 116.779 24.3894 117.081 24.5631C117.09 24.568 117.099 24.5748 117.105 24.583C117.112 24.5912 117.117 24.6006 117.119 24.6107C117.122 24.6208 117.123 24.6314 117.122 24.6418C117.12 24.6521 117.117 24.6622 117.111 24.6712C117.106 24.6806 117.099 24.6888 117.09 24.6954C117.082 24.702 117.072 24.7069 117.062 24.7097C117.051 24.7125 117.04 24.7132 117.029 24.7118C117.019 24.7104 117.008 24.7069 116.999 24.7015C116.907 24.6469 116.817 24.5877 116.731 24.5242Z" fill="#454D66"/>
<path d="M114.889 19.4336C114.863 19.44 114.836 19.44 114.811 19.4336C114.791 19.424 114.774 19.4106 114.76 19.3942C114.746 19.3778 114.735 19.3587 114.729 19.3381C114.723 19.3175 114.72 19.2958 114.722 19.2743C114.725 19.2528 114.731 19.232 114.742 19.2131C114.856 18.9813 115.025 18.7812 115.235 18.6304C115.444 18.4796 115.688 18.3827 115.944 18.3482C115.965 18.3464 115.987 18.349 116.007 18.3557C116.027 18.3624 116.046 18.3731 116.062 18.3872C116.078 18.4014 116.091 18.4186 116.101 18.4379C116.11 18.4572 116.116 18.4781 116.117 18.4996C116.118 18.5209 116.116 18.5424 116.109 18.5628C116.102 18.5831 116.092 18.602 116.078 18.6181C116.063 18.6342 116.046 18.6474 116.027 18.6567C116.008 18.6661 115.987 18.6714 115.965 18.6725C115.767 18.701 115.578 18.7768 115.414 18.8934C115.251 19.01 115.118 19.1641 115.027 19.3428C115.015 19.3697 114.996 19.3927 114.971 19.4088C114.947 19.4249 114.918 19.4335 114.889 19.4336V19.4336Z" fill="#454D66"/>
<path d="M120.269 18.6513C120.242 18.652 120.216 18.6461 120.193 18.634C120.169 18.6219 120.149 18.604 120.135 18.5821C120.02 18.4083 119.866 18.2633 119.686 18.1583C119.506 18.0534 119.305 17.9912 119.097 17.9767C119.058 17.9704 119.023 17.9506 118.998 17.9209C118.973 17.8912 118.959 17.8535 118.959 17.8145C118.959 17.7755 118.973 17.7378 118.998 17.7081C119.023 17.6784 119.058 17.6586 119.097 17.6523V17.6523C119.356 17.6669 119.608 17.7417 119.833 17.8708C120.059 17.9999 120.251 18.1798 120.394 18.3961C120.406 18.4134 120.415 18.4329 120.42 18.4536C120.425 18.4743 120.425 18.4958 120.422 18.5167C120.418 18.5376 120.41 18.5576 120.399 18.5756C120.387 18.5935 120.373 18.6089 120.355 18.621C120.33 18.6403 120.3 18.651 120.269 18.6513V18.6513Z" fill="#454D66"/>
<path d="M105.009 34.4709C104.144 35.1758 103.232 35.9585 102.362 36.7239C101.493 37.4893 100.607 38.2763 99.7678 39.0806C98.0987 40.6256 96.5355 42.2812 95.0889 44.0363L94.5959 44.6763L94.5354 44.7585C94.5484 44.7392 94.56 44.7189 94.57 44.6979C94.596 44.6495 94.6177 44.5988 94.6348 44.5466C94.6678 44.4594 94.6853 44.3673 94.6867 44.2741C94.6867 44.1271 94.6608 44.1271 94.6867 44.1963C94.7056 44.3293 94.7435 44.4589 94.7992 44.5812C94.9735 44.9895 95.1909 45.378 95.4478 45.7401C95.7457 46.1774 96.0661 46.5988 96.4078 47.0028C97.104 47.8677 97.8824 48.6936 98.6997 49.5109C99.517 50.3282 100.382 51.1541 101.208 51.9109L101.264 51.9585C101.628 52.2858 101.856 52.7388 101.9 53.2266C101.944 53.7144 101.803 54.2009 101.504 54.5887C101.204 54.9765 100.77 55.2369 100.287 55.3177C99.8035 55.3985 99.3077 55.2937 98.8986 55.0244C96.7295 53.6494 94.7016 52.0633 92.8446 50.2893C92.3732 49.8179 91.9105 49.325 91.4565 48.7801C90.9654 48.1895 90.531 47.5539 90.1592 46.8817C89.9338 46.4684 89.7499 46.0339 89.61 45.5844C89.4219 44.9793 89.3543 44.3431 89.4111 43.712C89.4465 43.3165 89.5367 42.928 89.6792 42.5574C89.7539 42.3655 89.842 42.1791 89.943 41.9995L90.0986 41.7444L90.1678 41.6406L90.73 40.806C92.2285 38.7141 93.896 36.7485 95.7159 34.9293C96.5808 34.0298 97.4889 33.152 98.41 32.3044C99.3311 31.4568 100.243 30.6395 101.26 29.8093C101.884 29.4394 102.621 29.3062 103.335 29.434C104.05 29.5618 104.695 29.9421 105.152 30.5055C105.61 31.0689 105.85 31.778 105.828 32.5035C105.806 33.229 105.525 33.9226 105.035 34.4579L105.009 34.4709Z" fill="#58B368"/>
<path opacity="0.2" d="M105.009 34.4709C104.144 35.1758 103.232 35.9585 102.362 36.7239C101.493 37.4893 100.607 38.2763 99.7678 39.0806C98.0987 40.6256 96.5355 42.2812 95.0889 44.0363L94.5959 44.6763L94.5354 44.7585C94.5484 44.7392 94.56 44.7189 94.57 44.6979C94.596 44.6495 94.6177 44.5988 94.6348 44.5466C94.6678 44.4594 94.6853 44.3673 94.6867 44.2741C94.6867 44.1271 94.6608 44.1271 94.6867 44.1963C94.7056 44.3293 94.7435 44.4589 94.7992 44.5812C94.9735 44.9895 95.1909 45.378 95.4478 45.7401C95.7457 46.1774 96.0661 46.5988 96.4078 47.0028C97.104 47.8677 97.8824 48.6936 98.6997 49.5109C99.517 50.3282 100.382 51.1541 101.208 51.9109L101.264 51.9585C101.628 52.2858 101.856 52.7388 101.9 53.2266C101.944 53.7144 101.803 54.2009 101.504 54.5887C101.204 54.9765 100.77 55.2369 100.287 55.3177C99.8035 55.3985 99.3077 55.2937 98.8986 55.0244C96.7295 53.6494 94.7016 52.0633 92.8446 50.2893C92.3732 49.8179 91.9105 49.325 91.4565 48.7801C90.9654 48.1895 90.531 47.5539 90.1592 46.8817C89.9338 46.4684 89.7499 46.0339 89.61 45.5844C89.4219 44.9793 89.3543 44.3431 89.4111 43.712C89.4465 43.3165 89.5367 42.928 89.6792 42.5574C89.7539 42.3655 89.842 42.1791 89.943 41.9995L90.0986 41.7444L90.1678 41.6406L90.73 40.806C92.2285 38.7141 93.896 36.7485 95.7159 34.9293C96.5808 34.0298 97.4889 33.152 98.41 32.3044C99.3311 31.4568 100.243 30.6395 101.26 29.8093C101.884 29.4394 102.621 29.3062 103.335 29.434C104.05 29.5618 104.695 29.9421 105.152 30.5055C105.61 31.0689 105.85 31.778 105.828 32.5035C105.806 33.229 105.525 33.9226 105.035 34.4579L105.009 34.4709Z" fill="black"/>
<path d="M101.864 52.6201L104.804 54.419L101.046 56.5596C101.046 56.5596 98.547 54.6914 99.6151 53.485L100.869 52.6201C101.017 52.5239 101.19 52.4727 101.366 52.4727C101.543 52.4727 101.716 52.5239 101.864 52.6201V52.6201Z" fill="#7F3E3B"/>
<path d="M104.966 57.7079L103.348 58.6593C103.236 58.7261 103.112 58.7697 102.983 58.7875C102.854 58.8054 102.723 58.7971 102.597 58.7633C102.471 58.7294 102.353 58.6706 102.251 58.5903C102.148 58.5101 102.062 58.41 101.999 58.2961L101.048 56.5663L104.806 54.4258L105.411 56.5879C105.471 56.7976 105.46 57.0213 105.379 57.2239C105.299 57.4266 105.153 57.5968 104.966 57.7079Z" fill="#7F3E3B"/>
<path d="M133.095 27.1687L137.077 26.386C135.983 28.3146 137.592 30.1611 139.036 31.32C139.724 31.8736 139.24 32.8638 138.171 33.0498L135.577 33.56C132.446 34.1914 133.095 27.1687 133.095 27.1687Z" fill="#58B368"/>
<path d="M131.512 27.4748L140.645 25.7061C142.071 25.4219 143.327 24.5845 144.137 23.377C144.947 22.1696 145.247 20.6904 144.969 19.2629V19.2629C144.683 17.8379 143.845 16.5838 142.638 15.7739C141.431 14.9639 139.953 14.6637 138.526 14.9386L129.397 16.7288C127.972 17.0162 126.718 17.855 125.908 19.0625C125.098 20.2701 124.798 21.7487 125.073 23.1764V23.1764C125.364 24.5963 126.204 25.844 127.409 26.6487C128.615 27.4535 130.089 27.7503 131.512 27.4748V27.4748Z" fill="#58B368"/>
<path opacity="0.3" d="M131.512 27.4748L140.645 25.7061C142.071 25.4219 143.327 24.5845 144.137 23.377C144.947 22.1696 145.247 20.6904 144.969 19.2629V19.2629C144.683 17.8379 143.845 16.5838 142.638 15.7739C141.431 14.9639 139.953 14.6637 138.526 14.9386L129.397 16.7288C127.972 17.0162 126.718 17.855 125.908 19.0625C125.098 20.2701 124.798 21.7487 125.073 23.1764V23.1764C125.364 24.5963 126.204 25.844 127.409 26.6487C128.615 27.4535 130.089 27.7503 131.512 27.4748V27.4748Z" fill="white"/>
<path d="M156.368 29.3444L140.8 29.1369C139.451 29.4007 136.044 11.9304 137.375 11.6666L151.706 5.61255L156.368 29.3444Z" fill="#58B368"/>
<path d="M152.797 17.7115C154.094 24.2671 155.681 29.4736 156.368 29.3396C157.056 29.2055 156.572 23.7785 155.283 17.2315C153.994 10.6844 152.399 5.4693 151.711 5.60336C151.024 5.73741 151.512 11.1515 152.797 17.7115Z" fill="#58B368"/>
<path opacity="0.3" d="M152.797 17.7115C154.094 24.2671 155.681 29.4736 156.368 29.3396C157.056 29.2055 156.572 23.7785 155.283 17.2315C153.994 10.6844 152.399 5.4693 151.711 5.60336C151.024 5.73741 151.512 11.1515 152.797 17.7115Z" fill="black"/>
<path d="M158.655 16.9038C158.34 15.2995 154.764 14.6465 154.007 14.7979C153.25 14.9492 152.883 16.3676 153.194 17.9719C153.505 19.5762 154.383 20.7524 155.144 20.6054C155.905 20.4584 158.958 18.5038 158.655 16.9038Z" fill="#58B368"/>
<path d="M182.737 12.7417L162.481 16.0188L162.555 16.4756L182.811 13.1985L182.737 12.7417Z" fill="#58B368"/>
<path d="M168.877 4.00008L160.571 11.0813L160.871 11.4334L169.177 4.35218L168.877 4.00008Z" fill="#58B368"/>
<path d="M172.988 25.895L172.834 26.3313L175.88 27.4064L176.034 26.9701L172.988 25.895Z" fill="#58B368"/>
<path d="M161.952 22.1348L161.805 22.5735L169.513 25.1585L169.66 24.7198L161.952 22.1348Z" fill="#58B368"/>
</svg>
