<svg width="500" height="500" viewBox="0 0 500 500" fill="none" xmlns="http://www.w3.org/2000/svg">
<path d="M500 382.398H0V382.648H500V382.398Z" fill="#EBEBEB"/>
<path d="M435.67 398.488H416.78V398.738H435.67V398.488Z" fill="#EBEBEB"/>
<path d="M322.52 396.75H293.05V397H322.52V396.75Z" fill="#EBEBEB"/>
<path d="M415.78 389.21H368.67V389.46H415.78V389.21Z" fill="#EBEBEB"/>
<path d="M63.43 390.89H52.46V391.14H63.43V390.89Z" fill="#EBEBEB"/>
<path d="M110.89 390.89H72.3301V391.14H110.89V390.89Z" fill="#EBEBEB"/>
<path d="M225.15 395.11H171V395.36H225.15V395.11Z" fill="#EBEBEB"/>
<path d="M237 337.8H43.92C42.4056 337.8 40.9532 337.198 39.8824 336.128C38.8115 335.057 38.21 333.604 38.21 332.09V60.66C38.2231 59.1543 38.8305 57.7147 39.9 56.6547C40.9694 55.5947 42.4142 54.9999 43.92 55H237C238.514 55 239.967 55.6016 241.038 56.6724C242.108 57.7433 242.71 59.1956 242.71 60.71V332.09C242.71 333.604 242.108 335.057 241.038 336.128C239.967 337.198 238.514 337.8 237 337.8V337.8ZM43.92 55.2C42.4727 55.2026 41.0855 55.7787 40.0621 56.8021C39.0387 57.8255 38.4626 59.2127 38.46 60.66V332.09C38.4626 333.537 39.0387 334.924 40.0621 335.948C41.0855 336.971 42.4727 337.547 43.92 337.55H237C238.447 337.547 239.834 336.971 240.858 335.948C241.881 334.924 242.457 333.537 242.46 332.09V60.66C242.457 59.2127 241.881 57.8255 240.858 56.8021C239.834 55.7787 238.447 55.2026 237 55.2H43.92Z" fill="#EBEBEB"/>
<path d="M453.31 337.8H260.21C258.696 337.797 257.246 337.195 256.175 336.125C255.105 335.054 254.503 333.604 254.5 332.09V60.66C254.516 59.1551 255.124 57.7171 256.193 56.6576C257.262 55.5981 258.705 55.0025 260.21 55H453.31C454.812 55.0052 456.252 55.6022 457.317 56.6617C458.382 57.7212 458.987 59.1578 459 60.66V332.09C459 333.601 458.401 335.05 457.335 336.121C456.268 337.191 454.821 337.795 453.31 337.8V337.8ZM260.21 55.2C258.763 55.2026 257.375 55.7787 256.352 56.8021C255.329 57.8255 254.753 59.2127 254.75 60.66V332.09C254.753 333.537 255.329 334.924 256.352 335.948C257.375 336.971 258.763 337.547 260.21 337.55H453.31C454.757 337.547 456.145 336.971 457.168 335.948C458.191 334.924 458.767 333.537 458.77 332.09V60.66C458.767 59.2127 458.191 57.8255 457.168 56.8021C456.145 55.7787 454.757 55.2026 453.31 55.2H260.21Z" fill="#EBEBEB"/>
<path d="M435.67 398.488H416.78V398.738H435.67V398.488Z" fill="#EBEBEB"/>
<path d="M322.52 396.75H293.05V397H322.52V396.75Z" fill="#EBEBEB"/>
<path d="M415.78 389.21H368.67V389.46H415.78V389.21Z" fill="#EBEBEB"/>
<path d="M63.43 390.89H52.46V391.14H63.43V390.89Z" fill="#EBEBEB"/>
<path d="M110.89 390.89H72.3301V391.14H110.89V390.89Z" fill="#EBEBEB"/>
<path d="M225.15 395.11H171V395.36H225.15V395.11Z" fill="#EBEBEB"/>
<path d="M196.94 85.6211H137.56V220.661H196.94V85.6211Z" fill="#E6E6E6"/>
<path d="M200.57 85.6211H141.19V220.661H200.57V85.6211Z" fill="#F5F5F5"/>
<path d="M194.06 214.58V91.7H147.7V214.58H194.06Z" fill="white"/>
<path d="M194.05 214.58V91.7H191.31V214.58H194.05Z" fill="#E6E6E6"/>
<path d="M197.87 178.09H143.88V186.25H197.87V178.09Z" fill="#F5F5F5"/>
<path d="M197.87 102.422H143.88V110.582H197.87V102.422Z" fill="#F5F5F5"/>
<path d="M277 85.6211H217.62V220.661H277V85.6211Z" fill="#E6E6E6"/>
<path d="M280.62 85.6211H221.24V220.661H280.62V85.6211Z" fill="#F5F5F5"/>
<path d="M274.11 214.58V91.7H227.75V214.58H274.11Z" fill="white"/>
<path d="M274.11 214.58V91.7H271.37V214.58H274.11Z" fill="#E6E6E6"/>
<path d="M277.93 178.09H223.94V186.25H277.93V178.09Z" fill="#F5F5F5"/>
<path d="M277.93 102.422H223.94V110.582H277.93V102.422Z" fill="#F5F5F5"/>
<path d="M116.88 85.6211H57.5V220.661H116.88V85.6211Z" fill="#E6E6E6"/>
<path d="M120.51 85.6211H61.1299V220.661H120.51V85.6211Z" fill="#F5F5F5"/>
<path d="M114 214.58L114 91.7H67.64V214.58H114Z" fill="white"/>
<path d="M113.99 214.571L113.99 91.6914H111.25L111.25 214.571H113.99Z" fill="#E6E6E6"/>
<path d="M117.81 178.09H63.8201V186.25H117.81V178.09Z" fill="#F5F5F5"/>
<path d="M117.81 102.422H63.8201V110.582H117.81V102.422Z" fill="#F5F5F5"/>
<path d="M329.22 247.512H319.51V382.402H329.22V247.512Z" fill="#E6E6E6"/>
<path d="M331.82 247.512H326.1V382.402H331.82V247.512Z" fill="#F0F0F0"/>
<path d="M195.71 257.621H333.59V247.501L195.71 247.501V257.621Z" fill="#F0F0F0"/>
<path d="M65.1099 247.512H55.3999V382.402H65.1099V247.512Z" fill="#E6E6E6"/>
<path d="M66.93 247.512H61.21V382.402H66.93V247.512Z" fill="#F0F0F0"/>
<path d="M53.67 257.621H191.55V247.501L53.67 247.501V257.621Z" fill="#E6E6E6"/>
<path d="M194.88 247.512H185.17V382.402H194.88V247.512Z" fill="#E6E6E6"/>
<path d="M197.48 247.512H191.76V382.402H197.48V247.512Z" fill="#F0F0F0"/>
<path d="M170.17 202.64H242.17L247.82 245.15H175.83L170.17 202.64Z" fill="#E6E6E6"/>
<path d="M175.83 245.148L176.12 247.498H248.12L247.83 245.148H175.83Z" fill="#E6E6E6"/>
<path d="M172.39 202.64H244.38L250.04 245.15H178.04L172.39 202.64Z" fill="#F0F0F0"/>
<path d="M179.78 243.208L174.65 204.578H242.64L247.78 243.208H179.78Z" fill="white"/>
<path d="M196.8 245.148L197.09 247.498H276.38L276.08 245.148H196.8Z" fill="#F0F0F0"/>
<path d="M326.9 211.001H291.26C285.193 210.946 279.317 213.117 274.743 217.103C270.169 221.089 267.215 226.614 266.44 232.631L261.23 272.001L241.87 271.931H241.81C237.493 271.829 233.302 273.387 230.1 276.284C226.898 279.181 224.929 283.196 224.6 287.501L223.46 301.001C221.583 301.266 219.845 302.141 218.513 303.491C217.181 304.84 216.33 306.59 216.09 308.471H311.7C317.762 308.526 323.633 306.357 328.203 302.374C332.773 298.392 335.725 292.873 336.5 286.861L344 230.361C344.286 227.94 344.057 225.486 343.33 223.159C342.602 220.832 341.392 218.685 339.778 216.858C338.164 215.031 336.183 213.565 333.964 212.556C331.745 211.546 329.338 211.017 326.9 211.001V211.001ZM242.9 300.861H228.6L229.68 288.441C229.915 285.258 231.365 282.288 233.728 280.143C236.092 277.999 239.19 276.846 242.38 276.921H242.43L260.59 276.981L259.32 286.551C258.806 290.537 256.847 294.195 253.815 296.833C250.783 299.471 246.889 300.904 242.87 300.861H242.9Z" fill="#E0E0E0"/>
<path d="M238.17 308.43H233.21L221.59 382.4H226.55L238.17 308.43Z" fill="#F0F0F0"/>
<path d="M256.79 308.43H251.83L240.2 382.4H245.16L256.79 308.43Z" fill="#F0F0F0"/>
<path d="M300.47 308.43H305.43L317.06 382.4H312.1L300.47 308.43Z" fill="#F0F0F0"/>
<path d="M281.86 308.43H286.82L298.44 382.4H293.48L281.86 308.43Z" fill="#F0F0F0"/>
<path d="M439.61 87.9883H342.92V289.998H439.61V87.9883Z" fill="#E6E6E6"/>
<path d="M446.33 87.9883H344.71V289.998H446.33V87.9883Z" fill="#F0F0F0"/>
<path d="M437.81 281.492V96.5117H353.21V281.492H437.81Z" fill="#FAFAFA"/>
<path d="M383.21 281.49L393.69 96.5H407.83L397.35 281.49H383.21Z" fill="white"/>
<path d="M400.02 281.49L410.5 96.5H424.64L414.16 281.49H400.02Z" fill="white"/>
<path d="M250 427.562C357.083 427.562 443.89 422.494 443.89 416.242C443.89 409.99 357.083 404.922 250 404.922C142.918 404.922 56.1101 409.99 56.1101 416.242C56.1101 422.494 142.918 427.562 250 427.562Z" fill="#F5F5F5"/>
<path d="M240.81 121.601L225.3 348.091H414.42L431.55 97.8711H266.17L240.81 121.601Z" fill="#58B368"/>
<path opacity="0.8" d="M240.81 121.601L225.3 348.091H414.42L431.55 97.8711H266.17L240.81 121.601Z" fill="white"/>
<path d="M398.944 174.339C411.684 162.027 412.691 142.4 401.193 130.502C389.695 118.603 370.045 118.938 357.305 131.25C344.565 143.562 343.558 163.189 355.056 175.087C366.554 186.986 386.203 186.65 398.944 174.339Z" fill="#58B368"/>
<path d="M397.846 173.201C409.915 161.538 410.87 142.946 399.978 131.675C389.086 120.404 370.472 120.722 358.403 132.385C346.334 144.048 345.379 162.64 356.271 173.911C367.163 185.182 385.777 184.864 397.846 173.201Z" fill="white"/>
<path d="M370.41 163.001L364.63 162.621C364.63 162.621 361.94 176.461 360.22 177.621C357.87 179.251 353.22 183.191 350.13 184.621C349.811 185.557 349.746 186.561 349.94 187.531C354.74 187.531 363.62 182.751 365.15 180.671C368.66 176.001 370.41 163.001 370.41 163.001Z" fill="#FFC3BD"/>
<path d="M373.17 154.321C374.92 157.581 369.47 169.321 369.47 169.321L362.05 167.001C362.263 163.392 363.099 159.846 364.52 156.521C366.36 152.691 371.25 150.741 373.17 154.321Z" fill="#454D66"/>
<path opacity="0.2" d="M367.5 160.321C368.5 162.681 367.19 168.381 366.16 171.991C363.65 167.691 363.3 163.691 367.5 160.321Z" fill="black"/>
<path d="M367.47 154.899C366.33 159.069 364.09 170.019 365.92 187.209H385.45C385.9 183.939 385.33 167.969 389.92 152.559C387.593 152.099 385.238 151.798 382.87 151.659C379.853 151.484 376.827 151.484 373.81 151.659C372.522 151.779 371.247 152.013 370 152.359C369.394 152.526 368.842 152.849 368.399 153.294C367.955 153.739 367.635 154.293 367.47 154.899V154.899Z" fill="#454D66"/>
<path opacity="0.2" d="M384.94 156.361C384.35 158.901 384.58 164.971 386.35 171.991C386.875 165.945 387.922 159.956 389.48 154.091V154.091C388.09 153.921 385.5 154.001 384.94 156.361Z" fill="black"/>
<path d="M382.47 143.181C381.63 146.101 381.01 149.711 382.87 151.661C382.87 151.661 381.42 154.661 376.01 154.661C371.06 154.661 373.81 151.661 373.81 151.661C377.13 150.881 377.34 146.861 376.98 144.601L382.47 143.181Z" fill="#FFC3BD"/>
<path d="M376 154.612C376.505 155.46 376.774 156.426 376.78 157.412C376.78 157.412 383.78 155.022 383.78 151.512C383.78 151.512 382.87 150.942 382.3 150.512C382.32 150.482 381.85 153.212 376 154.612Z" fill="white"/>
<path d="M375.81 154.611C375.18 155.373 374.711 156.254 374.43 157.201C373.606 156.57 373.003 155.693 372.71 154.697C372.417 153.701 372.449 152.638 372.8 151.661C373.381 151.428 373.98 151.241 374.59 151.101C374.59 151.101 373.74 153.861 375.81 154.611Z" fill="white"/>
<path opacity="0.2" d="M377 144.601C377.288 146.207 377.125 147.862 376.53 149.381C377.045 149.307 377.547 149.159 378.02 148.941C379.94 148.071 380.97 146.711 382.1 144.701C382.21 144.181 382.35 143.701 382.49 143.181L377 144.601Z" fill="black"/>
<path d="M372.25 141.901C372.398 142.344 372.638 142.751 372.953 143.095C373.268 143.44 373.652 143.714 374.08 143.901C375.25 144.401 376.08 143.331 376.01 142.101C375.94 140.871 375.2 139.391 373.91 139.411C373.619 139.425 373.336 139.507 373.083 139.651C372.829 139.794 372.613 139.995 372.452 140.237C372.29 140.479 372.188 140.756 372.153 141.045C372.118 141.334 372.151 141.627 372.25 141.901V141.901Z" fill="#FFC3BD"/>
<path opacity="0.2" d="M372.25 141.901C372.398 142.344 372.638 142.751 372.953 143.095C373.268 143.44 373.652 143.714 374.08 143.901C375.25 144.401 376.08 143.331 376.01 142.101C375.94 140.871 375.2 139.391 373.91 139.411C373.619 139.425 373.336 139.507 373.083 139.651C372.829 139.794 372.613 139.995 372.452 140.237C372.29 140.479 372.188 140.756 372.153 141.045C372.118 141.334 372.151 141.627 372.25 141.901V141.901Z" fill="black"/>
<path d="M377.48 133.733C377.1 131.423 373.69 135.483 374.42 137.623C375.15 139.763 377.9 136.333 377.48 133.733Z" fill="#454D66"/>
<path d="M384.78 139.593C383.53 143.463 382.99 145.773 380.54 147.433C379.799 148 378.911 148.342 377.98 148.418C377.05 148.495 376.118 148.302 375.294 147.864C374.47 147.426 373.79 146.76 373.333 145.946C372.877 145.132 372.664 144.204 372.72 143.273C372.82 139.613 374.85 133.903 378.99 133.003C383.13 132.103 386 135.723 384.78 139.593Z" fill="#FFC3BD"/>
<path d="M383.64 137.301C379.42 136.701 373.36 135.921 375.56 132.471C377.65 129.181 385.99 129.781 383.46 131.241C386.73 131.431 390.89 133.001 387.75 134.081C390.28 135.881 389.28 140.701 384.45 142.381C383.06 140.361 382 139.471 383.64 137.301Z" fill="#454D66"/>
<path d="M385.38 144.201C384.667 144.932 383.709 145.374 382.69 145.441C381.37 145.511 381.12 144.251 381.83 143.161C382.54 142.071 383.92 140.961 385.08 141.411C386.24 141.861 386.27 143.281 385.38 144.201Z" fill="#FFC3BD"/>
<path d="M378.71 139.672C378.63 139.992 378.4 140.212 378.19 140.182C377.98 140.152 377.89 139.862 377.98 139.542C378.07 139.222 378.29 138.992 378.49 139.032C378.69 139.072 378.8 139.352 378.71 139.672Z" fill="#454D66"/>
<path d="M375.2 139.049C375.12 139.369 374.89 139.599 374.69 139.559C374.49 139.519 374.39 139.239 374.47 138.919C374.55 138.599 374.78 138.379 374.99 138.409C375.2 138.439 375.29 138.729 375.2 139.049Z" fill="#454D66"/>
<path d="M376.28 139.411C375.652 140.319 374.913 141.146 374.08 141.871C374.258 142.064 374.477 142.213 374.722 142.306C374.966 142.4 375.229 142.436 375.49 142.411L376.28 139.411Z" fill="#ED847E"/>
<path d="M376.17 143.45C376.158 143.447 376.147 143.443 376.137 143.436C376.127 143.429 376.118 143.42 376.111 143.41C376.105 143.4 376.101 143.388 376.099 143.376C376.097 143.364 376.097 143.352 376.1 143.34C376.109 143.315 376.125 143.294 376.147 143.28C376.168 143.265 376.194 143.258 376.22 143.26C376.62 143.33 377.03 143.31 377.421 143.201C377.813 143.092 378.174 142.897 378.48 142.63C378.488 142.621 378.499 142.614 378.51 142.609C378.521 142.605 378.533 142.602 378.545 142.602C378.557 142.602 378.569 142.605 378.58 142.609C378.592 142.614 378.602 142.621 378.61 142.63C378.628 142.649 378.639 142.674 378.639 142.7C378.639 142.726 378.628 142.751 378.61 142.77C378.282 143.062 377.892 143.275 377.469 143.392C377.046 143.51 376.602 143.53 376.17 143.45V143.45Z" fill="#454D66"/>
<path d="M380.07 138.691C380.043 138.687 380.017 138.676 379.996 138.658C379.975 138.64 379.959 138.617 379.95 138.591C379.867 138.379 379.732 138.192 379.557 138.047C379.382 137.902 379.173 137.803 378.95 137.761C378.926 137.76 378.902 137.754 378.881 137.743C378.86 137.732 378.841 137.716 378.827 137.697C378.813 137.678 378.803 137.656 378.798 137.632C378.793 137.609 378.794 137.584 378.8 137.561C378.81 137.511 378.837 137.466 378.878 137.434C378.918 137.403 378.969 137.388 379.02 137.391C379.303 137.433 379.57 137.546 379.796 137.722C380.022 137.897 380.199 138.127 380.31 138.391C380.327 138.439 380.325 138.491 380.304 138.538C380.284 138.584 380.247 138.621 380.2 138.641C380.183 138.658 380.163 138.671 380.14 138.68C380.118 138.689 380.094 138.692 380.07 138.691V138.691Z" fill="#454D66"/>
<path d="M374 137.503C373.977 137.511 373.953 137.511 373.93 137.503C373.912 137.486 373.898 137.466 373.889 137.444C373.879 137.421 373.875 137.397 373.875 137.373C373.875 137.349 373.879 137.325 373.889 137.302C373.898 137.28 373.912 137.26 373.93 137.243C374.13 137.007 374.38 136.819 374.662 136.693C374.944 136.567 375.251 136.505 375.56 136.513C375.584 136.516 375.607 136.525 375.627 136.537C375.648 136.55 375.665 136.567 375.679 136.586C375.693 136.606 375.703 136.628 375.709 136.651C375.714 136.675 375.714 136.699 375.71 136.723C375.7 136.775 375.671 136.822 375.628 136.853C375.586 136.885 375.533 136.899 375.48 136.893V136.893C375.236 136.89 374.995 136.941 374.773 137.043C374.552 137.145 374.356 137.296 374.2 137.483C374.172 137.506 374.139 137.52 374.103 137.523C374.067 137.527 374.032 137.52 374 137.503V137.503Z" fill="#454D66"/>
<path d="M391.64 157.911L386.35 160.721C386.35 160.721 391.46 173.321 390.59 175.211C389.4 177.791 387.43 183.461 385.49 186.271C385.719 187.208 386.208 188.061 386.9 188.731C391.14 186.171 396.35 177.521 396.58 175.021C397.1 169.311 391.64 157.911 391.64 157.911Z" fill="#FFC3BD"/>
<path d="M389.92 152.563C393.62 153.213 396.34 166.393 396.34 166.393L387.22 169.003C385.924 165.972 384.851 162.85 384.01 159.663C382.8 154.783 386 151.853 389.92 152.563Z" fill="#454D66"/>
<path d="M387.41 185.801L383.64 185.531L385.26 189.711C385.26 189.711 388.58 189.841 389.36 187.301L387.41 185.801Z" fill="#FFC3BD"/>
<path d="M380.38 187.451L382.05 191.151L385.26 189.711L383.64 185.531L380.38 187.451Z" fill="#FFC3BD"/>
<path d="M388.879 321.397C401.619 309.085 402.626 289.459 391.128 277.56C379.63 265.662 359.98 265.997 347.24 278.309C334.5 290.621 333.493 310.247 344.991 322.146C356.489 334.044 376.139 333.709 388.879 321.397Z" fill="#58B368"/>
<path d="M387.781 320.252C399.85 308.589 400.805 289.997 389.913 278.726C379.021 267.455 360.407 267.773 348.338 279.436C336.269 291.099 335.314 309.691 346.206 320.962C357.098 332.233 375.712 331.915 387.781 320.252Z" fill="white"/>
<path d="M357.84 310.341L352.41 308.571C352.41 308.571 346.5 321.571 344.57 322.351C341.93 323.351 336.57 326.161 333.26 326.831C332.723 327.682 332.413 328.656 332.36 329.661C336.94 330.841 346.57 328.241 348.54 326.551C353 322.711 357.84 310.341 357.84 310.341Z" fill="#FFB573"/>
<path d="M362.57 302.413C363.45 306.053 355.41 316.363 355.41 316.363L348.9 312.243C349.973 308.742 351.626 305.446 353.79 302.493C356.47 299.163 361.6 298.423 362.57 302.413Z" fill="#58B368"/>
<path opacity="0.3" d="M362.57 302.413C363.45 306.053 355.41 316.363 355.41 316.363L348.9 312.243C349.973 308.742 351.626 305.446 353.79 302.493C356.47 299.163 361.6 298.423 362.57 302.413Z" fill="black"/>
<path opacity="0.2" d="M357.49 306.941C358.1 309.461 357.55 313.491 355.94 316.941C354.51 314.771 352.84 309.601 357.49 306.941Z" fill="black"/>
<path d="M357.4 302.001C356.26 306.171 354.03 317.121 355.85 334.311H375.39C375.84 331.041 375.26 315.071 379.85 299.661C377.523 299.201 375.168 298.9 372.8 298.761C369.783 298.586 366.758 298.586 363.74 298.761C362.452 298.882 361.177 299.116 359.93 299.461C359.325 299.63 358.774 299.953 358.331 300.398C357.887 300.843 357.567 301.395 357.4 302.001V302.001Z" fill="#58B368"/>
<path opacity="0.3" d="M357.4 302.001C356.26 306.171 354.03 317.121 355.85 334.311H375.39C375.84 331.041 375.26 315.071 379.85 299.661C377.523 299.201 375.168 298.9 372.8 298.761C369.783 298.586 366.758 298.586 363.74 298.761C362.452 298.882 361.177 299.116 359.93 299.461C359.325 299.63 358.774 299.953 358.331 300.398C357.887 300.843 357.567 301.395 357.4 302.001V302.001Z" fill="black"/>
<path opacity="0.2" d="M374.94 306.691C374.35 309.231 373.83 315.261 376.28 319.041C376.809 312.995 377.859 307.006 379.42 301.141V301.141C378 301.001 375.5 304.311 374.94 306.691Z" fill="black"/>
<g opacity="0.95">
<path opacity="0.95" d="M365.69 306.56L364.62 307.03L363.8 306.29C362.758 305.426 362.001 304.268 361.628 302.968C361.255 301.667 361.284 300.284 361.71 299C362.371 298.868 363.039 298.772 363.71 298.71C366.727 298.535 369.753 298.535 372.77 298.71C373.47 298.71 374.17 298.8 374.85 298.87L374.17 299.74C371.876 302.606 368.981 304.934 365.69 306.56V306.56Z" fill="white"/>
</g>
<path d="M372.41 290.231C371.56 293.151 370.94 296.761 372.8 298.711C370.697 301.314 368.057 303.432 365.06 304.921C364.144 304.207 363.509 303.193 363.267 302.057C363.026 300.921 363.193 299.736 363.74 298.711C367.07 297.931 367.27 293.911 366.91 291.651L372.41 290.231Z" fill="#FFB573"/>
<path opacity="0.2" d="M366.91 291.651C367.198 293.257 367.036 294.912 366.44 296.431C366.958 296.356 367.464 296.208 367.94 295.991C369.85 295.121 370.88 293.761 372.01 291.751C372.13 291.231 372.26 290.751 372.41 290.231L366.91 291.651Z" fill="black"/>
<path d="M362.18 289.002C362.328 289.446 362.569 289.854 362.886 290.199C363.203 290.544 363.59 290.817 364.02 291.002C365.19 291.502 366.02 290.432 365.94 289.202C365.86 287.972 365.13 286.492 363.85 286.512C363.559 286.525 363.274 286.605 363.019 286.748C362.765 286.891 362.547 287.092 362.385 287.334C362.222 287.577 362.119 287.854 362.083 288.144C362.048 288.434 362.081 288.728 362.18 289.002V289.002Z" fill="#FFB573"/>
<path opacity="0.2" d="M362.18 289.002C362.328 289.446 362.569 289.854 362.886 290.199C363.203 290.544 363.59 290.817 364.02 291.002C365.19 291.502 366.02 290.432 365.94 289.202C365.86 287.972 365.13 286.492 363.85 286.512C363.559 286.525 363.274 286.605 363.019 286.748C362.765 286.891 362.547 287.092 362.385 287.334C362.222 287.577 362.119 287.854 362.083 288.144C362.048 288.434 362.081 288.728 362.18 289.002V289.002Z" fill="black"/>
<path d="M366.81 282.111C366.43 279.501 363.53 282.491 363.2 284.401C362.87 286.311 364.47 288.241 365.56 286.401C366.65 284.561 367 283.521 366.81 282.111Z" fill="#454D66"/>
<path d="M374.71 286.639C373.46 290.509 372.92 292.809 370.47 294.479C369.729 295.046 368.84 295.388 367.91 295.465C366.98 295.541 366.048 295.349 365.224 294.911C364.4 294.472 363.72 293.807 363.263 292.993C362.807 292.179 362.594 291.251 362.65 290.319C362.75 286.659 364.78 280.949 368.92 280.049C373.06 279.149 376 282.769 374.71 286.639Z" fill="#FFB573"/>
<path d="M372.82 290.691C371.32 289.691 371.05 289.311 371.82 288.411C373.12 286.951 371.19 286.741 372.21 284.931C373.63 282.411 369.1 284.181 369.02 282.351C368.95 280.861 365.02 283.541 364.61 281.821C364.02 279.241 367.8 279.721 368.46 278.461C369.12 277.201 373 277.011 373.62 278.851C374.24 280.691 376.19 279.221 377.46 281.461C378.73 283.701 376.1 283.871 377.37 286.051C378.37 287.801 376.44 289.051 375.07 290.441C374.25 291.341 373.75 291.321 372.82 290.691Z" fill="#454D66"/>
<path d="M375.56 290.72C374.913 291.514 373.993 292.038 372.98 292.19C371.66 292.37 371.3 291.19 371.92 290C372.54 288.81 373.82 287.64 375.02 288C376.22 288.36 376.37 289.73 375.56 290.72Z" fill="#FFB573"/>
<path d="M368.64 286.723C368.56 287.043 368.33 287.263 368.13 287.233C367.93 287.203 367.83 286.913 367.91 286.593C367.99 286.273 368.22 286.043 368.43 286.083C368.64 286.123 368.73 286.403 368.64 286.723Z" fill="#454D66"/>
<path d="M365.14 286.1C365.05 286.42 364.82 286.65 364.62 286.61C364.42 286.57 364.32 286.29 364.4 285.97C364.48 285.65 364.72 285.43 364.92 285.46C365.12 285.49 365.22 285.78 365.14 286.1Z" fill="#454D66"/>
<path d="M366.21 286.461C365.587 287.37 364.851 288.197 364.02 288.921C364.198 289.114 364.417 289.263 364.662 289.356C364.906 289.45 365.169 289.486 365.43 289.461L366.21 286.461Z" fill="#ED893E"/>
<path d="M366.1 290.499C366.088 290.497 366.077 290.493 366.067 290.486C366.057 290.479 366.049 290.469 366.043 290.459C366.038 290.448 366.034 290.437 366.034 290.425C366.033 290.413 366.035 290.401 366.04 290.389C366.045 290.365 366.059 290.343 366.079 290.328C366.1 290.313 366.125 290.306 366.15 290.309C366.55 290.38 366.96 290.36 367.351 290.251C367.742 290.142 368.104 289.946 368.41 289.679C368.419 289.671 368.429 289.664 368.44 289.66C368.451 289.655 368.463 289.653 368.475 289.653C368.487 289.653 368.499 289.655 368.51 289.66C368.521 289.664 368.531 289.671 368.54 289.679C368.549 289.688 368.555 289.698 368.56 289.709C368.565 289.72 368.567 289.732 368.567 289.744C368.567 289.757 368.565 289.768 368.56 289.78C368.555 289.791 368.549 289.801 368.54 289.809C368.213 290.103 367.823 290.318 367.4 290.437C366.977 290.557 366.532 290.578 366.1 290.499V290.499Z" fill="#454D66"/>
<path d="M370 285.741C369.973 285.737 369.947 285.726 369.926 285.708C369.905 285.69 369.889 285.667 369.88 285.641C369.798 285.429 369.662 285.242 369.487 285.097C369.313 284.952 369.104 284.853 368.88 284.811C368.857 284.809 368.834 284.802 368.814 284.79C368.793 284.778 368.775 284.763 368.761 284.744C368.747 284.725 368.737 284.704 368.732 284.681C368.726 284.658 368.726 284.634 368.73 284.611C368.74 284.561 368.767 284.516 368.808 284.484C368.848 284.453 368.899 284.438 368.95 284.441C369.233 284.483 369.501 284.596 369.727 284.772C369.953 284.947 370.129 285.177 370.24 285.441C370.257 285.489 370.255 285.541 370.234 285.588C370.214 285.634 370.177 285.671 370.13 285.691C370.113 285.708 370.093 285.721 370.07 285.73C370.048 285.739 370.024 285.742 370 285.741V285.741Z" fill="#454D66"/>
<path d="M363.89 284.551C363.867 284.557 363.843 284.557 363.82 284.551C363.803 284.534 363.789 284.514 363.779 284.492C363.77 284.469 363.765 284.445 363.765 284.421C363.765 284.397 363.77 284.373 363.779 284.35C363.789 284.328 363.803 284.308 363.82 284.291C364.016 284.053 364.264 283.863 364.545 283.736C364.826 283.61 365.132 283.55 365.44 283.561C365.464 283.565 365.487 283.573 365.507 283.586C365.528 283.598 365.546 283.615 365.56 283.634C365.573 283.654 365.583 283.676 365.589 283.7C365.594 283.723 365.594 283.747 365.59 283.771C365.581 283.821 365.553 283.866 365.512 283.898C365.472 283.929 365.421 283.944 365.37 283.941C365.126 283.937 364.884 283.987 364.663 284.09C364.441 284.192 364.245 284.343 364.09 284.531C364.062 284.552 364.028 284.565 363.993 284.568C363.958 284.572 363.922 284.566 363.89 284.551V284.551Z" fill="#454D66"/>
<path d="M382 305.411L376.44 307.531C376.44 307.531 379.83 320.801 378.73 322.581C377.23 325.011 374.56 330.431 372.29 332.991C372.39 333.955 372.761 334.87 373.36 335.631C377.85 333.631 384.1 325.631 384.65 323.161C385.88 317.511 382 305.411 382 305.411Z" fill="#FFB573"/>
<path d="M381 299.831C384.55 300.961 385.52 314.491 385.52 314.491L376.22 315.931C375.338 312.732 374.689 309.474 374.28 306.181C373.7 301.141 377.18 298.621 381 299.831Z" fill="#58B368"/>
<path opacity="0.3" d="M381 299.831C384.55 300.961 385.52 314.491 385.52 314.491L376.22 315.931C375.338 312.732 374.689 309.474 374.28 306.181C373.7 301.141 377.18 298.621 381 299.831Z" fill="black"/>
<path d="M374.21 332.771L370.54 332.011L371.6 336.401C371.6 336.401 374.84 336.961 375.94 334.521L374.21 332.771Z" fill="#FFB573"/>
<path d="M367.1 333.521L368.26 337.431L371.6 336.401L370.54 332.011L367.1 333.521Z" fill="#FFB573"/>
<path d="M301.442 247.873C314.182 235.561 315.189 215.935 303.691 204.036C292.192 192.138 272.543 192.473 259.803 204.785C247.062 217.097 246.055 236.723 257.553 248.622C269.052 260.52 288.701 260.185 301.442 247.873Z" fill="#58B368"/>
<path d="M300.344 246.737C312.413 235.074 313.367 216.482 302.475 205.211C291.583 193.94 272.97 194.258 260.9 205.921C248.831 217.584 247.877 236.176 258.769 247.447C269.661 258.718 288.274 258.4 300.344 246.737Z" fill="white"/>
<path d="M292.91 233.25C293.06 235.63 293.18 238.03 293.27 240.42L293.56 247.56L293.61 248.43L293.68 249.19C293.76 249.71 293.82 250.25 293.93 250.81C294.14 251.91 294.41 253.03 294.73 254.15C295.33 256.4 296.06 258.67 296.73 260.91L294.66 261.91C293.408 259.791 292.302 257.589 291.35 255.32C290.89 254.17 290.46 253 290.09 251.77C289.893 251.146 289.729 250.511 289.6 249.87L289.43 248.87L289.33 247.95C288.8 243.11 288.45 238.34 288.26 233.53L292.91 233.25Z" fill="#FF8B7B"/>
<path d="M291.81 228C293.63 228.47 294.41 236.13 294.41 236.13L287 241C287 241 284.69 231.93 286.26 229.89C287.83 227.85 289.14 227.32 291.81 228Z" fill="#58B368"/>
<path opacity="0.2" d="M291.52 229.72L292.42 237.43L289.41 239.39L291.52 229.72Z" fill="black"/>
<path d="M296.79 260.39L298.79 264.64L294.85 264.75C294.85 264.75 293.7 261.75 294.92 260.22L296.79 260.39Z" fill="#FFB573"/>
<path d="M271.5 208.28C268.37 208.73 261.82 223.69 272.5 230.67C283.18 237.65 291.06 229.72 291.06 229.72C291.06 229.72 284.56 222 285.5 216.96C286.44 211.92 290.5 205.57 282.18 203.45C276.32 202 268.44 203.4 271.5 208.28Z" fill="#454D66"/>
<path d="M298.97 266.741L295.63 266.461L294.89 264.751L298.84 264.641L298.97 266.741Z" fill="#FFB573"/>
<path d="M291.81 228C291.81 228 293.9 228.76 287.81 255.24H269.46C270.28 247.78 270.6 243.18 268.08 227.87C270.673 227.349 273.3 227.015 275.94 226.87C278.71 226.674 281.49 226.674 284.26 226.87C287.81 227.18 291.81 228 291.81 228Z" fill="#58B368"/>
<path opacity="0.2" d="M269.18 233.941C270.81 234.351 272.18 236.161 271.81 239.501C271.591 241.039 270.962 242.49 269.99 243.701C269.88 241.131 269.59 238.151 269.07 234.341L269.18 233.941Z" fill="black"/>
<path d="M282.89 232.721C282.89 232.721 279.72 235.201 279.54 237.831C277.17 236.001 274.14 231.021 274.01 227.831C274.01 227.566 274.115 227.311 274.303 227.124C274.49 226.936 274.745 226.831 275.01 226.831C275.235 226.814 275.459 226.784 275.68 226.741C275.772 226.721 275.868 226.722 275.96 226.744C276.052 226.767 276.137 226.81 276.21 226.871L282.89 232.721Z" fill="#FAFAFA"/>
<path d="M282.89 232.721C283.733 233.246 284.437 233.966 284.943 234.821C285.45 235.675 285.744 236.639 285.8 237.631C288.46 235.781 287.55 230.251 286.32 227.541C286.225 227.33 286.076 227.148 285.888 227.013C285.7 226.877 285.48 226.794 285.25 226.771C284.89 226.771 284.61 226.681 284.42 226.641C284.351 226.629 284.28 226.644 284.223 226.683C284.165 226.722 284.124 226.782 284.11 226.851L282.89 232.721Z" fill="#FAFAFA"/>
<path d="M277.4 217.48C277.74 220.16 277.93 225.07 275.94 226.85C277.806 229.285 280.177 231.287 282.89 232.72C286.81 229.72 284.26 226.85 284.26 226.85C281.32 226.14 281.55 223.93 282.21 221.85L277.4 217.48Z" fill="#FF8B7B"/>
<path opacity="0.2" d="M279.36 219.258L282.21 221.838C282.048 222.32 281.927 222.815 281.85 223.318C280.72 223.148 279 222.178 278.85 220.938C278.886 220.346 279.061 219.77 279.36 219.258V219.258Z" fill="black"/>
<path d="M273.21 213.18C274.15 217.49 274.46 219.33 277.04 221.08C277.904 221.692 278.915 222.065 279.97 222.16C281.026 222.255 282.087 222.07 283.047 221.622C284.007 221.174 284.831 220.479 285.436 219.61C286.041 218.74 286.404 217.725 286.49 216.67C286.84 212.54 285.24 206.19 280.64 205.41C279.597 205.247 278.53 205.339 277.529 205.677C276.529 206.016 275.626 206.591 274.896 207.354C274.166 208.118 273.632 209.046 273.338 210.06C273.045 211.074 273.001 212.145 273.21 213.18V213.18Z" fill="#FF8B7B"/>
<path d="M274.44 217.06C277.21 214.42 277.31 211.15 276.61 210.13C278.99 209.93 285.15 208.43 284.16 206.13C283.17 203.83 273.58 202.59 272.26 208.47C269.08 211.13 271.11 216.46 274.44 217.06Z" fill="#454D66"/>
<path d="M280.45 212.79C280.51 213.15 280.74 213.39 280.98 213.34C281.22 213.29 281.36 212.96 281.3 212.61C281.24 212.26 281.01 212 280.78 212.06C280.55 212.12 280.4 212.44 280.45 212.79Z" fill="#454D66"/>
<path d="M284.53 211.9C284.58 212.26 284.82 212.5 285.05 212.45C285.28 212.4 285.44 212.07 285.38 211.71C285.32 211.35 285.09 211.11 284.86 211.16C284.725 211.223 284.618 211.332 284.557 211.468C284.497 211.604 284.487 211.757 284.53 211.9V211.9Z" fill="#454D66"/>
<path d="M284.75 211.21L285.58 210.77C285.58 210.77 285.24 211.53 284.75 211.21Z" fill="#454D66"/>
<path d="M283.37 212.82C283.814 213.561 284.363 214.235 285 214.82C284.839 214.989 284.645 215.122 284.43 215.212C284.215 215.302 283.983 215.345 283.75 215.34L283.37 212.82Z" fill="#FF5652"/>
<path d="M282 217.138C282.182 217.128 282.362 217.105 282.54 217.068C282.568 217.061 282.593 217.044 282.609 217.02C282.626 216.996 282.633 216.967 282.63 216.938C282.629 216.924 282.625 216.91 282.618 216.898C282.611 216.886 282.602 216.876 282.59 216.868C282.578 216.86 282.565 216.855 282.551 216.853C282.537 216.852 282.523 216.853 282.51 216.858C282.077 216.97 281.623 216.975 281.187 216.873C280.751 216.77 280.347 216.562 280.01 216.268C279.99 216.249 279.963 216.238 279.935 216.238C279.907 216.238 279.88 216.249 279.86 216.268C279.849 216.277 279.841 216.289 279.835 216.302C279.829 216.315 279.826 216.329 279.826 216.343C279.826 216.357 279.829 216.371 279.835 216.384C279.841 216.397 279.849 216.408 279.86 216.418C280.146 216.681 280.485 216.882 280.853 217.006C281.222 217.13 281.613 217.175 282 217.138V217.138Z" fill="#454D66"/>
<path d="M272.63 217.48C272.85 217.835 273.141 218.14 273.485 218.376C273.83 218.611 274.22 218.773 274.63 218.85C275.75 219.06 276.28 218.02 275.95 217.01C275.62 216 274.71 214.9 273.6 215.15C273.358 215.203 273.132 215.313 272.942 215.472C272.752 215.631 272.603 215.833 272.508 216.062C272.413 216.291 272.374 216.539 272.396 216.786C272.417 217.032 272.497 217.27 272.63 217.48V217.48Z" fill="#FF8B7B"/>
<path d="M278.54 211.998C278.585 211.993 278.628 211.974 278.662 211.944C278.696 211.913 278.72 211.873 278.73 211.828C278.992 211.152 279.509 210.606 280.17 210.308C280.197 210.297 280.222 210.281 280.243 210.26C280.263 210.24 280.28 210.215 280.291 210.188C280.302 210.161 280.308 210.132 280.308 210.103C280.307 210.074 280.301 210.045 280.29 210.018C280.279 209.994 280.264 209.971 280.244 209.953C280.225 209.935 280.201 209.92 280.176 209.911C280.151 209.902 280.124 209.897 280.097 209.899C280.071 209.9 280.044 209.907 280.02 209.918C279.627 210.094 279.274 210.346 278.98 210.66C278.686 210.974 278.458 211.344 278.31 211.748C278.303 211.775 278.301 211.803 278.305 211.831C278.309 211.859 278.319 211.885 278.335 211.909C278.35 211.932 278.369 211.952 278.393 211.968C278.416 211.983 278.442 211.994 278.47 211.998C278.481 212.004 278.493 212.006 278.505 212.006C278.517 212.006 278.529 212.004 278.54 211.998Z" fill="#454D66"/>
<path d="M285.52 209.06C285.557 209.06 285.594 209.051 285.627 209.033C285.66 209.016 285.689 208.99 285.71 208.96C285.748 208.919 285.769 208.865 285.769 208.81C285.769 208.754 285.748 208.7 285.71 208.66C285.433 208.468 285.114 208.346 284.78 208.303C284.446 208.259 284.107 208.296 283.79 208.41C283.737 208.432 283.695 208.473 283.671 208.525C283.647 208.576 283.643 208.635 283.66 208.69C283.67 208.716 283.685 208.741 283.705 208.761C283.724 208.782 283.748 208.798 283.774 208.81C283.8 208.821 283.829 208.827 283.857 208.827C283.886 208.827 283.914 208.821 283.94 208.81C284.19 208.718 284.458 208.689 284.721 208.726C284.985 208.762 285.235 208.863 285.45 209.02L285.52 209.06Z" fill="#454D66"/>
<path d="M280.68 212.1L281.51 211.66C281.51 211.66 281.16 212.43 280.68 212.1Z" fill="#454D66"/>
<path d="M269.26 254.169L268.68 255.809C268.6 255.939 268.75 256.069 268.96 256.069H287.82C287.99 256.069 288.13 255.989 288.15 255.879L288.42 254.239C288.42 254.129 288.31 254.029 288.12 254.029H269.57C269.511 254.024 269.451 254.034 269.397 254.058C269.343 254.083 269.296 254.121 269.26 254.169V254.169Z" fill="#58B368"/>
<path opacity="0.2" d="M269.26 254.169L268.68 255.809C268.6 255.939 268.75 256.069 268.96 256.069H287.82C287.99 256.069 288.13 255.989 288.15 255.879L288.42 254.239C288.42 254.129 288.31 254.029 288.12 254.029H269.57C269.511 254.024 269.451 254.034 269.397 254.058C269.343 254.083 269.296 254.121 269.26 254.169V254.169Z" fill="white"/>
<path d="M271.67 256.241H271.17C271.07 256.241 271 256.191 271.01 256.131L271.39 254.001C271.39 253.941 271.49 253.891 271.59 253.891H272.09C272.19 253.891 272.26 253.941 272.25 254.001L271.87 256.131C271.86 256.191 271.77 256.241 271.67 256.241Z" fill="#58B368"/>
<path opacity="0.4" d="M271.67 256.241H271.17C271.07 256.241 271 256.191 271.01 256.131L271.39 254.001C271.39 253.941 271.49 253.891 271.59 253.891H272.09C272.19 253.891 272.26 253.941 272.25 254.001L271.87 256.131C271.86 256.191 271.77 256.241 271.67 256.241Z" fill="black"/>
<path d="M286.41 256.241H285.91C285.81 256.241 285.74 256.191 285.75 256.131L286.13 254.001C286.13 253.941 286.23 253.891 286.33 253.891H286.83C286.93 253.891 287 253.941 286.99 254.001L286.61 256.131C286.6 256.191 286.51 256.241 286.41 256.241Z" fill="#58B368"/>
<path opacity="0.4" d="M286.41 256.241H285.91C285.81 256.241 285.74 256.191 285.75 256.131L286.13 254.001C286.13 253.941 286.23 253.891 286.33 253.891H286.83C286.93 253.891 287 253.941 286.99 254.001L286.61 256.131C286.6 256.191 286.51 256.241 286.41 256.241Z" fill="black"/>
<path d="M279.07 256.241H278.57C278.47 256.241 278.4 256.191 278.41 256.131L278.79 254.001C278.79 253.941 278.89 253.891 278.99 253.891H279.49C279.59 253.891 279.66 253.941 279.65 254.001L279.27 256.131C279.26 256.191 279.17 256.241 279.07 256.241Z" fill="#58B368"/>
<path opacity="0.4" d="M279.07 256.241H278.57C278.47 256.241 278.4 256.191 278.41 256.131L278.79 254.001C278.79 253.941 278.89 253.891 278.99 253.891H279.49C279.59 253.891 279.66 253.941 279.65 254.001L279.27 256.131C279.26 256.191 279.17 256.241 279.07 256.241Z" fill="black"/>
<path d="M280.22 258.898L284.81 256.898L283.24 261.308C283.24 261.308 280.37 261.958 279.24 260.538L280.22 258.898Z" fill="#FFB573"/>
<path d="M270.12 234C269.6 237 269.01 240.09 268.41 243.13C268.12 244.65 267.79 246.13 267.47 247.68L267 249.95L266.79 250.95C266.765 251.021 266.765 251.098 266.79 251.17C266.953 251.591 267.214 251.968 267.55 252.27C268.015 252.723 268.524 253.129 269.07 253.48C270.295 254.261 271.575 254.952 272.9 255.55C274.25 256.18 275.65 256.76 277.07 257.29C278.49 257.82 279.94 258.29 281.37 258.81L280.85 261.04C277.712 260.525 274.624 259.743 271.62 258.7C270.061 258.165 268.552 257.496 267.11 256.7C266.327 256.263 265.587 255.754 264.9 255.18C264.023 254.489 263.335 253.587 262.9 252.56C262.657 251.923 262.561 251.239 262.62 250.56C262.67 250.13 262.69 250.04 262.72 249.83L262.81 249.25L263.16 246.96C263.41 245.43 263.63 243.9 263.9 242.37C264.41 239.32 264.9 236.27 265.53 233.23L270.12 234Z" fill="#FF8B7B"/>
<path d="M268.08 227.88C266.21 228.44 263.57 234.76 263.57 234.76L269.57 241.37C269.57 241.37 273.33 234.57 272.73 232.2C272.13 229.83 270.22 227.24 268.08 227.88Z" fill="#58B368"/>
<path d="M288.43 257.83L286.92 261.46L283.24 261.32L284.81 256.91L288.43 257.83Z" fill="#FFB573"/>
<path opacity="0.3" d="M257.32 149.852H329C329.667 149.842 330.307 149.583 330.793 149.126C331.279 148.669 331.578 148.047 331.63 147.382C331.657 147.066 331.617 146.748 331.513 146.448C331.409 146.148 331.243 145.873 331.026 145.642C330.81 145.41 330.547 145.226 330.254 145.102C329.962 144.978 329.647 144.917 329.33 144.922H257.66C256.993 144.932 256.354 145.189 255.866 145.644C255.379 146.098 255.077 146.718 255.02 147.382C254.994 147.699 255.034 148.018 255.138 148.318C255.241 148.618 255.407 148.894 255.624 149.126C255.84 149.359 256.103 149.543 256.395 149.668C256.687 149.794 257.002 149.856 257.32 149.852V149.852Z" fill="#58B368"/>
<path opacity="0.3" d="M277.12 160.691H328.23C328.898 160.679 329.537 160.419 330.024 159.963C330.512 159.507 330.813 158.886 330.87 158.221C330.897 157.905 330.857 157.587 330.753 157.287C330.649 156.987 330.483 156.712 330.266 156.48C330.049 156.249 329.786 156.065 329.494 155.941C329.202 155.817 328.887 155.756 328.57 155.761H277.46C276.793 155.771 276.154 156.028 275.666 156.483C275.178 156.937 274.877 157.557 274.82 158.221C274.793 158.538 274.833 158.857 274.937 159.157C275.041 159.457 275.207 159.732 275.423 159.965C275.64 160.198 275.903 160.382 276.195 160.507C276.487 160.632 276.802 160.695 277.12 160.691V160.691Z" fill="#58B368"/>
<path d="M289.06 139.001H329.72C330.386 138.993 331.025 138.736 331.512 138.281C331.999 137.826 332.298 137.205 332.35 136.541C332.376 136.225 332.337 135.907 332.233 135.608C332.13 135.308 331.965 135.033 331.75 134.801C331.534 134.568 331.273 134.384 330.982 134.258C330.691 134.132 330.377 134.069 330.06 134.071H289.4C288.733 134.081 288.093 134.34 287.607 134.797C287.121 135.254 286.822 135.876 286.77 136.541V136.541C286.743 136.856 286.783 137.174 286.887 137.473C286.99 137.772 287.155 138.046 287.37 138.278C287.586 138.51 287.848 138.694 288.139 138.818C288.43 138.943 288.743 139.005 289.06 139.001Z" fill="white"/>
<path opacity="0.3" d="M289.15 308.231H318.15C318.467 308.226 318.782 308.287 319.074 308.411C319.367 308.535 319.63 308.719 319.846 308.95C320.063 309.182 320.229 309.457 320.333 309.757C320.437 310.057 320.477 310.375 320.45 310.691V310.691C320.398 311.358 320.098 311.981 319.609 312.438C319.121 312.895 318.479 313.153 317.81 313.161H288.81C288.492 313.165 288.177 313.102 287.885 312.977C287.593 312.852 287.33 312.668 287.114 312.435C286.897 312.202 286.731 311.927 286.628 311.627C286.524 311.327 286.484 311.008 286.51 310.691V310.691C286.565 310.026 286.866 309.405 287.354 308.95C287.842 308.495 288.483 308.239 289.15 308.231Z" fill="#58B368"/>
<path opacity="0.3" d="M249.88 308.231H278.88C279.197 308.226 279.512 308.287 279.804 308.411C280.097 308.535 280.36 308.719 280.576 308.95C280.793 309.182 280.959 309.457 281.063 309.757C281.167 310.057 281.207 310.375 281.18 310.691C281.123 311.356 280.822 311.977 280.335 312.433C279.847 312.889 279.208 313.149 278.54 313.161H249.54C249.222 313.165 248.907 313.102 248.615 312.977C248.323 312.852 248.06 312.668 247.844 312.435C247.627 312.202 247.461 311.927 247.358 311.627C247.254 311.327 247.214 311.008 247.24 310.691V310.691C247.293 310.025 247.593 309.403 248.082 308.948C248.57 308.492 249.212 308.237 249.88 308.231V308.231Z" fill="#58B368"/>
<path opacity="0.3" d="M267.76 297.391H318.87C319.187 297.386 319.502 297.447 319.794 297.571C320.086 297.695 320.349 297.879 320.566 298.11C320.783 298.342 320.949 298.617 321.053 298.917C321.157 299.217 321.197 299.535 321.17 299.851C321.118 300.516 320.819 301.138 320.333 301.595C319.846 302.052 319.207 302.311 318.54 302.321H267.42C267.103 302.325 266.788 302.263 266.496 302.137C266.204 302.012 265.942 301.827 265.726 301.595C265.511 301.362 265.346 301.086 265.243 300.786C265.141 300.486 265.102 300.167 265.13 299.851V299.851C265.182 299.187 265.481 298.566 265.968 298.111C266.454 297.656 267.094 297.399 267.76 297.391V297.391Z" fill="#58B368"/>
<path d="M261 286.539H319.6C319.917 286.535 320.232 286.598 320.524 286.723C320.816 286.848 321.078 287.033 321.294 287.266C321.509 287.498 321.674 287.774 321.777 288.074C321.879 288.375 321.918 288.693 321.89 289.009V289.009C321.838 289.674 321.539 290.294 321.052 290.749C320.566 291.205 319.926 291.461 319.26 291.469H260.69C260.373 291.475 260.058 291.413 259.766 291.289C259.474 291.165 259.211 290.982 258.994 290.75C258.777 290.518 258.611 290.243 258.507 289.944C258.403 289.644 258.363 289.325 258.39 289.009C258.442 288.347 258.738 287.728 259.22 287.272C259.702 286.816 260.336 286.555 261 286.539V286.539Z" fill="white"/>
<path opacity="0.3" d="M382.8 234.699H329.4C328.733 234.71 328.093 234.969 327.607 235.426C327.121 235.882 326.822 236.504 326.77 237.169C326.743 237.485 326.783 237.802 326.887 238.101C326.99 238.4 327.155 238.675 327.37 238.906C327.586 239.138 327.848 239.322 328.139 239.446C328.43 239.571 328.743 239.633 329.06 239.629H382.46C383.126 239.621 383.765 239.365 384.252 238.91C384.739 238.454 385.038 237.834 385.09 237.169V237.169C385.118 236.853 385.079 236.535 384.977 236.234C384.874 235.934 384.709 235.659 384.493 235.426C384.278 235.193 384.015 235.008 383.724 234.883C383.432 234.758 383.117 234.695 382.8 234.699V234.699Z" fill="#58B368"/>
<path opacity="0.3" d="M355.34 223.86H330.14C329.473 223.87 328.833 224.129 328.347 224.586C327.861 225.042 327.562 225.664 327.51 226.33V226.33C327.483 226.646 327.523 226.964 327.627 227.264C327.731 227.564 327.897 227.838 328.114 228.07C328.331 228.302 328.593 228.486 328.886 228.61C329.178 228.734 329.493 228.795 329.81 228.79H355C355.667 228.78 356.306 228.522 356.794 228.068C357.281 227.613 357.583 226.994 357.64 226.33V226.33C357.666 226.013 357.626 225.694 357.523 225.394C357.419 225.093 357.253 224.818 357.036 224.586C356.82 224.353 356.557 224.168 356.265 224.043C355.973 223.918 355.658 223.856 355.34 223.86V223.86Z" fill="#58B368"/>
<path d="M370.09 213.001H330.89C330.223 213.011 329.584 213.268 329.096 213.723C328.609 214.177 328.307 214.797 328.25 215.461V215.461C328.224 215.778 328.264 216.097 328.368 216.397C328.471 216.697 328.637 216.972 328.854 217.205C329.07 217.438 329.333 217.622 329.625 217.747C329.917 217.872 330.232 217.935 330.55 217.931H369.76C370.428 217.923 371.069 217.665 371.555 217.208C372.042 216.75 372.34 216.127 372.39 215.461C372.417 215.145 372.377 214.827 372.273 214.527C372.169 214.227 372.003 213.952 371.786 213.72C371.57 213.489 371.307 213.305 371.014 213.181C370.722 213.057 370.407 212.996 370.09 213.001V213.001Z" fill="white"/>
<path opacity="0.3" d="M401.8 223.86H366C365.332 223.872 364.693 224.131 364.206 224.587C363.718 225.044 363.417 225.664 363.36 226.33C363.333 226.646 363.373 226.964 363.477 227.264C363.581 227.564 363.747 227.838 363.964 228.07C364.181 228.302 364.444 228.486 364.736 228.61C365.028 228.734 365.343 228.795 365.66 228.79H401.46C402.127 228.78 402.766 228.522 403.254 228.068C403.742 227.613 404.043 226.994 404.1 226.33V226.33C404.127 226.013 404.087 225.694 403.983 225.394C403.879 225.093 403.713 224.818 403.497 224.586C403.28 224.353 403.017 224.168 402.725 224.043C402.433 223.918 402.118 223.856 401.8 223.86V223.86Z" fill="#58B368"/>
<path opacity="0.3" d="M240.81 121.601H267.59L266.17 97.8711L240.81 121.601Z" fill="#58B368"/>
<path d="M240.81 121.601L269.48 118.171L266.17 97.8711L240.81 121.601Z" fill="#58B368"/>
<path d="M132.78 191.902C131.93 193.902 130.99 196.122 130.16 198.262C129.33 200.402 128.48 202.592 127.71 204.762C126.144 209.006 124.858 213.349 123.86 217.762C123.72 218.302 123.65 218.832 123.55 219.362L123.41 220.162L123.3 220.792C123.201 221.681 123.181 222.578 123.24 223.472C123.412 225.657 123.71 227.83 124.13 229.982C124.99 234.472 126.13 239.122 127.26 243.682L122.18 245.832C119.656 241.516 117.528 236.981 115.82 232.282C114.907 229.811 114.201 227.269 113.71 224.682C113.417 223.193 113.286 221.678 113.32 220.162V219.512C113.32 219.302 113.32 219.172 113.32 218.992L113.42 217.992C113.49 217.342 113.53 216.672 113.64 215.992C114.381 210.949 115.549 205.977 117.13 201.132C117.91 198.742 118.71 196.382 119.64 194.072C120.57 191.762 121.47 189.492 122.64 187.122L132.78 191.902Z" fill="#7F3E3B"/>
<path d="M127.09 242.442L130.99 246.242L122.48 250.242C122.48 250.242 120.42 246.642 121.84 243.382L127.09 242.442Z" fill="#7F3E3B"/>
<path d="M134.13 251.909L126.95 254.849L122.48 250.199L130.99 246.239L134.13 251.909Z" fill="#7F3E3B"/>
<path d="M319.796 230.031C331.032 202.906 318.151 171.809 291.026 160.574C263.902 149.339 232.805 162.219 221.57 189.344C210.334 216.469 223.215 247.566 250.34 258.801C277.464 270.036 308.561 257.156 319.796 230.031Z" fill="#58B368"/>
<path d="M270.68 260.049C298.493 260.049 321.04 237.502 321.04 209.689C321.04 181.876 298.493 159.329 270.68 159.329C242.867 159.329 220.32 181.876 220.32 209.689C220.32 237.502 242.867 260.049 270.68 260.049Z" fill="white"/>
<path d="M292.54 221.282C293.1 225.402 293.54 229.542 294.03 233.672L295.39 246.002L295.57 247.482L295.78 248.812L296.07 250.192L296.42 251.602C296.94 253.492 297.53 255.412 298.19 257.332C299.47 261.182 300.97 265.042 302.44 268.882L299 270.742C296.64 267.188 294.509 263.487 292.62 259.662C291.69 257.722 290.8 255.752 290.04 253.662L289.48 252.082L288.98 250.432C288.83 249.862 288.7 249.272 288.56 248.692L288.25 247.092C287.48 242.912 286.85 238.792 286.25 234.652C285.65 230.512 285.12 226.372 284.68 222.212L292.54 221.282Z" fill="#FF8B7B"/>
<path d="M290.05 212.57C293.24 213.38 295.47 226.51 295.47 226.51L283.28 234.8C283.28 234.8 278.28 219.24 280.71 215.74C283.27 212.09 285.4 211.39 290.05 212.57Z" fill="#58B368"/>
<path opacity="0.2" d="M289.77 215.5L292.22 228.73L287.28 232.08L289.77 215.5Z" fill="black"/>
<path d="M302.4 268.101L306.4 275.381L299.64 275.561C299.64 275.561 297.32 270.381 299.24 267.801L302.4 268.101Z" fill="#FFB573"/>
<path d="M252.91 178.75C247.61 179.52 238.12 205.17 257.27 217.14C276.42 229.11 289 215.51 289 215.51C289 215.51 276.95 202.26 278 193.62C279.05 184.98 285.24 174.09 270.72 170.46C260.43 167.89 247.1 170.37 252.91 178.75Z" fill="#454D66"/>
<path d="M306.89 278.99L301.12 278.51L299.66 275.56L306.42 275.38L306.89 278.99Z" fill="#FFB573"/>
<path d="M290.05 212.572C290.05 212.572 293.74 213.872 286.36 259.272H254.93C255.46 246.482 255.47 238.602 249.36 212.352C253.757 211.438 258.216 210.85 262.7 210.592C267.45 210.246 272.219 210.246 276.97 210.592C283.1 211.152 290.05 212.572 290.05 212.572Z" fill="#58B368"/>
<path opacity="0.2" d="M252 222.739C254.85 223.449 257.48 226.549 257.16 232.269C256.986 234.868 256.078 237.365 254.54 239.469C254.04 235.069 253.19 229.969 251.86 223.469L252 222.739Z" fill="black"/>
<path d="M275.32 220.65C275.32 220.65 270.17 224.89 270.17 229.4C265.89 226.27 260.12 217.73 259.51 212.27C259.491 212.05 259.517 211.828 259.585 211.618C259.654 211.408 259.765 211.214 259.911 211.047C260.056 210.881 260.234 210.746 260.433 210.65C260.633 210.554 260.849 210.5 261.07 210.49C261.453 210.469 261.834 210.419 262.21 210.34C262.371 210.306 262.537 210.309 262.697 210.349C262.856 210.388 263.004 210.464 263.13 210.57L275.32 220.65Z" fill="#FAFAFA"/>
<path d="M275.32 220.65C276.821 221.543 278.101 222.763 279.065 224.219C280.029 225.675 280.653 227.33 280.89 229.06C285.22 225.89 283.01 216.41 280.6 211.77C280.411 211.409 280.136 211.1 279.799 210.869C279.463 210.639 279.075 210.495 278.67 210.45C278.03 210.37 277.55 210.29 277.23 210.22C277.172 210.209 277.112 210.209 277.054 210.222C276.997 210.235 276.942 210.259 276.894 210.294C276.846 210.329 276.806 210.373 276.776 210.424C276.746 210.475 276.727 210.531 276.72 210.59L275.32 220.65Z" fill="#FAFAFA"/>
<path d="M264.12 194.52C265.02 199.11 265.92 207.52 262.7 210.59C266.187 214.758 270.48 218.179 275.32 220.65C281.69 215.57 276.97 210.59 276.97 210.59C271.85 209.37 271.97 205.59 272.88 202L264.12 194.52Z" fill="#FF8B7B"/>
<path opacity="0.2" d="M267.69 197.57L272.87 202C272.652 202.829 272.504 203.676 272.43 204.53C270.48 204.25 267.43 202.58 266.98 200.45C266.976 199.446 267.22 198.457 267.69 197.57V197.57Z" fill="black"/>
<path d="M256.42 187.151C258.54 194.531 259.28 197.691 263.92 200.701C270.92 205.211 279.49 200.991 279.61 193.121C279.72 186.041 276.23 175.121 268.25 173.811C266.49 173.506 264.681 173.655 262.995 174.245C261.309 174.835 259.801 175.847 258.616 177.183C257.431 178.52 256.607 180.137 256.222 181.882C255.838 183.626 255.906 185.44 256.42 187.151V187.151Z" fill="#FF8B7B"/>
<path d="M259 193.8C263.45 189.26 263.23 183.66 261.91 181.91C265.97 181.57 276.36 179 274.39 175.07C272.42 171.14 255.84 169 254.26 179.07C249.11 183.62 253.21 192.77 259 193.8Z" fill="#454D66"/>
<path d="M268.79 186.481C268.93 187.091 269.36 187.481 269.79 187.421C270.22 187.361 270.4 186.771 270.27 186.161C270.14 185.551 269.7 185.161 269.27 185.221C268.84 185.281 268.66 185.871 268.79 186.481Z" fill="#454D66"/>
<path d="M275.68 185.001C275.82 185.611 276.25 186.001 276.68 185.941C277.11 185.881 277.29 185.291 277.15 184.681C277.01 184.071 276.58 183.681 276.15 183.731C275.72 183.781 275.55 184.341 275.68 185.001Z" fill="#454D66"/>
<path d="M276 183.758L277.37 183.008C277.37 183.008 276.86 184.318 276 183.758Z" fill="#454D66"/>
<path d="M273.8 186.52C274.64 187.785 275.65 188.929 276.8 189.92C276.539 190.211 276.218 190.442 275.858 190.595C275.499 190.749 275.11 190.822 274.72 190.81L273.8 186.52Z" fill="#FF5652"/>
<path d="M272 193.94C272.309 193.919 272.617 193.876 272.92 193.81C272.967 193.798 273.008 193.769 273.034 193.728C273.06 193.687 273.069 193.638 273.06 193.59C273.048 193.543 273.019 193.502 272.978 193.476C272.937 193.45 272.888 193.441 272.84 193.45C272.086 193.633 271.299 193.638 270.542 193.465C269.785 193.291 269.079 192.944 268.48 192.45C268.445 192.417 268.398 192.399 268.35 192.399C268.302 192.399 268.255 192.417 268.22 192.45C268.203 192.467 268.189 192.487 268.179 192.509C268.169 192.532 268.165 192.556 268.165 192.58C268.165 192.604 268.169 192.628 268.179 192.651C268.189 192.673 268.203 192.693 268.22 192.71C268.737 193.156 269.337 193.495 269.986 193.706C270.635 193.917 271.32 193.997 272 193.94Z" fill="#454D66"/>
<path d="M255.93 194.509C256.343 195.117 256.871 195.638 257.486 196.041C258.1 196.444 258.788 196.722 259.51 196.859C261.45 197.219 262.24 195.449 261.51 193.709C260.89 192.149 259.14 190.089 257.27 190.509C256.866 190.617 256.496 190.823 256.192 191.11C255.887 191.396 255.659 191.753 255.526 192.149C255.393 192.545 255.361 192.968 255.431 193.38C255.502 193.792 255.673 194.179 255.93 194.509Z" fill="#FF8B7B"/>
<path d="M265.42 185.14C265.496 185.131 265.567 185.098 265.622 185.046C265.678 184.993 265.716 184.925 265.73 184.85C265.91 184.279 266.207 183.751 266.601 183.3C266.995 182.85 267.478 182.485 268.02 182.23C268.065 182.211 268.105 182.182 268.139 182.147C268.172 182.111 268.198 182.069 268.215 182.024C268.232 181.978 268.239 181.929 268.237 181.88C268.234 181.832 268.222 181.784 268.2 181.74C268.18 181.696 268.151 181.657 268.115 181.624C268.079 181.592 268.037 181.567 267.991 181.551C267.945 181.535 267.897 181.528 267.849 181.532C267.8 181.535 267.753 181.548 267.71 181.57C267.061 181.871 266.484 182.308 266.018 182.852C265.552 183.395 265.208 184.032 265.01 184.72C265.001 184.767 265.002 184.815 265.012 184.861C265.022 184.907 265.041 184.951 265.068 184.99C265.095 185.029 265.129 185.063 265.169 185.088C265.209 185.114 265.253 185.132 265.3 185.14C265.339 185.15 265.381 185.15 265.42 185.14Z" fill="#454D66"/>
<path d="M277 180.068C277.082 180.078 277.165 180.059 277.235 180.014C277.305 179.969 277.357 179.902 277.383 179.823C277.409 179.744 277.407 179.659 277.377 179.582C277.347 179.504 277.292 179.44 277.22 179.398C276.742 179.065 276.191 178.851 275.613 178.777C275.035 178.702 274.447 178.767 273.9 178.968C273.812 179.008 273.743 179.08 273.707 179.17C273.672 179.259 273.673 179.359 273.71 179.448C273.728 179.493 273.756 179.533 273.79 179.567C273.824 179.601 273.865 179.627 273.91 179.645C273.955 179.662 274.002 179.671 274.05 179.67C274.099 179.669 274.146 179.658 274.19 179.638C274.626 179.486 275.092 179.44 275.55 179.505C276.007 179.569 276.443 179.742 276.82 180.008C276.872 180.047 276.935 180.068 277 180.068V180.068Z" fill="#454D66"/>
<path d="M269.1 185.29L270.47 184.54C270.47 184.54 270 185.85 269.1 185.29Z" fill="#454D66"/>
<path d="M254.46 257.429L253.65 260.239C253.55 260.459 253.8 260.679 254.17 260.679H286.51C286.79 260.679 287.03 260.539 287.05 260.369L287.33 257.549C287.33 257.359 287.1 257.189 286.79 257.189H255C254.896 257.175 254.792 257.191 254.696 257.233C254.601 257.275 254.519 257.343 254.46 257.429Z" fill="#58B368"/>
<path opacity="0.2" d="M254.46 257.429L253.65 260.239C253.55 260.459 253.8 260.679 254.17 260.679H286.51C286.79 260.679 287.03 260.539 287.05 260.369L287.33 257.549C287.33 257.359 287.1 257.189 286.79 257.189H255C254.896 257.175 254.792 257.191 254.696 257.233C254.601 257.275 254.519 257.343 254.46 257.429Z" fill="white"/>
<path d="M258.84 261H258C257.83 261 257.7 260.91 257.71 260.8L258.11 257.15C258.11 257.04 258.27 256.95 258.44 256.95H259.29C259.46 256.95 259.59 257.04 259.58 257.15L259.18 260.8C259.16 260.9 259 261 258.84 261Z" fill="#58B368"/>
<path opacity="0.4" d="M258.84 261H258C257.83 261 257.7 260.91 257.71 260.8L258.11 257.15C258.11 257.04 258.27 256.95 258.44 256.95H259.29C259.46 256.95 259.59 257.04 259.58 257.15L259.18 260.8C259.16 260.9 259 261 258.84 261Z" fill="black"/>
<path d="M284.12 261H283.26C283.09 261 282.96 260.91 282.98 260.8L283.38 257.15C283.38 257.04 283.54 256.95 283.71 256.95H284.56C284.73 256.95 284.86 257.04 284.85 257.15L284.45 260.8C284.424 260.865 284.378 260.919 284.319 260.955C284.259 260.991 284.189 261.007 284.12 261Z" fill="#58B368"/>
<path opacity="0.4" d="M284.12 261H283.26C283.09 261 282.96 260.91 282.98 260.8L283.38 257.15C283.38 257.04 283.54 256.95 283.71 256.95H284.56C284.73 256.95 284.86 257.04 284.85 257.15L284.45 260.8C284.424 260.865 284.378 260.919 284.319 260.955C284.259 260.991 284.189 261.007 284.12 261Z" fill="black"/>
<path d="M271.53 261H270.68C270.51 261 270.38 260.91 270.39 260.8L270.79 257.15C270.79 257.04 270.95 256.95 271.12 256.95H272C272.17 256.95 272.3 257.04 272.29 257.15L271.89 260.8C271.85 260.9 271.7 261 271.53 261Z" fill="#58B368"/>
<path opacity="0.4" d="M271.53 261H270.68C270.51 261 270.38 260.91 270.39 260.8L270.79 257.15C270.79 257.04 270.95 256.95 271.12 256.95H272C272.17 256.95 272.3 257.04 272.29 257.15L271.89 260.8C271.85 260.9 271.7 261 271.53 261Z" fill="black"/>
<path d="M273.81 265.55L281.44 262.13L279.27 269.7C279.27 269.7 274.42 270.8 272.32 268.37L273.81 265.55Z" fill="#FFB573"/>
<path d="M253.56 222.56C253.3 225.22 252.97 227.88 252.68 230.56L251.68 238.56C251.36 241.21 250.94 243.86 250.58 246.56L250.01 250.56L249.83 251.82C249.841 252.016 249.896 252.207 249.99 252.38C250.425 253.145 250.998 253.823 251.68 254.38C252.57 255.115 253.512 255.783 254.5 256.38C256.657 257.693 258.898 258.862 261.21 259.88C263.57 260.95 266 261.88 268.47 262.81C270.94 263.74 273.47 264.59 275.92 265.4L275.04 269.22C269.624 268.347 264.289 267.029 259.09 265.28C256.399 264.4 253.784 263.303 251.27 262C249.924 261.299 248.639 260.486 247.43 259.57C245.98 258.513 244.755 257.177 243.83 255.64C243.285 254.634 242.945 253.529 242.83 252.39C242.83 252.08 242.78 251.77 242.83 251.46C242.88 251.15 242.83 250.76 242.88 250.66L242.97 249.66L243.31 245.66C243.56 243 243.75 240.33 244.04 237.66L244.85 229.66C245.17 227 245.44 224.34 245.79 221.66L253.56 222.56Z" fill="#FF8B7B"/>
<path d="M249.36 212.352C246.21 213.352 242.43 224.152 242.43 224.152L253.43 235.492C253.43 235.492 259.08 223.832 257.75 219.762C256.4 215.522 253 211.252 249.36 212.352Z" fill="#58B368"/>
<path d="M287.76 263.7L285.6 269.94L279.27 269.7L281.44 262.13L287.76 263.7Z" fill="#FFB573"/>
<path opacity="0.2" d="M222.52 222.659C219.954 213.135 220.27 203.065 223.428 193.721C226.586 184.377 232.443 176.179 240.26 170.164C248.077 164.149 257.502 160.587 267.343 159.928C277.184 159.27 286.999 161.544 295.548 166.464C304.097 171.383 310.994 178.727 315.369 187.567C319.744 196.407 321.399 206.346 320.126 216.126C318.852 225.907 314.707 235.09 308.214 242.515C301.722 249.94 293.173 255.272 283.65 257.839C277.326 259.543 270.729 259.985 264.234 259.139C257.739 258.294 251.475 256.177 245.798 252.91C240.122 249.643 235.144 245.291 231.15 240.1C227.156 234.909 224.224 228.983 222.52 222.659V222.659Z" fill="#58B368"/>
<path opacity="0.2" d="M306.82 175.32L265.75 259.32C269.273 259.68 272.824 259.649 276.34 259.23L313.27 183.73C311.429 180.703 309.266 177.883 306.82 175.32V175.32ZM318.82 196.7L318.55 195.7L289.06 256.02C300.433 251.504 309.75 242.965 315.237 232.028C320.724 221.09 322 208.517 318.82 196.7ZM257.69 161.53C248.985 163.877 241.079 168.538 234.812 175.02C228.545 181.502 224.153 189.561 222.101 198.34C220.049 207.119 220.415 216.29 223.16 224.878C225.905 233.465 230.927 241.149 237.69 247.11L280 160.68C272.595 159.265 264.966 159.556 257.69 161.53V161.53Z" fill="white"/>
<path d="M214.56 204.27L213.56 204.17C213.72 202.46 213.97 200.74 214.29 199.06L215.29 199.25C215 200.9 214.73 202.59 214.56 204.27ZM216.5 194.12L215.5 193.84C216.817 189.385 218.664 185.105 221 181.09L221.87 181.59C219.586 185.537 217.783 189.744 216.5 194.12V194.12Z" fill="#58B368"/>
<path d="M322.66 195.668C319.89 185.387 314.133 176.159 306.118 169.149C298.104 162.14 288.19 157.664 277.632 156.288C267.074 154.912 256.345 156.697 246.801 161.419C237.258 166.14 229.328 173.585 224.015 182.812C218.703 192.04 216.245 202.635 216.954 213.259C217.662 223.883 221.505 234.058 227.996 242.499C234.487 250.939 243.335 257.265 253.421 260.677C263.507 264.089 274.378 264.434 284.66 261.668C291.49 259.831 297.89 256.666 303.496 252.355C309.103 248.043 313.804 242.67 317.333 236.541C320.862 230.412 323.149 223.647 324.063 216.634C324.977 209.621 324.5 202.497 322.66 195.668V195.668ZM222.52 222.668C219.954 213.145 220.27 203.074 223.428 193.73C226.586 184.386 232.443 176.188 240.26 170.173C248.077 164.158 257.502 160.596 267.343 159.937C277.184 159.279 287 161.553 295.548 166.473C304.097 171.392 310.995 178.737 315.369 187.576C319.744 196.416 321.399 206.355 320.126 216.135C318.852 225.916 314.707 235.099 308.214 242.524C301.722 249.949 293.173 255.282 283.65 257.848C277.325 259.552 270.727 259.994 264.232 259.147C257.737 258.301 251.472 256.184 245.796 252.916C240.119 249.648 235.142 245.294 231.148 240.102C227.154 234.911 224.223 228.983 222.52 222.658V222.668Z" fill="#58B368"/>
<path d="M223.32 230.909C223.32 233.199 222.73 233.499 222.1 233.569L220.29 234.049L216.66 235.049L209.4 236.969L194.85 240.699C185.137 243.139 175.41 245.515 165.67 247.829L136.45 254.829L121.86 258.369C117 259.579 112.12 260.699 107.31 262.099C106.822 262.242 106.311 262.288 105.805 262.233C105.3 262.179 104.81 262.025 104.364 261.781C103.918 261.538 103.524 261.208 103.205 260.812C102.886 260.416 102.648 259.962 102.505 259.474C102.362 258.986 102.316 258.475 102.371 257.969C102.425 257.464 102.579 256.974 102.822 256.528C103.066 256.081 103.395 255.688 103.791 255.369C104.187 255.05 104.642 254.812 105.13 254.669H105.29C110.16 253.469 114.94 251.979 119.74 250.589L134.14 246.319L162.91 237.659C172.503 234.759 182.107 231.922 191.72 229.149L206.17 224.999L213.41 222.999L217.03 221.999L218.84 221.499C219.42 221.249 220.06 221.219 221.24 223.189C222.627 225.523 223.347 228.194 223.32 230.909V230.909Z" fill="#58B368"/>
<path d="M160.4 156.3C160.4 156.89 160.71 157.37 161.1 157.37C161.49 157.37 161.8 156.89 161.8 156.3C161.8 155.71 161.49 155.22 161.1 155.22C160.71 155.22 160.4 155.7 160.4 156.3Z" fill="#454D66"/>
<path d="M160.66 157.372C161.363 159.183 162.312 160.889 163.48 162.442C163.075 162.731 162.612 162.928 162.124 163.02C161.635 163.111 161.132 163.095 160.65 162.972L160.66 157.372Z" fill="#630F0F"/>
<path d="M158.3 153C158.227 152.998 158.157 152.973 158.099 152.93C158.041 152.886 157.998 152.825 157.976 152.756C157.954 152.687 157.954 152.612 157.976 152.543C157.999 152.474 158.042 152.414 158.1 152.37C158.542 152.039 159.056 151.817 159.6 151.723C160.144 151.629 160.703 151.666 161.23 151.83C161.316 151.864 161.385 151.93 161.422 152.014C161.46 152.098 161.463 152.194 161.43 152.28C161.396 152.366 161.33 152.435 161.246 152.473C161.162 152.51 161.066 152.513 160.98 152.48V152.48C160.56 152.355 160.117 152.331 159.686 152.409C159.255 152.487 158.849 152.666 158.5 152.93C158.444 152.976 158.373 153.001 158.3 153V153Z" fill="#454D66"/>
<path d="M141.32 160.13C141.85 165.92 141.92 176.45 137.83 179.9C137.83 179.9 138.76 185.81 148.7 186.73C159.63 187.73 154.46 181.44 154.46 181.44C148.63 179.37 149.22 174.67 150.67 170.35L141.32 160.13Z" fill="#7F3E3B"/>
<path d="M125.33 397.308C124.47 397.668 122.5 396.798 121.87 396.428C121.841 396.414 121.818 396.39 121.803 396.361C121.789 396.333 121.784 396.3 121.79 396.268C121.792 396.234 121.805 396.201 121.827 396.175C121.848 396.148 121.877 396.128 121.91 396.118C122.01 396.118 124.35 395.338 125.3 395.888C125.404 395.944 125.495 396.023 125.566 396.118C125.637 396.213 125.686 396.322 125.71 396.438C125.76 396.577 125.765 396.729 125.723 396.871C125.682 397.013 125.597 397.138 125.48 397.228C125.433 397.261 125.383 397.288 125.33 397.308ZM122.42 396.308C123.42 396.808 124.85 397.228 125.27 396.928C125.27 396.928 125.44 396.808 125.37 396.488C125.355 396.421 125.326 396.357 125.285 396.302C125.243 396.247 125.191 396.201 125.13 396.168C124.23 395.956 123.288 396.011 122.42 396.328V396.308Z" fill="#58B368"/>
<path d="M122.51 396.29C122.345 396.359 122.175 396.413 122 396.45C121.97 396.461 121.937 396.462 121.907 396.453C121.876 396.444 121.849 396.425 121.83 396.4C121.815 396.372 121.807 396.341 121.807 396.31C121.807 396.279 121.815 396.248 121.83 396.22C121.83 396.14 122.64 394.16 123.66 393.74C123.781 393.686 123.912 393.658 124.045 393.658C124.178 393.658 124.309 393.686 124.43 393.74C124.556 393.775 124.665 393.853 124.739 393.961C124.812 394.07 124.844 394.2 124.83 394.33C124.73 395 123.44 395.9 122.51 396.29ZM122.27 396.01C123.17 395.67 124.4 394.79 124.46 394.3C124.46 394.25 124.46 394.15 124.26 394.05C124.182 394.013 124.097 393.993 124.01 393.993C123.924 393.993 123.838 394.013 123.76 394.05V394.05C123.11 394.33 122.53 395.44 122.27 396V396.01Z" fill="#58B368"/>
<path d="M170.76 409.109C170.006 409.106 169.253 409.039 168.51 408.909C168.475 408.902 168.444 408.885 168.419 408.86C168.394 408.835 168.377 408.803 168.37 408.769C168.362 408.733 168.367 408.696 168.383 408.663C168.399 408.63 168.427 408.604 168.46 408.589C168.57 408.519 171.13 407.059 172.36 407.389C172.59 407.448 172.788 407.595 172.91 407.799C172.988 407.91 173.03 408.043 173.03 408.179C173.03 408.315 172.988 408.448 172.91 408.559C172.62 408.999 171.71 409.109 170.76 409.109ZM169.07 408.649C170.44 408.839 172.3 408.829 172.64 408.359C172.64 408.299 172.73 408.189 172.64 407.969C172.603 407.907 172.554 407.854 172.496 407.813C172.437 407.771 172.37 407.743 172.3 407.729C171.51 407.519 170 408.189 169.07 408.649V408.649Z" fill="#58B368"/>
<path d="M168.54 408.908C168.507 408.917 168.473 408.917 168.44 408.908C168.415 408.89 168.395 408.866 168.383 408.838C168.371 408.81 168.366 408.779 168.37 408.748C168.37 408.668 168.58 406.688 169.51 405.918C169.648 405.803 169.808 405.718 169.979 405.666C170.151 405.614 170.332 405.598 170.51 405.618C170.98 405.668 171.12 405.908 171.15 406.108C171.29 406.938 169.53 408.528 168.65 408.928L168.54 408.908ZM170.34 405.908C170.117 405.915 169.902 405.996 169.73 406.138C169.175 406.772 168.826 407.561 168.73 408.398C169.64 407.858 170.83 406.608 170.73 406.108C170.73 406.108 170.73 405.948 170.39 405.918L170.34 405.908Z" fill="#58B368"/>
<path d="M160.47 408.74H167.81L168.54 391.73H161.2L160.47 408.74Z" fill="#7F3E3B"/>
<path d="M113.67 394.698L120.89 396.058L129.02 380.268L121.8 378.918L113.67 394.698Z" fill="#7F3E3B"/>
<path d="M121.68 395.31L113.78 392.93C113.641 392.889 113.492 392.896 113.357 392.95C113.223 393.005 113.111 393.104 113.04 393.23L109.76 399.07C109.682 399.213 109.637 399.372 109.629 399.534C109.62 399.697 109.649 399.86 109.713 400.01C109.776 400.16 109.873 400.294 109.995 400.401C110.118 400.508 110.263 400.587 110.42 400.63C113.19 401.41 114.58 401.63 118.05 402.7C120.19 403.34 125.81 405.7 128.77 406.57C131.73 407.44 132.98 404.65 131.85 404.02C126.79 401.21 123.96 398.17 122.69 396.09C122.463 395.713 122.102 395.435 121.68 395.31V395.31Z" fill="#454D66"/>
<path d="M167.76 407.891H159.76C159.615 407.89 159.474 407.94 159.361 408.031C159.248 408.122 159.17 408.249 159.14 408.391L157.69 414.921C157.653 415.078 157.653 415.241 157.689 415.398C157.725 415.555 157.797 415.702 157.898 415.827C157.999 415.953 158.127 416.053 158.273 416.121C158.419 416.19 158.579 416.224 158.74 416.221C161.64 416.221 165.82 416.011 169.46 416.011C173.71 416.011 177.38 416.241 182.37 416.241C185.37 416.241 186.22 413.191 184.96 412.911C179.21 411.661 174.52 411.521 169.55 408.461C169.018 408.107 168.398 407.91 167.76 407.891V407.891Z" fill="#454D66"/>
<path d="M124 181.77C117.62 184.77 115 205.33 115 205.33L129.65 211.08C131.923 205.514 133.762 199.78 135.15 193.93C137.25 184.65 130.55 178.65 124 181.77Z" fill="#58B368"/>
<path opacity="0.3" d="M124 181.77C117.62 184.77 115 205.33 115 205.33L129.65 211.08C131.923 205.514 133.762 199.78 135.15 193.93C137.25 184.65 130.55 178.65 124 181.77Z" fill="black"/>
<path opacity="0.2" d="M133.53 187.8C134.029 187.558 134.552 187.367 135.09 187.23C135.674 189.423 135.695 191.727 135.15 193.93C133.762 199.78 131.923 205.514 129.65 211.08L124.82 209.19C125.71 203.82 128.44 190.24 133.53 187.8Z" fill="black"/>
<path d="M166.52 181.609C166.52 181.609 174.34 190.439 166.95 245.109H127.66C127.39 239.109 131.18 209.649 125.36 181.229C129.706 180.393 134.102 179.838 138.52 179.569C144.082 179.249 149.658 179.249 155.22 179.569C159.034 179.953 162.812 180.635 166.52 181.609V181.609Z" fill="#58B368"/>
<path opacity="0.3" d="M166.52 181.609C166.52 181.609 174.34 190.439 166.95 245.109H127.66C127.39 239.109 131.18 209.649 125.36 181.229C129.706 180.393 134.102 179.838 138.52 179.569C144.082 179.249 149.658 179.249 155.22 179.569C159.034 179.953 162.812 180.635 166.52 181.609V181.609Z" fill="black"/>
<path opacity="0.2" d="M158.61 193.33C160.39 187.99 164.67 186.28 169.03 189.45C169.91 194.63 170.53 202.98 169.82 216.22L162.15 216.15C162.15 216.15 156 201.28 158.61 193.33Z" fill="black"/>
<path d="M171.06 189.68C171.44 191.97 171.86 194.47 172.33 196.85C172.8 199.23 173.33 201.65 173.89 204.01C174.926 208.652 176.333 213.204 178.1 217.62C178.55 218.62 179.01 219.68 179.52 220.62L180.17 221.8C180.334 222.066 180.525 222.314 180.74 222.54C182.229 223.953 183.913 225.145 185.74 226.08C190.058 228.325 194.509 230.302 199.07 232L197.98 237.4C192.601 237.028 187.295 235.945 182.2 234.18C180.832 233.704 179.495 233.139 178.2 232.49C176.781 231.766 175.441 230.898 174.2 229.9C173.47 229.3 172.8 228.63 172.2 227.9L171.72 227.27L171.41 226.8C171.2 226.49 170.99 226.18 170.8 225.87C170.02 224.62 169.33 223.37 168.69 222.11C166.349 217.213 164.493 212.099 163.15 206.84C162.48 204.27 161.86 201.71 161.36 199.12C160.86 196.53 160.36 194 160.06 191.24L171.06 189.68Z" fill="#7F3E3B"/>
<path d="M156.7 186.999C154.63 193.709 163.03 213.709 163.03 213.709L180.72 209.259C179.637 202.937 177.815 196.765 175.29 190.869C169.55 178.389 159.19 178.909 156.7 186.999Z" fill="#58B368"/>
<path opacity="0.3" d="M156.7 186.999C154.63 193.709 163.03 213.709 163.03 213.709L180.72 209.259C179.637 202.937 177.815 196.765 175.29 190.869C169.55 178.389 159.19 178.909 156.7 186.999Z" fill="black"/>
<path d="M199.18 232L206.77 235.41L199.41 241.48C199.41 241.48 196.17 240.42 195.64 235.1L194.51 230.68L197.84 231.53C198.3 231.646 198.748 231.803 199.18 232V232Z" fill="#7F3E3B"/>
<path d="M210.8 239.092L203.41 243.502L199.41 241.442L206.76 235.372L210.8 239.092Z" fill="#7F3E3B"/>
<path d="M158.56 178.92C155.39 176.24 147.69 174.31 139.07 173.83C134.14 173.56 129.07 174.37 126.96 175.31C124.85 176.25 127.35 183.04 130.11 183.19C128.65 185.49 130.77 189.93 133.94 190.8C133.44 194.64 143.12 195 148.94 191.9C153.64 189.43 162.36 182.13 158.56 178.92Z" fill="#454D66"/>
<path opacity="0.2" d="M168.54 391.73L168.17 400.5H160.82L161.19 391.73H168.54Z" fill="black"/>
<path opacity="0.2" d="M121.79 378.918L129.02 380.278L124.83 388.408L117.6 387.048L121.79 378.918Z" fill="black"/>
<path d="M140.64 154.998C141.08 162.278 140.96 166.558 144.64 170.298C150.16 175.918 159.15 172.598 160.89 165.298C162.46 158.758 161.47 147.958 154.35 145.048C152.78 144.399 151.07 144.163 149.382 144.362C147.695 144.562 146.087 145.191 144.712 146.189C143.337 147.187 142.241 148.521 141.528 150.063C140.815 151.605 140.509 153.304 140.64 154.998Z" fill="#7F3E3B"/>
<path d="M154.26 159.06C157.01 156.28 161.53 150.22 159.95 145.67C157.62 138.94 150.67 141.22 151.78 142.56C147.78 139.92 139.7 139.79 141.39 143.33C134.12 144.33 133.53 147.28 135.55 148.39C130.37 153.33 130.62 158.44 134.55 158.06C131.55 161.06 137.07 167 143.24 169.83C145.34 164.33 156.58 163.33 154.26 159.06Z" fill="#454D66"/>
<path d="M151.07 161.69C151.024 161.703 150.976 161.703 150.93 161.69C150.903 161.671 150.88 161.647 150.862 161.619C150.845 161.591 150.833 161.56 150.827 161.527C150.821 161.495 150.822 161.462 150.83 161.429C150.837 161.397 150.851 161.367 150.87 161.34C152.45 159.02 153.99 157.16 155.35 155.52C157.95 152.38 159.83 150.11 159.99 147.03C160.027 145.768 159.67 144.526 158.967 143.477C158.264 142.428 157.251 141.625 156.07 141.18C154.21 140.34 152.21 140.29 151.42 141.07C151 141.48 150.96 142.07 151.3 142.89C151.315 142.919 151.323 142.951 151.324 142.984C151.325 143.017 151.32 143.049 151.307 143.079C151.295 143.11 151.276 143.137 151.253 143.159C151.229 143.182 151.201 143.199 151.17 143.21C151.14 143.223 151.107 143.23 151.074 143.231C151.041 143.232 151.009 143.226 150.978 143.214C150.947 143.202 150.919 143.184 150.896 143.161C150.872 143.138 150.853 143.11 150.84 143.08C150.619 142.712 150.522 142.284 150.564 141.857C150.605 141.43 150.783 141.028 151.07 140.71C152.01 139.79 154.2 139.79 156.28 140.71C157.553 141.193 158.643 142.062 159.398 143.195C160.153 144.328 160.535 145.669 160.49 147.03C160.32 150.28 158.4 152.6 155.74 155.81C154.38 157.45 152.85 159.3 151.28 161.61C151.254 161.639 151.221 161.661 151.184 161.675C151.148 161.689 151.109 161.694 151.07 161.69Z" fill="#454D66"/>
<path d="M151.43 158.24C151.563 160.046 152.287 161.757 153.49 163.11C155.09 164.87 156.77 163.77 157.05 161.63C157.3 159.69 156.78 156.44 154.82 155.47C152.86 154.5 151.3 156.06 151.43 158.24Z" fill="#7F3E3B"/>
<path d="M153 245.11C153 245.11 155.48 294.63 150.65 315.61C143 348.83 128.37 387.36 128.37 387.36L114.75 384.79C114.75 384.79 126.22 346.21 128.75 318.55C130.98 293.71 127.68 265.18 127.68 245.11H153Z" fill="#454D66"/>
<path opacity="0.2" d="M149.33 259.78C150.33 257.85 152.28 263.6 153.64 270.98C153.64 281.16 153.46 292.74 152.57 302.55C145.77 290 147.22 263.78 149.33 259.78Z" fill="black"/>
<path d="M131.71 383.179C131.77 383.179 129.58 387.899 129.58 387.899L113.82 384.829L115.54 380.079L131.71 383.179Z" fill="#2C6BDB"/>
<path d="M167 245.11C167 245.11 178 292 178.8 314.41C179.67 339.54 170.9 398.8 170.9 398.8H158.46C158.46 398.8 156.93 339.08 156.37 316.19C155.77 291.24 141.13 245.11 141.13 245.11H167Z" fill="#454D66"/>
<path d="M173.3 393.84C173.36 393.84 172.6 399.01 172.6 399.01H157.46L157.05 394.4L173.3 393.84Z" fill="#2C6BDB"/>
</svg>
