<svg width="51" height="44" viewBox="0 0 51 44" fill="none" xmlns="http://www.w3.org/2000/svg">
<path d="M50.7418 3H0V41.4906H50.7418V3Z" fill="#58B368"/>
<path opacity="0.8" d="M50.7418 3H0V41.4906H50.7418V3Z" fill="white"/>
<path d="M49.2891 40.0413V4.44727L1.44387 4.44727V40.0413H49.2891Z" fill="#58B368"/>
<path opacity="0.6" d="M49.2891 40.0413V4.44727L1.44387 4.44727V40.0413H49.2891Z" fill="white"/>
<path opacity="0.1" d="M48.4234 26.9808V39.1702H2.32031V32.6967L12.2058 22.8112L21.9831 32.5884L38.0071 16.5645L48.4234 26.9808Z" fill="black"/>
<path d="M18.2523 16.6342C20.4192 15.7366 21.4483 13.2523 20.5507 11.0853C19.6531 8.91832 17.1688 7.88928 15.0018 8.78687C12.8348 9.68447 11.8058 12.1688 12.7034 14.3358C13.601 16.5028 16.0853 17.5318 18.2523 16.6342Z" fill="white"/>
</svg>
