<svg width="280" height="180" viewBox="0 0 280 180" fill="none" xmlns="http://www.w3.org/2000/svg">
<g clip-path="url(#clip0_4_2828)">
<path d="M260.287 157.995H19V158.115H260.287V157.995Z" fill="#EBEBEB"/>
<path d="M92.5925 160.909H87.5352V161.03H92.5925V160.909Z" fill="#EBEBEB"/>
<path d="M243.965 164.075H235.352V164.196H243.965V164.075Z" fill="#EBEBEB"/>
<path d="M203.29 160.967H174.746V161.088H203.29V160.967Z" fill="#EBEBEB"/>
<path d="M131.87 163.718H110.033V163.838H131.87V163.718Z" fill="#EBEBEB"/>
<path d="M86.4066 162.956H78.8398V163.076H86.4066V162.956Z" fill="#EBEBEB"/>
<path d="M224.74 163.718H213.854V163.838H224.74V163.718Z" fill="#EBEBEB"/>
<path d="M76.0262 162.897H50.334V163.018H76.0262V162.897Z" fill="#EBEBEB"/>
<path d="M133.37 136.472H40.1901C39.4602 136.471 38.7605 136.18 38.2448 135.663C37.7291 135.146 37.4395 134.446 37.4395 133.716V2.73137C37.4458 2.00559 37.7383 1.31163 38.2533 0.800213C38.7683 0.2888 39.4643 0.0012433 40.1901 0H133.37C134.101 0 134.802 0.29031 135.319 0.807066C135.835 1.32382 136.126 2.02469 136.126 2.7555V2.7555V133.716C136.126 134.447 135.835 135.148 135.319 135.665C134.802 136.182 134.101 136.472 133.37 136.472V136.472ZM40.1901 0.0965151C39.4922 0.0977935 38.8232 0.375956 38.3301 0.869949C37.837 1.36394 37.5601 2.0334 37.5601 2.73137V133.716C37.5601 134.414 37.837 135.084 38.3301 135.578C38.8232 136.072 39.4922 136.35 40.1901 136.351H133.37C134.068 136.349 134.737 136.07 135.231 135.577C135.724 135.083 136.003 134.414 136.005 133.716V2.73137C136.003 2.03334 135.724 1.36464 135.231 0.871055C134.737 0.377474 134.068 0.099058 133.37 0.0965151H40.1901Z" fill="#EBEBEB"/>
<path d="M237.755 136.472H144.57C143.84 136.469 143.141 136.178 142.624 135.662C142.108 135.146 141.817 134.446 141.814 133.716V2.73137C141.822 2.00515 142.116 1.31119 142.631 0.799911C143.147 0.288632 143.844 0.00122974 144.57 0H237.755C238.48 0.00251155 239.175 0.29063 239.689 0.801906C240.203 1.31318 240.494 2.00642 240.501 2.73137V133.716C240.501 134.078 240.431 134.435 240.293 134.769C240.156 135.103 239.954 135.407 239.699 135.663C239.444 135.919 239.141 136.122 238.807 136.261C238.474 136.399 238.116 136.471 237.755 136.472V136.472ZM144.57 0.0965151C143.872 0.099058 143.203 0.377474 142.71 0.871055C142.216 1.36464 141.938 2.03334 141.935 2.73137V133.716C141.938 134.414 142.216 135.083 142.71 135.577C143.203 136.07 143.872 136.349 144.57 136.351H237.755C238.453 136.349 239.122 136.07 239.615 135.577C240.109 135.083 240.387 134.414 240.39 133.716V2.73137C240.387 2.03334 240.109 1.36464 239.615 0.871055C239.122 0.377474 238.453 0.099058 237.755 0.0965151H144.57Z" fill="#EBEBEB"/>
<path d="M117.344 14.2988H56.4238V105.476H117.344V14.2988Z" fill="#EAEAEA"/>
<path d="M115.992 14.2988H55.0723V105.476H115.992V14.2988Z" fill="#F5F5F5"/>
<path d="M113.561 17.0298H57.5V102.749H113.561V17.0298Z" fill="white"/>
<path d="M58.527 17.0254H57.5039V102.745H58.527V17.0254Z" fill="#EAEAEA"/>
<path d="M114.984 76.1499H56.0762V79.8126H114.984V76.1499Z" fill="#F5F5F5"/>
<path opacity="0.4" d="M114.988 10.1582H52.543V28.911H114.988V10.1582Z" fill="#F0F0F0"/>
<path d="M52.4221 9.78189H119.982C120.075 9.78645 120.162 9.82489 120.228 9.88988C120.294 9.95486 120.334 10.0418 120.34 10.1342V10.1342C120.34 10.234 120.3 10.3297 120.229 10.4003C120.159 10.4709 120.063 10.5106 119.963 10.5106H52.4028C52.3038 10.5093 52.2093 10.4691 52.1398 10.3986C52.0702 10.3282 52.0312 10.2332 52.0313 10.1342V10.1342C52.0387 10.0365 52.0834 9.94537 52.1562 9.87978C52.229 9.81419 52.3242 9.77913 52.4221 9.78189V9.78189Z" fill="#EAEAEA"/>
<path d="M50.1797 10.1342C50.1787 10.5045 50.2876 10.8668 50.4926 11.1752C50.6975 11.4837 50.9893 11.7244 51.3311 11.867C51.6729 12.0096 52.0492 12.0476 52.4126 11.9763C52.776 11.905 53.1101 11.7276 53.3726 11.4664C53.6352 11.2052 53.8143 10.872 53.8875 10.509C53.9607 10.146 53.9246 9.76942 53.7838 9.42692C53.6429 9.08442 53.4037 8.79138 53.0963 8.58485C52.7889 8.37831 52.4272 8.26756 52.0569 8.26661V8.26661C51.811 8.26597 51.5674 8.31378 51.34 8.40729C51.1126 8.5008 50.9058 8.63819 50.7315 8.81161C50.5572 8.98502 50.4187 9.19108 50.3241 9.418C50.2294 9.64493 50.1803 9.88828 50.1797 10.1342V10.1342Z" fill="#EAEAEA"/>
<path d="M116.843 12.2476C116.973 12.2478 117.098 12.1977 117.193 12.1078C117.287 12.018 117.343 11.8952 117.349 11.765V10.6599C117.343 10.5298 117.287 10.407 117.193 10.3171C117.098 10.2273 116.973 10.1772 116.843 10.1774V10.1774C116.777 10.1741 116.712 10.1842 116.651 10.2069C116.589 10.2297 116.533 10.2647 116.486 10.3099C116.438 10.355 116.401 10.4093 116.375 10.4695C116.349 10.5297 116.336 10.5945 116.336 10.6599V11.7699C116.336 11.8978 116.387 12.0206 116.477 12.1111C116.568 12.2016 116.691 12.2524 116.819 12.2524L116.843 12.2476Z" fill="#EAEAEA"/>
<path d="M58.088 12.2475C58.216 12.2475 58.3388 12.1966 58.4293 12.1061C58.5198 12.0156 58.5706 11.8929 58.5706 11.7649V10.6598C58.5706 10.5318 58.5198 10.4091 58.4293 10.3186C58.3388 10.2281 58.216 10.1772 58.088 10.1772C57.9601 10.1772 57.8373 10.2281 57.7468 10.3186C57.6563 10.4091 57.6055 10.5318 57.6055 10.6598V11.7456C57.6055 11.8736 57.6563 11.9963 57.7468 12.0868C57.8373 12.1773 57.9601 12.2282 58.088 12.2282V12.2475Z" fill="#EAEAEA"/>
<path d="M108.957 10.1342C108.956 10.5045 109.065 10.8668 109.27 11.1752C109.475 11.4837 109.767 11.7244 110.108 11.867C110.45 12.0096 110.827 12.0476 111.19 11.9763C111.553 11.905 111.887 11.7276 112.15 11.4664C112.412 11.2052 112.592 10.872 112.665 10.509C112.738 10.146 112.702 9.76942 112.561 9.42692C112.42 9.08442 112.181 8.79138 111.874 8.58485C111.566 8.37831 111.205 8.26756 110.834 8.26661V8.26661C110.588 8.26597 110.345 8.31378 110.117 8.40729C109.89 8.5008 109.683 8.63819 109.509 8.81161C109.335 8.98502 109.196 9.19108 109.101 9.418C109.007 9.64493 108.958 9.88828 108.957 10.1342V10.1342Z" fill="#EAEAEA"/>
<path d="M226.135 116.445H208.512V155.514H226.135V116.445Z" fill="#EAEAEA"/>
<path d="M222.751 155.519H135.85V157.995H222.751V155.519Z" fill="#EAEAEA"/>
<path d="M208.512 116.45H132.463V155.519H208.512V116.45Z" fill="#F5F5F5"/>
<path d="M201.587 121.256H139.393V134.069H201.587V121.256Z" fill="#EAEAEA"/>
<path d="M201.587 137.896H139.393V150.708H201.587V137.896Z" fill="#EAEAEA"/>
<path d="M178.408 126.787H162.56C162.131 126.787 161.783 127.134 161.783 127.564V127.766C161.783 128.195 162.131 128.543 162.56 128.543H178.408C178.837 128.543 179.185 128.195 179.185 127.766V127.564C179.185 127.134 178.837 126.787 178.408 126.787Z" fill="#F5F5F5"/>
<path d="M178.408 143.421H162.56C162.131 143.421 161.783 143.769 161.783 144.198V144.401C161.783 144.83 162.131 145.177 162.56 145.177H178.408C178.837 145.177 179.185 144.83 179.185 144.401V144.198C179.185 143.769 178.837 143.421 178.408 143.421Z" fill="#F5F5F5"/>
<path d="M187.501 110.842C189.654 110.842 191.4 109.097 191.4 106.943C191.4 104.79 189.654 103.044 187.501 103.044C185.347 103.044 183.602 104.79 183.602 106.943C183.602 109.097 185.347 110.842 187.501 110.842Z" fill="#F5F5F5"/>
<path d="M180.465 109.959C182.61 109.959 184.35 108.22 184.35 106.075C184.35 103.929 182.61 102.19 180.465 102.19C178.319 102.19 176.58 103.929 176.58 106.075C176.58 108.22 178.319 109.959 180.465 109.959Z" fill="#F5F5F5"/>
<path d="M161.684 111.754C163.829 111.754 165.568 110.015 165.568 107.87C165.568 105.724 163.829 103.985 161.684 103.985C159.538 103.985 157.799 105.724 157.799 107.87C157.799 110.015 159.538 111.754 161.684 111.754Z" fill="#F5F5F5"/>
<path d="M171.695 113.55C173.841 113.55 175.58 111.81 175.58 109.665C175.58 107.52 173.841 105.78 171.695 105.78C169.55 105.78 167.811 107.52 167.811 109.665C167.811 111.81 169.55 113.55 171.695 113.55Z" fill="#F5F5F5"/>
<path d="M197.856 107.513C197.856 107.513 197.229 116.45 173.12 116.45C149.01 116.45 148.383 107.513 148.383 107.513H197.856Z" fill="#EAEAEA"/>
<path d="M115.756 117.425H106.959V155.577H115.756V117.425Z" fill="#EAEAEA"/>
<path d="M114.061 155.577H57.002V157.995H114.061V155.577Z" fill="#EAEAEA"/>
<path d="M106.955 117.425H55.3145V155.577H106.955V117.425Z" fill="#F5F5F5"/>
<path d="M103.498 122.12H58.7734V134.633H103.498V122.12Z" fill="#EAEAEA"/>
<path d="M103.498 138.368H58.7734V150.881H103.498V138.368Z" fill="#EAEAEA"/>
<path d="M74.3602 123.65H87.906C88.3473 123.647 88.7698 123.471 89.0822 123.16C89.3947 122.848 89.5719 122.426 89.5757 121.985V121.985C89.5745 121.543 89.3981 121.119 89.0853 120.806C88.7724 120.493 88.3485 120.317 87.906 120.315H74.3602C73.919 120.319 73.497 120.497 73.1854 120.809C72.8739 121.121 72.6978 121.544 72.6953 121.985V121.985C72.6978 122.426 72.8741 122.848 73.1857 123.16C73.4974 123.471 73.9194 123.647 74.3602 123.65V123.65Z" fill="#F5F5F5"/>
<path d="M74.3602 139.898H87.906C88.3485 139.897 88.7724 139.72 89.0853 139.408C89.3981 139.095 89.5745 138.671 89.5757 138.228C89.5719 137.787 89.3947 137.365 89.0822 137.054C88.7698 136.742 88.3473 136.566 87.906 136.563H74.3602C73.9194 136.566 73.4974 136.742 73.1857 137.054C72.8741 137.366 72.6978 137.788 72.6953 138.228C72.6978 138.67 72.8739 139.092 73.1854 139.405C73.497 139.717 73.919 139.894 74.3602 139.898V139.898Z" fill="#F5F5F5"/>
<path d="M179.209 22.7002H153.951V74.1136H179.209V22.7002Z" fill="#EBEBEB"/>
<path d="M178.665 22.7002H151.926V74.1136H178.665V22.7002Z" fill="#F5F5F5"/>
<path d="M174.771 26.5898H155.811V70.2242H174.771V26.5898Z" fill="white"/>
<path d="M226.545 50.0571H212.715V65.9917H226.545V50.0571Z" fill="#EBEBEB"/>
<path d="M224.905 50.0571H209.916V65.9917H224.905V50.0571Z" fill="#F5F5F5"/>
<path d="M223.65 51.3169H211.176V64.7373H223.65V51.3169Z" fill="white"/>
<path d="M219.523 54.5693H215.296C214.688 54.5693 214.195 55.0619 214.195 55.6696V60.3844C214.195 60.992 214.688 61.4846 215.296 61.4846H219.523C220.131 61.4846 220.623 60.992 220.623 60.3844V55.6696C220.623 55.0619 220.131 54.5693 219.523 54.5693Z" fill="#F0F0F0"/>
<path d="M215.397 27.8877H201.566V43.8223H215.397V27.8877Z" fill="#EBEBEB"/>
<path d="M213.762 27.8877H198.773V43.8223H213.762V27.8877Z" fill="#F5F5F5"/>
<path d="M212.508 29.1426H200.033V42.563H212.508V29.1426Z" fill="white"/>
<path d="M208.38 32.395H204.153C203.545 32.395 203.053 32.8876 203.053 33.4953V38.21C203.053 38.8177 203.545 39.3103 204.153 39.3103H208.38C208.988 39.3103 209.481 38.8177 209.481 38.21V33.4953C209.481 32.8876 208.988 32.395 208.38 32.395Z" fill="#F0F0F0"/>
<path d="M139.644 179.788C191.32 179.788 233.211 177.342 233.211 174.325C233.211 171.308 191.32 168.862 139.644 168.862C87.9691 168.862 46.0781 171.308 46.0781 174.325C46.0781 177.342 87.9691 179.788 139.644 179.788Z" fill="#F5F5F5"/>
<path d="M176.116 34.4409H71.9238V136.462H176.116V34.4409Z" fill="#58B368"/>
<path opacity="0.7" d="M176.116 34.4409H71.9238V136.462H176.116V34.4409Z" fill="#454D66"/>
<path d="M173.443 37.7031H74.6074V136.462H173.443V37.7031Z" fill="white"/>
<path d="M176.116 135.024V136.462H123.607L134.958 125.121L150.583 109.486L176.116 135.024Z" fill="#58B368"/>
<path opacity="0.7" d="M176.116 135.024V136.462H123.607L134.958 125.121L150.583 109.486L176.116 135.024Z" fill="#454D66"/>
<path d="M71.9238 136.462V126.656L104.208 94.3716L146.298 136.462H71.9238Z" fill="#58B368"/>
<path opacity="0.7" d="M71.9238 136.462V126.656L104.208 94.3716L146.298 136.462H71.9238Z" fill="#454D66"/>
<path d="M156.952 69.745C158.364 61.0478 152.458 52.8528 143.761 51.4411C135.063 50.0293 126.868 55.9354 125.457 64.6326C124.045 73.3299 129.951 81.5248 138.648 82.9366C147.345 84.3484 155.54 78.4423 156.952 69.745Z" fill="#58B368"/>
<path opacity="0.7" d="M156.952 69.745C158.364 61.0478 152.458 52.8528 143.761 51.4411C135.063 50.0293 126.868 55.9354 125.457 64.6326C124.045 73.3299 129.951 81.5248 138.648 82.9366C147.345 84.3484 155.54 78.4423 156.952 69.745Z" fill="#454D66"/>
<path d="M102.822 32.4342L92.9023 133.972L196.601 144.103L206.521 42.5654L102.822 32.4342Z" fill="#58B368"/>
<path opacity="0.1" d="M102.822 32.402L92.9023 133.939L196.601 144.071L206.521 42.5332L102.822 32.402Z" fill="#454D66"/>
<path d="M105.177 35.9417L95.5742 134.232L193.942 143.843L203.545 45.5521L105.177 35.9417Z" fill="white"/>
<path d="M194.953 39.737L194.906 40.2173L198.355 40.5542L198.402 40.0739L194.953 39.737Z" fill="#58B368"/>
<path d="M183.97 37.9583L183.922 38.4385L192.402 39.2864L192.45 38.8062L183.97 37.9583Z" fill="#58B368"/>
<path opacity="0.1" d="M194.953 39.737L194.906 40.2173L198.355 40.5542L198.402 40.0739L194.953 39.737Z" fill="#454D66"/>
<path opacity="0.1" d="M183.97 37.9583L183.922 38.4385L192.402 39.2864L192.45 38.8062L183.97 37.9583Z" fill="#454D66"/>
<path opacity="0.1" d="M196.736 142.663L196.596 144.096L144.338 138.991L156.735 128.809L173.809 114.766L196.736 142.663Z" fill="#454D66"/>
<path d="M196.736 142.663L196.596 144.096L144.338 138.991L156.735 128.809L173.809 114.766L196.736 142.663Z" fill="#58B368"/>
<path opacity="0.1" d="M196.736 142.663L196.596 144.096L144.338 138.991L156.735 128.809L173.809 114.766L196.736 142.663Z" fill="#454D66"/>
<path opacity="0.1" d="M168.587 87.7124C177.398 87.7124 184.541 80.5696 184.541 71.7586C184.541 62.9475 177.398 55.8047 168.587 55.8047C159.776 55.8047 152.633 62.9475 152.633 71.7586C152.633 80.5696 159.776 87.7124 168.587 87.7124Z" fill="#454D66"/>
<path d="M168.587 87.7124C177.398 87.7124 184.541 80.5696 184.541 71.7586C184.541 62.9475 177.398 55.8047 168.587 55.8047C159.776 55.8047 152.633 62.9475 152.633 71.7586C152.633 80.5696 159.776 87.7124 168.587 87.7124Z" fill="#58B368"/>
<path opacity="0.1" d="M168.587 87.7124C177.398 87.7124 184.541 80.5696 184.541 71.7586C184.541 62.9475 177.398 55.8047 168.587 55.8047C159.776 55.8047 152.633 62.9475 152.633 71.7586C152.633 80.5696 159.776 87.7124 168.587 87.7124Z" fill="#454D66"/>
<path d="M160.277 45.9092L56.3066 52.7056L62.9614 154.509L166.932 147.713L160.277 45.9092Z" fill="#58B368"/>
<path d="M157.817 49.3372L59.1914 55.7842L65.6333 154.333L164.259 147.886L157.817 49.3372Z" fill="white"/>
<path opacity="0.5" d="M160.277 45.9092L56.3066 52.7056L62.9614 154.509L166.932 147.713L160.277 45.9092Z" fill="white"/>
<path d="M166.827 146.287L166.918 147.72L114.525 151.142L125.108 139.087L139.682 122.467L166.827 146.287Z" fill="#58B368"/>
<path opacity="0.5" d="M166.827 146.287L166.918 147.72L114.525 151.142L125.108 139.087L139.682 122.467L166.827 146.287Z" fill="white"/>
<path d="M62.9475 154.51L62.3105 144.728L92.4231 110.408L137.163 149.665L62.9475 154.51Z" fill="#58B368"/>
<path opacity="0.5" d="M62.9475 154.51L62.3105 144.728L92.4231 110.408L137.163 149.665L62.9475 154.51Z" fill="white"/>
<path d="M127.569 96.8233C136.38 96.8233 143.523 89.6805 143.523 80.8694C143.523 72.0583 136.38 64.9155 127.569 64.9155C118.758 64.9155 111.615 72.0583 111.615 80.8694C111.615 89.6805 118.758 96.8233 127.569 96.8233Z" fill="#58B368"/>
<path opacity="0.5" d="M127.569 96.8233C136.38 96.8233 143.523 89.6805 143.523 80.8694C143.523 72.0583 136.38 64.9155 127.569 64.9155C118.758 64.9155 111.615 72.0583 111.615 80.8694C111.615 89.6805 118.758 96.8233 127.569 96.8233Z" fill="white"/>
<path d="M207.508 70.4175C207.85 71.0497 208.135 71.6094 208.415 72.2175C208.695 72.8255 208.97 73.4094 209.235 74.0127C209.752 75.2191 210.234 76.4255 210.683 77.7043C211.124 78.9708 211.497 80.2594 211.803 81.5649L212.03 82.559L212.213 83.5676C212.28 83.9054 212.319 84.2529 212.367 84.5955L212.435 85.1167V85.4593C212.445 85.62 212.445 85.7812 212.435 85.9419C212.397 86.8631 212.184 87.7688 211.808 88.6105C211.517 89.285 211.181 89.9395 210.804 90.5698C210.101 91.7222 209.322 92.8265 208.473 93.8754C206.84 95.9051 205.05 97.8041 203.121 99.5553L201.152 97.7891C202.557 95.7623 203.951 93.6679 205.206 91.5928C205.82 90.5831 206.382 89.5426 206.89 88.4754C207.119 87.9956 207.314 87.5006 207.474 86.9939C207.594 86.668 207.653 86.3229 207.648 85.9757V85.8695L207.556 85.4545C207.498 85.1746 207.445 84.8995 207.363 84.6196L207.141 83.7799L206.895 82.9354C206.543 81.811 206.152 80.6866 205.713 79.5574C205.274 78.4282 204.81 77.3231 204.323 76.218C203.835 75.1129 203.3 73.9837 202.808 72.9655L207.508 70.4175Z" fill="#EEC1BB"/>
<path d="M213.043 78.8577L206.475 82.3274L204.892 83.1671C204.892 83.1671 204.52 82.0813 203.994 80.5033C203.57 79.2438 203.029 77.6754 202.518 76.0877C202.354 75.6051 202.19 75.0888 202.035 74.5966C201.987 74.4566 201.939 74.3215 201.895 74.1816C200.476 69.8384 204.414 67.884 207.092 68.4437C211.677 69.4041 213.043 78.8577 213.043 78.8577Z" fill="#58B368"/>
<path opacity="0.7" d="M213.043 78.8577L206.475 82.3274L204.892 83.1671C204.892 83.1671 204.52 82.0813 203.994 80.5033C203.57 79.2438 203.029 77.6754 202.518 76.0877C202.354 75.6051 202.19 75.0888 202.035 74.5966C201.987 74.4566 201.939 74.3215 201.895 74.1816C200.476 69.8384 204.414 67.884 207.092 68.4437C211.677 69.4041 213.043 78.8577 213.043 78.8577Z" fill="white"/>
<path d="M206.475 82.3274L204.892 83.1671C204.892 83.1671 204.52 82.0813 203.994 80.5033C203.57 79.2438 203.029 77.6754 202.518 76.0877C202.354 75.6052 202.19 75.0888 202.035 74.5966L205.654 73.8872C205.654 73.8872 206.147 79.625 206.475 82.3274Z" fill="#58B368"/>
<path opacity="0.6" d="M206.475 82.3274L204.892 83.1671C204.892 83.1671 204.52 82.0813 203.994 80.5033C203.57 79.2438 203.029 77.6754 202.518 76.0877C202.354 75.6052 202.19 75.0888 202.035 74.5966L205.654 73.8872C205.654 73.8872 206.147 79.625 206.475 82.3274Z" fill="white"/>
<path d="M201.952 97.2388L198.574 98.3632L201.639 101.649C201.639 101.649 204.307 100.052 203.622 98.5417L201.952 97.2388Z" fill="#EEC1BB"/>
<path d="M196.244 101.389L198.898 103.942L201.63 101.65L198.565 98.3633L196.244 101.389Z" fill="#EEC1BB"/>
<path d="M177.742 166.84L174.238 166.58L173.91 158.391L177.414 158.651L177.742 166.84Z" fill="#EEC1BB"/>
<path d="M200.157 169.968H196.639L193.898 161.822H197.416L200.157 169.968Z" fill="#EEC1BB"/>
<path d="M173.91 158.396L174.079 162.618L177.587 162.879L177.418 158.656L173.91 158.396Z" fill="#DB9792"/>
<path d="M197.416 161.827H193.898L195.312 166.025H198.83L197.416 161.827Z" fill="#DB9792"/>
<path d="M200.1 165.209H193.658C193.658 165.209 187.384 143.629 185.806 132.457C185.469 130.044 185.666 126.859 186.173 123.404C187.037 117.493 188.784 110.78 190.236 105.771C191.53 101.317 192.596 98.2041 192.596 98.2041L204.704 99.1065C204.048 107.894 195.352 122.323 195.955 134.248C196.51 145.255 200.1 165.209 200.1 165.209Z" fill="#58B368"/>
<path opacity="0.7" d="M200.1 165.209H193.658C193.658 165.209 187.384 143.629 185.806 132.457C185.469 130.044 185.666 126.859 186.173 123.404C187.037 117.493 188.784 110.78 190.236 105.771C191.53 101.317 192.596 98.2041 192.596 98.2041L204.704 99.1065C204.048 107.894 195.352 122.323 195.955 134.248C196.51 145.255 200.1 165.209 200.1 165.209Z" fill="#454D66"/>
<path d="M201.861 58.498C201.108 61.0074 200.138 65.6498 201.76 67.5318C201.76 67.5318 200.795 70.0605 196.046 69.5876C190.815 69.0664 193.807 66.7452 193.807 66.7452C196.726 66.3447 196.866 64.2214 196.562 62.1801L201.861 58.498Z" fill="#EEC1BB"/>
<path d="M192.943 54.7001C192.914 54.98 192.741 55.1827 192.557 55.1827C192.374 55.1827 192.248 54.9221 192.273 54.6374C192.297 54.3526 192.475 54.1548 192.659 54.1548C192.842 54.1548 192.972 54.4154 192.943 54.7001Z" fill="#263238"/>
<path d="M192.933 54.8398C192.513 55.6696 191.979 56.4363 191.346 57.1176C191.524 57.2753 191.735 57.3921 191.963 57.4596C192.192 57.5271 192.432 57.5438 192.668 57.5085L192.933 54.8398Z" fill="#D4827D"/>
<path d="M194.024 53.7686C193.995 53.7691 193.966 53.7617 193.94 53.7473C193.915 53.7328 193.894 53.7119 193.879 53.6865C193.775 53.5058 193.63 53.3521 193.456 53.238C193.281 53.124 193.083 53.0528 192.875 53.0302C192.831 53.0278 192.789 53.0084 192.759 52.9761C192.728 52.9438 192.711 52.901 192.711 52.8565C192.71 52.8361 192.713 52.8156 192.72 52.7963C192.727 52.777 192.737 52.7594 192.751 52.7444C192.766 52.7295 192.782 52.7176 192.801 52.7095C192.82 52.7014 192.84 52.6972 192.861 52.6973H192.885C193.148 52.7203 193.402 52.8064 193.624 52.9484C193.847 53.0904 194.032 53.284 194.164 53.5128C194.187 53.5506 194.195 53.5962 194.185 53.6395C194.175 53.6829 194.148 53.7206 194.111 53.7444C194.084 53.7591 194.054 53.7673 194.024 53.7686Z" fill="#263238"/>
<path d="M196.171 169.557H200.447C200.517 169.557 200.585 169.581 200.639 169.625C200.694 169.669 200.732 169.73 200.746 169.799L201.441 172.926C201.455 172.992 201.456 173.061 201.443 173.128C201.431 173.195 201.405 173.258 201.368 173.315C201.331 173.372 201.283 173.421 201.226 173.46C201.17 173.498 201.107 173.525 201.04 173.538H200.925C199.549 173.514 198.541 173.437 196.803 173.437C195.737 173.437 193.532 173.548 192.055 173.548C190.578 173.548 190.39 172.1 190.993 171.956C193.7 171.362 194.723 170.547 195.587 169.765C195.75 169.627 195.958 169.554 196.171 169.557V169.557Z" fill="#263238"/>
<path d="M174.07 165.793L177.902 166.078C177.971 166.085 178.036 166.115 178.087 166.163C178.138 166.211 178.171 166.275 178.181 166.344L178.64 169.509C178.651 169.576 178.649 169.643 178.633 169.709C178.618 169.774 178.589 169.836 178.55 169.89C178.51 169.944 178.46 169.99 178.403 170.025C178.346 170.06 178.282 170.083 178.215 170.093C178.174 170.098 178.131 170.098 178.09 170.093C176.71 169.963 174.712 169.736 172.984 169.611C170.953 169.461 169.606 169.389 167.222 169.21C165.775 169.104 165.495 167.618 166.103 167.531C168.892 167.135 170.726 167.289 173.206 166.006C173.469 165.856 173.768 165.783 174.07 165.793V165.793Z" fill="#263238"/>
<path d="M186.153 69.8481C185.835 70.3935 185.453 71.016 185.101 71.6047C184.749 72.1935 184.363 72.7918 183.981 73.3758C183.224 74.5484 182.437 75.6969 181.622 76.8069C180.806 77.9168 179.957 78.9881 179.064 79.987C178.296 80.8563 177.46 81.6631 176.564 82.3999C175.82 82.5719 175.063 82.6816 174.301 82.728C173.332 82.7765 172.361 82.7183 171.406 82.5543C169.913 82.2929 168.466 81.815 167.111 81.1355C166.884 81.0197 166.662 80.8942 166.445 80.7688L165.837 80.4069L163.998 82.2985C164.259 82.5977 164.456 82.7811 164.693 83.0321C164.918 83.2535 165.155 83.4629 165.402 83.6594C165.885 84.0656 166.393 84.4412 166.922 84.7838C168.002 85.474 169.162 86.0283 170.378 86.4342C171.618 86.845 172.906 87.0995 174.209 87.1918C175.523 87.2734 176.842 87.1972 178.137 86.965L178.538 86.8926L178.996 86.5934C180.346 85.6924 181.598 84.6524 182.732 83.4905C183.824 82.3939 184.849 81.232 185.801 80.0111C186.766 78.8144 187.625 77.5741 188.46 76.3146C188.875 75.6728 189.275 75.0262 189.666 74.3843C190.057 73.7425 190.429 73.1007 190.815 72.3768L186.153 69.8481Z" fill="#EEC1BB"/>
<path d="M167.435 81.5553L164.809 79.2583L162.807 82.7232C162.807 82.7232 164.674 84.8175 166.87 83.5001L167.435 81.5553Z" fill="#EEC1BB"/>
<path d="M161.156 77.7524L159.762 80.923L162.787 82.723L164.809 79.2774L161.156 77.7524Z" fill="#EEC1BB"/>
<path d="M202.551 54.6757C201.992 58.1213 201.842 60.1626 199.916 61.7696C197.021 64.1824 192.895 62.1701 192.412 58.628C191.978 55.443 192.963 50.3422 196.49 49.2998C197.268 49.0667 198.092 49.0361 198.884 49.2109C199.677 49.3858 200.412 49.7602 201.019 50.2988C201.626 50.8373 202.085 51.5221 202.354 52.2881C202.622 53.0542 202.69 53.876 202.551 54.6757V54.6757Z" fill="#EEC1BB"/>
<path d="M206.45 52.8614C209.027 54.6662 202.894 61.2871 200.712 61.2147C198.531 61.1423 194.439 55.0957 195.781 51.8769C194.656 51.4233 194.294 51.2737 193.85 50.1252C193.02 48.0453 194.019 44.5756 199.115 45.5504C197.851 46.4093 198.729 47.0898 201.127 46.7568C200.162 47.8812 201.745 48.7112 204.076 48.2287C203.666 50.2941 208.863 50.5884 206.45 52.8614Z" fill="#263238"/>
<path d="M197.702 55.7422C197.538 56.6037 197.043 57.3664 196.322 57.8655C195.356 58.517 194.507 57.7449 194.469 56.6398C194.435 55.6505 194.893 54.1159 196.008 53.9084C196.398 53.8428 196.797 53.9345 197.12 54.1634C197.442 54.3923 197.66 54.7397 197.726 55.1293C197.759 55.3332 197.751 55.5416 197.702 55.7422V55.7422Z" fill="#EEC1BB"/>
<path opacity="0.4" d="M193.441 108.309C193.374 114.158 189.262 120.62 186.174 123.404C187.038 117.493 188.785 110.78 190.237 105.771C191.139 105.588 192.689 107.301 193.441 108.309Z" fill="#454D66"/>
<path d="M195.008 170.175C194.768 170.193 194.53 170.129 194.332 169.992C194.268 169.94 194.219 169.872 194.188 169.795C194.158 169.718 194.148 169.635 194.159 169.553C194.159 169.504 194.172 169.457 194.196 169.415C194.221 169.374 194.256 169.34 194.299 169.316C194.694 169.123 195.824 169.799 195.954 169.895C195.966 169.905 195.976 169.917 195.982 169.932C195.988 169.946 195.99 169.962 195.988 169.977C195.986 169.994 195.979 170.009 195.967 170.022C195.956 170.034 195.941 170.042 195.925 170.045C195.626 170.127 195.318 170.171 195.008 170.175V170.175ZM194.487 169.447C194.45 169.437 194.412 169.437 194.376 169.447C194.359 169.457 194.346 169.471 194.336 169.488C194.327 169.505 194.322 169.524 194.323 169.543C194.316 169.599 194.323 169.656 194.343 169.709C194.363 169.762 194.396 169.81 194.439 169.847C194.83 170.026 195.276 170.049 195.684 169.91C195.319 169.675 194.913 169.511 194.487 169.427V169.447Z" fill="#58B368"/>
<path d="M195.907 170.049H195.868C195.506 169.852 194.802 169.084 194.874 168.689C194.887 168.627 194.92 168.572 194.968 168.533C195.017 168.493 195.077 168.471 195.14 168.471C195.203 168.462 195.268 168.466 195.33 168.484C195.392 168.503 195.449 168.535 195.497 168.578C195.902 168.911 195.979 169.924 195.979 169.967C195.979 169.982 195.975 169.997 195.969 170.01C195.962 170.024 195.953 170.035 195.941 170.045L195.907 170.049ZM195.198 168.602H195.164C195.053 168.602 195.043 168.664 195.038 168.684C194.995 168.915 195.444 169.499 195.806 169.774C195.779 169.375 195.635 168.992 195.391 168.674C195.335 168.633 195.266 168.614 195.198 168.621V168.602Z" fill="#58B368"/>
<path d="M172.869 166.309C172.467 166.353 172.063 166.25 171.73 166.02C171.678 165.965 171.64 165.899 171.618 165.827C171.597 165.755 171.592 165.679 171.605 165.605C171.609 165.559 171.626 165.515 171.653 165.478C171.68 165.441 171.717 165.411 171.759 165.393C172.203 165.19 173.559 166.005 173.714 166.102C173.728 166.111 173.739 166.124 173.746 166.14C173.753 166.155 173.755 166.172 173.752 166.189C173.748 166.206 173.739 166.221 173.726 166.233C173.713 166.245 173.697 166.253 173.68 166.256C173.411 166.291 173.14 166.309 172.869 166.309V166.309ZM171.943 165.523C171.904 165.523 171.867 165.532 171.832 165.547C171.815 165.554 171.8 165.565 171.789 165.579C171.778 165.594 171.771 165.611 171.769 165.629C171.759 165.678 171.761 165.729 171.775 165.777C171.79 165.825 171.816 165.869 171.851 165.904C172.054 166.112 172.628 166.189 173.41 166.116C172.963 165.827 172.465 165.625 171.943 165.523V165.523Z" fill="#58B368"/>
<path d="M173.67 166.257H173.626C173.221 166.035 172.439 165.214 172.531 164.809C172.555 164.717 172.627 164.606 172.859 164.597C173.026 164.596 173.187 164.66 173.308 164.775C173.596 165.182 173.751 165.667 173.752 166.165C173.752 166.179 173.748 166.193 173.742 166.206C173.735 166.219 173.725 166.23 173.713 166.237L173.67 166.257ZM172.878 164.77C172.724 164.77 172.714 164.833 172.709 164.852C172.651 165.084 173.192 165.726 173.588 166.015C173.58 165.613 173.447 165.223 173.206 164.901C173.164 164.858 173.112 164.824 173.056 164.802C172.999 164.779 172.939 164.769 172.878 164.77V164.77Z" fill="#58B368"/>
<path d="M185.97 97.7119C185.97 97.7119 170.779 120.692 170.364 131.415C169.934 142.567 172.849 161.706 172.849 161.706L178.789 162.15C178.789 162.15 179.479 143.947 180.555 133.041C181.728 121.155 198.893 107.909 199.569 98.7253L185.97 97.7119Z" fill="#58B368"/>
<path opacity="0.7" d="M185.97 97.7119C185.97 97.7119 170.779 120.692 170.364 131.415C169.934 142.567 172.849 161.706 172.849 161.706L178.789 162.15C178.789 162.15 179.479 143.947 180.555 133.041C181.728 121.155 198.893 107.909 199.569 98.7253L185.97 97.7119Z" fill="#454D66"/>
<path d="M192.519 165.349H200.939V163.081L191.529 162.937L192.519 165.349Z" fill="#58B368"/>
<path d="M171.633 161.74L179.88 162.372L180.054 160.084L170.822 159.259L171.633 161.74Z" fill="#58B368"/>
<path d="M192.519 71.4644C192.268 74.8135 188.301 81.3427 188.301 81.3427L179.32 76.6231C179.32 76.6231 182.361 71.7346 185.685 68.8247C189.01 65.9148 192.794 67.7824 192.519 71.4644Z" fill="#58B368"/>
<path opacity="0.7" d="M192.519 71.4644C192.268 74.8135 188.301 81.3427 188.301 81.3427L179.32 76.6231C179.32 76.6231 182.361 71.7346 185.685 68.8247C189.01 65.9148 192.794 67.7824 192.519 71.4644Z" fill="white"/>
<path d="M192.79 67.6281C193.031 67.1456 192.684 65.4276 192.684 65.4276C192.684 65.4276 200.149 64.4238 202.818 65.3745C204.265 65.886 202.991 68.4678 202.991 68.4678L192.79 67.6281Z" fill="#58B368"/>
<path opacity="0.7" d="M192.79 67.6281C193.031 67.1456 192.684 65.4276 192.684 65.4276C192.684 65.4276 200.149 64.4238 202.818 65.3745C204.265 65.886 202.991 68.4678 202.991 68.4678L192.79 67.6281Z" fill="#454D66"/>
<path d="M204.698 99.1062L185.97 97.7116C185.358 92.9958 185.143 88.237 185.328 83.4853C185.405 81.777 185.54 80.2038 185.704 78.7658C186.573 71.2424 188.407 67.4205 188.407 67.4205C190.21 67.087 192.036 66.895 193.869 66.8462C196.536 66.8894 199.198 67.0876 201.841 67.4398C203.758 67.6848 205.655 68.0588 207.521 68.5593C203.733 81.917 205.041 96.2349 204.698 99.1062Z" fill="#58B368"/>
<path opacity="0.7" d="M204.698 99.1062L185.97 97.7116C185.358 92.9958 185.143 88.237 185.328 83.4853C185.405 81.777 185.54 80.2038 185.704 78.7658C186.573 71.2424 188.407 67.4205 188.407 67.4205C190.21 67.087 192.036 66.895 193.869 66.8462C196.536 66.8894 199.198 67.0876 201.841 67.4398C203.758 67.6848 205.655 68.0588 207.521 68.5593C203.733 81.917 205.041 96.2349 204.698 99.1062Z" fill="white"/>
</g>
<defs>
<clipPath id="clip0_4_2828">
<rect width="241.287" height="180" fill="white" transform="translate(19)"/>
</clipPath>
</defs>
</svg>
