<svg width="120" height="120" viewBox="0 0 120 120" fill="none" xmlns="http://www.w3.org/2000/svg">
<rect width="120" height="120" rx="8" fill="#454D66"/>
<path d="M85.7418 41H35V79.4906H85.7418V41Z" fill="#58B368"/>
<path opacity="0.8" d="M85.7418 41H35V79.4906H85.7418V41Z" fill="white"/>
<path d="M84.2891 78.0413V42.4473H36.4439V78.0413H84.2891Z" fill="#58B368"/>
<path opacity="0.6" d="M84.2891 78.0413V42.4473H36.4439V78.0413H84.2891Z" fill="white"/>
<path opacity="0.1" d="M83.4234 64.9808V77.1702H37.3203V70.6967L47.2058 60.8112L56.9831 70.5884L73.0071 54.5645L83.4234 64.9808Z" fill="black"/>
<path d="M53.2523 54.6342C55.4192 53.7366 56.4483 51.2523 55.5507 49.0853C54.6531 46.9183 52.1688 45.8893 50.0018 46.7869C47.8348 47.6845 46.8058 50.1688 47.7034 52.3358C48.601 54.5028 51.0853 55.5318 53.2523 54.6342Z" fill="white"/>
</svg>
