<svg width="280" height="180" viewBox="0 0 280 180" fill="none" xmlns="http://www.w3.org/2000/svg">
<g clip-path="url(#clip0_28_4531)">
<path d="M260 159.05H20V159.17H260V159.05Z" fill="#E0E0E0"/>
<path d="M91.5733 164.58H70.3477V164.7H91.5733V164.58Z" fill="#E0E0E0"/>
<path d="M66.8283 164.637H58.5723V164.758H66.8283V164.637Z" fill="#E0E0E0"/>
<path d="M129.968 163.83H119.932V163.95H129.968V163.83Z" fill="#E0E0E0"/>
<path d="M154.491 162.53H127.957V162.65H154.491V162.53Z" fill="#E0E0E0"/>
<path d="M202.415 164.758H196.002V164.878H202.415V164.758Z" fill="#E0E0E0"/>
<path d="M193.337 164.758H191.244V164.878H193.337V164.758Z" fill="#E0E0E0"/>
<path d="M235.304 163.43H208.064V163.55H235.304V163.43Z" fill="#E0E0E0"/>
<path d="M133.759 137.579H41.0758C40.3498 137.578 39.6539 137.288 39.1409 136.773C38.6279 136.257 38.3398 135.559 38.3398 134.831V4.16896C38.3462 3.44498 38.6371 2.75272 39.1493 2.24257C39.6616 1.73242 40.3539 1.44558 41.0758 1.44434H133.759C134.486 1.44434 135.183 1.73393 135.697 2.24941C136.211 2.76489 136.5 3.46403 136.5 4.19303V4.19303V134.831C136.5 135.56 136.211 136.259 135.697 136.774C135.183 137.29 134.486 137.579 133.759 137.579V137.579ZM41.0758 1.54061C40.3816 1.54189 39.7162 1.81936 39.2258 2.31214C38.7353 2.80491 38.4598 3.47271 38.4598 4.16896V134.831C38.4598 135.527 38.7353 136.195 39.2258 136.688C39.7162 137.18 40.3816 137.458 41.0758 137.459H133.759C134.453 137.457 135.119 137.179 135.609 136.686C136.1 136.194 136.377 135.527 136.38 134.831V4.16896C136.377 3.47266 136.1 2.8056 135.609 2.31324C135.119 1.82088 134.453 1.54315 133.759 1.54061H41.0758Z" fill="#E0E0E0"/>
<path d="M237.589 137.579H144.901C144.175 137.577 143.479 137.287 142.966 136.772C142.452 136.257 142.163 135.559 142.16 134.831V4.16896C142.168 3.44454 142.46 2.75229 142.973 2.24227C143.486 1.73226 144.179 1.44556 144.901 1.44434H237.589C238.31 1.44684 239.001 1.73425 239.512 2.24426C240.024 2.75428 240.314 3.44581 240.32 4.16896V134.831C240.321 135.191 240.251 135.548 240.114 135.881C239.977 136.214 239.776 136.517 239.522 136.772C239.269 137.028 238.967 137.23 238.636 137.369C238.304 137.507 237.948 137.579 237.589 137.579V137.579ZM144.901 1.54061C144.207 1.54315 143.542 1.82088 143.051 2.31324C142.56 2.8056 142.283 3.47266 142.28 4.16896V134.831C142.283 135.527 142.56 136.194 143.051 136.686C143.542 137.179 144.207 137.457 144.901 137.459H237.589C238.283 137.457 238.948 137.179 239.439 136.686C239.93 136.194 240.207 135.527 240.21 134.831V4.16896C240.207 3.47266 239.93 2.8056 239.439 2.31324C238.948 1.82088 238.283 1.54315 237.589 1.54061H144.901Z" fill="#E0E0E0"/>
<path d="M219.997 12.3999H160.516V105.769H219.997V12.3999Z" fill="#E0E0E0"/>
<path d="M222.612 12.3999H161.738V105.769H222.612V12.3999Z" fill="#EBEBEB"/>
<path d="M219.997 105.774H160.516V110.641H219.997V105.774Z" fill="#E6E6E6"/>
<path d="M226.961 105.774H166.088V110.641H226.961V105.774Z" fill="#F0F0F0"/>
<path d="M218.955 16.0691H165.396V102.107H218.955V16.0691Z" fill="#FAFAFA"/>
<path d="M184.621 102.107L196.592 16.0691H206.725L194.754 102.107H184.621Z" fill="white"/>
<path d="M167.84 95.3139C167.771 95.3127 167.705 95.2842 167.656 95.2347C167.608 95.1852 167.581 95.1186 167.581 95.0492V18.4563C167.576 18.4219 167.578 18.3868 167.587 18.3532C167.596 18.3195 167.611 18.288 167.632 18.2602C167.653 18.2325 167.679 18.2092 167.709 18.1917C167.739 18.1741 167.772 18.1626 167.806 18.1579C167.841 18.1531 167.875 18.1552 167.909 18.164C167.943 18.1728 167.974 18.1882 168.002 18.2092C168.029 18.2302 168.053 18.2565 168.07 18.2865C168.088 18.3165 168.099 18.3497 168.104 18.3841C168.109 18.4079 168.109 18.4325 168.104 18.4563V95.0492C168.104 95.1194 168.076 95.1867 168.026 95.2364C167.977 95.286 167.91 95.3139 167.84 95.3139Z" fill="#E6E6E6"/>
<path d="M196.928 102.107L208.899 16.0691H212.849L200.878 102.107H196.928Z" fill="white"/>
<path d="M218.956 16.0691H218.49V102.107H218.956V16.0691Z" fill="#E6E6E6"/>
<path d="M223.471 18.8847H163.994L163.658 17.4935H223.135L223.471 18.8847Z" fill="#E0E0E0"/>
<path d="M223.471 19.9002H163.994L163.658 18.5138H223.135L223.471 19.9002Z" fill="#E0E0E0"/>
<path d="M223.471 21.1239H163.994L163.658 19.7327H223.135L223.471 21.1239Z" fill="#E0E0E0"/>
<path d="M223.471 22.4854H163.994L163.658 21.0942H223.135L223.471 22.4854Z" fill="#E0E0E0"/>
<path d="M223.471 24.1129H163.994L163.658 22.7217H223.135L223.471 24.1129Z" fill="#E0E0E0"/>
<path d="M223.471 25.946H163.994L163.658 24.5548H223.135L223.471 25.946Z" fill="#E0E0E0"/>
<path d="M64.3041 93.8698C64.3041 95.3139 65.3169 96.3441 63.8625 96.3441C62.4081 96.3441 59.0625 95.3284 59.0625 93.8698C59.0625 93.1676 59.3406 92.4942 59.8357 91.9976C60.3308 91.5011 61.0023 91.2222 61.7025 91.2222C62.4027 91.2222 63.0742 91.5011 63.5693 91.9976C64.0644 92.4942 64.3425 93.1676 64.3425 93.8698H64.3041Z" fill="#E0E0E0"/>
<path d="M68.8061 95.1365C68.8061 96.5806 69.8189 97.606 68.3645 97.606C66.9101 97.606 63.5645 96.5903 63.5645 95.1365C63.5645 94.4343 63.8426 93.7609 64.3377 93.2644C64.8328 92.7678 65.5043 92.4889 66.2045 92.4889C66.9046 92.4889 67.5761 92.7678 68.0712 93.2644C68.5663 93.7609 68.8445 94.4343 68.8445 95.1365H68.8061Z" fill="#E0E0E0"/>
<path d="M73.1225 94.3511C73.1225 95.7953 74.1353 96.8206 72.6809 96.8206C71.2265 96.8206 67.8809 95.8049 67.8809 94.3511C67.8809 93.6489 68.159 92.9755 68.6541 92.479C69.1492 91.9824 69.8207 91.7035 70.5209 91.7035C71.221 91.7035 71.8925 91.9824 72.3876 92.479C72.8827 92.9755 73.1609 93.6489 73.1609 94.3511H73.1225Z" fill="#E0E0E0"/>
<path d="M57.4395 94.7026C57.4395 94.7026 57.6555 99.8486 65.9019 99.8486C74.1483 99.8486 74.3643 94.7026 74.3643 94.7026H57.4395Z" fill="#F0F0F0"/>
<path d="M154.54 99.8535H150.801V159.049H154.54V99.8535Z" fill="#E0E0E0"/>
<path d="M155.72 99.8535H153.123V159.049H155.72V99.8535Z" fill="#F0F0F0"/>
<path d="M156.527 99.8535H78.8867V104.46H156.527V99.8535Z" fill="#F0F0F0"/>
<path d="M77.2119 104.46H73.4727V159.049H77.2119V104.46Z" fill="#E0E0E0"/>
<path d="M78.3917 104.46H75.7949V159.049H78.3917V104.46Z" fill="#F0F0F0"/>
<path d="M53.5478 104.46H49.8086V159.049H53.5478V104.46Z" fill="#E0E0E0"/>
<path d="M54.7277 104.46H52.1309V159.049H54.7277V104.46Z" fill="#F0F0F0"/>
<path d="M130.876 104.46H127.137V159.049H130.876V104.46Z" fill="#E0E0E0"/>
<path d="M132.056 104.46H129.459V159.049H132.056V104.46Z" fill="#F0F0F0"/>
<path d="M78.887 99.8535H49.8086V104.46H78.887V99.8535Z" fill="#E0E0E0"/>
<path d="M78.3926 80.3479H109.602L114.124 98.8282H82.9142L78.3926 80.3479Z" fill="#E0E0E0"/>
<path d="M82.9141 98.8276L83.0437 99.853H114.253L114.128 98.8276H82.9141Z" fill="#E0E0E0"/>
<path d="M79.3516 80.3479H110.561L115.083 98.8282H83.878L79.3516 80.3479Z" fill="#F0F0F0"/>
<path d="M84.5365 97.9858L80.4277 81.1903H109.905L114.013 97.9858H84.5365Z" fill="white"/>
<path d="M92.0098 98.8276L92.1346 99.853H126.503L126.378 98.8276H92.0098Z" fill="#EBEBEB"/>
<path d="M152.303 92.3199C152.213 92.3248 152.123 92.3344 152.034 92.3488V91.7423C152.034 91.5406 151.954 91.3471 151.812 91.2045C151.669 91.0618 151.476 90.9817 151.275 90.9817H145.352C145.151 90.9817 144.958 91.0618 144.816 91.2045C144.674 91.3471 144.594 91.5406 144.594 91.7423V99.8488H152.034V98.4864C152.123 98.4992 152.213 98.5073 152.303 98.5105C152.596 98.5105 152.887 98.4525 153.159 98.3398C153.43 98.227 153.676 98.0618 153.884 97.8535C154.092 97.6452 154.257 97.3979 154.369 97.1257C154.481 96.8536 154.539 96.5619 154.539 96.2673V96.2673V94.568C154.539 93.9726 154.304 93.4015 153.884 92.9801C153.465 92.5586 152.896 92.3212 152.303 92.3199V92.3199ZM153.579 96.2673C153.579 96.6069 153.445 96.9326 153.205 97.1727C152.966 97.4128 152.641 97.5478 152.303 97.5478V97.5478C152.212 97.5479 152.122 97.5382 152.034 97.5189V93.3116C152.122 93.2922 152.212 93.2825 152.303 93.2827C152.642 93.284 152.966 93.42 153.206 93.6609C153.445 93.9018 153.579 94.2279 153.579 94.568V96.2673Z" fill="#E6E6E6"/>
<path d="M120.123 159.05H119.087L116.116 144.377L115.597 141.806L112.357 125.82H99.9443L93.2243 159.035H92.1875L99.0419 125.194C99.0593 125.079 99.1174 124.974 99.2056 124.899C99.2938 124.824 99.4061 124.783 99.5219 124.785H112.765C112.881 124.783 112.993 124.824 113.081 124.899C113.17 124.974 113.228 125.079 113.245 125.194L116.091 139.236L116.61 141.802L120.123 159.05Z" fill="#E0E0E0"/>
<path d="M140.058 159.05H139.04L132.32 125.834H119.874L116.634 141.831L116.115 144.416L113.144 159.088H112.107L115.597 141.845L116.115 139.289L118.957 125.247C118.98 125.135 119.04 125.034 119.127 124.96C119.214 124.886 119.323 124.843 119.437 124.838H132.68C132.796 124.837 132.908 124.877 132.997 124.952C133.085 125.028 133.143 125.132 133.16 125.247L140.058 159.05Z" fill="#E0E0E0"/>
<path d="M109.453 125.309H132.268C134.359 125.308 136.368 124.486 137.862 123.018C139.357 121.551 140.219 119.554 140.264 117.457L141.114 82.6869C141.13 81.9201 140.995 81.1576 140.717 80.443C140.439 79.7285 140.023 79.0758 139.494 78.5224C138.964 77.969 138.331 77.5256 137.631 77.2176C136.93 76.9096 136.176 76.7431 135.412 76.7274H120.988C119.557 76.7276 118.176 77.2555 117.109 78.2107C116.041 79.1659 115.361 80.4816 115.199 81.9071L109.453 125.309Z" fill="#F0F0F0"/>
<path d="M121.894 125.308H97.5868C97.2851 125.308 96.9958 125.188 96.7824 124.974C96.5691 124.76 96.4492 124.47 96.4492 124.168V124.062C96.4486 123.65 96.529 123.242 96.6858 122.862C96.8426 122.481 97.0728 122.135 97.363 121.844C97.6533 121.553 97.9981 121.322 98.3775 121.165C98.7569 121.008 99.1635 120.927 99.574 120.928H121.894V125.308V125.308Z" fill="#F0F0F0"/>
<path d="M117.497 15.2031H52.0156V66.8074H117.497V15.2031Z" fill="#E0E0E0"/>
<path d="M118.265 15.2031H52.7832V66.8074H118.265V15.2031Z" fill="#EBEBEB"/>
<path d="M113.955 19.5255H57.0938V62.4841H113.955V19.5255Z" fill="white"/>
<path opacity="0.5" d="M57.0938 32.8588V62.4831H106.457C107.964 56.3551 106.02 50.1886 98.2969 46.8285C91.6297 43.9402 83.6857 47.0547 76.7545 45.5721C68.7529 43.8584 66.1033 37.2827 59.5273 33.8986C58.7416 33.4948 57.9284 33.1474 57.0938 32.8588V32.8588Z" fill="#E6E6E6"/>
<path opacity="0.7" d="M57.0938 19.5255V21.2104C62.6329 25.7257 69.4442 34.2606 76.7258 36.5665C88.2458 40.2202 103.731 30.347 104.431 19.5255H57.0938Z" fill="#E6E6E6"/>
<path d="M104.134 43.3782C106.351 49.0971 109.85 53.4391 113.954 57.3143V21.7786C106.063 24.1518 100.39 33.7265 104.134 43.3782Z" fill="#E6E6E6"/>
<path d="M140.001 180.788C191.4 180.788 233.068 178.348 233.068 175.338C233.068 172.329 191.4 169.889 140.001 169.889C88.6012 169.889 46.9336 172.329 46.9336 175.338C46.9336 178.348 88.6012 180.788 140.001 180.788Z" fill="#F5F5F5"/>
<path d="M55.5488 174.252V175.34H224.451V105.091H213.099L193.597 117.877H174.997L154.141 131.548V137.05H145.563L121.827 152.609H106.059L86.4176 165.486H72.3872L55.5488 174.252Z" fill="#58B368"/>
<path opacity="0.2" d="M55.5488 174.252V175.34H224.451V105.091H213.099L193.597 117.877H174.997L154.141 131.548V137.05H145.563L121.827 152.609H106.059L86.4176 165.486H72.3872L55.5488 174.252Z" fill="black"/>
<path d="M66.9004 175.339H224.451V106.179L204.948 118.96H186.348L165.492 132.631V138.138H156.915L133.179 153.696H117.411L97.774 166.573H83.7388L66.9004 175.339Z" fill="#58B368"/>
<path opacity="0.1" d="M66.9004 175.339H224.451V106.179L204.948 118.96H186.348L165.492 132.631V138.138H156.915L133.179 153.696H117.411L97.774 166.573H83.7388L66.9004 175.339Z" fill="white"/>
<path d="M100.162 45.5818C99.4896 46.3665 98.7216 47.2426 98.064 48.1043C97.4064 48.9659 96.6864 49.8421 96.0336 50.7326C94.7313 52.4596 93.5585 54.281 92.5248 56.1819L92.1744 56.8799L92.0448 57.1447C92.0064 57.2169 91.9776 57.3179 91.9392 57.4046C91.7847 57.8479 91.6612 58.3015 91.5696 58.7621C91.368 59.7634 91.2144 60.8513 91.0896 61.9537C90.864 64.1584 90.7152 66.4642 90.576 68.7267L87.9408 68.9626C87.4316 66.6222 87.1106 64.2445 86.9808 61.8526C86.9127 60.6077 86.9288 59.3597 87.0288 58.117C87.0781 57.4288 87.1857 56.746 87.3504 56.076C87.4032 55.8882 87.4416 55.7101 87.5136 55.5128C87.5856 55.3154 87.6528 55.0988 87.7056 54.9736L88.0656 54.0879C88.5562 52.932 89.1156 51.8068 89.7408 50.7182C90.3408 49.6399 91.008 48.6194 91.6608 47.6181C92.3136 46.6168 93.0576 45.6444 93.8112 44.7298C94.1856 44.2484 94.5696 43.767 94.9584 43.329C95.3472 42.8909 95.736 42.4336 96.1872 41.9474L100.162 45.5818Z" fill="#E4897B"/>
<path d="M101.029 46.7954C100.549 47.6859 100.006 48.5476 99.4831 49.3515C98.5807 50.7427 97.7071 51.9462 97.0831 52.7741C96.5215 53.5203 96.1615 53.9583 96.1615 53.9583L89.0527 49.1012C89.0527 49.1012 93.3727 40.6673 96.6991 40.1282C100.126 39.5842 103.261 42.7999 101.029 46.7954Z" fill="#58B368"/>
<path opacity="0.3" d="M101.029 46.7954C100.549 47.6859 100.006 48.5476 99.4831 49.3515C98.5807 50.7427 97.7071 51.9462 97.0831 52.7741C96.5215 53.5203 96.1615 53.9583 96.1615 53.9583L89.0527 49.1012C89.0527 49.1012 93.3727 40.6673 96.6991 40.1282C100.126 39.5842 103.261 42.7999 101.029 46.7954Z" fill="black"/>
<path d="M113.553 149.648H117.076L117.426 141.459H113.903L113.553 149.648Z" fill="#E4897B"/>
<path d="M79.2617 134.394L82.1225 136.464L88.8713 131.25L86.0105 129.18L79.2617 134.394Z" fill="#E4897B"/>
<path d="M117.426 141.459L117.249 145.681H113.721L113.898 141.459H117.426Z" fill="#CE6F64"/>
<path d="M86.0112 129.18L88.872 131.25L85.3872 133.936L82.5312 131.866L86.0112 129.18Z" fill="#CE6F64"/>
<path d="M109.977 70.8793C109.977 70.8793 110.38 96.046 107.227 105.914C102.235 121.545 87.153 134.205 87.153 134.205L81.7578 130.301C81.7578 130.301 94.3098 119.605 96.6378 106.444C98.7066 94.6163 97.8282 80.5406 97.8282 70.8793H109.977Z" fill="#58B368"/>
<path opacity="0.7" d="M109.977 70.8793C109.977 70.8793 110.38 96.046 107.227 105.914C102.235 121.545 87.153 134.205 87.153 134.205L81.7578 130.301C81.7578 130.301 94.3098 119.605 96.6378 106.444C98.7066 94.6163 97.8282 80.5406 97.8282 70.8793H109.977Z" fill="white"/>
<path d="M90.7 68.0768L91.972 70.3682L87.5176 71.0325C87.5176 71.0325 87.0616 69.1069 88.1608 67.7783L90.7 68.0768Z" fill="#E4897B"/>
<path d="M92.644 73.4156L88.9384 73.791L87.5176 71.0327L91.972 70.3684L92.644 73.4156Z" fill="#E4897B"/>
<path d="M113.187 27.1734C113.231 27.4527 113.413 27.6548 113.6 27.6548C113.787 27.6548 113.893 27.3708 113.85 27.0916C113.807 26.8124 113.624 26.6102 113.437 26.6102C113.25 26.6102 113.144 26.8894 113.187 27.1734Z" fill="#454D66"/>
<path d="M113.389 27.6654C113.858 28.473 114.436 29.2117 115.107 29.8605C114.938 30.0311 114.735 30.1625 114.51 30.2457C114.285 30.3289 114.045 30.3617 113.806 30.3419L113.389 27.6654Z" fill="#DE5753"/>
<path d="M111.92 25.7684C111.899 25.7691 111.877 25.7655 111.857 25.7578C111.837 25.7502 111.819 25.7387 111.803 25.7239C111.788 25.7091 111.775 25.6915 111.766 25.6718C111.757 25.6522 111.753 25.6311 111.752 25.6096C111.752 25.5862 111.757 25.5631 111.766 25.5416C111.775 25.5201 111.788 25.5006 111.805 25.4844C111.989 25.2948 112.216 25.1522 112.467 25.0685C112.717 24.9848 112.984 24.9623 113.245 25.003C113.266 25.007 113.287 25.0154 113.305 25.0275C113.324 25.0397 113.339 25.0555 113.352 25.074C113.364 25.0924 113.372 25.1131 113.376 25.1348C113.38 25.1566 113.379 25.1789 113.374 25.2004C113.37 25.2216 113.362 25.2418 113.35 25.2598C113.338 25.2779 113.323 25.2934 113.305 25.3055C113.287 25.3175 113.267 25.326 113.246 25.3302C113.225 25.3345 113.203 25.3345 113.182 25.3304V25.3304C112.975 25.302 112.763 25.3234 112.566 25.3929C112.368 25.4623 112.189 25.5778 112.045 25.7299C112.028 25.7448 112.008 25.756 111.986 25.7627C111.965 25.7693 111.942 25.7713 111.92 25.7684V25.7684Z" fill="#454D66"/>
<path d="M103.81 30.2795C104.318 32.8646 104.822 37.6062 103.018 39.3295C103.018 39.3295 103.723 41.9579 108.514 41.9579C113.794 41.9579 111.034 39.3295 111.034 39.3295C108.154 38.6412 108.23 36.5038 108.734 34.5157L103.81 30.2795Z" fill="#E4897B"/>
<path d="M101.059 41.0817C101.63 40.1863 100.67 38.0298 100.67 38.0298C100.67 38.0298 109.161 35.8876 112.627 39.1754C113.347 39.8542 112.55 40.8555 112.55 40.8555L101.059 41.0817Z" fill="#58B368"/>
<path d="M83.6295 138.156C83.1831 138.156 82.5303 137.28 82.3479 136.967C82.3388 136.954 82.334 136.938 82.334 136.922C82.334 136.905 82.3388 136.889 82.3479 136.876C82.3576 136.864 82.3701 136.854 82.3844 136.849C82.3987 136.843 82.4142 136.841 82.4295 136.842C82.4775 136.842 83.6343 137.093 83.9031 137.55C83.9338 137.598 83.9535 137.652 83.961 137.709C83.9684 137.765 83.9634 137.823 83.9463 137.877C83.8791 138.084 83.7543 138.142 83.6631 138.152L83.6295 138.156ZM82.5975 137.054C82.8999 137.497 83.3991 138.017 83.6487 137.988C83.6727 137.988 83.7447 137.988 83.7927 137.824C83.8024 137.793 83.8049 137.76 83.7999 137.727C83.7949 137.695 83.7826 137.664 83.7639 137.637C83.4411 137.327 83.0361 137.118 82.5975 137.035V137.054Z" fill="#58B368"/>
<path d="M82.9922 137.06C82.7897 137.065 82.5877 137.04 82.3922 136.988C82.3803 136.98 82.3705 136.969 82.3638 136.956C82.357 136.944 82.3535 136.93 82.3535 136.915C82.3535 136.901 82.357 136.887 82.3638 136.874C82.3705 136.862 82.3803 136.851 82.3922 136.843C82.4258 136.814 83.2178 136.179 83.741 136.232C83.8048 136.239 83.8666 136.259 83.9226 136.29C83.9787 136.322 84.0279 136.364 84.0674 136.415C84.1115 136.46 84.1381 136.52 84.1425 136.584C84.1469 136.647 84.1288 136.71 84.0914 136.761C83.9186 136.973 83.429 137.06 82.9922 137.06ZM82.613 136.867C83.0594 136.935 83.7938 136.867 83.933 136.665C83.9443 136.641 83.9481 136.613 83.9438 136.587C83.9395 136.56 83.9274 136.536 83.909 136.516C83.8839 136.483 83.8521 136.455 83.8157 136.435C83.7793 136.415 83.7391 136.404 83.6978 136.4C83.2973 136.442 82.919 136.605 82.613 136.867Z" fill="#58B368"/>
<path d="M118.492 149.831C118.13 149.827 117.769 149.793 117.412 149.73C117.395 149.727 117.38 149.719 117.368 149.707C117.356 149.695 117.348 149.68 117.345 149.663C117.342 149.646 117.345 149.628 117.352 149.612C117.36 149.597 117.373 149.584 117.388 149.576C117.441 149.547 118.67 148.84 119.26 149.003C119.315 149.016 119.367 149.039 119.412 149.072C119.457 149.106 119.495 149.148 119.524 149.196C119.562 149.25 119.582 149.313 119.582 149.379C119.582 149.444 119.562 149.508 119.524 149.562C119.385 149.769 118.948 149.831 118.492 149.831ZM117.681 149.605C118.339 149.701 119.231 149.692 119.395 149.466C119.418 149.405 119.418 149.338 119.395 149.278C119.376 149.248 119.352 149.222 119.323 149.202C119.294 149.182 119.261 149.168 119.227 149.162C118.852 149.066 118.113 149.384 117.681 149.605Z" fill="#58B368"/>
<path d="M117.442 149.71H117.394C117.382 149.702 117.372 149.69 117.366 149.676C117.36 149.663 117.358 149.648 117.36 149.633C117.4 149.13 117.596 148.651 117.922 148.266C117.988 148.211 118.065 148.17 118.147 148.145C118.229 148.12 118.316 148.112 118.402 148.122C118.473 148.113 118.545 148.133 118.603 148.177C118.66 148.221 118.698 148.286 118.709 148.358C118.776 148.757 117.931 149.523 117.509 149.715L117.442 149.71ZM118.306 148.266C118.199 148.268 118.096 148.305 118.013 148.372C117.746 148.679 117.579 149.06 117.533 149.465C117.97 149.2 118.541 148.598 118.493 148.362C118.493 148.362 118.493 148.281 118.33 148.266H118.306Z" fill="#58B368"/>
<path d="M82.5305 136.433L79.7897 133.545C79.7404 133.495 79.6757 133.463 79.606 133.454C79.5363 133.445 79.4658 133.46 79.4057 133.497L76.6649 135.172C76.6068 135.207 76.5561 135.252 76.5158 135.307C76.4754 135.361 76.4461 135.423 76.4296 135.489C76.4131 135.554 76.4097 135.623 76.4196 135.69C76.4295 135.757 76.4525 135.821 76.4873 135.88C76.5106 135.916 76.538 135.95 76.5689 135.981C77.5289 136.943 78.0665 137.391 79.2713 138.652C80.0153 139.427 82.0361 142.152 83.0585 143.225C84.0809 144.299 85.2761 143.418 84.9497 142.888C83.5097 140.51 82.8089 138.152 82.7705 136.977C82.7609 136.772 82.6753 136.578 82.5305 136.433Z" fill="#454D66"/>
<path d="M117.052 149.229H113.212C113.143 149.228 113.075 149.252 113.021 149.296C112.967 149.34 112.929 149.401 112.915 149.469L112.214 152.598C112.184 152.731 112.207 152.87 112.279 152.986C112.351 153.101 112.466 153.183 112.598 153.214C112.64 153.219 112.681 153.219 112.723 153.214C114.115 153.214 116.121 153.108 117.868 153.108C119.908 153.108 121.67 153.219 124.065 153.219C125.505 153.219 125.913 151.751 125.308 151.621C122.548 151.014 120.297 150.947 117.912 149.474C117.653 149.315 117.356 149.23 117.052 149.229Z" fill="#454D66"/>
<path opacity="0.3" d="M99.484 49.3512C98.5816 50.7424 97.708 51.9458 97.084 52.7738C97.156 51.1178 97.4968 48.4413 98.7784 46.4003C99.244 46.8624 99.4312 48.0562 99.484 49.3512Z" fill="black"/>
<path d="M118.88 43.6184C119.072 43.9217 119.423 44.3838 119.744 44.8122C120.066 45.2407 120.435 45.6787 120.8 46.112C121.535 46.9736 122.283 47.8305 123.066 48.6537C124.572 50.2894 126.224 51.7847 128 53.1209C128.413 53.4233 128.841 53.7045 129.282 53.9633L129.575 54.1318C129.608 54.1318 129.623 54.1751 129.685 54.1944L129.762 54.2281L129.867 54.2618C129.946 54.2861 130.026 54.3054 130.107 54.3195C131.064 54.4536 132.035 54.4406 132.987 54.281C135.236 53.9242 137.459 53.416 139.64 52.7599L140.778 55.1668C138.639 56.5535 136.322 57.6403 133.89 58.3969C132.514 58.8435 131.072 59.0471 129.627 58.9986C129.41 58.988 129.194 58.9655 128.979 58.9312L128.648 58.8686L128.293 58.782C128.044 58.7143 127.8 58.629 127.563 58.5268L127.415 58.4643L127.295 58.4065L127.055 58.291C126.435 57.9877 125.835 57.6555 125.25 57.2945C123.089 55.8833 121.087 54.2419 119.279 52.3988C118.391 51.4986 117.527 50.584 116.715 49.6116C116.303 49.1302 115.904 48.6489 115.506 48.1097C115.07 47.5518 114.671 46.9666 114.311 46.3575L118.88 43.6184Z" fill="#E4897B"/>
<path d="M139.074 53.3992L141.417 50.6024L143.01 54.6845C143.01 54.6845 140.989 55.6473 139.415 55.0937L139.074 53.3992Z" fill="#E4897B"/>
<path d="M144.854 49.9965L145.507 53.2602L143.011 54.6851L141.422 50.603L144.854 49.9965Z" fill="#E4897B"/>
<path d="M103.722 28.0457C104.47 31.4732 104.739 33.5191 106.76 35.021C109.798 37.2835 113.811 35.021 114.094 31.4443C114.349 28.219 113.077 23.1549 109.486 22.298C108.694 22.107 107.867 22.1226 107.082 22.3432C106.298 22.5638 105.583 22.9822 105.006 23.5584C104.428 24.1346 104.007 24.8496 103.783 25.6351C103.559 26.4205 103.54 27.2505 103.726 28.0457H103.722Z" fill="#E4897B"/>
<path d="M102.278 21.3486C99.2782 21.4304 98.9182 24.3909 100.406 25.2622C100.406 25.2622 98.6782 26.095 99.5662 28.0831C100.92 31.1014 103.512 34.4181 106.161 34.2352C109.449 34.009 110.385 30.4179 110.27 26.8749C112.003 25.2334 110.957 24.4343 112.67 23.433C115.704 21.6615 117.24 16.5829 112.19 16.6599C107.016 16.7418 109.934 21.1416 102.278 21.3486Z" fill="#454D66"/>
<path d="M100.779 24.8305C100.779 24.8305 99.6226 25.4322 97.8418 24.3925C98.461 25.9136 100.362 26.5394 100.779 24.8305Z" fill="#454D66"/>
<path d="M108.464 27.7275C108.557 28.595 108.934 29.4074 109.535 30.0382C110.332 30.8613 111.114 30.3029 111.215 29.2632C111.306 28.3293 110.999 26.7744 110.044 26.3412C109.088 25.9079 108.364 26.6781 108.464 27.7275Z" fill="#E4897B"/>
<path d="M89.447 133.064L87.2342 134.388L81.3398 130.123L83.303 128.616L89.447 133.064Z" fill="#58B368"/>
<path d="M106.453 75.2023C105.786 79.7369 108.143 92.3636 108.959 96.4987C109.813 88.7676 109.972 79.5973 109.986 74.5909C108.258 73.4163 106.761 73.1131 106.453 75.2023Z" fill="#58B368"/>
<path opacity="0.4" d="M106.453 75.2023C105.786 79.7369 108.143 92.3636 108.959 96.4987C109.813 88.7676 109.972 79.5973 109.986 74.5909C108.258 73.4163 106.761 73.1131 106.453 75.2023Z" fill="white"/>
<path d="M116.663 70.8793C116.663 70.8793 121.977 93.4561 122.351 104.239C122.769 116.336 118.559 144.863 118.559 144.863H112.588C112.588 144.863 111.854 116.115 111.585 105.096C111.297 93.0855 104.27 70.8793 104.27 70.8793H116.663Z" fill="#58B368"/>
<path opacity="0.7" d="M116.663 70.8793C116.663 70.8793 121.977 93.4561 122.351 104.239C122.769 116.336 118.559 144.863 118.559 144.863H112.588C112.588 144.863 111.854 116.115 111.585 105.096C111.297 93.0855 104.27 70.8793 104.27 70.8793H116.663Z" fill="white"/>
<path d="M119.712 142.489C119.741 142.489 119.376 144.973 119.376 144.973H112.109L111.912 142.754L119.712 142.489Z" fill="#58B368"/>
<path d="M118.189 51.8394C118.189 53.0429 118.16 54.3667 118.093 55.8253C117.92 59.7919 117.488 64.7357 116.653 70.8781H97.8032C97.6736 67.9898 99.4928 53.8083 96.6992 40.1274C98.7934 39.7242 100.911 39.4572 103.04 39.3283C105.71 39.1743 108.386 39.1743 111.056 39.3283C112.886 39.5117 114.699 39.8335 116.48 40.2911C116.48 40.2911 118.194 42.2792 118.189 51.8394Z" fill="#58B368"/>
<path opacity="0.3" d="M118.189 51.8394C118.189 53.0429 118.16 54.3667 118.093 55.8253C117.92 59.7919 117.488 64.7357 116.653 70.8781H97.8032C97.6736 67.9898 99.4928 53.8083 96.6992 40.1274C98.7934 39.7242 100.911 39.4572 103.04 39.3283C105.71 39.1743 108.386 39.1743 111.056 39.3283C112.886 39.5117 114.699 39.8335 116.48 40.2911C116.48 40.2911 118.194 42.2792 118.189 51.8394Z" fill="black"/>
<path opacity="0.3" d="M118.19 51.8395C118.19 53.043 118.161 54.3668 118.094 55.8254C115.881 53.6591 115.732 49.2352 115.732 49.2352L118.19 51.8395Z" fill="black"/>
<path d="M111.432 44.4367C111.849 47.8063 119.472 54.9019 119.472 54.9019L126.336 49.4479C124.611 46.8867 122.593 44.5375 120.321 42.4485C115.358 38.1257 110.928 40.4075 111.432 44.4367Z" fill="#58B368"/>
<path opacity="0.3" d="M111.432 44.4367C111.849 47.8063 119.472 54.9019 119.472 54.9019L126.336 49.4479C124.611 46.8867 122.593 44.5375 120.321 42.4485C115.358 38.1257 110.928 40.4075 111.432 44.4367Z" fill="black"/>
<path d="M191.856 114.806L188.328 115.152L184.656 106.728L188.184 106.381L191.856 114.806Z" fill="#E4897B"/>
<path d="M215.337 104.215L212.265 106.198L206.697 99.704L209.769 97.7207L215.337 104.215Z" fill="#E4897B"/>
<path d="M184.66 106.732L186.551 111.074H190.233L188.188 106.385L184.66 106.732Z" fill="#CE6F64"/>
<path d="M209.774 97.7207L206.697 99.704L209.572 103.05L212.644 101.066L209.774 97.7207Z" fill="#CE6F64"/>
<path d="M161.6 24.8683C161.523 26.1776 161.36 27.3715 161.173 28.6134C160.986 29.8554 160.722 31.0589 160.424 32.2768C159.844 34.7575 158.945 37.1523 157.75 39.4012C157.436 39.9846 157.085 40.5474 156.699 41.0861C156.325 41.6204 155.926 42.1114 155.528 42.588C154.731 43.5508 153.906 44.4413 153.066 45.3222C151.371 47.0697 149.643 48.7401 147.786 50.3334L146.451 49.0433C147.925 47.1708 149.437 45.3174 150.872 43.44C152.307 41.5626 153.795 39.6949 154.712 37.8175C155.648 35.7703 156.354 33.6244 156.814 31.4199C157.069 30.3031 157.261 29.1622 157.443 28.0502C157.626 26.9382 157.76 25.7348 157.861 24.6805L161.6 24.8683Z" fill="#E4897B"/>
<path d="M160.133 1.00138C157.56 1.00138 154.642 3.76933 154.762 7.74074C154.882 11.7122 155.722 17.6091 149.602 23.068C151.8 27.8818 162.139 32.3924 169.042 28.9986C175.584 25.783 172.882 7.95737 168.221 3.28795C165.61 0.674043 162.562 -0.202074 160.133 1.00138Z" fill="#454D66"/>
<path d="M164.403 25.3208C164.211 26.4858 163.246 28.6905 162.483 30.3272C161.917 31.5114 161.456 32.402 161.456 32.402L160.784 32.1035L155.221 29.6196C155.643 26.6109 156.33 23.3616 159.637 21.8838C161.701 20.9691 164.744 23.2413 164.403 25.3208Z" fill="#58B368"/>
<path opacity="0.6" d="M164.403 25.3208C164.211 26.4858 163.246 28.6905 162.483 30.3272C161.917 31.5114 161.456 32.402 161.456 32.402L160.784 32.1035L155.221 29.6196C155.643 26.6109 156.33 23.3616 159.637 21.8838C161.701 20.9691 164.744 23.2413 164.403 25.3208Z" fill="white"/>
<path d="M162.469 30.3277C161.902 31.5119 161.442 32.4024 161.442 32.4024L160.77 32.104C160.861 30.915 161.096 29.0424 161.73 28.2C162.124 28.8482 162.376 29.5737 162.469 30.3277V30.3277Z" fill="#58B368"/>
<path opacity="0.5" d="M162.469 30.3614C161.902 31.5456 161.442 32.4361 161.442 32.4361L160.77 32.1377C160.861 30.9486 161.096 29.0761 161.73 28.2336C162.124 28.8819 162.376 29.6074 162.469 30.3614V30.3614Z" fill="white"/>
<path d="M181.281 38.3664L167.121 42.8433C157.329 23.4147 158.721 22.3845 158.721 22.3845C158.721 22.3845 160.981 21.0896 163.333 20.0113L164.404 19.5299C166.493 18.6959 168.639 18.0138 170.826 17.4888C171.148 17.4022 171.469 17.3252 171.786 17.2481C173.528 16.8545 175.291 16.5635 177.066 16.3768C177.277 19.0678 177.489 21.3447 177.719 23.3232C178.017 25.9034 178.338 27.9685 178.679 29.7545C179.317 32.6899 180.187 35.5696 181.281 38.3664V38.3664Z" fill="#58B368"/>
<path opacity="0.6" d="M181.281 38.3664L167.121 42.8433C157.329 23.4147 158.721 22.3845 158.721 22.3845C158.721 22.3845 160.981 21.0896 163.333 20.0113L164.404 19.5299C166.493 18.6959 168.639 18.0138 170.826 17.4888C171.148 17.4022 171.469 17.3252 171.786 17.2481C173.528 16.8545 175.291 16.5635 177.066 16.3768C177.277 19.0678 177.489 21.3447 177.719 23.3232C178.017 25.9034 178.338 27.9685 178.679 29.7545C179.317 32.6899 180.187 35.5696 181.281 38.3664V38.3664Z" fill="white"/>
<path d="M167.121 42.8436C167.121 42.8436 166.641 71.9191 170.428 82.4229C174.076 92.4935 184.958 109.804 184.958 109.804L191.265 109.64C191.265 109.64 181.248 87.723 179.601 79.0532C176.88 64.6743 177.48 39.5798 177.48 39.5798L167.121 42.8436Z" fill="#58B368"/>
<path opacity="0.4" d="M167.121 42.8436C167.121 42.8436 166.641 71.9191 170.428 82.4229C174.076 92.4935 184.958 109.804 184.958 109.804L191.265 109.64C191.265 109.64 181.248 87.723 179.601 79.0532C176.88 64.6743 177.48 39.5798 177.48 39.5798L167.121 42.8436Z" fill="black"/>
<path opacity="0.3" d="M172.785 45.3407L174.48 40.5269L177.48 39.5641C177.48 39.5641 177.206 50.9873 177.864 62.8341C175.142 57.6015 172.785 47.9738 172.785 45.3407Z" fill="black"/>
<path d="M170.24 41.9189C170.24 41.9189 180.08 64.491 186.44 77.3391C191.576 87.7129 207.56 101.639 207.56 101.639L211.938 98.5922C211.938 98.5922 199.914 82.1 196.367 75.0622C185.015 52.5431 187.813 43.262 181.285 38.3663L170.24 41.9189Z" fill="#58B368"/>
<path opacity="0.4" d="M170.24 41.9189C170.24 41.9189 180.08 64.491 186.44 77.3391C191.576 87.7129 207.56 101.639 207.56 101.639L211.938 98.5922C211.938 98.5922 199.914 82.1 196.367 75.0622C185.015 52.5431 187.813 43.262 181.285 38.3663L170.24 41.9189Z" fill="black"/>
<path d="M147.306 48.7023L144.1 49.2992L146.37 52.38C146.37 52.38 148.045 51.2103 148.396 49.7276L147.306 48.7023Z" fill="#E4897B"/>
<path d="M141.998 51.734L144.105 53.7077L146.366 52.3791L144.1 49.2982L141.998 51.734Z" fill="#E4897B"/>
<path d="M211.132 105.226L214.468 102.819C214.524 102.777 214.594 102.758 214.664 102.764C214.733 102.77 214.799 102.802 214.847 102.853L217.122 105.226C217.226 105.342 217.279 105.494 217.271 105.649C217.263 105.804 217.194 105.95 217.079 106.054L217.026 106.097C215.845 106.911 215.236 107.248 213.772 108.302C212.869 108.952 210.968 110.521 209.72 111.417C208.472 112.312 207.527 111.123 207.964 110.641C209.932 108.466 210.455 106.983 210.767 105.755C210.824 105.542 210.953 105.355 211.132 105.226Z" fill="#454D66"/>
<path d="M187.861 114.059H192.181C192.259 114.061 192.334 114.088 192.395 114.135C192.456 114.183 192.501 114.249 192.522 114.324L193.482 117.761C193.502 117.829 193.508 117.901 193.5 117.971C193.492 118.042 193.47 118.11 193.436 118.172C193.402 118.235 193.356 118.289 193.3 118.334C193.244 118.378 193.181 118.41 193.113 118.43C193.06 118.437 193.007 118.437 192.954 118.43H182.965C181.381 118.43 181.045 116.822 181.708 116.678C184.645 116.023 186.34 115.128 187.247 114.271C187.417 114.124 187.637 114.049 187.861 114.059Z" fill="#454D66"/>
<path d="M171.796 17.2585V17.5137C171.796 17.6629 171.695 21.1096 168.181 23.8294L167.826 24.1038L167.394 24.0075C165.532 23.6032 164.293 22.8281 163.703 21.7065C163.429 21.1859 163.304 20.5994 163.343 20.0121L164.413 19.5307C166.502 18.6967 168.649 18.0145 170.836 17.4896C171.152 17.4126 171.474 17.3308 171.796 17.2585Z" fill="white"/>
<path d="M167.909 10.4462C168.158 12.6461 168.95 16.5742 170.832 17.4984C170.832 17.4984 170.784 20.5985 167.592 23.068C163.363 22.1438 164.41 19.5395 164.41 19.5395C166.541 18.2542 165.941 16.5597 165.029 15.0771L167.909 10.4462Z" fill="#E4897B"/>
<path d="M166.737 12.3324L165.033 15.0715C165.25 15.4155 165.436 15.778 165.59 16.1546C166.43 15.7454 167.51 14.5323 167.308 13.5792C167.194 13.1326 167 12.7104 166.737 12.3324V12.3324Z" fill="#CE6F64"/>
<path d="M166.909 5.5408C168.119 8.97306 168.7 10.398 167.744 12.8289C166.304 16.4826 161.84 17.2191 159.632 14.2249C157.65 11.5244 156.008 6.37359 158.706 3.63452C159.63 2.7 160.887 2.17196 162.199 2.16655C163.512 2.16113 164.773 2.67878 165.704 3.60564C166.252 4.14654 166.665 4.80959 166.909 5.5408V5.5408Z" fill="#E4897B"/>
<path d="M162.378 1.54053C161.217 2.80656 163.602 8.10178 167.241 8.91531C170.879 9.72885 167.942 3.97151 167.942 3.97151L162.378 1.54053Z" fill="#454D66"/>
<path d="M162.757 3.02221C162.892 4.46636 157.108 6.64702 156.613 7.71569C156.853 5.9779 156.935 3.94165 159.119 2.4975C161.303 1.05335 163.103 1.61657 163.103 1.61657L162.757 3.02221Z" fill="#454D66"/>
<path d="M162.33 3.08142C162.33 3.08142 161.691 4.74219 159.258 6.77363C161.177 6.22416 162.821 4.97387 163.866 3.26916L162.33 3.08142Z" fill="#454D66"/>
<path d="M168.978 8.32842C169.084 9.02406 168.911 9.73348 168.498 10.3021C167.946 11.0531 167.101 10.6968 166.78 9.87847C166.487 9.13714 166.42 7.85667 167.202 7.39935C167.337 7.32115 167.487 7.27056 167.642 7.2505C167.797 7.23044 167.954 7.24131 168.105 7.28246C168.256 7.32362 168.397 7.39426 168.52 7.49033C168.644 7.58639 168.747 7.70598 168.824 7.84223C168.91 7.99105 168.963 8.15703 168.978 8.32842Z" fill="#E4897B"/>
<path d="M181.214 37.4666L182.256 38.5353C182.337 38.6171 182.256 38.7567 182.088 38.8049L167.251 43.5128C167.202 43.5346 167.148 43.5398 167.096 43.5276C167.044 43.5155 166.997 43.4866 166.963 43.4454L166.435 42.2179C166.401 42.1312 166.488 42.0253 166.627 41.9772L180.95 37.4329C180.993 37.4146 181.04 37.4081 181.087 37.414C181.133 37.4199 181.177 37.4381 181.214 37.4666Z" fill="#454D66"/>
<path d="M161.831 8.78119C161.946 9.05076 161.894 9.33478 161.716 9.40699C161.538 9.4792 161.303 9.32515 161.188 9.05077C161.073 8.77638 161.126 8.49717 161.303 8.42497C161.481 8.35276 161.716 8.5068 161.831 8.78119Z" fill="#454D66"/>
<path d="M158.765 10.0801C158.88 10.3545 158.827 10.6337 158.65 10.7107C158.472 10.7878 158.237 10.6289 158.122 10.3545C158.006 10.0801 158.059 9.80093 158.237 9.72391C158.414 9.64689 158.65 9.81056 158.765 10.0801Z" fill="#454D66"/>
<path d="M158.317 9.71008L157.588 9.79673C157.588 9.79673 158.14 10.1674 158.317 9.71008Z" fill="#454D66"/>
<path d="M159.845 10.1385C159.865 10.8632 159.786 11.5873 159.609 12.2903C159.79 12.3301 159.977 12.3301 160.158 12.2902C160.339 12.2503 160.508 12.1715 160.656 12.0593L159.845 10.1385Z" fill="#DE5753"/>
<path d="M162.378 12.641C162.359 12.6398 162.341 12.6323 162.327 12.6199C162.312 12.6074 162.302 12.5906 162.299 12.572C162.295 12.5534 162.297 12.5341 162.305 12.517C162.314 12.4999 162.327 12.4859 162.344 12.4773C162.685 12.3407 162.988 12.1258 163.231 11.8499C163.474 11.5739 163.648 11.2447 163.741 10.8888C163.742 10.878 163.745 10.8675 163.751 10.8581C163.756 10.8486 163.763 10.8402 163.771 10.8335C163.78 10.8268 163.79 10.8218 163.8 10.8189C163.81 10.816 163.821 10.8152 163.832 10.8165C163.843 10.8183 163.854 10.8223 163.864 10.8284C163.874 10.8344 163.883 10.8424 163.889 10.8518C163.896 10.8613 163.901 10.8719 163.903 10.8832C163.906 10.8945 163.906 10.9062 163.904 10.9176C163.81 11.3036 163.625 11.6613 163.365 11.9604C163.104 12.2595 162.775 12.4913 162.406 12.6362L162.378 12.641Z" fill="#454D66"/>
<path d="M162.267 7.40803C162.239 7.41288 162.21 7.41288 162.181 7.40803C161.995 7.29602 161.785 7.22862 161.569 7.21108C161.352 7.19355 161.135 7.22635 160.933 7.30694C160.893 7.32744 160.846 7.33136 160.803 7.31787C160.76 7.30438 160.724 7.27454 160.703 7.23473C160.682 7.1937 160.678 7.14624 160.691 7.10227C160.705 7.05831 160.735 7.02126 160.775 6.99886V6.99886C161.027 6.88902 161.301 6.84174 161.575 6.86101C161.849 6.88028 162.115 6.96555 162.349 7.10957C162.388 7.13269 162.417 7.17045 162.429 7.21463C162.44 7.25881 162.434 7.30583 162.411 7.34545C162.394 7.36625 162.372 7.38271 162.347 7.39356C162.322 7.40441 162.295 7.40936 162.267 7.40803V7.40803Z" fill="#454D66"/>
<path d="M156.704 9.27087H156.671C156.649 9.26682 156.628 9.25849 156.609 9.24637C156.591 9.23425 156.575 9.21856 156.562 9.20022C156.55 9.18188 156.541 9.16124 156.537 9.13949C156.532 9.11774 156.532 9.09531 156.536 9.0735C156.583 8.79993 156.694 8.54162 156.861 8.32041C157.028 8.0992 157.246 7.92161 157.496 7.80265C157.539 7.78654 157.586 7.78755 157.628 7.80548C157.67 7.82341 157.704 7.85687 157.722 7.89893C157.739 7.94108 157.74 7.9885 157.723 8.03088C157.706 8.07325 157.672 8.10714 157.631 8.12517C157.432 8.22217 157.26 8.36545 157.128 8.543C156.996 8.72055 156.908 8.92722 156.872 9.14571C156.863 9.18301 156.842 9.21597 156.811 9.23885C156.78 9.26172 156.742 9.27306 156.704 9.27087Z" fill="#454D66"/>
<path d="M179.241 19.7858C179.812 20.2142 180.292 20.6137 180.791 21.047C181.291 21.4802 181.751 21.9135 182.231 22.3612C183.167 23.2662 184.06 24.2145 184.919 25.2061C185.784 26.2029 186.585 27.2527 187.319 28.3496C187.511 28.6191 187.679 28.9128 187.857 29.192C188.035 29.4712 188.212 29.7552 188.371 30.0489C188.529 30.3425 188.697 30.6169 188.851 30.949L189.105 31.4786L189.311 32.0225C189.752 33.3882 189.96 34.8188 189.926 36.2539C189.896 37.5891 189.753 38.9193 189.499 40.2301C189.244 41.5055 188.923 42.7668 188.539 44.009C188.152 45.2442 187.698 46.4574 187.18 47.6434L185.447 46.9984C185.745 45.843 186.028 44.6299 186.239 43.4313C186.475 42.2444 186.646 41.0456 186.753 39.8402C186.869 38.6726 186.896 37.4978 186.835 36.3261C186.799 35.7704 186.73 35.2174 186.628 34.6701C186.528 34.1636 186.382 33.6673 186.191 33.1875L186.047 32.8553L185.884 32.5472C185.755 32.3258 185.577 32.0659 185.404 31.8252C185.231 31.5845 185.087 31.3438 184.924 31.0983C184.761 30.8528 184.598 30.6169 184.411 30.381C183.715 29.4182 182.923 28.5469 182.135 27.6564C181.348 26.7658 180.484 25.9234 179.606 25.1099C179.169 24.6959 178.727 24.2915 178.276 23.8968C177.825 23.502 177.355 23.1073 176.961 22.7703L179.241 19.7858Z" fill="#E4897B"/>
<path d="M186.003 45.8474L183.373 47.7729L186.733 49.5541C186.733 49.5541 187.736 47.7729 187.41 46.2855L186.003 45.8474Z" fill="#E4897B"/>
<path d="M182.539 50.8924L185.294 51.7493L186.753 49.5638L183.374 47.7827L182.539 50.8924Z" fill="#E4897B"/>
<path d="M209.87 106.732H209.813C209.729 106.722 209.649 106.69 209.582 106.639C209.515 106.588 209.462 106.521 209.429 106.443C209.402 106.398 209.389 106.346 209.389 106.294C209.389 106.242 209.402 106.19 209.429 106.145C209.664 105.74 210.984 105.663 211.133 105.663C211.149 105.663 211.164 105.668 211.178 105.676C211.191 105.685 211.202 105.697 211.209 105.711C211.219 105.726 211.224 105.742 211.224 105.76C211.224 105.777 211.219 105.793 211.209 105.808C210.893 106.159 210.321 106.732 209.87 106.732ZM210.926 105.851C210.398 105.89 209.697 106.015 209.577 106.227C209.563 106.245 209.555 106.268 209.555 106.292C209.555 106.315 209.563 106.338 209.577 106.357C209.598 106.409 209.632 106.455 209.676 106.49C209.719 106.526 209.771 106.549 209.827 106.559C210.081 106.583 210.48 106.323 210.926 105.851V105.851Z" fill="#58B368"/>
<path d="M211.042 105.842C210.6 105.842 209.731 105.596 209.568 105.24C209.539 105.177 209.533 105.107 209.551 105.04C209.568 104.973 209.608 104.915 209.664 104.874C209.713 104.83 209.771 104.797 209.834 104.776C209.897 104.755 209.963 104.748 210.029 104.754C210.557 104.807 211.176 105.664 211.2 105.717C211.207 105.73 211.211 105.745 211.211 105.76C211.211 105.775 211.207 105.79 211.2 105.803C211.194 105.817 211.185 105.829 211.173 105.838C211.161 105.847 211.147 105.854 211.133 105.856L211.042 105.842ZM209.976 104.927C209.94 104.926 209.905 104.933 209.872 104.946C209.839 104.959 209.809 104.979 209.784 105.004C209.702 105.076 209.712 105.129 209.726 105.168C209.832 105.404 210.514 105.649 210.96 105.649C210.739 105.375 210.326 104.942 210 104.908L209.976 104.927Z" fill="#58B368"/>
<path d="M185.937 114.776C185.642 114.797 185.347 114.727 185.092 114.574C185.028 114.524 184.974 114.461 184.936 114.389C184.898 114.316 184.876 114.237 184.872 114.155C184.865 114.109 184.872 114.062 184.891 114.02C184.911 113.978 184.943 113.943 184.982 113.919C185.371 113.654 186.849 114.323 187.142 114.463C187.158 114.47 187.172 114.482 187.181 114.498C187.189 114.514 187.193 114.532 187.19 114.55C187.188 114.568 187.181 114.585 187.169 114.599C187.157 114.613 187.141 114.623 187.123 114.627C186.734 114.717 186.337 114.767 185.937 114.776V114.776ZM185.246 114.025C185.187 114.021 185.129 114.034 185.078 114.063C185.066 114.073 185.057 114.086 185.051 114.1C185.045 114.114 185.043 114.13 185.044 114.145C185.046 114.202 185.061 114.258 185.087 114.308C185.114 114.358 185.152 114.401 185.198 114.434C185.448 114.627 186.048 114.651 186.825 114.511C186.328 114.266 185.795 114.102 185.246 114.025V114.025Z" fill="#58B368"/>
<path d="M187.102 114.626H187.069C186.589 114.424 185.595 113.63 185.653 113.221C185.653 113.129 185.725 113.019 185.946 112.99C186.81 112.889 187.174 114.434 187.189 114.525C187.192 114.541 187.19 114.557 187.185 114.572C187.18 114.587 187.172 114.601 187.16 114.612C187.143 114.624 187.123 114.629 187.102 114.626ZM186.027 113.158H185.97C185.878 113.158 185.826 113.197 185.821 113.24C185.792 113.476 186.474 114.107 186.968 114.381C186.858 114.001 186.56 113.158 186.027 113.158Z" fill="#58B368"/>
<path d="M161.386 8.40442L160.656 8.49107C160.656 8.49107 161.203 8.86173 161.386 8.40442Z" fill="#454D66"/>
<path d="M184.069 110.141L191.854 109.944L191.408 107.541L182.902 107.946L184.069 110.141Z" fill="#58B368"/>
<path opacity="0.5" d="M184.069 110.141L191.854 109.944L191.408 107.541L182.902 107.946L184.069 110.141Z" fill="white"/>
<path d="M207.783 103.094L212.928 99.4208L211.762 97.168L206.107 101.457L207.783 103.094Z" fill="#58B368"/>
<path opacity="0.5" d="M207.783 103.094L212.928 99.4208L211.762 97.168L206.107 101.457L207.783 103.094Z" fill="white"/>
<path d="M179.798 39.6861L180.182 39.5609C180.259 39.5369 180.307 39.4791 180.283 39.4358L179.582 37.8424C179.582 37.7942 179.486 37.775 179.409 37.7991L179.025 37.9242C178.948 37.9483 178.9 38.006 178.924 38.0494L179.62 39.6428C179.641 39.6688 179.669 39.6871 179.702 39.695C179.734 39.7028 179.768 39.6997 179.798 39.6861Z" fill="#58B368"/>
<path d="M168.373 43.3242L168.757 43.2038C168.834 43.1749 168.877 43.1172 168.858 43.0738L168.157 41.4804C168.157 41.4323 168.056 41.4131 167.98 41.4371L167.596 41.5623C167.519 41.5623 167.476 41.6441 167.495 41.6874L168.196 43.2808C168.215 43.3242 168.32 43.3242 168.373 43.3242Z" fill="#58B368"/>
<path d="M174.082 41.4944L174.466 41.374C174.482 41.3737 174.497 41.3699 174.511 41.3628C174.525 41.3558 174.537 41.3456 174.547 41.3332C174.557 41.3207 174.564 41.3062 174.567 41.2908C174.57 41.2754 174.57 41.2594 174.567 41.2441L173.866 39.6507C173.866 39.6074 173.765 39.5881 173.688 39.6122L173.309 39.7325C173.232 39.7566 173.184 39.8144 173.203 39.8625L173.904 41.4559C173.926 41.4804 173.955 41.4974 173.987 41.5043C174.019 41.5112 174.052 41.5077 174.082 41.4944Z" fill="#58B368"/>
<path opacity="0.4" d="M179.798 39.6861L180.182 39.5609C180.259 39.5369 180.307 39.4791 180.283 39.4358L179.582 37.8424C179.582 37.7942 179.486 37.775 179.409 37.7991L179.025 37.9242C178.948 37.9483 178.9 38.006 178.924 38.0494L179.62 39.6428C179.641 39.6688 179.669 39.6871 179.702 39.695C179.734 39.7028 179.768 39.6997 179.798 39.6861Z" fill="black"/>
<path opacity="0.4" d="M168.373 43.3242L168.757 43.2038C168.834 43.1749 168.877 43.1172 168.858 43.0738L168.157 41.4804C168.157 41.4323 168.056 41.4131 167.98 41.4371L167.596 41.5623C167.519 41.5623 167.476 41.6441 167.495 41.6874L168.196 43.2808C168.215 43.3242 168.32 43.3242 168.373 43.3242Z" fill="black"/>
<path opacity="0.4" d="M174.082 41.4944L174.466 41.374C174.482 41.3737 174.497 41.3699 174.511 41.3628C174.525 41.3558 174.537 41.3456 174.547 41.3332C174.557 41.3207 174.564 41.3062 174.567 41.2908C174.57 41.2754 174.57 41.2594 174.567 41.2441L173.866 39.6507C173.866 39.6074 173.765 39.5881 173.688 39.6122L173.309 39.7325C173.232 39.7566 173.184 39.8144 173.203 39.8625L173.904 41.4559C173.926 41.4804 173.955 41.4974 173.987 41.5043C174.019 41.5112 174.052 41.5077 174.082 41.4944Z" fill="black"/>
<path d="M178.722 29.7634C177.364 27.8379 176.063 23.3562 176.399 21.6761L177.743 23.3321C178.041 25.9123 178.362 27.9775 178.722 29.7634Z" fill="#58B368"/>
<path opacity="0.5" d="M178.722 29.7634C177.364 27.8379 176.063 23.3562 176.399 21.6761L177.743 23.3321C178.041 25.9123 178.362 27.9775 178.722 29.7634Z" fill="white"/>
<path d="M177.091 16.3674C178.929 16.2856 182.544 20.8154 182.544 20.8154L178.79 26.1106C178.79 26.1106 174.576 22.7409 174.249 20.3966C173.971 18.4422 174.748 16.4926 177.091 16.3674Z" fill="#58B368"/>
<path opacity="0.6" d="M177.091 16.3674C178.929 16.2856 182.544 20.8154 182.544 20.8154L178.79 26.1106C178.79 26.1106 174.576 22.7409 174.249 20.3966C173.971 18.4422 174.748 16.4926 177.091 16.3674Z" fill="white"/>
</g>
<defs>
<clipPath id="clip0_28_4531">
<rect width="280" height="180" fill="white"/>
</clipPath>
</defs>
</svg>
