<svg width="280" height="180" viewBox="0 0 280 180" fill="none" xmlns="http://www.w3.org/2000/svg">
<path d="M260.287 157.994H19V158.115H260.287V157.994Z" fill="#EBEBEB"/>
<path d="M236.11 165.759H220.127V165.88H236.11V165.759Z" fill="#EBEBEB"/>
<path d="M150.849 164.249H144.628V164.369H150.849V164.249Z" fill="#EBEBEB"/>
<path d="M187.742 164.76H174.645V164.881H187.742V164.76Z" fill="#EBEBEB"/>
<path d="M219.645 161.281H192.567V161.402H219.645V161.281Z" fill="#EBEBEB"/>
<path d="M57.1186 166.864H44.3159V166.985H57.1186V166.864Z" fill="#EBEBEB"/>
<path d="M72.5128 166.864H61.4136V166.985H72.5128V166.864Z" fill="#EBEBEB"/>
<path d="M111.563 164.191H82.2173V164.311H111.563V164.191Z" fill="#EBEBEB"/>
<path d="M133.37 136.472H40.1896C39.4597 136.471 38.76 136.18 38.2443 135.663C37.7286 135.146 37.439 134.446 37.439 133.716V2.73137C37.4453 2.00559 37.7378 1.31163 38.2528 0.800213C38.7678 0.2888 39.4638 0.0012433 40.1896 0H133.37C134.101 0 134.801 0.29031 135.318 0.807066C135.835 1.32382 136.125 2.02469 136.125 2.7555V133.716C136.125 134.447 135.835 135.148 135.318 135.665C134.801 136.182 134.101 136.472 133.37 136.472V136.472ZM40.1896 0.0965151C39.4917 0.0977935 38.8227 0.375956 38.3296 0.869949C37.8365 1.36394 37.5596 2.0334 37.5596 2.73137V133.716C37.5596 134.414 37.8365 135.084 38.3296 135.578C38.8227 136.072 39.4917 136.35 40.1896 136.351H133.37C134.068 136.35 134.738 136.072 135.232 135.578C135.725 135.084 136.003 134.415 136.005 133.716V2.73137C136.003 2.03295 135.725 1.36351 135.232 0.869654C134.738 0.3758 134.068 0.0977908 133.37 0.0965151H40.1896Z" fill="#EBEBEB"/>
<path d="M237.755 136.472H144.57C143.84 136.471 143.14 136.18 142.623 135.663C142.107 135.147 141.816 134.447 141.815 133.716V2.73137C141.823 2.00515 142.116 1.31119 142.632 0.799911C143.148 0.288632 143.844 0.00122974 144.57 0H237.755C238.48 0.00251155 239.175 0.29063 239.689 0.801906C240.203 1.31318 240.495 2.00642 240.501 2.73137V133.716C240.501 134.445 240.212 135.145 239.698 135.661C239.183 136.178 238.485 136.469 237.755 136.472V136.472ZM144.57 0.0965151C143.872 0.0977908 143.203 0.3758 142.709 0.869654C142.215 1.36351 141.937 2.03295 141.936 2.73137V133.716C141.937 134.415 142.215 135.084 142.709 135.578C143.203 136.072 143.872 136.35 144.57 136.351H237.755C238.454 136.35 239.123 136.072 239.617 135.578C240.111 135.084 240.389 134.415 240.39 133.716V2.73137C240.389 2.03295 240.111 1.36351 239.617 0.869654C239.123 0.3758 238.454 0.0977908 237.755 0.0965151H144.57Z" fill="#EBEBEB"/>
<path d="M146.834 116.488C145.869 113.713 138.249 117.487 135.155 122.086C133.095 125.146 131.835 128.417 131.251 132.809C131.319 127.8 131.401 122.414 131.478 117.333C132.106 116.068 133.534 113.149 134.557 110.832C137.988 103.111 146.139 100.216 148.952 95.3611C152.644 88.9718 152.62 79.3927 149.483 75.9327C146.752 72.9311 137.713 93.2474 136.695 95.5155C133.917 101.59 132.167 108.084 131.517 114.732C131.594 109.959 131.666 105.563 131.724 102.185C131.917 91.1579 132.154 87.6109 132.265 86.5203C132.641 85.9895 133.085 85.367 133.346 85.034C135.532 82.2206 140.387 78.8667 142.809 74.7745C146.351 68.7954 145.782 61.6437 143.292 58.9798C140.695 56.1954 136.101 62.7777 133.664 69.2973C131.227 75.8168 132.27 82.0613 131.584 87.4807C131.444 88.5423 131.295 92.5766 131.16 98.1745C130.417 92.152 128.945 88.1176 126.213 84.3584C122.835 79.7353 119.94 74.1037 117.194 74.8324C114.448 75.5611 115.915 83.0072 118.106 88.2383C120.036 92.9 129.688 97.5423 131.087 101.292C130.918 108.878 130.769 118.491 130.663 127.438C129.905 122.815 130.426 122.429 127.318 115.349C125.475 111.141 117.903 105.954 117.001 108.844C116.099 111.735 117.484 117.198 120.326 121.024C122.633 124.113 127.748 124.108 128.93 126.024C129.21 126.473 130.122 128.186 130.643 129.17C130.518 140.096 130.465 149.742 130.528 153.029L131.01 153.062C131.01 152.213 131.049 146.654 131.145 139.299C132.39 135.386 140.753 133.103 143.335 129.03C146.052 124.788 147.997 119.818 146.834 116.488Z" fill="#E6E6E6"/>
<path d="M138.973 157.995H122.922C122.496 157.995 122.084 157.849 121.754 157.579C121.424 157.31 121.197 156.935 121.113 156.518L119.974 150.901H141.921L140.777 156.518C140.694 156.935 140.468 157.31 140.139 157.579C139.81 157.848 139.398 157.995 138.973 157.995Z" fill="#F0F0F0"/>
<path d="M142.38 153.077H119.515C119.249 153.077 118.992 152.979 118.794 152.801C118.596 152.622 118.471 152.377 118.444 152.112L117.961 147.957C117.945 147.806 117.961 147.654 118.007 147.51C118.053 147.366 118.13 147.233 118.231 147.12C118.332 147.007 118.455 146.917 118.593 146.855C118.732 146.793 118.881 146.761 119.033 146.76H142.833C142.984 146.761 143.134 146.793 143.272 146.855C143.41 146.917 143.533 147.008 143.634 147.12C143.734 147.233 143.81 147.366 143.856 147.51C143.902 147.655 143.917 147.807 143.9 147.957L143.417 152.112C143.391 152.372 143.272 152.613 143.081 152.791C142.89 152.968 142.64 153.07 142.38 153.077V153.077Z" fill="#F0F0F0"/>
<path d="M212.401 155.982H227.771V90.3955H212.401V155.982Z" fill="#F0F0F0"/>
<path d="M147.099 157.994H226.733V155.982H147.099V157.994Z" fill="#F0F0F0"/>
<path d="M212.396 90.3955H146.066V155.982H212.396V90.3955Z" fill="#F5F5F5"/>
<path d="M206.355 116.247H152.108V130.136H206.355V116.247Z" fill="#F0F0F0"/>
<path d="M206.355 134.122H152.108V148.01H206.355V134.122Z" fill="#F0F0F0"/>
<path d="M173.144 118.641H185.319C186.148 118.641 186.82 117.97 186.82 117.142C186.82 116.315 186.148 115.644 185.319 115.644H173.144C172.315 115.644 171.643 116.315 171.643 117.142C171.643 117.97 172.315 118.641 173.144 118.641Z" fill="#F5F5F5"/>
<path d="M206.355 98.3728H152.108V112.261H206.355V98.3728Z" fill="#F0F0F0"/>
<path d="M173.144 100.766H185.319C185.716 100.765 186.096 100.607 186.377 100.327C186.658 100.047 186.817 99.6671 186.82 99.2703C186.819 98.8727 186.66 98.4917 186.379 98.2105C186.098 97.9293 185.717 97.7708 185.319 97.7695H173.144C172.746 97.7708 172.365 97.9293 172.084 98.2105C171.803 98.4917 171.644 98.8727 171.643 99.2703V99.2703C171.646 99.6671 171.805 100.047 172.086 100.327C172.367 100.607 172.747 100.765 173.144 100.766Z" fill="#F5F5F5"/>
<path d="M173.144 136.515H185.319C185.716 136.515 186.097 136.358 186.379 136.078C186.66 135.797 186.819 135.417 186.82 135.019V135.019C186.819 134.622 186.66 134.241 186.379 133.96C186.098 133.678 185.717 133.52 185.319 133.519H173.144C172.746 133.52 172.365 133.678 172.084 133.96C171.803 134.241 171.644 134.622 171.643 135.019V135.019C171.644 135.417 171.803 135.797 172.084 136.078C172.366 136.358 172.747 136.515 173.144 136.515V136.515Z" fill="#F5F5F5"/>
<path d="M144.701 90.3955L212.396 90.3955V88.5231L144.701 88.5231V90.3955Z" fill="#F0F0F0"/>
<path d="M229.229 88.5281H212.396V90.4005H229.229V88.5281Z" fill="#E6E6E6"/>
<path d="M90.1362 157.994H105.323L105.323 59.7762H90.1362L90.1362 157.994Z" fill="#E0E0E0"/>
<path d="M51.4336 157.995H102.282L107.624 37.1003H56.7757L51.4336 157.995Z" fill="#E6E6E6"/>
<path d="M44.0166 157.995H100.265L105.603 37.1003H49.3587L44.0166 157.995Z" fill="#F0F0F0"/>
<path d="M94.7591 152.069L99.2567 43.0312H54.8647L50.3623 152.069H94.7591Z" fill="white"/>
<path d="M75.6833 152.069L90.7734 43.0312H86.0393L70.9492 152.069H75.6833Z" fill="#FAFAFA"/>
<path d="M68.9416 152.069L84.0317 43.0312H75.9582L60.8682 152.069H68.9416Z" fill="#FAFAFA"/>
<path d="M160.621 70.031L222.164 70.031V12.46L160.621 12.46V70.031Z" fill="#E6E6E6"/>
<path d="M158.705 70.031L221.266 70.031V12.46L158.705 12.46V70.031Z" fill="#F5F5F5"/>
<path d="M160.621 72.386L222.164 72.386V70.031L160.621 70.031V72.386Z" fill="#E6E6E6"/>
<path d="M156.997 72.386L215.378 72.386V70.031H156.997V72.386Z" fill="#F5F5F5"/>
<path d="M218.592 66.4601V16.0264L161.378 16.0264V66.4601H218.592Z" fill="#FAFAFA"/>
<path d="M161.765 66.465V16.0312H161.383V66.465H161.765Z" fill="#E6E6E6"/>
<path d="M209.105 66.4601L199.212 16.0264H186.246L196.138 66.4601H209.105Z" fill="white"/>
<path d="M194.039 66.4601L184.147 16.0264H178.293L188.186 66.4601H194.039Z" fill="white"/>
<path d="M216.682 63.7286V10.4814C216.682 10.3188 216.55 10.187 216.387 10.187H216.363C216.201 10.187 216.069 10.3188 216.069 10.4814V63.7286C216.069 63.8911 216.201 64.0229 216.363 64.0229H216.387C216.55 64.0229 216.682 63.8911 216.682 63.7286Z" fill="#EBEBEB"/>
<path opacity="0.5" d="M157.306 18.9939L223.201 18.9939V10.1821L157.306 10.1821V18.9939Z" fill="#E6E6E6"/>
<path d="M157.306 11.2776L223.201 11.2776V10.1821L157.306 10.1821V11.2776Z" fill="#E0E0E0"/>
<path d="M157.417 10.665L223.095 10.665C223.327 10.665 223.515 10.4771 223.515 10.2452V10.1246C223.515 9.89268 223.327 9.70472 223.095 9.70472L157.417 9.70472C157.185 9.70472 156.997 9.89268 156.997 10.1246V10.2452C156.997 10.4771 157.185 10.665 157.417 10.665Z" fill="#EBEBEB"/>
<path d="M157.223 19.226H223.283C223.313 19.226 223.343 19.22 223.371 19.2083C223.399 19.1966 223.424 19.1795 223.445 19.1579C223.466 19.1363 223.483 19.1107 223.494 19.0827C223.505 19.0546 223.51 19.0246 223.51 18.9944V18.9944C223.51 18.9342 223.486 18.8765 223.443 18.834C223.401 18.7915 223.343 18.7676 223.283 18.7676H157.223C157.163 18.7676 157.105 18.7913 157.061 18.8337C157.018 18.8761 156.993 18.9338 156.992 18.9944V18.9944C156.992 19.0558 157.016 19.1147 157.06 19.1582C157.103 19.2016 157.162 19.226 157.223 19.226Z" fill="white"/>
<path d="M139.643 179.788C191.319 179.788 233.21 177.342 233.21 174.325C233.21 171.308 191.319 168.862 139.643 168.862C87.9682 168.862 46.0771 171.308 46.0771 174.325C46.0771 177.342 87.9682 179.788 139.643 179.788Z" fill="#F5F5F5"/>
<path d="M50.2892 104.758L49.8003 104.815L50.6691 112.244L51.158 112.187L50.2892 104.758Z" fill="#58B368"/>
<path d="M51.4821 114.95L50.9932 115.007L51.4315 118.755L51.9204 118.698L51.4821 114.95Z" fill="#58B368"/>
<path d="M83.9494 89.6088L83.3704 87.9825C82.972 86.8648 82.2062 85.9153 81.198 85.2893C80.1899 84.6634 78.9992 84.3982 77.8208 84.537L54.7586 87.2345C53.377 87.3966 52.1164 88.1007 51.2539 89.1921C50.3915 90.2835 49.9979 91.6728 50.1596 93.0544L56.7226 149.178C56.7771 149.647 56.9236 150.101 57.1537 150.514C57.3839 150.927 57.6931 151.29 58.0638 151.583C58.4344 151.876 58.8593 152.093 59.3139 152.222C59.7686 152.351 60.2442 152.389 60.7135 152.334L143.234 142.682C143.704 142.629 144.159 142.483 144.573 142.254C144.987 142.024 145.351 141.715 145.645 141.344C145.939 140.973 146.157 140.548 146.287 140.093C146.416 139.638 146.454 139.161 146.399 138.691L140.705 90.1734C140.595 89.2263 140.113 88.3618 139.366 87.7699C138.618 87.178 137.666 86.9073 136.719 87.0174L88.7993 92.6249C87.769 92.7441 86.7288 92.5109 85.848 91.9632C84.9673 91.4155 84.2981 90.5856 83.9494 89.6088Z" fill="#58B368"/>
<path d="M86.2525 65.2026L60.1802 70.3982L67.3384 106.319L93.4107 101.124L86.2525 65.2026Z" fill="#58B368"/>
<path opacity="0.7" d="M86.2525 65.2026L60.1802 70.3982L67.3384 106.319L93.4107 101.124L86.2525 65.2026Z" fill="white"/>
<g opacity="0.4">
<path opacity="0.4" d="M82.7721 73.8336L66.7121 77.0379C66.3379 77.1106 65.9503 77.0327 65.6332 76.8213C65.316 76.6099 65.0951 76.282 65.0182 75.9087V75.9087C64.9456 75.5346 65.0234 75.1469 65.2348 74.8298C65.4463 74.5127 65.7742 74.2917 66.1475 74.2149L82.2172 71.0251C82.5913 70.9524 82.979 71.0303 83.2961 71.2417C83.6132 71.4531 83.8341 71.781 83.911 72.1543V72.1543C83.9791 72.5276 83.898 72.9128 83.685 73.2269C83.472 73.541 83.1442 73.7589 82.7721 73.8336V73.8336Z" fill="#58B368"/>
<path opacity="0.4" d="M83.9544 79.784L67.8943 83.0028C67.5209 83.074 67.1345 82.9955 66.8185 82.7842C66.5025 82.573 66.2822 82.2459 66.2053 81.8736V81.8736C66.1341 81.5002 66.2126 81.1137 66.4239 80.7977C66.6352 80.4817 66.9623 80.2615 67.3346 80.1846L83.3946 76.9851C83.768 76.9139 84.1544 76.9924 84.4705 77.2037C84.7865 77.415 85.0067 77.7421 85.0836 78.1143C85.1493 78.4848 85.0681 78.8663 84.8573 79.178C84.6465 79.4897 84.3227 79.707 83.9544 79.784V79.784Z" fill="#58B368"/>
<path opacity="0.4" d="M85.137 85.7239L69.0769 88.9234C68.7035 88.9946 68.3171 88.9161 68.0011 88.7048C67.6851 88.4936 67.4648 88.1665 67.3879 87.7942V87.7942C67.3167 87.4208 67.3952 87.0343 67.6065 86.7183C67.8178 86.4023 68.1449 86.1821 68.5172 86.1052L84.5772 82.9009C84.9506 82.8297 85.3371 82.9082 85.6531 83.1195C85.9691 83.3307 86.1893 83.6578 86.2662 84.0301V84.0301C86.3388 84.4042 86.261 84.7919 86.0496 85.109C85.8382 85.4261 85.5103 85.6471 85.137 85.7239V85.7239Z" fill="#58B368"/>
<path opacity="0.4" d="M86.3239 91.6889L70.2638 94.8884C69.8897 94.961 69.502 94.8832 69.1849 94.6718C68.8678 94.4604 68.6469 94.1325 68.57 93.7592C68.4974 93.385 68.5752 92.9974 68.7866 92.6803C68.998 92.3632 69.3259 92.1422 69.6992 92.0653L85.7593 88.8659C86.1334 88.7933 86.5211 88.8711 86.8382 89.0825C87.1553 89.2939 87.3762 89.6218 87.4531 89.9951V89.9951C87.5257 90.3692 87.4479 90.7569 87.2365 91.074C87.0251 91.3911 86.6971 91.6121 86.3239 91.6889V91.6889Z" fill="#58B368"/>
<path opacity="0.4" d="M83.1146 98.4786L71.446 100.805C71.0726 100.876 70.6862 100.797 70.3702 100.586C70.0541 100.375 69.8339 100.048 69.757 99.6754V99.6754C69.6844 99.3012 69.7622 98.9136 69.9736 98.5965C70.185 98.2794 70.5129 98.0584 70.8862 97.9815L82.5549 95.6555C82.9283 95.5843 83.3147 95.6628 83.6307 95.8741C83.9467 96.0854 84.167 96.4125 84.2439 96.7847V96.7847C84.3165 97.1589 84.2386 97.5466 84.0272 97.8637C83.8158 98.1808 83.4879 98.4017 83.1146 98.4786V98.4786Z" fill="#58B368"/>
</g>
<path d="M123.402 58.2804L97.0625 61.8838L102.027 98.1731L128.367 94.5697L123.402 58.2804Z" fill="#58B368"/>
<path opacity="0.7" d="M123.402 58.2804L97.0625 61.8838L102.027 98.1731L128.367 94.5697L123.402 58.2804Z" fill="white"/>
<g opacity="0.4">
<path opacity="0.4" d="M119.404 66.6915L103.18 68.9113C102.802 68.9609 102.42 68.8594 102.117 68.6291C101.813 68.3987 101.613 68.058 101.559 67.6807V67.6807C101.509 67.3029 101.611 66.9208 101.841 66.6172C102.071 66.3137 102.412 66.1132 102.789 66.0593L119.013 63.8395C119.391 63.7899 119.773 63.8913 120.077 64.1217C120.38 64.352 120.581 64.6928 120.635 65.07V65.07C120.684 65.4478 120.583 65.83 120.353 66.1335C120.122 66.4371 119.781 66.6375 119.404 66.6915V66.6915Z" fill="#58B368"/>
<path opacity="0.4" d="M120.225 72.6901L104.001 74.91C103.623 74.9595 103.241 74.8581 102.937 74.6278C102.634 74.3974 102.433 74.0566 102.379 73.6794V73.6794C102.331 73.3024 102.433 72.9215 102.663 72.619C102.894 72.3165 103.234 72.1168 103.61 72.0628L119.834 69.843C120.211 69.7933 120.593 69.8941 120.896 70.1234C121.199 70.3528 121.4 70.6924 121.456 71.0687V71.0687C121.505 71.4465 121.404 71.8287 121.173 72.1322C120.943 72.4357 120.602 72.6362 120.225 72.6901V72.6901Z" fill="#58B368"/>
<path opacity="0.4" d="M109.289 80.3002L104.821 80.9131C104.443 80.9627 104.061 80.8613 103.757 80.6309C103.454 80.4005 103.253 80.0598 103.199 79.6825C103.15 79.3047 103.251 78.9226 103.482 78.619C103.712 78.3155 104.053 78.115 104.43 78.0611L108.903 77.4482C109.28 77.4 109.661 77.5021 109.964 77.7323C110.266 77.9625 110.466 78.3025 110.52 78.6788V78.6788C110.57 79.0566 110.468 79.4387 110.238 79.7423C110.007 80.0458 109.667 80.2463 109.289 80.3002Z" fill="#58B368"/>
<path opacity="0.4" d="M117.961 79.1128L113.488 79.7256C113.111 79.7738 112.73 79.6718 112.427 79.4415C112.125 79.2113 111.925 78.8713 111.871 78.4951V78.4951C111.822 78.1172 111.923 77.7351 112.153 77.4316C112.384 77.128 112.725 76.9275 113.102 76.8736L117.57 76.2656C117.947 76.2159 118.329 76.3167 118.632 76.546C118.936 76.7754 119.137 77.115 119.192 77.4913V77.4913C119.241 77.8691 119.14 78.2513 118.91 78.5548C118.679 78.8584 118.339 79.0588 117.961 79.1128V79.1128Z" fill="#58B368"/>
<path opacity="0.4" d="M121.866 84.6915L105.641 86.9113C105.264 86.9609 104.881 86.8595 104.578 86.6291C104.274 86.3987 104.074 86.058 104.02 85.6807V85.6807C103.972 85.3037 104.074 84.9228 104.304 84.6203C104.534 84.3178 104.874 84.1181 105.251 84.0641L121.475 81.8395C121.853 81.7899 122.235 81.8913 122.538 82.1217C122.842 82.352 123.042 82.6928 123.096 83.07C123.146 83.4478 123.044 83.83 122.814 84.1335C122.584 84.4371 122.243 84.6375 121.866 84.6915V84.6915Z" fill="#58B368"/>
<path opacity="0.4" d="M118.256 91.2979L106.462 92.9097C106.085 92.958 105.705 92.8566 105.403 92.6274C105.1 92.3982 104.9 92.0594 104.845 91.684V91.684C104.795 91.3069 104.896 90.9254 105.125 90.622C105.355 90.3186 105.694 90.1176 106.071 90.0625L117.865 88.4507C118.241 88.4025 118.621 88.5038 118.924 88.7331C119.226 88.9623 119.426 89.3011 119.481 89.6765C119.531 90.0536 119.43 90.4351 119.201 90.7385C118.972 91.0419 118.632 91.2429 118.256 91.2979V91.2979Z" fill="#58B368"/>
</g>
<path d="M98.5476 63.575L72.063 65.8828L75.2425 102.372L101.727 100.064L98.5476 63.575Z" fill="#58B368"/>
<path opacity="0.8" d="M98.5476 63.575L72.063 65.8828L75.2425 102.372L101.727 100.064L98.5476 63.575Z" fill="white"/>
<g opacity="0.4">
<path opacity="0.4" d="M94.1416 71.787L77.8258 73.2058C77.4462 73.2366 77.0697 73.1167 76.778 72.8719C76.4862 72.6271 76.3026 72.2772 76.2671 71.898C76.2375 71.5192 76.3581 71.1439 76.6028 70.8532C76.8474 70.5625 77.1966 70.3797 77.5749 70.3441L93.8907 68.8964C94.2703 68.8655 94.6467 68.9855 94.9385 69.2303C95.2303 69.475 95.4138 69.8249 95.4494 70.2041V70.2041C95.468 70.394 95.4489 70.5858 95.3932 70.7682C95.3374 70.9507 95.2462 71.1204 95.1246 71.2675C95.0031 71.4146 94.8537 71.5362 94.685 71.6254C94.5163 71.7145 94.3316 71.7694 94.1416 71.787V71.787Z" fill="#58B368"/>
<path opacity="0.4" d="M94.6674 77.8192L78.3516 79.267C77.972 79.2978 77.5955 79.1779 77.3037 78.9331C77.012 78.6883 76.8284 78.3384 76.7929 77.9592V77.9592C76.762 77.5796 76.8819 77.2031 77.1267 76.9114C77.3715 76.6196 77.7214 76.436 78.1006 76.4005L94.4164 74.9528C94.796 74.9219 95.1725 75.0419 95.4643 75.2867C95.756 75.5314 95.9396 75.8813 95.9751 76.2605V76.2605C96.006 76.6401 95.8861 77.0166 95.6413 77.3084C95.3965 77.6001 95.0466 77.7837 94.6674 77.8192V77.8192Z" fill="#58B368"/>
<path opacity="0.4" d="M95.1937 83.8515L78.8779 85.2992C78.4983 85.3301 78.1219 85.2101 77.8301 84.9653C77.5383 84.7205 77.3548 84.3706 77.3192 83.9914C77.2884 83.6118 77.4083 83.2353 77.6531 82.9436C77.8979 82.6518 78.2478 82.4683 78.627 82.4327L94.9428 80.985C95.3224 80.9541 95.6989 81.0741 95.9906 81.3189C96.2824 81.5637 96.466 81.9136 96.5015 82.2928C96.5324 82.6724 96.4124 83.0488 96.1676 83.3406C95.9228 83.6324 95.5729 83.8159 95.1937 83.8515V83.8515Z" fill="#58B368"/>
<path opacity="0.4" d="M95.7294 89.8833L79.4136 91.331C79.034 91.3619 78.6575 91.2419 78.3657 90.9971C78.074 90.7523 77.8904 90.4024 77.8549 90.0233V90.0233C77.824 89.6437 77.944 89.2672 78.1888 88.9754C78.4335 88.6837 78.7834 88.5001 79.1626 88.4645L95.4785 87.0458C95.8581 87.0149 96.2345 87.1349 96.5263 87.3797C96.8181 87.6245 97.0016 87.9744 97.0372 88.3536C97.0601 88.7284 96.9366 89.0974 96.6926 89.3828C96.4486 89.6683 96.1032 89.8477 95.7294 89.8833V89.8833Z" fill="#58B368"/>
<path opacity="0.4" d="M91.7869 96.3063L79.93 97.339C79.548 97.3739 79.1678 97.2558 78.8729 97.0106C78.5779 96.7654 78.3923 96.4132 78.3568 96.0313V96.0313C78.326 95.6517 78.4459 95.2752 78.6907 94.9834C78.9355 94.6916 79.2854 94.5081 79.6646 94.4725L91.5214 93.4398C91.901 93.409 92.2775 93.5289 92.5693 93.7737C92.861 94.0185 93.0446 94.3684 93.0801 94.7476V94.7476C93.1112 95.1249 92.9932 95.4994 92.7515 95.7908C92.5097 96.0821 92.1634 96.2672 91.7869 96.3063V96.3063Z" fill="#58B368"/>
</g>
<path d="M130.82 61.8017L104.266 63.0818L106.029 99.6666L132.583 98.3865L130.82 61.8017Z" fill="#58B368"/>
<path opacity="0.8" d="M130.82 61.8017L104.266 63.0818L106.029 99.6666L132.583 98.3865L130.82 61.8017Z" fill="white"/>
<g opacity="0.4">
<path opacity="0.4" d="M126.103 69.8279L109.748 70.6193C109.368 70.6351 108.997 70.5007 108.715 70.2452C108.434 69.9896 108.264 69.6334 108.242 69.2536V69.2536C108.227 68.8736 108.361 68.5026 108.617 68.2208C108.872 67.9391 109.228 67.7692 109.608 67.748L125.967 66.9566C126.347 66.9408 126.718 67.0752 127 67.3307C127.282 67.5863 127.452 67.9425 127.473 68.3223V68.3223C127.489 68.7031 127.354 69.0748 127.097 69.3567C126.841 69.6386 126.483 69.8079 126.103 69.8279V69.8279Z" fill="#58B368"/>
<path opacity="0.4" d="M126.397 75.8793L110.038 76.6659C109.658 76.6817 109.287 76.5473 109.005 76.2918C108.723 76.0362 108.553 75.68 108.532 75.3002V75.3002C108.516 74.9194 108.651 74.5477 108.908 74.2658C109.164 73.9839 109.522 73.8146 109.903 73.7946L126.257 73.0032C126.638 72.9874 127.009 73.1225 127.291 73.3791C127.573 73.6357 127.743 73.9931 127.763 74.3737C127.778 74.7538 127.644 75.1248 127.388 75.4065C127.133 75.6883 126.777 75.8581 126.397 75.8793V75.8793Z" fill="#58B368"/>
<path opacity="0.4" d="M114.839 82.5195L110.332 82.7366C109.952 82.7524 109.581 82.618 109.299 82.3625C109.018 82.1069 108.848 81.7507 108.826 81.3709V81.3709C108.811 80.9909 108.945 80.6199 109.201 80.3381C109.456 80.0564 109.812 79.8865 110.192 79.8653L114.699 79.6433C115.08 79.6276 115.452 79.7626 115.734 80.0192C116.016 80.2758 116.185 80.6332 116.205 81.0138V81.0138C116.221 81.3939 116.086 81.7649 115.831 82.0466C115.575 82.3284 115.219 82.4982 114.839 82.5195V82.5195Z" fill="#58B368"/>
<path opacity="0.4" d="M123.579 82.0757L119.071 82.2928C118.691 82.3087 118.32 82.1743 118.039 81.9187C117.757 81.6631 117.587 81.307 117.566 80.9272V80.9272C117.55 80.5471 117.684 80.1761 117.94 79.8944C118.195 79.6126 118.552 79.4428 118.931 79.4215L123.439 79.2044C123.819 79.1886 124.19 79.323 124.471 79.5785C124.753 79.8341 124.923 80.1903 124.944 80.5701V80.5701C124.96 80.9501 124.826 81.3211 124.57 81.6029C124.315 81.8846 123.958 82.0545 123.579 82.0757V82.0757Z" fill="#58B368"/>
<path opacity="0.4" d="M126.981 87.9777L110.622 88.7643C110.242 88.7801 109.871 88.6457 109.589 88.3902C109.307 88.1346 109.137 87.7784 109.116 87.3986V87.3986C109.1 87.0178 109.235 86.6461 109.492 86.3642C109.748 86.0823 110.106 85.913 110.486 85.893L126.841 85.1016C127.222 85.0858 127.593 85.2209 127.875 85.4775C128.157 85.734 128.327 86.0914 128.347 86.4721C128.362 86.8521 128.228 87.2232 127.972 87.5049C127.717 87.7867 127.361 87.9565 126.981 87.9777Z" fill="#58B368"/>
<path opacity="0.4" d="M122.802 94.2415L110.916 94.8157C110.536 94.8315 110.165 94.6971 109.883 94.4416C109.602 94.186 109.432 93.8298 109.41 93.45C109.395 93.07 109.529 92.699 109.785 92.4172C110.04 92.1355 110.396 91.9656 110.776 91.9444L122.662 91.3701C123.042 91.3543 123.413 91.4888 123.695 91.7443C123.976 91.9999 124.146 92.356 124.168 92.7358V92.7358C124.183 93.1159 124.049 93.4869 123.793 93.7686C123.538 94.0504 123.182 94.2202 122.802 94.2415V94.2415Z" fill="#58B368"/>
</g>
<path d="M91.3138 90.6463L90.8892 89.0586C90.5917 87.9598 89.9008 87.0086 88.948 86.3858C87.9951 85.763 86.8466 85.512 85.7208 85.6806L62.6586 88.3782C61.2595 88.5496 59.9709 89.2256 59.0345 90.2792C58.0982 91.3329 57.5782 92.6919 57.5723 94.1015L58.88 149.042C58.8878 149.495 58.9924 149.941 59.1868 150.349C59.3812 150.758 59.6608 151.12 60.0069 151.412C60.3529 151.704 60.7574 151.918 61.1932 152.04C61.6289 152.163 62.0858 152.19 62.5331 152.121L145.053 142.47C146.011 142.354 146.894 141.892 147.537 141.172C148.179 140.451 148.536 139.521 148.542 138.556L147.413 91.0613C147.405 90.6085 147.299 90.1628 147.104 89.7541C146.91 89.3454 146.629 88.9831 146.283 88.6915C145.937 88.3999 145.532 88.1857 145.096 88.0635C144.66 87.9412 144.203 87.9136 143.755 87.9824L95.8404 93.5851C94.8568 93.7353 93.8523 93.5189 93.0178 92.9771C92.1833 92.4353 91.5769 91.6058 91.3138 90.6463Z" fill="#58B368"/>
<path opacity="0.3" d="M91.3138 90.6463L90.8892 89.0586C90.5917 87.9598 89.9008 87.0086 88.948 86.3858C87.9951 85.763 86.8466 85.512 85.7208 85.6806L62.6586 88.3782C61.2595 88.5496 59.9709 89.2256 59.0345 90.2792C58.0982 91.3329 57.5782 92.6919 57.5723 94.1015L58.88 149.042C58.8878 149.495 58.9924 149.941 59.1868 150.349C59.3812 150.758 59.6608 151.12 60.0069 151.412C60.3529 151.704 60.7574 151.918 61.1932 152.04C61.6289 152.163 62.0858 152.19 62.5331 152.121L145.053 142.47C146.011 142.354 146.894 141.892 147.537 141.172C148.179 140.451 148.536 139.521 148.542 138.556L147.413 91.0613C147.405 90.6085 147.299 90.1628 147.104 89.7541C146.91 89.3454 146.629 88.9831 146.283 88.6915C145.937 88.3999 145.532 88.1857 145.096 88.0635C144.66 87.9412 144.203 87.9136 143.755 87.9824L95.8404 93.5851C94.8568 93.7353 93.8523 93.5189 93.0178 92.9771C92.1833 92.4353 91.5769 91.6058 91.3138 90.6463Z" fill="black"/>
<path d="M171.976 64.2354C171.619 66.0257 171.238 67.7919 170.808 69.5437C170.379 71.2954 169.959 73.0665 169.491 74.8182L168.777 77.4386L168.685 77.7764C168.642 77.9212 168.593 78.0659 168.535 78.2155C168.412 78.544 168.25 78.8566 168.053 79.1469C167.814 79.5075 167.507 79.8188 167.15 80.0638C166.758 80.3302 166.305 80.4959 165.833 80.5464C165.118 80.5983 164.404 80.446 163.772 80.1072C163.293 79.8462 162.843 79.5339 162.431 79.1759C161.685 78.5238 161.025 77.7794 160.467 76.9608L161.842 75.7641C162.499 76.2748 163.192 76.7361 163.917 77.1442C164.232 77.3228 164.565 77.4667 164.911 77.5737C165.206 77.6702 165.466 77.6557 165.466 77.6075C165.466 77.5592 165.418 77.6075 165.394 77.6075C165.37 77.6075 165.394 77.6075 165.394 77.5254C165.394 77.4434 165.452 77.3565 165.486 77.2311L165.597 76.6954L166.156 74.0606L167.29 68.7909C167.657 67.0343 168.053 65.2729 168.434 63.5356L171.976 64.2354Z" fill="#FFC3BD"/>
<path d="M170.374 58.7191C166.257 61.8703 166.426 67.8108 166.426 67.8108L173.786 69.5722C173.786 69.5722 176.049 63.598 175.132 61.4119C174.176 59.1341 172.695 56.9433 170.374 58.7191Z" fill="#263238"/>
<path d="M162.209 75.8361L159.501 73.1289L158.054 77.3659C158.054 77.3659 160.341 78.5965 162.527 77.4335L162.209 75.8361Z" fill="#FFC3BD"/>
<path d="M155.752 72.709L155.255 76.058L158.04 77.3658L159.502 73.1288L155.752 72.709Z" fill="#FFC3BD"/>
<path d="M194.233 170.763L190.092 171.169L185.783 161.31L189.923 160.904L194.233 170.763Z" fill="#FFC3BD"/>
<path d="M220.909 156.19L217.797 159.109L211.084 151.731L214.197 148.811L220.909 156.19Z" fill="#FFC3BD"/>
<path d="M216.373 157.71L218.709 153.502C218.748 153.428 218.813 153.371 218.891 153.342C218.969 153.312 219.055 153.313 219.133 153.342L222.729 154.713C222.817 154.75 222.897 154.806 222.963 154.876C223.029 154.947 223.079 155.03 223.111 155.121C223.142 155.212 223.154 155.309 223.146 155.405C223.137 155.501 223.108 155.594 223.062 155.678C222.222 157.126 221.744 157.792 220.716 159.645C220.084 160.784 218.854 163.394 217.98 164.953C217.107 166.512 215.504 165.749 215.726 165.016C216.725 161.725 216.537 159.896 216.257 158.448C216.209 158.196 216.25 157.935 216.373 157.71Z" fill="#263238"/>
<path d="M189.542 169.89H194.629C194.72 169.89 194.809 169.921 194.881 169.976C194.954 170.032 195.006 170.111 195.029 170.199L196.134 174.219C196.161 174.314 196.166 174.414 196.147 174.511C196.129 174.608 196.088 174.699 196.028 174.777C195.968 174.855 195.89 174.919 195.802 174.962C195.713 175.005 195.615 175.026 195.516 175.025C193.721 175.025 192.872 175.025 190.638 175.025H183.804C181.942 175.025 181.556 173.147 182.323 172.974C185.773 172.211 187.757 171.159 188.823 170.156C189.021 169.98 189.278 169.885 189.542 169.89V169.89Z" fill="#263238"/>
<path opacity="0.2" d="M185.788 161.315L188.007 166.396H192.326L189.928 160.909L185.788 161.315Z" fill="black"/>
<path opacity="0.2" d="M214.197 148.816L211.084 151.735L214.549 155.538L217.661 152.614L214.197 148.816Z" fill="black"/>
<path d="M171.619 58.1114C171.619 58.1114 169.756 58.9269 176.001 83.6347L193.344 82.1339C192.447 75.1028 192.061 70.75 194.179 55.9687C191.709 55.6765 189.22 55.5652 186.733 55.6358C184.095 55.6753 181.463 55.9027 178.858 56.3162C176.416 56.7916 174 57.3908 171.619 58.1114V58.1114Z" fill="#263238"/>
<path d="M186.733 55.4956C186.733 55.4956 187.698 55.4956 188.876 55.4956C189.575 56.5717 187.307 61.2865 183.567 64.3701C182.998 62.6558 181.952 61.1392 180.551 59.998L186.733 55.4956Z" fill="white"/>
<path d="M178.858 56.2537C178.858 56.2537 178.418 56.3164 177.371 56.5577C176.672 57.6338 175.489 62.2328 177.55 64.5781C178.069 62.7995 179.109 61.2176 180.537 60.037L178.858 56.2537Z" fill="white"/>
<path d="M185.184 46.8335C184.909 49.4104 184.813 54.0721 186.733 55.6356C186.733 55.6356 184.682 57.73 180.537 60.0367C177.521 57.952 178.858 56.3161 178.858 56.3161C181.623 55.3992 181.367 53.3096 180.706 51.3793L185.184 46.8335Z" fill="#FFC3BD"/>
<path d="M180.465 60.0514C180.465 60.0514 183.008 57.2814 184.325 57.8122C185.643 58.3431 184.625 59.2937 184.509 60.1865C184.393 61.0792 185.02 63.4535 183.259 62.8358C181.498 62.2181 180.465 60.0514 180.465 60.0514Z" fill="#58B368"/>
<path d="M180.363 59.9933C180.363 59.9933 179.162 57.87 177.864 58.1547C176.565 58.4394 177.338 59.1826 177.453 59.9837C177.603 61.0067 176.522 62.9756 178.085 62.3965C179.649 61.8174 180.363 59.9933 180.363 59.9933Z" fill="#58B368"/>
<g opacity="0.2">
<path opacity="0.2" d="M179.698 59.5349C179.68 59.9631 179.763 60.3894 179.939 60.78C180.099 60.5305 180.239 60.2691 180.359 59.9982C180.18 59.6956 179.975 59.4098 179.746 59.144C179.706 59.2703 179.69 59.4028 179.698 59.5349V59.5349Z" fill="black"/>
<path opacity="0.2" d="M181.391 59.1541C180.846 59.6366 180.47 60.0516 180.47 60.0516C180.61 60.3413 180.771 60.6204 180.952 60.8865C181.244 60.5941 181.416 60.2035 181.435 59.791C181.481 59.5789 181.466 59.358 181.391 59.1541V59.1541Z" fill="black"/>
</g>
<path d="M180.436 60.9198C180.074 60.9198 179.852 60.5289 179.828 59.5976C179.804 58.6662 180.518 59.1825 180.518 59.1825C180.518 59.1825 181.483 58.7 181.309 59.8147C181.184 60.6978 180.807 60.9198 180.436 60.9198Z" fill="#58B368"/>
<path opacity="0.2" d="M183.36 48.6917L180.711 51.3796C180.87 51.8271 180.991 52.2872 181.073 52.7549C182.139 52.5088 183.684 51.3989 183.698 50.26C183.681 49.7212 183.566 49.1898 183.36 48.6917V48.6917Z" fill="black"/>
<path d="M181.087 38.1234C181.087 38.1234 178.192 42.1336 177.709 43.9143C175.74 45.0629 175.345 39.4119 176.387 35.9277C179.64 37.969 181.087 38.1234 181.087 38.1234Z" fill="#263238"/>
<path d="M187.453 42.8089C186.376 46.9252 186.005 48.6914 183.486 50.4142C179.688 53.0105 174.867 50.7906 174.688 46.433C174.529 42.5145 176.315 36.4389 180.721 35.5847C181.692 35.3876 182.697 35.4429 183.64 35.7454C184.584 36.0478 185.434 36.5872 186.109 37.312C186.785 38.0368 187.263 38.9228 187.498 39.8852C187.733 40.8476 187.718 41.8542 187.453 42.8089Z" fill="#FFC3BD"/>
<path d="M189.691 41.1633C189.691 41.1633 187.621 44.5172 187.341 45.989C185.84 47.0073 185.208 42.5386 185.84 39.7156C186.53 37.2014 189.691 41.1633 189.691 41.1633Z" fill="#263238"/>
<path d="M188.866 38.8325C188.268 39.2862 187.636 37.6116 188.229 36.328C187.086 36.4004 185.71 35.7199 186.005 34.6148C183.751 35.3725 182.916 33.0803 183.177 31.4926C183.49 29.5623 185.17 29.1521 186.159 29.6588C186.159 28.795 188.34 26.995 189.17 28.4041C190.71 27.8588 193.19 28.0277 193.137 29.9194C194.155 29.9484 197.162 31.1017 196.033 33.78C197.36 33.8572 198.079 35.5414 197.34 36.8154C197.631 36.9694 197.881 37.1912 198.068 37.462C198.255 37.7328 198.374 38.0447 198.415 38.3712C198.456 38.6978 198.418 39.0294 198.304 39.3382C198.19 39.6469 198.004 39.9237 197.76 40.1451C198.373 41.4191 196.515 43.3156 195.526 43.0888C194.773 44.2422 193.62 45.1108 192.867 44.1264C191.419 45.1929 189.754 43.8368 190.126 42.7945C188.485 42.5435 186.811 39.8073 188.866 38.8325Z" fill="#263238"/>
<path d="M191.318 34.7788C192.399 36.5836 192.307 38.6394 191.12 39.3391C189.933 40.0388 188.084 39.1702 187.003 37.3654C185.922 35.5605 186.009 33.5048 187.201 32.805C188.393 32.1053 190.237 32.9788 191.318 34.7788Z" fill="#58B368"/>
<path d="M181.28 37.6408C181.217 38.1571 179.794 38.022 179.384 37.1099C178.795 37.7276 177.41 38.0461 176.937 37.3753C176.136 38.881 174.524 38.4853 174.109 37.7662C173.694 37.0472 173.419 35.7105 174.254 35.4451C173.771 35.03 173.916 33.0756 175.18 33.3217C175.711 32.2794 177.164 31.0971 178.225 32.0188C178.804 31.5362 181.121 30.5325 182.057 32.3711C182.262 32.2307 182.497 32.1388 182.743 32.1021C182.989 32.0654 183.24 32.085 183.477 32.1593C183.714 32.2336 183.932 32.3608 184.113 32.5312C184.294 32.7016 184.434 32.9108 184.523 33.1432C186.024 32.7523 186.675 33.8912 186.67 34.5089C187.737 34.7984 187.809 36.6418 187.153 37.0375C187.409 37.9689 187.274 38.9678 186.294 38.881C186.106 40.1357 184.426 40.3287 184.031 39.6483C182.94 40.348 180.715 39.1319 181.28 37.6408Z" fill="#263238"/>
<path d="M178.732 34.0792C179.953 32.3902 184.407 31.6663 188.263 34.2191C191.737 36.5017 191.51 41.8052 188.745 41.5205C185.98 41.2357 183.249 37.9977 183.249 37.9977L178.732 34.0792Z" fill="#263238"/>
<path d="M187.79 46.5246C187.406 47.2502 186.75 47.7948 185.966 48.0398C184.919 48.3535 184.378 47.427 184.649 46.428C184.895 45.5305 185.73 44.2854 186.786 44.4109C187.017 44.4415 187.236 44.5293 187.424 44.6663C187.612 44.8033 187.763 44.985 187.862 45.1951C187.962 45.4052 188.008 45.6368 187.995 45.869C187.983 46.1012 187.912 46.3265 187.79 46.5246V46.5246Z" fill="#FFC3BD"/>
<path d="M176.001 83.6349C176.001 83.6349 170.133 109.597 174.071 127.901C176.696 140.159 186.135 164.92 186.135 164.92L193.538 164.731C193.538 164.731 186.371 138.745 184.89 128.538C182.356 111.06 188.702 82.554 188.702 82.554L176.001 83.6349Z" fill="#58B368"/>
<path opacity="0.2" d="M182.767 88.8801L186.454 94.7144C185.339 101.632 184.632 108.609 184.335 115.61C179.147 106.296 181.628 93.8072 182.767 88.8801Z" fill="black"/>
<path d="M185.093 165.305L194.233 165.069L193.707 162.265L184.378 162.704L185.093 165.305Z" fill="#263238"/>
<path d="M179.794 83.3597C179.794 83.3597 183.235 110.891 190.7 125.923C196.727 138.064 212.812 155.36 212.812 155.36L216.923 151.123C216.923 151.123 206.06 132.341 201.582 124.277C190.594 104.492 199.575 89.4112 193.345 82.1484L179.794 83.3597Z" fill="#58B368"/>
<path d="M212.397 155.915L217.705 150.742L215.944 148.343L210.312 153.96L212.397 155.915Z" fill="#263238"/>
<path d="M193.518 81.0966L194.435 82.5829C194.508 82.6939 194.373 82.829 194.175 82.8483L175.982 84.4215C175.827 84.4215 175.692 84.3684 175.673 84.2719L175.383 82.7325C175.359 82.6263 175.489 82.525 175.658 82.5105L193.224 80.9904C193.278 80.9803 193.334 80.9848 193.386 81.0034C193.437 81.0221 193.483 81.0542 193.518 81.0966V81.0966Z" fill="#58B368"/>
<path opacity="0.5" d="M193.518 81.0966L194.435 82.5829C194.508 82.6939 194.373 82.829 194.175 82.8483L175.982 84.4215C175.827 84.4215 175.692 84.3684 175.673 84.2719L175.383 82.7325C175.359 82.6263 175.489 82.525 175.658 82.5105L193.224 80.9904C193.278 80.9803 193.334 80.9848 193.386 81.0034C193.437 81.0221 193.483 81.0542 193.518 81.0966V81.0966Z" fill="white"/>
<path d="M191.328 83.263L191.81 83.2244C191.902 83.2244 191.969 83.1616 191.96 83.1037L191.564 81.1059C191.564 81.0431 191.467 81.0045 191.371 81.0142L190.888 81.0528C190.792 81.0528 190.724 81.1155 190.739 81.1734L191.134 83.1713C191.149 83.2292 191.236 83.2726 191.328 83.263Z" fill="#58B368"/>
<path d="M177.318 84.4744L177.801 84.4358C177.892 84.4358 177.96 84.373 177.95 84.3151L177.555 82.3173C177.537 82.2827 177.509 82.2549 177.474 82.2382C177.439 82.2216 177.399 82.2172 177.362 82.2256L176.879 82.2642C176.783 82.2642 176.715 82.3269 176.729 82.3848L177.125 84.3827C177.14 84.4502 177.227 84.484 177.318 84.4744Z" fill="#58B368"/>
<path d="M184.325 83.8712L184.808 83.8277C184.904 83.8277 184.972 83.765 184.957 83.7071L184.562 81.7092C184.562 81.6513 184.465 81.6079 184.373 81.6176L183.891 81.661C183.799 81.661 183.732 81.7237 183.741 81.7816L184.137 83.7795C184.147 83.8374 184.229 83.876 184.325 83.8712Z" fill="#58B368"/>
<path d="M180.484 42.6692C180.417 43.007 180.185 43.2483 179.963 43.2049C179.741 43.1614 179.616 42.8478 179.678 42.51C179.741 42.1722 179.982 41.9309 180.204 41.9743C180.426 42.0177 180.552 42.3266 180.484 42.6692Z" fill="#263238"/>
<path d="M176.642 41.9108C176.709 41.5708 176.583 41.2598 176.36 41.2161C176.138 41.1724 175.904 41.4126 175.837 41.7526C175.77 42.0926 175.896 42.4036 176.118 42.4473C176.341 42.491 176.575 42.2508 176.642 41.9108Z" fill="#263238"/>
<path d="M176.464 41.2597L175.692 40.864C175.692 40.864 175.986 41.583 176.464 41.2597Z" fill="#263238"/>
<path d="M177.965 42.7607C177.513 43.4764 176.964 44.126 176.334 44.691C176.48 44.8522 176.66 44.9791 176.861 45.0625C177.063 45.1459 177.28 45.1839 177.497 45.1736L177.965 42.7607Z" fill="#ED847E"/>
<path d="M179.065 46.766C179.778 46.7736 180.467 46.5116 180.995 46.0325C181.006 46.0249 181.014 46.0151 181.02 46.0038C181.026 45.9926 181.029 45.9802 181.03 45.9674C181.031 45.9547 181.029 45.9419 181.024 45.9301C181.019 45.9183 181.012 45.9077 181.002 45.899C180.993 45.8904 180.982 45.8839 180.97 45.88C180.957 45.8762 180.945 45.8751 180.932 45.8767C180.919 45.8784 180.907 45.8829 180.896 45.8898C180.886 45.8967 180.877 45.9059 180.87 45.9167C180.545 46.203 180.157 46.4087 179.738 46.5168C179.319 46.625 178.88 46.6327 178.457 46.5392C178.446 46.5371 178.435 46.5372 178.424 46.5395C178.414 46.5418 178.403 46.5463 178.394 46.5526C178.385 46.5589 178.378 46.5669 178.372 46.5762C178.366 46.5855 178.362 46.5959 178.36 46.6068C178.358 46.6176 178.357 46.6289 178.359 46.64C178.361 46.651 178.365 46.6615 178.372 46.6707C178.378 46.6799 178.387 46.6875 178.396 46.6932C178.406 46.6988 178.417 46.7022 178.428 46.7033C178.637 46.7472 178.851 46.7682 179.065 46.766V46.766Z" fill="#263238"/>
<path d="M182.786 41.3516C182.816 41.3511 182.846 41.3428 182.873 41.3275C182.911 41.3044 182.939 41.2671 182.95 41.2236C182.96 41.1802 182.954 41.1342 182.931 41.0958C182.771 40.8247 182.549 40.5956 182.283 40.4277C182.017 40.2598 181.714 40.158 181.401 40.1307C181.379 40.13 181.357 40.1338 181.336 40.1417C181.315 40.1496 181.296 40.1615 181.28 40.1767C181.264 40.192 181.251 40.2102 181.242 40.2305C181.233 40.2507 181.228 40.2726 181.227 40.2948C181.226 40.3169 181.23 40.339 181.238 40.3598C181.246 40.3805 181.258 40.3995 181.273 40.4156C181.288 40.4318 181.307 40.4447 181.327 40.4538C181.347 40.4629 181.369 40.4679 181.391 40.4685C181.65 40.497 181.898 40.5867 182.116 40.7302C182.333 40.8736 182.513 41.0668 182.641 41.2937C182.659 41.3143 182.681 41.3303 182.706 41.3403C182.732 41.3504 182.759 41.3543 182.786 41.3516V41.3516Z" fill="#263238"/>
<path d="M175.586 39.9909C175.613 39.9971 175.641 39.9971 175.668 39.9909C175.892 39.8582 176.144 39.7803 176.404 39.7636C176.664 39.7468 176.925 39.7916 177.164 39.8944C177.203 39.9107 177.247 39.9117 177.287 39.8972C177.327 39.8827 177.36 39.8537 177.379 39.816C177.399 39.7783 177.403 39.7346 177.392 39.6937C177.381 39.6528 177.354 39.6176 177.318 39.5952C177.029 39.4642 176.713 39.4051 176.396 39.4227C176.079 39.4404 175.772 39.5343 175.499 39.6965C175.461 39.7187 175.433 39.7549 175.422 39.7972C175.41 39.8395 175.415 39.8848 175.436 39.9233C175.453 39.9471 175.475 39.966 175.502 39.9779C175.528 39.9898 175.557 39.9943 175.586 39.9909Z" fill="#263238"/>
<path d="M194.918 59.9165C195.246 60.235 195.473 60.4859 195.728 60.7707C195.984 61.0554 196.211 61.3353 196.443 61.62C196.901 62.1943 197.34 62.783 197.75 63.3862C198.566 64.6024 199.289 65.8784 199.912 67.2034C200.534 68.5346 201.037 69.9186 201.413 71.339C201.601 72.0484 201.77 72.7867 201.896 73.4961C202.135 74.521 202.018 75.5969 201.563 76.546C201.298 77.0445 200.931 77.4819 200.487 77.8296C200.101 78.1262 199.677 78.3696 199.227 78.5535C198.452 78.8523 197.641 79.0438 196.814 79.1229C195.348 79.2638 193.87 79.2444 192.408 79.065C189.609 78.7395 186.846 78.1531 184.156 77.3133L184.6 75.5615C185.913 75.7787 187.264 75.9814 188.596 76.1213C189.928 76.2613 191.269 76.3868 192.587 76.4157C193.863 76.4617 195.141 76.3906 196.404 76.2034C196.948 76.1149 197.477 75.9525 197.977 75.7208C198.284 75.6049 198.536 75.3797 198.687 75.0886C198.727 74.9773 198.747 74.8596 198.744 74.7412C198.751 74.6544 198.751 74.5673 198.744 74.4806C198.744 74.3841 198.711 74.2972 198.667 74.1186C198.532 73.4961 198.354 72.8833 198.161 72.2752C197.768 71.0629 197.284 69.882 196.713 68.7428C196.139 67.5968 195.481 66.4951 194.744 65.4468C194.382 64.916 194.001 64.3996 193.605 63.9026C193.407 63.6516 193.2 63.42 192.997 63.1739C192.794 62.9278 192.563 62.6913 192.403 62.5176L194.918 59.9165Z" fill="#FFC3BD"/>
<path d="M185.705 75.8265L182.327 74.0361L182.173 78.5096C182.173 78.5096 184.586 78.664 185.966 77.5445L185.705 75.8265Z" fill="#FFC3BD"/>
<path d="M179.78 99.8924L182.569 69.582L176.609 65.0168L158.416 63.3423L155.255 97.634L179.78 99.8924Z" fill="#58B368"/>
<path opacity="0.8" d="M179.78 99.8924L182.569 69.582L176.609 65.0168L158.416 63.3423L155.255 97.634L179.78 99.8924Z" fill="white"/>
<path d="M182.569 69.5822L176.609 65.0171L178.172 70.4798L182.569 69.5822Z" fill="#58B368"/>
<path d="M157.388 102.933C161.493 102.933 164.82 99.6053 164.82 95.501C164.82 91.3966 161.493 88.0693 157.388 88.0693C153.284 88.0693 149.957 91.3966 149.957 95.501C149.957 99.6053 153.284 102.933 157.388 102.933Z" fill="#58B368"/>
<path d="M161.06 100.146C163.628 98.1174 164.065 94.3908 162.036 91.8227C160.007 89.2546 156.281 88.8175 153.712 90.8464C151.144 92.8753 150.707 96.6019 152.736 99.17C154.765 101.738 158.492 102.175 161.06 100.146Z" fill="white"/>
<path d="M161.051 94.9799L158.436 94.6759L158.74 92.0604L156.867 91.8384L156.563 94.4539L153.948 94.1451L153.726 96.0223L156.341 96.3311L156.032 98.9419L157.91 99.1638L158.214 96.5483L160.829 96.8572L161.051 94.9799Z" fill="#58B368"/>
<path opacity="0.4" d="M178.119 75.8651C178.095 76.1304 178.019 76.3883 177.895 76.624C177.771 76.8598 177.602 77.0688 177.397 77.2391C177.192 77.4095 176.956 77.5377 176.701 77.6166C176.447 77.6955 176.179 77.7234 175.914 77.6989L162.643 76.478C162.108 76.4278 161.614 76.1675 161.271 75.7541C160.927 75.3408 160.761 74.808 160.809 74.2726V74.2726C160.834 74.0073 160.91 73.7494 161.034 73.5137C161.158 73.2779 161.327 73.0689 161.532 72.8985C161.737 72.7282 161.973 72.6 162.228 72.5211C162.482 72.4422 162.75 72.4142 163.015 72.4388L176.286 73.6597C176.551 73.684 176.809 73.7603 177.045 73.8842C177.28 74.0082 177.489 74.1775 177.66 74.3823C177.83 74.5871 177.958 74.8235 178.037 75.0779C178.116 75.3324 178.144 75.5998 178.119 75.8651Z" fill="#58B368"/>
<path opacity="0.4" d="M173.598 81.3423C173.574 81.6076 173.497 81.8655 173.373 82.1013C173.249 82.337 173.08 82.5461 172.875 82.7164C172.67 82.8867 172.434 83.015 172.18 83.0938C171.925 83.1727 171.658 83.2007 171.392 83.1761L162.117 82.322C161.852 82.2977 161.594 82.2214 161.358 82.0974C161.123 81.9735 160.914 81.8042 160.743 81.5994C160.573 81.3946 160.445 81.1582 160.366 80.9038C160.287 80.6493 160.259 80.3818 160.284 80.1166V80.1166C160.308 79.8513 160.384 79.5934 160.508 79.3576C160.632 79.1219 160.801 78.9129 161.006 78.7425C161.211 78.5722 161.447 78.444 161.702 78.3651C161.956 78.2862 162.224 78.2582 162.489 78.2828L171.764 79.1418C172.298 79.192 172.791 79.4516 173.135 79.8639C173.478 80.2762 173.645 80.8077 173.598 81.3423V81.3423Z" fill="#58B368"/>
<path d="M180.262 74.3015L180.768 77.6458L182.168 78.5096L182.322 74.0361L180.262 74.3015Z" fill="#FFC3BD"/>
<path d="M194.175 55.9786C196.303 56.355 199.285 62.4547 199.285 62.4547L193.924 67.2804C193.924 67.2804 189.658 62.6284 189.885 59.8585C190.083 57.518 191.472 55.496 194.175 55.9786Z" fill="#263238"/>
<path d="M215.543 159.973C215.599 159.972 215.654 159.964 215.707 159.949C216.219 159.775 216.552 158.834 216.706 158.289C216.709 158.273 216.708 158.257 216.703 158.241C216.698 158.226 216.689 158.213 216.677 158.202C216.664 158.191 216.648 158.186 216.631 158.186C216.615 158.186 216.598 158.191 216.585 158.202C216.431 158.279 215.07 159.008 215.027 159.543C215.02 159.602 215.031 159.661 215.056 159.714C215.082 159.767 215.122 159.811 215.172 159.843C215.277 159.927 215.408 159.973 215.543 159.973V159.973ZM216.508 158.438C216.272 159.191 215.968 159.688 215.678 159.785C215.613 159.805 215.543 159.808 215.476 159.792C215.409 159.777 215.347 159.745 215.297 159.698C215.271 159.683 215.25 159.661 215.236 159.635C215.222 159.608 215.217 159.578 215.22 159.548C215.22 159.22 216.016 158.704 216.484 158.438H216.508Z" fill="#58B368"/>
<path d="M215.331 158.651C215.794 158.649 216.251 158.542 216.667 158.337C216.679 158.329 216.689 158.319 216.696 158.306C216.702 158.293 216.706 158.279 216.706 158.265C216.707 158.25 216.703 158.235 216.695 158.222C216.687 158.209 216.676 158.199 216.663 158.193C216.619 158.168 215.543 157.575 214.964 157.782C214.891 157.804 214.824 157.842 214.769 157.894C214.713 157.946 214.671 158.01 214.645 158.082C214.609 158.149 214.597 158.227 214.611 158.303C214.625 158.378 214.664 158.446 214.723 158.497C214.902 158.614 215.116 158.669 215.331 158.651ZM216.436 158.265C215.977 158.463 215.085 158.583 214.834 158.371C214.79 158.332 214.747 158.275 214.805 158.144C214.822 158.096 214.85 158.053 214.887 158.018C214.924 157.983 214.968 157.957 215.017 157.942C215.408 157.802 216.132 158.115 216.436 158.284V158.265Z" fill="#58B368"/>
<path d="M187.288 170.71C187.755 170.699 188.219 170.639 188.673 170.532C188.689 170.526 188.703 170.516 188.712 170.502C188.722 170.488 188.727 170.472 188.727 170.455C188.727 170.438 188.722 170.421 188.712 170.408C188.703 170.394 188.689 170.383 188.673 170.377C188.466 170.276 186.617 169.412 186.154 169.74C186.111 169.768 186.078 169.807 186.056 169.853C186.035 169.9 186.027 169.951 186.033 170.001C186.035 170.096 186.058 170.188 186.101 170.272C186.145 170.356 186.208 170.428 186.284 170.484C186.586 170.664 186.938 170.744 187.288 170.71V170.71ZM188.384 170.421C187.838 170.522 186.825 170.657 186.405 170.344C186.351 170.301 186.307 170.248 186.275 170.187C186.244 170.127 186.225 170.06 186.222 169.991C186.217 169.97 186.22 169.948 186.228 169.928C186.237 169.909 186.251 169.892 186.27 169.88C186.526 169.702 187.616 170.083 188.384 170.421Z" fill="#58B368"/>
<path d="M188.654 170.536C188.673 170.542 188.693 170.542 188.712 170.536C188.724 170.526 188.733 170.512 188.737 170.497C188.741 170.481 188.741 170.465 188.736 170.45C188.736 170.372 188.302 168.553 187.289 168.669C187.038 168.703 186.965 168.823 186.956 168.925C186.893 169.407 188.056 170.319 188.611 170.551L188.654 170.536ZM187.39 168.814C188.032 168.814 188.403 169.875 188.529 170.3C187.926 169.981 187.081 169.224 187.134 168.929C187.134 168.905 187.134 168.838 187.322 168.818L187.39 168.814Z" fill="#58B368"/>
<path d="M180.296 42.0129L179.528 41.6172C179.528 41.6172 179.823 42.3362 180.296 42.0129Z" fill="#263238"/>
</svg>
