<svg width="280" height="180" viewBox="0 0 280 180" fill="none" xmlns="http://www.w3.org/2000/svg">
<path d="M80.5284 168.847C87.3056 164.114 88.8441 155.336 88.5739 147.422C88.5303 146.114 88.6741 144.711 88.0465 143.556C87.4189 142.401 85.9589 141.607 84.7777 142.161C83.7971 142.623 83.37 143.765 82.8208 144.706C82.0881 145.961 81.0174 146.985 79.7308 147.661C78.8896 148.097 77.848 148.363 77.0199 147.905C75.8823 147.278 75.7472 145.704 75.756 144.392C75.7734 141.946 75.7894 139.501 75.8039 137.057C75.8829 135.746 75.749 134.43 75.4073 133.161C74.9976 131.919 74.0998 130.76 72.8489 130.411C71.5981 130.062 70.0596 130.781 69.7981 132.067C69.7494 132.609 69.7377 133.154 69.7632 133.697C69.724 134.242 69.4712 134.848 68.9569 135.005C68.4426 135.161 67.9066 134.787 67.5143 134.403C66.1589 133.096 65.2436 131.374 64.385 129.679C63.5264 127.983 62.6896 126.244 61.4606 124.797C60.2315 123.35 58.5361 122.208 56.6664 122.104C54.7966 121.999 52.7831 123.154 52.308 125.002C51.833 126.85 52.9138 128.724 54.0862 130.232C55.8308 132.451 57.8858 134.408 60.1879 136.042C60.6361 136.29 60.9934 136.675 61.2078 137.14C61.4911 138.012 60.663 138.884 59.8 139.171C58.8238 139.494 57.7603 139.393 56.7492 139.515C55.738 139.637 54.6179 140.086 54.23 141.054C53.694 142.392 54.8141 143.8 55.9167 144.719C58.1228 146.561 60.629 148.011 63.3259 149.004C64.2935 149.357 65.309 149.666 66.0848 150.346C66.8606 151.026 67.3356 152.203 66.8649 153.127C66.3942 154.051 65.1869 154.347 64.1758 154.16C63.1647 153.972 62.2494 153.414 61.2775 153.044C59.4731 152.36 57.1458 152.486 55.9908 154.042C55.6389 154.579 55.4163 155.19 55.3407 155.828C55.2651 156.465 55.3384 157.112 55.555 157.716C55.9943 158.919 56.6701 160.021 57.5424 160.959C60.4 164.389 64.1162 166.999 68.3119 168.525C72.4915 169.976 76.3661 170.368 80.5153 168.847" fill="#F5F5F5"/>
<path d="M80.6335 174.705C80.2663 171.042 79.5482 167.422 78.4892 163.896C77.1759 159.597 75.6174 155.377 73.8214 151.257L72.4311 148.001C71.9691 146.938 71.5159 145.879 71.0059 144.872C70.0235 142.938 68.9337 141.061 67.7415 139.25C66.6171 137.506 65.4883 135.902 64.4205 134.407C63.3527 132.912 62.3241 131.54 61.3391 130.328C59.7913 128.405 58.0919 126.61 56.2573 124.958C55.6122 124.374 55.0936 123.934 54.7406 123.651L54.3352 123.324C54.2922 123.283 54.2439 123.248 54.1914 123.219L54.3222 123.342C54.418 123.429 54.5444 123.546 54.71 123.69C55.0544 123.995 55.5599 124.444 56.1962 125.037C57.9985 126.713 59.6738 128.521 61.2084 130.446C62.1846 131.662 63.1958 133.039 64.2592 134.534C65.3226 136.029 66.4384 137.646 67.5585 139.38C68.7376 141.188 69.8172 143.059 70.7924 144.985C71.2979 145.988 71.7512 147.038 72.2088 148.11L73.6035 151.361C75.3939 155.485 76.9537 159.704 78.2757 164.001C79.3372 167.513 80.0668 171.117 80.4548 174.766" fill="#E0E0E0"/>
<path d="M70.9365 144.846C70.9963 144.663 71.0386 144.474 71.0629 144.283C71.1326 143.922 71.2154 143.412 71.3069 142.741C71.4943 141.433 71.6861 139.62 71.8953 137.624C72.1045 135.628 72.3311 133.819 72.5273 132.52C72.6275 131.871 72.7147 131.343 72.7757 130.982C72.8235 130.795 72.8483 130.603 72.8498 130.411C72.7739 130.587 72.7184 130.771 72.6842 130.96C72.5926 131.317 72.4793 131.832 72.3573 132.49C72.1089 133.797 71.8604 135.597 71.6556 137.598C71.4508 139.598 71.2764 141.355 71.137 142.719C71.0716 143.333 71.0149 143.852 70.9713 144.27C70.9374 144.46 70.9257 144.653 70.9365 144.846Z" fill="#E0E0E0"/>
<path d="M54.0693 141.69C54.2911 141.741 54.5175 141.768 54.7449 141.773C55.1807 141.812 55.804 141.865 56.5754 141.952C58.1182 142.117 60.2451 142.422 62.5725 142.863C64.8998 143.303 66.9962 143.8 68.4998 144.196C69.2538 144.392 69.8597 144.562 70.2781 144.68C70.4921 144.755 70.7123 144.81 70.9362 144.846C70.7348 144.74 70.523 144.655 70.3042 144.593C69.8945 144.445 69.2931 144.249 68.5609 144.031C67.0659 143.595 64.9739 143.067 62.6379 142.623C60.643 142.239 58.6296 141.959 56.6059 141.782C55.8301 141.712 55.2025 141.686 54.7667 141.677C54.5343 141.661 54.3009 141.665 54.0693 141.69Z" fill="#E0E0E0"/>
<path d="M78.2754 163.582C78.2754 163.582 78.3233 163.517 78.3931 163.377L78.6807 162.767C78.9291 162.235 79.2691 161.46 79.6744 160.492C80.4894 158.561 81.5267 155.859 82.6337 152.856C83.7408 149.853 84.7563 147.147 85.5277 145.203C85.9069 144.257 86.2163 143.46 86.4517 142.897L86.6957 142.27C86.7294 142.198 86.7542 142.121 86.7698 142.043C86.7222 142.108 86.6827 142.178 86.6521 142.252C86.5737 142.414 86.4778 142.619 86.3645 142.863C86.1161 143.39 85.7761 144.17 85.3708 145.133C84.5558 147.068 83.5185 149.771 82.4115 152.773C81.3044 155.776 80.2889 158.483 79.5175 160.427L78.5936 162.732L78.3495 163.36C78.317 163.431 78.2922 163.506 78.2754 163.582Z" fill="#E0E0E0"/>
<path d="M55.8691 156.36C55.9389 156.4 56.0137 156.431 56.0914 156.452L56.7452 156.67L59.1423 157.45C61.1689 158.108 63.9582 159.045 67.0396 160.087C70.121 161.128 72.919 162.048 74.9587 162.663C75.9786 162.972 76.8067 163.212 77.382 163.364L78.0444 163.539C78.1201 163.566 78.1995 163.58 78.2798 163.582C78.2094 163.543 78.1348 163.513 78.0575 163.491L77.4081 163.273L75.0067 162.497C72.98 161.839 70.2125 160.902 67.1137 159.856C64.0149 158.81 61.2343 157.899 59.1946 157.284C58.1747 156.975 57.3466 156.735 56.7713 156.578L56.1045 156.404C56.0283 156.379 55.9491 156.365 55.8691 156.36Z" fill="#E0E0E0"/>
<path d="M196.226 122.047V105.773H200.571V122.156L196.226 122.047Z" fill="#EBEBEB"/>
<path d="M200.649 122.047V105.773H204.99V122.156L200.649 122.047Z" fill="#E0E0E0"/>
<path d="M207.993 122.16V110.493H211.105V122.239L207.993 122.16Z" fill="#EBEBEB"/>
<path d="M211.166 122.16V110.493H214.278V122.239L211.166 122.16Z" fill="#E0E0E0"/>
<path d="M215.673 122.112H145.612V154.425H215.673V122.112Z" fill="#F5F5F5"/>
<path d="M214.008 152.9H147.216V123.812H214.008V152.9ZM147.652 152.464H213.572V124.248H147.652V152.464Z" fill="#E0E0E0"/>
<path d="M232.792 122.112H215.677V154.425H232.792V122.112Z" fill="#E0E0E0"/>
<path d="M147.434 132.812H213.79C213.813 132.812 213.835 132.803 213.851 132.787C213.868 132.77 213.877 132.748 213.877 132.725C213.877 132.702 213.868 132.68 213.851 132.663C213.835 132.647 213.813 132.638 213.79 132.638H147.434C147.411 132.638 147.389 132.647 147.372 132.663C147.356 132.68 147.347 132.702 147.347 132.725C147.347 132.748 147.356 132.77 147.372 132.787C147.389 132.803 147.411 132.812 147.434 132.812Z" fill="#E0E0E0"/>
<path d="M180.828 132.725C181.013 129.802 181.022 126.871 180.854 123.947C180.849 123.927 180.838 123.909 180.822 123.896C180.806 123.883 180.785 123.876 180.764 123.876C180.744 123.876 180.723 123.883 180.707 123.896C180.691 123.909 180.68 123.927 180.675 123.947C180.504 126.871 180.511 129.802 180.697 132.725C180.697 132.742 180.704 132.759 180.716 132.771C180.728 132.784 180.745 132.79 180.762 132.79C180.78 132.79 180.796 132.784 180.809 132.771C180.821 132.759 180.828 132.742 180.828 132.725Z" fill="#E0E0E0"/>
<path d="M198.688 128.336C198.688 128.515 198.635 128.689 198.536 128.837C198.437 128.986 198.296 129.101 198.131 129.17C197.966 129.238 197.785 129.256 197.61 129.221C197.435 129.186 197.274 129.1 197.148 128.974C197.022 128.848 196.936 128.687 196.901 128.512C196.866 128.337 196.884 128.156 196.952 127.991C197.021 127.826 197.136 127.685 197.285 127.586C197.433 127.487 197.608 127.434 197.786 127.434C198.025 127.434 198.255 127.529 198.424 127.698C198.593 127.868 198.688 128.097 198.688 128.336Z" fill="#E0E0E0"/>
<path d="M163.865 128.336C163.865 128.515 163.812 128.689 163.713 128.837C163.614 128.986 163.473 129.101 163.308 129.17C163.143 129.238 162.962 129.256 162.787 129.221C162.612 129.186 162.451 129.1 162.325 128.974C162.199 128.848 162.113 128.687 162.078 128.512C162.043 128.337 162.061 128.156 162.129 127.991C162.198 127.826 162.313 127.685 162.461 127.586C162.61 127.487 162.784 127.434 162.963 127.434C163.202 127.434 163.431 127.529 163.601 127.698C163.77 127.868 163.865 128.097 163.865 128.336Z" fill="#E0E0E0"/>
<path d="M181.516 138.356C181.517 138.536 181.465 138.711 181.365 138.861C181.266 139.011 181.124 139.128 180.959 139.197C180.793 139.266 180.61 139.284 180.434 139.25C180.258 139.215 180.096 139.128 179.969 139.001C179.842 138.874 179.755 138.712 179.72 138.536C179.685 138.36 179.704 138.177 179.773 138.011C179.842 137.846 179.959 137.704 180.109 137.605C180.258 137.505 180.434 137.453 180.614 137.454C180.853 137.454 181.083 137.549 181.252 137.718C181.421 137.887 181.516 138.117 181.516 138.356Z" fill="#E0E0E0"/>
<path d="M153.989 154.425L150.385 174.709H152.411L159.062 154.425H153.989Z" fill="#E0E0E0"/>
<path d="M210.717 154.425L213.738 174.744H211.707L205.648 154.425H210.717Z" fill="#E0E0E0"/>
<path d="M224.263 154.425L227.68 174.744H225.653L219.189 154.425H224.263Z" fill="#E0E0E0"/>
<path d="M181.456 147.5C181.456 147.679 181.404 147.855 181.305 148.005C181.205 148.155 181.064 148.272 180.898 148.341C180.732 148.41 180.55 148.428 180.373 148.393C180.197 148.359 180.035 148.272 179.908 148.145C179.781 148.018 179.695 147.856 179.66 147.68C179.625 147.504 179.643 147.321 179.712 147.155C179.782 146.989 179.898 146.848 180.048 146.749C180.198 146.649 180.374 146.597 180.553 146.598C180.792 146.599 181.021 146.694 181.19 146.863C181.359 147.032 181.454 147.261 181.456 147.5Z" fill="#E0E0E0"/>
<path d="M147.434 142.819H213.79C213.813 142.819 213.835 142.81 213.851 142.794C213.868 142.777 213.877 142.755 213.877 142.732C213.877 142.709 213.868 142.687 213.851 142.67C213.835 142.654 213.813 142.645 213.79 142.645H147.434C147.411 142.645 147.389 142.654 147.372 142.67C147.356 142.687 147.347 142.709 147.347 142.732C147.347 142.755 147.356 142.777 147.372 142.794C147.389 142.81 147.411 142.819 147.434 142.819Z" fill="#E0E0E0"/>
<path d="M219.133 2.73706H171.897V87.5942H219.133V2.73706Z" fill="#EBEBEB"/>
<path d="M216.758 5.19971H173.784V85.0665H216.758V5.19971Z" fill="#FAFAFA"/>
<path d="M216.762 6.14111L173.784 60.8036V5.19971H216.762V6.14111Z" fill="#F5F5F5"/>
<path d="M217.69 28.1768H173.784V29.0266H217.69V28.1768Z" fill="#EBEBEB"/>
<path d="M217.69 47.1968H173.784V48.0467H217.69V47.1968Z" fill="#EBEBEB"/>
<path d="M217.69 66.2122H173.784V67.062H217.69V66.2122Z" fill="#EBEBEB"/>
<path d="M194.19 28.5952V87.3284H196.361V28.5952H194.19Z" fill="#EBEBEB"/>
<path d="M183.047 5.19971H182.062V28.5997H183.047V5.19971Z" fill="#EBEBEB"/>
<path d="M191.532 5.19971H190.547V28.5997H191.532V5.19971Z" fill="#EBEBEB"/>
<path d="M200.013 5.19971H199.028V28.5997H200.013V5.19971Z" fill="#EBEBEB"/>
<path d="M208.495 5.19971H207.51V28.5997H208.495V5.19971Z" fill="#EBEBEB"/>
<path d="M171.897 1.29907H169.901V88.1175H171.897V1.29907Z" fill="#F5F5F5"/>
<path d="M221.133 88.3615L219.133 87.5945V1.29907H221.133V88.3615Z" fill="#E0E0E0"/>
<path d="M221.134 0.422852H169.901V2.73714H221.134V0.422852Z" fill="#E0E0E0"/>
<path d="M222.484 88.6448H168.484V90.8022H222.484V88.6448Z" fill="#E0E0E0"/>
<path d="M219.133 87.5945L222.484 88.6449H168.484L171.897 87.5945H219.133Z" fill="#EBEBEB"/>
<path d="M97.6528 4.17554H50.417V89.0327H97.6528V4.17554Z" fill="#EBEBEB"/>
<path d="M95.2771 6.63354H52.3037V86.5004H95.2771V6.63354Z" fill="#FAFAFA"/>
<path d="M95.2771 7.57495L52.3037 62.2418V6.63354H95.2771V7.57495Z" fill="#F5F5F5"/>
<path d="M96.2098 29.6106H52.3037V30.4605H96.2098V29.6106Z" fill="#EBEBEB"/>
<path d="M96.2098 48.6306H52.3037V49.4805H96.2098V48.6306Z" fill="#EBEBEB"/>
<path d="M96.2098 67.6504H52.3037V68.5003H96.2098V67.6504Z" fill="#EBEBEB"/>
<path d="M72.7061 30.0334V88.7666H74.8765V30.0334H72.7061Z" fill="#EBEBEB"/>
<path d="M61.566 6.63354H60.5811V30.0335H61.566V6.63354Z" fill="#EBEBEB"/>
<path d="M70.0465 6.63354H69.0615V30.0335H70.0465V6.63354Z" fill="#EBEBEB"/>
<path d="M78.5328 6.63354H77.5479V30.0335H78.5328V6.63354Z" fill="#EBEBEB"/>
<path d="M87.0143 6.63354H86.0293V30.0335H87.0143V6.63354Z" fill="#EBEBEB"/>
<path d="M50.4121 2.73706H48.416V89.5555H50.4121V2.73706Z" fill="#F5F5F5"/>
<path d="M99.6485 89.7952L97.6523 89.0325V2.73706H99.6485V89.7952Z" fill="#E0E0E0"/>
<path d="M99.6485 1.86133H48.416V4.17561H99.6485V1.86133Z" fill="#E0E0E0"/>
<path d="M101 90.0828H47V92.2402H101V90.0828Z" fill="#E0E0E0"/>
<path d="M97.6528 89.0325L101.004 90.0828H47L50.4169 89.0325H97.6528Z" fill="#EBEBEB"/>
<path d="M228.321 174.744C228.321 174.809 188.267 174.857 138.874 174.857C89.4809 174.857 49.4189 174.809 49.4189 174.744C49.4189 174.678 89.4591 174.63 138.874 174.63C188.289 174.63 228.321 174.683 228.321 174.744Z" fill="#263238"/>
<path d="M161.877 62.4727C161.607 62.7995 161.594 65.5235 161.594 65.5235C161.594 65.5235 155.209 76.4194 154.32 76.5676C153.43 76.7158 149.56 69.0102 149.56 69.0102L145.581 72.6712C145.581 72.6712 147.656 82.4078 154.141 84.077C157.192 84.8659 162.544 75.1598 166.109 67.0794C166.166 66.953 168.014 62.5598 168.014 62.5598L161.877 62.4727Z" fill="#A56959"/>
<path d="M157.457 35.5963L155.571 36.2104L168.771 76.7397L170.657 76.1256L157.457 35.5963Z" fill="#263238"/>
<path d="M156.463 35.7976L154.579 36.4124L167.793 76.9058L169.677 76.2911L156.463 35.7976Z" fill="#455A64"/>
<path d="M164.753 11.3659L137.543 20.228L144.698 42.1959L171.908 33.3338L164.753 11.3659Z" fill="#58B368"/>
<g opacity="0.3">
<path opacity="0.3" d="M164.753 11.3659L137.543 20.228L144.698 42.1959L171.908 33.3338L164.753 11.3659Z" fill="black"/>
</g>
<path d="M163.775 11.6828L136.564 20.5449L143.719 42.5128L170.929 33.6507L163.775 11.6828Z" fill="#58B368"/>
<path d="M150.55 26.4986L151.469 26.1805L152.507 22.6938L151.866 20.8502C151.866 20.8502 153.261 20.2662 153.932 22.7374C154.603 25.2086 154.573 24.5287 154.573 24.5287C154.573 24.5287 157.602 23.487 157.946 23.657C158.194 23.7834 159.323 26.7601 159.925 28.3814C160.081 28.7681 160.104 29.1961 159.99 29.5973C159.875 29.9985 159.63 30.3499 159.293 30.5955C159.196 30.6589 159.092 30.7115 158.983 30.7524C158.225 31.0139 154.154 31.7461 154.154 31.7461L152.563 32.2996L150.55 26.4986Z" fill="white"/>
<path d="M147.734 26.9128L150.498 33.0232L152.075 32.4741L149.922 26.2939L147.734 26.9128Z" fill="white"/>
<path d="M168.519 61.967C168.518 62.0006 168.509 62.0335 168.493 62.0629C168.306 62.4987 167.425 63.7321 167.125 63.6711C166.824 63.6101 166.327 63.6711 166.467 62.8779C166.761 62.2846 167.1 61.7149 167.482 61.1738C167.482 61.1738 167.717 60.8861 168.384 61.1433C168.794 61.3045 168.519 61.967 168.519 61.967Z" fill="#A56959"/>
<path d="M167.652 60.6334C167.65 60.6702 167.64 60.706 167.621 60.738C167.403 61.2436 166.214 63.292 165.913 63.2397C165.612 63.1874 164.958 62.6208 165.063 62.3201C165.168 62.0193 166.636 59.7879 166.636 59.7879C166.636 59.7879 166.893 59.4479 167.56 59.7051C167.97 59.862 167.652 60.6334 167.652 60.6334Z" fill="#A56959"/>
<path d="M166.645 59.5788C166.645 59.5788 166.645 59.6267 166.615 59.6877C166.401 60.1889 165.207 62.2417 164.906 62.185C164.605 62.1284 163.952 61.5705 164.056 61.2698C164.161 60.9691 165.634 58.7332 165.634 58.7332C165.634 58.7332 165.887 58.3976 166.553 58.6504C166.968 58.8117 166.645 59.5788 166.645 59.5788Z" fill="#A56959"/>
<path d="M165.634 58.5543C165.634 58.5543 165.634 58.5979 165.604 58.6589C165.386 59.1601 164.196 61.2129 163.895 61.1606C163.595 61.1083 162.941 60.5417 163.045 60.241C163.15 59.9402 164.619 57.7088 164.619 57.7088C164.619 57.7088 164.876 57.3688 165.543 57.6259C165.957 57.7829 165.634 58.5543 165.634 58.5543Z" fill="#A56959"/>
<path d="M166.214 63.1524C166.475 62.8643 166.698 62.5434 166.876 62.1979C167.093 61.8836 167.27 61.5441 167.404 61.1868C167.142 61.4728 166.919 61.7923 166.741 62.1369C166.524 62.4524 166.347 62.7935 166.214 63.1524Z" fill="#7C4435"/>
<path d="M165.007 62.4725C165.357 62.0485 165.665 61.5916 165.926 61.1084C166.235 60.6516 166.501 60.1672 166.72 59.6614C166.375 60.0909 166.068 60.5487 165.8 61.0299C165.494 61.4867 165.229 61.9694 165.007 62.4725Z" fill="#7C4435"/>
<g opacity="0.78">
<path opacity="0.78" d="M164 61.2173C164.314 60.8685 164.59 60.4871 164.824 60.0798C165.1 59.701 165.334 59.2933 165.521 58.8638C165.209 59.2156 164.933 59.5982 164.697 60.0057C164.422 60.3832 164.188 60.7894 164 61.2173Z" fill="#7C4435"/>
</g>
<path d="M162.261 66.051L161.825 64.1376C161.636 63.3025 161.777 62.4269 162.217 61.6926L162.553 61.1304L166.911 63.3313C166.911 63.3313 165.695 64.5953 164.645 63.7933C165.355 64.665 165.364 66.2776 164.911 67.5372L162.261 66.051Z" fill="#A56959"/>
<path d="M165.028 65.5886C165.002 65.5886 165.028 65.3707 164.989 64.9959C164.903 64.4847 164.637 64.0212 164.239 63.6884L163.839 63.3702L164.327 63.5271L165.408 63.8758H165.386C165.622 63.9163 165.865 63.8892 166.086 63.7974C166.308 63.7056 166.498 63.5529 166.637 63.3571C166.658 63.3223 166.676 63.283 166.689 63.2612L166.746 63.4007C165.543 62.8559 164.462 62.346 163.695 61.932C163.273 61.7335 162.874 61.4895 162.505 61.2041C162.937 61.3733 163.357 61.5699 163.764 61.7925C164.54 62.1673 165.625 62.6642 166.815 63.1959L166.911 63.2395L166.876 63.3353C166.856 63.3831 166.832 63.4297 166.807 63.4748C166.649 63.7248 166.41 63.9137 166.131 64.0109C165.876 64.0979 165.605 64.1248 165.338 64.0893H165.316L164.239 63.7145L164.331 63.5533C164.756 63.9178 165.022 64.4339 165.072 64.9915C165.111 65.1909 165.096 65.397 165.028 65.5886Z" fill="#7C4435"/>
<path d="M166.593 62.6733C166.637 62.6733 166.532 62.8999 166.558 63.2137C166.562 63.2954 166.59 63.374 166.64 63.4388C166.69 63.5035 166.759 63.5513 166.837 63.5754C166.943 63.5816 167.049 63.5599 167.143 63.5125C167.238 63.4651 167.319 63.3936 167.378 63.3052C167.696 62.8912 168.014 62.5207 168.21 62.2462C168.406 61.9716 168.515 61.7798 168.55 61.8103C168.585 61.8408 168.515 62.0326 168.345 62.3464C168.104 62.7368 167.838 63.111 167.548 63.4665C167.464 63.5849 167.35 63.6779 167.216 63.7348C167.083 63.7918 166.937 63.8105 166.794 63.789C166.675 63.7541 166.572 63.6807 166.5 63.5805C166.428 63.4802 166.392 63.3588 166.397 63.2355C166.396 63.0839 166.432 62.9342 166.502 62.7997C166.545 62.7081 166.58 62.6646 166.593 62.6733Z" fill="#7C4435"/>
<path d="M110.527 63.5622C110.527 63.5622 116.555 75.4082 117.444 75.5781C118.333 75.7481 122.038 68.4261 122.038 68.4261L127.656 72.8847C127.656 72.8847 123.99 81.5578 118.294 84.1597C115.418 85.4673 109.896 75.2382 106.326 67.1622L104.426 62.6687" fill="#A56959"/>
<path d="M111.272 65.8372C111.272 65.8372 111.119 65.2357 110.531 63.5621L110.592 59.304C110.592 59.304 109.855 58.781 109.72 60.7292C109.691 60.9519 109.585 61.1572 109.419 61.3091C109.254 61.4609 109.04 61.5496 108.816 61.5595C108.591 61.5694 108.371 61.4999 108.193 61.3631C108.015 61.2264 107.89 61.0313 107.842 60.812C107.761 60.5195 107.769 60.2095 107.864 59.9213C107.959 59.6332 108.138 59.3797 108.377 59.1931C108.616 59.0064 108.906 58.895 109.208 58.8729C109.511 58.8507 109.814 58.9189 110.078 59.0687C110.078 59.0687 110.662 58.8508 110.513 58.3844C110.365 57.9181 108.583 57.4605 107.667 58.3016C107.291 58.6517 106.994 59.0782 106.796 59.5525C106.796 59.5525 105.266 55.8609 104.961 55.9699C104.656 56.0789 104.359 56.4973 106.068 60.5287C106.068 60.5287 104.425 57.4779 104.168 57.1292C103.911 56.7805 103.248 56.7588 103.671 57.783L105.022 61.0387C105.022 61.0387 103.684 59.1951 103.566 59.0513C103.257 58.6764 102.86 58.9292 103.1 59.5089L104.037 61.8362L106.539 67.5762H106.499" fill="#A56959"/>
<path d="M105.964 62.987C105.964 62.987 106.108 63.0218 106.326 63.1046C106.615 63.213 106.871 63.3965 107.067 63.6364L107.132 63.7104L107.158 63.6146C107.193 63.5045 107.236 63.3968 107.284 63.292C107.459 62.9404 107.722 62.6401 108.047 62.4204C108.296 62.2548 108.483 62.1981 108.483 62.1807C108.316 62.2011 108.156 62.2608 108.017 62.355C107.665 62.5596 107.38 62.8626 107.197 63.2267C107.144 63.3376 107.101 63.4528 107.067 63.571L107.158 63.5492C106.948 63.2991 106.669 63.1158 106.356 63.0218C106.23 62.9804 106.096 62.9685 105.964 62.987Z" fill="#7C4435"/>
<path d="M132.318 41.0644C131.94 40.4072 131.367 39.8831 130.679 39.564C129.991 39.2449 129.221 39.1463 128.474 39.2818C127.733 39.4379 127.038 39.7662 126.447 40.2401C125.856 40.7141 125.384 41.3204 125.07 42.0101C124.457 43.4051 124.304 44.9593 124.635 46.4469C124.918 47.9375 125.559 49.4978 125.049 50.9186C124.681 51.7725 124.076 52.5031 123.305 53.0237C122.538 53.5368 121.809 54.1064 121.126 54.7278C120.782 55.0407 120.51 55.4244 120.329 55.8525C120.148 56.2807 120.061 56.743 120.076 57.2077C120.167 58.1317 121.008 58.999 121.928 58.877C120.621 59.8794 120.333 61.8232 120.947 63.3356C121.562 64.8479 122.935 65.9506 124.434 66.613C125.663 67.1535 127.08 67.4324 128.357 66.9966C128.991 66.7461 129.565 66.3647 130.042 65.8773C130.519 65.39 130.888 64.8075 131.124 64.168C131.592 62.8859 131.814 61.527 131.778 60.1627C131.808 57.953 131.569 55.6561 130.431 53.7646C130.558 54.5143 131.534 54.9109 132.223 54.5883C132.556 54.4032 132.827 54.1225 132.999 53.7822C133.171 53.4419 133.238 53.0578 133.19 52.6794C133.077 51.9227 132.733 51.2194 132.205 50.6658C131.708 50.0862 131.124 49.5937 130.623 49.0227C129.625 47.8852 128.967 46.3554 129.207 44.8649C129.446 43.3743 130.784 42.0232 132.292 42.0973" fill="#263238"/>
<path d="M121.332 53.0847C121.332 53.0847 121.375 53.0062 121.414 52.8406C121.461 52.6026 121.423 52.3557 121.305 52.1433C121.221 51.9756 121.088 51.8371 120.924 51.7454C120.76 51.6538 120.573 51.6132 120.386 51.629C120.142 51.6493 119.91 51.7437 119.722 51.8995C119.533 52.0553 119.397 52.2651 119.331 52.5007C119.27 52.7944 119.3 53.0998 119.417 53.3762C119.534 53.6526 119.732 53.8869 119.985 54.0479C120.283 54.2285 120.622 54.3312 120.97 54.3464C121.318 54.3616 121.664 54.2889 121.977 54.135C122.683 53.7936 123.259 53.2303 123.615 52.5312C124.009 51.7802 124.206 50.9424 124.191 50.0948C124.149 49.243 123.989 48.401 123.716 47.5931C123.459 46.8187 123.331 46.0075 123.336 45.1917C123.436 43.7971 124.048 42.4885 125.054 41.5176C125.716 40.8706 126.486 40.344 127.329 39.9617C127.625 39.8266 127.865 39.7394 128.026 39.6784C128.107 39.6445 128.192 39.6211 128.279 39.6086C128.203 39.6518 128.124 39.6896 128.043 39.722C127.887 39.7917 127.656 39.8919 127.368 40.0401C126.56 40.4493 125.825 40.9865 125.189 41.6309C124.233 42.5847 123.657 43.8533 123.567 45.2004C123.569 45.9932 123.699 46.7806 123.951 47.5321C124.233 48.3578 124.397 49.219 124.439 50.0905C124.455 50.9764 124.247 51.852 123.833 52.6358C123.452 53.3746 122.84 53.9684 122.09 54.3268C121.746 54.4907 121.366 54.5655 120.985 54.5442C120.604 54.5228 120.235 54.4061 119.911 54.2048C119.629 54.0209 119.411 53.7554 119.285 53.4438C119.158 53.1321 119.13 52.7893 119.205 52.4614C119.277 52.1926 119.432 51.9533 119.648 51.7773C119.864 51.6014 120.13 51.4977 120.408 51.4808C120.636 51.4655 120.863 51.5269 121.053 51.6551C121.208 51.7676 121.333 51.9175 121.414 52.091C121.533 52.3225 121.56 52.5903 121.489 52.8406C121.459 52.9345 121.405 53.0187 121.332 53.0847Z" fill="#263238"/>
<path d="M104.351 169.923L104.046 171.083C104.046 171.083 99.8487 177.912 100.346 178.549C100.681 178.978 101.139 179.295 101.659 179.458C102.179 179.62 102.737 179.621 103.257 179.46C104.717 179.093 110.88 173.236 110.88 173.236L111.233 172.303L104.351 169.923Z" fill="#58B368"/>
<g opacity="0.3">
<path opacity="0.3" d="M100.764 177.001C100.764 177.001 102.582 176.199 103.628 178.544C103.628 178.544 104.417 178.252 106.596 176.426C108.775 174.6 110.88 172.817 110.88 172.817C110.88 172.817 111.107 172.639 111.037 172.817C110.967 172.996 110.88 173.314 110.88 173.314L106.674 177.023C106.674 177.023 104.151 179.202 103.519 179.355C102.887 179.507 102.25 179.743 101.449 179.381C100.935 179.195 100.508 178.825 100.25 178.344C100.25 178.257 100.764 177.001 100.764 177.001Z" fill="black"/>
</g>
<path d="M103.872 179.316C103.872 179.316 103.807 179.08 103.65 178.732C103.45 178.28 103.152 177.878 102.778 177.555C102.398 177.24 101.951 177.015 101.471 176.897C101.1 176.805 100.856 176.805 100.86 176.779C101.071 176.745 101.286 176.754 101.492 176.805C101.999 176.898 102.474 177.121 102.87 177.45C103.261 177.786 103.561 178.214 103.741 178.697C103.83 178.891 103.875 179.102 103.872 179.316Z" fill="#263238"/>
<path d="M111.233 172.521C111.204 172.558 111.17 172.592 111.133 172.621L110.841 172.883L109.747 173.828L106.099 176.919C105.445 177.509 104.742 178.042 103.998 178.514C103.375 178.901 102.642 179.076 101.911 179.011C101.413 178.95 100.951 178.719 100.603 178.357C100.477 178.227 100.382 178.07 100.324 177.899C100.414 178.056 100.521 178.202 100.642 178.335C100.984 178.672 101.429 178.882 101.906 178.932C102.615 178.98 103.32 178.801 103.92 178.422C104.654 177.948 105.347 177.414 105.994 176.827L109.669 173.776L110.789 172.865L111.098 172.621C111.185 172.551 111.23 172.518 111.233 172.521Z" fill="#263238"/>
<path d="M104.583 175.393C104.308 175.258 104.048 175.096 103.807 174.909C103.539 174.763 103.287 174.591 103.053 174.395C103.353 174.472 103.634 174.608 103.881 174.796C104.151 174.948 104.389 175.151 104.583 175.393Z" fill="#263238"/>
<path d="M105.484 174.413C105.156 174.306 104.837 174.174 104.53 174.016C104.207 173.895 103.893 173.749 103.593 173.58C104.277 173.713 104.924 173.998 105.484 174.413Z" fill="#263238"/>
<path d="M106.316 173.567C106.29 173.598 105.911 173.266 105.358 172.996C104.804 172.726 104.316 172.626 104.32 172.586C104.705 172.585 105.084 172.684 105.419 172.874C105.772 173.024 106.082 173.263 106.316 173.567Z" fill="#263238"/>
<path d="M106.805 172.565C106.779 172.599 106.426 172.342 105.933 172.129C105.441 171.915 105.018 171.819 105.026 171.78C105.695 171.81 106.327 172.092 106.796 172.569L106.805 172.565Z" fill="#263238"/>
<path d="M106.604 171.619C106.412 171.535 106.236 171.417 106.086 171.27C105.914 171.122 105.755 170.958 105.611 170.782C105.526 170.679 105.447 170.572 105.375 170.46C105.329 170.399 105.292 170.331 105.266 170.259C105.249 170.214 105.244 170.166 105.251 170.118C105.259 170.071 105.279 170.026 105.31 169.989C105.376 169.935 105.455 169.901 105.54 169.892C105.624 169.882 105.709 169.898 105.785 169.937C105.919 169.988 106.038 170.07 106.134 170.176C106.293 170.349 106.403 170.561 106.452 170.791C106.484 170.941 106.499 171.095 106.495 171.248C106.495 171.357 106.495 171.414 106.469 171.414C106.443 171.414 106.469 171.174 106.356 170.813C106.3 170.606 106.192 170.416 106.042 170.263C105.955 170.176 105.851 170.106 105.737 170.059C105.686 170.032 105.628 170.02 105.571 170.024C105.513 170.028 105.458 170.047 105.41 170.08C105.345 170.15 105.41 170.276 105.484 170.385C105.554 170.495 105.63 170.602 105.711 170.704C105.844 170.88 105.989 171.046 106.147 171.2C106.413 171.462 106.604 171.601 106.604 171.619Z" fill="#263238"/>
<path d="M106.5 171.497C106.505 171.439 106.521 171.383 106.548 171.331C106.613 171.187 106.696 171.053 106.796 170.93C106.951 170.75 107.139 170.602 107.35 170.495C107.474 170.43 107.606 170.38 107.742 170.346C107.823 170.329 107.906 170.329 107.986 170.346C108.034 170.358 108.079 170.382 108.114 170.416C108.149 170.451 108.175 170.495 108.187 170.542C108.19 170.624 108.175 170.705 108.143 170.781C108.112 170.856 108.064 170.923 108.004 170.978C107.909 171.084 107.803 171.178 107.686 171.257C107.489 171.389 107.266 171.477 107.032 171.514C106.876 171.541 106.717 171.541 106.561 171.514C106.452 171.514 106.396 171.471 106.396 171.462C106.603 171.466 106.81 171.45 107.014 171.414C107.231 171.367 107.435 171.277 107.616 171.148C107.722 171.073 107.819 170.985 107.903 170.887C107.95 170.846 107.987 170.796 108.013 170.739C108.038 170.683 108.052 170.622 108.052 170.56C108.052 170.46 107.895 170.438 107.768 170.464C107.642 170.494 107.519 170.538 107.402 170.595C107.203 170.691 107.023 170.823 106.871 170.983C106.737 171.147 106.613 171.318 106.5 171.497Z" fill="#263238"/>
<path d="M110.039 171.972C109.842 171.928 109.637 171.941 109.446 172.007C108.995 172.199 108.622 172.539 108.387 172.97C108.15 173.399 108.052 173.891 108.108 174.378C108.152 174.757 108.252 174.975 108.23 174.984C108.108 174.809 108.033 174.607 108.012 174.395C107.924 173.882 108.015 173.354 108.269 172.9C108.516 172.441 108.925 172.09 109.416 171.915C109.516 171.873 109.626 171.856 109.734 171.865C109.843 171.875 109.948 171.912 110.039 171.972Z" fill="#263238"/>
<path d="M107.55 174.726C107.108 175.221 106.601 175.652 106.042 176.008C106.247 175.746 106.486 175.513 106.752 175.315C106.989 175.082 107.257 174.883 107.55 174.726Z" fill="#263238"/>
<path d="M108.382 174.282C108.422 174.282 108.469 174.369 108.496 174.482C108.522 174.596 108.496 174.696 108.474 174.709C108.452 174.722 108.387 174.631 108.36 174.508C108.334 174.386 108.347 174.286 108.382 174.282Z" fill="#263238"/>
<path d="M108.487 173.423C108.527 173.423 108.531 173.536 108.487 173.65C108.444 173.763 108.409 173.85 108.374 173.846C108.339 173.841 108.326 173.741 108.374 173.619C108.422 173.497 108.452 173.41 108.487 173.423Z" fill="#263238"/>
<path d="M108.949 172.691C108.979 172.722 108.949 172.8 108.862 172.896C108.775 172.992 108.709 173.048 108.679 173.031C108.648 173.014 108.679 172.913 108.753 172.813C108.827 172.713 108.927 172.665 108.949 172.691Z" fill="#263238"/>
<path d="M109.686 172.238C109.686 172.272 109.625 172.342 109.52 172.39C109.416 172.438 109.315 172.455 109.294 172.425C109.272 172.394 109.35 172.32 109.464 172.268C109.577 172.216 109.677 172.203 109.686 172.238Z" fill="#263238"/>
<path d="M110.549 172.155C110.549 172.19 110.445 172.225 110.331 172.225C110.218 172.225 110.118 172.194 110.113 172.155C110.109 172.116 110.205 172.09 110.331 172.085C110.458 172.081 110.554 172.098 110.549 172.155Z" fill="#263238"/>
<path d="M159.206 172.294L159.175 171.471L150.82 171.71L150.89 174.43H151.409C153.71 174.487 163.102 174.569 164.623 174.094C166.314 173.584 159.206 172.294 159.206 172.294Z" fill="#58B368"/>
<g opacity="0.3">
<path opacity="0.3" d="M153.906 174.291C153.754 173.629 153.357 173.049 152.794 172.669C152.222 172.272 151.527 172.092 150.833 172.159L150.898 174.338L153.906 174.291Z" fill="black"/>
</g>
<g opacity="0.3">
<path opacity="0.3" d="M162.688 173.027C162.688 173.027 165.185 173.624 164.889 174.012C164.592 174.399 155.091 174.648 150.89 174.417V174.243L161.973 174.042C161.973 174.042 162.204 173.07 162.688 173.027Z" fill="black"/>
</g>
<path d="M150.768 174.256H150.911H151.325L152.838 174.277C154.115 174.277 155.889 174.277 157.832 174.229C159.776 174.182 161.546 174.099 162.823 174.025L164.335 173.924L164.745 173.89H164.884H164.74H164.331L162.818 173.955C161.541 174.016 159.768 174.086 157.828 174.134C155.889 174.182 154.115 174.203 152.838 174.212H151.325H150.911L150.768 174.256Z" fill="#263238"/>
<path d="M161.981 174.173C162.075 173.683 162.347 173.245 162.744 172.944C162.493 173.036 162.284 173.215 162.156 173.449C162.006 173.659 161.944 173.918 161.981 174.173Z" fill="#263238"/>
<path d="M159.493 173.079C159.519 173.079 159.633 172.957 159.746 172.778C159.859 172.599 159.938 172.438 159.912 172.425C159.885 172.412 159.777 172.547 159.659 172.73C159.541 172.913 159.471 173.066 159.493 173.079Z" fill="#263238"/>
<path d="M158.809 172.77C158.83 172.77 158.957 172.7 159.096 172.578C159.236 172.456 159.336 172.338 159.314 172.321C159.292 172.303 159.166 172.386 159.027 172.508C158.887 172.63 158.791 172.748 158.809 172.77Z" fill="#263238"/>
<path d="M158.36 172.05C158.647 172.114 158.945 172.114 159.232 172.05C159.091 172.009 158.943 171.996 158.796 172.011C158.65 171.993 158.501 172.006 158.36 172.05Z" fill="#263238"/>
<path d="M158.198 171.536C158.345 171.624 158.515 171.666 158.686 171.658C158.858 171.682 159.032 171.655 159.188 171.579C159.022 171.566 158.856 171.566 158.691 171.579C158.528 171.552 158.363 171.538 158.198 171.536Z" fill="#263238"/>
<path d="M159.776 172.399C159.954 172.428 160.135 172.428 160.312 172.399C160.503 172.371 160.691 172.328 160.875 172.268C160.987 172.236 161.095 172.19 161.197 172.133C161.258 172.098 161.304 172.042 161.328 171.976C161.334 171.939 161.329 171.9 161.314 171.865C161.298 171.83 161.273 171.801 161.241 171.78C161.035 171.692 160.805 171.673 160.588 171.726C160.37 171.78 160.175 171.903 160.034 172.076C159.955 172.176 159.899 172.292 159.872 172.416C159.861 172.459 159.861 172.504 159.872 172.547C159.924 172.39 160.002 172.242 160.103 172.111C160.218 171.976 160.369 171.876 160.539 171.824C160.745 171.745 160.973 171.745 161.18 171.824C161.267 171.88 161.236 171.972 161.141 172.028C161.047 172.083 160.948 172.125 160.844 172.155C160.666 172.217 160.484 172.267 160.299 172.303C159.959 172.377 159.776 172.382 159.776 172.399Z" fill="#263238"/>
<path d="M159.894 172.421C159.956 172.316 159.975 172.191 159.946 172.072C159.919 171.943 159.861 171.821 159.776 171.719C159.728 171.647 159.663 171.588 159.587 171.546C159.511 171.503 159.427 171.479 159.34 171.475C159.288 171.486 159.243 171.516 159.213 171.56C159.184 171.604 159.173 171.658 159.183 171.71C159.196 171.79 159.229 171.865 159.279 171.928C159.353 172.038 159.441 172.138 159.541 172.225C159.628 172.313 159.736 172.379 159.855 172.417C159.855 172.417 159.746 172.329 159.593 172.177C159.503 172.09 159.424 171.991 159.358 171.885C159.284 171.78 159.227 171.593 159.358 171.567C159.429 171.572 159.499 171.594 159.561 171.629C159.624 171.664 159.678 171.713 159.72 171.771C159.796 171.864 159.851 171.973 159.881 172.09C159.895 172.199 159.899 172.31 159.894 172.421Z" fill="#263238"/>
<path d="M150.876 172.155C150.876 172.155 151.112 172.124 151.491 172.155C151.976 172.198 152.442 172.363 152.846 172.634C153.231 172.907 153.533 173.281 153.718 173.715C153.853 174.042 153.875 174.264 153.892 174.264C153.902 174.212 153.902 174.159 153.892 174.107C153.872 173.966 153.837 173.827 153.788 173.693C153.619 173.236 153.315 172.84 152.916 172.56C152.498 172.274 152.009 172.111 151.504 172.09C151.351 172.084 151.198 172.093 151.046 172.116C150.929 172.111 150.872 172.129 150.876 172.155Z" fill="#263238"/>
<path d="M154.93 173.506C155.33 173.585 155.738 173.613 156.146 173.589C156.554 173.594 156.962 173.554 157.362 173.467C157.362 173.436 156.817 173.467 156.146 173.493C155.474 173.519 154.934 173.462 154.93 173.506Z" fill="#263238"/>
<path d="M153.3 173.55C153.278 173.55 153.348 173.654 153.405 173.768C153.461 173.881 153.5 173.985 153.527 173.981C153.553 173.977 153.566 173.859 153.496 173.728C153.426 173.598 153.317 173.528 153.3 173.55Z" fill="#263238"/>
<path d="M152.664 172.852C152.664 172.852 152.699 172.952 152.79 173.031C152.882 173.109 152.965 173.157 152.987 173.14C153.008 173.122 152.947 173.04 152.86 172.961C152.773 172.883 152.681 172.835 152.664 172.852Z" fill="#263238"/>
<path d="M151.775 172.551C151.775 172.578 151.893 172.551 152.015 172.613C152.137 172.674 152.228 172.704 152.25 172.687C152.272 172.669 152.198 172.565 152.045 172.521C151.893 172.477 151.766 172.53 151.775 172.551Z" fill="#263238"/>
<path d="M151.143 172.416C151.143 172.416 151.182 172.477 151.252 172.499C151.321 172.521 151.387 172.499 151.395 172.499C151.404 172.499 151.356 172.434 151.286 172.412C151.217 172.39 151.151 172.39 151.143 172.416Z" fill="#263238"/>
<path d="M159.776 171.719L149.957 100.473L149.678 95.8839L125.079 94.7158L124.038 98.5817C120.586 110.75 103.144 169.592 103.144 169.592L111.664 172.281L137.03 104.858L148.837 171.593L159.776 171.719Z" fill="#263238"/>
<path d="M148.444 95.1864C148.379 95.1864 148.314 95.0512 148.296 94.8726C148.279 94.6939 148.318 94.5413 148.379 94.537C148.44 94.5326 148.505 94.6721 148.523 94.8508C148.54 95.0295 148.488 95.182 148.444 95.1864Z" fill="#455A64"/>
<path d="M148.684 97.7795C148.619 97.7795 148.54 97.5005 148.505 97.1431C148.47 96.7858 148.505 96.4894 148.553 96.4807C148.601 96.4719 148.693 96.7596 148.732 97.1213C148.771 97.4831 148.745 97.7707 148.684 97.7795Z" fill="#455A64"/>
<path d="M148.95 100.369C148.889 100.369 148.81 100.094 148.771 99.7366C148.732 99.3792 148.771 99.0829 148.815 99.0742C148.858 99.0655 148.958 99.3531 148.998 99.7105C149.037 100.068 149.015 100.364 148.95 100.369Z" fill="#455A64"/>
<path d="M149.234 102.962C149.168 102.962 149.086 102.683 149.046 102.325C149.007 101.968 149.046 101.672 149.09 101.667C149.134 101.663 149.234 101.942 149.273 102.299C149.312 102.657 149.317 102.953 149.234 102.962Z" fill="#455A64"/>
<path d="M149.521 105.551C149.46 105.551 149.377 105.272 149.333 104.914C149.29 104.557 149.312 104.261 149.373 104.256C149.434 104.252 149.521 104.531 149.56 104.888C149.599 105.246 149.582 105.542 149.521 105.551Z" fill="#455A64"/>
<path d="M149.818 108.139C149.757 108.139 149.674 107.861 149.63 107.503C149.587 107.146 149.609 106.849 149.67 106.845C149.731 106.841 149.813 107.12 149.857 107.477C149.9 107.834 149.883 108.131 149.818 108.139Z" fill="#455A64"/>
<path d="M150.127 110.724C150.062 110.724 149.979 110.449 149.935 110.092C149.892 109.734 149.909 109.438 149.97 109.429C150.031 109.421 150.118 109.708 150.162 110.066C150.206 110.423 150.188 110.702 150.127 110.724Z" fill="#455A64"/>
<path d="M150.441 113.317C150.376 113.317 150.293 113.038 150.249 112.681C150.206 112.324 150.219 112.032 150.28 112.023C150.341 112.014 150.428 112.297 150.472 112.655C150.515 113.012 150.502 113.317 150.441 113.317Z" fill="#455A64"/>
<path d="M150.758 115.897C150.697 115.897 150.61 115.623 150.567 115.265C150.523 114.908 150.536 114.611 150.597 114.603C150.658 114.594 150.745 114.877 150.793 115.235C150.841 115.592 150.824 115.888 150.758 115.897Z" fill="#455A64"/>
<path d="M151.086 118.482C151.025 118.482 150.938 118.207 150.894 117.85C150.851 117.493 150.859 117.196 150.925 117.187C150.99 117.179 151.073 117.466 151.116 117.819C151.16 118.172 151.151 118.473 151.086 118.482Z" fill="#455A64"/>
<path d="M151.422 121.066C151.356 121.066 151.269 120.792 151.225 120.434C151.182 120.077 151.191 119.781 151.252 119.772C151.313 119.763 151.404 120.046 151.448 120.404C151.491 120.761 151.496 121.058 151.422 121.066Z" fill="#455A64"/>
<path d="M151.757 123.651C151.696 123.651 151.609 123.376 151.561 123.019C151.513 122.661 151.526 122.365 151.587 122.356C151.648 122.348 151.74 122.631 151.788 122.988C151.836 123.346 151.818 123.642 151.757 123.651Z" fill="#455A64"/>
<path d="M152.097 126.231C152.036 126.231 151.949 125.956 151.901 125.603C151.853 125.25 151.866 124.95 151.927 124.941C151.988 124.932 152.08 125.216 152.128 125.573C152.176 125.93 152.163 126.222 152.097 126.231Z" fill="#455A64"/>
<path d="M152.441 128.815C152.38 128.815 152.293 128.541 152.245 128.183C152.197 127.826 152.21 127.53 152.271 127.525C152.332 127.521 152.419 127.795 152.467 128.153C152.515 128.51 152.506 128.807 152.441 128.815Z" fill="#455A64"/>
<path d="M152.803 131.396C152.742 131.396 152.65 131.125 152.602 130.768C152.554 130.411 152.567 130.114 152.628 130.106C152.69 130.097 152.781 130.38 152.829 130.738C152.877 131.095 152.851 131.387 152.803 131.396Z" fill="#455A64"/>
<path d="M153.139 133.98C153.078 133.98 152.986 133.705 152.938 133.348C152.89 132.991 152.903 132.699 152.964 132.69C153.025 132.681 153.117 132.96 153.165 133.318C153.213 133.675 153.2 133.971 153.139 133.98Z" fill="#455A64"/>
<path d="M153.487 136.56C153.426 136.56 153.339 136.286 153.287 135.933C153.235 135.58 153.252 135.279 153.313 135.27C153.374 135.261 153.466 135.545 153.513 135.902C153.561 136.259 153.553 136.551 153.487 136.56Z" fill="#455A64"/>
<path d="M153.849 139.14C153.783 139.14 153.692 138.866 153.644 138.508C153.596 138.151 153.6 137.859 153.644 137.85C153.687 137.842 153.801 138.125 153.849 138.478C153.897 138.831 153.91 139.132 153.849 139.14Z" fill="#455A64"/>
<path d="M154.229 141.712C154.168 141.712 154.072 141.441 154.019 141.088C153.967 140.735 153.976 140.435 154.019 140.426C154.063 140.417 154.176 140.696 154.229 141.054C154.281 141.411 154.29 141.703 154.229 141.712Z" fill="#455A64"/>
<path d="M154.616 144.288C154.555 144.288 154.459 144.017 154.407 143.66C154.354 143.303 154.359 143.011 154.407 143.002C154.455 142.993 154.564 143.272 154.616 143.625C154.668 143.978 154.677 144.261 154.616 144.288Z" fill="#455A64"/>
<path d="M155.004 146.877C154.943 146.877 154.847 146.606 154.794 146.249C154.742 145.892 154.747 145.6 154.794 145.591C154.842 145.582 154.951 145.861 155.008 146.214C155.065 146.567 155.065 146.877 155.004 146.877Z" fill="#455A64"/>
<path d="M155.418 149.435C155.352 149.435 155.261 149.165 155.209 148.807C155.156 148.45 155.161 148.158 155.209 148.149C155.256 148.14 155.365 148.419 155.418 148.777C155.47 149.134 155.457 149.426 155.418 149.435Z" fill="#455A64"/>
<path d="M155.785 152.006C155.724 152.006 155.632 151.736 155.575 151.383C155.519 151.03 155.527 150.729 155.575 150.721C155.623 150.712 155.728 150.991 155.785 151.348C155.841 151.706 155.854 151.998 155.785 152.006Z" fill="#455A64"/>
<path d="M156.176 154.582C156.115 154.582 156.02 154.312 155.967 153.954C155.915 153.597 155.919 153.305 155.967 153.296C156.015 153.288 156.124 153.567 156.181 153.92C156.238 154.273 156.238 154.573 156.176 154.582Z" fill="#455A64"/>
<path d="M156.569 157.158C156.508 157.158 156.412 156.888 156.36 156.53C156.308 156.173 156.312 155.881 156.36 155.872C156.408 155.863 156.517 156.142 156.573 156.5C156.63 156.857 156.63 157.149 156.569 157.158Z" fill="#455A64"/>
<path d="M156.961 159.734C156.9 159.734 156.804 159.463 156.751 159.11C156.699 158.757 156.704 158.457 156.751 158.448C156.799 158.439 156.908 158.718 156.961 159.076C157.013 159.433 157.022 159.725 156.961 159.734Z" fill="#455A64"/>
<path d="M157.353 162.309C157.292 162.309 157.196 162.039 157.144 161.686C157.092 161.333 157.096 161.032 157.144 161.024C157.192 161.015 157.301 161.294 157.353 161.651C157.406 162.009 157.414 162.301 157.353 162.309Z" fill="#455A64"/>
<path d="M157.741 164.889C157.68 164.889 157.588 164.615 157.531 164.262C157.475 163.909 157.484 163.608 157.531 163.599C157.579 163.591 157.684 163.87 157.741 164.227C157.797 164.584 157.806 164.876 157.741 164.889Z" fill="#455A64"/>
<path d="M158.129 167.465C158.068 167.465 157.976 167.195 157.92 166.838C157.863 166.48 157.876 166.184 157.92 166.175C157.963 166.167 158.076 166.45 158.129 166.803C158.181 167.156 158.194 167.457 158.129 167.465Z" fill="#455A64"/>
<path d="M158.517 170.045C158.452 170.045 158.36 169.771 158.308 169.418C158.256 169.065 158.26 168.764 158.308 168.755C158.356 168.747 158.461 169.026 158.513 169.383C158.565 169.74 158.578 170.037 158.517 170.045Z" fill="#455A64"/>
<path d="M158.796 171.994C158.735 171.994 158.661 171.867 158.639 171.689C158.617 171.51 158.639 171.357 158.704 171.349C158.77 171.34 158.839 171.48 158.861 171.658C158.883 171.837 158.857 171.985 158.796 171.994Z" fill="#455A64"/>
<path d="M111.076 170.412C111.133 170.412 111.141 170.586 111.076 170.756C111.01 170.926 110.928 171.052 110.871 171.035C110.814 171.017 110.806 170.861 110.871 170.686C110.936 170.512 111.015 170.412 111.076 170.412Z" fill="#455A64"/>
<path d="M111.878 167.897C111.939 167.897 111.878 168.215 111.786 168.564C111.695 168.912 111.533 169.178 111.477 169.156C111.42 169.135 111.477 168.843 111.568 168.494C111.66 168.145 111.834 167.879 111.878 167.897Z" fill="#455A64"/>
<path d="M112.707 165.378C112.768 165.399 112.707 165.696 112.611 166.044C112.515 166.393 112.358 166.655 112.297 166.637C112.236 166.62 112.297 166.319 112.393 165.975C112.489 165.63 112.641 165.36 112.707 165.378Z" fill="#455A64"/>
<path d="M113.53 162.863C113.591 162.885 113.53 163.181 113.429 163.53C113.329 163.878 113.172 164.14 113.111 164.122C113.05 164.105 113.111 163.804 113.212 163.456C113.312 163.107 113.469 162.845 113.53 162.863Z" fill="#455A64"/>
<path d="M114.375 160.353C114.432 160.374 114.375 160.671 114.27 161.019C114.166 161.368 114.009 161.63 113.952 161.608C113.896 161.586 113.952 161.29 114.052 160.945C114.153 160.601 114.314 160.335 114.375 160.353Z" fill="#455A64"/>
<path d="M115.23 157.846C115.291 157.868 115.23 158.165 115.121 158.509C115.012 158.853 114.859 159.119 114.803 159.102C114.746 159.084 114.803 158.784 114.907 158.435C115.012 158.086 115.169 157.825 115.23 157.846Z" fill="#455A64"/>
<path d="M116.097 155.345C116.158 155.345 116.097 155.663 115.988 156.007C115.879 156.351 115.722 156.617 115.661 156.595C115.6 156.574 115.661 156.277 115.774 155.933C115.887 155.589 116.036 155.323 116.097 155.345Z" fill="#455A64"/>
<path d="M116.973 152.843C117.034 152.865 116.973 153.161 116.864 153.506C116.755 153.85 116.594 154.116 116.533 154.094C116.472 154.072 116.533 153.776 116.646 153.431C116.76 153.087 116.916 152.821 116.973 152.843Z" fill="#455A64"/>
<path d="M117.862 150.363C117.923 150.385 117.862 150.681 117.749 151.026C117.635 151.37 117.479 151.631 117.418 151.61C117.357 151.588 117.418 151.296 117.535 150.952C117.653 150.607 117.805 150.324 117.862 150.363Z" fill="#455A64"/>
<path d="M118.76 147.853C118.817 147.874 118.76 148.171 118.642 148.515C118.525 148.859 118.368 149.121 118.311 149.099C118.255 149.077 118.311 148.781 118.429 148.437C118.547 148.092 118.699 147.831 118.76 147.853Z" fill="#455A64"/>
<path d="M119.68 145.36C119.736 145.382 119.68 145.678 119.557 146.022C119.435 146.367 119.283 146.628 119.226 146.606C119.17 146.584 119.226 146.288 119.344 145.944C119.462 145.599 119.605 145.338 119.68 145.36Z" fill="#455A64"/>
<path d="M120.582 142.871C120.638 142.893 120.582 143.189 120.455 143.534C120.329 143.878 120.181 144.139 120.12 144.118C120.059 144.096 120.12 143.799 120.246 143.455C120.372 143.111 120.521 142.849 120.582 142.871Z" fill="#455A64"/>
<path d="M121.501 140.387C121.562 140.409 121.501 140.705 121.375 141.049C121.249 141.394 121.1 141.651 121.039 141.629C120.978 141.607 121.039 141.311 121.166 140.971C121.292 140.631 121.445 140.365 121.501 140.387Z" fill="#455A64"/>
<path d="M122.43 137.903C122.491 137.903 122.43 138.221 122.303 138.565C122.177 138.909 122.024 139.167 121.963 139.145C121.902 139.123 121.963 138.827 122.09 138.487C122.216 138.147 122.373 137.881 122.43 137.903Z" fill="#455A64"/>
<path d="M123.367 135.423C123.423 135.423 123.367 135.741 123.236 136.085C123.105 136.43 122.957 136.687 122.896 136.665C122.835 136.643 122.896 136.347 123.027 136.003C123.157 135.658 123.306 135.401 123.367 135.423Z" fill="#455A64"/>
<path d="M124.308 132.93C124.365 132.951 124.308 133.248 124.178 133.592C124.047 133.936 123.894 134.194 123.833 134.172C123.772 134.15 123.833 133.854 123.964 133.509C124.095 133.165 124.247 132.93 124.308 132.93Z" fill="#455A64"/>
<path d="M125.254 130.467C125.31 130.467 125.254 130.785 125.123 131.125C124.992 131.465 124.835 131.727 124.779 131.705C124.722 131.683 124.779 131.387 124.909 131.047C125.04 130.707 125.193 130.445 125.254 130.467Z" fill="#455A64"/>
<path d="M126.217 127.992C126.273 128.014 126.217 128.31 126.082 128.65C125.946 128.99 125.798 129.251 125.742 129.23C125.685 129.208 125.742 128.911 125.872 128.571C126.003 128.231 126.143 127.97 126.217 127.992Z" fill="#455A64"/>
<path d="M127.158 125.52C127.215 125.547 127.158 125.839 127.023 126.183C126.888 126.527 126.74 126.78 126.679 126.758C126.618 126.736 126.679 126.44 126.814 126.1C126.949 125.76 127.089 125.494 127.158 125.52Z" fill="#455A64"/>
<path d="M128.118 123.045C128.174 123.067 128.118 123.363 127.982 123.703C127.847 124.043 127.695 124.305 127.638 124.283C127.581 124.261 127.638 123.965 127.769 123.625C127.9 123.285 128.057 123.023 128.118 123.045Z" fill="#455A64"/>
<path d="M129.076 120.574C129.133 120.6 129.076 120.892 128.941 121.232C128.806 121.572 128.654 121.833 128.597 121.812C128.54 121.79 128.597 121.494 128.732 121.154C128.867 120.814 129.02 120.552 129.076 120.574Z" fill="#455A64"/>
<path d="M130.039 118.111C130.096 118.133 130.039 118.429 129.904 118.769C129.769 119.109 129.617 119.366 129.56 119.345C129.503 119.323 129.56 119.027 129.695 118.687C129.83 118.347 129.983 118.081 130.039 118.111Z" fill="#455A64"/>
<path d="M131.011 115.636C131.072 115.658 131.011 115.954 130.876 116.294C130.741 116.634 130.588 116.895 130.532 116.869C130.475 116.843 130.532 116.555 130.667 116.211C130.802 115.867 130.946 115.614 131.011 115.636Z" fill="#455A64"/>
<path d="M131.97 113.169C132.027 113.169 131.97 113.487 131.835 113.827C131.7 114.167 131.548 114.424 131.487 114.402C131.426 114.381 131.487 114.084 131.622 113.744C131.757 113.404 131.914 113.147 131.97 113.169Z" fill="#455A64"/>
<path d="M132.981 110.702C133.038 110.728 132.981 111.02 132.829 111.356C132.676 111.692 132.523 111.944 132.467 111.922C132.41 111.901 132.467 111.604 132.619 111.269C132.772 110.933 132.924 110.702 132.981 110.702Z" fill="#455A64"/>
<path d="M134.119 108.327C134.171 108.357 134.084 108.645 133.923 108.972C133.761 109.299 133.583 109.538 133.526 109.512C133.469 109.486 133.557 109.199 133.722 108.867C133.888 108.536 134.062 108.296 134.119 108.327Z" fill="#455A64"/>
<path d="M135.527 106.082C135.575 106.126 135.449 106.396 135.244 106.692C135.039 106.989 134.808 107.207 134.773 107.172C134.738 107.137 134.847 106.867 135.056 106.562C135.266 106.257 135.479 106.043 135.527 106.082Z" fill="#455A64"/>
<path d="M137.043 104.857C137.043 104.918 136.943 105.006 136.795 105.084C136.647 105.162 136.503 105.206 136.464 105.154C136.425 105.101 136.52 104.971 136.69 104.884C136.86 104.796 137.026 104.796 137.043 104.857Z" fill="#455A64"/>
<path d="M148.009 91.6081C148.009 91.6081 146.701 87.1582 145.995 84.7001C145.713 83.7056 145.546 82.6819 145.498 81.6493L145.394 79.4222L145.764 77.5394L146.967 78.934L152.838 72.8018C152.947 72.95 150.179 68.9316 147.377 65.0004C145.424 62.2633 143.515 61.5137 142.282 61.4091C141.703 61.2438 141.098 61.1906 140.499 61.2522L130.396 61.165C128.192 61.1839 126.063 61.9646 124.369 63.3747C123.903 63.7583 120.032 68.9055 117.396 73.9917L125.524 79.858L126.862 77.5045V77.644C126.966 78.4808 127.224 79.8231 127.42 80.6512C128.069 83.2445 128.396 86.6658 127.088 88.9103C126.175 91.1864 125.398 93.515 124.761 95.8837H149.687C149.687 95.8837 148.88 93.7045 148.009 91.6081Z" fill="#58B368"/>
<path d="M131.077 64.4514C131.077 64.4514 131.133 64.4819 131.194 64.5865C131.274 64.7456 131.296 64.9275 131.255 65.1008C131.189 65.3719 131.036 65.6139 130.82 65.7894C130.575 65.9986 130.283 66.1948 129.948 66.4301C129.303 66.9008 128.553 67.45 127.721 68.0514C127.296 68.4079 126.816 68.6934 126.3 68.8969C126.003 68.9842 125.686 68.9842 125.389 68.8969C125.231 68.8492 125.085 68.7675 124.961 68.6576C124.838 68.5477 124.74 68.4122 124.674 68.2606C124.564 67.9682 124.536 67.6513 124.593 67.3441C124.65 67.0369 124.789 66.751 124.997 66.5173C125.372 66.1084 125.814 65.7665 126.304 65.5062L127.568 64.7565C127.932 64.5256 128.309 64.3161 128.697 64.1289C129.027 63.9897 129.364 63.8703 129.708 63.7715C129.986 63.7365 130.268 63.7835 130.519 63.9066C130.955 64.1071 131.024 64.3861 131.007 64.3817C130.872 64.2047 130.691 64.0676 130.484 63.9851C130.247 63.8866 129.987 63.8564 129.734 63.8979C129.404 64.0048 129.079 64.1299 128.762 64.2727C128.414 64.4296 128.065 64.6824 127.664 64.9178L126.413 65.6848C125.946 65.9361 125.524 66.2647 125.167 66.6568C124.985 66.8595 124.863 67.1078 124.812 67.3751C124.761 67.6424 124.784 67.9184 124.879 68.1735C124.929 68.2963 125.007 68.4061 125.106 68.4945C125.205 68.5828 125.322 68.6474 125.45 68.6834C125.704 68.7596 125.976 68.7596 126.23 68.6834C126.725 68.4886 127.187 68.218 127.599 67.8815L129.852 66.2994C130.17 66.0727 130.475 65.8635 130.724 65.6892C130.932 65.539 131.085 65.3247 131.159 65.079C131.191 64.9746 131.201 64.8645 131.186 64.7562C131.172 64.648 131.135 64.544 131.077 64.4514Z" fill="#E0E0E0"/>
<path d="M150.253 72.6755C150.271 72.7352 150.271 72.7989 150.253 72.8586C150.205 73.0348 150.097 73.1888 149.948 73.2944C149.715 73.4473 149.438 73.5193 149.159 73.4992C148.837 73.4992 148.488 73.4382 148.1 73.399L145.363 73.0765C144.809 73.0503 144.263 72.934 143.746 72.7322C143.464 72.6009 143.227 72.3904 143.062 72.1264C142.979 71.9849 142.927 71.827 142.911 71.6636C142.896 71.5002 142.916 71.3354 142.971 71.1806C143.087 70.8899 143.282 70.6368 143.532 70.4486C143.782 70.2604 144.08 70.1442 144.391 70.1128C144.946 70.068 145.504 70.1167 146.043 70.2566L147.481 70.5661C147.905 70.6418 148.324 70.7422 148.737 70.8668C149.074 70.9912 149.403 71.1368 149.722 71.3026C149.952 71.4619 150.127 71.6888 150.223 71.952C150.278 72.0557 150.311 72.1702 150.317 72.2877C150.324 72.4051 150.305 72.5225 150.262 72.6319C150.278 72.4104 150.238 72.1884 150.144 71.9869C150.041 71.752 149.871 71.5522 149.656 71.4116C149.339 71.2666 149.015 71.1386 148.684 71.028C148.275 70.916 147.861 70.8258 147.442 70.7578L146 70.4702C145.484 70.3412 144.951 70.297 144.422 70.3394C144.151 70.3675 143.894 70.4683 143.676 70.6309C143.458 70.7936 143.288 71.0121 143.184 71.2634C143.138 71.3872 143.121 71.5197 143.134 71.6511C143.147 71.7825 143.189 71.9092 143.258 72.0218C143.4 72.2477 143.602 72.429 143.842 72.5448C144.338 72.7357 144.859 72.8489 145.389 72.8803L148.118 73.2464C148.506 73.2944 148.859 73.3598 149.164 73.3816C149.419 73.4101 149.677 73.3567 149.9 73.229C149.996 73.1682 150.077 73.0871 150.138 72.9914C150.199 72.8958 150.239 72.788 150.253 72.6755Z" fill="#E0E0E0"/>
<path d="M145.394 64.033C145.394 64.033 145.45 64.0635 145.511 64.1681C145.591 64.3271 145.613 64.5091 145.572 64.6824C145.507 64.9539 145.354 65.1961 145.136 65.371C144.892 65.5802 144.6 65.7807 144.287 66.016L142.064 67.6373C141.635 67.9913 141.155 68.2766 140.639 68.4828C140.341 68.5701 140.025 68.5701 139.728 68.4828C139.57 68.4366 139.424 68.356 139.302 68.2467C139.179 68.1374 139.082 68.0022 139.017 67.8509C138.907 67.5588 138.878 67.2422 138.934 66.935C138.99 66.6278 139.129 66.3417 139.335 66.1075C139.71 65.6984 140.153 65.3564 140.643 65.0964L141.907 64.3424C142.272 64.1132 142.649 63.9037 143.036 63.7148C143.367 63.5761 143.706 63.4582 144.051 63.3618C144.327 63.3231 144.608 63.3687 144.858 63.4925C145.293 63.6974 145.363 63.9763 145.35 63.9719C145.212 63.7957 145.03 63.6589 144.823 63.5753C144.587 63.473 144.327 63.4412 144.073 63.4838C143.798 63.571 143.45 63.7104 143.101 63.863C142.726 64.0576 142.361 64.2715 142.007 64.5037L140.752 65.2751C140.285 65.5264 139.863 65.855 139.505 66.247C139.324 66.4497 139.201 66.6981 139.151 66.9654C139.1 67.2326 139.123 67.5087 139.218 67.7637C139.27 67.8846 139.349 67.9924 139.447 68.0798C139.546 68.1671 139.662 68.2318 139.789 68.2693C140.045 68.3456 140.317 68.3456 140.573 68.2693C141.066 68.0717 141.525 67.8014 141.937 67.4674C142.774 66.8746 143.537 66.3429 144.191 65.8853C144.509 65.6586 144.814 65.4494 145.062 65.2751C145.268 65.1221 145.42 64.9087 145.498 64.6649C145.526 64.5581 145.531 64.4467 145.513 64.3378C145.495 64.229 145.454 64.1251 145.394 64.033Z" fill="#E0E0E0"/>
<path d="M122.582 70.3787C122.582 70.3787 122.626 70.3264 122.743 70.2915C122.915 70.247 123.098 70.2656 123.258 70.3438C123.508 70.4686 123.71 70.6723 123.833 70.9235C123.985 71.2068 124.112 71.5336 124.269 71.891L125.367 74.4145C125.619 74.9091 125.793 75.4399 125.881 75.9879C125.91 76.2972 125.846 76.608 125.698 76.8813C125.618 77.0253 125.508 77.1499 125.375 77.2463C125.241 77.3427 125.088 77.4086 124.927 77.4392C124.616 77.4849 124.299 77.4444 124.01 77.3222C123.721 77.2 123.471 77.0008 123.288 76.7462C122.97 76.2902 122.733 75.7831 122.586 75.247C122.425 74.7588 122.273 74.2881 122.129 73.8479C121.983 73.4428 121.86 73.0295 121.763 72.6102C121.695 72.259 121.651 71.9037 121.632 71.5467C121.658 71.2676 121.766 71.0024 121.941 70.784C122.229 70.4223 122.517 70.3961 122.512 70.4092C122.309 70.5065 122.136 70.6571 122.011 70.845C121.861 71.0532 121.774 71.2995 121.758 71.5554C121.784 71.8474 121.845 72.2136 121.919 72.5884C122.026 72.9978 122.155 73.4009 122.307 73.7956C122.456 74.2315 122.617 74.7022 122.787 75.1903C122.93 75.7014 123.158 76.1848 123.462 76.6199C123.623 76.8395 123.839 77.0118 124.089 77.1185C124.339 77.2251 124.614 77.2622 124.883 77.2257C125.012 77.2042 125.135 77.1539 125.242 77.0784C125.35 77.003 125.438 76.9043 125.502 76.7898C125.627 76.5547 125.682 76.2882 125.659 76.0228C125.576 75.4982 125.413 74.9896 125.175 74.5148C124.779 73.569 124.426 72.706 124.12 71.9695C123.968 71.6121 123.846 71.2721 123.711 71.0019C123.609 70.7654 123.433 70.5681 123.21 70.4397C123.115 70.3851 123.011 70.3514 122.902 70.3409C122.794 70.3303 122.685 70.3432 122.582 70.3787Z" fill="#E0E0E0"/>
<path d="M134.106 69.4633C134.173 69.452 134.242 69.4627 134.302 69.4938C134.483 69.574 134.627 69.7185 134.707 69.8992C134.735 69.9594 134.757 70.0222 134.773 70.0866C134.797 70.14 134.837 70.1854 134.886 70.2173C135.017 70.3028 135.154 70.3785 135.296 70.444C135.66 70.5958 136.014 70.772 136.355 70.9713C136.41 71.0052 136.457 71.0496 136.494 71.1021C136.51 71.1191 136.522 71.1391 136.529 71.1608C136.537 71.1825 136.54 71.2055 136.538 71.2285C136.538 71.2851 136.538 71.2938 136.516 71.3287C136.486 71.4474 136.441 71.5616 136.381 71.6687C136.261 71.8905 136.115 72.0969 135.945 72.2832C135.601 72.6754 135.191 73.0372 134.786 73.4381C134.339 73.8134 134.02 74.3195 133.875 74.8851C133.811 75.2053 133.705 75.5159 133.561 75.8091C133.404 76.1251 133.151 76.383 132.838 76.5457C132.676 76.6293 132.497 76.673 132.315 76.673C132.133 76.673 131.953 76.6293 131.792 76.5457C131.493 76.3742 131.255 76.1136 131.112 75.8004C130.896 75.2077 130.896 74.5581 131.112 73.9655C131.447 72.8585 131.766 71.8909 132.049 71.0585C132.205 70.6974 132.384 70.3466 132.585 70.0081C132.752 69.7453 133.007 69.5506 133.304 69.459C133.421 69.4032 133.549 69.3743 133.679 69.3743C133.809 69.3743 133.937 69.4032 134.054 69.459C133.812 69.4123 133.562 69.4381 133.335 69.5331C133.068 69.6301 132.843 69.8165 132.698 70.0604C132.511 70.3989 132.343 70.7482 132.197 71.1064C131.944 71.9214 131.63 72.9239 131.325 74.0134C131.132 74.559 131.132 75.1546 131.325 75.7001C131.45 75.9688 131.656 76.1915 131.914 76.3364C132.043 76.404 132.186 76.4393 132.332 76.4393C132.478 76.4393 132.621 76.404 132.751 76.3364C133.02 76.1954 133.238 75.9727 133.374 75.7001C133.509 75.4228 133.61 75.1301 133.675 74.8285C133.705 74.6701 133.752 74.5152 133.814 74.3665C133.882 74.2226 133.964 74.0854 134.058 73.9568C134.237 73.7163 134.437 73.4918 134.655 73.2856C135.065 72.8803 135.479 72.5272 135.814 72.1568C135.981 71.9823 136.127 71.7893 136.25 71.5815C136.304 71.4851 136.347 71.3827 136.377 71.2764C136.377 71.2764 136.403 71.2154 136.377 71.2154C136.351 71.2154 136.377 71.2154 136.377 71.2154V71.1936C136.349 71.1565 136.315 71.1241 136.276 71.0977C135.947 70.8977 135.607 70.7172 135.257 70.5573C135.104 70.4856 134.959 70.401 134.821 70.3045C134.752 70.2572 134.701 70.1881 134.677 70.1084C134.665 70.0488 134.647 69.9905 134.625 69.934C134.564 69.7647 134.443 69.6237 134.285 69.5374C134.227 69.5089 134.167 69.4841 134.106 69.4633Z" fill="#E0E0E0"/>
<path d="M138.42 73.6559C138.42 73.6559 138.446 73.5949 138.551 73.5339C138.706 73.4486 138.887 73.4208 139.061 73.4554C139.337 73.518 139.584 73.6715 139.763 73.8913C139.981 74.1266 140.198 74.4099 140.429 74.7194L142.116 76.8985C142.48 77.3135 142.774 77.7844 142.988 78.2932C143.09 78.5878 143.105 78.9055 143.031 79.2085C142.988 79.3674 142.911 79.5149 142.805 79.6407C142.699 79.7664 142.566 79.8674 142.417 79.9363C142.128 80.0504 141.815 80.0855 141.508 80.038C141.202 79.9905 140.914 79.8621 140.673 79.6661C140.254 79.302 139.9 78.8686 139.627 78.3847L138.856 77.1426C138.615 76.7843 138.394 76.4133 138.194 76.0312C138.046 75.705 137.918 75.3702 137.81 75.0288C137.764 74.7538 137.802 74.4712 137.919 74.2181C138.111 73.7823 138.385 73.6995 138.381 73.7126C138.211 73.858 138.081 74.0438 138.002 74.253C137.91 74.4916 137.885 74.7511 137.932 75.0026C138.028 75.2772 138.176 75.6172 138.337 75.9615C138.544 76.3316 138.77 76.6909 139.013 77.038L139.819 78.2714C140.085 78.7311 140.425 79.1435 140.826 79.4918C141.035 79.6651 141.287 79.7788 141.556 79.821C141.824 79.8631 142.099 79.8322 142.351 79.7315C142.471 79.6753 142.577 79.5941 142.662 79.4933C142.747 79.3925 142.809 79.2745 142.844 79.1474C142.906 78.8879 142.894 78.6159 142.809 78.3629C142.598 77.8769 142.314 77.4257 141.968 77.0249L140.32 74.8152C140.085 74.5058 139.885 74.2051 139.684 73.9741C139.529 73.765 139.31 73.612 139.061 73.5382C138.952 73.5071 138.838 73.5015 138.727 73.5219C138.616 73.5423 138.511 73.5882 138.42 73.6559Z" fill="#E0E0E0"/>
<path d="M128.998 81.732C128.992 81.6703 129.004 81.6084 129.032 81.5533C129.11 81.3936 129.239 81.2646 129.398 81.1872C129.655 81.0735 129.941 81.0474 130.213 81.1131C130.527 81.1741 130.863 81.2787 131.242 81.3833L133.892 82.1373C134.434 82.2551 134.955 82.4565 135.435 82.7344C135.692 82.9102 135.892 83.1571 136.01 83.4448C136.07 83.598 136.096 83.7625 136.086 83.9267C136.075 84.0909 136.028 84.2508 135.949 84.395C135.787 84.6629 135.555 84.8814 135.278 85.0267C135 85.1719 134.688 85.2383 134.376 85.2187C133.822 85.1765 133.279 85.0394 132.772 84.8134L131.399 84.2773C130.993 84.1329 130.596 83.9655 130.209 83.7761C129.895 83.6019 129.592 83.4083 129.303 83.1964C129.102 83.0019 128.965 82.7511 128.91 82.4773C128.872 82.3663 128.858 82.248 128.871 82.1311C128.884 82.0142 128.923 81.9017 128.984 81.8017C128.925 82.0156 128.925 82.2416 128.984 82.4555C129.051 82.7023 129.186 82.9257 129.372 83.1005C129.662 83.2939 129.961 83.4714 130.27 83.6322C130.654 83.8136 131.047 83.9751 131.447 84.116L132.829 84.6303C133.315 84.8407 133.834 84.9688 134.363 85.0095C134.634 85.0266 134.904 84.9695 135.146 84.8443C135.387 84.7192 135.589 84.5307 135.731 84.2991C135.796 84.1845 135.834 84.0567 135.842 83.9254C135.85 83.7941 135.829 83.6625 135.779 83.5407C135.679 83.2931 135.507 83.0808 135.287 82.9305C134.829 82.6621 134.332 82.4665 133.813 82.3509L131.198 81.549C130.824 81.44 130.484 81.318 130.187 81.2482C129.94 81.1791 129.678 81.1898 129.438 81.2787C129.337 81.3194 129.245 81.3807 129.17 81.4588C129.094 81.5369 129.035 81.6299 128.998 81.732Z" fill="#E0E0E0"/>
<path d="M143.214 91.7083C143.162 91.7399 143.101 91.7536 143.04 91.7475C142.861 91.7454 142.69 91.6789 142.556 91.5601C142.348 91.373 142.208 91.1213 142.16 90.8454C142.085 90.5359 142.051 90.1829 141.99 89.795C141.881 89.0061 141.75 88.0865 141.61 87.0667C141.499 86.5234 141.474 85.9659 141.536 85.4148C141.599 85.1078 141.751 84.8259 141.972 84.6042C142.085 84.4896 142.221 84.4007 142.372 84.3436C142.522 84.2864 142.683 84.2623 142.844 84.273C143.154 84.3162 143.447 84.4423 143.692 84.6378C143.936 84.8334 144.124 85.0913 144.234 85.3843C144.415 85.9087 144.508 86.4595 144.509 87.0144C144.509 87.533 144.552 88.0211 144.574 88.4875C144.598 88.923 144.598 89.3595 144.574 89.795C144.543 90.1511 144.489 90.5049 144.413 90.8541C144.315 91.116 144.14 91.3423 143.912 91.5035C143.825 91.5832 143.722 91.6432 143.61 91.6793C143.498 91.7154 143.379 91.7268 143.262 91.7127C143.482 91.6722 143.687 91.5762 143.859 91.4337C144.06 91.273 144.212 91.0583 144.295 90.8148C144.356 90.4731 144.398 90.1283 144.422 89.7819C144.426 89.3585 144.409 88.9352 144.369 88.5136C144.343 88.0517 144.317 87.5592 144.286 87.0449C144.283 86.5135 144.191 85.9863 144.016 85.4846C143.922 85.2299 143.76 85.0055 143.548 84.8352C143.336 84.6649 143.082 84.555 142.813 84.517C142.681 84.5055 142.548 84.5234 142.424 84.5693C142.3 84.6153 142.187 84.6882 142.094 84.7829C141.911 84.9746 141.787 85.2153 141.737 85.4759C141.678 86.0035 141.7 86.537 141.802 87.0579C141.924 88.0778 142.038 89.0018 142.133 89.795C142.181 90.1829 142.208 90.5403 142.264 90.8366C142.3 91.0914 142.416 91.328 142.595 91.5122C142.678 91.5876 142.777 91.6442 142.883 91.6781C142.99 91.712 143.103 91.7223 143.214 91.7083Z" fill="#E0E0E0"/>
<path d="M129.874 93.6001C129.874 93.6001 129.817 93.5609 129.769 93.4519C129.707 93.2845 129.707 93.1006 129.769 92.9333C129.861 92.669 130.039 92.4434 130.275 92.2926C130.532 92.1052 130.841 91.9352 131.177 91.7303L133.543 90.3226C134.003 90.0109 134.509 89.7727 135.043 89.6165C135.345 89.5528 135.66 89.577 135.949 89.6863C136.102 89.7476 136.239 89.8419 136.352 89.9625C136.464 90.083 136.548 90.2268 136.598 90.3836C136.683 90.686 136.682 91.0057 136.597 91.3078C136.511 91.6099 136.345 91.8827 136.115 92.0964C135.702 92.4656 135.229 92.7605 134.716 92.9681L133.386 93.6001C132.997 93.8025 132.597 93.983 132.188 94.1405C131.848 94.2483 131.501 94.3342 131.151 94.3977C130.871 94.4112 130.594 94.3382 130.357 94.1885C129.961 93.9487 129.9 93.6655 129.921 93.6698C130.045 93.8541 130.213 94.0041 130.41 94.1057C130.635 94.2263 130.891 94.2806 131.146 94.2626C131.486 94.1883 131.82 94.0937 132.149 93.9793C132.541 93.8203 132.925 93.6414 133.299 93.4432L134.607 92.7938C135.096 92.5871 135.546 92.2998 135.94 91.9439C136.141 91.7587 136.287 91.5227 136.364 91.261C136.44 90.9993 136.445 90.7217 136.376 90.4577C136.336 90.3325 136.268 90.2177 136.179 90.1214C136.089 90.025 135.979 89.9494 135.858 89.8998C135.607 89.8056 135.335 89.7844 135.073 89.8388C134.564 89.9862 134.082 90.2127 133.644 90.51L131.246 91.8742C130.911 92.0703 130.588 92.2316 130.336 92.4015C130.114 92.5321 129.941 92.7309 129.843 92.9681C129.803 93.0697 129.786 93.1785 129.791 93.2873C129.796 93.3962 129.824 93.5028 129.874 93.6001Z" fill="#E0E0E0"/>
<path d="M129.86 72.5359C129.225 73.8031 128.522 75.0354 127.755 76.2274C127.051 77.4568 126.283 78.6483 125.454 79.7969C126.089 78.5309 126.792 77.3001 127.559 76.1097C128.261 74.8778 129.029 73.6848 129.86 72.5359Z" fill="#263238"/>
<path d="M130.632 70.4136C130.619 69.9152 130.57 69.4185 130.484 68.9274C130.205 67.7604 129.71 66.6561 129.024 65.6717C128.658 65.1271 128.194 64.6556 127.655 64.2814C127.212 63.9845 126.712 63.7841 126.187 63.693C125.696 63.6231 125.197 63.6513 124.718 63.7759C124.831 63.6947 124.96 63.6382 125.097 63.6102C125.461 63.514 125.839 63.4888 126.213 63.5361C126.769 63.6092 127.301 63.8042 127.773 64.1071C128.341 64.4876 128.829 64.9746 129.211 65.541C129.916 66.5478 130.403 67.6909 130.641 68.8969C130.706 69.265 130.727 69.6396 130.702 70.0127C130.704 70.1495 130.681 70.2857 130.632 70.4136Z" fill="#263238"/>
<path d="M139.863 61.0864C139.863 61.0864 139.889 61.1344 139.916 61.2303C139.955 61.3731 139.982 61.5189 139.998 61.6661C140.058 62.2041 140.014 62.7487 139.868 63.27C139.648 64.0494 139.218 64.7535 138.625 65.3053C137.874 65.9649 136.919 66.3461 135.92 66.3849C134.921 66.4238 133.939 66.118 133.138 65.5189C132.504 65.0133 132.021 64.3442 131.739 63.5838C131.551 63.0752 131.465 62.5347 131.487 61.993C131.49 61.8466 131.506 61.7008 131.534 61.5571C131.556 61.4569 131.569 61.4046 131.578 61.4089C131.53 62.1279 131.637 62.8487 131.892 63.5227C132.179 64.2427 132.653 64.8731 133.265 65.3489C134.031 65.9115 134.966 66.1976 135.916 66.1604C136.865 66.1232 137.775 65.7649 138.495 65.144C139.07 64.6232 139.496 63.9582 139.728 63.2177C139.925 62.525 139.971 61.7983 139.863 61.0864Z" fill="#263238"/>
<path d="M143.694 71.2417C143.991 71.5542 144.247 71.9027 144.457 72.279C145.019 73.1601 145.437 74.1253 145.695 75.1381C145.952 76.1582 145.977 77.223 145.769 78.2543C145.704 78.5649 145.609 78.8685 145.486 79.1608C145.451 79.2722 145.394 79.3758 145.32 79.4659C145.281 79.4659 145.481 78.9996 145.612 78.2238C145.772 77.2079 145.725 76.17 145.473 75.1729C145.216 74.1833 144.829 73.2321 144.322 72.3444C144.094 71.9878 143.884 71.6198 143.694 71.2417Z" fill="#263238"/>
<path d="M152.851 72.8193C152.604 73.1575 152.328 73.4739 152.027 73.7651L149.974 75.9835C149.164 76.8552 148.418 77.6135 147.865 78.1627C147.581 78.4718 147.267 78.752 146.928 78.9995C147.175 78.6604 147.451 78.3425 147.751 78.0494L149.809 75.8353C150.615 74.9636 151.36 74.2053 151.914 73.6561C152.198 73.3471 152.512 73.0668 152.851 72.8193Z" fill="#263238"/>
<path d="M148.288 77.6093C148.249 77.6616 148.018 77.5395 147.774 77.3391C147.53 77.1386 147.364 76.9425 147.403 76.9032C147.442 76.864 147.673 76.9773 147.918 77.1734C148.162 77.3696 148.327 77.5788 148.288 77.6093Z" fill="#263238"/>
<path d="M149.634 76.1883C149.591 76.2362 149.368 76.136 149.129 75.9617C148.889 75.7873 148.728 75.6087 148.763 75.5564C148.797 75.5041 149.02 75.6043 149.264 75.7786C149.508 75.953 149.673 76.1404 149.634 76.1883Z" fill="#263238"/>
<path d="M151.365 74.3141C151.326 74.3621 151.112 74.2531 150.89 74.0657C150.668 73.8783 150.524 73.6909 150.563 73.6299C150.602 73.5688 150.816 73.6909 151.038 73.8783C151.26 74.0657 151.409 74.2662 151.365 74.3141Z" fill="#263238"/>
<path d="M136.577 67.6067C136.52 67.6328 136.32 67.3408 136.228 66.9224C136.137 66.504 136.198 66.151 136.259 66.1553C136.32 66.1597 136.363 66.4822 136.451 66.8744C136.538 67.2667 136.634 67.5761 136.577 67.6067Z" fill="#263238"/>
<path d="M139.096 66.4082C139.048 66.4474 138.843 66.26 138.66 65.9724C138.477 65.6847 138.338 65.4537 138.39 65.4145C138.442 65.3753 138.643 65.5671 138.826 65.8503C139.009 66.1336 139.148 66.3733 139.096 66.4082Z" fill="#263238"/>
<path d="M140.699 64.3467C140.669 64.4034 140.416 64.3206 140.137 64.1681C139.858 64.0155 139.653 63.8412 139.701 63.7889C139.749 63.7366 139.985 63.815 140.264 63.9676C140.542 64.1201 140.73 64.2944 140.699 64.3467Z" fill="#263238"/>
<path d="M141.136 62.3244C141.136 62.3898 140.892 62.429 140.6 62.4159C140.308 62.4028 140.072 62.3375 140.072 62.2764C140.072 62.2154 140.316 62.1762 140.608 62.1893C140.9 62.2024 141.136 62.2721 141.136 62.3244Z" fill="#263238"/>
<path d="M133.082 66.9877C133.03 66.9572 133.134 66.6783 133.317 66.3645C133.5 66.0507 133.692 65.824 133.753 65.8546C133.814 65.8851 133.705 66.164 133.522 66.4778C133.339 66.7916 133.138 67.0182 133.082 66.9877Z" fill="#263238"/>
<path d="M131.243 65.0048C131.221 64.9438 131.456 64.8 131.739 64.6344C132.023 64.4688 132.267 64.3293 132.31 64.3772C132.354 64.4252 132.162 64.6475 131.875 64.8131C131.587 64.9787 131.264 65.0615 131.243 65.0048Z" fill="#263238"/>
<path d="M131.626 62.4682C131.626 62.5293 131.364 62.6382 131.011 62.708C130.658 62.7777 130.366 62.782 130.353 62.708C130.34 62.6339 130.614 62.5423 130.968 62.4726C131.321 62.4029 131.617 62.4072 131.626 62.4682Z" fill="#263238"/>
<path d="M125.532 79.8754C125.406 79.8367 125.285 79.7794 125.175 79.7054C124.953 79.5834 124.643 79.3916 124.264 79.1432C123.51 78.6507 122.521 77.9098 121.418 77.0686C120.316 76.2275 119.352 75.4647 118.62 74.9417C117.888 74.4187 117.43 74.1049 117.448 74.0701C117.573 74.1087 117.692 74.166 117.801 74.24C118.023 74.3621 118.337 74.5538 118.712 74.8023C119.47 75.2948 120.455 76.0357 121.558 76.8768C122.66 77.718 123.628 78.4807 124.356 79.0037C124.763 79.2735 125.156 79.5645 125.532 79.8754Z" fill="#263238"/>
<path d="M119.157 73.5255C119.213 73.556 119.113 73.8654 118.934 74.2228C118.756 74.5802 118.564 74.8417 118.499 74.8112C118.433 74.7807 118.542 74.4756 118.721 74.1182C118.9 73.7608 119.104 73.4993 119.157 73.5255Z" fill="#263238"/>
<path d="M121.14 74.9158C121.192 74.9463 121.079 75.2645 120.887 75.6263C120.695 75.988 120.49 76.2539 120.451 76.2233C120.412 76.1928 120.508 75.879 120.699 75.5173C120.891 75.1555 121.083 74.8897 121.14 74.9158Z" fill="#263238"/>
<path d="M123.288 76.6285C123.341 76.6634 123.206 76.9511 122.983 77.2692C122.761 77.5874 122.547 77.814 122.486 77.7791C122.425 77.7443 122.574 77.4566 122.796 77.1385C123.018 76.8203 123.24 76.5937 123.288 76.6285Z" fill="#263238"/>
<path d="M125.197 77.4608C125.253 77.4913 125.07 77.8966 124.796 78.3804C124.521 78.8642 124.247 79.2172 124.194 79.1867C124.259 78.8539 124.398 78.5397 124.6 78.2671C124.874 77.792 125.144 77.4303 125.197 77.4608Z" fill="#263238"/>
<path d="M135.475 66.1991C136.012 66.2405 136.552 66.1732 137.062 66.0012C137.572 65.8292 138.043 65.556 138.445 65.1979C138.848 64.8399 139.174 64.4043 139.404 63.9174C139.634 63.4304 139.764 62.902 139.785 62.3637C139.868 60.1846 139.942 57.9792 139.942 57.9792C139.942 57.9792 143.241 57.6698 143.481 54.401C143.721 51.1323 143.612 43.588 143.612 43.588C141.801 42.676 139.779 42.2639 137.756 42.3941C135.732 42.5244 133.78 43.1923 132.101 44.3289L131.596 44.6732L131.779 62.2504C131.789 63.2517 132.174 64.2128 132.858 64.9438C133.543 65.6749 134.476 66.1228 135.475 66.1991Z" fill="#A56959"/>
<path d="M142.056 49.3406C141.988 49.2737 141.942 49.1883 141.924 49.0952C141.905 49.0021 141.914 48.9056 141.95 48.8177C141.986 48.7299 142.048 48.6549 142.127 48.602C142.206 48.5492 142.299 48.521 142.393 48.521C142.488 48.521 142.581 48.5492 142.66 48.602C142.739 48.6549 142.801 48.7299 142.837 48.8177C142.873 48.9056 142.882 49.0021 142.863 49.0952C142.845 49.1883 142.799 49.2737 142.731 49.3406C142.641 49.4298 142.52 49.4798 142.393 49.4798C142.267 49.4798 142.146 49.4298 142.056 49.3406Z" fill="#263238"/>
<path d="M143.332 48.7873C143.276 48.8396 142.971 48.5738 142.522 48.5433C142.073 48.5127 141.729 48.7263 141.681 48.6653C141.633 48.6043 141.715 48.5389 141.868 48.443C142.067 48.3137 142.303 48.2539 142.539 48.273C142.778 48.2886 143.004 48.382 143.184 48.5389C143.315 48.6566 143.359 48.7655 143.332 48.7873Z" fill="#263238"/>
<path d="M137.784 48.7219C137.836 48.7577 137.879 48.8032 137.913 48.8559C137.946 48.9085 137.969 48.9673 137.98 49.0288C137.991 49.0903 137.99 49.1534 137.977 49.2144C137.963 49.2754 137.938 49.3332 137.902 49.3844C137.866 49.4356 137.821 49.4793 137.768 49.5129C137.715 49.5466 137.657 49.5695 137.595 49.5804C137.534 49.5914 137.471 49.5901 137.41 49.5766C137.349 49.5632 137.291 49.5379 137.24 49.5021C137.136 49.4298 137.066 49.3195 137.043 49.1952C137.021 49.071 137.05 48.9431 137.122 48.8396C137.194 48.7362 137.304 48.6656 137.429 48.6436C137.553 48.6215 137.681 48.6497 137.784 48.7219Z" fill="#263238"/>
<path d="M138.42 48.8918C138.314 48.7901 138.185 48.7149 138.044 48.6725C137.903 48.6301 137.754 48.6216 137.61 48.6477C137.174 48.6129 136.816 48.8308 136.773 48.7698C136.729 48.7088 136.808 48.6434 136.956 48.5432C137.158 48.4174 137.394 48.3594 137.631 48.3775C137.868 48.394 138.093 48.4873 138.272 48.6434C138.42 48.7611 138.442 48.87 138.42 48.8918Z" fill="#263238"/>
<path d="M140.016 52.3916C140.254 52.3114 140.505 52.273 140.756 52.2783C140.874 52.2783 140.97 52.2522 140.979 52.1912C140.992 52.0729 140.971 51.9535 140.918 51.8469C140.818 51.5418 140.722 51.2323 140.617 50.9098C140.181 49.5762 139.924 48.4778 139.994 48.4561C140.36 49.2195 140.652 50.0164 140.865 50.8357C140.961 51.1626 141.057 51.472 141.149 51.7771C141.214 51.933 141.226 52.1061 141.184 52.2696C141.164 52.3143 141.134 52.3538 141.096 52.3848C141.058 52.4158 141.013 52.4376 140.966 52.4483C140.899 52.4563 140.832 52.4563 140.765 52.4483C140.514 52.4698 140.261 52.4507 140.016 52.3916Z" fill="#263238"/>
<path d="M139.946 57.9312C138.435 57.8684 136.977 57.3571 135.758 56.4624C135.758 56.4624 136.629 58.8769 139.903 58.781L139.946 57.9312Z" fill="#7C4435"/>
<path d="M134.576 42.4549C134.655 43.1292 134.954 43.7587 135.426 44.2458C135.899 44.7328 136.52 45.0501 137.191 45.1483C137.998 45.2442 138.865 45.0219 139.589 45.388C140.081 45.713 140.5 46.1377 140.818 46.6345C140.978 46.8793 141.191 47.0848 141.441 47.2358C141.692 47.3867 141.973 47.4791 142.265 47.5062C142.544 47.4704 142.819 47.4047 143.084 47.3101C143.218 47.2662 143.359 47.2512 143.499 47.2663C143.638 47.2813 143.773 47.3259 143.895 47.3972C144.306 46.436 144.472 45.3877 144.378 44.3464C144.323 43.8281 144.125 43.3354 143.807 42.9229C143.488 42.5105 143.062 42.1945 142.574 42.0103C141.92 41.8185 141.219 41.9406 140.552 41.8273C140.007 41.7006 139.479 41.5059 138.983 41.2476C138.158 40.8022 137.224 40.6025 136.289 40.6723C135.37 40.8118 134.481 41.5745 134.502 42.5028" fill="#263238"/>
<path d="M131.822 51.4025C133.007 52.3526 134.437 49.8857 135.069 48.3516C135.649 46.767 135.96 45.0965 135.988 43.4092C136.077 42.8603 135.975 42.2976 135.701 41.8141C135.361 41.3782 135.213 41.9187 134.829 41.4872C134.101 40.6417 132.759 41.0993 132.096 41.387C130.994 41.8664 130.305 43.0954 130.087 44.3463C129.935 45.6112 129.982 46.8921 130.227 48.1424C130.305 48.7177 130.388 49.2887 130.471 49.864C130.497 50.2722 130.613 50.6695 130.811 51.0276C130.904 51.2 131.056 51.3336 131.238 51.4046C131.421 51.4756 131.623 51.4795 131.809 51.4155" fill="#263238"/>
<path d="M131.779 48.7134C131.78 48.5857 131.732 48.4625 131.644 48.3699C131.556 48.2772 131.436 48.2222 131.308 48.2166C130.698 48.2166 129.7 48.4432 129.608 50.1299C129.473 52.5357 131.787 51.9342 131.787 51.8732C131.787 51.8122 131.787 49.6461 131.779 48.7134Z" fill="#A56959"/>
<path d="M131.264 50.9185C131.264 50.9185 131.22 50.9446 131.146 50.9751C131.047 51.016 130.936 51.016 130.837 50.9751C130.685 50.8704 130.564 50.7263 130.487 50.5582C130.41 50.3901 130.38 50.2043 130.401 50.0206C130.406 49.814 130.458 49.6113 130.554 49.4279C130.579 49.3534 130.622 49.2865 130.68 49.2332C130.738 49.1799 130.809 49.1419 130.885 49.1228C130.933 49.112 130.984 49.1188 131.028 49.1419C131.072 49.1651 131.106 49.2031 131.125 49.2492C131.155 49.3189 131.125 49.3669 131.151 49.3712C131.177 49.3756 131.203 49.332 131.19 49.2318C131.178 49.1729 131.147 49.1194 131.103 49.0792C131.072 49.0525 131.036 49.0322 130.997 49.0195C130.958 49.0067 130.917 49.0019 130.876 49.0051C130.775 49.0181 130.68 49.0571 130.599 49.1182C130.518 49.1793 130.454 49.2605 130.414 49.3538C130.3 49.5564 130.239 49.784 130.235 50.0163C130.211 50.2297 130.251 50.4455 130.349 50.6364C130.448 50.8272 130.601 50.9846 130.789 51.0884C130.853 51.1102 130.921 51.1176 130.988 51.1101C131.055 51.1025 131.119 51.0803 131.177 51.0448C131.255 50.9925 131.273 50.9228 131.264 50.9185Z" fill="#7C4435"/>
<path d="M138.857 52.967C138.769 53.1119 138.74 53.2853 138.778 53.4505C138.815 53.6158 138.915 53.7601 139.057 53.853C139.199 53.9458 139.371 53.98 139.538 53.9483C139.704 53.9166 139.852 53.8216 139.95 53.6831C140.047 53.5447 140.087 53.3737 140.062 53.2062C140.036 53.0387 139.946 52.8879 139.811 52.7854C139.676 52.6829 139.506 52.6369 139.338 52.6569C139.17 52.677 139.016 52.7616 138.909 52.893" fill="#7C4435"/>
<path d="M140.368 53.4376C140.205 53.503 140.03 53.5337 139.855 53.5277C139.679 53.5217 139.507 53.4791 139.348 53.4028C138.795 53.2066 138.477 52.8187 138.538 52.7839C138.599 52.749 138.926 53.0149 139.409 53.1892C139.893 53.3635 140.364 53.3722 140.368 53.4376Z" fill="#263238"/>
<path d="M132.825 40.8509C132.825 40.9206 132.302 41.0776 131.757 41.4742C131.445 41.7045 131.153 41.9611 130.885 42.2412L130.693 42.4112L130.815 42.2064C130.842 42.1584 130.863 42.141 130.876 42.1453C130.889 42.1497 130.876 42.1759 130.876 42.2325L130.807 42.1977C130.983 41.8301 131.256 41.517 131.596 41.2911C131.938 40.999 132.375 40.8424 132.825 40.8509Z" fill="#58B368"/>
<path d="M137.985 47.2837C137.911 47.458 137.549 47.4842 137.183 47.5626C136.817 47.6411 136.464 47.7369 136.311 47.6018C136.25 47.5321 136.272 47.397 136.398 47.2488C136.564 47.0628 136.789 46.9384 137.035 46.8958C137.279 46.8434 137.533 46.8741 137.758 46.983C137.924 47.0701 137.985 47.1965 137.985 47.2837Z" fill="#263238"/>
<path d="M85.3227 157.99C84.5513 159.093 83.052 158.727 82.3547 158.051C81.6573 157.376 81.3653 156.404 81.0951 155.475C80.4849 153.349 79.8704 151.117 80.3237 148.938C80.4346 148.282 80.7224 147.669 81.1561 147.164C81.3764 146.917 81.6579 146.732 81.9724 146.628C82.2868 146.524 82.6231 146.504 82.9474 146.571C83.7057 146.767 84.1764 147.508 84.5164 148.214C85.5165 150.296 86.0406 152.574 86.0505 154.883C86.1233 155.962 85.8697 157.039 85.3227 157.973" fill="#58B368"/>
<g opacity="0.2">
<path opacity="0.2" d="M85.3227 157.99C84.5513 159.093 83.052 158.727 82.3547 158.051C81.6573 157.376 81.3653 156.404 81.0951 155.475C80.4849 153.349 79.8704 151.117 80.3237 148.938C80.4346 148.282 80.7224 147.669 81.1561 147.164C81.3764 146.917 81.6579 146.732 81.9724 146.628C82.2868 146.524 82.6231 146.504 82.9474 146.571C83.7057 146.767 84.1764 147.508 84.5164 148.214C85.5165 150.296 86.0406 152.574 86.0505 154.883C86.1233 155.962 85.8697 157.039 85.3227 157.973" fill="black"/>
</g>
<path d="M82.4286 163.573C81.1355 162.965 79.6809 162.787 78.2795 163.068C77.513 163.133 76.7912 163.456 76.231 163.983C75.7167 164.55 75.6209 165.543 76.231 166.031C76.6149 166.291 77.0778 166.406 77.5385 166.358C78.6368 166.358 79.8528 166.153 80.7332 166.794C81.2301 167.169 81.5657 167.797 82.1628 167.984C82.4622 168.052 82.7756 168.021 83.0561 167.897C83.3366 167.772 83.569 167.559 83.7187 167.291C84.0023 166.741 84.0647 166.103 83.893 165.508C83.8154 165.095 83.6427 164.704 83.3886 164.369C83.1345 164.033 82.8059 163.761 82.4286 163.573Z" fill="#58B368"/>
<path d="M87.4279 159.572C87.0325 159.053 86.7692 158.445 86.6606 157.801C86.5521 157.157 86.6015 156.497 86.8046 155.876C87.2269 154.64 87.9808 153.544 88.9838 152.708C90.1281 151.689 91.4606 150.905 92.9063 150.398C93.4592 150.174 94.0537 150.071 94.6497 150.097C94.9501 150.115 95.2417 150.205 95.4992 150.361C95.7566 150.516 95.9722 150.733 96.1271 150.991C96.5412 151.775 96.1271 152.734 95.7174 153.51C94.9646 154.883 94.1048 156.194 93.146 157.432C92.3746 158.426 91.4942 159.407 90.3174 159.856C89.1407 160.304 87.9247 160.252 87.3015 159.42" fill="#58B368"/>
<path d="M85.3749 174.622C85.3343 174.457 85.3109 174.29 85.3051 174.12C85.2703 173.754 85.2267 173.297 85.17 172.752C85.1028 172.079 85.001 171.41 84.8649 170.747C84.6847 169.94 84.4413 169.149 84.1371 168.381C83.8359 167.612 83.428 166.891 82.9255 166.236C82.5173 165.706 81.9963 165.272 81.4001 164.968C80.9888 164.764 80.5472 164.629 80.0926 164.567C79.9247 164.561 79.758 164.536 79.5957 164.493C79.7638 164.477 79.9331 164.477 80.1013 164.493C80.5663 164.526 81.0214 164.644 81.4436 164.842C82.0729 165.138 82.6248 165.577 83.0562 166.123C83.58 166.783 84.003 167.518 84.3114 168.302C84.62 169.082 84.862 169.887 85.0349 170.708C85.1614 171.379 85.2502 172.057 85.3008 172.739C85.3444 173.319 85.3618 173.789 85.3662 174.116C85.3866 174.284 85.3895 174.453 85.3749 174.622Z" fill="#263238"/>
<path d="M85.2791 173.567C85.2735 173.49 85.2735 173.413 85.2791 173.336C85.2791 173.162 85.2791 172.939 85.2791 172.669C85.2791 172.094 85.2791 171.257 85.2486 170.229C85.1963 168.167 85.0176 165.321 84.6777 162.192C84.3377 159.062 83.8714 156.247 83.4573 154.229C83.3571 153.723 83.2569 153.266 83.1653 152.865C83.0738 152.464 82.9997 152.124 82.9256 151.845C82.8515 151.566 82.8123 151.366 82.7687 151.196C82.7469 151.122 82.7338 151.046 82.7295 150.969C82.7667 151.038 82.7946 151.111 82.8123 151.187C82.8602 151.353 82.9256 151.566 83.0041 151.823C83.0825 152.08 83.1784 152.442 83.2786 152.839C83.3789 153.235 83.4922 153.71 83.5968 154.199C84.168 156.831 84.5972 159.492 84.8825 162.17C85.2268 165.304 85.3794 168.158 85.3924 170.224C85.3924 171.257 85.3924 172.094 85.3576 172.674C85.3576 172.944 85.3271 173.162 85.3184 173.336C85.3157 173.414 85.3025 173.492 85.2791 173.567Z" fill="#263238"/>
<path d="M85.2489 168.062C85.2308 167.832 85.2308 167.6 85.2489 167.369C85.275 166.934 85.336 166.275 85.4624 165.487C85.6147 164.562 85.8184 163.647 86.0726 162.745C86.3788 161.639 86.7618 160.555 87.2189 159.503C88.0169 157.57 89.1583 155.798 90.5879 154.273C90.837 154.013 91.1004 153.767 91.3767 153.536C91.4988 153.436 91.6077 153.331 91.7167 153.253L92.0261 153.039C92.2097 152.898 92.405 152.772 92.6101 152.664C91.9372 153.195 91.2968 153.765 90.6925 154.373C89.3081 155.916 88.1981 157.685 87.4106 159.603C86.9551 160.647 86.5693 161.72 86.2557 162.815C85.9593 163.822 85.7588 164.75 85.6063 165.53C85.4537 166.31 85.3796 166.951 85.3317 167.391C85.3198 167.617 85.2921 167.841 85.2489 168.062Z" fill="#263238"/>
<path d="M114.188 39.9792L114.223 40.0751L114.315 40.3497L114.672 41.4306L116.019 45.5667V45.6233H115.958L110.209 44.5729H110.17V44.5337L110.248 44.5729C107.741 46.4508 104.691 47.462 101.558 47.4538C100.849 47.4412 100.141 47.3815 99.4397 47.2751C98.7115 47.167 97.992 47.0068 97.2867 46.7957C96.938 46.665 96.585 46.5342 96.2276 46.4078C96.0465 46.3435 95.8703 46.2663 95.7002 46.1768L95.1816 45.9284C93.7601 45.2128 92.4635 44.2724 91.3419 43.1434C90.1657 41.9531 89.2109 40.5629 88.522 39.0378C87.4963 36.8031 87.0607 34.3427 87.2567 31.8916C87.4528 29.4405 88.274 27.0806 89.6419 25.0373C91.0097 22.994 92.8786 21.3355 95.0701 20.2202C97.2615 19.105 99.7023 18.5702 102.159 18.6669C105.722 18.7946 109.109 20.2442 111.66 22.7331C114.212 25.222 115.746 28.5719 115.962 32.1299C116.127 34.5436 115.666 36.9591 114.624 39.1424C114.485 39.4301 114.371 39.648 114.293 39.7875L114.167 40.0054L114.276 39.7875C114.354 39.6349 114.463 39.4214 114.598 39.1294C114.986 38.2889 115.292 37.4132 115.513 36.5144C115.87 35.0908 115.993 33.619 115.879 32.156C115.74 30.0042 115.115 27.9119 114.052 26.0361C112.988 24.1604 111.513 22.5499 109.738 21.3255C107.38 19.7091 104.592 18.8347 101.732 18.8145C98.8726 18.7943 96.0724 19.6293 93.691 21.2122C90.8729 23.0931 88.8177 25.9171 87.8943 29.177C86.9709 32.4369 87.2398 35.9192 88.6528 38.9986C89.3351 40.5095 90.2794 41.8876 91.4421 43.0693C92.5669 44.1662 93.8603 45.0756 95.2731 45.7628L95.7874 46.0112C95.9537 46.101 96.1271 46.1768 96.306 46.2378L97.3564 46.6257C98.0543 46.8367 98.7666 46.9969 99.4876 47.1052C100.183 47.2115 100.885 47.2712 101.588 47.2838C102.265 47.2906 102.94 47.2484 103.611 47.1575C106.005 46.8291 108.276 45.8994 110.214 44.4553L110.288 44.3986V44.4945L110.248 44.4466L115.993 45.5231L115.953 45.571C115.387 43.7754 114.942 42.3763 114.646 41.4262L114.306 40.341C114.271 40.219 114.241 40.1274 114.223 40.0621L114.197 39.9618L114.188 39.9792Z" fill="#263238"/>
<path d="M100.329 38.1661L95.3389 32.7966L96.9558 31.2974L100.403 35.002L107.638 27.8848L109.185 29.4538L100.329 38.1661Z" fill="#455A64"/>
</svg>
