<svg width="280" height="180" viewBox="0 0 280 180" fill="none" xmlns="http://www.w3.org/2000/svg">
<path d="M133.37 136.472H40.1896C39.4597 136.471 38.76 136.18 38.2443 135.663C37.7286 135.146 37.439 134.446 37.439 133.716V2.73137C37.4453 2.00559 37.7378 1.31163 38.2528 0.800213C38.7678 0.2888 39.4638 0.0012433 40.1896 0H133.37C134.101 0 134.801 0.29031 135.318 0.807066C135.835 1.32382 136.125 2.02469 136.125 2.7555V133.716C136.125 134.447 135.835 135.148 135.318 135.665C134.801 136.182 134.101 136.472 133.37 136.472ZM40.1896 0.0965151C39.4917 0.0977935 38.8227 0.375956 38.3296 0.869949C37.8365 1.36394 37.5596 2.0334 37.5596 2.73137V133.716C37.5596 134.414 37.8365 135.084 38.3296 135.578C38.8227 136.072 39.4917 136.35 40.1896 136.351H133.37C134.068 136.35 134.738 136.072 135.232 135.578C135.725 135.084 136.003 134.415 136.005 133.716V2.73137C136.003 2.03295 135.725 1.36351 135.232 0.869654C134.738 0.3758 134.068 0.0977908 133.37 0.0965151H40.1896Z" fill="#EAEAEA"/>
<path d="M237.755 136.472H144.57C143.84 136.471 143.14 136.18 142.623 135.663C142.107 135.147 141.816 134.447 141.815 133.716V2.73137C141.823 2.00515 142.116 1.31119 142.632 0.799911C143.148 0.288632 143.844 0.00122974 144.57 0H237.755C238.48 0.00251155 239.175 0.29063 239.689 0.801906C240.203 1.31318 240.495 2.00642 240.501 2.73137V133.716C240.501 134.445 240.212 135.145 239.698 135.661C239.183 136.178 238.485 136.469 237.755 136.472ZM144.57 0.0965151C143.872 0.0977908 143.203 0.3758 142.709 0.869654C142.215 1.36351 141.937 2.03295 141.936 2.73137V133.716C141.937 134.415 142.215 135.084 142.709 135.578C143.203 136.072 143.872 136.35 144.57 136.351H237.755C238.454 136.35 239.123 136.072 239.617 135.578C240.111 135.084 240.389 134.415 240.39 133.716V2.73137C240.389 2.03295 240.111 1.36351 239.617 0.869654C239.123 0.3758 238.454 0.0977908 237.755 0.0965151H144.57Z" fill="#EAEAEA"/>
<path d="M236.11 165.762H220.127V165.882H236.11V165.762Z" fill="#EAEAEA"/>
<path d="M178.838 167.071H174.645V167.192H178.838V167.071Z" fill="#EAEAEA"/>
<path d="M219.644 161.281H210.384V161.401H219.644V161.281Z" fill="#EAEAEA"/>
<path d="M65.1578 162.09H44.3154V162.21H65.1578V162.09Z" fill="#EAEAEA"/>
<path d="M72.5127 162.09H69.458V162.21H72.5127V162.09Z" fill="#EAEAEA"/>
<path d="M127.652 164.128H82.4443V164.249H127.652V164.128Z" fill="#EAEAEA"/>
<path d="M260.287 157.995H19V158.116H260.287V157.995Z" fill="#EAEAEA"/>
<path d="M93.7701 19.3789H37.0098V103.25H93.7701V19.3789Z" fill="#E0E0E0"/>
<path d="M95.859 19.3789H39.0986V103.25H95.859V19.3789Z" fill="#F0F0F0"/>
<path d="M92.9881 63.7197H41.8594V98.3396H92.9881V63.7197Z" fill="#EAEAEA"/>
<path d="M92.9881 22.7891H41.8594V63.721H92.9881V22.7891Z" fill="white"/>
<path d="M92.9885 22.7891H91.1885V98.3408H92.9885V22.7891Z" fill="#E0E0E0"/>
<path d="M41.7002 63.7227V65.5469H91.3812V63.7227H41.7002Z" fill="#E0E0E0"/>
<path d="M92.9884 60.6523H40.8945V63.7167H92.9884V60.6523Z" fill="#F0F0F0"/>
<path d="M230.449 118.969H161.268C156.025 118.969 151.775 123.219 151.775 128.461V149.052C151.775 154.295 156.025 158.545 161.268 158.545H230.449C235.692 158.545 239.942 154.295 239.942 149.052V128.461C239.942 123.219 235.692 118.969 230.449 118.969Z" fill="#E0E0E0"/>
<path d="M225.802 119.259H156.621C151.378 119.259 147.128 123.509 147.128 128.751V149.342C147.128 154.585 151.378 158.835 156.621 158.835H225.802C231.045 158.835 235.295 154.585 235.295 149.342V128.751C235.295 123.509 231.045 119.259 225.802 119.259Z" fill="#F5F5F5"/>
<path d="M158.319 122.993H224.625C225.496 122.993 226.358 123.165 227.162 123.498C227.967 123.831 228.698 124.32 229.313 124.935C229.929 125.551 230.418 126.282 230.751 127.086C231.084 127.891 231.255 128.753 231.255 129.624V137.76H151.708V129.619C151.709 127.865 152.406 126.182 153.645 124.94C154.884 123.698 156.565 122.998 158.319 122.993Z" fill="#E0E0E0"/>
<path d="M151.708 139.754H231.255V147.89C231.255 149.649 230.557 151.335 229.313 152.579C228.07 153.822 226.383 154.521 224.625 154.521H158.319C156.564 154.516 154.883 153.815 153.643 152.572C152.404 151.329 151.708 149.645 151.708 147.89V139.754Z" fill="#E0E0E0"/>
<path d="M209.853 125.851H195.284V137.852H209.853V125.851Z" fill="#E6E6E6"/>
<path d="M195.284 125.851H191.554V137.852H195.284V125.851Z" fill="#F5F5F5"/>
<path d="M194.657 134.636C194.657 134.878 194.585 135.115 194.45 135.317C194.315 135.518 194.124 135.676 193.9 135.768C193.676 135.861 193.429 135.885 193.192 135.838C192.954 135.791 192.736 135.674 192.564 135.503C192.393 135.331 192.276 135.113 192.229 134.875C192.181 134.637 192.206 134.391 192.298 134.167C192.391 133.943 192.548 133.751 192.75 133.617C192.951 133.482 193.188 133.41 193.431 133.41C193.756 133.41 194.068 133.539 194.298 133.769C194.527 133.999 194.657 134.311 194.657 134.636Z" fill="#E0E0E0"/>
<path d="M213.675 123.996H202.73V137.851H213.675V123.996Z" fill="#E6E6E6"/>
<path d="M202.735 123.996H199.569V137.851H202.735V123.996Z" fill="#F5F5F5"/>
<path d="M201.152 127.093C201.752 127.093 202.238 126.607 202.238 126.008C202.238 125.408 201.752 124.922 201.152 124.922C200.553 124.922 200.066 125.408 200.066 126.008C200.066 126.607 200.553 127.093 201.152 127.093Z" fill="#E0E0E0"/>
<path d="M201.152 127.093C201.752 127.093 202.238 126.607 202.238 126.008C202.238 125.408 201.752 124.922 201.152 124.922C200.553 124.922 200.066 125.408 200.066 126.008C200.066 126.607 200.553 127.093 201.152 127.093Z" fill="#E0E0E0"/>
<path d="M215.181 125.851H205.954V137.852H215.181V125.851Z" fill="#EAEAEA"/>
<path d="M205.954 125.851H203.845V137.852H205.954V125.851Z" fill="#F5F5F5"/>
<path d="M225.609 127.882H213.506V137.857H225.609V127.882Z" fill="#E6E6E6"/>
<path d="M213.506 127.882H210.408V137.857H213.506V127.882Z" fill="#F5F5F5"/>
<path d="M228.78 126.343H219.688V137.853H228.78V126.343Z" fill="#E6E6E6"/>
<path d="M219.697 126.343H217.067V137.853H219.697V126.343Z" fill="#F5F5F5"/>
<path d="M231.202 127.882H222.371V137.857H231.202V127.882Z" fill="#E6E6E6"/>
<path d="M222.367 127.882H220.615V137.857H222.367V127.882Z" fill="#F0F0F0"/>
<path d="M175.031 142.062H163.753V154.064H175.031V142.062Z" fill="#E6E6E6"/>
<path d="M163.758 142.062H160.867V154.064H163.758V142.062Z" fill="#F5F5F5"/>
<path d="M177.984 140.208H169.515V154.062H177.984V140.208Z" fill="#E6E6E6"/>
<path d="M169.52 140.208H167.073V154.062H169.52V140.208Z" fill="#F5F5F5"/>
<path d="M213.501 142.062H202.224V154.064H213.501V142.062Z" fill="#E6E6E6"/>
<path d="M202.229 142.062H199.338V154.064H202.229V142.062Z" fill="#F5F5F5"/>
<path d="M216.455 140.208H207.985V154.062H216.455V140.208Z" fill="#E6E6E6"/>
<path d="M207.995 140.208H205.544V154.062H207.995V140.208Z" fill="#F5F5F5"/>
<path d="M179.157 142.062H172.015V154.064H179.157V142.062Z" fill="#EAEAEA"/>
<path d="M172.015 142.062H170.384V154.064H172.015V142.062Z" fill="#F5F5F5"/>
<path d="M187.225 144.09H177.858V154.065H187.225V144.09Z" fill="#E6E6E6"/>
<path d="M177.858 144.09H175.46V154.065H177.858V144.09Z" fill="#F5F5F5"/>
<path d="M189.681 142.551H182.646V154.06H189.681V142.551Z" fill="#E6E6E6"/>
<path d="M182.65 142.551H180.613V154.06H182.65V142.551Z" fill="#F5F5F5"/>
<path d="M191.559 144.09H184.721V154.065H191.559V144.09Z" fill="#E6E6E6"/>
<path d="M184.715 144.09H183.359V154.065H184.715V144.09Z" fill="#F0F0F0"/>
<path d="M183.292 107.458C183.174 107.228 182.985 107.041 182.753 106.926C182.521 106.81 182.259 106.772 182.004 106.816C181.747 106.879 181.516 107.02 181.343 107.22C181.17 107.419 181.064 107.668 181.038 107.931C180.863 107.801 180.652 107.728 180.433 107.722C180.215 107.716 180 107.777 179.817 107.897C179.635 108.03 179.493 108.21 179.408 108.419C179.322 108.628 179.297 108.857 179.335 109.079C179.234 109.005 179.118 108.953 178.995 108.926C178.872 108.899 178.745 108.898 178.622 108.923C178.499 108.948 178.383 108.998 178.28 109.071C178.178 109.144 178.092 109.237 178.027 109.345C177.908 109.577 177.884 109.846 177.958 110.096C178.033 110.346 178.201 110.557 178.428 110.686C178.271 110.709 178.129 110.789 178.027 110.91C177.925 111.031 177.871 111.185 177.875 111.343C177.879 111.501 177.941 111.652 178.049 111.768C178.157 111.883 178.304 111.955 178.461 111.97C178.299 111.982 178.147 112.051 178.03 112.163C177.912 112.276 177.838 112.426 177.82 112.588C177.802 112.75 177.84 112.913 177.928 113.051C178.016 113.189 178.148 113.293 178.302 113.345C178.226 113.389 178.16 113.45 178.111 113.523C178.061 113.595 178.028 113.678 178.015 113.765C178.001 113.852 178.008 113.941 178.033 114.026C178.059 114.11 178.103 114.188 178.162 114.252C178.23 114.306 178.31 114.341 178.395 114.356C178.48 114.372 178.567 114.366 178.65 114.34C178.732 114.314 178.806 114.268 178.867 114.206C178.928 114.145 178.972 114.07 178.997 113.987C179.009 114.011 179.027 114.032 179.048 114.047C179.07 114.063 179.095 114.074 179.121 114.078C179.147 114.082 179.174 114.08 179.2 114.072C179.225 114.064 179.248 114.049 179.267 114.031C179.284 114.009 179.297 113.984 179.304 113.957C179.311 113.93 179.312 113.902 179.307 113.875C179.303 113.848 179.293 113.822 179.277 113.799C179.262 113.776 179.242 113.756 179.219 113.741C179.258 113.785 179.308 113.818 179.364 113.835C179.42 113.853 179.48 113.854 179.537 113.84C179.594 113.825 179.646 113.795 179.687 113.753C179.728 113.711 179.756 113.658 179.769 113.601C179.751 113.738 179.768 113.878 179.82 114.006C179.872 114.134 179.956 114.247 180.065 114.333C180.174 114.418 180.303 114.474 180.44 114.495C180.576 114.516 180.716 114.5 180.845 114.45C180.818 114.514 180.805 114.583 180.806 114.652C180.808 114.721 180.824 114.789 180.855 114.851C180.885 114.913 180.928 114.969 180.981 115.013C181.035 115.057 181.097 115.089 181.164 115.107C181.433 115.151 181.709 115.096 181.941 114.952C182.171 114.808 182.432 114.72 182.703 114.696C182.938 114.726 183.167 114.79 183.384 114.885C183.747 114.995 184.134 115.001 184.502 114.904C184.869 114.807 185.202 114.61 185.464 114.335C185.562 114.447 185.686 114.533 185.827 114.585C185.967 114.637 186.118 114.652 186.265 114.63C186.413 114.608 186.553 114.549 186.671 114.458C186.79 114.368 186.884 114.249 186.945 114.113C186.969 114.253 187.039 114.381 187.144 114.476C187.25 114.571 187.385 114.627 187.527 114.635C187.668 114.644 187.809 114.604 187.925 114.522C188.041 114.44 188.126 114.321 188.166 114.185V114.561C188.298 114.572 188.43 114.55 188.55 114.497C188.671 114.444 188.777 114.361 188.857 114.256C188.937 114.151 188.99 114.028 189.01 113.897C189.03 113.767 189.017 113.633 188.972 113.509C189.162 113.502 189.343 113.428 189.483 113.3C189.624 113.171 189.714 112.998 189.739 112.81C189.761 112.619 189.716 112.427 189.612 112.266C189.508 112.106 189.352 111.985 189.17 111.926C189.481 111.825 189.752 111.628 189.946 111.364C190.139 111.101 190.245 110.783 190.248 110.455C190.251 110.128 190.152 109.808 189.963 109.541C189.775 109.273 189.508 109.071 189.199 108.963C189.082 108.919 188.955 108.905 188.831 108.922C188.707 108.94 188.589 108.989 188.489 109.065C188.441 109.107 188.403 109.158 188.376 109.216C188.35 109.274 188.336 109.337 188.336 109.4C188.336 109.464 188.35 109.527 188.376 109.585C188.403 109.642 188.441 109.694 188.489 109.736C188.574 109.437 188.561 109.12 188.451 108.829C188.342 108.539 188.142 108.292 187.881 108.124C187.615 107.982 187.307 107.94 187.012 108.003C186.717 108.067 186.454 108.232 186.269 108.471C186.358 108.339 186.405 108.184 186.405 108.025C186.405 107.866 186.358 107.711 186.269 107.578C186.183 107.453 186.058 107.359 185.913 107.311C185.769 107.264 185.613 107.264 185.468 107.313C185.433 107.114 185.324 106.936 185.163 106.813C185.002 106.691 184.801 106.633 184.6 106.652C184.4 106.697 184.224 106.812 184.103 106.977C183.982 107.143 183.926 107.346 183.943 107.55C183.928 107.47 183.889 107.398 183.831 107.341C183.774 107.284 183.701 107.246 183.621 107.231C183.542 107.216 183.46 107.225 183.386 107.257C183.312 107.288 183.249 107.342 183.205 107.41C183.007 107.347 183.292 107.458 183.292 107.458Z" fill="#EAEAEA"/>
<path d="M183.437 111.317C183.358 111.259 183.269 111.217 183.173 111.193C183.078 111.17 182.979 111.166 182.882 111.182C182.787 111.2 182.699 111.246 182.628 111.312C182.557 111.379 182.506 111.464 182.482 111.558C182.462 111.654 182.479 111.753 182.529 111.837C182.579 111.921 182.658 111.984 182.752 112.012C182.979 112.07 183.21 111.877 183.442 111.91C183.529 111.91 183.606 111.963 183.688 111.983C183.864 112.003 184.042 111.983 184.209 111.924C184.376 111.866 184.528 111.77 184.653 111.645C184.757 111.579 184.847 111.494 184.919 111.394C184.955 111.344 184.976 111.286 184.982 111.224C184.987 111.163 184.975 111.102 184.948 111.047C184.893 110.981 184.821 110.931 184.74 110.905C184.659 110.878 184.572 110.876 184.489 110.897C184.146 110.935 183.821 111.07 183.553 111.288L183.577 111.129L183.437 111.317Z" fill="#FAFAFA"/>
<path d="M188.325 111.027C188.239 110.955 188.139 110.903 188.031 110.873C187.978 110.856 187.921 110.855 187.867 110.87C187.813 110.884 187.765 110.914 187.727 110.955C187.689 111.021 187.676 111.099 187.692 111.174C187.708 111.249 187.752 111.315 187.814 111.36C187.94 111.445 188.087 111.495 188.239 111.505C188.398 111.529 188.591 111.534 188.668 111.399C188.691 111.346 188.696 111.288 188.683 111.232C188.67 111.177 188.639 111.127 188.596 111.09C188.507 111.018 188.403 110.967 188.292 110.94L188.325 111.027Z" fill="#FAFAFA"/>
<path d="M180.599 108.482C180.444 108.548 180.306 108.651 180.198 108.781C180.09 108.911 180.014 109.065 179.977 109.23C179.958 109.277 179.955 109.329 179.967 109.378C179.979 109.427 180.006 109.472 180.044 109.505C180.078 109.519 180.114 109.527 180.151 109.527C180.187 109.527 180.223 109.519 180.257 109.505L181.149 109.293C181.004 109.34 180.868 109.413 180.749 109.51C180.689 109.557 180.643 109.62 180.616 109.691C180.589 109.762 180.581 109.84 180.595 109.915C180.624 110 180.68 110.074 180.755 110.125C180.83 110.175 180.919 110.2 181.01 110.195C181.187 110.18 181.355 110.111 181.492 109.997C181.576 109.949 181.647 109.883 181.702 109.804C181.756 109.724 181.792 109.634 181.806 109.539C181.806 109.35 181.565 109.172 181.42 109.293C181.762 109.199 182.088 109.053 182.385 108.858C182.493 108.79 182.586 108.702 182.66 108.598C182.696 108.544 182.718 108.482 182.723 108.418C182.728 108.354 182.716 108.289 182.689 108.231C182.385 107.676 181.999 108.491 181.811 108.564C181.458 108.704 181.053 108.289 180.599 108.482Z" fill="#FAFAFA"/>
<path d="M179.215 110.851C179.196 110.905 179.194 110.964 179.207 111.019C179.221 111.075 179.25 111.125 179.292 111.165C179.314 111.182 179.339 111.193 179.366 111.199C179.393 111.206 179.42 111.206 179.447 111.2C179.474 111.195 179.5 111.184 179.522 111.168C179.544 111.152 179.563 111.131 179.577 111.107C179.37 111.146 179.182 111.251 179.041 111.406C179.009 111.446 178.985 111.493 178.973 111.543C178.961 111.593 178.96 111.646 178.97 111.696C178.98 111.747 179.001 111.795 179.032 111.836C179.062 111.878 179.102 111.912 179.147 111.937C179.212 111.948 179.278 111.947 179.342 111.932C179.406 111.917 179.466 111.889 179.519 111.85C179.843 111.674 180.151 111.471 180.44 111.242C180.354 111.45 180.566 111.681 180.788 111.725C181.013 111.72 181.231 111.644 181.41 111.507C181.647 111.363 181.893 111.146 181.854 110.88C181.807 110.772 181.723 110.685 181.616 110.635C181.509 110.586 181.388 110.577 181.275 110.61C181.053 110.702 180.859 110.85 180.711 111.039C180.836 110.861 180.662 110.586 180.44 110.557C180.333 110.551 180.226 110.572 180.128 110.618C180.031 110.663 179.946 110.732 179.881 110.817C180.132 110.677 180.185 110.335 179.852 110.282C179.63 110.229 179.263 110.673 179.215 110.851Z" fill="#FAFAFA"/>
<path d="M186.043 110.054C185.995 110.039 185.944 110.032 185.894 110.036C185.844 110.04 185.795 110.054 185.75 110.077C185.705 110.1 185.665 110.131 185.633 110.17C185.6 110.208 185.575 110.252 185.56 110.3C185.55 110.349 185.55 110.399 185.559 110.447C185.569 110.496 185.588 110.542 185.615 110.583C185.643 110.625 185.678 110.66 185.719 110.688C185.76 110.715 185.806 110.735 185.854 110.744C185.708 110.759 185.573 110.83 185.478 110.942C185.45 110.973 185.428 111.008 185.414 111.047C185.4 111.086 185.394 111.128 185.396 111.169C185.411 111.228 185.445 111.28 185.494 111.316C185.542 111.353 185.601 111.373 185.661 111.372C185.785 111.366 185.905 111.333 186.014 111.275C185.893 111.274 185.774 111.307 185.671 111.372C185.646 111.389 185.625 111.41 185.608 111.436C185.592 111.461 185.581 111.49 185.576 111.52C185.571 111.549 185.572 111.58 185.579 111.609C185.586 111.639 185.6 111.666 185.618 111.69C185.659 111.719 185.707 111.737 185.757 111.742C185.806 111.747 185.857 111.739 185.903 111.719C186.123 111.661 186.326 111.548 186.491 111.391C186.55 111.461 186.624 111.517 186.708 111.553C186.792 111.589 186.883 111.604 186.974 111.599C187.019 111.592 187.062 111.576 187.101 111.551C187.14 111.527 187.173 111.496 187.2 111.458C187.226 111.421 187.244 111.378 187.253 111.334C187.263 111.289 187.263 111.243 187.254 111.198C187.228 111.137 187.187 111.084 187.133 111.044C187.079 111.005 187.016 110.982 186.95 110.976C186.817 110.969 186.684 110.989 186.559 111.034C186.699 110.958 186.809 110.837 186.873 110.691C186.921 110.542 186.82 110.339 186.66 110.354C186.501 110.368 186.395 110.604 186.255 110.691C186.096 110.532 186.419 110.194 186.043 110.054Z" fill="#FAFAFA"/>
<path d="M182.853 109.319C182.758 109.396 182.685 109.495 182.639 109.609C182.593 109.722 182.577 109.845 182.592 109.966C182.592 110.101 182.628 110.234 182.696 110.351C182.764 110.467 182.861 110.564 182.978 110.632C183.062 110.658 183.15 110.665 183.237 110.655C183.323 110.644 183.407 110.615 183.481 110.569C183.556 110.523 183.62 110.462 183.669 110.39C183.717 110.317 183.75 110.235 183.765 110.149C183.783 109.973 183.746 109.796 183.66 109.641C183.573 109.487 183.442 109.362 183.282 109.285C183.213 109.257 183.138 109.246 183.064 109.251C182.989 109.257 182.917 109.28 182.853 109.319Z" fill="#FAFAFA"/>
<path d="M185.111 109.027L185.194 109.099C185.16 109.053 185.117 109.015 185.067 108.987C185.018 108.959 184.963 108.942 184.906 108.936C184.85 108.931 184.792 108.937 184.738 108.956C184.684 108.974 184.635 109.003 184.593 109.041C184.551 109.08 184.518 109.127 184.495 109.179C184.473 109.231 184.461 109.288 184.462 109.345C184.463 109.401 184.475 109.458 184.499 109.509C184.523 109.561 184.557 109.607 184.6 109.645C184.685 109.717 184.795 109.752 184.906 109.744C185.017 109.736 185.12 109.685 185.194 109.601C185.309 109.658 185.44 109.677 185.567 109.653C185.694 109.63 185.81 109.566 185.898 109.471C185.973 109.369 186.005 109.241 185.987 109.116C185.969 108.99 185.903 108.877 185.802 108.8C185.746 108.773 185.684 108.76 185.622 108.763C185.56 108.765 185.499 108.783 185.446 108.814C185.392 108.846 185.347 108.89 185.315 108.943C185.283 108.996 185.264 109.057 185.261 109.119L185.165 109.012L185.111 109.027Z" fill="#FAFAFA"/>
<path d="M187.606 109.435C187.432 109.577 187.298 109.764 187.22 109.975C187.186 110.082 187.194 110.198 187.241 110.3C187.288 110.402 187.372 110.482 187.476 110.526C187.693 110.579 187.896 110.4 188.021 110.217C188.084 110.137 188.128 110.045 188.15 109.947C188.173 109.848 188.173 109.746 188.152 109.647C188.089 109.454 187.814 109.343 187.669 109.488L187.606 109.435Z" fill="#FAFAFA"/>
<path d="M184.012 108.125C183.988 108.081 183.957 108.043 183.918 108.012C183.88 107.981 183.836 107.958 183.789 107.945C183.742 107.931 183.692 107.928 183.643 107.934C183.594 107.94 183.547 107.955 183.505 107.98C183.422 108.037 183.361 108.121 183.332 108.217C183.303 108.314 183.308 108.417 183.346 108.511C183.388 108.605 183.455 108.686 183.54 108.745C183.625 108.803 183.725 108.838 183.828 108.844C184.069 108.868 184.359 108.67 184.311 108.429C184.369 108.498 184.443 108.551 184.528 108.582C184.613 108.614 184.704 108.622 184.793 108.607C184.965 108.58 185.129 108.517 185.276 108.424C185.483 108.303 185.701 108.125 185.681 107.888C185.666 107.794 185.619 107.707 185.548 107.643C185.477 107.579 185.386 107.541 185.29 107.536C185.196 107.531 185.101 107.546 185.012 107.579C184.924 107.613 184.842 107.663 184.774 107.729C184.663 107.825 184.566 107.941 184.446 108.028C184.388 108.076 184.318 108.106 184.244 108.116C184.17 108.127 184.095 108.116 184.026 108.086L184.012 108.125Z" fill="#FAFAFA"/>
<path d="M187.08 119.101H180.898L180.295 112.871H187.683L187.08 119.101Z" fill="#F0F0F0"/>
<path d="M188.166 113.192H179.755L179.605 112.362H188.316L188.166 113.192Z" fill="#FAFAFA"/>
<path d="M180.662 137.837H173.568L175.793 130.675L176.116 129.633H177.723L180.662 137.837Z" fill="#EAEAEA"/>
<path d="M176.116 129.633L175.793 130.675L173.568 137.837L167.01 137.74L164.901 130.675L164.578 129.633H176.116Z" fill="#E0E0E0"/>
<path d="M176.116 129.633L175.793 130.675L173.568 137.837L160.1 137.639L162.971 129.633H176.116Z" fill="#FAFAFA"/>
<path d="M176.116 129.633L175.793 130.675H162.6L162.971 129.633H176.116Z" fill="#EAEAEA"/>
<path d="M164.627 134.079H161.668L162.701 131.183L165.529 131.212L164.627 134.079ZM162.011 133.837H164.424L165.177 131.424L162.846 131.4L162.011 133.837Z" fill="#EAEAEA"/>
<path d="M167.937 134.079H164.979L166.006 131.183L168.839 131.212L167.937 134.079ZM165.316 133.837H167.758L168.511 131.424L166.18 131.4L165.316 133.837Z" fill="#EAEAEA"/>
<path d="M171.242 134.079H168.284L169.317 131.183L172.145 131.212L171.242 134.079ZM168.627 133.837H171.069L171.817 131.424L169.486 131.4L168.627 133.837Z" fill="#EAEAEA"/>
<path d="M174.553 134.079H171.595L172.627 131.183L175.455 131.212L174.553 134.079ZM171.937 133.837H174.389L175.142 131.424L172.811 131.4L171.937 133.837Z" fill="#EAEAEA"/>
<path d="M163.594 137.173H160.636L161.668 134.277L164.496 134.311L163.594 137.173ZM160.978 136.932H163.415L164.168 134.519H161.837L160.978 136.932Z" fill="#EAEAEA"/>
<path d="M166.903 137.173H163.945L164.978 134.277L167.806 134.311L166.903 137.173ZM164.288 136.932H166.725L167.478 134.519H165.147L164.288 136.932Z" fill="#EAEAEA"/>
<path d="M170.209 137.173H167.251L168.284 134.277L171.112 134.311L170.209 137.173ZM167.594 136.932H170.045L170.798 134.519H168.462L167.594 136.932Z" fill="#EAEAEA"/>
<path d="M173.52 137.173H170.562L171.594 134.277L174.422 134.311L173.52 137.173ZM170.904 136.932H173.341L174.094 134.519H171.763L170.904 136.932Z" fill="#EAEAEA"/>
<path d="M218.404 115.235C218.404 116.755 218.646 117.74 219.046 118.372C219.2 118.603 219.41 118.792 219.656 118.921C219.903 119.05 220.177 119.115 220.455 119.11H222.646C222.923 119.115 223.197 119.049 223.443 118.92C223.688 118.791 223.897 118.603 224.05 118.372C224.456 117.74 224.692 116.755 224.692 115.235C224.692 113.03 223.727 111.264 223.418 109.854C223.302 109.348 223.679 107.789 223.679 107.789H219.408C219.408 107.789 219.784 109.348 219.669 109.854C219.365 111.264 218.404 113.03 218.404 115.235Z" fill="#F0F0F0"/>
<path d="M222.979 97.1406C222.533 97.2647 222.135 97.5224 221.84 97.879C221.42 98.4387 222.144 99.7514 222.144 99.7514C222.344 99.9469 222.587 100.093 222.853 100.176C223.12 100.26 223.403 100.28 223.679 100.234L224.533 100.026C224.533 100.026 223.611 97.4784 222.984 97.3095L222.979 97.1406Z" fill="#EAEAEA"/>
<path d="M226.337 97.7539C226.226 98.8783 225.28 100.138 224.277 100.041C223.273 99.9447 222.602 98.5115 222.713 97.3919C222.824 96.2724 223.645 96.311 224.643 96.4268C225.642 96.5426 226.453 96.6343 226.337 97.7539Z" fill="#EAEAEA"/>
<path d="M223.515 96.8867C223.515 96.8867 224.156 97.6299 225.773 97.572C225.773 97.572 223.018 98.7398 223.515 96.8867Z" fill="#EAEAEA"/>
<path d="M224.22 96.7972C224.22 96.7972 225.117 96.7972 225.064 97.1736C225.064 97.1736 225.807 97.2701 225.764 96.9419C225.721 96.6138 224.22 96.7972 224.22 96.7972Z" fill="#EAEAEA"/>
<path d="M223.515 96.8867C223.515 96.8867 224.156 97.6299 225.773 97.572C225.773 97.572 223.018 98.7398 223.515 96.8867Z" fill="#E0E0E0"/>
<path d="M224.22 96.7972C224.22 96.7972 225.117 96.7972 225.064 97.1736C225.064 97.1736 225.807 97.2701 225.764 96.9419C225.721 96.6138 224.22 96.7972 224.22 96.7972Z" fill="#E0E0E0"/>
<path d="M222.559 100.076C222.679 100.357 222.875 100.598 223.125 100.773C223.374 100.948 223.668 101.049 223.973 101.065C224.278 101.077 224.581 101.025 224.865 100.913C225.148 100.801 225.405 100.631 225.619 100.414C226.044 99.9764 226.341 99.4306 226.478 98.8359C226.516 98.6815 226.603 98.3003 226.41 98.1989C226.217 98.0976 226.067 98.3485 225.961 98.4547C225.653 98.7603 225.314 99.0321 224.948 99.2654C224.589 99.4933 224.203 99.6764 223.799 99.8107C223.688 99.8493 222.598 100.177 222.559 100.076Z" fill="#EAEAEA"/>
<path d="M227.202 98.6727C227.251 98.9156 227.237 99.1668 227.161 99.4026C227.085 99.6383 226.949 99.8506 226.768 100.019C226.52 100.232 226.233 100.396 225.923 100.502C225.711 100.579 225.441 100.642 225.282 100.502C225.122 100.362 225.18 100.043 225.282 99.8164C225.421 99.469 225.566 99.1263 225.725 98.7837C225.838 98.4401 226.001 98.1149 226.208 97.8186C226.411 97.6159 226.613 97.8186 226.826 98.0116C227.008 98.1945 227.138 98.4227 227.202 98.6727Z" fill="#EAEAEA"/>
<path d="M222.926 99.5105C222.737 99.4639 222.566 99.3648 222.432 99.2247C222.298 99.0846 222.206 98.9092 222.168 98.719C222.115 98.4343 222.24 97.7539 222.597 97.7539C222.595 98.3549 222.707 98.9508 222.926 99.5105Z" fill="#E0E0E0"/>
<path d="M225.643 99.71C225.833 99.6914 226.016 99.6262 226.175 99.5202C226.334 99.4141 226.465 99.2705 226.555 99.1019C226.652 98.9137 226.767 97.8907 226.386 98.2574C226.261 98.3781 226.198 98.8269 226.111 98.9958C225.985 99.2521 225.828 99.4919 225.643 99.71Z" fill="#E0E0E0"/>
<path d="M224.152 100.073C224.272 100.215 224.435 100.313 224.617 100.353C224.798 100.392 224.988 100.37 225.156 100.29C225.083 100.478 224.437 100.526 224.239 100.546C223.713 100.599 223.496 100.329 223.052 100.039C223.052 100.039 223.79 100.3 224.152 100.073Z" fill="#E0E0E0"/>
<path d="M220.962 117.897L222.197 105.437L223.828 101.012L224.113 101.118L222.487 105.519L221.198 118.24L220.962 117.897Z" fill="#E6E6E6"/>
<path d="M222.477 105.414L222.207 105.549C222.012 105.128 221.851 104.692 221.724 104.246C221.488 103.362 221.14 102.512 220.687 101.717L220.942 101.558C221.409 102.374 221.769 103.247 222.014 104.154C222.137 104.585 222.292 105.006 222.477 105.414Z" fill="#E6E6E6"/>
<path d="M223.128 103.777C223.552 103.746 223.95 103.562 224.248 103.261C224.562 102.898 224.797 102.474 224.938 102.015C224.388 102.073 223.881 101.716 223.331 101.678C223.112 101.664 222.892 101.7 222.689 101.784C222.486 101.867 222.305 101.996 222.159 102.16C221.787 102.595 221.57 103.125 221.772 103.386C222.156 103.689 222.643 103.829 223.128 103.777Z" fill="#F0F0F0"/>
<path d="M218.728 102.426C218.984 102.252 219.275 102.137 219.58 102.088C219.885 102.04 220.198 102.06 220.494 102.146C220.729 102.235 220.939 102.378 221.107 102.564C221.275 102.751 221.396 102.975 221.46 103.217C221.35 103.358 221.205 103.466 221.04 103.532C220.874 103.597 220.694 103.617 220.518 103.589C220.167 103.524 219.83 103.397 219.524 103.212C219.218 103.03 218.881 102.902 218.53 102.836L218.728 102.426Z" fill="#F0F0F0"/>
<path d="M221.449 102.665C220.735 102.747 220.093 102.887 219.442 102.077C219.007 101.531 219.147 100.706 219.176 100.055C219.985 100.313 220.768 100.644 221.517 101.044C221.677 101.116 221.819 101.224 221.931 101.36C222.043 101.495 222.123 101.655 222.163 101.826C222.187 101.993 222.146 102.162 222.049 102.3C221.952 102.438 221.807 102.534 221.642 102.569L221.449 102.665Z" fill="#F0F0F0"/>
<path d="M219.403 112.362C219.055 113.167 218.89 114.039 218.921 114.915C218.921 115.079 218.988 115.267 219.109 115.296C219.229 115.325 219.326 115.19 219.365 115.04C219.395 114.881 219.405 114.719 219.393 114.558C219.393 113.221 220.117 112.092 220.257 110.789C220.296 110.417 220.199 109.249 219.982 110.108C219.804 110.895 219.669 111.609 219.403 112.362Z" fill="#FAFAFA"/>
<path d="M118.299 138.915C118.299 138.915 119.704 123.371 113.527 115.795C107.35 108.219 118.352 115.115 120.283 122.672C120.283 122.672 120.645 108.677 114.492 99.6288C108.339 90.5805 118.835 97.351 120.664 107.234C120.664 107.234 121.016 94.7548 117.937 88.1435C114.859 81.5322 119.448 85.4652 121.48 89.5912C123.511 93.7172 122.507 104.72 122.507 104.72C122.507 104.72 124.665 84.4036 128.781 85.5038C132.897 86.6041 124.365 100.777 123.685 107.702C123.685 107.702 127.41 98.0507 131.121 99.4985C134.832 100.946 125.953 102.992 123.207 117.04L122.387 123.54C122.387 123.54 125.765 114.053 128.834 116.548C131.903 119.043 121.33 125.263 120.148 139.166L118.299 138.915Z" fill="#EAEAEA"/>
<path d="M118.965 139.719C118.965 139.719 117.647 120.498 125.47 111.339C133.292 102.18 119.539 110.35 116.933 119.615C116.933 119.615 116.856 102.348 124.707 91.3651C132.559 80.3817 119.399 88.4166 116.885 100.534C116.885 100.534 116.788 85.1302 120.746 77.0664C124.703 69.0026 118.95 73.7125 116.335 78.7506C113.719 83.7887 114.67 97.3538 114.67 97.3538C114.67 97.3538 112.547 72.2166 107.465 73.4423C102.384 74.668 112.503 92.4268 113.159 100.983C113.159 100.983 108.816 88.9571 104.203 90.6461C99.5895 92.3351 110.476 95.1243 113.492 112.545L114.327 120.643C114.327 120.643 110.428 108.834 106.563 111.807C102.697 114.78 115.587 122.8 116.697 139.999L118.965 139.719Z" fill="#F0F0F0"/>
<path d="M131.122 149.301C131.122 154.576 125.403 158.856 118.348 158.856C111.293 158.856 105.569 154.576 105.569 149.301C105.569 146.922 106.728 144.755 108.648 143.086L107.138 136.691H129.553L128.062 143.086C129.963 144.77 131.122 146.922 131.122 149.301Z" fill="#EAEAEA"/>
<path d="M139.643 179.523C191.319 179.523 233.21 177.077 233.21 174.06C233.21 171.043 191.319 168.598 139.643 168.598C87.9682 168.598 46.0771 171.043 46.0771 174.06C46.0771 177.077 87.9682 179.523 139.643 179.523Z" fill="#F5F5F5"/>
<path d="M131.956 97.4778L133.162 90.519L135.532 91.2043L131.956 97.4778Z" fill="#58B368"/>
<path d="M132.752 99.7081L139.537 97.744L138.591 95.4614L132.752 99.7081Z" fill="#58B368"/>
<path d="M133.958 97.0874L137.824 89.7812L140.43 91.5909L133.958 97.0874Z" fill="#58B368"/>
<path d="M177.626 29.2813H170.595C170.302 29.2623 170.026 29.1323 169.825 28.9176C169.624 28.7029 169.512 28.4197 169.512 28.1255C169.512 27.8313 169.624 27.5481 169.825 27.3334C170.026 27.1187 170.302 26.9887 170.595 26.9697H177.626C177.92 26.9887 178.195 27.1187 178.397 27.3334C178.598 27.5481 178.71 27.8313 178.71 28.1255C178.71 28.4197 178.598 28.7029 178.397 28.9176C178.195 29.1323 177.92 29.2623 177.626 29.2813Z" fill="#58B368"/>
<g opacity="0.7">
<path opacity="0.7" d="M177.626 29.2813H170.595C170.302 29.2623 170.026 29.1323 169.825 28.9176C169.624 28.7029 169.512 28.4197 169.512 28.1255C169.512 27.8313 169.624 27.5481 169.825 27.3334C170.026 27.1187 170.302 26.9887 170.595 26.9697H177.626C177.92 26.9887 178.195 27.1187 178.397 27.3334C178.598 27.5481 178.71 27.8313 178.71 28.1255C178.71 28.4197 178.598 28.7029 178.397 28.9176C178.195 29.1323 177.92 29.2623 177.626 29.2813Z" fill="white"/>
</g>
<path d="M203.42 52.9782L176.463 102.587C176.296 102.893 176.014 103.12 175.679 103.219C175.344 103.318 174.984 103.279 174.678 103.113L128.809 78.1734C128.503 78.0061 128.275 77.7242 128.177 77.3894C128.078 77.0547 128.116 76.6945 128.283 76.3879L163.342 11.8774C163.509 11.5711 163.791 11.3437 164.126 11.2451C164.461 11.1465 164.821 11.1847 165.128 11.3514L196.012 28.145L203.42 52.9782Z" fill="#58B368"/>
<g opacity="0.2">
<path opacity="0.2" d="M203.42 52.9782L176.463 102.587C176.296 102.893 176.014 103.12 175.679 103.219C175.344 103.318 174.984 103.279 174.678 103.113L128.809 78.1734C128.503 78.0061 128.275 77.7242 128.177 77.3894C128.078 77.0547 128.116 76.6945 128.283 76.3879L163.342 11.8774C163.509 11.5711 163.791 11.3437 164.126 11.2451C164.461 11.1465 164.821 11.1847 165.128 11.3514L196.012 28.145L203.42 52.9782Z" fill="white"/>
</g>
<path d="M188.284 64.1207L154.028 45.6372L152.883 47.7607L187.139 66.2442L188.284 64.1207Z" fill="#58B368"/>
<path d="M183.606 72.7965L149.35 54.313L148.204 56.4365L182.46 74.92L183.606 72.7965Z" fill="#58B368"/>
<path d="M178.922 81.4767L144.667 62.9932L143.521 65.1166L177.777 83.6001L178.922 81.4767Z" fill="#58B368"/>
<path d="M196.075 28.1245L187.949 43.0843C187.782 43.3909 187.744 43.7511 187.842 44.0859C187.941 44.4206 188.168 44.7026 188.475 44.8698L203.391 52.9771L196.075 28.1245Z" fill="#58B368"/>
<path opacity="0.7" d="M196.075 28.1245L187.949 43.0843C187.782 43.3909 187.744 43.7511 187.842 44.0859C187.941 44.4206 188.168 44.7026 188.475 44.8698L203.391 52.9771L196.075 28.1245Z" fill="white"/>
<path d="M210.446 51.3131L183.494 100.922C183.327 101.228 183.045 101.455 182.71 101.554C182.376 101.653 182.015 101.614 181.709 101.448L135.84 76.5275C135.533 76.3611 135.305 76.0795 135.205 75.7447C135.105 75.4099 135.143 75.0492 135.309 74.742L170.368 10.2171C170.535 9.90996 170.816 9.68152 171.151 9.58197C171.486 9.48243 171.847 9.51994 172.154 9.68625L203.063 26.4798L210.446 51.3131Z" fill="#58B368"/>
<g opacity="0.5">
<path opacity="0.5" d="M210.446 51.3131L183.494 100.922C183.327 101.228 183.045 101.455 182.71 101.554C182.376 101.653 182.015 101.614 181.709 101.448L135.84 76.5275C135.533 76.3611 135.305 76.0795 135.205 75.7447C135.105 75.4099 135.143 75.0492 135.309 74.742L170.368 10.2171C170.535 9.90996 170.816 9.68152 171.151 9.58197C171.486 9.48243 171.847 9.51994 172.154 9.68625L203.063 26.4798L210.446 51.3131Z" fill="white"/>
</g>
<path d="M194.41 61.951L161.981 44.4577C161.862 44.3926 161.73 44.3518 161.595 44.3376C161.459 44.3235 161.322 44.3363 161.192 44.3753C161.061 44.4143 160.94 44.4788 160.834 44.565C160.729 44.6512 160.641 44.7574 160.577 44.8775L160.418 45.1719C160.353 45.2919 160.312 45.4237 160.298 45.5595C160.283 45.6954 160.296 45.8327 160.335 45.9637C160.374 46.0946 160.439 46.2165 160.525 46.3225C160.611 46.4284 160.718 46.5163 160.838 46.581L193.267 64.0743C193.509 64.2046 193.792 64.2335 194.056 64.1548C194.319 64.0761 194.54 63.8962 194.671 63.6545L194.83 63.3553C194.895 63.2356 194.936 63.1043 194.95 62.9687C194.965 62.8332 194.952 62.6963 194.913 62.5657C194.874 62.4352 194.809 62.3137 194.723 62.2082C194.637 62.1027 194.531 62.0153 194.41 61.951Z" fill="#58B368"/>
<path d="M189.722 70.6344L157.292 53.1362C156.788 52.8641 156.158 53.0524 155.886 53.5567L155.726 53.8539C155.454 54.3582 155.642 54.9876 156.146 55.2597L188.576 72.7579C189.08 73.03 189.71 72.8417 189.982 72.3374L190.142 72.0402C190.414 71.5359 190.226 70.9065 189.722 70.6344Z" fill="#58B368"/>
<path d="M185.041 79.3194L152.611 61.8213C152.107 61.5492 151.478 61.7374 151.206 62.2417L151.045 62.539C150.773 63.0433 150.961 63.6727 151.466 63.9448L183.895 81.4429C184.4 81.715 185.029 81.5268 185.301 81.0225L185.462 80.7252C185.734 80.2209 185.545 79.5915 185.041 79.3194Z" fill="#58B368"/>
<path d="M203.106 26.457L194.975 41.4168C194.892 41.5684 194.84 41.7349 194.822 41.9067C194.804 42.0785 194.82 42.2523 194.869 42.4178C194.918 42.5834 195 42.7376 195.109 42.8714C195.219 43.0052 195.353 43.1161 195.506 43.1975L210.422 51.3048L203.106 26.457Z" fill="#58B368"/>
<path opacity="0.7" d="M203.106 26.457L194.975 41.4168C194.892 41.5684 194.84 41.7349 194.822 41.9067C194.804 42.0785 194.82 42.2523 194.869 42.4178C194.918 42.5834 195 42.7376 195.109 42.8714C195.219 43.0052 195.353 43.1161 195.506 43.1975L210.422 51.3048L203.106 26.457Z" fill="white"/>
<path d="M201.243 3.71484L203.511 13.7862C194.922 16.1411 187.215 24.6441 181.67 32.6741C179.401 36.0086 177.576 39.6245 176.241 43.4307C176.241 43.4307 193.566 27.7615 203.116 26.8446L202.657 43.4886C202.657 43.4886 212.565 24.1856 231.795 17.14C231.814 17.1352 215.687 5.53415 201.243 3.71484Z" fill="#58B368"/>
<path d="M140.951 145.705L144.392 142.853L135.715 134.62L132.014 137.781L140.951 145.705Z" fill="#CB7A63"/>
<path d="M147.181 141.752C146.789 141.638 146.369 141.659 145.989 141.809C145.758 141.877 145.507 141.959 145.304 142.036C145.101 142.113 144.981 142.162 144.85 142.215L144.469 142.384C144.447 142.389 144.427 142.402 144.413 142.421C144.399 142.439 144.391 142.462 144.392 142.485C144.389 142.493 144.387 142.501 144.387 142.509C144.387 142.517 144.389 142.526 144.392 142.533C144.408 142.557 144.432 142.574 144.46 142.582C144.948 142.71 145.447 142.796 145.951 142.837C146.198 142.869 146.45 142.849 146.689 142.779H146.723C146.861 142.734 146.993 142.674 147.119 142.601C147.198 142.537 147.26 142.455 147.3 142.362C147.339 142.268 147.355 142.166 147.345 142.065C147.346 142.003 147.332 141.942 147.303 141.888C147.274 141.833 147.233 141.786 147.181 141.752ZM147.133 142.07C147.145 142.138 147.137 142.209 147.111 142.273C147.084 142.337 147.04 142.392 146.983 142.432C146.868 142.515 146.734 142.568 146.593 142.586C146.398 142.621 146.201 142.633 146.004 142.62C145.696 142.603 145.39 142.564 145.087 142.504L144.86 142.461C145.272 142.264 145.704 142.114 146.149 142.012C146.39 141.951 146.635 141.906 146.882 141.877C146.953 141.873 147.023 141.89 147.085 141.925C147.107 141.942 147.123 141.964 147.131 141.99C147.14 142.016 147.141 142.044 147.133 142.07Z" fill="#58B368"/>
<path d="M145.603 139.947C145.493 139.967 145.388 140.009 145.294 140.07C145.2 140.131 145.12 140.211 145.058 140.304C145.018 140.362 144.984 140.423 144.956 140.488C144.773 141.048 144.737 141.646 144.85 142.225C144.852 142.233 144.852 142.241 144.85 142.249C144.854 142.268 144.863 142.285 144.876 142.3C144.888 142.314 144.905 142.325 144.923 142.331C144.933 142.336 144.945 142.338 144.956 142.338C144.968 142.338 144.98 142.336 144.99 142.331C144.999 142.331 145.007 142.329 145.015 142.324C145.023 142.32 145.029 142.314 145.034 142.307C145.129 142.226 145.218 142.137 145.299 142.042C145.452 141.86 145.589 141.667 145.709 141.462C146.009 140.98 146.221 140.425 146.091 140.14C146.042 140.015 145.917 139.889 145.603 139.947ZM145.893 140.237C145.975 140.42 145.811 140.854 145.569 141.279C145.422 141.539 145.248 141.781 145.048 142.003C144.982 141.565 145.005 141.119 145.116 140.69C145.144 140.597 145.186 140.51 145.241 140.43C145.321 140.312 145.439 140.226 145.574 140.184H145.642C145.844 140.126 145.883 140.203 145.917 140.227L145.893 140.237Z" fill="#58B368"/>
<path d="M143.943 142.65L139.6 144.831C139.517 144.87 139.452 144.937 139.415 145.02C139.377 145.104 139.371 145.197 139.397 145.285L140.671 149.329C140.703 149.424 140.753 149.512 140.819 149.587C140.884 149.663 140.964 149.725 141.054 149.77C141.143 149.815 141.241 149.842 141.341 149.849C141.441 149.856 141.541 149.843 141.636 149.811L141.709 149.777C149.116 147.176 151.389 145.333 152.161 144.913C154.367 143.712 153.126 142.148 152.306 142.341C148.61 143.224 147.369 142.997 145.772 142.587C145.166 142.46 144.539 142.482 143.943 142.65Z" fill="#263238"/>
<path opacity="0.2" d="M135.72 134.625L140.111 138.519L136.405 141.675L132.014 137.781L135.72 134.625Z" fill="black"/>
<path d="M134.349 141.646L139.875 136.55L138.659 134.417L132.27 139.904L134.349 141.646Z" fill="#58B368"/>
<path opacity="0.5" d="M134.349 141.646L139.875 136.55L138.659 134.417L132.27 139.904L134.349 141.646Z" fill="white"/>
<path d="M137.79 135.164L137.047 135.801L135.941 136.766L135.3 137.311L133.369 138.981L132.998 139.295C132.998 139.295 125.127 134.86 120.745 131.091C117.748 128.5 117.478 127.53 117.16 127.771C112.928 130.995 100.4 142.123 93.3012 147.909C93.0696 147.938 92.8187 147.957 92.6063 147.976C88.8133 148.251 85.8503 147.836 83.5146 146.953C83.5146 143.874 86.1254 136.684 86.3425 135.989C86.3425 135.989 96.8192 125.58 113.796 116.778C113.963 116.693 114.133 116.618 114.308 116.551C114.525 116.45 114.747 116.36 114.974 116.281C115.805 115.95 116.682 115.751 117.575 115.692C118.326 115.662 119.075 115.78 119.78 116.04C120.185 116.183 120.579 116.358 120.958 116.561C121.29 116.732 121.612 116.923 121.923 117.13C122.449 117.463 122.955 117.835 123.433 118.202C124.519 119.041 132.718 129.605 137.124 134.479C137.36 134.706 137.582 134.947 137.79 135.164Z" fill="#58B368"/>
<g opacity="0.1">
<path opacity="0.1" d="M137.79 135.164L137.047 135.801L135.941 136.766L135.3 137.311L133.369 138.981L132.998 139.295C132.998 139.295 125.127 134.86 120.745 131.091C117.748 128.5 117.478 127.53 117.16 127.771C112.928 130.995 100.4 142.123 93.3012 147.909C93.0696 147.938 92.8187 147.957 92.6063 147.976C88.8133 148.251 85.8503 147.836 83.5146 146.953C83.5146 143.874 86.1254 136.684 86.3425 135.989C86.3425 135.989 96.8192 125.58 113.796 116.778C113.963 116.693 114.133 116.618 114.308 116.551C114.525 116.45 114.747 116.36 114.974 116.281C115.805 115.95 116.682 115.751 117.575 115.692C118.326 115.662 119.075 115.78 119.78 116.04C120.185 116.183 120.579 116.358 120.958 116.561C121.29 116.732 121.612 116.923 121.923 117.13C122.449 117.463 122.955 117.835 123.433 118.202C124.519 119.041 132.718 129.605 137.124 134.479C137.36 134.706 137.582 134.947 137.79 135.164Z" fill="black"/>
</g>
<path d="M81.8842 90.7227C82.5502 93.7243 83.2451 98.1109 81.1797 100.176C83.7441 104.682 86.8208 108.876 90.3486 112.675C94.8703 104.814 90.585 99.9543 90.585 99.9543C87.207 99.2304 87.2505 97.8647 87.7813 95.5098L81.8842 90.7227Z" fill="#CB7A63"/>
<path d="M79.085 100.545C79.3308 99.7338 79.8403 99.0274 80.5327 98.5378C81.2131 98.0215 88.2539 97.9443 90.0635 98.5378C91.1308 98.8759 92.0384 99.5913 92.6163 100.55L79.085 100.545Z" fill="#58B368"/>
<path d="M111.5 112.513L113.314 111.683L113.406 114.646C112.883 115.103 112.279 115.458 111.625 115.693C111.421 115.754 111.205 115.759 110.998 115.709C110.791 115.659 110.601 115.556 110.447 115.409C110.293 115.262 110.18 115.077 110.12 114.873C110.06 114.669 110.055 114.452 110.105 114.246C110.195 113.872 110.366 113.522 110.607 113.222C110.849 112.923 111.153 112.681 111.5 112.513Z" fill="#CB7A63"/>
<path d="M115.64 112.518L115.544 113.609C115.53 113.772 115.465 113.927 115.358 114.052C115.25 114.176 115.106 114.262 114.945 114.299L113.391 114.646L113.3 111.683L114.878 111.707C114.977 111.705 115.076 111.723 115.169 111.76C115.261 111.797 115.345 111.851 115.416 111.921C115.487 111.991 115.543 112.074 115.582 112.166C115.62 112.257 115.64 112.356 115.64 112.455V112.518Z" fill="#CB7A63"/>
<path d="M88.4276 120.939C91.3114 122.422 94.585 122.97 97.7944 122.508C101.655 121.856 108.411 117.972 111.34 115.752L110.375 114.304C108.927 114.618 96.9643 120.688 89.248 115.197C87.8003 114.174 82.159 109.961 80.1659 110.048C76.9279 110.192 77.2078 113.585 78.5976 114.999C80.2046 116.616 86.1933 119.839 88.4276 120.939Z" fill="#CB7A63"/>
<g opacity="0.2">
<path opacity="0.2" d="M115.544 113.61C115.532 113.773 115.468 113.928 115.361 114.051C115.254 114.175 115.11 114.26 114.95 114.295L113.406 114.648C112.883 115.104 112.279 115.459 111.625 115.695C111.533 115.725 111.437 115.741 111.34 115.743C108.406 117.973 101.689 121.852 97.7994 122.499C94.5917 122.959 91.3203 122.411 88.4375 120.931C86.2032 119.83 80.2048 116.588 78.5785 114.956C77.1887 113.542 76.9088 110.131 80.1469 110.005C82.1399 109.918 87.786 114.131 89.2289 115.154C96.593 120.39 107.798 115.111 110.091 114.339C110.088 114.303 110.088 114.268 110.091 114.233C110.174 113.86 110.339 113.511 110.573 113.21C110.814 112.911 111.119 112.67 111.466 112.505L113.266 111.68L114.834 111.704C114.933 111.703 115.032 111.721 115.124 111.758C115.215 111.795 115.299 111.85 115.369 111.92C115.44 111.989 115.496 112.072 115.534 112.163C115.572 112.255 115.592 112.353 115.592 112.452V112.519L115.544 113.61Z" fill="black"/>
<path opacity="0.2" d="M113.314 111.684L113.3 111.689V111.684H113.314Z" fill="black"/>
</g>
<path d="M98.5473 105.393C102.644 114.422 93.1425 117.004 97.4953 131.809L76.8411 132.292C76.9763 124.358 79.7993 126.062 76.0787 111.145C75.765 109.881 75.2438 106.257 76.5902 102.942C77.105 101.65 78.0515 100.578 79.2685 99.9062C80.7934 99.0858 87.5109 99.7276 90.5752 99.9351C93.8953 99.4863 97.9393 104.264 98.5473 105.393Z" fill="#58B368"/>
<path opacity="0.5" d="M98.5473 105.393C102.644 114.422 93.1425 117.004 97.4953 131.809L76.8411 132.292C76.9763 124.358 79.7993 126.062 76.0787 111.145C75.765 109.881 75.2438 106.257 76.5902 102.942C77.105 101.65 78.0515 100.578 79.2685 99.9062C80.7934 99.0858 87.5109 99.7276 90.5752 99.9351C93.8953 99.4863 97.9393 104.264 98.5473 105.393Z" fill="white"/>
<path d="M94.5998 87.4825C94.5419 87.8782 94.7011 88.2015 94.9473 88.2353C95.1934 88.2691 95.4298 87.994 95.5022 87.6128C95.5746 87.2315 95.3961 86.8986 95.1499 86.86C94.9038 86.8213 94.6529 87.1061 94.5998 87.4825Z" fill="#263238"/>
<path d="M95.0391 86.8652L96.0042 86.7349C96.0042 86.7349 95.4155 87.3815 95.0391 86.8652Z" fill="#263238"/>
<path d="M94.6624 88.0039C94.8732 88.9168 95.211 89.7957 95.6662 90.6146C95.4528 90.7252 95.2178 90.7876 94.9777 90.7977C94.7376 90.8077 94.4982 90.7649 94.2764 90.6725L94.6624 88.0039Z" fill="#A02724"/>
<path d="M95.9654 84.8281C96.0023 84.8145 96.0347 84.7912 96.0594 84.7606C96.084 84.73 96.0999 84.6933 96.1053 84.6544C96.1138 84.595 96.0989 84.5347 96.0638 84.4861C96.0287 84.4375 95.9761 84.4044 95.9171 84.3938C95.565 84.3321 95.2031 84.356 94.8621 84.4635C94.5211 84.571 94.211 84.759 93.9579 85.0115C93.9321 85.0303 93.9106 85.0543 93.8948 85.0819C93.8789 85.1096 93.8691 85.1403 93.8659 85.172C93.8627 85.2037 93.8662 85.2358 93.8762 85.266C93.8863 85.2963 93.9026 85.3241 93.9241 85.3476C93.9456 85.3712 93.9718 85.3899 94.001 85.4027C94.0302 85.4154 94.0618 85.4218 94.0937 85.4215C94.1256 85.4212 94.157 85.4142 94.186 85.4009C94.215 85.3876 94.2409 85.3684 94.2619 85.3445L94.2909 85.3107C94.4943 85.1131 94.7415 84.9665 95.0124 84.8826C95.2833 84.7988 95.5701 84.7801 95.8496 84.8281C95.8876 84.8379 95.9274 84.8379 95.9654 84.8281Z" fill="#263238"/>
<path d="M82.101 84.3559C81.7101 89.061 81.4447 91.0444 83.4474 93.7806C86.4683 97.8921 92.3412 97.3516 94.1171 92.8588C95.7337 88.81 96.1005 81.7982 91.8104 79.284C91.0818 78.8528 90.2754 78.5695 89.4372 78.4503C88.5991 78.3312 87.7456 78.3785 86.9258 78.5896C86.1059 78.8008 85.3357 79.1715 84.6594 79.6807C83.983 80.1899 83.4137 80.8275 82.9841 81.557C82.4759 82.4085 82.1735 83.3669 82.101 84.3559Z" fill="#CB7A63"/>
<path d="M94.228 92.5731C93.8696 92.265 93.5997 91.8669 93.4463 91.4198C93.4422 91.395 93.4467 91.3696 93.459 91.3477C93.4712 91.3258 93.4906 91.3086 93.5138 91.2991C93.5381 91.2932 93.5638 91.2969 93.5854 91.3095C93.607 91.3221 93.6229 91.3426 93.6297 91.3667C93.7716 91.7506 94.0013 92.096 94.3004 92.3753L94.228 92.5731Z" fill="#263238"/>
<path d="M78.7474 78.2409C76.957 80.6538 76.1415 81.3005 78.3613 87.7718C79.2541 90.3728 81.8455 93.8184 83.105 94.1321C85.3634 94.7015 87.5592 93.1187 89.253 91.5214C90.7947 90.1803 92.0856 88.5756 93.0653 86.7825C93.9726 84.9535 94.3055 82.7578 93.5479 80.8613C92.7372 78.8007 89.8755 76.9621 87.7329 76.5182C85.2235 75.9777 80.2385 76.219 78.7474 78.2409Z" fill="#263238"/>
<path d="M92.8337 87.1841C92.8337 87.1841 93.3983 88.1492 92.6841 88.8779V87.5894L92.8337 87.1841Z" fill="#263238"/>
<path d="M92.8334 87.1841C92.8334 87.1841 93.0409 88.6704 91.7959 89.2254L92.4618 87.6232L92.8334 87.1841Z" fill="#263238"/>
<path d="M84.5237 93.5864C84.5237 93.5864 83.1532 94.2089 83.3511 95.5553L84.35 94.1317L84.5237 93.5864Z" fill="#263238"/>
<path d="M84.5768 93.6211C84.5768 93.6211 83.5344 94.7021 84.2196 95.8844L84.6202 94.1905L84.5768 93.6211Z" fill="#263238"/>
<path d="M94.6962 85.2381C95.2054 84.7538 95.6556 84.2112 96.0378 83.6215C96.4287 83.0295 96.5994 82.319 96.5204 81.614C96.4232 81.1694 96.2292 80.7517 95.9523 80.3906C95.6754 80.0294 95.3224 79.7337 94.9182 79.5245C94.1111 79.1083 93.2455 78.8171 92.3509 78.6607C91.9273 78.5084 91.4618 78.5222 91.048 78.6993C90.8757 78.8265 90.7403 78.9972 90.6556 79.1939C90.5708 79.3906 90.5397 79.6062 90.5654 79.8188C90.6115 80.2471 90.7289 80.6647 90.9129 81.0542C91.5012 82.6165 91.9343 84.2329 92.2062 85.88C92.3558 86.71 92.2448 87.2649 93.0651 86.9416C93.5718 86.7534 94.2812 85.6773 94.6962 85.2381Z" fill="#263238"/>
<path d="M88.2011 87.5641C88.1511 88.6525 88.5346 89.7163 89.2676 90.5223C90.2328 91.584 91.4971 90.8891 91.8542 89.5572C92.1775 88.3701 92.0569 86.3867 90.7684 85.8172C89.4799 85.2478 88.2687 86.2371 88.2011 87.5641Z" fill="#CB7A63"/>
<path d="M142.935 147.872L146.66 144.243L139.446 135.176L134.943 137.835L142.935 147.872Z" fill="#CB7A63"/>
<path d="M150.463 143.121C150.052 142.976 149.203 143.439 148.556 143.85C148.392 143.951 148.248 144.052 148.122 144.139L148.059 144.187C147.915 144.289 147.808 144.366 147.77 144.4C147.748 144.41 147.73 144.428 147.719 144.45C147.709 144.472 147.706 144.497 147.712 144.52C147.719 144.545 147.733 144.566 147.753 144.582C147.773 144.597 147.798 144.606 147.823 144.607C148.267 144.626 148.713 144.612 149.155 144.564L149.449 144.53C149.768 144.506 150.076 144.399 150.342 144.221C150.439 144.162 150.53 144.092 150.612 144.014C150.682 143.93 150.73 143.83 150.751 143.723C150.772 143.615 150.766 143.505 150.733 143.401C150.713 143.336 150.679 143.277 150.632 143.228C150.585 143.179 150.527 143.143 150.463 143.121ZM150.492 143.468C150.515 143.539 150.52 143.614 150.506 143.687C150.491 143.76 150.458 143.827 150.409 143.883C150.208 144.078 149.952 144.206 149.676 144.25C149.349 144.325 149.017 144.368 148.682 144.38C148.527 144.38 148.367 144.38 148.199 144.38L148.363 144.26C148.4 144.229 148.438 144.202 148.479 144.178C148.998 143.812 149.569 143.527 150.173 143.333C150.247 143.312 150.326 143.312 150.4 143.333C150.426 143.345 150.449 143.364 150.465 143.388C150.481 143.412 150.49 143.439 150.492 143.468Z" fill="#58B368"/>
<path opacity="0.2" d="M139.069 134.62L142.462 138.963L137.872 141.526L134.427 137.294L139.069 134.62Z" fill="black"/>
<path d="M76.6532 130.727L76.1706 132.604C76.0982 132.749 76.2768 132.889 76.5132 132.884L97.7802 132.401C97.9685 132.401 98.118 132.3 98.1277 132.179L97.5969 130.215C97.5969 130.09 97.4424 129.984 97.2398 129.988L76.9717 130.587C76.9114 130.584 76.8512 130.595 76.796 130.619C76.7407 130.644 76.6918 130.68 76.6532 130.727Z" fill="#263238"/>
<path d="M95.5794 132.603L95.0196 132.665C94.9086 132.665 94.8169 132.632 94.8169 132.559V130.146C94.8169 130.074 94.9086 130.006 95.0148 129.997L95.5745 129.929C95.6855 129.929 95.7772 129.968 95.7772 130.04V132.453C95.7772 132.525 95.6904 132.593 95.5794 132.603Z" fill="#58B368"/>
<path d="M87.9642 132.709L87.4044 132.767C87.2982 132.767 87.2065 132.733 87.2065 132.661V130.248C87.2065 130.18 87.2982 130.113 87.4092 130.098L87.9642 130.036C88.0752 130.036 88.1669 130.069 88.1669 130.142V132.555C88.1669 132.632 88.0752 132.709 87.9642 132.709Z" fill="#58B368"/>
<path d="M87.9642 132.709L87.4044 132.767C87.2982 132.767 87.2065 132.733 87.2065 132.661V130.248C87.2065 130.18 87.2982 130.113 87.4092 130.098L87.9642 130.036C88.0752 130.036 88.1669 130.069 88.1669 130.142V132.555C88.1669 132.632 88.0752 132.709 87.9642 132.709Z" fill="#58B368"/>
<path d="M141.921 136.571L140.98 137.102L139.358 138.019L137.911 138.834L136.419 139.674L135.845 139.997L135.488 139.732C135.401 139.674 135.3 139.602 135.184 139.51C134.827 139.244 134.335 138.878 133.736 138.419C130.74 136.045 125.397 131.383 123.805 127.141C122.777 128.367 121.547 129.907 120.137 131.605C114.067 138.926 104.647 149.258 93.3159 150.604L92.621 150.677C88.8328 151 85.865 150.623 83.5245 149.769C77.642 147.612 76.0012 142.444 76.4017 138.048C76.4403 135.987 76.8409 132.319 76.8409 132.319H98.3058C101.327 128.647 107.397 122.895 113.599 119.29C113.743 119.198 113.893 119.111 114.042 119.034C114.192 118.957 114.414 118.822 114.597 118.721C116.469 117.664 118.469 116.853 120.548 116.308C120.972 116.206 121.392 116.119 121.807 116.057C122.232 115.993 122.661 115.953 123.091 115.936C126.03 115.806 128.582 116.901 130.329 119.83L141.597 136.088L141.921 136.571Z" fill="#58B368"/>
<path d="M130.339 114.264L106.625 115.244L107.32 100.153L131.034 99.1738L130.339 114.264Z" fill="#58B368"/>
<path d="M130.064 115.451L106.693 116.417C106.539 116.427 106.385 116.404 106.241 116.349C106.097 116.295 105.967 116.21 105.858 116.101C105.75 115.991 105.666 115.86 105.613 115.715C105.56 115.571 105.538 115.417 105.549 115.263L106.235 100.27C106.255 99.9428 106.395 99.6348 106.627 99.4037C106.859 99.1726 107.167 99.0343 107.494 99.015L130.865 98.0498C131.019 98.0405 131.172 98.0641 131.316 98.1189C131.459 98.1737 131.59 98.2585 131.698 98.3677C131.806 98.4768 131.89 98.6078 131.944 98.7519C131.997 98.896 132.019 99.0498 132.009 99.2032L131.319 114.197C131.3 114.524 131.162 114.832 130.931 115.063C130.699 115.295 130.391 115.433 130.064 115.451Z" fill="#263238"/>
<path d="M130.339 114.264L106.625 115.244L107.32 100.153L131.034 99.1738L130.339 114.264Z" fill="#58B368"/>
<path opacity="0.9" d="M130.339 114.264L106.625 115.244L107.32 100.153L131.034 99.1738L130.339 114.264Z" fill="white"/>
<path opacity="0.1" d="M115.736 98.6809L111.818 116.198L113.377 116.136L117.242 98.6182L115.736 98.6809Z" fill="white"/>
<path opacity="0.1" d="M118.14 98.5796L114.221 116.097L117.314 115.972L121.18 98.4541L118.14 98.5796Z" fill="white"/>
<path d="M122.642 115.64L130.537 115.418C130.672 116.335 130.281 116.678 129.78 116.692L127.256 116.755L125.567 116.794L122.946 116.866L106.688 117.349L106.558 116.205L122.642 115.64Z" fill="#58B368"/>
<path d="M122.642 115.64L130.537 115.418C130.672 116.335 130.281 116.678 129.779 116.692L127.256 116.755L125.567 116.794L122.946 116.866L102.823 117.484C102.71 117.488 102.598 117.46 102.501 117.401C102.404 117.343 102.326 117.258 102.278 117.156C102.236 117.068 102.217 116.972 102.221 116.875C102.226 116.778 102.255 116.684 102.305 116.601C102.356 116.519 102.426 116.45 102.509 116.401C102.593 116.352 102.687 116.324 102.784 116.321L122.642 115.64Z" fill="#58B368"/>
<path opacity="0.2" d="M122.642 115.64L130.537 115.418C130.672 116.335 130.281 116.678 129.779 116.692L127.256 116.755L125.567 116.794L122.946 116.866L102.823 117.484C102.71 117.488 102.598 117.46 102.501 117.401C102.404 117.343 102.326 117.258 102.278 117.156C102.236 117.068 102.217 116.972 102.221 116.875C102.226 116.778 102.255 116.684 102.305 116.601C102.356 116.519 102.426 116.45 102.509 116.401C102.593 116.352 102.687 116.324 102.784 116.321L122.642 115.64Z" fill="black"/>
<path opacity="0.2" d="M130.537 115.418L130.585 115.737C130.604 115.855 130.597 115.975 130.565 116.09C130.534 116.204 130.478 116.311 130.402 116.403C130.325 116.494 130.23 116.568 130.123 116.62C130.016 116.671 129.898 116.699 129.779 116.702L127.256 116.765L122.565 116.934L122.642 115.65L130.537 115.418Z" fill="black"/>
<path opacity="0.2" d="M89.6437 105.84C89.6437 105.84 88.529 108.113 91.7477 114.116L93.0941 116.563C93.5381 117.369 96.4721 115.723 97.3697 114.212C97.3697 114.212 91.7236 110.825 89.6437 105.84Z" fill="black"/>
<path d="M116.962 112.836L119.206 112.175L118.849 115.64C118.849 115.64 115.717 117.734 114.631 115.731L115.07 114.617C115.232 114.197 115.486 113.819 115.814 113.511C116.141 113.203 116.534 112.972 116.962 112.836Z" fill="#CB7A63"/>
<path d="M121.788 113.537L121.508 114.787C121.467 114.975 121.367 115.146 121.221 115.272C121.076 115.399 120.894 115.476 120.702 115.491L118.834 115.641L119.196 112.171L121.03 112.461C121.265 112.492 121.479 112.615 121.623 112.803C121.768 112.992 121.832 113.229 121.802 113.465L121.788 113.537Z" fill="#CB7A63"/>
<path d="M98.2581 118.712C99.8264 120.836 102.027 122.612 104.614 123.118C107.663 123.712 113.532 119.398 116.282 116.608C116.147 115.431 116.224 114.794 115.052 114.63C115.052 114.63 112.021 116.85 106.312 118.182C104.464 118.611 103.233 116.734 101.626 113.978C100.825 112.613 98.2484 106.996 97.2495 105.746C95.6763 103.738 91.2077 105.176 92.9835 110.007C93.7267 112.024 96.9793 116.966 98.2581 118.712Z" fill="#CB7A63"/>
<path d="M96.5877 102.448C99.7582 105.344 101.302 110.517 101.302 110.517L93.8949 115.034C93.8949 115.034 88.4901 107.428 89.4553 104.779C90.2177 102.723 91.6317 101.372 93.4896 101.256C94.0595 101.237 94.6274 101.333 95.1596 101.538C95.6918 101.743 96.1775 102.052 96.5877 102.448Z" fill="#58B368"/>
<path d="M79.5919 132.994H79.0321C78.9211 132.994 78.8294 132.941 78.8391 132.869L79.0466 130.456C79.0466 130.384 79.1479 130.326 79.2589 130.321H79.8187C79.9297 130.321 80.0214 130.379 80.0117 130.446L79.8042 132.859C79.7927 132.905 79.7644 132.944 79.7249 132.969C79.6854 132.994 79.6378 133.003 79.5919 132.994Z" fill="#58B368"/>
<path d="M134.929 141.025L142.148 137.415L141.531 134.848L133.298 138.602L134.929 141.025Z" fill="#58B368"/>
<path opacity="0.5" d="M134.929 141.025L142.148 137.415L141.531 134.848L133.298 138.602L134.929 141.025Z" fill="white"/>
<path d="M146.371 143.847L141.39 145.352C141.296 145.378 141.213 145.437 141.158 145.519C141.104 145.6 141.08 145.699 141.091 145.796L141.694 150.313C141.711 150.419 141.749 150.521 141.806 150.613C141.863 150.704 141.937 150.783 142.024 150.846C142.112 150.908 142.211 150.953 142.316 150.976C142.421 151 142.53 151.003 142.635 150.984H142.722C151.042 149.599 153.788 148.089 154.681 147.77C157.238 146.906 156.215 145.024 155.308 145.077C151.235 145.328 149.966 144.855 148.349 144.112C147.722 143.861 147.042 143.77 146.371 143.847Z" fill="#263238"/>
<path d="M79.4035 84.2997C77.9076 84.5362 76.4261 83.3877 75.958 81.9496C75.7649 81.2175 75.7265 80.4531 75.8453 79.7053C75.9641 78.9575 76.2375 78.2427 76.648 77.6065C77.2127 76.6413 80.914 74.3539 82.2845 76.9308C85.0159 82.0365 79.4035 84.2997 79.4035 84.2997Z" fill="#263238"/>
<path d="M130.127 104.346L115.529 104.963L115.597 103.516L130.195 102.898L130.127 104.346Z" fill="#58B368"/>
<g opacity="0.7">
<path opacity="0.7" d="M130.127 104.346L115.529 104.963L115.597 103.516L130.195 102.898L130.127 104.346Z" fill="white"/>
</g>
<path d="M130.04 106.353L115.442 106.976L115.505 105.528L130.103 104.906L130.04 106.353Z" fill="#58B368"/>
<g opacity="0.7">
<path opacity="0.7" d="M130.04 106.353L115.442 106.976L115.505 105.528L130.103 104.906L130.04 106.353Z" fill="white"/>
</g>
<path d="M129.948 108.367L115.351 108.989L115.418 107.537L130.011 106.919L129.948 108.367Z" fill="#58B368"/>
<g opacity="0.7">
<path opacity="0.7" d="M129.948 108.367L115.351 108.989L115.418 107.537L130.011 106.919L129.948 108.367Z" fill="white"/>
</g>
<path d="M129.857 110.374L115.259 110.996L115.326 109.548L129.924 108.926L129.857 110.374Z" fill="#58B368"/>
<g opacity="0.7">
<path opacity="0.7" d="M129.857 110.374L115.259 110.996L115.326 109.548L129.924 108.926L129.857 110.374Z" fill="white"/>
</g>
<path d="M129.77 112.386L115.172 113.008L115.235 111.561L129.833 110.938L129.77 112.386Z" fill="#58B368"/>
<g opacity="0.7">
<path opacity="0.7" d="M129.77 112.386L115.172 113.008L115.235 111.561L129.833 110.938L129.77 112.386Z" fill="white"/>
</g>
<path d="M109.627 105.782L108.455 105.832L108.476 106.314L109.647 106.264L109.627 105.782Z" fill="#58B368"/>
<g opacity="0.5">
<path opacity="0.5" d="M109.627 105.781L108.455 105.831L108.476 106.313L109.647 106.263L109.627 105.781Z" fill="white"/>
</g>
<path d="M109.571 107.177L108.399 107.227L108.42 107.709L109.591 107.659L109.571 107.177Z" fill="#58B368"/>
<g opacity="0.5">
<path opacity="0.5" d="M109.571 107.177L108.399 107.227L108.42 107.709L109.591 107.659L109.571 107.177Z" fill="white"/>
</g>
<path d="M109.218 108.949L108.045 108.996L108.064 109.479L109.237 109.432L109.218 108.949Z" fill="#58B368"/>
<g opacity="0.5">
<path opacity="0.5" d="M109.218 108.949L108.045 108.996L108.064 109.479L109.237 109.432L109.218 108.949Z" fill="white"/>
</g>
<path d="M109.464 109.961L108.292 110.012L108.313 110.494L109.484 110.444L109.464 109.961Z" fill="#58B368"/>
<g opacity="0.5">
<path opacity="0.5" d="M109.464 109.957L108.292 110.007L108.313 110.489L109.484 110.439L109.464 109.957Z" fill="white"/>
</g>
<path d="M109.097 111.73L107.925 111.777L107.944 112.26L109.117 112.213L109.097 111.73Z" fill="#58B368"/>
<g opacity="0.5">
<path opacity="0.5" d="M108.262 111.878L108.305 111.396L109.473 111.343L109.43 111.83L108.262 111.878Z" fill="white"/>
</g>
<path d="M109.354 112.744L108.183 112.793L108.203 113.275L109.375 113.226L109.354 112.744Z" fill="#58B368"/>
<g opacity="0.5">
<path opacity="0.5" d="M109.354 112.744L108.183 112.793L108.203 113.275L109.375 113.226L109.354 112.744Z" fill="white"/>
</g>
<path d="M110.853 104.447L108.431 105.349L108.455 104.712L109.796 104.495L108.469 104.403L108.493 103.766L110.853 104.447Z" fill="#58B368"/>
<path d="M125.644 102.144L115.529 102.574L115.578 101.57L125.692 101.141L125.644 102.144Z" fill="#58B368"/>
<g opacity="0.7">
<path opacity="0.7" d="M125.644 102.144L115.529 102.574L115.578 101.57L125.692 101.141L125.644 102.144Z" fill="white"/>
</g>
<path d="M111.997 102.663L110.515 102.73L111.114 102.349L111.278 102.499L111.456 102.344L111.997 102.663Z" fill="#58B368"/>
<path d="M111.055 102.299L110.457 102.685L110.5 101.797L111.055 102.299Z" fill="#58B368"/>
<path d="M112.093 101.774L112.045 102.609L111.5 102.291L112.093 101.774Z" fill="#58B368"/>
<path d="M111.294 102.144L111.261 102.179L111.264 102.183L111.297 102.147L111.294 102.144Z" fill="white"/>
<path d="M111.27 102.149L111.267 102.152L111.3 102.187L111.303 102.184L111.27 102.149Z" fill="white"/>
<path d="M112.093 101.688L111.456 102.267L111.278 102.426L111.114 102.271L110.559 101.77L110.515 101.731L112.093 101.688Z" fill="#58B368"/>
<path d="M109.63 101.857L108.458 101.906L108.464 102.051L109.636 102.001L109.63 101.857Z" fill="#58B368"/>
<path d="M109.63 102.22L108.458 102.27L108.465 102.415L109.636 102.365L109.63 102.22Z" fill="#58B368"/>
<path d="M109.632 102.599L108.46 102.648L108.466 102.793L109.638 102.743L109.632 102.599Z" fill="#58B368"/>
<path d="M84.3933 113.741L88.7703 163.774H81.7343L77.0244 109.934H80.2577C81.2977 109.938 82.2985 110.331 83.0636 111.036C83.8288 111.74 84.303 112.705 84.3933 113.741Z" fill="#58B368"/>
<path opacity="0.2" d="M84.4368 114.195L88.7799 163.774H81.7343L77.0244 109.934H79.804C80.9684 109.939 82.0889 110.379 82.9458 111.167C83.8028 111.955 84.3345 113.035 84.4368 114.195Z" fill="black"/>
<path d="M79.8043 113.196L84.2295 163.774H42.2456L37.9025 113.818C37.859 113.325 37.9186 112.828 38.0775 112.359C38.2365 111.89 38.4913 111.459 38.8258 111.093C39.1603 110.728 39.5671 110.436 40.0205 110.236C40.4738 110.037 40.9637 109.934 41.459 109.934H76.2912C77.1771 109.945 78.0273 110.285 78.6766 110.888C79.3258 111.49 79.7278 112.313 79.8043 113.196Z" fill="#58B368"/>
<path opacity="0.2" d="M79.8571 113.746L84.234 163.774H42.2501L37.9214 114.475C37.8706 113.898 37.9402 113.317 38.1258 112.769C38.3115 112.221 38.6091 111.717 38.9999 111.29C39.3906 110.863 39.8659 110.522 40.3955 110.288C40.9251 110.055 41.4976 109.934 42.0764 109.934H75.7021C76.7459 109.934 77.7515 110.326 78.5206 111.032C79.2898 111.738 79.7666 112.706 79.8571 113.746Z" fill="white"/>
<path d="M153.73 163.776H42.424L41.1982 149.902H148.04C149.255 149.924 150.42 150.391 151.314 151.213C152.209 152.036 152.771 153.157 152.895 154.366L153.73 163.776Z" fill="#58B368"/>
<path opacity="0.2" d="M153.73 163.776H42.424L41.1982 149.902H148.04C149.255 149.924 150.42 150.391 151.314 151.213C152.209 152.036 152.771 153.157 152.895 154.366L153.73 163.776Z" fill="white"/>
<path d="M158.835 169.089H41.1157C40.3828 169.088 39.6802 168.796 39.1619 168.278C38.6436 167.759 38.3519 167.057 38.3506 166.324C38.3506 165.59 38.6419 164.887 39.1605 164.368C39.679 163.85 40.3824 163.559 41.1157 163.559H158.835C159.568 163.559 160.271 163.85 160.79 164.368C161.309 164.887 161.6 165.59 161.6 166.324C161.599 167.057 161.307 167.759 160.789 168.278C160.27 168.796 159.568 169.088 158.835 169.089Z" fill="#58B368"/>
<path opacity="0.2" d="M158.835 169.089H90.4976C89.7642 169.089 89.0609 168.798 88.5423 168.279C88.0238 167.76 87.7324 167.057 87.7324 166.324C87.7318 165.96 87.8029 165.601 87.9416 165.265C88.0804 164.929 88.284 164.624 88.5409 164.367C88.7978 164.11 89.1029 163.907 89.4386 163.768C89.7744 163.629 90.1343 163.558 90.4976 163.559H158.835C159.568 163.559 160.272 163.85 160.79 164.368C161.309 164.887 161.6 165.59 161.6 166.324C161.599 167.057 161.307 167.759 160.789 168.278C160.27 168.796 159.568 169.088 158.835 169.089Z" fill="black"/>
<path d="M42.6611 169.086L44.0558 173.83H46.845L48.3796 169.086H42.6611Z" fill="#263238"/>
<path opacity="0.5" d="M42.6611 169.086L44.0558 173.83H46.845L48.3796 169.086H42.6611Z" fill="white"/>
<path d="M82.6318 169.086L84.0265 173.83H86.8158L88.3552 169.086H82.6318Z" fill="#263238"/>
<path opacity="0.5" d="M82.6318 169.086L84.0265 173.83H86.8158L88.3552 169.086H82.6318Z" fill="white"/>
<path d="M113.228 169.086L114.622 173.83H117.411L118.946 169.086H113.228Z" fill="#263238"/>
<path opacity="0.5" d="M113.228 169.086L114.622 173.83H117.411L118.946 169.086H113.228Z" fill="white"/>
<path d="M153.199 169.086L154.594 173.83H157.383L158.918 169.086H153.199Z" fill="#263238"/>
<path opacity="0.5" d="M153.199 169.086L154.594 173.83H157.383L158.918 169.086H153.199Z" fill="white"/>
<path d="M70.0997 108.053H67.045C66.981 108.053 66.9196 108.027 66.8744 107.982C66.8291 107.937 66.8037 107.876 66.8037 107.812C66.8037 107.748 66.8291 107.686 66.8744 107.641C66.9196 107.596 66.981 107.57 67.045 107.57H70.0997C70.1633 107.572 70.224 107.597 70.2689 107.642C70.3139 107.687 70.3397 107.748 70.341 107.812C70.341 107.876 70.3156 107.937 70.2703 107.982C70.2251 108.027 70.1637 108.053 70.0997 108.053Z" fill="#58B368"/>
<path d="M65.0133 108.053H49.7012C49.6373 108.053 49.5759 108.027 49.5306 107.982C49.4854 107.937 49.46 107.876 49.46 107.812C49.4612 107.748 49.487 107.687 49.532 107.642C49.577 107.597 49.6376 107.572 49.7012 107.57H65.0133C65.0769 107.572 65.1376 107.597 65.1826 107.642C65.2276 107.687 65.2534 107.748 65.2546 107.812C65.2546 107.876 65.2292 107.937 65.1839 107.982C65.1387 108.027 65.0773 108.053 65.0133 108.053Z" fill="#58B368"/>
<path d="M119.303 135.979C119.243 135.978 119.185 135.956 119.139 135.917C119.117 135.894 119.099 135.868 119.086 135.838C119.074 135.809 119.068 135.777 119.068 135.745C119.068 135.713 119.074 135.682 119.086 135.653C119.099 135.623 119.117 135.596 119.139 135.574L120.587 134.02C120.609 133.997 120.636 133.98 120.665 133.967C120.695 133.955 120.726 133.949 120.758 133.949C120.79 133.949 120.822 133.955 120.851 133.967C120.88 133.98 120.907 133.997 120.93 134.02C120.974 134.066 120.999 134.127 120.999 134.191C120.999 134.255 120.974 134.317 120.93 134.363L119.482 135.917C119.433 135.96 119.369 135.983 119.303 135.979Z" fill="#58B368"/>
<path d="M106.22 148.348C106.176 148.348 106.132 148.336 106.094 148.312C106.056 148.288 106.026 148.253 106.008 148.213C105.993 148.185 105.984 148.154 105.981 148.122C105.979 148.091 105.982 148.059 105.992 148.029C106.002 147.998 106.018 147.971 106.039 147.947C106.06 147.923 106.085 147.903 106.114 147.889C110.583 145.626 117.672 137.162 117.744 137.075C117.764 137.051 117.789 137.03 117.817 137.016C117.845 137.001 117.875 136.992 117.907 136.989C117.938 136.986 117.97 136.99 118 137C118.03 137.01 118.058 137.025 118.082 137.046C118.13 137.088 118.161 137.147 118.166 137.211C118.171 137.275 118.152 137.339 118.111 137.389C117.821 137.736 110.872 146.012 106.331 148.319C106.297 148.338 106.259 148.348 106.22 148.348Z" fill="#58B368"/>
</svg>
