<svg width="280" height="180" viewBox="0 0 280 180" fill="none" xmlns="http://www.w3.org/2000/svg">
<path d="M260 157.151H20V157.271H260V157.151Z" fill="#EBEBEB"/>
<path d="M235.952 164.875H220.054V164.995H235.952V164.875Z" fill="#EBEBEB"/>
<path d="M178.986 166.18H174.814V166.3H178.986V166.18Z" fill="#EBEBEB"/>
<path d="M219.574 160.42H210.363V160.54H219.574V160.42Z" fill="#EBEBEB"/>
<path d="M65.912 161.227H45.1808V161.347H65.912V161.227Z" fill="#EBEBEB"/>
<path d="M73.2271 161.227H70.1887V161.347H73.2271V161.227Z" fill="#EBEBEB"/>
<path d="M128.072 163.253H83.1055V163.373H128.072V163.253Z" fill="#EBEBEB"/>
<path d="M133.76 135.744H41.0768C40.3507 135.743 39.6548 135.453 39.1419 134.94C38.6289 134.426 38.3408 133.729 38.3408 133.003V2.7168C38.3471 1.99489 38.638 1.30463 39.1503 0.795945C39.6626 0.28726 40.3549 0.00123667 41.0768 0H133.76C134.487 0 135.184 0.288762 135.698 0.802762C136.212 1.31676 136.501 2.01389 136.501 2.7408V133.003C136.501 133.73 136.212 134.427 135.698 134.941C135.184 135.455 134.487 135.744 133.76 135.744ZM41.0768 0.0960004C40.3826 0.0972719 39.7172 0.373951 39.2267 0.865309C38.7363 1.35667 38.4608 2.02255 38.4608 2.7168V133.003C38.4608 133.697 38.7363 134.363 39.2267 134.855C39.7172 135.346 40.3826 135.623 41.0768 135.624H133.76C134.455 135.623 135.121 135.346 135.612 134.855C136.103 134.364 136.38 133.698 136.381 133.003V2.7168C136.38 2.02211 136.103 1.35624 135.612 0.865016C135.121 0.373795 134.455 0.0972692 133.76 0.0960004H41.0768Z" fill="#EBEBEB"/>
<path d="M237.589 135.744H144.901C144.174 135.743 143.478 135.454 142.964 134.94C142.45 134.426 142.161 133.73 142.16 133.003V2.7168C142.168 1.99445 142.46 1.3042 142.973 0.795645C143.486 0.287092 144.178 0.00122318 144.901 0H237.589C238.31 0.00249816 239.001 0.28908 239.512 0.797629C240.023 1.30618 240.314 1.99572 240.32 2.7168V133.003C240.32 133.728 240.033 134.424 239.521 134.938C239.009 135.452 238.314 135.741 237.589 135.744ZM144.901 0.0960004C144.206 0.0972692 143.54 0.373795 143.049 0.865016C142.558 1.35624 142.281 2.02211 142.28 2.7168V133.003C142.281 133.698 142.558 134.364 143.049 134.855C143.54 135.346 144.206 135.623 144.901 135.624H237.589C238.283 135.623 238.949 135.346 239.441 134.855C239.932 134.364 240.208 133.698 240.21 133.003V2.7168C240.208 2.02211 239.932 1.35624 239.441 0.865016C238.949 0.373795 238.283 0.0972692 237.589 0.0960004H144.901Z" fill="#EBEBEB"/>
<path d="M205.345 105.406C212.451 98.2999 212.451 86.7783 205.345 79.672C198.239 72.5657 186.717 72.5657 179.611 79.672C172.504 86.7783 172.504 98.2998 179.611 105.406C186.717 112.512 198.239 112.512 205.345 105.406Z" fill="#F0F0F0"/>
<path d="M53.936 60.4799H103.765C103.765 60.4799 103.045 56.5343 93.824 56.7599C95.6528 50.9999 90.4928 44.7119 78.8528 44.4719C67.2128 44.2319 71.3024 53.5919 71.3024 53.5919C71.3024 53.5919 51.7376 50.2319 57.656 57.2015C47.96 57.5711 46.0448 58.8095 53.936 60.4799Z" fill="#F0F0F0"/>
<path d="M183.282 85.1575C184.414 79.4887 174.728 73.2775 156.882 73.0375C139.035 72.7976 147.987 82.0471 147.987 82.0471C147.987 82.0471 117.166 78.6871 128.211 85.6039C113.514 85.9351 110.931 87.1591 123.474 88.8295H199.52C199.52 88.8295 197.283 84.9607 183.282 85.1575Z" fill="#FAFAFA"/>
<path d="M173.394 42.6861H225.023C225.023 42.6861 236.543 36.0718 222.887 35.2174C225.234 29.563 219.469 19.9726 199.314 19.7518C179.159 19.531 189.608 32.7646 189.608 32.7646C189.608 32.7646 158.888 23.9086 169.664 37.9917C164.96 37.9917 148.223 42.6861 173.394 42.6861Z" fill="#F5F5F5"/>
<path d="M65.2688 111.183H88.4673C88.4673 111.183 93.6465 108.212 87.5073 107.823C88.5633 105.284 85.9713 100.973 76.9137 100.872C67.856 100.772 72.5552 106.719 72.5552 106.719C72.5552 106.719 58.7504 102.744 63.5888 109.071C61.4816 109.076 53.9552 111.183 65.2688 111.183Z" fill="#F5F5F5"/>
<path d="M64.2224 20.6009C64.2224 20.6009 57.6752 16.4057 53.12 22.3721C56.8592 18.6665 63.968 22.4009 63.968 22.4009C63.968 22.4009 72.128 18.7049 74.816 22.4009C71.9216 16.4441 64.2224 20.6009 64.2224 20.6009Z" fill="#F0F0F0"/>
<path d="M99.3199 75.8402C99.3199 75.8402 95.3839 73.3154 92.6383 76.9058C94.8943 74.6738 99.1711 76.9058 99.1711 76.9058C99.1711 76.9058 104.067 74.6786 105.704 76.9058C103.957 73.3538 99.3199 75.8402 99.3199 75.8402Z" fill="#F0F0F0"/>
<path d="M171.09 17.347C171.09 17.347 169.122 16.0846 167.73 17.8798C168.858 16.7614 170.998 17.8798 170.998 17.8798C170.998 17.8798 173.446 16.771 174.262 17.8798C173.408 16.0942 171.09 17.347 171.09 17.347Z" fill="#F5F5F5"/>
<path d="M219.234 60.4426C219.234 60.4426 217.261 59.1802 215.874 60.9754C216.997 59.8618 219.138 60.9754 219.138 60.9754C219.138 60.9754 221.586 59.8618 222.402 60.9754C221.547 59.1898 219.234 60.4426 219.234 60.4426Z" fill="#F5F5F5"/>
<path d="M140 178.83C191.4 178.83 233.067 176.397 233.067 173.396C233.067 170.395 191.4 167.962 140 167.962C88.6003 167.962 46.9327 170.395 46.9327 173.396C46.9327 176.397 88.6003 178.83 140 178.83Z" fill="#F5F5F5"/>
<path d="M108.493 144.849C110.13 154.324 102.488 158.99 95.0528 156.638C89.9888 155.03 84.9728 156.263 81.5744 157.886C81.4404 157.946 81.29 157.959 81.1476 157.923C81.0053 157.887 80.8792 157.804 80.7899 157.687C80.7005 157.571 80.6531 157.427 80.6552 157.28C80.6573 157.134 80.7089 156.992 80.8016 156.878C81.3736 156.192 81.9842 155.54 82.6304 154.924C82.7365 154.824 82.8054 154.691 82.8257 154.546C82.8461 154.402 82.8167 154.255 82.7425 154.129C82.6683 154.004 82.5536 153.907 82.4172 153.855C82.2808 153.804 82.1309 153.8 81.992 153.844C79.0352 154.747 74.6768 155.591 70.472 154.603C70.3456 154.574 70.2308 154.507 70.1426 154.412C70.0543 154.317 69.9966 154.198 69.977 154.069C69.9573 153.941 69.9766 153.81 70.0323 153.693C70.0881 153.576 70.1777 153.478 70.2896 153.412C74.4896 150.926 80.8976 144.393 86.9024 142.271C87.0495 142.219 87.1728 142.116 87.2497 141.98C87.3265 141.844 87.3518 141.685 87.3209 141.532C87.2899 141.379 87.2048 141.243 87.0812 141.147C86.9576 141.052 86.8038 141.005 86.648 141.014C85.7007 141.068 84.7579 141.183 83.8256 141.359C83.6739 141.397 83.5137 141.379 83.3744 141.308C83.2352 141.237 83.1263 141.118 83.0678 140.973C83.0093 140.828 83.0053 140.667 83.0563 140.519C83.1074 140.371 83.2101 140.247 83.3456 140.169C91.7648 134.942 106.4 132.748 108.493 144.849Z" fill="#58B368"/>
<path opacity="0.7" d="M108.493 144.849C110.13 154.324 102.488 158.99 95.0528 156.638C89.9888 155.03 84.9728 156.263 81.5744 157.886C81.4404 157.946 81.29 157.959 81.1476 157.923C81.0053 157.887 80.8792 157.804 80.7899 157.687C80.7005 157.571 80.6531 157.427 80.6552 157.28C80.6573 157.134 80.7089 156.992 80.8016 156.878C81.3736 156.192 81.9842 155.54 82.6304 154.924C82.7365 154.824 82.8054 154.691 82.8257 154.546C82.8461 154.402 82.8167 154.255 82.7425 154.129C82.6683 154.004 82.5536 153.907 82.4172 153.855C82.2808 153.804 82.1309 153.8 81.992 153.844C79.0352 154.747 74.6768 155.591 70.472 154.603C70.3456 154.574 70.2308 154.507 70.1426 154.412C70.0543 154.317 69.9966 154.198 69.977 154.069C69.9573 153.941 69.9766 153.81 70.0323 153.693C70.0881 153.576 70.1777 153.478 70.2896 153.412C74.4896 150.926 80.8976 144.393 86.9024 142.271C87.0495 142.219 87.1728 142.116 87.2497 141.98C87.3265 141.844 87.3518 141.685 87.3209 141.532C87.2899 141.379 87.2048 141.243 87.0812 141.147C86.9576 141.052 86.8038 141.005 86.648 141.014C85.7007 141.068 84.7579 141.183 83.8256 141.359C83.6739 141.397 83.5137 141.379 83.3744 141.308C83.2352 141.237 83.1263 141.118 83.0678 140.973C83.0093 140.828 83.0053 140.667 83.0563 140.519C83.1074 140.371 83.2101 140.247 83.3456 140.169C91.7648 134.942 106.4 132.748 108.493 144.849Z" fill="white"/>
<path d="M98.1634 158.678L94.9474 133.92C94.931 133.787 94.9441 133.651 94.9856 133.524C95.0271 133.397 95.096 133.28 95.1875 133.182C95.2791 133.084 95.391 133.007 95.5153 132.957C95.6397 132.907 95.7735 132.885 95.9074 132.892L111.507 134.006C111.717 134.021 111.916 134.108 112.069 134.252C112.222 134.396 112.32 134.589 112.347 134.798L114.747 153.417C114.769 153.623 114.72 153.83 114.609 154.005C114.497 154.179 114.329 154.311 114.133 154.377L99.3346 159.432C99.2078 159.47 99.0741 159.481 98.9428 159.463C98.8115 159.445 98.6857 159.398 98.5742 159.326C98.4627 159.255 98.3682 159.16 98.2972 159.048C98.2263 158.936 98.1806 158.809 98.1634 158.678Z" fill="black"/>
<path d="M95.0578 154.031L93.1378 139.18C93.1216 139.053 93.1324 138.924 93.1694 138.801C93.2064 138.678 93.2688 138.565 93.3526 138.468C93.4363 138.371 93.5396 138.293 93.6556 138.238C93.7716 138.184 93.8977 138.155 94.0258 138.152L111.939 137.816C112.164 137.812 112.383 137.891 112.553 138.038C112.723 138.185 112.833 138.39 112.861 138.613L114.301 149.552C114.329 149.775 114.274 150.001 114.146 150.185C114.019 150.37 113.828 150.502 113.61 150.556L96.205 154.799C96.0787 154.833 95.9467 154.839 95.8177 154.818C95.6887 154.797 95.5657 154.748 95.4571 154.675C95.3484 154.603 95.2566 154.507 95.1877 154.396C95.1188 154.285 95.0746 154.161 95.0578 154.031Z" fill="#454D66"/>
<path d="M173.161 151.373L163.802 152.914L163.882 153.397L173.24 151.856L173.161 151.373Z" fill="#58B368"/>
<path d="M161.368 153.316L158.616 153.769L158.696 154.252L161.448 153.799L161.368 153.316Z" fill="#58B368"/>
<path d="M200.878 132.763C200.878 132.763 187.971 120.671 169.482 123.067L111.243 128.572C110.175 128.673 109.139 128.988 108.195 129.497C107.252 130.007 106.42 130.702 105.751 131.54C105.082 132.378 104.588 133.343 104.3 134.376C104.011 135.409 103.934 136.489 104.072 137.553L106.05 152.817C106.187 153.881 106.538 154.906 107.08 155.831C107.623 156.757 108.346 157.563 109.207 158.203C110.068 158.842 111.049 159.302 112.092 159.555C113.134 159.807 114.217 159.847 115.275 159.671L172.995 150.143C191.48 147.748 200.878 132.763 200.878 132.763Z" fill="#58B368"/>
<path d="M170.017 138.498C170.261 133.026 166.024 128.392 160.553 128.148C155.081 127.903 150.447 132.14 150.203 137.612C149.958 143.083 154.195 147.717 159.667 147.961C165.138 148.206 169.772 143.969 170.017 138.498Z" fill="white"/>
<path opacity="0.3" d="M166.784 138.586C166.658 140.116 166.012 141.556 164.954 142.668C163.895 143.779 162.488 144.495 160.966 144.696C160.87 144.696 160.77 144.72 160.669 144.725C160.244 144.766 159.817 144.766 159.392 144.725C159.243 144.725 159.09 144.691 158.946 144.667L158.624 144.605C157.287 144.298 156.076 143.59 155.154 142.575C154.232 141.56 153.642 140.287 153.464 138.927C153.425 138.608 153.407 138.287 153.411 137.967C153.496 136.313 154.189 134.748 155.357 133.573C156.525 132.399 158.085 131.697 159.739 131.602C161.392 131.508 163.022 132.027 164.317 133.061C165.611 134.095 166.477 135.57 166.75 137.203C166.811 137.662 166.822 138.125 166.784 138.586Z" fill="#58B368"/>
<path opacity="0.3" d="M166.784 138.586C166.658 140.115 166.012 141.556 164.954 142.668C163.895 143.779 162.488 144.495 160.966 144.696C160.87 144.696 160.77 144.72 160.669 144.725C160.244 144.763 159.817 144.763 159.392 144.725C159.243 144.725 159.09 144.691 158.946 144.667L158.624 144.605C157.287 144.298 156.076 143.589 155.154 142.574C154.232 141.559 153.642 140.286 153.464 138.926C153.425 138.608 153.407 138.287 153.411 137.966C153.565 136.491 154.226 135.114 155.282 134.071C156.338 133.029 157.723 132.385 159.2 132.25C162.872 131.813 166.237 134.246 166.726 137.683C166.767 137.982 166.786 138.284 166.784 138.586Z" fill="#58B368"/>
<path d="M146.178 123.062L149.178 122.765L149.6 115.91L146.6 116.208L146.178 123.062Z" fill="#CF7A64"/>
<path d="M128.955 124.844L131.907 124.552L132.536 117.577L129.584 117.87L128.955 124.844Z" fill="#CF7A64"/>
<path d="M132.075 123.888L128.753 124.22C128.696 124.226 128.642 124.252 128.601 124.293C128.56 124.334 128.534 124.387 128.528 124.445L128.273 127.124C128.268 127.188 128.277 127.253 128.3 127.313C128.322 127.374 128.357 127.429 128.403 127.474C128.448 127.52 128.503 127.555 128.564 127.577C128.624 127.6 128.689 127.609 128.753 127.604C129.91 127.469 130.462 127.344 131.921 127.2C132.819 127.109 134.024 127.028 135.281 126.903C136.539 126.778 136.534 125.54 136.011 125.463C133.673 125.194 133.385 124.58 132.574 123.999C132.426 123.903 132.249 123.864 132.075 123.888Z" fill="#454D66"/>
<path d="M149.264 122.146L146.039 122.473C145.98 122.477 145.925 122.502 145.884 122.544C145.843 122.585 145.817 122.64 145.813 122.698L145.559 125.377C145.553 125.441 145.561 125.506 145.583 125.567C145.605 125.628 145.64 125.683 145.686 125.729C145.732 125.775 145.787 125.81 145.848 125.832C145.909 125.854 145.974 125.863 146.039 125.857C147.2 125.722 148.871 125.482 150.335 125.338C152.048 125.165 152.058 125.257 154.064 125.055C155.274 124.93 155.456 123.673 154.938 123.615C152.562 123.341 152.149 123.332 149.994 122.305C149.769 122.189 149.517 122.134 149.264 122.146Z" fill="#454D66"/>
<path d="M137.759 26.851C138.507 26.9182 139.352 26.9998 140.159 27.0382C140.965 27.0766 141.771 27.1054 142.559 27.1054C143.317 27.1035 144.075 27.0587 144.829 26.971C145.427 26.9089 146.013 26.7584 146.567 26.5246L145.683 27.8782C145.683 28.0366 145.717 28.0366 145.683 27.9406C145.643 27.7934 145.585 27.6516 145.511 27.5182C145.286 27.1087 145.02 26.7228 144.719 26.3662C144.027 25.5382 143.285 24.7542 142.496 24.019C141.69 23.2462 140.84 22.4974 139.981 21.7534C139.122 21.0094 138.229 20.2702 137.365 19.555L138.517 17.7598C139.587 18.307 140.595 18.9022 141.613 19.5214C142.631 20.1406 143.61 20.8126 144.579 21.5326C145.581 22.2606 146.526 23.0629 147.407 23.9326C147.895 24.4265 148.337 24.9648 148.727 25.5406C148.966 25.8955 149.162 26.2773 149.312 26.6782C149.529 27.24 149.605 27.8466 149.533 28.4446L149.427 29.2894L148.64 29.8126C147.692 30.4158 146.636 30.8283 145.53 31.027C144.581 31.2215 143.618 31.3403 142.65 31.3822C141.719 31.435 140.802 31.4254 139.895 31.3822C138.987 31.339 138.109 31.2718 137.149 31.1278L137.759 26.851Z" fill="#CE7A63"/>
<path d="M139.52 18.7204L137.754 16.5076L136.429 19.6804C136.429 19.6804 138.032 21.5668 139.731 20.6404L139.52 18.7204Z" fill="#CF7A64"/>
<path d="M135.411 15.3459L135.114 18.9459L136.429 19.6563L137.749 16.4979L135.411 15.3459Z" fill="#CF7A64"/>
<path d="M133.247 15.8075L135.935 14.6939C135.978 14.6712 136.026 14.6582 136.075 14.6557C136.124 14.6532 136.173 14.6614 136.219 14.6796C136.264 14.6979 136.305 14.7257 136.339 14.7613C136.373 14.7969 136.399 14.8394 136.415 14.8859L138.147 20.4107C138.168 20.5078 138.154 20.6092 138.108 20.697C138.061 20.7848 137.985 20.8533 137.893 20.8907L135.205 22.0043C135.161 22.0269 135.114 22.04 135.065 22.0424C135.016 22.0449 134.967 22.0367 134.921 22.0185C134.875 22.0002 134.834 21.9724 134.8 21.9368C134.767 21.9012 134.741 21.8587 134.725 21.8123L132.992 16.3211C132.962 16.2191 132.972 16.1097 133.019 16.0145C133.066 15.9193 133.147 15.8454 133.247 15.8075Z" fill="#454D66"/>
<path d="M134.831 32.1225C136.784 34.4841 144.791 32.2713 144.791 32.2713L144.114 26.8809C144.114 26.8809 142.093 26.2761 138.085 26.1513C133.976 26.0025 132.69 29.5353 134.831 32.1225Z" fill="#58B368"/>
<path opacity="0.2" d="M149.6 115.916L149.379 119.448L146.384 119.746L146.6 116.213L149.6 115.916Z" fill="black"/>
<path opacity="0.2" d="M129.579 117.875L132.536 117.577L132.21 121.172L129.258 121.47L129.579 117.875Z" fill="black"/>
<path d="M140.984 27.6336C142.146 30.648 144.997 39.6336 144.003 53.1984L128.202 54.7872C127.789 52.3872 127.722 39.192 123.939 28.0224C125.648 27.5127 127.387 27.1135 129.147 26.8272C131.372 26.4721 133.616 26.2461 135.867 26.1504C137.017 26.1488 138.167 26.2145 139.309 26.3472C139.679 26.3878 140.031 26.5293 140.326 26.7561C140.622 26.9829 140.849 27.2864 140.984 27.6336Z" fill="#58B368"/>
<path opacity="0.2" d="M134.912 30.0959L134.293 30.1775C134.355 35.4575 134.432 36.8975 129.666 41.8319C128.805 42.7077 128.024 43.6587 127.333 44.6735C127.395 45.2975 127.458 45.9023 127.515 46.4879C128.749 45.3599 130.395 43.8815 131.624 42.8543C137.168 38.2271 135.07 30.0287 134.912 30.0959Z" fill="black"/>
<path opacity="0.2" d="M127.726 30.4952C128.206 32.3432 128.206 36.8936 127.054 42.26C126.523 37.8137 125.602 33.4225 124.304 29.1368C125.326 28.9016 127.256 28.7624 127.726 30.4952Z" fill="black"/>
<path d="M129.239 20.4725C129.935 22.5845 130.482 25.2341 129.147 26.8277C129.147 26.8277 130.29 28.9253 134.307 28.5221C137.975 28.1525 135.867 26.1509 135.867 26.1509C133.381 25.8197 133.136 22.8341 133.347 21.1157L129.239 20.4725Z" fill="#CF7A64"/>
<path d="M134.48 28.3214L135.44 29.195C135.474 29.2254 135.499 29.2639 135.513 29.3067C135.527 29.3496 135.53 29.3954 135.522 29.4398L135.325 30.3182C135.315 30.3666 135.291 30.4107 135.254 30.4443C135.218 30.4779 135.172 30.4993 135.123 30.5054L134.187 30.6446C134.144 30.6512 134.1 30.6468 134.059 30.6317C134.017 30.6166 133.981 30.5913 133.952 30.5582L133.309 29.7902C133.274 29.7455 133.255 29.6907 133.255 29.6342C133.255 29.5777 133.274 29.5228 133.309 29.4782L134.111 28.355C134.132 28.3275 134.159 28.3048 134.189 28.2882C134.22 28.2715 134.253 28.2613 134.288 28.2581C134.323 28.255 134.358 28.259 134.391 28.2698C134.424 28.2807 134.454 28.2983 134.48 28.3214Z" fill="#454D66"/>
<path d="M134.182 28.2919C133.78 29.3401 133.249 30.3348 132.603 31.2535C132.603 31.2535 128.701 29.4775 128.466 26.9335C128.461 26.8871 128.469 26.8404 128.487 26.7976C128.506 26.7549 128.535 26.7174 128.571 26.6887C128.72 26.5735 128.989 26.3623 129.243 26.1511C129.273 26.1241 129.308 26.1041 129.346 26.0925C129.385 26.0809 129.425 26.078 129.465 26.084C129.504 26.0899 129.542 26.1047 129.575 26.1271C129.608 26.1495 129.636 26.179 129.656 26.2135C129.968 26.7655 130.976 27.8407 134.182 28.2919Z" fill="white"/>
<path d="M134.322 28.2625C135.138 28.8782 135.819 29.6541 136.324 30.5425C136.696 29.8925 136.921 29.1681 136.98 28.4212C137.04 27.6744 136.934 26.9235 136.669 26.2225C136.652 26.1811 136.626 26.1441 136.593 26.1142C136.56 26.0843 136.52 26.0622 136.477 26.0497C136.309 26.0065 135.997 25.9297 135.676 25.8673C135.633 25.8603 135.589 25.8633 135.548 25.8761C135.507 25.8888 135.469 25.9109 135.438 25.9407C135.407 25.9705 135.383 26.0071 135.368 26.0477C135.354 26.0883 135.349 26.1317 135.354 26.1745C135.434 26.5876 135.377 27.0156 135.191 27.3929C135.004 27.7701 134.699 28.0757 134.322 28.2625Z" fill="white"/>
<path d="M134.883 30.0642C135.037 29.997 136.592 37.341 131.226 41.8002C129.037 43.6194 125.519 46.869 125.523 46.8642C125.85 45.573 126.877 43.581 129.455 40.9698C134.115 36.2514 134.111 34.9698 134.303 30.1698L134.883 30.0642Z" fill="#454D66"/>
<path opacity="0.2" d="M133.347 21.1214C133.176 22.3223 133.342 23.5472 133.827 24.659C133.446 24.6414 133.069 24.567 132.709 24.4382C131.269 23.9582 130.477 22.9982 129.589 21.5582C129.488 21.179 129.378 20.8142 129.263 20.459L133.347 21.1214Z" fill="black"/>
<path d="M131.73 13.9206C132.301 9.40382 135.622 14.1846 134.701 16.431C134.134 17.8038 131.59 15.0102 131.73 13.9206Z" fill="#454D66"/>
<path d="M127.16 18.0208C128.298 20.7664 128.826 22.432 130.727 23.4112C133.583 24.8944 136.563 22.4944 136.256 19.48C135.983 16.768 134.168 12.7312 131.067 12.5008C130.387 12.4443 129.703 12.5663 129.084 12.8547C128.465 13.1431 127.932 13.5879 127.538 14.1453C127.143 14.7026 126.901 15.3533 126.835 16.0329C126.769 16.7125 126.881 17.3977 127.16 18.0208Z" fill="#CF7A64"/>
<path d="M128.442 20.6744C128.804 20.6109 129.141 20.4446 129.411 20.1952C129.682 19.9459 129.875 19.6241 129.968 19.268C129.149 18.9391 128.439 18.387 127.919 17.6744C127.919 17.6744 129.138 15.9224 129.008 14.9096C130.573 14.9096 134.24 13.3976 133.41 11.7272C132.579 10.0568 129.287 9.22642 127.367 10.4072C126.156 11.232 124.722 11.6659 123.258 11.6504C123.694 11.9092 124.169 12.0971 124.664 12.2072C124.124 12.7358 123.7 13.3722 123.421 14.0751C123.143 14.778 123.015 15.5317 123.047 16.2872C123.138 18.4328 121.971 19.2968 121.971 19.2968C121.971 19.2968 123.411 19.5128 123.853 18.8792C123.656 19.58 124.842 22.0376 127.448 22.3784C130.367 22.7576 128.442 20.6744 128.442 20.6744Z" fill="#454D66"/>
<path d="M127.246 21.99C128.326 22.47 129.166 22.6332 129.723 22.3068C130.28 21.9804 130.122 20.8668 129.411 20.2284C128.773 19.6668 127.515 19.134 126.786 19.7484C126.056 20.3628 126.133 21.4812 127.246 21.99Z" fill="#CF7A64"/>
<path d="M144.004 53.1992C144.004 53.1992 150.8 75.548 151.28 84.0008C151.808 93.2504 150.474 117.831 150.474 117.831L145.132 118.374C145.132 118.374 144.133 94.9688 142.78 85.916C141.311 76.0904 133.933 54.236 133.933 54.236L144.004 53.1992Z" fill="#454D66"/>
<path opacity="0.2" d="M139.323 63.7355L138.483 68.6411C139.659 72.6107 140.835 76.8395 141.695 80.5115C141.951 74.8208 141.147 69.132 139.323 63.7355Z" fill="black"/>
<path d="M144.69 117.04L144.863 119.013L150.839 118.413L151.011 116.181L144.69 117.04Z" fill="#58B368"/>
<path d="M138.397 53.7598C138.397 53.7598 140.61 73.7422 139.837 82.3678C138.978 91.8094 133.511 120.053 133.511 120.053L128.101 120.595C128.101 120.595 131.077 93.3598 131.077 84.115C131.077 74.059 128.197 54.8062 128.197 54.8062L138.397 53.7598Z" fill="#454D66"/>
<path d="M127.914 118.868L127.837 120.725L133.784 120.125L134.389 118.023L127.914 118.868Z" fill="#58B368"/>
<path d="M131.639 17.4346C131.715 17.665 131.903 17.809 132.047 17.761C132.191 17.713 132.253 17.4874 132.171 17.281C132.09 17.0746 131.912 16.9066 131.763 16.9546C131.615 17.0026 131.557 17.2042 131.639 17.4346Z" fill="#454D66"/>
<path d="M134.192 16.6044C134.269 16.8348 134.456 16.9788 134.6 16.9308C134.744 16.8828 134.806 16.6572 134.725 16.4508C134.643 16.2444 134.466 16.0764 134.317 16.1244C134.168 16.1724 134.115 16.3788 134.192 16.6044Z" fill="#454D66"/>
<path d="M133.419 16.9827C133.93 17.5908 134.519 18.1283 135.171 18.5811C135.056 18.7433 134.905 18.8774 134.73 18.9738C134.556 19.0701 134.362 19.1262 134.163 19.1379L133.419 16.9827Z" fill="#BA4D3C"/>
<path d="M133.597 20.0746C133.614 20.0672 133.627 20.0537 133.634 20.0367C133.641 20.0197 133.642 20.0007 133.635 19.9834C133.628 19.9664 133.615 19.9527 133.598 19.9448C133.581 19.9368 133.562 19.9352 133.544 19.9402C133.265 20.0454 132.965 20.0841 132.669 20.0532C132.372 20.0224 132.087 19.9229 131.835 19.7626C131.822 19.7495 131.804 19.7421 131.785 19.7421C131.766 19.7421 131.748 19.7495 131.735 19.7626C131.722 19.7766 131.716 19.7945 131.716 19.813C131.716 19.8316 131.722 19.8495 131.735 19.8634C132.005 20.0468 132.315 20.1619 132.64 20.1986C132.964 20.2354 133.293 20.1929 133.597 20.0746Z" fill="#454D66"/>
<path d="M130.582 16.8533C130.603 16.8464 130.621 16.8351 130.636 16.8201C130.651 16.8051 130.662 16.787 130.669 16.7669C130.717 16.5991 130.805 16.4454 130.925 16.3191C131.045 16.1929 131.195 16.0978 131.36 16.0421C131.378 16.0378 131.395 16.0297 131.41 16.0184C131.425 16.0072 131.437 15.993 131.446 15.9768C131.455 15.9605 131.461 15.9426 131.462 15.9241C131.464 15.9056 131.462 15.887 131.456 15.8693C131.446 15.8334 131.422 15.8028 131.39 15.784C131.358 15.7652 131.32 15.7597 131.283 15.7685C131.074 15.8355 130.884 15.9527 130.73 16.11C130.576 16.2673 130.463 16.4599 130.4 16.6709C130.392 16.6963 130.39 16.7236 130.396 16.7497C130.403 16.7758 130.416 16.7997 130.435 16.8187C130.454 16.8376 130.478 16.8509 130.504 16.857C130.53 16.8632 130.557 16.8619 130.582 16.8533Z" fill="#454D66"/>
<path d="M135.022 15.3178C135.043 15.3095 135.061 15.2963 135.075 15.2794C135.1 15.2527 135.114 15.2175 135.114 15.181C135.114 15.1444 135.1 15.1093 135.075 15.0826C134.912 14.9288 134.715 14.8152 134.5 14.7511C134.285 14.6869 134.058 14.6739 133.837 14.713C133.819 14.718 133.803 14.7264 133.788 14.7378C133.774 14.7492 133.762 14.7633 133.753 14.7794C133.744 14.7955 133.738 14.8131 133.736 14.8314C133.734 14.8497 133.736 14.8681 133.741 14.8858C133.745 14.9039 133.753 14.921 133.765 14.9359C133.776 14.9509 133.79 14.9634 133.806 14.9728C133.822 14.9822 133.84 14.9883 133.858 14.9906C133.877 14.993 133.896 14.9916 133.914 14.9866C134.086 14.96 134.262 14.9734 134.429 15.0258C134.595 15.0783 134.748 15.1683 134.874 15.289C134.893 15.3071 134.918 15.3195 134.944 15.3246C134.97 15.3296 134.997 15.3273 135.022 15.3178Z" fill="#454D66"/>
<path d="M122.058 32.8955L126.08 34.5227C126.08 34.5227 122.768 44.3723 123.483 45.7067C124.443 47.5211 127.04 50.4155 128.581 52.3403C128.44 53.0651 128.108 53.7393 127.621 54.2939C124.386 52.7579 119.288 47.9339 119.024 46.0859C118.443 41.8715 122.058 32.8955 122.058 32.8955Z" fill="#CF7A64"/>
<path d="M123.939 28.0241C120.651 29.0897 120.19 36.4001 120.19 36.4001L125.278 39.0113C126.741 37.27 127.791 35.2205 128.35 33.0161C129.238 29.3057 126.829 27.0881 123.939 28.0241Z" fill="#58B368"/>
<path d="M133.117 124.321C133.318 124.318 133.512 124.245 133.664 124.114C133.712 124.064 133.746 124.002 133.764 123.935C133.781 123.868 133.782 123.797 133.765 123.73C133.759 123.69 133.743 123.652 133.718 123.619C133.692 123.587 133.659 123.563 133.621 123.548C133.275 123.413 132.392 124.09 132.291 124.167C132.285 124.179 132.281 124.192 132.281 124.205C132.281 124.219 132.285 124.232 132.291 124.244C132.295 124.257 132.302 124.269 132.312 124.277C132.323 124.286 132.336 124.291 132.349 124.292C132.603 124.332 132.861 124.342 133.117 124.321ZM133.477 123.668C133.509 123.66 133.541 123.66 133.573 123.668C133.588 123.675 133.601 123.685 133.61 123.699C133.619 123.712 133.625 123.728 133.626 123.745C133.638 123.79 133.639 123.838 133.628 123.884C133.617 123.93 133.595 123.973 133.563 124.009C133.249 124.191 132.877 124.248 132.522 124.167C132.803 123.933 133.128 123.757 133.477 123.649V123.668Z" fill="#58B368"/>
<path d="M132.344 124.278C132.344 124.278 132.344 124.278 132.378 124.278C132.666 124.081 133.175 123.376 133.069 123.054C133.052 123.004 133.019 122.961 132.974 122.933C132.93 122.904 132.877 122.891 132.824 122.896C132.771 122.894 132.717 122.904 132.667 122.924C132.618 122.945 132.573 122.976 132.536 123.016C132.229 123.328 132.268 124.187 132.268 124.221C132.267 124.234 132.27 124.247 132.277 124.258C132.283 124.269 132.294 124.278 132.306 124.283L132.344 124.278ZM132.791 123.021H132.824C132.916 123.021 132.93 123.064 132.935 123.078C132.997 123.27 132.68 123.798 132.407 124.038C132.384 123.702 132.466 123.366 132.642 123.078C132.686 123.04 132.742 123.02 132.8 123.021H132.791Z" fill="#58B368"/>
<path d="M150.56 122.541C150.813 122.54 151.058 122.45 151.251 122.286C151.295 122.241 151.327 122.184 151.343 122.123C151.359 122.062 151.359 121.997 151.343 121.936C151.335 121.897 151.319 121.861 151.295 121.83C151.271 121.799 151.239 121.775 151.203 121.758C150.819 121.595 149.706 122.315 149.581 122.397C149.57 122.406 149.561 122.418 149.556 122.431C149.551 122.445 149.55 122.459 149.552 122.474C149.556 122.488 149.564 122.5 149.575 122.51C149.586 122.519 149.6 122.525 149.615 122.526C149.929 122.561 150.245 122.565 150.56 122.541ZM151.016 121.874C151.06 121.863 151.107 121.863 151.151 121.874C151.165 121.88 151.178 121.89 151.187 121.902C151.196 121.915 151.202 121.93 151.203 121.946C151.214 121.986 151.215 122.028 151.204 122.068C151.194 122.109 151.174 122.146 151.146 122.176C150.987 122.358 150.503 122.43 149.835 122.392C150.204 122.151 150.612 121.976 151.04 121.874H151.016Z" fill="#58B368"/>
<path d="M149.629 122.526H149.658C149.994 122.334 150.618 121.623 150.526 121.297C150.502 121.22 150.435 121.129 150.238 121.129C150.169 121.127 150.1 121.14 150.036 121.168C149.972 121.195 149.915 121.236 149.869 121.287C149.637 121.636 149.526 122.051 149.552 122.468C149.552 122.48 149.555 122.491 149.561 122.501C149.567 122.512 149.575 122.52 149.586 122.526C149.592 122.529 149.6 122.531 149.607 122.531C149.615 122.531 149.622 122.529 149.629 122.526ZM150.2 121.259H150.243C150.373 121.259 150.387 121.307 150.392 121.321C150.45 121.518 150.032 122.07 149.691 122.324C149.682 121.983 149.779 121.647 149.97 121.364C150.032 121.304 150.113 121.266 150.2 121.259Z" fill="#58B368"/>
<path d="M127.856 51.9282L130.683 52.0242L128.96 54.9714C128.96 54.9714 126.488 54.8034 126.239 52.8738L127.856 51.9282Z" fill="#CF7A64"/>
<path d="M132.008 53.0067L130.294 55.5987L128.936 54.9699L130.683 52.0227L132.008 53.0067Z" fill="#CF7A64"/>
</svg>
