<svg width="220" height="165" viewBox="0 0 220 165" fill="none" xmlns="http://www.w3.org/2000/svg">
<g clip-path="url(#clip0_1:6251)">
<path d="M110 164.367C157.116 164.367 195.312 162.137 195.312 159.386C195.312 156.635 157.116 154.405 110 154.405C62.8837 154.405 24.6884 156.635 24.6884 159.386C24.6884 162.137 62.8837 164.367 110 164.367Z" fill="#F5F5F5"/>
<path d="M220 144.495H0V144.605H220V144.495Z" fill="#EBEBEB"/>
<path d="M32.4148 148.686H23.0824V148.796H32.4148V148.686Z" fill="#EBEBEB"/>
<path d="M112.689 147.492H75.3018V147.602H112.689V147.492Z" fill="#EBEBEB"/>
<path d="M46.5434 152.772H29.775V152.882H46.5434V152.772Z" fill="#EBEBEB"/>
<path d="M197.956 152.034H178.952V152.144H197.956V152.034Z" fill="#EBEBEB"/>
<path d="M177.514 152.034H172.247V152.144H177.514V152.034Z" fill="#EBEBEB"/>
<path d="M163.192 150.176H153.072V150.286H163.192V150.176Z" fill="#EBEBEB"/>
<path d="M147.985 150.176H126.671V150.286H147.985V150.176Z" fill="#EBEBEB"/>
<path d="M104.28 124.872H19.3204C18.6548 124.871 18.0169 124.606 17.5467 124.135C17.0765 123.664 16.8124 123.025 16.8124 122.36V2.93071C16.8182 2.26896 17.0848 1.63622 17.5544 1.16992C18.024 0.703629 18.6586 0.441441 19.3204 0.440308H104.28C104.946 0.440308 105.585 0.705006 106.057 1.17617C106.528 1.64734 106.792 2.28638 106.792 2.95271V122.36C106.792 123.026 106.528 123.665 106.057 124.136C105.585 124.608 104.946 124.872 104.28 124.872ZM19.3204 0.528308C18.684 0.529474 18.0741 0.783096 17.6245 1.23351C17.1749 1.68392 16.9224 2.29431 16.9224 2.93071V122.36C16.9224 122.996 17.1749 123.607 17.6245 124.057C18.0741 124.508 18.684 124.761 19.3204 124.762H104.28C104.916 124.76 105.526 124.506 105.976 124.056C106.426 123.606 106.68 122.996 106.682 122.36V2.93071C106.68 2.29427 106.426 1.68455 105.976 1.23452C105.526 0.78448 104.916 0.530627 104.28 0.528308H19.3204Z" fill="#EBEBEB"/>
<path d="M199.456 124.872H114.492C113.827 124.87 113.189 124.605 112.719 124.134C112.248 123.663 111.982 123.026 111.98 122.36V2.93071C111.987 2.26856 112.255 1.63582 112.725 1.16965C113.195 0.703475 113.83 0.441429 114.492 0.440308H199.456C200.117 0.442598 200.751 0.705297 201.22 1.17147C201.688 1.63764 201.954 2.26972 201.96 2.93071V122.36C201.961 122.689 201.896 123.016 201.771 123.32C201.645 123.625 201.461 123.901 201.229 124.135C200.996 124.368 200.72 124.553 200.416 124.68C200.112 124.806 199.786 124.872 199.456 124.872ZM114.492 0.528308C113.856 0.530627 113.246 0.78448 112.796 1.23452C112.346 1.68455 112.092 2.29427 112.09 2.93071V122.36C112.092 122.996 112.346 123.606 112.796 124.056C113.246 124.506 113.856 124.76 114.492 124.762H199.456C200.093 124.76 200.703 124.506 201.153 124.056C201.603 123.606 201.857 122.996 201.859 122.36V2.93071C201.857 2.29427 201.603 1.68455 201.153 1.23452C200.703 0.78448 200.093 0.530627 199.456 0.528308H114.492Z" fill="#EBEBEB"/>
<path d="M138.719 100.352H136.845V144.58H138.719V100.352Z" fill="#F0F0F0"/>
<path d="M117.731 101.613H65.3754V111.165H117.731V101.613Z" fill="#E0E0E0"/>
<path d="M87.208 144.615H64.768C64.6816 144.615 64.5988 144.581 64.5377 144.52C64.4767 144.459 64.4424 144.376 64.4424 144.29C64.4424 144.203 64.4767 144.121 64.5377 144.059C64.5988 143.998 64.6816 143.964 64.768 143.964H87.208C90.4508 143.964 90.8864 143.018 90.8864 139.26V91.8769C90.8811 91.8313 90.8854 91.7851 90.8993 91.7412C90.9131 91.6974 90.936 91.657 90.9666 91.6227C90.9971 91.5884 91.0346 91.5609 91.0765 91.5421C91.1184 91.5233 91.1638 91.5135 91.2098 91.5135C91.2557 91.5135 91.3012 91.5233 91.3431 91.5421C91.385 91.5609 91.4225 91.5884 91.453 91.6227C91.4836 91.657 91.5065 91.6974 91.5203 91.7412C91.5341 91.7851 91.5385 91.8313 91.5332 91.8769V139.26C91.52 143.278 90.9084 144.615 87.208 144.615Z" fill="#E0E0E0"/>
<path d="M138.208 100.523H67.3903V103.841H138.208V100.523Z" fill="#F0F0F0"/>
<path d="M67.9009 100.352H45.1617V144.58H67.9009V100.352Z" fill="#F5F5F5"/>
<path d="M67.8966 100.352H66.0222V144.58H67.8966V100.352Z" fill="#F0F0F0"/>
<path d="M51.7967 50.6973H28.5383V144.584H51.7967V50.6973Z" fill="#FAFAFA"/>
<path d="M50.5209 53.4379H29.8145V74.1443H50.5209V53.4379Z" fill="#F5F5F5"/>
<path d="M35.5826 53.1616H44.7654C44.7654 53.7311 44.5392 54.2772 44.1365 54.6799C43.7339 55.0826 43.1877 55.3088 42.6182 55.3088H37.743C37.4611 55.3105 37.1815 55.2567 36.9203 55.1504C36.6592 55.0441 36.4215 54.8874 36.2209 54.6893C36.0202 54.4911 35.8606 54.2554 35.7511 53.9955C35.6416 53.7357 35.5844 53.4568 35.5826 53.1748V53.1616Z" fill="#E0E0E0"/>
<path d="M50.5165 76.0018H29.8101V96.7083H50.5165V76.0018Z" fill="#F5F5F5"/>
<path d="M50.5209 98.5682H29.8145V119.275H50.5209V98.5682Z" fill="#F5F5F5"/>
<path d="M50.5209 121.137H29.8145V141.843H50.5209V121.137Z" fill="#F5F5F5"/>
<path d="M35.5826 75.7286H44.7654C44.7643 76.2982 44.5378 76.8441 44.1355 77.2472C43.7332 77.6503 43.1878 77.8779 42.6182 77.8802H37.743C37.4607 77.882 37.1808 77.828 36.9193 77.7214C36.6579 77.6149 36.42 77.4578 36.2193 77.2591C36.0186 77.0605 35.8591 76.8242 35.7499 76.5639C35.6406 76.3035 35.5838 76.0242 35.5826 75.7418V75.7286Z" fill="#E0E0E0"/>
<path d="M35.5826 98.2924H44.7654C44.766 98.5745 44.7109 98.854 44.6032 99.1147C44.4955 99.3755 44.3373 99.6125 44.1378 99.812C43.9383 100.011 43.7014 100.17 43.4406 100.277C43.1799 100.385 42.9004 100.44 42.6182 100.44H37.743C37.1743 100.443 36.6274 100.221 36.2224 99.8216C35.8174 99.4223 35.5873 98.8787 35.5826 98.3099V98.2924Z" fill="#E0E0E0"/>
<path d="M35.5826 120.854H44.7654C44.766 121.137 44.7109 121.416 44.6032 121.677C44.4955 121.938 44.3373 122.174 44.1378 122.374C43.9383 122.573 43.7014 122.732 43.4406 122.839C43.1799 122.947 42.9004 123.002 42.6182 123.002H37.743C37.1743 123.005 36.6274 122.783 36.2224 122.384C35.8174 121.984 35.5873 121.441 35.5826 120.872V120.854Z" fill="#E0E0E0"/>
<path d="M28.5385 50.6973H16.9225V144.584H28.5385V50.6973Z" fill="#F0F0F0"/>
<path d="M88.537 100.351H83.6354L84.8234 90.8033H89.7338L88.537 100.351Z" fill="#F0F0F0"/>
<path d="M89.6237 100.351H84.7177L85.9145 90.8033H90.816L89.6237 100.351Z" fill="#F5F5F5"/>
<path d="M100.148 100.351H96.5976L95.92 99.2686H99.4664L100.148 100.351Z" fill="#F0F0F0"/>
<path d="M119.152 100.351H97.6847L97.0071 99.2686H116.257L119.152 100.351Z" fill="#FAFAFA"/>
<path d="M72.9828 97.6089H74.536C74.8958 97.6089 75.252 97.6798 75.5843 97.8176C75.9167 97.9554 76.2186 98.1574 76.4728 98.412C76.727 98.6666 76.9285 98.9689 77.0657 99.3014C77.203 99.634 77.2734 99.9903 77.2728 100.35H70.2328C70.2328 99.6231 70.5216 98.9258 71.0357 98.4118C71.5497 97.8977 72.247 97.6089 72.974 97.6089H72.9828Z" fill="#F0F0F0"/>
<path d="M90.2173 95.5774H85.3157L85.9141 90.8033H90.8157L90.2173 95.5774Z" fill="#F0F0F0"/>
<path d="M72.1865 94.4332H106.92C106.983 94.4338 107.046 94.4218 107.104 94.3979C107.163 94.374 107.216 94.3387 107.261 94.294C107.305 94.2494 107.34 94.1963 107.364 94.1378C107.388 94.0794 107.4 94.0168 107.4 93.9536C107.402 93.9331 107.402 93.9125 107.4 93.892L104.72 72.4992C104.711 72.3794 104.657 72.2674 104.569 72.1857C104.481 72.1041 104.365 72.0589 104.245 72.0592H69.5201C69.3929 72.0592 69.2709 72.1097 69.1809 72.1997C69.091 72.2896 69.0405 72.4116 69.0405 72.5388C69.0383 72.5593 69.0383 72.5799 69.0405 72.6004L71.7201 94.0152C71.7357 94.1289 71.7911 94.2333 71.8765 94.3098C71.962 94.3864 72.0718 94.4301 72.1865 94.4332Z" fill="#F0F0F0"/>
<path d="M72.7101 94.4332H107.413C107.476 94.4338 107.539 94.4218 107.597 94.3979C107.656 94.374 107.709 94.3387 107.753 94.294C107.798 94.2494 107.833 94.1963 107.857 94.1378C107.881 94.0794 107.893 94.0168 107.893 93.9536C107.895 93.9331 107.895 93.9125 107.893 93.892L105.222 72.4992C105.209 72.3801 105.153 72.2697 105.065 72.1888C104.977 72.1078 104.862 72.0617 104.742 72.0592H70.0349C69.9077 72.0592 69.7858 72.1097 69.6958 72.1997C69.6059 72.2896 69.5553 72.4116 69.5553 72.5388C69.5532 72.5593 69.5532 72.5799 69.5553 72.6004L72.2305 93.9976C72.2406 94.1174 72.2956 94.229 72.3846 94.3098C72.4736 94.3907 72.5899 94.4347 72.7101 94.4332Z" fill="#F5F5F5"/>
<path d="M106.77 93.2502L104.28 73.2258C104.276 73.1931 104.259 73.1633 104.234 73.1421C104.209 73.121 104.176 73.11 104.144 73.1114H70.8135C70.7964 73.1102 70.7792 73.1125 70.763 73.1181C70.7468 73.1237 70.7319 73.1325 70.7191 73.144C70.7064 73.1555 70.6961 73.1694 70.6889 73.185C70.6817 73.2006 70.6777 73.2174 70.6771 73.2346V73.261L73.1807 93.281C73.184 93.3137 73.1993 93.3439 73.2238 93.3659C73.2482 93.3879 73.2799 93.4 73.3127 93.3998H106.638C106.656 93.3992 106.674 93.3951 106.69 93.3877C106.707 93.3804 106.721 93.3698 106.734 93.3568C106.746 93.3437 106.755 93.3283 106.762 93.3115C106.768 93.2948 106.771 93.2769 106.77 93.259V93.2502Z" fill="#E0E0E0"/>
<path d="M94.0896 100.35H86.0992V100.249C86.0992 100.038 86.1825 99.8366 86.3309 99.6873C86.4793 99.5381 86.6808 99.4537 86.8912 99.4525H93.28C93.4913 99.4525 93.6938 99.5364 93.8432 99.6858C93.9925 99.8351 94.0764 100.038 94.0764 100.249V100.35H94.0896Z" fill="#FAFAFA"/>
<path d="M87.0274 100.35H81.611V100.249C81.6104 100.145 81.6305 100.041 81.67 99.9445C81.7095 99.8479 81.7678 99.7601 81.8414 99.686C81.915 99.612 82.0025 99.5533 82.0989 99.5132C82.1952 99.4731 82.2986 99.4525 82.403 99.4525H86.2398C86.4502 99.4537 86.6517 99.5381 86.8001 99.6873C86.9485 99.8366 87.0318 100.038 87.0318 100.249V100.35H87.0274Z" fill="#F0F0F0"/>
<path d="M38.3678 40.093C38.4558 39.7938 38.5394 39.4902 38.6142 39.191C38.745 39.3997 38.9231 39.5745 39.1341 39.7014C39.3451 39.8283 39.583 39.9037 39.8286 39.9214H39.9342C40.581 39.8598 41.197 39.2306 41.5886 38.245C41.5971 38.228 41.6016 38.2091 41.6016 38.19C41.6016 38.1709 41.5971 38.1521 41.5886 38.135C41.5796 38.1174 41.5672 38.1016 41.5521 38.0888C41.537 38.076 41.5195 38.0662 41.5006 38.0602C41.0366 37.9427 40.5531 37.9242 40.0815 38.0061C39.61 38.088 39.161 38.2684 38.7638 38.5354C38.8254 38.2494 38.8738 37.959 38.9178 37.6554C39.0191 37.6768 39.1223 37.6871 39.2258 37.6862C39.5865 37.6536 39.9372 37.5496 40.2574 37.3804C40.5776 37.2113 40.8611 36.9802 41.0914 36.7006C41.1165 36.6738 41.1304 36.6384 41.1304 36.6016C41.1304 36.5649 41.1165 36.5295 41.0914 36.5026H41.0562C40.8116 36.3809 40.5439 36.3125 40.2708 36.3019C39.9978 36.2912 39.7256 36.3387 39.4722 36.441C39.202 36.5785 38.983 36.799 38.8474 37.0702C38.6512 36.4581 38.2884 35.9127 37.7995 35.4954C37.3106 35.078 36.7151 34.8052 36.0798 34.7074C36.0607 34.7027 36.0407 34.7027 36.0216 34.7073C36.0025 34.7119 35.9847 34.721 35.9698 34.7338C35.9536 34.7457 35.9401 34.7608 35.9303 34.7783C35.9204 34.7957 35.9144 34.8151 35.9126 34.835C35.8598 35.7898 35.9126 36.9646 36.6078 37.519C36.906 37.74 37.271 37.8519 37.6418 37.8358C37.9759 37.8308 38.3077 37.779 38.6274 37.6818C38.5252 38.3726 38.3782 39.0561 38.1874 39.7278C37.4843 38.7763 36.4916 38.0785 35.3582 37.739C35.3242 37.7353 35.2899 37.7432 35.2611 37.7616C35.2323 37.7801 35.2107 37.8078 35.1998 37.8402C34.9842 38.6674 35.0942 39.3362 35.521 39.7762C35.7384 39.9692 35.9919 40.1171 36.2668 40.2115C36.5417 40.3059 36.8325 40.3449 37.1226 40.3262C37.4344 40.3228 37.7452 40.2904 38.051 40.2294C37.875 40.7926 37.6638 41.347 37.4658 41.8706C37.0258 41.4834 35.7718 40.5242 34.3858 40.929C34.3495 40.9426 34.3197 40.9693 34.3022 41.0038C34.2937 41.0209 34.2892 41.0397 34.2892 41.0588C34.2892 41.0779 34.2937 41.0968 34.3022 41.1138C34.6894 42.029 35.103 42.535 35.6222 42.7066C35.7641 42.7539 35.9127 42.7777 36.0622 42.777C36.4712 42.7606 36.8701 42.6443 37.2238 42.4382C36.929 43.1378 36.6166 43.789 36.3218 44.3698C35.9678 44.0091 35.5231 43.7505 35.0345 43.6212C34.5459 43.4919 34.0315 43.4967 33.5454 43.635C33.5124 43.6424 33.4833 43.6618 33.4638 43.6895C33.4442 43.7171 33.4357 43.751 33.4398 43.7846C33.473 44.0771 33.5829 44.3556 33.7583 44.5921C33.9336 44.8285 34.1683 45.0144 34.4386 45.131C34.6431 45.2182 34.8631 45.2631 35.0854 45.263C35.3927 45.2574 35.6943 45.179 35.9654 45.0342C35.6618 45.593 35.3846 46.0638 35.1646 46.4158H32.5598C32.1198 45.703 31.6798 44.8142 31.1826 43.8154C31.4024 43.8819 31.6306 43.916 31.8602 43.9166C32.1015 43.9201 32.3412 43.876 32.5654 43.7867C32.7896 43.6974 32.994 43.5648 33.1669 43.3964C33.3398 43.228 33.4778 43.0272 33.5729 42.8054C33.6681 42.5836 33.7185 42.3452 33.7214 42.1038C33.7245 41.9421 33.7052 41.7807 33.6642 41.6242C33.655 41.5928 33.6349 41.5658 33.6074 41.548C33.5799 41.5303 33.547 41.523 33.5146 41.5274C32.9773 41.5796 32.4606 41.7604 32.0079 42.0545C31.5553 42.3486 31.1802 42.7473 30.9142 43.217C30.6062 42.5218 30.3026 41.7826 30.0342 41.017C30.3696 41.2069 30.7448 41.3154 31.1298 41.3338C31.2796 41.3341 31.4284 41.3088 31.5698 41.259C32.3442 41.0038 32.7886 40.071 33.167 39.1074C33.1756 39.0896 33.18 39.07 33.18 39.0502C33.18 39.0304 33.1756 39.0109 33.167 38.993C33.158 38.9754 33.1456 38.9596 33.1305 38.9468C33.1154 38.934 33.0979 38.9242 33.079 38.9182C31.5302 38.4782 30.2586 39.9742 29.8626 40.511C29.656 39.8666 29.4842 39.2115 29.3478 38.5486C29.6742 38.6111 30.0055 38.6449 30.3378 38.6498C30.6666 38.6739 30.9968 38.6301 31.3079 38.5211C31.619 38.4121 31.9044 38.2403 32.1462 38.0162C32.6126 37.519 32.727 36.7754 32.4762 35.8734C32.4721 35.8557 32.4645 35.8389 32.4538 35.8242C32.4431 35.8094 32.4295 35.797 32.414 35.7876C32.3984 35.7781 32.3811 35.7719 32.363 35.7693C32.345 35.7666 32.3266 35.7676 32.309 35.7722C31.0683 36.1468 29.9857 36.9201 29.229 37.9722L29.1674 37.6202C29.1649 37.5906 29.1525 37.5627 29.1322 37.541C29.0675 37.3121 28.9559 37.0992 28.8044 36.9159C28.6529 36.7326 28.4648 36.5828 28.2522 36.4762C27.973 36.369 27.6743 36.3218 27.3756 36.3378C27.0769 36.3537 26.7849 36.4323 26.5186 36.5686C26.4985 36.5778 26.4807 36.5912 26.4663 36.6079C26.4519 36.6246 26.4412 36.6442 26.435 36.6654C26.4301 36.6869 26.4304 36.7093 26.4357 36.7307C26.4411 36.7521 26.4514 36.7719 26.4658 36.7886C26.7183 37.0899 27.0279 37.3383 27.3768 37.5195C27.7257 37.7008 28.1069 37.8112 28.4986 37.8446C28.6226 37.8401 28.7461 37.8269 28.8682 37.805C28.9166 38.1306 28.9782 38.4606 29.0486 38.7862C28.6076 38.4964 28.1103 38.3031 27.5894 38.2189C27.0685 38.1348 26.5356 38.1616 26.0258 38.2978C25.9871 38.311 25.9543 38.3375 25.9334 38.3726C25.9203 38.4096 25.9203 38.45 25.9334 38.487C26.3734 39.565 27.0686 40.247 27.7814 40.3042H27.8782C28.1481 40.281 28.4085 40.1938 28.638 40.05C28.8676 39.9061 29.0596 39.7097 29.1982 39.477C29.3942 40.2222 29.6292 40.9565 29.9022 41.677C29.2334 41.3602 27.7286 40.797 26.6506 41.6462C26.6225 41.6681 26.6037 41.6997 26.598 41.7348C26.5923 41.7699 26.6001 41.8058 26.6198 41.8354C27.315 42.7858 27.9398 43.2434 28.591 43.2434C29.1102 43.2434 29.6118 42.9134 30.109 42.2666C30.395 42.975 30.7074 43.657 30.989 44.2862C30.3202 43.8726 29.5854 43.9342 28.7186 44.4798C28.6987 44.4928 28.6823 44.5103 28.6708 44.531C28.6593 44.5518 28.6531 44.575 28.6526 44.5986C28.6507 44.6211 28.6551 44.6437 28.6652 44.6638C28.6753 44.684 28.6907 44.701 28.7098 44.713C29.2255 45.0857 29.8351 45.3067 30.4698 45.351C30.7982 45.3603 31.1208 45.263 31.3894 45.0738C31.6358 45.549 31.8778 45.9846 32.1022 46.3938H30.9802V47.0758H31.4202L31.781 50.6794H37.061L37.4174 47.0758H37.8574V46.4202H35.4814C35.7454 45.9802 36.0798 45.3994 36.4406 44.7174C36.4497 44.7022 36.4571 44.6859 36.4626 44.669C36.555 44.493 36.6474 44.317 36.7398 44.1322C36.8967 44.3704 37.1084 44.5674 37.3573 44.7068C37.6061 44.8461 37.8848 44.9237 38.1698 44.933H38.3458C38.6613 44.897 38.9606 44.7743 39.2107 44.5786C39.4607 44.3829 39.6518 44.1218 39.7626 43.8242C39.7748 43.7943 39.7753 43.7609 39.7639 43.7307C39.7524 43.7005 39.73 43.6757 39.701 43.6614C39.2959 43.4319 38.8419 43.3022 38.3767 43.283C37.9115 43.2639 37.4484 43.3559 37.0258 43.5514C37.2238 43.1114 37.413 42.6714 37.611 42.2314C37.6271 42.2144 37.6378 42.193 37.6418 42.1698C37.6946 42.0378 37.743 41.9058 37.8002 41.7826C38.2402 42.3634 38.7154 42.6626 39.1906 42.6626C39.767 42.6626 40.3522 42.2226 40.977 41.3426C40.9882 41.3283 40.9964 41.3118 41.0012 41.2942C41.0059 41.2767 41.0071 41.2583 41.0046 41.2403C41.0022 41.2222 40.9961 41.2049 40.9868 41.1892C40.9776 41.1735 40.9652 41.1599 40.9506 41.149C39.965 40.4098 38.6318 40.9158 38.0026 41.2106C38.1302 40.8586 38.249 40.5066 38.3546 40.1502L38.3678 40.093Z" fill="#E0E0E0"/>
<path d="M126.24 122.465H140.8C142.131 122.462 143.407 121.939 144.358 121.008C145.308 120.077 145.857 118.811 145.886 117.48L146.432 90.8471C146.451 89.8617 146.078 88.9092 145.395 88.1988C144.711 87.4884 143.774 87.0784 142.789 87.0587H133.597C132.685 87.0572 131.804 87.3921 131.123 87.9993C130.442 88.6064 130.008 89.4433 129.906 90.3499L126.24 122.465Z" fill="#E6E6E6"/>
<path d="M134.2 122.465H118.681C118.489 122.465 118.304 122.388 118.168 122.252C118.032 122.116 117.955 121.931 117.955 121.739V121.668C117.955 121.141 118.165 120.635 118.538 120.262C118.911 119.889 119.417 119.679 119.944 119.679H134.2V122.469V122.465Z" fill="#E6E6E6"/>
<path d="M132.955 144.945C132.88 144.947 132.807 144.922 132.748 144.875C132.69 144.829 132.649 144.763 132.634 144.69L128.089 122.791H120.169L115.628 144.69C115.603 144.769 115.549 144.836 115.478 144.877C115.406 144.919 115.322 144.933 115.241 144.916C115.16 144.899 115.088 144.852 115.039 144.785C114.99 144.719 114.968 144.636 114.977 144.554L119.579 122.4C119.594 122.325 119.634 122.257 119.694 122.21C119.754 122.162 119.828 122.137 119.905 122.14H128.344C128.419 122.139 128.493 122.164 128.552 122.211C128.61 122.259 128.651 122.325 128.665 122.4L133.263 144.554C133.272 144.595 133.273 144.638 133.265 144.679C133.258 144.721 133.242 144.761 133.219 144.796C133.197 144.832 133.167 144.862 133.132 144.886C133.097 144.911 133.058 144.927 133.017 144.936L132.955 144.945Z" fill="#E6E6E6"/>
<path d="M128.04 144.944H127.974C127.889 144.927 127.815 144.877 127.767 144.806C127.719 144.734 127.702 144.646 127.719 144.561L132.321 122.403C132.337 122.329 132.378 122.263 132.438 122.215C132.497 122.168 132.571 122.143 132.647 122.143H141.086C141.161 122.144 141.234 122.17 141.292 122.217C141.351 122.264 141.391 122.33 141.407 122.403L146.005 144.561C146.014 144.604 146.014 144.648 146.006 144.69C145.997 144.733 145.981 144.773 145.957 144.809C145.933 144.846 145.902 144.877 145.866 144.901C145.831 144.925 145.79 144.942 145.748 144.951C145.705 144.96 145.661 144.96 145.619 144.952C145.576 144.943 145.536 144.927 145.5 144.903C145.464 144.879 145.432 144.848 145.408 144.812C145.384 144.776 145.367 144.736 145.358 144.693L140.8 122.795H132.88L128.339 144.693C128.322 144.762 128.284 144.823 128.231 144.868C128.177 144.913 128.11 144.94 128.04 144.944Z" fill="#E6E6E6"/>
<path d="M182.727 138.517H183.634C183.634 136.652 183.634 131.917 183.731 121.058C183.889 101.381 184.206 100.185 184.206 100.185L182.05 109.271C180.677 119.325 182.437 129.445 182.727 138.517Z" fill="#E6E6E6"/>
<path d="M178.71 105.9C173.958 101.205 164.683 100.576 155.205 100.18C151.487 100.026 165.589 107.171 172.66 112.522C178.125 116.675 181.495 117.657 183.317 122.136C183.528 116.323 182.802 109.948 178.71 105.9Z" fill="#E6E6E6"/>
<path d="M183.92 95.6911C187.141 89.5751 195.241 83.8111 204.332 81.6111C207.896 80.7531 196.06 92.9015 191.572 100.742C188.078 106.832 183.445 113.978 182.728 119.117C181.641 108.957 180.708 101.807 183.92 95.6911Z" fill="#E0E0E0"/>
<path d="M183.528 144.404C182.005 144.401 180.54 143.816 179.432 142.769C178.325 141.723 177.659 140.293 177.571 138.772L177.025 133.377H189.996L189.451 138.772C189.363 140.287 188.702 141.712 187.602 142.757C186.502 143.803 185.046 144.392 183.528 144.404Z" fill="#EBEBEB"/>
<path d="M190.846 135.455H176.189L175.767 129.445H191.264L190.846 135.455Z" fill="#F0F0F0"/>
<path d="M196.298 9.58435H121.7V62.9212H196.298V9.58435Z" fill="#E0E0E0"/>
<path d="M194.652 9.58435H121.7V62.9212H194.652V9.58435Z" fill="#F0F0F0"/>
<path d="M191.919 11.8407H124.137V59.4311H191.919V11.8407Z" fill="#FAFAFA"/>
<path d="M197.362 7.25525H119.174V8.18805H197.362V7.25525Z" fill="#E0E0E0"/>
<path d="M118.549 9.04193C119.269 9.04193 119.852 8.45883 119.852 7.73953C119.852 7.02024 119.269 6.43713 118.549 6.43713C117.83 6.43713 117.247 7.02024 117.247 7.73953C117.247 8.45883 117.83 9.04193 118.549 9.04193Z" fill="#E0E0E0"/>
<path d="M197.362 9.04193C198.082 9.04193 198.665 8.45883 198.665 7.73953C198.665 7.02024 198.082 6.43713 197.362 6.43713C196.643 6.43713 196.06 7.02024 196.06 7.73953C196.06 8.45883 196.643 9.04193 197.362 9.04193Z" fill="#E0E0E0"/>
<path opacity="0.7" d="M185.192 11.8407L163.702 59.4311H155.232L176.722 11.8407H185.192Z" fill="white"/>
<path opacity="0.7" d="M168.929 11.8407L147.439 59.4311H132.321L153.811 11.8407H168.929Z" fill="white"/>
<path d="M196.297 30.999H121.7V32.6182H196.297V30.999Z" fill="#E0E0E0"/>
<path d="M196.297 28.6184H121.7V30.2376H196.297V28.6184Z" fill="#E0E0E0"/>
<path d="M196.297 26.2418H121.7V27.861H196.297V26.2418Z" fill="#E0E0E0"/>
<path d="M196.297 23.8612H121.7V25.4804H196.297V23.8612Z" fill="#E0E0E0"/>
<path d="M196.298 21.4851H121.7V23.1043H196.298V21.4851Z" fill="#E0E0E0"/>
<path d="M196.297 19.1094H121.7V20.7286H196.297V19.1094Z" fill="#E0E0E0"/>
<path d="M196.297 16.7292H121.7V18.3485H196.297V16.7292Z" fill="#E0E0E0"/>
<path d="M196.298 14.3538H121.7V15.973H196.298V14.3538Z" fill="#E0E0E0"/>
<path d="M196.298 11.9766H121.7V13.5958H196.298V11.9766Z" fill="#E0E0E0"/>
<path d="M196.298 9.59583H121.7V11.215H196.298V9.59583Z" fill="#E0E0E0"/>
<path d="M95.0974 9.14832H81.4618V22.7839H95.0974V9.14832Z" fill="#F0F0F0"/>
<path d="M94.0326 9.14832H80.397V22.7839H94.0326V9.14832Z" fill="#F5F5F5"/>
<path d="M92.985 10.2002H81.4482V21.737H92.985V10.2002Z" fill="#FAFAFA"/>
<path d="M81.7738 10.2002H81.4482V21.737H81.7738V10.2002Z" fill="#F0F0F0"/>
<path d="M91.5991 13.28V18.5908C91.1534 18.5908 90.7259 18.7679 90.4106 19.0831C90.0954 19.3983 89.9183 19.8259 89.9183 20.2716H85.008C85.008 20.0505 84.9643 19.8316 84.8796 19.6274C84.7948 19.4232 84.6707 19.2377 84.5141 19.0816C84.3576 18.9254 84.1718 18.8017 83.9673 18.7175C83.7629 18.6333 83.5438 18.5903 83.3228 18.5908V13.28C83.5438 13.2806 83.7629 13.2376 83.9673 13.1534C84.1718 13.0692 84.3576 12.9454 84.5141 12.7893C84.6707 12.6332 84.7948 12.4477 84.8796 12.2435C84.9643 12.0393 85.008 11.8203 85.008 11.5992H89.9183C89.9183 11.82 89.9618 12.0385 90.0463 12.2425C90.1308 12.4464 90.2546 12.6317 90.4106 12.7877C90.5667 12.9438 90.752 13.0676 90.9559 13.1521C91.1599 13.2366 91.3784 13.28 91.5991 13.28Z" fill="white"/>
<path d="M70.3561 9.0387H24.5873V32.3455H70.3561V9.0387Z" fill="#E6E6E6"/>
<path d="M68.499 9.0387H22.7302V32.3455H68.499V9.0387Z" fill="#F0F0F0"/>
<path d="M66.8536 11.0706H24.4552V29.775H66.8536V11.0706Z" fill="#F5F5F5"/>
<path opacity="0.7" d="M56.8218 11.0706L48.6158 29.775H42.9001L51.5726 11.0706H56.8218Z" fill="white"/>
<path opacity="0.7" d="M49.6099 11.0706L40.8407 29.775H38.2931L47.1943 11.0706H49.6099Z" fill="white"/>
<path d="M57.3145 28.0422C57.3145 28.0422 54.5161 27.4174 54.1201 23.8094C53.7549 20.461 55.2465 19.7966 55.2465 19.7966C55.2465 19.7966 53.3413 16.3734 56.5225 14.4066C59.7037 12.4398 64.5745 15.0622 66.4489 14.1734C68.3233 13.2846 70.4089 13.7818 69.8149 16.4218C69.2209 19.0618 66.4401 19.7482 66.4401 19.7482L60.0205 18.6218C60.0205 18.6218 62.7881 25.8378 61.1469 27.1974C59.5057 28.557 57.3145 28.0422 57.3145 28.0422Z" fill="#454D66"/>
<path d="M68.4994 17.4067C68.4994 17.4067 69.8854 22.7923 68.4994 23.7207C67.1134 24.6491 66.8142 18.2031 66.8142 18.2031L68.4994 17.4067Z" fill="#454D66"/>
<path d="M58.2868 69.57L56.9096 72.518L54.4676 72.166C52.1664 72.5356 51.2072 71.2288 51.2072 71.2288L49.7596 69.9088C41.668 62.332 40.304 58.4688 40.9992 55.4196C41.734 52.1988 46.6092 42.7256 48.0788 40.5212C49.5484 38.3168 50.6572 37.714 50.6572 37.714C53.3236 36.5656 55.3432 37.3928 56.2716 40.244C57.024 42.5496 55.3168 44.9564 54.0012 46.6944C52.3829 48.822 50.8874 51.0402 49.522 53.3384C49.082 54.0952 48.642 54.8652 48.2284 55.6396C48.048 55.974 47.0536 57.426 47.1636 57.7208C47.8412 59.6084 51.2468 64.9676 52.4436 66.8244L52.8572 67.4668C57.2748 68.1004 58.2868 69.57 58.2868 69.57Z" fill="#454D66"/>
<path d="M104.249 38.4344L101.684 39.8996C101.684 39.8996 101.129 40.9908 100.214 42.5176C98.1328 45.998 94.1948 51.7576 90.7144 52.1448C86.1428 52.5276 81.338 50.4112 76.5112 47.1728C71.6844 43.9344 73.3872 36.5248 73.3872 36.5248C73.3872 36.5248 76.2692 37.3344 80.7308 40.6344C85.1924 43.9344 88.9764 45.9496 90.0764 46.3764C90.0764 46.3764 93.8604 45.1576 97.9568 40.3968L99.1184 36.6656L102.968 35.3456L104.249 38.4344Z" fill="#454D66"/>
<path d="M50.4948 49.0435C50.662 49.2811 55.0004 70.5771 55.0004 70.5771H75.2668C75.2668 70.5771 75.4471 57.5575 75.7815 54.4687C76.1159 51.3799 78.1663 38.6287 73.3879 36.5255C73.3879 36.5255 68.5216 35.3683 64.9312 35.3199C62.7696 35.2906 60.6105 35.4749 58.4852 35.8699C58.4852 35.8699 52.268 36.1999 50.6532 37.7047C49.0384 39.2095 50.4948 49.0435 50.4948 49.0435Z" fill="#454D66"/>
<path d="M75.2669 70.2905C75.2669 70.2905 74.9237 101.007 74.0041 108.355C73.0845 115.703 70.6997 147.458 70.6997 147.458L64.6805 146.01C64.6805 146.01 64.2405 122.897 63.6113 111.417C62.9821 99.9377 63.1229 86.3373 63.1229 86.3373C63.1229 86.3373 58.7229 114.937 57.0289 117.692C55.3349 120.446 48.4445 136.365 44.0005 144.321L39.0989 140.035C39.0989 140.035 47.0805 114.629 48.4445 110.344C49.8085 106.058 50.9965 74.2637 55.0005 70.5765L75.2669 70.2905Z" fill="#58B368"/>
<path d="M43.2563 143.388L42.0331 145.258L40.3831 147.784L37.0127 146.033L38.3943 143.243L39.4239 141.175L43.2563 143.388Z" fill="#CE7A63"/>
<path d="M104.249 38.4344L101.684 39.8996C101.684 39.8996 101.13 40.9908 100.215 42.5176L97.9574 40.3968L99.119 36.6656L102.969 35.3456L104.249 38.4344Z" fill="#CE7A63"/>
<path opacity="0.3" d="M75.2625 70.2905C75.2625 70.2905 74.9237 101.007 74.0041 108.351C73.0845 115.694 70.6997 147.458 70.6997 147.458L64.7553 146.459C64.7553 146.459 64.2053 122.897 63.5981 111.413C63.4265 108.139 63.1229 105.649 63.0569 103.735C62.9909 101.821 63.0041 98.4549 63.0569 95.1593C63.1141 90.3897 63.2197 85.7521 63.2197 85.7521L63.0877 86.5969C63.0877 86.7201 63.0481 86.8565 63.0217 87.0017L62.9953 87.1777C62.0581 93.1001 58.4853 115.289 57.0333 117.674C55.3305 120.446 48.4445 136.365 44.0005 144.321L39.0989 140.035C39.0989 140.035 47.0629 114.625 48.4401 110.344C49.8173 106.063 50.9921 74.2637 54.9961 70.5721L75.2625 70.2905Z" fill="black"/>
<path opacity="0.2" d="M63.0693 86.5939C63.0693 86.7171 63.0297 86.8535 63.0033 86.9987L63.0693 86.5939Z" fill="black"/>
<path opacity="0.2" d="M64.0336 80.4296C64.0336 80.4296 63.9192 89.2296 63.0392 95.1564C63.0964 90.3868 63.202 85.7492 63.202 85.7492L64.0336 80.4296Z" fill="black"/>
<path d="M65.7714 34.4792C66.3616 34.9397 67.0333 35.2845 67.7514 35.4956C67.7514 35.4956 66.7262 36.7276 63.4394 36.4856C62.159 36.3888 60.531 37.0884 58.4894 35.8696C58.4894 35.8696 59.343 30.9944 58.969 28.108C58.969 28.108 55.5942 26.6604 56.3994 24.4648C57.1298 22.4672 59.4046 24.7596 59.8182 25.1952C59.4134 24.6804 56.9846 21.4376 58.7534 18.7844C59.3198 17.9374 60.0654 17.2252 60.9375 16.6983C61.8097 16.1713 62.787 15.8426 63.8002 15.7352L66.5898 16.4832L67.7118 19.1232C67.7118 19.1232 69.2122 21.156 69.3178 25.226C69.4234 29.296 67.0694 30.7392 65.3578 31.2232C65.3578 31.2232 65.3094 31.6632 65.3094 32.2572C65.2874 33.0536 65.3622 34.1052 65.7714 34.4792Z" fill="#CE7A63"/>
<path d="M66.6554 25.5462L66.2155 22.2594L68.0678 24.8466C67.8925 25.0533 67.6768 25.222 67.4339 25.3423C67.191 25.4626 66.9261 25.532 66.6554 25.5462Z" fill="#BA4D3C"/>
<path d="M63.4395 25.7549C63.6965 26.0882 64.0457 26.3389 64.4438 26.4757C64.8419 26.6126 65.2714 26.6297 65.6791 26.5249" stroke="#454D66" stroke-linecap="round" stroke-linejoin="round"/>
<path d="M62.5994 21.2094C62.5994 21.2094 63.1274 20.0566 64.2098 20.2326" stroke="#454D66" stroke-linecap="round" stroke-linejoin="round"/>
<path d="M67.3552 19.8004C67.6775 19.7583 68.0051 19.7934 68.3111 19.9028C68.6171 20.0122 68.8927 20.1927 69.1152 20.4296" stroke="#454D66" stroke-linecap="round" stroke-linejoin="round"/>
<path d="M64.5702 22.7053C64.5702 23.0265 64.4074 23.2861 64.2094 23.2861C64.0114 23.2861 63.8486 23.0265 63.8486 22.7053C63.8486 22.3841 64.0114 22.1289 64.2094 22.1289C64.4074 22.1289 64.5702 22.3885 64.5702 22.7053Z" fill="#454D66"/>
<path d="M68.231 22.4669C68.231 22.7837 68.0682 23.0433 67.8702 23.0433C67.6722 23.0433 67.5094 22.7837 67.5094 22.4669C67.5094 22.1501 67.6722 21.8861 67.8702 21.8861C68.0682 21.8861 68.231 22.1457 68.231 22.4669Z" fill="#454D66"/>
<path d="M62.1371 37.9808L64.9619 37.5496L65.6527 40.282L64.3371 42.7284H63.5803L62.1371 40.5328V37.9808Z" fill="#58B368"/>
<path d="M63.5803 42.7305L62.1371 55.6401L64.7771 58.1833L66.6823 55.5829L64.3371 42.7305H63.5803Z" fill="#58B368"/>
<path opacity="0.3" d="M62.1371 37.9808L64.9619 37.5496L65.6527 40.282L64.3371 42.7284H63.5803L62.1371 40.5328V37.9808Z" fill="black"/>
<path opacity="0.3" d="M63.5803 42.7305L62.1371 55.6401L64.7771 58.1833L66.6823 55.5829L64.3371 42.7305H63.5803Z" fill="black"/>
<path d="M63.4395 36.4866L64.8695 40.253C64.8695 40.253 68.5654 38.4094 69.1066 35.3206L66.4667 34.4142C65.5481 35.2287 64.5311 35.9249 63.4395 36.4866Z" fill="white"/>
<path d="M58.7401 34.1669C58.7401 34.1669 61.2965 35.5133 63.4393 36.4857L62.5989 40.2521C62.5989 40.2521 58.3661 37.7177 56.9449 35.7377L58.7401 34.1669Z" fill="white"/>
<path opacity="0.2" d="M65.3402 31.2113C65.3402 31.2113 65.2918 31.6513 65.2918 32.2453C64.5641 32.0658 63.8619 31.7952 63.2018 31.4401C63.9226 31.5379 64.6564 31.4594 65.3402 31.2113Z" fill="black"/>
<path d="M59.8401 25.1948C60.3186 23.2873 60.1483 21.2748 59.3561 19.4748C59.3561 19.4748 64.3765 20.9136 64.3897 16.342C64.3897 16.342 57.6929 17.4112 57.3497 19.7916C57.0065 22.172 59.2681 24.548 59.8401 25.1948Z" fill="#454D66"/>
<path d="M64.3147 17.0151C64.3147 17.0151 66.2331 19.7387 67.8787 19.1755V15.2155H62.1587L59.1359 17.0195L61.2303 19.1755L62.7879 17.8951L64.3147 17.0151Z" fill="#454D66"/>
<path d="M70.2987 152.408L66.0043 152.188L65.8987 148.932L65.8195 146.556L69.2955 146.209L69.9819 146.24L70.1315 149.179L70.2987 152.408Z" fill="#CE7A63"/>
<path opacity="0.2" d="M70.1315 149.179L65.8987 148.932L65.8195 146.556L69.2955 146.209L69.9819 146.24L70.1315 149.179Z" fill="black"/>
<path d="M63.4874 148.119L71.7462 147.916L72.2126 145.224H63.681L63.4874 148.119Z" fill="#454D66"/>
<path d="M71.2227 152.588C71.2227 152.588 72.6615 148.346 73.7835 148.769C74.9055 149.191 71.2227 152.588 71.2227 152.588Z" stroke="#58B368" stroke-miterlimit="10"/>
<path d="M71.4692 152.589C71.4692 152.589 73.6428 150.521 74.5184 151.326C75.394 152.131 71.4692 152.589 71.4692 152.589Z" stroke="#58B368" stroke-miterlimit="10"/>
<path opacity="0.2" d="M43.2567 143.388L42.0335 145.258L38.3947 143.243L39.4243 141.175L43.2567 143.388Z" fill="black"/>
<path d="M37.5848 141.699L43.8944 145.039L45.3816 143.208L38.9532 139.596L37.5848 141.699Z" fill="#454D66"/>
<path d="M41.6023 148.906C41.6023 148.906 43.3887 146.671 44.1147 147.199C44.8407 147.727 41.6023 148.906 41.6023 148.906Z" stroke="#58B368" stroke-miterlimit="10"/>
<path d="M41.9277 148.907C41.9277 148.907 45.0077 148.181 45.1397 149.179C45.2717 150.178 41.9277 148.907 41.9277 148.907Z" stroke="#58B368" stroke-miterlimit="10"/>
<path d="M41.228 146.521L37.9148 144.659C37.6835 144.531 37.4109 144.499 37.1562 144.571C36.9016 144.643 36.6856 144.812 36.5552 145.042L35.0636 147.682C34.9339 147.914 34.9014 148.188 34.9731 148.443C35.0449 148.699 35.2151 148.916 35.4464 149.046L44.8492 154.326C45.081 154.456 45.3547 154.489 45.6104 154.417C45.866 154.345 46.0828 154.175 46.2132 153.943C46.3291 153.737 46.3679 153.495 46.3228 153.263C46.2776 153.03 46.1516 152.821 45.9668 152.672C44.7524 151.699 42.262 149.464 41.712 147.15C41.6789 147.017 41.6188 146.893 41.5355 146.785C41.4523 146.677 41.3476 146.587 41.228 146.521Z" fill="#454D66"/>
<path d="M69.9027 150.759H65.5027C65.1953 150.76 64.901 150.883 64.6841 151.101C64.4672 151.319 64.3455 151.613 64.3455 151.921V155.441C64.3455 155.748 64.4674 156.042 64.6844 156.259C64.9014 156.476 65.1957 156.598 65.5027 156.598H77.9811C78.1334 156.598 78.2843 156.569 78.4253 156.511C78.5662 156.453 78.6942 156.368 78.8022 156.26C78.9101 156.153 78.9957 156.025 79.0542 155.885C79.1126 155.744 79.1427 155.593 79.1427 155.441C79.1423 155.166 79.045 154.901 78.8678 154.692C78.6906 154.482 78.4451 154.342 78.1747 154.297C76.3927 154.002 72.6175 153.157 70.7475 151.137C70.6399 151.02 70.5095 150.926 70.3642 150.861C70.2189 150.796 70.0618 150.761 69.9027 150.759Z" fill="#454D66"/>
<path d="M58.2869 69.5701L56.9097 72.5181L54.4676 72.1661C52.1664 72.5357 51.2072 71.2289 51.2072 71.2289L49.7596 69.9089L52.448 66.8289L52.8616 67.4713C57.2749 68.1005 58.2869 69.5701 58.2869 69.5701Z" fill="#CE7A63"/>
<path d="M97.957 40.2046L97.1034 41.3398L99.6026 43.5222L100.337 42.519L97.957 40.2046Z" fill="white"/>
<path d="M49.6498 70.0321L52.5318 66.6617L51.5594 65.4253L48.5498 69.0465L49.6498 70.0321Z" fill="white"/>
<path d="M104.98 19.2519C104.682 20.1361 104.585 21.0755 104.697 22.0017C104.808 22.928 105.124 23.8179 105.622 24.6067C107.329 27.1939 106.942 18.6403 106.942 18.6403L104.98 19.2519Z" fill="#454D66"/>
<path d="M108.478 38.6502C108.478 38.6502 97.9178 53.4342 95.8542 52.8138C93.7906 52.1934 89.0342 42.971 89.0342 42.971L88.757 39.3234L85.6418 35.0334L81.6818 38.1574L83.6002 41.7258C83.6002 41.7258 84.1722 43.5782 85.8618 44.0974C85.8618 44.0974 89.747 56.0258 94.6618 58.2654C99.5766 60.505 106.397 46.293 106.397 46.293L108.478 38.6502Z" fill="#FFB573"/>
<path d="M131.085 146.385L125.633 148.457C118.593 132.996 112.873 87.9046 112.873 87.9046C112.873 87.9046 112.706 89.1674 112.455 91.2001C111.637 97.9321 109.903 113.064 110.255 118.48C110.814 127.593 109.204 150.112 109.204 150.112L102.604 150.895C102.604 150.895 102.828 128.635 101.886 116.302C100.945 103.969 103.827 72.3242 103.827 72.3242L122.03 71.4882C125.154 75.0786 125.932 119.268 126.716 123.329C127.499 127.39 131.085 146.385 131.085 146.385Z" fill="#454D66"/>
<path d="M102.032 40.8552C102.076 40.6131 102.169 40.3824 102.304 40.1768C102.439 39.9712 102.614 39.7949 102.819 39.6584C104.293 38.6728 108.073 36.2176 109.089 36.1384C110.365 36.0372 117.036 34.4708 119.68 36.1384C122.325 37.806 123.997 42.7076 123.997 42.7076C123.997 42.7076 123.803 65.3632 122.624 72.72L103.796 72.3284C103.796 72.3284 100.835 47.4948 102.032 40.8552Z" fill="#58B368"/>
<path d="M123.117 49.0824L126.056 54.4768C126.056 54.4768 126.447 66.6384 125.471 69.7756L123.997 72.7192V77.4404L127.517 77.9288L128.498 74.202C128.498 74.202 129.083 71.4564 128.498 70.2816C128.498 70.2816 132.616 60.8656 131.138 52.7256C131.138 52.7256 123.706 36.34 119.148 35.8868C114.589 35.4336 123.117 49.0824 123.117 49.0824Z" fill="#FFB573"/>
<path d="M117.115 35.9092C117.115 35.9092 114.206 38.7164 111.553 38.6372C108.9 38.558 109.626 36.2964 109.626 36.2964C110.99 36.0412 111.434 34.6772 111.562 33.5068C111.625 32.9218 111.625 32.3318 111.562 31.7468C111.562 31.7468 108.398 31.7468 106.621 27.8836C104.843 24.0204 106.621 18.9296 106.621 18.9296C106.621 18.9296 113.34 17.2312 116.349 18.0804C119.359 18.9296 116.97 26.4932 116.97 26.4932C116.186 30.7392 117.115 35.9092 117.115 35.9092Z" fill="#FFB573"/>
<path d="M111.219 22.9556C111.219 23.2592 111.052 23.5056 110.849 23.5056C110.647 23.5056 110.484 23.2592 110.484 22.9556C110.484 22.652 110.647 22.4056 110.849 22.4056C111.052 22.4056 111.219 22.652 111.219 22.9556Z" fill="#454D66"/>
<path d="M107.47 23.3205C107.47 23.6241 107.307 23.8705 107.105 23.8705C106.902 23.8705 106.735 23.6241 106.735 23.3205C106.735 23.0169 106.902 22.7705 107.105 22.7705C107.307 22.7705 107.47 23.0037 107.47 23.3205Z" fill="#454D66"/>
<path d="M108.711 23.5844V26.5367C108.468 26.6121 108.209 26.6138 107.965 26.5418C107.722 26.4697 107.505 26.3271 107.342 26.1319L108.711 23.5844Z" fill="#ED893E"/>
<path d="M109.965 27.052C109.965 27.052 111.531 27.052 112.103 25.7628" stroke="#454D66" stroke-linecap="round" stroke-linejoin="round"/>
<path d="M110.484 20.8356C110.484 20.8356 111.848 20.7256 112.244 21.5748" stroke="#454D66" stroke-linecap="round" stroke-linejoin="round"/>
<path d="M105.824 21.8727C105.932 21.6046 106.106 21.3682 106.33 21.1858C106.554 21.0033 106.821 20.8809 107.105 20.83" stroke="#454D66" stroke-linecap="round" stroke-linejoin="round"/>
<path opacity="0.2" d="M113.96 31.2754C113.34 32.1892 112.522 32.9517 111.567 33.5062C111.629 32.9212 111.629 32.3312 111.567 31.7462C112.388 31.7477 113.201 31.5877 113.96 31.2754Z" fill="black"/>
<path d="M110.77 38.7288L112.367 38.5792L112.816 41.9144L111.984 43.4412H111.034L110.145 41.7868L110.77 38.7288Z" fill="#454D66"/>
<path d="M116.921 34.5679C115.33 36.167 113.523 37.5368 111.553 38.6379L112.504 40.9963C112.504 40.9963 116.49 40.3099 118.197 35.5799L116.921 34.5679Z" fill="white"/>
<path d="M111.553 38.637L110.484 40.9954C110.484 40.9954 108.865 39.3982 108.478 36.3138L110.484 35.0334C110.484 35.0334 110.559 37.3434 111.553 38.637Z" fill="white"/>
<path d="M111.104 42.5627L110.017 56.6647L111.843 58.8823L113.529 56.5283L111.883 42.5627H111.104Z" fill="#454D66"/>
<path d="M118.325 24.3768C118.325 24.3768 114.471 24.8432 113.833 19.2596C113.833 19.2596 107.044 21.288 104.593 19.2068C102.142 17.1256 104.131 14.4196 104.131 14.4196C104.341 14.9461 104.593 15.4552 104.883 15.942V14.182C105.295 14.7233 105.75 15.2309 106.243 15.7C108.22 16.0182 110.246 15.627 111.963 14.5956C114.906 12.8356 118.651 16.1752 117.96 18.7492C117.982 18.7624 121.3 21.3496 118.325 24.3768Z" fill="#454D66"/>
<path d="M115.68 24.5356C115.68 24.5356 116.719 20.8528 118.426 22.1508C120.133 23.4488 117.7 27.0744 116.512 26.8676C115.324 26.6608 115.68 24.5356 115.68 24.5356Z" fill="#FFB573"/>
<path d="M85.7427 44.8807L89.4563 42.8303C89.4563 42.8303 93.4471 50.5391 95.7615 51.5071C95.7615 51.5071 100.465 46.7595 102.014 40.8151L104.121 50.7239C104.121 50.7239 100.474 58.4283 95.8627 58.5383C91.2515 58.6483 87.4719 49.8747 85.7427 44.8807Z" fill="#58B368"/>
<path d="M120.476 46.0154L126.073 55.0002L125.14 68.9174L129.351 69.7402C129.351 69.7402 132.594 60.0602 131.155 52.7342C130.112 47.4146 126.817 40.6694 122.993 37.4442C121.634 36.3302 119.953 35.6837 118.197 35.6006C118.197 35.6006 117.163 37.9854 117.216 40.0006C117.269 42.0158 120.476 46.0154 120.476 46.0154Z" fill="#58B368"/>
<path opacity="0.2" d="M123.847 51.4186L120.477 46.0154C120.767 46.4818 123.847 55.8186 123.847 55.8186V51.4186Z" fill="black"/>
<path opacity="0.2" d="M112.873 87.9042C112.873 87.9042 112.706 89.167 112.455 91.1998L111.575 80.499L112.873 87.9042Z" fill="black"/>
<path d="M128.819 153.05L132.233 151.462L131.252 148.782L130.535 146.824L127.595 147.682L127.05 147.929L127.89 150.371L128.819 153.05Z" fill="#FFB573"/>
<path opacity="0.2" d="M127.89 150.371L131.252 148.782L130.535 146.824L127.595 147.682L127.05 147.929L127.89 150.371Z" fill="black"/>
<path d="M128.124 153.5C128.124 153.5 125.563 150.526 124.789 151.234C124.014 151.942 128.124 153.5 128.124 153.5Z" stroke="#58B368" stroke-miterlimit="10"/>
<path d="M127.926 153.56C127.926 153.56 125.479 152.592 125.031 153.534C124.582 154.475 127.926 153.56 127.926 153.56Z" stroke="#58B368" stroke-miterlimit="10"/>
<path d="M128.599 151.581L132.167 150.137C132.416 150.037 132.695 150.04 132.943 150.145C133.19 150.249 133.386 150.448 133.487 150.696L134.64 153.561C134.69 153.684 134.716 153.816 134.715 153.949C134.714 154.082 134.687 154.214 134.635 154.337C134.583 154.459 134.507 154.57 134.412 154.664C134.317 154.757 134.205 154.831 134.081 154.881L123.939 158.977C123.816 159.028 123.683 159.053 123.55 159.052C123.416 159.051 123.284 159.024 123.161 158.972C123.039 158.919 122.927 158.843 122.834 158.747C122.741 158.651 122.668 158.538 122.619 158.414C122.529 158.191 122.52 157.944 122.595 157.716C122.67 157.488 122.824 157.294 123.028 157.169C124.375 156.346 127.173 154.419 128.027 152.166C128.075 152.033 128.151 151.913 128.25 151.812C128.348 151.711 128.467 151.632 128.599 151.581Z" fill="#454D66"/>
<path d="M103.871 156.417L107.633 156.325L107.8 153.474L107.924 151.392L104.888 151.01L104.289 151.018L104.087 153.592L103.871 156.417Z" fill="#FFB573"/>
<path opacity="0.2" d="M104.086 153.592L107.8 153.474L107.923 151.392L104.887 151.01L104.289 151.018L104.086 153.592Z" fill="black"/>
<path d="M103.053 156.552C103.053 156.552 101.891 152.803 100.901 153.146C99.9112 153.49 103.053 156.552 103.053 156.552Z" stroke="#58B368" stroke-miterlimit="10"/>
<path d="M102.837 156.548C102.837 156.548 100.98 154.682 100.197 155.368C99.4136 156.055 102.837 156.548 102.837 156.548Z" stroke="#58B368" stroke-miterlimit="10"/>
<path d="M104.254 154.982L108.104 155.083C108.238 155.087 108.369 155.116 108.491 155.17C108.613 155.225 108.723 155.303 108.815 155.399C108.907 155.496 108.979 155.61 109.027 155.735C109.075 155.86 109.098 155.992 109.094 156.126L109.01 159.206C109.007 159.339 108.977 159.47 108.923 159.592C108.869 159.714 108.791 159.824 108.694 159.915C108.597 160.007 108.483 160.079 108.358 160.126C108.234 160.173 108.101 160.196 107.968 160.192L97.0337 159.906C96.9004 159.902 96.7691 159.872 96.6473 159.818C96.5256 159.764 96.4157 159.686 96.3241 159.589C96.2325 159.492 96.161 159.378 96.1136 159.253C96.0663 159.129 96.044 158.996 96.0481 158.863C96.0553 158.622 96.1477 158.392 96.3089 158.213C96.47 158.034 96.6895 157.918 96.9281 157.886C98.4945 157.666 101.825 157.006 103.506 155.286C103.604 155.187 103.72 155.109 103.849 155.057C103.977 155.004 104.115 154.979 104.254 154.982Z" fill="#454D66"/>
<path d="M125.515 149.988L123.627 146.701L131.842 143.661L132.418 148.017L125.515 149.988Z" fill="#58B368"/>
<path d="M101.689 147.99V152.24H110.308L110.638 147.99H101.689Z" fill="#58B368"/>
<path d="M147.699 44.0967C147.699 44.0967 145.2 53.9527 142.56 57.0063C142.56 57.0063 137.768 52.2191 136.312 48.0523C136.312 48.0523 136.176 46.1075 134.785 45.2759L132.704 42.4291L129.232 43.6787L130.064 46.4551L133.676 48.4703C133.676 48.4703 138.257 61.1027 142.419 61.0323C146.582 60.9619 148.46 55.4091 148.46 55.4091L150.748 43.5291L147.699 44.0967Z" fill="#FF8B7B"/>
<path d="M133.76 49.6548L136.33 48.0532C136.33 48.0532 140.703 55.1988 142.749 56.6332C142.749 56.6332 145.297 51.9868 146.168 48.1632C146.625 46.0826 147.187 44.0266 147.853 42.0032L150.766 46.2228C150.766 46.2228 148.852 59.6604 144.892 61.0244C140.932 62.3884 138.692 58.5208 137.79 56.9984C136.888 55.476 133.76 49.6548 133.76 49.6548Z" fill="#454D66"/>
<path d="M155.782 146.384C155.782 146.546 158.422 150.278 158.422 150.278L161.185 146.705L158.207 142.485L155.782 146.384Z" fill="#FF8B7B"/>
<path d="M157.177 148.852L160.037 145.75C160.238 145.534 160.517 145.406 160.812 145.394C161.107 145.383 161.395 145.488 161.612 145.688L164.094 147.985C164.201 148.084 164.288 148.203 164.35 148.336C164.411 148.468 164.445 148.612 164.451 148.758C164.457 148.904 164.434 149.049 164.383 149.186C164.332 149.323 164.255 149.449 164.155 149.556L156.024 158.356C155.823 158.571 155.546 158.698 155.252 158.71C154.957 158.721 154.671 158.616 154.453 158.418C154.259 158.239 154.135 157.997 154.103 157.735C154.071 157.473 154.133 157.208 154.277 156.988C155.228 155.54 157.093 152.328 156.887 149.692C156.874 149.54 156.894 149.386 156.944 149.242C156.994 149.097 157.073 148.964 157.177 148.852Z" fill="#454D66"/>
<path d="M149.855 144.65L157.881 137.61L160.833 143.739L155.347 148.509L149.855 144.65Z" fill="#58B368"/>
<path d="M146.921 64.8794C146.921 64.8794 138.266 102.662 138.121 111.726C137.976 120.79 145.882 136.511 150.881 143.873L157.613 138.518L147.858 114.758L152.386 85.1722L157.613 145.118L164.072 145.945C164.072 145.945 164.895 123.276 164.072 115.035C163.249 106.794 167.825 78.7658 164.437 68.0474L146.921 64.8794Z" fill="#454D66"/>
<path d="M164.459 68.0384C164.459 68.0384 165.933 53.9848 168.762 48.4804L169.862 42.1136C169.862 42.1136 167.816 39.5968 163.178 39.676C158.541 39.7552 156.499 39.236 156.499 39.236C156.499 39.236 150.44 38.8268 149.019 40.1644C147.598 41.502 147.527 47.5564 147.29 50.4648C147.052 53.3732 146.498 66.7448 146.498 66.7448L164.459 68.0384Z" fill="#58B368"/>
<path d="M164.049 39.2094C164.049 39.2094 157.08 47.3713 158.4 68.0381L166.549 69.4373L165.44 60.8661L170.663 45.1977C170.663 45.1977 171.758 40.3182 164.049 39.2094Z" fill="#454D66"/>
<path d="M156.103 39.2093C156.103 39.2093 148.597 44.6917 148.02 65.7281L144.091 65.8381L147.307 49.0125C146.743 47.494 146.669 45.8365 147.096 44.2737C147.536 42.7601 148.011 40.9825 149.023 40.1465C150.634 38.8133 153.199 38.9277 156.103 39.2093Z" fill="#454D66"/>
<path d="M165.299 44.1451C165.299 44.1451 169.972 55.4883 168.82 60.0775C168.82 60.0775 160.759 58.0051 157.041 54.4015C157.041 54.4015 155.875 52.4347 153.961 52.2895L150.282 50.4019L147.299 53.5347L149.631 56.0075L154.471 56.2231C154.471 56.2231 165.911 67.0691 170.25 64.8075C172.278 63.7471 173.149 61.6879 173.501 59.7959C173.829 57.9392 173.727 56.032 173.202 54.2211L170.1 43.1199L165.299 44.1451Z" fill="#FF8B7B"/>
<path d="M154.176 57.3063L157.361 53.6015C157.361 53.6015 164.437 59.0575 168.801 60.0783C168.421 56.3511 167.833 52.648 167.041 48.9859L164.841 45.1975L165.044 43.6047L170.377 42.9139C170.377 42.9139 175.217 56.4439 173.932 61.3191C172.647 66.1943 169.888 66.6783 165.242 64.8787C160.595 63.0791 154.176 57.3063 154.176 57.3063Z" fill="#454D66"/>
<path d="M164.159 155.743H159.728L159.473 152.056L159.346 150.213L159.271 149.148L164.155 149.557V152.056L164.159 155.743Z" fill="#FF8B7B"/>
<path d="M159.54 154.094H163.759C164.054 154.094 164.338 154.211 164.546 154.42C164.755 154.628 164.872 154.912 164.872 155.207V158.59C164.871 158.885 164.753 159.167 164.545 159.375C164.336 159.583 164.054 159.699 163.759 159.699H151.774C151.628 159.7 151.483 159.672 151.348 159.616C151.213 159.561 151.09 159.479 150.987 159.376C150.883 159.273 150.801 159.151 150.745 159.016C150.689 158.881 150.66 158.736 150.66 158.59C150.66 158.327 150.753 158.072 150.923 157.87C151.093 157.669 151.329 157.534 151.589 157.49C153.3 157.209 156.926 156.399 158.721 154.454C158.825 154.341 158.952 154.25 159.093 154.188C159.233 154.126 159.386 154.094 159.54 154.094Z" fill="#454D66"/>
<path opacity="0.1" d="M164.05 39.2094C163.247 40.2711 162.568 41.421 162.026 42.6369C160.449 46.1184 159.391 49.8128 158.889 53.6017L164.05 49.4218L162.928 45.8269L169.207 41.2685C169.207 41.2685 167.565 39.601 164.05 39.2094Z" fill="white"/>
<path opacity="0.1" d="M150.014 50.7597C150.014 50.7597 152.5 41.8937 156.103 39.2097C156.103 39.2097 151.831 38.6157 149.864 39.6145L150.304 45.8273L148.469 46.4037L150.014 50.7597Z" fill="white"/>
<path d="M169.294 24.5315C170.139 26.6479 169.232 29.0283 169.316 31.3031C169.351 32.3415 169.598 33.3623 169.624 34.3831C169.65 35.4039 169.413 36.5303 168.652 37.2387C167.965 37.8855 166.984 38.0791 166.06 38.2507C164.617 38.5103 163.05 38.7567 161.757 38.0703C161.458 37.9119 161.185 37.7095 160.877 37.5775C160.238 37.3593 159.555 37.3004 158.888 37.4059C158.223 37.5131 157.542 37.4801 156.89 37.3091C154.831 36.5919 156.248 33.7583 156.6 32.3063C157.143 30.0828 157.682 27.8608 158.219 25.6403C160.441 25.2003 162.646 24.5843 164.872 24.1355C165.599 23.9281 166.365 23.895 167.107 24.0387C167.802 24.2499 168.599 24.7559 169.294 24.5315Z" fill="#454D66"/>
<path d="M169.352 28.9043C169.179 29.4823 168.808 29.9809 168.304 30.3123C167.79 30.5851 167.71 31.0691 167.754 31.6323C167.847 32.9523 168.564 34.8179 166.096 35.8739C165.733 36.0552 165.326 36.1281 164.923 36.0836C164.521 36.0391 164.139 35.8792 163.825 35.6231C162.092 34.2547 161.542 30.4179 161.542 30.4179L158.4 21.3583C158.41 21.3387 158.424 21.3208 158.44 21.3055L158.466 21.2571C158.477 21.2391 158.49 21.2227 158.506 21.2087C158.617 21.0537 158.739 20.9067 158.871 20.7687C158.969 20.6546 159.073 20.5459 159.183 20.4431C160.332 19.3783 162.703 18.0187 166.104 20.2891C169.84 22.7883 170.161 26.7439 169.352 28.9043Z" fill="#454D66"/>
<path d="M169.532 29.67C169.572 30.7216 168.604 31.3244 167.772 31.6544C167.366 31.8075 166.946 31.9209 166.518 31.9932C165.744 33.2824 164.067 34.1932 164.067 34.1932C163.942 34.6711 163.867 35.1606 163.843 35.654C163.798 36.8479 163.873 38.0434 164.067 39.2224L162.932 40.9824C158.202 43.1472 156.517 39.2224 156.517 39.2224C158.25 39.0376 158.805 37.5812 158.968 36.358C159.034 35.7967 159.034 35.2296 158.968 34.6684C158.199 34.3449 157.519 33.8428 156.983 33.2039C156.448 32.5649 156.072 31.8075 155.888 30.9944C155.329 28.6272 155.786 26.4008 156.768 24.214C157.162 23.3414 157.635 22.5064 158.18 21.7192L158.4 21.3628C158.41 21.3432 158.424 21.3253 158.44 21.31C158.459 21.2757 158.481 21.2433 158.506 21.2132V21.1824C158.585 21.0812 158.699 20.936 158.849 20.7776H158.875L164.811 20.0076L167.389 22.0668L168.291 27.1708L166.971 28.7416L166.421 29.3972L166.285 29.5556L166.456 29.4104C167.504 28.5304 168.841 28.0904 169.33 28.922C169.456 29.1515 169.525 29.408 169.532 29.67Z" fill="#FF8B7B"/>
<path d="M161.516 25.8589C161.441 26.1713 161.212 26.3869 161.01 26.3385C160.807 26.2901 160.697 25.9953 160.772 25.6785C160.847 25.3617 161.076 25.1505 161.282 25.1989C161.489 25.2473 161.595 25.5421 161.516 25.8589Z" fill="#454D66"/>
<path d="M158.136 24.9491C158.061 25.2659 157.832 25.4815 157.626 25.4331C157.419 25.3847 157.313 25.0855 157.388 24.7731C157.463 24.4608 157.692 24.2408 157.898 24.2892C158.105 24.3376 158.211 24.6411 158.136 24.9491Z" fill="#454D66"/>
<path d="M161.335 25.2211L160.521 24.7811C160.521 24.7811 160.661 25.6127 161.335 25.2211Z" fill="#454D66"/>
<path d="M157.96 24.3362L157.146 23.8962C157.146 23.8962 157.3 24.7322 157.96 24.3362Z" fill="#454D66"/>
<path d="M158.964 25.3232L158.189 28.1084C158.085 28.1413 157.974 28.1527 157.865 28.142C157.756 28.1313 157.651 28.0986 157.554 28.046C157.458 27.9934 157.374 27.922 157.306 27.8359C157.238 27.7499 157.188 27.651 157.16 27.5452L158.964 25.3232Z" fill="#FF5652"/>
<path d="M159.13 30.0442C159.13 30.0442 161.053 30.3302 161.603 28.7242" stroke="#454D66" stroke-linecap="round" stroke-linejoin="round"/>
<path d="M161.542 23.6771C161.705 23.5918 161.883 23.5406 162.066 23.5267C162.25 23.5128 162.434 23.5364 162.608 23.5961C162.781 23.6559 162.941 23.7504 163.077 23.8741C163.213 23.9977 163.323 24.1478 163.399 24.3151" stroke="#454D66" stroke-linecap="round" stroke-linejoin="round"/>
<path d="M158.862 22.5254C158.717 22.4284 158.553 22.3634 158.381 22.3349C158.208 22.3063 158.032 22.3148 157.863 22.3598C157.695 22.4048 157.538 22.4852 157.403 22.5957C157.267 22.7062 157.157 22.8442 157.08 23.0006" stroke="#454D66" stroke-linecap="round" stroke-linejoin="round"/>
<path d="M168.758 27.2408L166.478 29.3924H166.443C162.633 28.1604 163.398 21.1204 163.398 21.1204C162.32 21.8068 158.501 21.4284 158.4 21.3492C158.606 21.044 158.844 20.7609 159.108 20.5044C159.276 20.3416 159.808 20.39 160.028 20.3724L161.432 20.2624L164.274 20.0336C164.358 20.0336 164.754 19.9324 164.824 19.9896L167.402 22.0488L168.758 27.2408Z" fill="#454D66"/>
<path opacity="0.2" d="M160.908 34.9673C160.411 35.6171 159.728 36.1005 158.95 36.3533C159.017 35.7921 159.017 35.2249 158.95 34.6637C159.583 34.8644 160.244 34.9668 160.908 34.9673Z" fill="black"/>
<path opacity="0.3" d="M151.435 91.5108L151.923 78.9489L152.407 85.1617L151.435 91.5108Z" fill="black"/>
<path opacity="0.1" d="M164.155 149.984V152.056H159.473L159.346 150.213L164.155 149.984Z" fill="black"/>
<path d="M156.671 144.954L157.806 151.311H164.767L165.726 144.65L156.671 144.954Z" fill="#58B368"/>
</g>
<defs>
<clipPath id="clip0_1:6251">
<rect width="220" height="164.56" fill="white"/>
</clipPath>
</defs>
</svg>
