<svg width="242" height="180" viewBox="0 0 242 180" fill="none" xmlns="http://www.w3.org/2000/svg">
<path d="M114.37 136.472H21.1896C20.4597 136.471 19.76 136.18 19.2443 135.663C18.7286 135.146 18.439 134.446 18.439 133.716V2.73137C18.4453 2.00559 18.7378 1.31163 19.2528 0.800213C19.7678 0.2888 20.4638 0.0012433 21.1896 0H114.37C115.101 0 115.801 0.29031 116.318 0.807066C116.835 1.32382 117.125 2.02469 117.125 2.7555V133.716C117.125 134.447 116.835 135.148 116.318 135.665C115.801 136.182 115.101 136.472 114.37 136.472ZM21.1896 0.0965151C20.4917 0.0977935 19.8227 0.375956 19.3296 0.869949C18.8365 1.36394 18.5596 2.0334 18.5596 2.73137V133.716C18.5596 134.414 18.8365 135.084 19.3296 135.578C19.8227 136.072 20.4917 136.35 21.1896 136.351H114.37C115.068 136.35 115.738 136.072 116.232 135.578C116.725 135.084 117.003 134.415 117.005 133.716V2.73137C117.003 2.03295 116.725 1.36351 116.232 0.869654C115.738 0.3758 115.068 0.0977908 114.37 0.0965151H21.1896Z" fill="#EAEAEA"/>
<path d="M218.755 136.472H125.57C124.84 136.471 124.14 136.18 123.623 135.663C123.107 135.147 122.816 134.447 122.815 133.716V2.73137C122.823 2.00515 123.116 1.31119 123.632 0.799911C124.148 0.288632 124.844 0.00122974 125.57 0H218.755C219.48 0.00251155 220.175 0.29063 220.689 0.801906C221.203 1.31318 221.495 2.00642 221.501 2.73137V133.716C221.501 134.445 221.212 135.145 220.698 135.661C220.183 136.178 219.485 136.469 218.755 136.472ZM125.57 0.0965151C124.872 0.0977908 124.203 0.3758 123.709 0.869654C123.215 1.36351 122.937 2.03295 122.936 2.73137V133.716C122.937 134.415 123.215 135.084 123.709 135.578C124.203 136.072 124.872 136.35 125.57 136.351H218.755C219.454 136.35 220.123 136.072 220.617 135.578C221.111 135.084 221.389 134.415 221.39 133.716V2.73137C221.389 2.03295 221.111 1.36351 220.617 0.869654C220.123 0.3758 219.454 0.0977908 218.755 0.0965151H125.57Z" fill="#EAEAEA"/>
<path d="M217.11 165.762H201.127V165.882H217.11V165.762Z" fill="#EAEAEA"/>
<path d="M159.838 167.071H155.645V167.192H159.838V167.071Z" fill="#EAEAEA"/>
<path d="M200.644 161.281H191.384V161.401H200.644V161.281Z" fill="#EAEAEA"/>
<path d="M46.1578 162.09H25.3154V162.21H46.1578V162.09Z" fill="#EAEAEA"/>
<path d="M53.5127 162.09H50.458V162.21H53.5127V162.09Z" fill="#EAEAEA"/>
<path d="M108.652 164.128H63.4443V164.249H108.652V164.128Z" fill="#EAEAEA"/>
<path d="M241.287 157.995H0V158.116H241.287V157.995Z" fill="#EAEAEA"/>
<path d="M74.7701 19.3789H18.0098V103.25H74.7701V19.3789Z" fill="#E0E0E0"/>
<path d="M76.859 19.3789H20.0986V103.25H76.859V19.3789Z" fill="#F0F0F0"/>
<path d="M73.9881 63.7195H22.8594V98.3393H73.9881V63.7195Z" fill="#EAEAEA"/>
<path d="M73.9881 22.7891H22.8594V63.721H73.9881V22.7891Z" fill="white"/>
<path d="M73.9885 22.7891H72.1885V98.3408H73.9885V22.7891Z" fill="#E0E0E0"/>
<path d="M22.7002 63.7227V65.5469H72.3812V63.7227H22.7002Z" fill="#E0E0E0"/>
<path d="M73.9884 60.6523H21.8945V63.7167H73.9884V60.6523Z" fill="#F0F0F0"/>
<path d="M211.449 118.969H142.268C137.025 118.969 132.775 123.219 132.775 128.461V149.052C132.775 154.295 137.025 158.545 142.268 158.545H211.449C216.692 158.545 220.942 154.295 220.942 149.052V128.461C220.942 123.219 216.692 118.969 211.449 118.969Z" fill="#E0E0E0"/>
<path d="M206.802 119.259H137.621C132.378 119.259 128.128 123.509 128.128 128.751V149.342C128.128 154.585 132.378 158.835 137.621 158.835H206.802C212.045 158.835 216.295 154.585 216.295 149.342V128.751C216.295 123.509 212.045 119.259 206.802 119.259Z" fill="#F5F5F5"/>
<path d="M139.319 122.993H205.625C206.496 122.993 207.358 123.165 208.162 123.498C208.967 123.831 209.698 124.32 210.313 124.935C210.929 125.551 211.418 126.282 211.751 127.086C212.084 127.891 212.255 128.753 212.255 129.624V137.76H132.708V129.619C132.709 127.865 133.406 126.182 134.645 124.94C135.884 123.698 137.565 122.998 139.319 122.993Z" fill="#E0E0E0"/>
<path d="M132.708 139.754H212.255V147.89C212.255 149.649 211.557 151.335 210.313 152.579C209.07 153.822 207.383 154.521 205.625 154.521H139.319C137.564 154.516 135.883 153.815 134.643 152.572C133.404 151.329 132.708 149.645 132.708 147.89V139.754Z" fill="#E0E0E0"/>
<path d="M190.853 125.851H176.284V137.852H190.853V125.851Z" fill="#E6E6E6"/>
<path d="M176.284 125.851H172.554V137.852H176.284V125.851Z" fill="#F5F5F5"/>
<path d="M175.657 134.636C175.657 134.878 175.585 135.115 175.45 135.317C175.315 135.518 175.124 135.676 174.9 135.768C174.676 135.861 174.429 135.885 174.192 135.838C173.954 135.791 173.736 135.674 173.564 135.503C173.393 135.331 173.276 135.113 173.229 134.875C173.181 134.637 173.206 134.391 173.298 134.167C173.391 133.943 173.548 133.751 173.75 133.617C173.951 133.482 174.188 133.41 174.431 133.41C174.756 133.41 175.068 133.539 175.298 133.769C175.527 133.999 175.657 134.311 175.657 134.636Z" fill="#E0E0E0"/>
<path d="M194.675 123.996H183.73V137.851H194.675V123.996Z" fill="#E6E6E6"/>
<path d="M183.735 123.996H180.569V137.851H183.735V123.996Z" fill="#F5F5F5"/>
<path d="M182.152 127.093C182.752 127.093 183.238 126.607 183.238 126.008C183.238 125.408 182.752 124.922 182.152 124.922C181.553 124.922 181.066 125.408 181.066 126.008C181.066 126.607 181.553 127.093 182.152 127.093Z" fill="#E0E0E0"/>
<path d="M182.152 127.093C182.752 127.093 183.238 126.607 183.238 126.008C183.238 125.408 182.752 124.922 182.152 124.922C181.553 124.922 181.066 125.408 181.066 126.008C181.066 126.607 181.553 127.093 182.152 127.093Z" fill="#E0E0E0"/>
<path d="M196.181 125.851H186.954V137.852H196.181V125.851Z" fill="#EAEAEA"/>
<path d="M186.954 125.851H184.845V137.852H186.954V125.851Z" fill="#F5F5F5"/>
<path d="M206.609 127.882H194.506V137.857H206.609V127.882Z" fill="#E6E6E6"/>
<path d="M194.506 127.882H191.408V137.857H194.506V127.882Z" fill="#F5F5F5"/>
<path d="M209.78 126.343H200.688V137.853H209.78V126.343Z" fill="#E6E6E6"/>
<path d="M200.697 126.343H198.067V137.853H200.697V126.343Z" fill="#F5F5F5"/>
<path d="M212.202 127.882H203.371V137.857H212.202V127.882Z" fill="#E6E6E6"/>
<path d="M203.367 127.882H201.615V137.857H203.367V127.882Z" fill="#F0F0F0"/>
<path d="M156.031 142.062H144.753V154.064H156.031V142.062Z" fill="#E6E6E6"/>
<path d="M144.758 142.062H141.867V154.064H144.758V142.062Z" fill="#F5F5F5"/>
<path d="M158.984 140.207H150.515V154.062H158.984V140.207Z" fill="#E6E6E6"/>
<path d="M150.52 140.207H148.073V154.062H150.52V140.207Z" fill="#F5F5F5"/>
<path d="M194.501 142.062H183.224V154.064H194.501V142.062Z" fill="#E6E6E6"/>
<path d="M183.229 142.062H180.338V154.064H183.229V142.062Z" fill="#F5F5F5"/>
<path d="M197.455 140.207H188.985V154.062H197.455V140.207Z" fill="#E6E6E6"/>
<path d="M188.995 140.207H186.544V154.062H188.995V140.207Z" fill="#F5F5F5"/>
<path d="M160.157 142.062H153.015V154.064H160.157V142.062Z" fill="#EAEAEA"/>
<path d="M153.015 142.062H151.384V154.064H153.015V142.062Z" fill="#F5F5F5"/>
<path d="M168.225 144.09H158.858V154.065H168.225V144.09Z" fill="#E6E6E6"/>
<path d="M158.858 144.09H156.46V154.065H158.858V144.09Z" fill="#F5F5F5"/>
<path d="M170.681 142.551H163.646V154.06H170.681V142.551Z" fill="#E6E6E6"/>
<path d="M163.65 142.551H161.613V154.06H163.65V142.551Z" fill="#F5F5F5"/>
<path d="M172.559 144.09H165.721V154.065H172.559V144.09Z" fill="#E6E6E6"/>
<path d="M165.715 144.09H164.359V154.065H165.715V144.09Z" fill="#F0F0F0"/>
<path d="M164.292 107.458C164.174 107.228 163.985 107.041 163.753 106.926C163.521 106.81 163.259 106.772 163.004 106.816C162.747 106.879 162.516 107.02 162.343 107.22C162.17 107.419 162.064 107.668 162.038 107.931C161.863 107.801 161.652 107.728 161.433 107.722C161.215 107.716 161 107.777 160.817 107.897C160.635 108.03 160.493 108.21 160.408 108.419C160.322 108.628 160.297 108.857 160.335 109.079C160.234 109.005 160.118 108.953 159.995 108.926C159.872 108.899 159.745 108.898 159.622 108.923C159.499 108.948 159.383 108.998 159.28 109.071C159.178 109.144 159.092 109.237 159.027 109.345C158.908 109.577 158.884 109.846 158.958 110.096C159.033 110.346 159.201 110.557 159.428 110.686C159.271 110.709 159.129 110.789 159.027 110.91C158.925 111.031 158.871 111.185 158.875 111.343C158.879 111.501 158.941 111.652 159.049 111.768C159.157 111.883 159.304 111.955 159.461 111.97C159.299 111.982 159.147 112.051 159.03 112.163C158.912 112.276 158.838 112.426 158.82 112.588C158.802 112.75 158.84 112.913 158.928 113.051C159.016 113.189 159.148 113.293 159.302 113.345C159.226 113.389 159.16 113.45 159.111 113.523C159.061 113.595 159.028 113.678 159.015 113.765C159.001 113.852 159.008 113.941 159.033 114.026C159.059 114.11 159.103 114.188 159.162 114.252C159.23 114.306 159.31 114.341 159.395 114.356C159.48 114.372 159.567 114.366 159.65 114.34C159.732 114.314 159.806 114.268 159.867 114.206C159.928 114.145 159.972 114.07 159.997 113.987C160.009 114.011 160.027 114.032 160.048 114.047C160.07 114.063 160.095 114.074 160.121 114.078C160.147 114.082 160.174 114.08 160.2 114.072C160.225 114.064 160.248 114.049 160.267 114.031C160.284 114.009 160.297 113.984 160.304 113.957C160.311 113.93 160.312 113.902 160.307 113.875C160.303 113.848 160.293 113.822 160.277 113.799C160.262 113.776 160.242 113.756 160.219 113.741C160.258 113.785 160.308 113.818 160.364 113.835C160.42 113.853 160.48 113.854 160.537 113.84C160.594 113.825 160.646 113.795 160.687 113.753C160.728 113.711 160.756 113.658 160.769 113.601C160.751 113.738 160.768 113.878 160.82 114.006C160.872 114.134 160.956 114.247 161.065 114.333C161.174 114.418 161.303 114.474 161.44 114.495C161.576 114.516 161.716 114.5 161.845 114.45C161.818 114.514 161.805 114.583 161.806 114.652C161.808 114.721 161.824 114.789 161.855 114.851C161.885 114.913 161.928 114.969 161.981 115.013C162.035 115.057 162.097 115.089 162.164 115.107C162.433 115.151 162.709 115.096 162.941 114.952C163.171 114.808 163.432 114.72 163.703 114.696C163.938 114.726 164.167 114.79 164.384 114.885C164.747 114.995 165.134 115.001 165.502 114.904C165.869 114.807 166.202 114.61 166.464 114.335C166.562 114.447 166.686 114.533 166.827 114.585C166.967 114.637 167.118 114.652 167.265 114.63C167.413 114.608 167.553 114.549 167.671 114.458C167.79 114.368 167.884 114.249 167.945 114.113C167.969 114.253 168.039 114.381 168.144 114.476C168.25 114.571 168.385 114.627 168.527 114.635C168.668 114.644 168.809 114.604 168.925 114.522C169.041 114.44 169.126 114.321 169.166 114.185V114.561C169.298 114.572 169.43 114.55 169.55 114.497C169.671 114.444 169.777 114.361 169.857 114.256C169.937 114.151 169.99 114.028 170.01 113.897C170.03 113.767 170.017 113.633 169.972 113.509C170.162 113.502 170.343 113.428 170.483 113.3C170.624 113.171 170.714 112.998 170.739 112.81C170.761 112.619 170.716 112.427 170.612 112.266C170.508 112.106 170.352 111.985 170.17 111.926C170.481 111.825 170.752 111.628 170.946 111.364C171.139 111.101 171.245 110.783 171.248 110.455C171.251 110.128 171.152 109.808 170.963 109.541C170.775 109.273 170.508 109.071 170.199 108.963C170.082 108.919 169.955 108.905 169.831 108.922C169.707 108.94 169.589 108.989 169.489 109.065C169.441 109.107 169.403 109.158 169.376 109.216C169.35 109.274 169.336 109.337 169.336 109.4C169.336 109.464 169.35 109.527 169.376 109.585C169.403 109.642 169.441 109.694 169.489 109.736C169.574 109.437 169.561 109.12 169.451 108.829C169.342 108.539 169.142 108.292 168.881 108.124C168.615 107.982 168.307 107.94 168.012 108.003C167.717 108.067 167.454 108.232 167.269 108.471C167.358 108.339 167.405 108.184 167.405 108.025C167.405 107.866 167.358 107.711 167.269 107.578C167.183 107.453 167.058 107.359 166.913 107.311C166.769 107.264 166.613 107.264 166.468 107.313C166.433 107.114 166.324 106.936 166.163 106.813C166.002 106.691 165.801 106.633 165.6 106.652C165.4 106.697 165.224 106.812 165.103 106.977C164.982 107.143 164.926 107.346 164.943 107.55C164.928 107.47 164.889 107.398 164.831 107.341C164.774 107.284 164.701 107.246 164.621 107.231C164.542 107.216 164.46 107.225 164.386 107.257C164.312 107.288 164.249 107.342 164.205 107.41C164.007 107.347 164.292 107.458 164.292 107.458Z" fill="#EAEAEA"/>
<path d="M164.437 111.317C164.358 111.259 164.269 111.217 164.173 111.193C164.078 111.17 163.979 111.166 163.882 111.182C163.787 111.2 163.699 111.246 163.628 111.312C163.557 111.379 163.506 111.464 163.482 111.558C163.462 111.654 163.479 111.753 163.529 111.837C163.579 111.921 163.658 111.984 163.752 112.012C163.979 112.07 164.21 111.877 164.442 111.91C164.529 111.91 164.606 111.963 164.688 111.983C164.864 112.003 165.042 111.983 165.209 111.924C165.376 111.866 165.528 111.77 165.653 111.645C165.757 111.579 165.847 111.494 165.919 111.394C165.955 111.344 165.976 111.286 165.982 111.224C165.987 111.163 165.975 111.102 165.948 111.047C165.893 110.981 165.821 110.931 165.74 110.905C165.659 110.878 165.572 110.876 165.489 110.897C165.146 110.935 164.821 111.07 164.553 111.288L164.577 111.129L164.437 111.317Z" fill="#FAFAFA"/>
<path d="M169.325 111.027C169.239 110.955 169.139 110.903 169.031 110.873C168.978 110.856 168.921 110.855 168.867 110.87C168.813 110.884 168.765 110.914 168.727 110.955C168.689 111.021 168.676 111.099 168.692 111.174C168.708 111.249 168.752 111.315 168.814 111.36C168.94 111.445 169.087 111.495 169.239 111.505C169.398 111.529 169.591 111.534 169.668 111.399C169.691 111.346 169.696 111.288 169.683 111.232C169.67 111.177 169.639 111.127 169.596 111.09C169.507 111.018 169.403 110.967 169.292 110.94L169.325 111.027Z" fill="#FAFAFA"/>
<path d="M161.599 108.482C161.444 108.548 161.306 108.651 161.198 108.781C161.09 108.911 161.014 109.065 160.977 109.23C160.958 109.277 160.955 109.329 160.967 109.378C160.979 109.427 161.006 109.472 161.044 109.505C161.078 109.519 161.114 109.527 161.151 109.527C161.187 109.527 161.223 109.519 161.257 109.505L162.149 109.293C162.004 109.34 161.868 109.413 161.749 109.51C161.689 109.557 161.643 109.62 161.616 109.691C161.589 109.762 161.581 109.84 161.595 109.915C161.624 110 161.68 110.074 161.755 110.125C161.83 110.175 161.919 110.2 162.01 110.195C162.187 110.18 162.355 110.111 162.492 109.997C162.576 109.949 162.647 109.883 162.702 109.804C162.756 109.724 162.792 109.634 162.806 109.539C162.806 109.35 162.565 109.172 162.42 109.293C162.762 109.199 163.088 109.053 163.385 108.858C163.493 108.79 163.586 108.702 163.66 108.598C163.696 108.544 163.718 108.482 163.723 108.418C163.728 108.354 163.716 108.289 163.689 108.231C163.385 107.676 162.999 108.491 162.811 108.564C162.458 108.704 162.053 108.289 161.599 108.482Z" fill="#FAFAFA"/>
<path d="M160.215 110.851C160.196 110.905 160.194 110.964 160.207 111.019C160.221 111.075 160.25 111.125 160.292 111.165C160.314 111.182 160.339 111.193 160.366 111.199C160.393 111.206 160.42 111.206 160.447 111.2C160.474 111.195 160.5 111.184 160.522 111.168C160.544 111.152 160.563 111.131 160.577 111.107C160.37 111.146 160.182 111.251 160.041 111.406C160.009 111.446 159.985 111.493 159.973 111.543C159.961 111.593 159.96 111.646 159.97 111.696C159.98 111.747 160.001 111.795 160.032 111.836C160.062 111.878 160.102 111.912 160.147 111.937C160.212 111.948 160.278 111.947 160.342 111.932C160.406 111.917 160.466 111.889 160.519 111.85C160.843 111.674 161.151 111.471 161.44 111.242C161.354 111.45 161.566 111.681 161.788 111.725C162.013 111.72 162.231 111.644 162.41 111.507C162.647 111.363 162.893 111.146 162.854 110.88C162.807 110.772 162.723 110.685 162.616 110.635C162.509 110.586 162.388 110.577 162.275 110.61C162.053 110.702 161.859 110.85 161.711 111.039C161.836 110.861 161.662 110.586 161.44 110.557C161.333 110.551 161.226 110.572 161.128 110.618C161.031 110.663 160.946 110.732 160.881 110.817C161.132 110.677 161.185 110.335 160.852 110.282C160.63 110.229 160.263 110.673 160.215 110.851Z" fill="#FAFAFA"/>
<path d="M167.043 110.054C166.995 110.039 166.944 110.032 166.894 110.036C166.844 110.04 166.795 110.054 166.75 110.077C166.705 110.1 166.665 110.131 166.633 110.17C166.6 110.208 166.575 110.252 166.56 110.3C166.55 110.349 166.55 110.399 166.559 110.447C166.569 110.496 166.588 110.542 166.615 110.583C166.643 110.625 166.678 110.66 166.719 110.688C166.76 110.715 166.806 110.735 166.854 110.744C166.708 110.759 166.573 110.83 166.478 110.942C166.45 110.973 166.428 111.008 166.414 111.047C166.4 111.086 166.394 111.128 166.396 111.169C166.411 111.228 166.445 111.28 166.494 111.316C166.542 111.353 166.601 111.373 166.661 111.372C166.785 111.366 166.905 111.333 167.014 111.275C166.893 111.274 166.774 111.307 166.671 111.372C166.646 111.389 166.625 111.41 166.608 111.436C166.592 111.461 166.581 111.49 166.576 111.52C166.571 111.549 166.572 111.58 166.579 111.609C166.586 111.639 166.6 111.666 166.618 111.69C166.659 111.719 166.707 111.737 166.757 111.742C166.806 111.747 166.857 111.739 166.903 111.719C167.123 111.661 167.326 111.548 167.491 111.391C167.55 111.461 167.624 111.517 167.708 111.553C167.792 111.589 167.883 111.604 167.974 111.599C168.019 111.592 168.062 111.576 168.101 111.551C168.14 111.527 168.173 111.496 168.2 111.458C168.226 111.421 168.244 111.378 168.253 111.334C168.263 111.289 168.263 111.243 168.254 111.198C168.228 111.137 168.187 111.084 168.133 111.044C168.079 111.005 168.016 110.982 167.95 110.976C167.817 110.969 167.684 110.989 167.559 111.034C167.699 110.958 167.809 110.837 167.873 110.691C167.921 110.542 167.82 110.339 167.66 110.354C167.501 110.368 167.395 110.604 167.255 110.691C167.096 110.532 167.419 110.194 167.043 110.054Z" fill="#FAFAFA"/>
<path d="M163.853 109.319C163.758 109.396 163.685 109.495 163.639 109.609C163.593 109.722 163.577 109.845 163.592 109.966C163.592 110.101 163.628 110.234 163.696 110.351C163.764 110.467 163.861 110.564 163.978 110.632C164.062 110.658 164.15 110.665 164.237 110.655C164.323 110.644 164.407 110.615 164.481 110.569C164.556 110.523 164.62 110.462 164.669 110.39C164.717 110.317 164.75 110.235 164.765 110.149C164.783 109.973 164.746 109.796 164.66 109.641C164.573 109.487 164.442 109.362 164.282 109.285C164.213 109.257 164.138 109.246 164.064 109.251C163.989 109.257 163.917 109.28 163.853 109.319Z" fill="#FAFAFA"/>
<path d="M166.111 109.027L166.194 109.1C166.16 109.054 166.117 109.016 166.067 108.988C166.018 108.959 165.963 108.942 165.906 108.937C165.85 108.931 165.792 108.938 165.738 108.956C165.684 108.974 165.635 109.003 165.593 109.042C165.551 109.08 165.518 109.127 165.495 109.179C165.473 109.231 165.461 109.288 165.462 109.345C165.463 109.402 165.475 109.458 165.499 109.51C165.523 109.561 165.557 109.607 165.6 109.645C165.685 109.717 165.795 109.753 165.906 109.745C166.017 109.736 166.12 109.685 166.194 109.601C166.309 109.659 166.44 109.677 166.567 109.653C166.694 109.63 166.81 109.566 166.898 109.471C166.973 109.369 167.005 109.241 166.987 109.116C166.969 108.99 166.903 108.877 166.802 108.8C166.746 108.773 166.684 108.76 166.622 108.763C166.56 108.765 166.499 108.783 166.446 108.815C166.392 108.846 166.347 108.89 166.315 108.943C166.283 108.997 166.264 109.057 166.261 109.119L166.165 109.013L166.111 109.027Z" fill="#FAFAFA"/>
<path d="M168.606 109.435C168.432 109.577 168.298 109.764 168.22 109.975C168.186 110.082 168.194 110.198 168.241 110.3C168.288 110.402 168.372 110.482 168.476 110.526C168.693 110.579 168.896 110.4 169.021 110.217C169.084 110.137 169.128 110.045 169.15 109.947C169.173 109.848 169.173 109.746 169.152 109.647C169.089 109.454 168.814 109.343 168.669 109.488L168.606 109.435Z" fill="#FAFAFA"/>
<path d="M165.012 108.125C164.988 108.082 164.957 108.043 164.918 108.012C164.88 107.982 164.836 107.959 164.789 107.945C164.742 107.932 164.692 107.928 164.643 107.934C164.594 107.94 164.547 107.956 164.505 107.98C164.422 108.037 164.361 108.121 164.332 108.218C164.303 108.314 164.308 108.418 164.346 108.511C164.388 108.605 164.455 108.686 164.54 108.745C164.625 108.804 164.725 108.838 164.828 108.844C165.069 108.868 165.359 108.67 165.311 108.429C165.369 108.498 165.443 108.551 165.528 108.583C165.613 108.614 165.704 108.623 165.793 108.607C165.965 108.58 166.129 108.518 166.276 108.424C166.483 108.303 166.701 108.125 166.681 107.888C166.666 107.794 166.619 107.708 166.548 107.643C166.477 107.579 166.386 107.542 166.29 107.536C166.196 107.532 166.101 107.547 166.012 107.58C165.924 107.613 165.842 107.664 165.774 107.729C165.663 107.826 165.566 107.942 165.446 108.028C165.388 108.076 165.318 108.106 165.244 108.117C165.17 108.127 165.095 108.116 165.026 108.086L165.012 108.125Z" fill="#FAFAFA"/>
<path d="M168.08 119.101H161.898L161.295 112.871H168.683L168.08 119.101Z" fill="#F0F0F0"/>
<path d="M169.166 113.193H160.755L160.605 112.363H169.316L169.166 113.193Z" fill="#FAFAFA"/>
<path d="M161.662 137.837H154.568L156.793 130.675L157.116 129.633H158.723L161.662 137.837Z" fill="#EAEAEA"/>
<path d="M157.116 129.633L156.793 130.675L154.568 137.837L148.01 137.74L145.901 130.675L145.578 129.633H157.116Z" fill="#E0E0E0"/>
<path d="M157.116 129.633L156.793 130.675L154.568 137.837L141.1 137.639L143.971 129.633H157.116Z" fill="#FAFAFA"/>
<path d="M157.116 129.633L156.793 130.675H143.6L143.971 129.633H157.116Z" fill="#EAEAEA"/>
<path d="M145.627 134.078H142.668L143.701 131.183L146.529 131.212L145.627 134.078ZM143.011 133.837H145.424L146.177 131.424L143.846 131.4L143.011 133.837Z" fill="#EAEAEA"/>
<path d="M148.937 134.078H145.979L147.006 131.183L149.839 131.212L148.937 134.078ZM146.316 133.837H148.758L149.511 131.424L147.18 131.4L146.316 133.837Z" fill="#EAEAEA"/>
<path d="M152.242 134.078H149.284L150.317 131.183L153.145 131.212L152.242 134.078ZM149.627 133.837H152.069L152.817 131.424L150.486 131.4L149.627 133.837Z" fill="#EAEAEA"/>
<path d="M155.553 134.078H152.595L153.627 131.183L156.455 131.212L155.553 134.078ZM152.937 133.837H155.389L156.142 131.424L153.811 131.4L152.937 133.837Z" fill="#EAEAEA"/>
<path d="M144.594 137.173H141.636L142.668 134.277L145.496 134.311L144.594 137.173ZM141.978 136.932H144.415L145.168 134.519H142.837L141.978 136.932Z" fill="#EAEAEA"/>
<path d="M147.903 137.173H144.945L145.978 134.277L148.806 134.311L147.903 137.173ZM145.288 136.932H147.725L148.478 134.519H146.147L145.288 136.932Z" fill="#EAEAEA"/>
<path d="M151.209 137.173H148.251L149.284 134.277L152.112 134.311L151.209 137.173ZM148.594 136.932H151.045L151.798 134.519H149.462L148.594 136.932Z" fill="#EAEAEA"/>
<path d="M154.52 137.173H151.562L152.594 134.277L155.422 134.311L154.52 137.173ZM151.904 136.932H154.341L155.094 134.519H152.763L151.904 136.932Z" fill="#EAEAEA"/>
<path d="M199.404 115.235C199.404 116.755 199.646 117.74 200.046 118.372C200.2 118.603 200.41 118.792 200.656 118.921C200.903 119.05 201.177 119.115 201.455 119.11H203.646C203.923 119.115 204.197 119.049 204.443 118.92C204.688 118.791 204.897 118.603 205.05 118.372C205.456 117.74 205.692 116.755 205.692 115.235C205.692 113.03 204.727 111.264 204.418 109.854C204.302 109.348 204.679 107.789 204.679 107.789H200.408C200.408 107.789 200.784 109.348 200.669 109.854C200.365 111.264 199.404 113.03 199.404 115.235Z" fill="#F0F0F0"/>
<path d="M203.979 97.1406C203.533 97.2647 203.135 97.5224 202.84 97.879C202.42 98.4387 203.144 99.7514 203.144 99.7514C203.344 99.9469 203.587 100.093 203.853 100.176C204.12 100.26 204.403 100.28 204.679 100.234L205.533 100.026C205.533 100.026 204.611 97.4784 203.984 97.3095L203.979 97.1406Z" fill="#EAEAEA"/>
<path d="M207.337 97.7539C207.226 98.8783 206.28 100.138 205.277 100.041C204.273 99.9447 203.602 98.5115 203.713 97.3919C203.824 96.2724 204.645 96.311 205.643 96.4268C206.642 96.5426 207.453 96.6343 207.337 97.7539Z" fill="#EAEAEA"/>
<path d="M204.515 96.8867C204.515 96.8867 205.156 97.6299 206.773 97.572C206.773 97.572 204.018 98.7398 204.515 96.8867Z" fill="#EAEAEA"/>
<path d="M205.22 96.7972C205.22 96.7972 206.117 96.7972 206.064 97.1736C206.064 97.1736 206.807 97.2701 206.764 96.9419C206.721 96.6138 205.22 96.7972 205.22 96.7972Z" fill="#EAEAEA"/>
<path d="M204.515 96.8867C204.515 96.8867 205.156 97.6299 206.773 97.572C206.773 97.572 204.018 98.7398 204.515 96.8867Z" fill="#E0E0E0"/>
<path d="M205.22 96.7972C205.22 96.7972 206.117 96.7972 206.064 97.1736C206.064 97.1736 206.807 97.2701 206.764 96.9419C206.721 96.6138 205.22 96.7972 205.22 96.7972Z" fill="#E0E0E0"/>
<path d="M203.559 100.076C203.679 100.357 203.875 100.598 204.125 100.773C204.374 100.948 204.668 101.049 204.973 101.065C205.278 101.077 205.581 101.025 205.865 100.913C206.148 100.801 206.405 100.631 206.619 100.414C207.044 99.9764 207.341 99.4306 207.478 98.8359C207.516 98.6815 207.603 98.3003 207.41 98.1989C207.217 98.0976 207.067 98.3485 206.961 98.4547C206.653 98.7603 206.314 99.0321 205.948 99.2654C205.589 99.4933 205.203 99.6764 204.799 99.8107C204.688 99.8493 203.598 100.177 203.559 100.076Z" fill="#EAEAEA"/>
<path d="M208.202 98.6727C208.251 98.9156 208.237 99.1668 208.161 99.4026C208.085 99.6383 207.949 99.8506 207.768 100.019C207.52 100.232 207.233 100.396 206.923 100.502C206.711 100.579 206.441 100.642 206.282 100.502C206.122 100.362 206.18 100.043 206.282 99.8164C206.421 99.469 206.566 99.1263 206.725 98.7837C206.838 98.4401 207.001 98.1149 207.208 97.8186C207.411 97.6159 207.613 97.8186 207.826 98.0116C208.008 98.1945 208.138 98.4227 208.202 98.6727Z" fill="#EAEAEA"/>
<path d="M203.926 99.5105C203.737 99.4639 203.566 99.3648 203.432 99.2247C203.298 99.0846 203.206 98.9092 203.168 98.719C203.115 98.4343 203.24 97.7539 203.597 97.7539C203.595 98.3549 203.707 98.9508 203.926 99.5105Z" fill="#E0E0E0"/>
<path d="M206.643 99.7102C206.833 99.6917 207.016 99.6265 207.175 99.5204C207.334 99.4143 207.465 99.2707 207.555 99.1022C207.652 98.914 207.767 97.8909 207.386 98.2577C207.261 98.3783 207.198 98.8271 207.111 98.996C206.985 99.2523 206.828 99.4921 206.643 99.7102Z" fill="#E0E0E0"/>
<path d="M205.152 100.073C205.272 100.215 205.435 100.313 205.617 100.353C205.798 100.392 205.988 100.37 206.156 100.29C206.083 100.478 205.437 100.526 205.239 100.546C204.713 100.599 204.496 100.329 204.052 100.039C204.052 100.039 204.79 100.3 205.152 100.073Z" fill="#E0E0E0"/>
<path d="M201.962 117.897L203.197 105.437L204.828 101.012L205.113 101.118L203.487 105.519L202.198 118.24L201.962 117.897Z" fill="#E6E6E6"/>
<path d="M203.477 105.414L203.207 105.549C203.012 105.128 202.851 104.692 202.724 104.246C202.488 103.362 202.14 102.512 201.687 101.717L201.942 101.558C202.409 102.374 202.769 103.247 203.014 104.154C203.137 104.585 203.292 105.006 203.477 105.414Z" fill="#E6E6E6"/>
<path d="M204.128 103.777C204.552 103.746 204.95 103.562 205.248 103.261C205.562 102.898 205.797 102.474 205.938 102.015C205.388 102.073 204.881 101.716 204.331 101.678C204.112 101.664 203.892 101.7 203.689 101.784C203.486 101.867 203.305 101.996 203.159 102.16C202.787 102.595 202.57 103.125 202.772 103.386C203.156 103.689 203.643 103.829 204.128 103.777Z" fill="#F0F0F0"/>
<path d="M199.728 102.426C199.984 102.252 200.275 102.137 200.58 102.088C200.885 102.04 201.198 102.06 201.494 102.146C201.729 102.235 201.939 102.378 202.107 102.564C202.275 102.751 202.396 102.975 202.46 103.217C202.35 103.358 202.205 103.466 202.04 103.532C201.874 103.597 201.694 103.617 201.518 103.589C201.167 103.524 200.83 103.397 200.524 103.212C200.218 103.03 199.881 102.902 199.53 102.836L199.728 102.426Z" fill="#F0F0F0"/>
<path d="M202.449 102.665C201.735 102.747 201.093 102.887 200.442 102.077C200.007 101.531 200.147 100.706 200.176 100.055C200.985 100.313 201.768 100.644 202.517 101.044C202.677 101.116 202.819 101.224 202.931 101.36C203.043 101.495 203.123 101.655 203.163 101.826C203.187 101.993 203.146 102.162 203.049 102.3C202.952 102.438 202.807 102.534 202.642 102.569L202.449 102.665Z" fill="#F0F0F0"/>
<path d="M200.403 112.362C200.055 113.167 199.89 114.039 199.921 114.915C199.921 115.079 199.988 115.267 200.109 115.296C200.229 115.325 200.326 115.19 200.365 115.04C200.395 114.881 200.405 114.719 200.393 114.558C200.393 113.221 201.117 112.092 201.257 110.789C201.296 110.417 201.199 109.249 200.982 110.108C200.804 110.895 200.669 111.609 200.403 112.362Z" fill="#FAFAFA"/>
<path d="M99.2994 138.915C99.2994 138.915 100.704 123.371 94.5267 115.795C88.3498 108.219 99.3525 115.115 101.283 122.672C101.283 122.672 101.645 108.677 95.4919 99.6288C89.339 90.5805 99.835 97.351 101.664 107.234C101.664 107.234 102.016 94.7548 98.9374 88.1435C95.8586 81.5322 100.448 85.4652 102.48 89.5912C104.511 93.7172 103.507 104.72 103.507 104.72C103.507 104.72 105.665 84.4036 109.781 85.5038C113.897 86.6041 105.365 100.777 104.685 107.702C104.685 107.702 108.41 98.0507 112.121 99.4985C115.832 100.946 106.953 102.992 104.207 117.04L103.387 123.54C103.387 123.54 106.765 114.053 109.834 116.548C112.903 119.043 102.33 125.263 101.148 139.166L99.2994 138.915Z" fill="#EAEAEA"/>
<path d="M99.9648 139.719C99.9648 139.719 98.6474 120.498 106.47 111.339C114.292 102.18 100.539 110.35 97.9332 119.615C97.9332 119.615 97.856 102.348 105.707 91.3651C113.559 80.3817 100.399 88.4166 97.885 100.534C97.885 100.534 97.7884 85.1302 101.746 77.0664C105.703 69.0026 99.9504 73.7125 97.3348 78.7506C94.7193 83.7887 95.6699 97.3538 95.6699 97.3538C95.6699 97.3538 93.5466 72.2166 88.4651 73.4423C83.3836 74.668 93.5032 92.4268 94.1595 100.983C94.1595 100.983 89.8163 88.9571 85.2029 90.6461C80.5895 92.3351 91.4764 95.1243 94.4925 112.545L95.3273 120.643C95.3273 120.643 91.4281 108.834 87.5627 111.807C83.6973 114.78 96.5868 122.8 97.6967 139.999L99.9648 139.719Z" fill="#F0F0F0"/>
<path d="M112.122 149.301C112.122 154.576 106.403 158.856 99.3479 158.856C92.2927 158.856 86.5693 154.576 86.5693 149.301C86.5693 146.922 87.7275 144.755 89.6482 143.086L88.1377 136.691H110.553L109.062 143.086C110.963 144.77 112.122 146.922 112.122 149.301Z" fill="#EAEAEA"/>
<path d="M120.643 179.523C172.319 179.523 214.21 177.077 214.21 174.06C214.21 171.043 172.319 168.598 120.643 168.598C68.9682 168.598 27.0771 171.043 27.0771 174.06C27.0771 177.077 68.9682 179.523 120.643 179.523Z" fill="#F5F5F5"/>
<path d="M112.956 97.478L114.162 90.5193L116.532 91.2045L112.956 97.478Z" fill="#58B368"/>
<path d="M113.752 99.7081L120.537 97.744L119.591 95.4614L113.752 99.7081Z" fill="#58B368"/>
<path d="M114.958 97.0874L118.824 89.7812L121.43 91.5909L114.958 97.0874Z" fill="#58B368"/>
<path d="M158.626 29.2813H151.595C151.302 29.2623 151.026 29.1323 150.825 28.9176C150.624 28.7029 150.512 28.4197 150.512 28.1255C150.512 27.8313 150.624 27.5481 150.825 27.3334C151.026 27.1187 151.302 26.9887 151.595 26.9697H158.626C158.92 26.9887 159.195 27.1187 159.397 27.3334C159.598 27.5481 159.71 27.8313 159.71 28.1255C159.71 28.4197 159.598 28.7029 159.397 28.9176C159.195 29.1323 158.92 29.2623 158.626 29.2813Z" fill="#58B368"/>
<g opacity="0.7">
<path opacity="0.7" d="M158.626 29.2813H151.595C151.302 29.2623 151.026 29.1323 150.825 28.9176C150.624 28.7029 150.512 28.4197 150.512 28.1255C150.512 27.8313 150.624 27.5481 150.825 27.3334C151.026 27.1187 151.302 26.9887 151.595 26.9697H158.626C158.92 26.9887 159.195 27.1187 159.397 27.3334C159.598 27.5481 159.71 27.8313 159.71 28.1255C159.71 28.4197 159.598 28.7029 159.397 28.9176C159.195 29.1323 158.92 29.2623 158.626 29.2813Z" fill="white"/>
</g>
<path d="M184.42 52.9782L157.463 102.587C157.296 102.893 157.014 103.12 156.679 103.219C156.344 103.318 155.984 103.279 155.678 103.113L109.809 78.1734C109.503 78.0061 109.275 77.7242 109.177 77.3894C109.078 77.0547 109.116 76.6945 109.283 76.3879L144.342 11.8774C144.509 11.5711 144.791 11.3437 145.126 11.2451C145.461 11.1465 145.821 11.1847 146.128 11.3514L177.012 28.145L184.42 52.9782Z" fill="#58B368"/>
<g opacity="0.2">
<path opacity="0.2" d="M184.42 52.9782L157.463 102.587C157.296 102.893 157.014 103.12 156.679 103.219C156.344 103.318 155.984 103.279 155.678 103.113L109.809 78.1734C109.503 78.0061 109.275 77.7242 109.177 77.3894C109.078 77.0547 109.116 76.6945 109.283 76.3879L144.342 11.8774C144.509 11.5711 144.791 11.3437 145.126 11.2451C145.461 11.1465 145.821 11.1847 146.128 11.3514L177.012 28.145L184.42 52.9782Z" fill="white"/>
</g>
<path d="M169.284 64.1207L135.028 45.6372L133.883 47.7607L168.139 66.2442L169.284 64.1207Z" fill="#58B368"/>
<path d="M164.606 72.7967L130.35 54.3132L129.204 56.4367L163.46 74.9202L164.606 72.7967Z" fill="#58B368"/>
<path d="M159.922 81.4764L125.667 62.9929L124.521 65.1164L158.777 83.5999L159.922 81.4764Z" fill="#58B368"/>
<path d="M177.075 28.1243L168.949 43.0841C168.782 43.3906 168.744 43.7509 168.842 44.0856C168.941 44.4204 169.168 44.7023 169.475 44.8696L184.391 52.9768L177.075 28.1243Z" fill="#58B368"/>
<path opacity="0.7" d="M177.075 28.1243L168.949 43.0841C168.782 43.3906 168.744 43.7509 168.842 44.0856C168.941 44.4204 169.168 44.7023 169.475 44.8696L184.391 52.9768L177.075 28.1243Z" fill="white"/>
<path d="M191.446 51.3131L164.494 100.922C164.327 101.228 164.045 101.455 163.71 101.554C163.376 101.653 163.015 101.614 162.709 101.448L116.84 76.5275C116.533 76.3611 116.305 76.0795 116.205 75.7447C116.105 75.4099 116.143 75.0492 116.309 74.742L151.368 10.2171C151.535 9.90996 151.816 9.68152 152.151 9.58197C152.486 9.48243 152.847 9.51994 153.154 9.68625L184.063 26.4798L191.446 51.3131Z" fill="#58B368"/>
<g opacity="0.5">
<path opacity="0.5" d="M191.446 51.3131L164.494 100.922C164.327 101.228 164.045 101.455 163.71 101.554C163.376 101.653 163.015 101.614 162.709 101.448L116.84 76.5275C116.533 76.3611 116.305 76.0795 116.205 75.7447C116.105 75.4099 116.143 75.0492 116.309 74.742L151.368 10.2171C151.535 9.90996 151.816 9.68152 152.151 9.58197C152.486 9.48243 152.847 9.51994 153.154 9.68625L184.063 26.4798L191.446 51.3131Z" fill="white"/>
</g>
<path d="M175.41 61.951L142.981 44.4577C142.862 44.3926 142.73 44.3518 142.595 44.3376C142.459 44.3235 142.322 44.3363 142.192 44.3753C142.061 44.4143 141.94 44.4788 141.834 44.565C141.729 44.6512 141.641 44.7574 141.577 44.8775L141.418 45.1719C141.353 45.2919 141.312 45.4237 141.298 45.5595C141.283 45.6954 141.296 45.8327 141.335 45.9637C141.374 46.0946 141.439 46.2165 141.525 46.3225C141.611 46.4284 141.718 46.5163 141.838 46.581L174.267 64.0743C174.509 64.2046 174.792 64.2335 175.056 64.1548C175.319 64.0761 175.54 63.8962 175.671 63.6545L175.83 63.3553C175.895 63.2356 175.936 63.1043 175.95 62.9687C175.965 62.8332 175.952 62.6963 175.913 62.5657C175.874 62.4352 175.809 62.3137 175.723 62.2082C175.637 62.1027 175.531 62.0153 175.41 61.951Z" fill="#58B368"/>
<path d="M170.722 70.6344L138.292 53.1362C137.788 52.8641 137.158 53.0524 136.886 53.5567L136.726 53.8539C136.454 54.3582 136.642 54.9876 137.146 55.2597L169.576 72.7579C170.08 73.03 170.71 72.8417 170.982 72.3374L171.142 72.0402C171.414 71.5359 171.226 70.9065 170.722 70.6344Z" fill="#58B368"/>
<path d="M166.041 79.3194L133.611 61.8213C133.107 61.5492 132.478 61.7374 132.206 62.2417L132.045 62.539C131.773 63.0433 131.961 63.6727 132.466 63.9448L164.895 81.4429C165.4 81.715 166.029 81.5268 166.301 81.0225L166.462 80.7252C166.734 80.2209 166.545 79.5915 166.041 79.3194Z" fill="#58B368"/>
<path d="M184.106 26.457L175.975 41.4168C175.892 41.5684 175.84 41.7349 175.822 41.9067C175.804 42.0785 175.82 42.2523 175.869 42.4178C175.918 42.5834 176 42.7376 176.109 42.8714C176.219 43.0052 176.353 43.1161 176.506 43.1975L191.422 51.3048L184.106 26.457Z" fill="#58B368"/>
<path opacity="0.7" d="M184.106 26.457L175.975 41.4168C175.892 41.5684 175.84 41.7349 175.822 41.9067C175.804 42.0785 175.82 42.2523 175.869 42.4178C175.918 42.5834 176 42.7376 176.109 42.8714C176.219 43.0052 176.353 43.1161 176.506 43.1975L191.422 51.3048L184.106 26.457Z" fill="white"/>
<path d="M182.243 3.71484L184.511 13.7862C175.922 16.1411 168.215 24.6441 162.67 32.6741C160.401 36.0086 158.576 39.6245 157.241 43.4307C157.241 43.4307 174.566 27.7615 184.116 26.8446L183.657 43.4886C183.657 43.4886 193.565 24.1856 212.795 17.14C212.814 17.1352 196.687 5.53415 182.243 3.71484Z" fill="#58B368"/>
<path d="M121.951 145.705L125.392 142.853L116.715 134.62L113.014 137.781L121.951 145.705Z" fill="#CB7A63"/>
<path d="M128.181 141.752C127.789 141.638 127.369 141.659 126.989 141.809C126.758 141.877 126.507 141.959 126.304 142.036C126.101 142.113 125.981 142.162 125.85 142.215L125.469 142.384C125.447 142.389 125.427 142.402 125.413 142.421C125.399 142.439 125.391 142.462 125.392 142.485C125.389 142.493 125.387 142.501 125.387 142.509C125.387 142.517 125.389 142.526 125.392 142.533C125.408 142.557 125.432 142.574 125.46 142.582C125.948 142.71 126.447 142.796 126.951 142.837C127.198 142.869 127.45 142.849 127.689 142.779H127.723C127.861 142.734 127.993 142.674 128.119 142.601C128.198 142.537 128.26 142.455 128.3 142.362C128.339 142.268 128.355 142.166 128.345 142.065C128.346 142.003 128.332 141.942 128.303 141.888C128.274 141.833 128.233 141.786 128.181 141.752ZM128.133 142.07C128.145 142.138 128.137 142.209 128.111 142.273C128.084 142.337 128.04 142.392 127.983 142.432C127.868 142.515 127.734 142.568 127.593 142.586C127.398 142.621 127.201 142.633 127.004 142.62C126.696 142.603 126.39 142.564 126.087 142.504L125.86 142.461C126.272 142.264 126.704 142.114 127.149 142.012C127.39 141.951 127.635 141.906 127.882 141.877C127.953 141.873 128.023 141.89 128.085 141.925C128.107 141.942 128.123 141.964 128.131 141.99C128.14 142.016 128.141 142.044 128.133 142.07Z" fill="#58B368"/>
<path d="M126.603 139.947C126.493 139.967 126.388 140.009 126.294 140.07C126.2 140.131 126.12 140.211 126.058 140.304C126.018 140.362 125.984 140.423 125.956 140.488C125.773 141.048 125.737 141.646 125.85 142.225C125.852 142.233 125.852 142.241 125.85 142.249C125.854 142.268 125.863 142.285 125.876 142.3C125.888 142.314 125.905 142.325 125.923 142.331C125.933 142.336 125.945 142.338 125.956 142.338C125.968 142.338 125.98 142.336 125.99 142.331C125.999 142.331 126.007 142.329 126.015 142.324C126.023 142.32 126.029 142.314 126.034 142.307C126.129 142.226 126.218 142.137 126.299 142.042C126.452 141.86 126.589 141.667 126.709 141.462C127.009 140.98 127.221 140.425 127.091 140.14C127.042 140.015 126.917 139.889 126.603 139.947ZM126.893 140.237C126.975 140.42 126.811 140.854 126.569 141.279C126.422 141.539 126.248 141.781 126.048 142.003C125.982 141.565 126.005 141.119 126.116 140.69C126.144 140.597 126.186 140.51 126.241 140.43C126.321 140.312 126.439 140.226 126.574 140.184H126.642C126.844 140.126 126.883 140.203 126.917 140.227L126.893 140.237Z" fill="#58B368"/>
<path d="M124.943 142.65L120.6 144.831C120.517 144.87 120.452 144.937 120.415 145.02C120.377 145.103 120.371 145.197 120.397 145.284L121.671 149.328C121.703 149.424 121.753 149.511 121.819 149.587C121.884 149.663 121.964 149.725 122.054 149.77C122.143 149.815 122.241 149.841 122.341 149.848C122.441 149.855 122.541 149.843 122.636 149.811L122.709 149.777C130.116 147.176 132.389 145.333 133.161 144.913C135.367 143.711 134.126 142.148 133.306 142.341C129.61 143.224 128.369 142.997 126.772 142.587C126.166 142.46 125.539 142.481 124.943 142.65Z" fill="#263238"/>
<path opacity="0.2" d="M116.72 134.625L121.111 138.519L117.405 141.675L113.014 137.781L116.72 134.625Z" fill="black"/>
<path d="M115.349 141.646L120.875 136.55L119.659 134.417L113.27 139.904L115.349 141.646Z" fill="#58B368"/>
<path opacity="0.5" d="M115.349 141.646L120.875 136.55L119.659 134.417L113.27 139.904L115.349 141.646Z" fill="white"/>
<path d="M118.79 135.164L118.047 135.801L116.941 136.766L116.3 137.311L114.369 138.981L113.998 139.295C113.998 139.295 106.127 134.86 101.745 131.091C98.7484 128.5 98.4782 127.53 98.1597 127.771C93.9275 130.995 81.3999 142.123 74.3012 147.909C74.0696 147.938 73.8187 147.957 73.6063 147.976C69.8133 148.251 66.8503 147.836 64.5146 146.953C64.5146 143.874 67.1254 136.684 67.3425 135.989C67.3425 135.989 77.8192 125.58 94.7962 116.778C94.9626 116.693 95.1333 116.618 95.3077 116.551C95.525 116.45 95.7472 116.36 95.9736 116.281C96.8046 115.95 97.6822 115.751 98.5747 115.692C99.3255 115.662 100.075 115.78 100.78 116.04C101.185 116.183 101.579 116.358 101.958 116.561C102.29 116.732 102.612 116.923 102.923 117.13C103.449 117.463 103.955 117.835 104.433 118.202C105.519 119.041 113.718 129.605 118.124 134.479C118.36 134.706 118.582 134.947 118.79 135.164Z" fill="#58B368"/>
<g opacity="0.1">
<path opacity="0.1" d="M118.79 135.164L118.047 135.801L116.941 136.766L116.3 137.311L114.369 138.981L113.998 139.295C113.998 139.295 106.127 134.86 101.745 131.091C98.7484 128.5 98.4782 127.53 98.1597 127.771C93.9275 130.995 81.3999 142.123 74.3012 147.909C74.0696 147.938 73.8187 147.957 73.6063 147.976C69.8133 148.251 66.8503 147.836 64.5146 146.953C64.5146 143.874 67.1254 136.684 67.3425 135.989C67.3425 135.989 77.8192 125.58 94.7962 116.778C94.9626 116.693 95.1333 116.618 95.3077 116.551C95.525 116.45 95.7472 116.36 95.9736 116.281C96.8046 115.95 97.6822 115.751 98.5747 115.692C99.3255 115.662 100.075 115.78 100.78 116.04C101.185 116.183 101.579 116.358 101.958 116.561C102.29 116.732 102.612 116.923 102.923 117.13C103.449 117.463 103.955 117.835 104.433 118.202C105.519 119.041 113.718 129.605 118.124 134.479C118.36 134.706 118.582 134.947 118.79 135.164Z" fill="black"/>
</g>
<path d="M62.8842 90.7227C63.5502 93.7243 64.2451 98.1109 62.1797 100.176C64.7441 104.682 67.8208 108.876 71.3486 112.675C75.8703 104.814 71.585 99.9543 71.585 99.9543C68.207 99.2304 68.2505 97.8647 68.7813 95.5098L62.8842 90.7227Z" fill="#CB7A63"/>
<path d="M60.085 100.545C60.3308 99.7338 60.8403 99.0274 61.5327 98.5378C62.2131 98.0215 69.2539 97.9443 71.0635 98.5378C72.1308 98.8759 73.0384 99.5913 73.6163 100.55L60.085 100.545Z" fill="#58B368"/>
<path d="M92.4997 112.513L94.3142 111.683L94.4059 114.646C93.8826 115.103 93.2787 115.458 92.6252 115.693C92.4211 115.753 92.2047 115.759 91.9978 115.709C91.7909 115.659 91.6008 115.555 91.4467 115.409C91.2926 115.262 91.1799 115.077 91.1199 114.873C91.0599 114.669 91.0548 114.452 91.1051 114.245C91.1947 113.871 91.3663 113.522 91.6075 113.222C91.8487 112.923 92.1534 112.68 92.4997 112.513Z" fill="#CB7A63"/>
<path d="M96.6403 112.518L96.5438 113.608C96.5304 113.772 96.4652 113.927 96.3576 114.051C96.2499 114.175 96.1056 114.262 95.9454 114.298L94.3915 114.646L94.2998 111.683L95.8778 111.707C95.9772 111.705 96.0761 111.723 96.1685 111.76C96.2609 111.796 96.3451 111.851 96.4161 111.921C96.4871 111.991 96.5435 112.074 96.582 112.165C96.6205 112.257 96.6403 112.356 96.6403 112.455V112.518Z" fill="#CB7A63"/>
<path d="M69.4276 120.939C72.3114 122.421 75.585 122.97 78.7944 122.508C82.655 121.856 89.411 117.971 92.3402 115.751L91.3751 114.304C89.9273 114.617 77.9643 120.688 70.248 115.197C68.8003 114.173 63.159 109.961 61.1659 110.047C57.9279 110.192 58.2078 113.585 59.5976 114.999C61.2046 116.615 67.1933 119.839 69.4276 120.939Z" fill="#CB7A63"/>
<g opacity="0.2">
<path opacity="0.2" d="M96.5437 113.61C96.5319 113.773 96.4677 113.928 96.3607 114.051C96.2537 114.175 96.1097 114.26 95.9501 114.295L94.4059 114.648C93.8826 115.104 93.2787 115.459 92.6252 115.695C92.5332 115.725 92.4373 115.741 92.3405 115.743C89.4064 117.973 82.689 121.852 78.7994 122.499C75.5917 122.959 72.3203 122.411 69.4375 120.931C67.2032 119.83 61.2048 116.588 59.5785 114.956C58.1887 113.542 57.9088 110.131 61.1469 110.005C63.1399 109.918 68.786 114.131 70.2289 115.154C77.593 120.39 88.7984 115.111 91.0906 114.339C91.0883 114.303 91.0883 114.268 91.0906 114.233C91.1745 113.86 91.3392 113.511 91.5732 113.21C91.8142 112.911 92.1193 112.67 92.4659 112.505L94.2659 111.68L95.8343 111.704C95.9333 111.703 96.0316 111.721 96.1235 111.758C96.2154 111.795 96.299 111.85 96.3695 111.92C96.4399 111.989 96.4959 112.072 96.5341 112.163C96.5723 112.255 96.592 112.353 96.5919 112.452V112.519L96.5437 113.61Z" fill="black"/>
<path opacity="0.2" d="M94.3143 111.684L94.2998 111.689V111.684H94.3143Z" fill="black"/>
</g>
<path d="M79.5473 105.393C83.6444 114.422 74.1425 117.004 78.4953 131.809L57.8411 132.292C57.9763 124.358 60.7993 126.062 57.0787 111.145C56.765 109.881 56.2438 106.257 57.5902 102.942C58.105 101.65 59.0515 100.578 60.2685 99.9062C61.7934 99.0858 68.5109 99.7276 71.5752 99.9351C74.8953 99.4863 78.9393 104.264 79.5473 105.393Z" fill="#58B368"/>
<path opacity="0.5" d="M79.5473 105.393C83.6444 114.422 74.1425 117.004 78.4953 131.809L57.8411 132.292C57.9763 124.358 60.7993 126.062 57.0787 111.145C56.765 109.881 56.2438 106.257 57.5902 102.942C58.105 101.65 59.0515 100.578 60.2685 99.9062C61.7934 99.0858 68.5109 99.7276 71.5752 99.9351C74.8953 99.4863 78.9393 104.264 79.5473 105.393Z" fill="white"/>
<path d="M75.5998 87.4825C75.5419 87.8782 75.7011 88.2015 75.9473 88.2353C76.1934 88.2691 76.4298 87.994 76.5022 87.6128C76.5746 87.2315 76.3961 86.8986 76.1499 86.86C75.9038 86.8213 75.6529 87.1061 75.5998 87.4825Z" fill="#263238"/>
<path d="M76.0391 86.8652L77.0042 86.7349C77.0042 86.7349 76.4155 87.3815 76.0391 86.8652Z" fill="#263238"/>
<path d="M75.6624 88.0039C75.8732 88.9168 76.211 89.7957 76.6662 90.6146C76.4528 90.7252 76.2178 90.7876 75.9777 90.7977C75.7376 90.8077 75.4982 90.7649 75.2764 90.6725L75.6624 88.0039Z" fill="#A02724"/>
<path d="M76.9654 84.8281C77.0023 84.8145 77.0347 84.7912 77.0594 84.7606C77.084 84.73 77.0999 84.6933 77.1053 84.6544C77.1138 84.595 77.0989 84.5347 77.0638 84.4861C77.0287 84.4375 76.9761 84.4044 76.9171 84.3938C76.565 84.3321 76.2031 84.356 75.8621 84.4635C75.5211 84.571 75.211 84.759 74.9579 85.0115C74.9321 85.0303 74.9106 85.0543 74.8948 85.0819C74.8789 85.1096 74.8691 85.1403 74.8659 85.172C74.8627 85.2037 74.8662 85.2358 74.8762 85.266C74.8863 85.2963 74.9026 85.3241 74.9241 85.3476C74.9456 85.3712 74.9718 85.3899 75.001 85.4027C75.0302 85.4154 75.0618 85.4218 75.0937 85.4215C75.1256 85.4212 75.157 85.4142 75.186 85.4009C75.215 85.3876 75.2409 85.3684 75.2619 85.3445L75.2909 85.3107C75.4943 85.1131 75.7415 84.9665 76.0124 84.8826C76.2833 84.7988 76.5701 84.7801 76.8496 84.8281C76.8876 84.8379 76.9274 84.8379 76.9654 84.8281Z" fill="#263238"/>
<path d="M63.101 84.3559C62.7101 89.061 62.4447 91.0444 64.4474 93.7806C67.4683 97.8921 73.3412 97.3516 75.1171 92.8588C76.7337 88.81 77.1005 81.7982 72.8104 79.284C72.0818 78.8528 71.2754 78.5695 70.4372 78.4503C69.5991 78.3312 68.7456 78.3785 67.9258 78.5896C67.1059 78.8008 66.3357 79.1715 65.6594 79.6807C64.983 80.1899 64.4137 80.8275 63.9841 81.557C63.4759 82.4085 63.1735 83.3669 63.101 84.3559Z" fill="#CB7A63"/>
<path d="M75.228 92.5729C74.8696 92.2648 74.5997 91.8667 74.4463 91.4195C74.4422 91.3948 74.4467 91.3693 74.459 91.3474C74.4712 91.3255 74.4906 91.3084 74.5138 91.2989C74.5381 91.293 74.5638 91.2967 74.5854 91.3093C74.607 91.3219 74.6229 91.3424 74.6297 91.3665C74.7716 91.7503 75.0013 92.0957 75.3004 92.375L75.228 92.5729Z" fill="#263238"/>
<path d="M59.7474 78.2409C57.957 80.6538 57.1415 81.3005 59.3613 87.7718C60.2541 90.3728 62.8455 93.8184 64.105 94.1321C66.3634 94.7015 68.5592 93.1187 70.253 91.5214C71.7947 90.1803 73.0856 88.5756 74.0653 86.7825C74.9726 84.9535 75.3055 82.7578 74.5479 80.8613C73.7372 78.8007 70.8755 76.9621 68.7329 76.5182C66.2235 75.9777 61.2385 76.219 59.7474 78.2409Z" fill="#263238"/>
<path d="M73.8337 87.1838C73.8337 87.1838 74.3983 88.149 73.6841 88.8777V87.5892L73.8337 87.1838Z" fill="#263238"/>
<path d="M73.8334 87.1838C73.8334 87.1838 74.0409 88.6702 72.7959 89.2251L73.4618 87.623L73.8334 87.1838Z" fill="#263238"/>
<path d="M65.5237 93.5864C65.5237 93.5864 64.1532 94.2089 64.3511 95.5553L65.35 94.1317L65.5237 93.5864Z" fill="#263238"/>
<path d="M65.5768 93.6211C65.5768 93.6211 64.5344 94.7021 65.2196 95.8844L65.6202 94.1905L65.5768 93.6211Z" fill="#263238"/>
<path d="M75.6962 85.2381C76.2054 84.7538 76.6556 84.2112 77.0378 83.6215C77.4287 83.0295 77.5994 82.319 77.5204 81.614C77.4232 81.1694 77.2292 80.7517 76.9523 80.3906C76.6754 80.0294 76.3224 79.7337 75.9182 79.5245C75.1111 79.1083 74.2455 78.8171 73.3509 78.6607C72.9273 78.5084 72.4618 78.5222 72.048 78.6993C71.8757 78.8265 71.7403 78.9972 71.6556 79.1939C71.5708 79.3906 71.5397 79.6062 71.5654 79.8188C71.6115 80.2471 71.7289 80.6647 71.9129 81.0542C72.5012 82.6165 72.9343 84.2329 73.2062 85.88C73.3558 86.71 73.2448 87.2649 74.0651 86.9416C74.5718 86.7534 75.2812 85.6773 75.6962 85.2381Z" fill="#263238"/>
<path d="M69.2011 87.5641C69.1511 88.6525 69.5346 89.7163 70.2676 90.5223C71.2328 91.584 72.4971 90.8891 72.8542 89.5572C73.1775 88.3701 73.0569 86.3867 71.7684 85.8172C70.4799 85.2478 69.2687 86.2371 69.2011 87.5641Z" fill="#CB7A63"/>
<path d="M123.935 147.872L127.66 144.243L120.446 135.176L115.943 137.835L123.935 147.872Z" fill="#CB7A63"/>
<path d="M131.463 143.121C131.052 142.976 130.203 143.439 129.556 143.85C129.392 143.951 129.248 144.052 129.122 144.139L129.059 144.187C128.915 144.289 128.808 144.366 128.77 144.4C128.748 144.41 128.73 144.428 128.719 144.45C128.709 144.472 128.706 144.497 128.712 144.52C128.719 144.545 128.733 144.566 128.753 144.582C128.773 144.597 128.798 144.606 128.823 144.607C129.267 144.626 129.713 144.612 130.155 144.564L130.449 144.53C130.768 144.506 131.076 144.399 131.342 144.221C131.439 144.162 131.53 144.092 131.612 144.014C131.682 143.93 131.73 143.83 131.751 143.723C131.772 143.615 131.766 143.505 131.733 143.401C131.713 143.336 131.679 143.277 131.632 143.228C131.585 143.179 131.527 143.143 131.463 143.121ZM131.492 143.468C131.515 143.539 131.52 143.614 131.506 143.687C131.491 143.76 131.458 143.827 131.409 143.883C131.208 144.078 130.952 144.206 130.676 144.25C130.349 144.325 130.017 144.368 129.682 144.38C129.527 144.38 129.367 144.38 129.199 144.38L129.363 144.26C129.4 144.229 129.438 144.202 129.479 144.178C129.998 143.812 130.569 143.527 131.173 143.333C131.247 143.312 131.326 143.312 131.4 143.333C131.426 143.345 131.449 143.364 131.465 143.388C131.481 143.412 131.49 143.439 131.492 143.468Z" fill="#58B368"/>
<path opacity="0.2" d="M120.069 134.62L123.462 138.963L118.872 141.526L115.427 137.294L120.069 134.62Z" fill="black"/>
<path d="M57.6532 130.727L57.1706 132.604C57.0982 132.749 57.2768 132.889 57.5132 132.884L78.7802 132.401C78.9685 132.401 79.118 132.3 79.1277 132.179L78.5969 130.215C78.5969 130.09 78.4424 129.984 78.2398 129.988L57.9717 130.587C57.9114 130.584 57.8512 130.595 57.796 130.619C57.7407 130.644 57.6918 130.68 57.6532 130.727Z" fill="#263238"/>
<path d="M76.5794 132.603L76.0196 132.665C75.9086 132.665 75.8169 132.632 75.8169 132.559V130.146C75.8169 130.074 75.9086 130.006 76.0148 129.997L76.5745 129.929C76.6855 129.929 76.7772 129.968 76.7772 130.04V132.453C76.7772 132.525 76.6904 132.593 76.5794 132.603Z" fill="#58B368"/>
<path d="M68.9642 132.709L68.4044 132.767C68.2982 132.767 68.2065 132.733 68.2065 132.661V130.248C68.2065 130.181 68.2982 130.113 68.4092 130.099L68.9642 130.036C69.0752 130.036 69.1669 130.07 69.1669 130.142V132.555C69.1669 132.632 69.0752 132.709 68.9642 132.709Z" fill="#58B368"/>
<path d="M68.9642 132.709L68.4044 132.767C68.2982 132.767 68.2065 132.733 68.2065 132.661V130.248C68.2065 130.181 68.2982 130.113 68.4092 130.099L68.9642 130.036C69.0752 130.036 69.1669 130.07 69.1669 130.142V132.555C69.1669 132.632 69.0752 132.709 68.9642 132.709Z" fill="#58B368"/>
<path d="M122.921 136.571L121.98 137.102L120.358 138.019L118.911 138.834L117.419 139.674L116.845 139.997L116.488 139.732C116.401 139.674 116.3 139.602 116.184 139.51C115.827 139.244 115.335 138.878 114.736 138.419C111.74 136.045 106.397 131.383 104.805 127.141C103.777 128.367 102.547 129.907 101.137 131.605C95.0666 138.926 85.6468 149.258 74.3159 150.604L73.621 150.677C69.8328 151 66.865 150.623 64.5245 149.769C58.642 147.612 57.0012 142.444 57.4017 138.048C57.4403 135.987 57.8409 132.319 57.8409 132.319H79.3058C82.3267 128.647 88.3974 122.895 94.5985 119.29C94.7433 119.198 94.8929 119.111 95.0425 119.034C95.1921 118.957 95.4141 118.822 95.5974 118.721C97.4689 117.664 99.4687 116.853 101.548 116.308C101.972 116.206 102.392 116.119 102.807 116.057C103.232 115.993 103.661 115.953 104.091 115.936C107.03 115.806 109.582 116.901 111.329 119.83L122.597 136.088L122.921 136.571Z" fill="#58B368"/>
<path d="M111.339 114.264L87.6255 115.244L88.3204 100.153L112.034 99.1738L111.339 114.264Z" fill="#58B368"/>
<path d="M111.064 115.451L87.693 116.417C87.5394 116.427 87.3854 116.404 87.2414 116.349C87.0974 116.295 86.9668 116.21 86.8584 116.101C86.75 115.991 86.6663 115.86 86.613 115.715C86.5597 115.571 86.538 115.417 86.5493 115.263L87.2346 100.27C87.2552 99.9428 87.3947 99.6348 87.6267 99.4037C87.8587 99.1726 88.1672 99.0343 88.4941 99.015L111.865 98.0498C112.019 98.0405 112.172 98.0641 112.316 98.1189C112.459 98.1737 112.59 98.2585 112.698 98.3677C112.806 98.4768 112.89 98.6078 112.944 98.7519C112.997 98.896 113.019 99.0498 113.009 99.2032L112.319 114.197C112.3 114.524 112.162 114.832 111.931 115.063C111.699 115.295 111.391 115.433 111.064 115.451Z" fill="#263238"/>
<path d="M111.339 114.264L87.6255 115.244L88.3204 100.153L112.034 99.1738L111.339 114.264Z" fill="#58B368"/>
<path opacity="0.9" d="M111.339 114.264L87.6255 115.244L88.3204 100.153L112.034 99.1738L111.339 114.264Z" fill="white"/>
<path opacity="0.1" d="M96.7364 98.6809L92.8179 116.198L94.3766 116.136L98.242 98.6182L96.7364 98.6809Z" fill="white"/>
<path opacity="0.1" d="M99.1397 98.5796L95.2212 116.097L98.3145 115.972L102.18 98.4541L99.1397 98.5796Z" fill="white"/>
<path d="M103.642 115.641L111.537 115.419C111.672 116.336 111.281 116.678 110.78 116.693L108.256 116.755L106.567 116.794L103.946 116.866L87.6884 117.349L87.5581 116.205L103.642 115.641Z" fill="#58B368"/>
<path d="M103.642 115.641L111.537 115.419C111.672 116.336 111.281 116.678 110.779 116.693L108.256 116.755L106.567 116.794L103.946 116.866L83.8228 117.484C83.7098 117.489 83.598 117.46 83.5011 117.402C83.4042 117.343 83.3265 117.258 83.2775 117.156C83.2359 117.069 83.2166 116.972 83.2214 116.875C83.2263 116.779 83.2552 116.685 83.3054 116.602C83.3557 116.519 83.4258 116.45 83.5094 116.401C83.593 116.352 83.6874 116.324 83.7842 116.321L103.642 115.641Z" fill="#58B368"/>
<path opacity="0.2" d="M103.642 115.641L111.537 115.419C111.672 116.336 111.281 116.678 110.779 116.693L108.256 116.755L106.567 116.794L103.946 116.866L83.8228 117.484C83.7098 117.489 83.598 117.46 83.5011 117.402C83.4042 117.343 83.3265 117.258 83.2775 117.156C83.2359 117.069 83.2166 116.972 83.2214 116.875C83.2263 116.779 83.2552 116.685 83.3054 116.602C83.3557 116.519 83.4258 116.45 83.5094 116.401C83.593 116.352 83.6874 116.324 83.7842 116.321L103.642 115.641Z" fill="black"/>
<path opacity="0.2" d="M111.537 115.419L111.585 115.737C111.604 115.855 111.597 115.975 111.565 116.09C111.534 116.205 111.478 116.311 111.402 116.403C111.325 116.494 111.23 116.568 111.123 116.62C111.016 116.672 110.898 116.7 110.779 116.702L108.256 116.765L103.565 116.934L103.642 115.65L111.537 115.419Z" fill="black"/>
<path opacity="0.2" d="M70.6437 105.84C70.6437 105.84 69.529 108.113 72.7477 114.116L74.0941 116.563C74.5381 117.369 77.4721 115.723 78.3697 114.212C78.3697 114.212 72.7236 110.825 70.6437 105.84Z" fill="black"/>
<path d="M97.9622 112.836L100.206 112.175L99.849 115.64C99.849 115.64 96.7171 117.734 95.6313 115.732L96.0705 114.617C96.2323 114.197 96.4863 113.819 96.8137 113.511C97.1411 113.203 97.5336 112.972 97.9622 112.836Z" fill="#CB7A63"/>
<path d="M102.788 113.537L102.508 114.787C102.467 114.975 102.367 115.145 102.221 115.272C102.076 115.399 101.894 115.476 101.702 115.491L99.8345 115.641L100.196 112.171L102.03 112.461C102.265 112.492 102.479 112.615 102.623 112.803C102.768 112.991 102.832 113.229 102.802 113.464L102.788 113.537Z" fill="#CB7A63"/>
<path d="M79.2581 118.712C80.8264 120.836 83.027 122.612 85.6136 123.118C88.6634 123.712 94.5315 119.398 97.2822 116.608C97.1471 115.431 97.2243 114.794 96.0516 114.63C96.0516 114.63 93.0211 116.85 87.3122 118.182C85.464 118.611 84.2334 116.734 82.6264 113.978C81.8254 112.613 79.2484 106.996 78.2495 105.746C76.6763 103.738 72.2077 105.176 73.9835 110.007C74.7267 112.024 77.9793 116.966 79.2581 118.712Z" fill="#CB7A63"/>
<path d="M77.5877 102.448C80.7582 105.344 82.3025 110.517 82.3025 110.517L74.8949 115.034C74.8949 115.034 69.4901 107.428 70.4553 104.779C71.2177 102.723 72.6317 101.372 74.4896 101.256C75.0595 101.237 75.6274 101.333 76.1596 101.538C76.6918 101.743 77.1775 102.052 77.5877 102.448Z" fill="#58B368"/>
<path d="M60.5919 132.994H60.0321C59.9211 132.994 59.8294 132.941 59.8391 132.869L60.0466 130.456C60.0466 130.384 60.1479 130.326 60.2589 130.321H60.8187C60.9297 130.321 61.0214 130.379 61.0117 130.446L60.8042 132.859C60.7927 132.905 60.7644 132.944 60.7249 132.969C60.6854 132.994 60.6378 133.003 60.5919 132.994Z" fill="#58B368"/>
<path d="M115.929 141.025L123.148 137.415L122.531 134.848L114.298 138.602L115.929 141.025Z" fill="#58B368"/>
<path opacity="0.5" d="M115.929 141.025L123.148 137.415L122.531 134.848L114.298 138.602L115.929 141.025Z" fill="white"/>
<path d="M127.371 143.847L122.39 145.352C122.296 145.378 122.213 145.437 122.158 145.519C122.104 145.6 122.08 145.699 122.091 145.796L122.694 150.313C122.711 150.419 122.749 150.521 122.806 150.612C122.863 150.704 122.937 150.783 123.024 150.845C123.112 150.908 123.211 150.952 123.316 150.976C123.421 151 123.53 151.002 123.635 150.984H123.722C132.042 149.599 134.788 148.088 135.681 147.77C138.238 146.906 137.215 145.024 136.308 145.077C132.235 145.328 130.966 144.855 129.349 144.112C128.722 143.861 128.042 143.77 127.371 143.847Z" fill="#263238"/>
<path d="M60.4035 84.2997C58.9076 84.5362 57.4261 83.3877 56.958 81.9496C56.7649 81.2175 56.7265 80.4531 56.8453 79.7053C56.9641 78.9575 57.2375 78.2427 57.648 77.6065C58.2127 76.6413 61.914 74.3539 63.2845 76.9308C66.0159 82.0365 60.4035 84.2997 60.4035 84.2997Z" fill="#263238"/>
<path d="M111.127 104.346L96.5293 104.963L96.5969 103.516L111.195 102.898L111.127 104.346Z" fill="#58B368"/>
<g opacity="0.7">
<path opacity="0.7" d="M111.127 104.346L96.5293 104.963L96.5969 103.516L111.195 102.898L111.127 104.346Z" fill="white"/>
</g>
<path d="M111.04 106.353L96.4424 106.976L96.5051 105.528L111.103 104.906L111.04 106.353Z" fill="#58B368"/>
<g opacity="0.7">
<path opacity="0.7" d="M111.04 106.353L96.4424 106.976L96.5051 105.528L111.103 104.906L111.04 106.353Z" fill="white"/>
</g>
<path d="M110.948 108.366L96.3506 108.989L96.4181 107.536L111.011 106.919L110.948 108.366Z" fill="#58B368"/>
<g opacity="0.7">
<path opacity="0.7" d="M110.948 108.366L96.3506 108.989L96.4181 107.536L111.011 106.919L110.948 108.366Z" fill="white"/>
</g>
<path d="M110.857 110.374L96.2588 110.996L96.3263 109.548L110.924 108.926L110.857 110.374Z" fill="#58B368"/>
<g opacity="0.7">
<path opacity="0.7" d="M110.857 110.374L96.2588 110.996L96.3263 109.548L110.924 108.926L110.857 110.374Z" fill="white"/>
</g>
<path d="M110.77 112.385L96.1724 113.008L96.2351 111.56L110.833 110.938L110.77 112.385Z" fill="#58B368"/>
<g opacity="0.7">
<path opacity="0.7" d="M110.77 112.385L96.1724 113.008L96.2351 111.56L110.833 110.938L110.77 112.385Z" fill="white"/>
</g>
<path d="M90.6267 105.782L89.4551 105.832L89.4758 106.314L90.6474 106.264L90.6267 105.782Z" fill="#58B368"/>
<g opacity="0.5">
<path opacity="0.5" d="M90.6267 105.781L89.4551 105.831L89.4758 106.313L90.6474 106.263L90.6267 105.781Z" fill="white"/>
</g>
<path d="M90.5705 107.177L89.3989 107.227L89.4196 107.709L90.5912 107.659L90.5705 107.177Z" fill="#58B368"/>
<g opacity="0.5">
<path opacity="0.5" d="M90.5705 107.177L89.3989 107.227L89.4196 107.709L90.5912 107.659L90.5705 107.177Z" fill="white"/>
</g>
<path d="M90.2176 108.949L89.0449 108.996L89.0642 109.479L90.2369 109.432L90.2176 108.949Z" fill="#58B368"/>
<g opacity="0.5">
<path opacity="0.5" d="M90.2176 108.949L89.0449 108.996L89.0642 109.479L90.2369 109.432L90.2176 108.949Z" fill="white"/>
</g>
<path d="M90.4636 109.961L89.292 110.012L89.3127 110.494L90.4843 110.444L90.4636 109.961Z" fill="#58B368"/>
<g opacity="0.5">
<path opacity="0.5" d="M90.4636 109.957L89.292 110.007L89.3127 110.489L90.4843 110.439L90.4636 109.957Z" fill="white"/>
</g>
<path d="M90.0975 111.73L88.9248 111.777L88.9441 112.26L90.1168 112.213L90.0975 111.73Z" fill="#58B368"/>
<g opacity="0.5">
<path opacity="0.5" d="M89.2617 111.879L89.3051 111.396L90.473 111.343L90.4295 111.83L89.2617 111.879Z" fill="white"/>
</g>
<path d="M90.3542 112.744L89.1826 112.793L89.2029 113.275L90.3745 113.226L90.3542 112.744Z" fill="#58B368"/>
<g opacity="0.5">
<path opacity="0.5" d="M90.3542 112.744L89.1826 112.793L89.2029 113.275L90.3745 113.226L90.3542 112.744Z" fill="white"/>
</g>
<path d="M91.8532 104.447L89.4307 105.349L89.4548 104.712L90.7963 104.495L89.4693 104.403L89.4934 103.766L91.8532 104.447Z" fill="#58B368"/>
<path d="M106.644 102.144L96.5293 102.574L96.5776 101.57L106.692 101.141L106.644 102.144Z" fill="#58B368"/>
<g opacity="0.7">
<path opacity="0.7" d="M106.644 102.144L96.5293 102.574L96.5776 101.57L106.692 101.141L106.644 102.144Z" fill="white"/>
</g>
<path d="M92.9966 102.662L91.5151 102.73L92.1135 102.349L92.2776 102.498L92.4562 102.344L92.9966 102.662Z" fill="#58B368"/>
<path d="M92.0554 102.299L91.457 102.685L91.5005 101.797L92.0554 102.299Z" fill="#58B368"/>
<path d="M93.0931 101.774L93.0448 102.609L92.4995 102.291L93.0931 101.774Z" fill="#58B368"/>
<path d="M92.2939 102.144L92.2607 102.179L92.2642 102.183L92.2974 102.147L92.2939 102.144Z" fill="white"/>
<path d="M92.2701 102.149L92.2666 102.152L92.2998 102.187L92.3033 102.184L92.2701 102.149Z" fill="white"/>
<path d="M93.0932 101.688L92.4562 102.267L92.2776 102.426L92.1135 102.271L91.5586 101.77L91.5151 101.731L93.0932 101.688Z" fill="#58B368"/>
<path d="M90.6296 101.857L89.458 101.906L89.4641 102.051L90.6358 102.001L90.6296 101.857Z" fill="#58B368"/>
<path d="M90.6301 102.22L89.4585 102.27L89.4646 102.415L90.6362 102.365L90.6301 102.22Z" fill="#58B368"/>
<path d="M90.6316 102.599L89.46 102.648L89.4661 102.793L90.6377 102.743L90.6316 102.599Z" fill="#58B368"/>
<path d="M65.3933 113.741L69.7703 163.774H62.7343L58.0244 109.934H61.2577C62.2977 109.938 63.2985 110.331 64.0636 111.036C64.8288 111.74 65.303 112.705 65.3933 113.741Z" fill="#58B368"/>
<path opacity="0.2" d="M65.4368 114.195L69.7799 163.774H62.7343L58.0244 109.934H60.804C61.9684 109.939 63.0889 110.379 63.9458 111.167C64.8028 111.955 65.3345 113.035 65.4368 114.195Z" fill="black"/>
<path d="M60.8043 113.196L65.2295 163.774H23.2456L18.9025 113.818C18.859 113.325 18.9186 112.828 19.0775 112.359C19.2365 111.89 19.4913 111.459 19.8258 111.093C20.1603 110.728 20.5671 110.436 21.0205 110.236C21.4738 110.037 21.9637 109.934 22.459 109.934H57.2912C58.1771 109.945 59.0273 110.285 59.6766 110.888C60.3258 111.49 60.7278 112.313 60.8043 113.196Z" fill="#58B368"/>
<path opacity="0.2" d="M60.8571 113.746L65.234 163.774H23.2501L18.9214 114.475C18.8706 113.898 18.9402 113.317 19.1258 112.769C19.3115 112.221 19.6091 111.717 19.9999 111.29C20.3906 110.863 20.8659 110.522 21.3955 110.288C21.9251 110.055 22.4976 109.934 23.0764 109.934H56.7021C57.7459 109.934 58.7515 110.326 59.5206 111.032C60.2898 111.738 60.7666 112.706 60.8571 113.746Z" fill="white"/>
<path d="M134.73 163.776H23.424L22.1982 149.902H129.04C130.255 149.924 131.42 150.391 132.314 151.213C133.209 152.036 133.771 153.157 133.895 154.366L134.73 163.776Z" fill="#58B368"/>
<path opacity="0.2" d="M134.73 163.776H23.424L22.1982 149.902H129.04C130.255 149.924 131.42 150.391 132.314 151.213C133.209 152.036 133.771 153.157 133.895 154.366L134.73 163.776Z" fill="white"/>
<path d="M139.835 169.089H22.1157C21.3828 169.088 20.6802 168.796 20.1619 168.278C19.6436 167.759 19.3519 167.057 19.3506 166.324C19.3506 165.59 19.6419 164.887 20.1605 164.368C20.679 163.85 21.3824 163.559 22.1157 163.559H139.835C140.568 163.559 141.271 163.85 141.79 164.368C142.309 164.887 142.6 165.59 142.6 166.324C142.599 167.057 142.307 167.759 141.789 168.278C141.27 168.796 140.568 169.088 139.835 169.089Z" fill="#58B368"/>
<path opacity="0.2" d="M139.835 169.089H71.4976C70.7642 169.089 70.0609 168.798 69.5423 168.279C69.0238 167.76 68.7324 167.057 68.7324 166.324C68.7318 165.96 68.8029 165.601 68.9416 165.265C69.0804 164.929 69.284 164.624 69.5409 164.367C69.7978 164.11 70.1029 163.907 70.4386 163.768C70.7744 163.629 71.1343 163.558 71.4976 163.559H139.835C140.568 163.559 141.272 163.85 141.79 164.368C142.309 164.887 142.6 165.59 142.6 166.324C142.599 167.057 142.307 167.759 141.789 168.278C141.27 168.796 140.568 169.088 139.835 169.089Z" fill="black"/>
<path d="M23.6611 169.086L25.0558 173.83H27.845L29.3796 169.086H23.6611Z" fill="#263238"/>
<path opacity="0.5" d="M23.6611 169.086L25.0558 173.83H27.845L29.3796 169.086H23.6611Z" fill="white"/>
<path d="M63.6318 169.086L65.0265 173.83H67.8158L69.3552 169.086H63.6318Z" fill="#263238"/>
<path opacity="0.5" d="M63.6318 169.086L65.0265 173.83H67.8158L69.3552 169.086H63.6318Z" fill="white"/>
<path d="M94.2275 169.086L95.6222 173.83H98.4115L99.946 169.086H94.2275Z" fill="#263238"/>
<path opacity="0.5" d="M94.2275 169.086L95.6222 173.83H98.4115L99.946 169.086H94.2275Z" fill="white"/>
<path d="M134.199 169.086L135.594 173.83H138.383L139.918 169.086H134.199Z" fill="#263238"/>
<path opacity="0.5" d="M134.199 169.086L135.594 173.83H138.383L139.918 169.086H134.199Z" fill="white"/>
<path d="M51.0997 108.053H48.045C47.981 108.053 47.9196 108.027 47.8744 107.982C47.8291 107.937 47.8037 107.876 47.8037 107.812C47.8037 107.748 47.8291 107.686 47.8744 107.641C47.9196 107.596 47.981 107.57 48.045 107.57H51.0997C51.1633 107.572 51.224 107.597 51.2689 107.642C51.3139 107.687 51.3397 107.748 51.341 107.812C51.341 107.876 51.3156 107.937 51.2703 107.982C51.2251 108.027 51.1637 108.053 51.0997 108.053Z" fill="#58B368"/>
<path d="M46.0133 108.053H30.7012C30.6373 108.053 30.5759 108.027 30.5306 107.982C30.4854 107.937 30.46 107.876 30.46 107.812C30.4612 107.748 30.487 107.687 30.532 107.642C30.577 107.597 30.6376 107.572 30.7012 107.57H46.0133C46.0769 107.572 46.1376 107.597 46.1826 107.642C46.2276 107.687 46.2534 107.748 46.2546 107.812C46.2546 107.876 46.2292 107.937 46.1839 107.982C46.1387 108.027 46.0773 108.053 46.0133 108.053Z" fill="#58B368"/>
<path d="M100.303 135.979C100.243 135.978 100.185 135.956 100.139 135.917C100.117 135.894 100.099 135.868 100.086 135.838C100.074 135.809 100.068 135.777 100.068 135.745C100.068 135.713 100.074 135.682 100.086 135.653C100.099 135.623 100.117 135.596 100.139 135.574L101.587 134.02C101.609 133.997 101.636 133.98 101.665 133.967C101.695 133.955 101.726 133.949 101.758 133.949C101.79 133.949 101.822 133.955 101.851 133.967C101.88 133.98 101.907 133.997 101.93 134.02C101.974 134.066 101.999 134.127 101.999 134.191C101.999 134.255 101.974 134.317 101.93 134.363L100.482 135.917C100.433 135.96 100.369 135.983 100.303 135.979Z" fill="#58B368"/>
<path d="M87.2202 148.348C87.1755 148.348 87.1317 148.336 87.0941 148.312C87.0564 148.288 87.0265 148.253 87.0078 148.213C86.993 148.185 86.984 148.154 86.9813 148.122C86.9786 148.091 86.9824 148.059 86.9923 148.029C87.0022 147.998 87.0181 147.971 87.039 147.947C87.0599 147.923 87.0854 147.903 87.114 147.889C91.5826 145.626 98.6717 137.162 98.744 137.075C98.7641 137.051 98.7888 137.03 98.8167 137.016C98.8447 137.001 98.8753 136.992 98.9068 136.989C98.9383 136.986 98.97 136.99 99.0001 137C99.0302 137.01 99.058 137.025 99.0818 137.046C99.1304 137.088 99.1607 137.147 99.1661 137.211C99.1715 137.275 99.1517 137.339 99.1108 137.389C98.8213 137.736 91.8722 146.012 87.3312 148.319C87.2973 148.338 87.2591 148.348 87.2202 148.348Z" fill="#58B368"/>
</svg>
