<svg width="280" height="180" viewBox="0 0 280 180" fill="none" xmlns="http://www.w3.org/2000/svg">
<path d="M260.287 157.995H19V158.116H260.287V157.995Z" fill="#EBEBEB"/>
<path d="M133.37 136.472H40.1898C39.4599 136.471 38.7602 136.18 38.2445 135.663C37.7288 135.146 37.4391 134.446 37.4391 133.716V2.73137C37.4455 2.00559 37.738 1.31163 38.253 0.800213C38.768 0.2888 39.464 0.0012433 40.1898 0H133.37C134.101 0 134.802 0.29031 135.318 0.807066C135.835 1.32382 136.125 2.02469 136.125 2.7555V133.716C136.125 134.447 135.835 135.148 135.318 135.665C134.802 136.182 134.101 136.472 133.37 136.472V136.472ZM40.1898 0.0965151C39.4918 0.0977935 38.8229 0.375956 38.3298 0.869949C37.8367 1.36394 37.5598 2.0334 37.5598 2.73137V133.716C37.5598 134.414 37.8367 135.084 38.3298 135.578C38.8229 136.072 39.4918 136.35 40.1898 136.351H133.37C134.068 136.35 134.738 136.072 135.232 135.578C135.726 135.084 136.004 134.415 136.005 133.716V2.73137C136.004 2.03295 135.726 1.36351 135.232 0.869654C134.738 0.3758 134.068 0.0977908 133.37 0.0965151H40.1898Z" fill="#EBEBEB"/>
<path d="M237.755 136.472H144.57C143.84 136.471 143.14 136.18 142.623 135.663C142.107 135.147 141.816 134.447 141.815 133.716V2.73137C141.823 2.00515 142.116 1.31119 142.632 0.799911C143.148 0.288632 143.844 0.00122974 144.57 0H237.755C238.48 0.00251155 239.175 0.29063 239.689 0.801906C240.203 1.31318 240.495 2.00642 240.501 2.73137V133.716C240.501 134.445 240.212 135.145 239.698 135.661C239.183 136.178 238.485 136.469 237.755 136.472V136.472ZM144.57 0.0965151C143.872 0.0977908 143.203 0.3758 142.709 0.869654C142.215 1.36351 141.937 2.03295 141.936 2.73137V133.716C141.937 134.415 142.215 135.084 142.709 135.578C143.203 136.072 143.872 136.35 144.57 136.351H237.755C238.454 136.35 239.123 136.072 239.617 135.578C240.111 135.084 240.389 134.415 240.39 133.716V2.73137C240.389 2.03295 240.111 1.36351 239.617 0.869654C239.123 0.3758 238.454 0.0977908 237.755 0.0965151H144.57Z" fill="#EBEBEB"/>
<path d="M236.11 162.586H220.875V162.707H236.11V162.586Z" fill="#EBEBEB"/>
<path d="M180.826 161.281H164.703V161.401H180.826V161.281Z" fill="#EBEBEB"/>
<path d="M240.511 167.071H210.384V167.192H240.511V167.071Z" fill="#EBEBEB"/>
<path d="M53.5958 166.262H44.3159V166.382H53.5958V166.262Z" fill="#EBEBEB"/>
<path d="M72.5127 166.262H57.8955V166.382H72.5127V166.262Z" fill="#EBEBEB"/>
<path d="M136.816 164.227H110.486V164.347H136.816V164.227Z" fill="#EBEBEB"/>
<path d="M239.271 96.6306C234.378 94.5796 226.27 96.5582 219.553 104.704C216.45 108.468 213.458 113.989 212.652 119.64C212.705 113.193 212.773 106.268 212.835 99.7287C213.576 96.5215 214.743 93.428 216.305 90.5308C221.232 80.6284 225.305 81.7239 231.998 73.9737C243.131 61.0793 249.511 36.7528 238.436 46.467C228.394 55.2499 223.534 64.0424 220.161 71.6718C215.596 81.9844 213.762 89.1796 212.869 96.3989C212.932 90.2606 212.99 84.6241 213.043 80.2761C213.217 66.0933 213.603 61.533 213.675 60.1238C213.849 56.7121 214.973 54.7239 215.287 54.2365C217.927 50.0911 222.072 47.3791 226.13 42.6547C235.594 31.6568 241.056 18.0434 236.496 16.7598C231.733 15.4423 225.474 21.4456 218.52 35.5415C214.534 43.6198 213.516 45.5308 212.729 61.3592C212.662 62.7346 212.358 67.9174 212.213 75.1174C211.088 67.3721 208.951 59.6751 205.22 54.5743C198.025 44.7346 192.553 43.7936 188.567 44.7346C184.581 45.6756 186.25 56.0075 190.748 61.5281C197.504 69.8381 208.796 68.0718 212.14 79.1276C211.972 88.8901 211.851 101.254 211.783 112.768C210.645 106.823 209.453 101.876 206.837 97.2193C201.973 88.5619 195.989 84.7834 191.877 88.8611C189.315 91.3995 192.287 98.5126 197.644 101.408C203.083 104.371 207.546 108.468 209.274 110.934C209.675 111.508 211.011 113.709 211.774 114.978C211.701 129.035 211.711 141.442 211.832 145.675L212.512 145.737C212.469 144.647 212.512 137.495 212.57 128.032C213.757 116.223 222.096 115.581 227.428 113.332C236.959 109.303 244.164 98.6863 239.271 96.6306Z" fill="#E6E6E6"/>
<path d="M205.273 157.996H219.336C219.681 158.016 220.024 157.922 220.31 157.727C220.597 157.532 220.81 157.248 220.919 156.92L221.922 139.465H202.697L203.691 156.905C203.797 157.236 204.01 157.523 204.296 157.72C204.583 157.918 204.926 158.014 205.273 157.996V157.996Z" fill="#E6E6E6"/>
<path d="M203.049 145.415H221.57C222.014 145.415 222.386 144.831 222.439 144.059L222.815 138.171C222.873 137.264 222.468 136.473 221.951 136.473H202.648C202.127 136.473 201.722 137.264 201.784 138.171L202.161 144.059C202.228 144.831 202.605 145.415 203.049 145.415Z" fill="#F5F5F5"/>
<path d="M108.759 120.387H90.5029V154.799H108.759V120.387Z" fill="#F0F0F0"/>
<path d="M184.045 154.801H94.0112V157.995H184.045V154.801Z" fill="#F0F0F0"/>
<path d="M108.759 154.797H187.549V120.385H108.759V154.797Z" fill="#FAFAFA"/>
<path d="M115.939 135.164H180.373V124.576H115.939V135.164Z" fill="#F0F0F0"/>
<path d="M115.939 148.766H180.373V138.178H115.939V148.766Z" fill="#F0F0F0"/>
<path d="M156.061 123.258H140.251C139.638 123.258 139.142 123.755 139.142 124.368V124.416C139.142 125.029 139.638 125.526 140.251 125.526H156.061C156.674 125.526 157.17 125.029 157.17 124.416V124.368C157.17 123.755 156.674 123.258 156.061 123.258Z" fill="#FAFAFA"/>
<path d="M156.061 136.863H140.251C139.638 136.863 139.142 137.36 139.142 137.973V138.021C139.142 138.634 139.638 139.131 140.251 139.131H156.061C156.674 139.131 157.17 138.634 157.17 138.021V137.973C157.17 137.36 156.674 136.863 156.061 136.863Z" fill="#FAFAFA"/>
<path d="M189.985 117.301H108.763V120.384H189.985V117.301Z" fill="#F0F0F0"/>
<path d="M87.9502 120.387H108.759V117.303H87.9502V120.387Z" fill="#E6E6E6"/>
<path d="M72.971 131.009C70.8863 129.919 67.2284 130.483 63.9517 133.828C62.2129 135.587 60.9665 137.772 60.3373 140.164C60.6027 137.321 60.897 134.262 61.1721 131.376C61.6221 129.987 62.255 128.665 63.0542 127.443C65.607 123.254 67.3684 123.891 70.6161 120.721C76.0306 115.446 79.785 104.936 74.5105 108.801C70.7361 111.541 67.6447 115.115 65.4767 119.244C63.0638 123.631 61.9828 126.739 61.3121 129.895C61.5727 127.187 61.7946 124.697 62.0021 122.777C62.6198 116.503 62.9673 114.515 63.0493 113.897C63.1401 112.984 63.4624 112.109 63.9855 111.354C65.3271 109.622 67.2574 108.579 69.2166 106.649C73.8155 102.147 76.7448 96.3317 74.7807 95.5982C72.7249 94.8357 69.7281 97.2534 66.1233 103.213C64.0531 106.635 63.5319 107.441 62.5764 114.404C62.4895 115.012 62.1614 117.299 61.8236 120.465C61.6209 117 60.9694 113.521 59.5121 111.123C56.7083 106.499 54.3244 105.877 52.5292 106.167C50.734 106.456 51.0815 111.06 52.8525 113.671C55.5308 117.599 60.5737 117.246 61.6402 122.26C61.1962 126.565 60.6751 132.028 60.1925 137.114C59.9174 134.441 59.5796 132.211 58.6 130.054C56.7807 126.044 54.2568 124.147 52.3265 125.793C51.1008 126.816 52.1432 130.068 54.4016 131.584C56.6601 133.099 58.5083 135.078 59.1791 136.236C59.3335 136.501 59.8402 137.529 60.1442 138.118C59.5362 144.29 59.0826 149.767 58.9764 151.639L59.2901 151.683C59.3142 151.2 59.5989 148.044 59.9898 143.865C60.955 138.687 64.6708 138.721 67.1126 137.93C71.4702 136.52 75.0558 132.1 72.971 131.009Z" fill="#F0F0F0"/>
<path d="M40.6868 120.257C43.3844 119.041 47.9255 120.02 51.786 124.465C53.8377 126.796 55.242 129.625 55.859 132.669C55.7287 129.073 55.5936 125.213 55.4584 121.569C54.9972 119.793 54.301 118.085 53.3882 116.493C50.4927 111.044 48.2343 111.715 44.3882 107.493C37.9844 100.466 34.0611 86.9977 40.3877 92.2385C44.9209 95.9612 48.537 100.677 50.956 106.021C53.6536 111.706 54.7828 115.672 55.3909 119.702C55.2654 116.28 55.1448 113.139 55.0482 110.711C54.7442 102.807 54.4595 100.269 54.3968 99.4819C54.3523 98.3325 54.0205 97.2126 53.4316 96.2245C51.897 93.9516 49.571 92.5039 47.2064 89.927C41.7678 83.9334 38.5201 76.4149 41.0391 75.6428C43.6788 74.8369 47.2595 78.0894 51.3469 85.8444C53.6922 90.2937 54.2858 91.3409 54.971 100.158C55.0338 100.925 55.2751 103.811 55.4536 107.826C55.9651 103.482 57.0413 99.1683 59.0488 96.2439C62.9094 90.646 65.9496 90.0428 68.1839 90.5061C70.4182 90.9693 69.6316 96.7795 67.2188 99.9066C63.5705 104.641 57.2536 103.82 55.5549 110.041C55.7914 115.479 56.0375 122.375 56.2547 128.793C56.8 125.464 57.3936 122.684 58.7785 120.049C61.3651 115.146 64.6466 112.951 66.9823 115.166C68.43 116.541 66.9003 120.551 63.9517 122.259C61.0032 123.968 58.571 126.385 57.6445 127.785C57.4273 128.108 56.718 129.358 56.3126 130.077C56.5635 137.914 56.7421 144.834 56.7373 147.194L56.3367 147.228C56.3367 146.62 56.2209 142.634 56.0375 137.354C55.193 130.777 50.541 130.555 47.5346 129.382C42.1635 127.288 37.9893 121.473 40.6868 120.257Z" fill="#E6E6E6"/>
<path d="M52.0997 157.995H64.5743C64.8826 158.011 65.1877 157.926 65.4424 157.751C65.6971 157.577 65.8873 157.323 65.9834 157.03L66.8665 141.558H49.8075L50.6954 157.03C50.7899 157.323 50.979 157.577 51.233 157.752C51.4871 157.926 51.7919 158.012 52.0997 157.995V157.995Z" fill="#E6E6E6"/>
<path d="M50.1212 146.836H66.5528C66.9485 146.836 67.2767 146.315 67.3249 145.629L67.6579 140.408C67.711 139.602 67.3539 138.902 66.8906 138.902H49.7882C49.3056 138.902 48.9678 139.602 49.0161 140.408L49.3539 145.629C49.4021 146.315 49.7303 146.836 50.1212 146.836Z" fill="#F5F5F5"/>
<path d="M150.854 11.9971H48.0461V70.1279H150.854V11.9971Z" fill="#E6E6E6"/>
<path d="M154.068 11.9971H48.5914V70.1279H154.068V11.9971Z" fill="#F5F5F5"/>
<path d="M151.5 65.5464V16.5797C151.5 15.4656 150.597 14.5625 149.483 14.5625L53.171 14.5625C52.057 14.5625 51.1539 15.4656 51.1539 16.5797V65.5464C51.1539 66.6605 52.057 67.5636 53.171 67.5636H149.483C150.597 67.5636 151.5 66.6605 151.5 65.5464Z" fill="white"/>
<path d="M139.643 179.789C191.319 179.789 233.21 177.343 233.21 174.326C233.21 171.309 191.319 168.863 139.643 168.863C87.9682 168.863 46.0771 171.309 46.0771 174.326C46.0771 177.343 87.9682 179.789 139.643 179.789Z" fill="#F5F5F5"/>
<path d="M212.951 124.22H201.37V123.737H212.951C214.314 123.709 215.644 123.321 216.808 122.613C217.971 121.904 218.927 120.9 219.577 119.703L220.002 119.935C219.31 121.208 218.293 122.275 217.054 123.028C215.816 123.781 214.4 124.192 212.951 124.22V124.22Z" fill="#58B368"/>
<path d="M199.077 123.739H194.334V124.221H199.077V123.739Z" fill="#58B368"/>
<path d="M212.951 122.532H77.4446C76.7017 122.546 75.9641 122.402 75.2811 122.11C74.598 121.817 73.9851 121.383 73.4829 120.835C72.9808 120.287 72.601 119.639 72.3689 118.933C72.1367 118.227 72.0574 117.48 72.1363 116.741L79.4569 32.773C79.6206 31.2103 80.3476 29.7608 81.5021 28.6951C82.6567 27.6294 84.1597 27.0204 85.7304 26.9821H221.237C221.98 26.9684 222.717 27.1128 223.4 27.4056C224.082 27.6984 224.695 28.1331 225.197 28.6806C225.699 29.2282 226.079 29.8763 226.311 30.5818C226.544 31.2874 226.623 32.0342 226.545 32.773L219.268 116.741C219.104 118.311 218.37 119.766 217.207 120.833C216.043 121.9 214.53 122.504 212.951 122.532V122.532Z" fill="#58B368"/>
<path d="M210.128 120.769H77.9995C77.3669 120.779 76.7395 120.653 76.1591 120.401C75.5787 120.15 75.0585 119.777 74.633 119.309C74.2076 118.841 73.8868 118.287 73.6917 117.685C73.4967 117.083 73.432 116.447 73.5019 115.818L80.1711 39.3252C80.2109 38.9418 80.3893 38.5862 80.6727 38.325C80.9562 38.0638 81.3252 37.915 81.7105 37.9064H220.87C221.052 37.9033 221.232 37.9389 221.399 38.0108C221.566 38.0827 221.715 38.1893 221.838 38.3236C221.96 38.4578 222.052 38.6165 222.108 38.7893C222.165 38.962 222.183 39.1447 222.164 39.3252L215.49 115.818C215.354 117.155 214.735 118.397 213.747 119.309C212.759 120.221 211.472 120.741 210.128 120.769Z" fill="white"/>
<path d="M94.8414 34.1001C93.9298 34.1157 93.0254 33.9372 92.1882 33.5764C91.3509 33.2157 90.6 32.681 89.9852 32.0078C89.3705 31.3346 88.9059 30.5383 88.6225 29.6719C88.339 28.8054 88.2431 27.8886 88.3411 26.9822C88.5394 25.0586 89.4336 23.2736 90.8554 21.9628C92.2772 20.6521 94.1289 19.9058 96.0623 19.8642C96.9736 19.8486 97.8778 20.0271 98.7149 20.3879C99.5519 20.7487 100.303 21.2835 100.917 21.9568C101.531 22.63 101.995 23.4264 102.278 24.2928C102.561 25.1593 102.656 26.0761 102.558 26.9822H99.6623C99.7206 26.4441 99.6637 25.8998 99.4953 25.3854C99.3269 24.871 99.051 24.3984 98.6857 23.9989C98.3205 23.5995 97.8744 23.2823 97.3772 23.0687C96.8799 22.855 96.3428 22.7497 95.8017 22.7597C94.6523 22.7807 93.5504 23.2219 92.704 23.9998C91.8576 24.7778 91.3253 25.8386 91.2076 26.9822C91.1492 27.5203 91.2062 28.0646 91.3745 28.579C91.5429 29.0934 91.8189 29.566 92.1841 29.9655C92.5493 30.3649 92.9954 30.682 93.4927 30.8957C93.9899 31.1094 94.527 31.2147 95.0682 31.2047L94.8414 34.1001Z" fill="#263238"/>
<path d="M123.482 34.1002C122.569 34.1185 121.662 33.942 120.823 33.5825C119.983 33.223 119.23 32.6887 118.613 32.0152C117.996 31.3416 117.53 30.5444 117.245 29.6766C116.961 28.8087 116.864 27.8902 116.963 26.9822C117.161 25.0586 118.055 23.2736 119.477 21.9628C120.899 20.6521 122.75 19.9058 124.684 19.8642C125.595 19.8486 126.499 20.0271 127.336 20.3879C128.173 20.7487 128.924 21.2835 129.538 21.9568C130.153 22.63 130.617 23.4264 130.9 24.2929C131.183 25.1593 131.278 26.0761 131.179 26.9822H128.284C128.342 26.4441 128.285 25.8998 128.117 25.3854C127.948 24.871 127.672 24.3984 127.307 23.9989C126.942 23.5995 126.496 23.2823 125.999 23.0687C125.501 22.855 124.964 22.7497 124.423 22.7597C123.274 22.7807 122.172 23.2219 121.325 23.9998C120.479 24.7778 119.947 25.8386 119.829 26.9822C119.772 27.5201 119.829 28.0641 119.998 28.5782C120.166 29.0922 120.442 29.5645 120.807 29.9638C121.172 30.3631 121.618 30.6802 122.115 30.8941C122.612 31.1081 123.149 31.2139 123.69 31.2047L123.482 34.1002Z" fill="#263238"/>
<path d="M152.123 34.1001C151.212 34.115 150.308 33.936 149.471 33.5749C148.635 33.2139 147.884 32.6791 147.27 32.0059C146.656 31.3328 146.192 30.5368 145.908 29.6707C145.625 28.8046 145.53 27.8881 145.627 26.9822C145.824 25.0578 146.717 23.2716 148.14 21.9605C149.562 20.6493 151.415 19.9037 153.349 19.8642C154.26 19.8486 155.164 20.0271 156.001 20.3879C156.838 20.7487 157.589 21.2835 158.203 21.9568C158.818 22.63 159.282 23.4264 159.565 24.2929C159.848 25.1593 159.943 26.0761 159.844 26.9822H156.949C157.008 26.4439 156.951 25.8993 156.783 25.3846C156.615 24.8698 156.339 24.3969 155.974 23.9972C155.609 23.5976 155.162 23.2805 154.665 23.0671C154.167 22.8537 153.629 22.7489 153.088 22.7597C151.939 22.7809 150.838 23.2222 149.992 24.0002C149.147 24.7782 148.615 25.8391 148.499 26.9822C148.44 27.5203 148.497 28.0646 148.666 28.579C148.834 29.0934 149.11 29.566 149.475 29.9655C149.84 30.3649 150.287 30.682 150.784 30.8957C151.281 31.1094 151.818 31.2147 152.359 31.2047L152.123 34.1001Z" fill="#263238"/>
<path d="M180.764 34.1001C179.853 34.115 178.949 33.936 178.112 33.5749C177.275 33.2139 176.525 32.679 175.911 32.0059C175.297 31.3328 174.832 30.5368 174.549 29.6707C174.266 28.8046 174.17 27.8881 174.268 26.9822C174.466 25.0581 175.359 23.2726 176.781 21.9616C178.203 20.6507 180.056 19.9047 181.989 19.8642C182.901 19.8487 183.805 20.0272 184.643 20.3879C185.48 20.7487 186.231 21.2834 186.845 21.9566C187.46 22.6298 187.925 23.426 188.208 24.2925C188.492 25.159 188.588 26.0758 188.49 26.9822H185.594C185.653 26.4441 185.596 25.8997 185.427 25.3854C185.259 24.871 184.983 24.3983 184.618 23.9989C184.252 23.5994 183.806 23.2823 183.309 23.0687C182.812 22.855 182.275 22.7497 181.734 22.7597C180.585 22.7809 179.483 23.2222 178.638 24.0002C177.792 24.7782 177.261 25.839 177.144 26.9822C177.086 27.5203 177.143 28.0646 177.311 28.579C177.48 29.0934 177.756 29.566 178.121 29.9655C178.486 30.3649 178.932 30.682 179.429 30.8957C179.927 31.1094 180.464 31.2147 181.005 31.2047L180.764 34.1001Z" fill="#263238"/>
<path d="M209.404 34.1001C208.493 34.115 207.589 33.936 206.753 33.5749C205.916 33.2139 205.166 32.679 204.552 32.0059C203.937 31.3328 203.473 30.5368 203.19 29.6707C202.907 28.8046 202.811 27.8881 202.909 26.9822C203.106 25.0581 204 23.2726 205.422 21.9616C206.844 20.6507 208.696 19.9047 210.63 19.8642C211.542 19.8487 212.446 20.0272 213.283 20.3879C214.121 20.7487 214.871 21.2834 215.486 21.9566C216.101 22.6298 216.566 23.426 216.849 24.2925C217.132 25.159 217.228 26.0758 217.13 26.9822H214.235C214.293 26.4441 214.236 25.8997 214.068 25.3854C213.9 24.871 213.624 24.3983 213.258 23.9989C212.893 23.5994 212.447 23.2823 211.95 23.0687C211.453 22.855 210.916 22.7497 210.374 22.7597C209.226 22.7819 208.125 23.2236 207.28 24.0014C206.434 24.7792 205.903 25.8394 205.785 26.9822C205.727 27.5203 205.784 28.0646 205.952 28.579C206.12 29.0934 206.396 29.566 206.762 29.9655C207.127 30.3649 207.573 30.682 208.07 30.8957C208.567 31.1094 209.105 31.2147 209.646 31.2047L209.404 34.1001Z" fill="#263238"/>
<path d="M209.781 117.301H79.1626C79.1317 117.302 79.1009 117.297 79.0725 117.284C79.0441 117.272 79.0186 117.254 78.9979 117.231C78.9772 117.208 78.9618 117.181 78.9528 117.151C78.9437 117.122 78.9412 117.091 78.9454 117.06L85.4553 42.4252C85.4613 42.3599 85.4912 42.2991 85.5393 42.2546C85.5874 42.21 85.6504 42.1848 85.7159 42.1839H216.329C216.36 42.183 216.391 42.1888 216.42 42.2009C216.449 42.213 216.474 42.2311 216.495 42.254C216.516 42.2768 216.532 42.304 216.542 42.3335C216.552 42.3631 216.555 42.3943 216.551 42.4252L210.041 117.06C210.035 117.125 210.006 117.186 209.957 117.231C209.909 117.275 209.846 117.3 209.781 117.301V117.301ZM79.4473 116.819H209.578L216.049 42.6665H85.9186L79.4473 116.819Z" fill="#E0E0E0"/>
<path d="M211.065 102.373H80.4656C80.4349 102.373 80.4045 102.367 80.3765 102.355C80.3484 102.342 80.3233 102.324 80.3028 102.301C80.2823 102.279 80.2668 102.252 80.2575 102.223C80.2481 102.193 80.245 102.162 80.2484 102.132C80.2533 102.066 80.2829 102.005 80.3312 101.96C80.3796 101.915 80.4431 101.891 80.509 101.891H211.122C211.154 101.89 211.184 101.896 211.213 101.908C211.242 101.92 211.267 101.938 211.288 101.961C211.309 101.984 211.325 102.011 211.335 102.04C211.345 102.07 211.348 102.101 211.344 102.132C211.336 102.2 211.303 102.262 211.251 102.307C211.199 102.351 211.133 102.375 211.065 102.373Z" fill="#E0E0E0"/>
<path d="M212.382 87.4475H81.7685C81.7376 87.4476 81.7071 87.4413 81.6788 87.429C81.6506 87.4166 81.6252 87.3985 81.6043 87.3758C81.5834 87.3531 81.5675 87.3263 81.5575 87.2971C81.5476 87.2679 81.5438 87.237 81.5465 87.2062C81.5536 87.1405 81.5845 87.0797 81.6334 87.0352C81.6823 86.9907 81.7458 86.9657 81.8119 86.9649H212.425C212.456 86.964 212.487 86.9698 212.516 86.9819C212.545 86.994 212.57 87.0121 212.591 87.035C212.612 87.0578 212.628 87.085 212.638 87.1145C212.648 87.1441 212.651 87.1753 212.647 87.2062C212.639 87.2715 212.608 87.3318 212.559 87.3761C212.511 87.4203 212.448 87.4457 212.382 87.4475Z" fill="#E0E0E0"/>
<path d="M213.685 72.5173H83.0714C83.0403 72.5181 83.0094 72.5123 82.9808 72.5003C82.9521 72.4882 82.9264 72.4701 82.9054 72.4472C82.8843 72.4243 82.8684 72.3972 82.8588 72.3677C82.8491 72.3381 82.8459 72.3069 82.8494 72.276C82.8574 72.2106 82.8886 72.1504 82.9373 72.1061C82.986 72.0618 83.049 72.0365 83.1148 72.0347H213.728C213.759 72.0345 213.789 72.0408 213.817 72.0532C213.845 72.0656 213.87 72.0838 213.891 72.1066C213.911 72.1294 213.927 72.1562 213.936 72.1854C213.946 72.2146 213.949 72.2455 213.945 72.276C213.94 72.3417 213.911 72.4031 213.863 72.4479C213.814 72.4926 213.751 72.5174 213.685 72.5173V72.5173Z" fill="#E0E0E0"/>
<path d="M214.988 57.5921H84.3745C84.3434 57.5929 84.3125 57.5871 84.2839 57.5751C84.2552 57.563 84.2295 57.5449 84.2085 57.522C84.1874 57.4991 84.1715 57.472 84.1619 57.4425C84.1522 57.4129 84.149 57.3817 84.1525 57.3508C84.1584 57.2855 84.1884 57.2247 84.2365 57.1801C84.2846 57.1356 84.3475 57.1104 84.4131 57.1095H215.031C215.062 57.1085 215.093 57.1143 215.121 57.1264C215.15 57.1385 215.175 57.1567 215.196 57.1797C215.217 57.2026 215.232 57.2299 215.241 57.2594C215.25 57.289 215.253 57.3201 215.248 57.3508C215.244 57.4165 215.214 57.4779 215.166 57.5227C215.117 57.5674 215.054 57.5922 214.988 57.5921V57.5921Z" fill="#E0E0E0"/>
<path d="M193.451 117.301C193.42 117.302 193.389 117.297 193.361 117.284C193.332 117.272 193.307 117.254 193.286 117.231C193.265 117.208 193.25 117.181 193.241 117.151C193.232 117.122 193.229 117.091 193.233 117.06L199.743 42.4252C199.749 42.3599 199.779 42.2991 199.827 42.2546C199.875 42.21 199.938 42.1848 200.004 42.1839C200.035 42.183 200.066 42.1888 200.095 42.2009C200.123 42.213 200.149 42.2311 200.17 42.254C200.191 42.2768 200.207 42.304 200.217 42.3335C200.226 42.3631 200.229 42.3943 200.226 42.4252L193.716 117.06C193.709 117.126 193.678 117.187 193.629 117.231C193.58 117.276 193.517 117.301 193.451 117.301Z" fill="#E0E0E0"/>
<path d="M177.125 117.301C177.094 117.302 177.063 117.296 177.034 117.284C177.006 117.272 176.98 117.254 176.959 117.231C176.938 117.208 176.922 117.181 176.912 117.152C176.903 117.122 176.9 117.091 176.903 117.06L183.413 42.4252C183.42 42.3595 183.451 42.2987 183.5 42.2542C183.549 42.2097 183.612 42.1847 183.678 42.1839C183.709 42.183 183.74 42.1887 183.769 42.2008C183.797 42.213 183.822 42.2312 183.843 42.2541C183.864 42.2771 183.879 42.3043 183.888 42.3339C183.897 42.3634 183.9 42.3946 183.896 42.4252L177.386 117.06C177.381 117.126 177.351 117.187 177.303 117.232C177.254 117.277 177.191 117.302 177.125 117.301V117.301Z" fill="#E0E0E0"/>
<path d="M160.8 117.301C160.768 117.302 160.738 117.296 160.709 117.284C160.68 117.272 160.655 117.254 160.634 117.231C160.613 117.208 160.597 117.181 160.587 117.152C160.577 117.122 160.574 117.091 160.578 117.06L167.087 42.4252C167.095 42.3595 167.125 42.2987 167.174 42.2542C167.223 42.2097 167.287 42.1847 167.353 42.1839C167.384 42.183 167.415 42.1887 167.443 42.2008C167.471 42.213 167.497 42.2312 167.518 42.2541C167.538 42.2771 167.554 42.3043 167.563 42.3339C167.572 42.3634 167.574 42.3946 167.57 42.4252L161.06 117.06C161.054 117.125 161.024 117.186 160.976 117.231C160.928 117.275 160.865 117.3 160.8 117.301Z" fill="#E0E0E0"/>
<path d="M144.469 117.301C144.438 117.302 144.407 117.296 144.379 117.284C144.35 117.272 144.324 117.254 144.303 117.231C144.282 117.208 144.266 117.181 144.257 117.152C144.247 117.122 144.244 117.091 144.247 117.06L150.743 42.4252C150.749 42.3599 150.779 42.2991 150.827 42.2546C150.875 42.21 150.938 42.1848 151.003 42.1839C151.034 42.183 151.065 42.1888 151.094 42.2009C151.123 42.213 151.148 42.2311 151.169 42.254C151.19 42.2768 151.206 42.304 151.216 42.3335C151.226 42.3631 151.229 42.3943 151.225 42.4252L144.735 117.06C144.729 117.126 144.698 117.188 144.649 117.232C144.6 117.277 144.536 117.302 144.469 117.301V117.301Z" fill="#E0E0E0"/>
<path d="M128.144 117.301C128.113 117.302 128.082 117.297 128.054 117.284C128.025 117.272 128 117.254 127.979 117.231C127.958 117.208 127.943 117.181 127.934 117.151C127.925 117.122 127.922 117.091 127.927 117.06L134.437 42.4252C134.441 42.3595 134.471 42.2981 134.519 42.2533C134.568 42.2085 134.631 42.1837 134.697 42.1839C134.728 42.183 134.759 42.1888 134.788 42.2009C134.816 42.213 134.842 42.2311 134.863 42.254C134.884 42.2768 134.9 42.304 134.91 42.3335C134.919 42.3631 134.923 42.3943 134.919 42.4252L128.409 117.06C128.402 117.126 128.371 117.187 128.322 117.231C128.273 117.276 128.21 117.301 128.144 117.301V117.301Z" fill="#E0E0E0"/>
<path d="M111.818 117.301C111.787 117.302 111.756 117.296 111.728 117.284C111.699 117.272 111.673 117.254 111.652 117.231C111.631 117.208 111.615 117.181 111.606 117.152C111.596 117.122 111.593 117.091 111.596 117.06L118.106 42.4252C118.113 42.3595 118.144 42.2987 118.193 42.2542C118.242 42.2097 118.306 42.1847 118.372 42.1839C118.403 42.183 118.433 42.1887 118.462 42.2008C118.49 42.213 118.516 42.2312 118.536 42.2541C118.557 42.2771 118.572 42.3043 118.581 42.3339C118.591 42.3634 118.593 42.3946 118.589 42.4252L112.079 117.06C112.074 117.126 112.044 117.187 111.996 117.232C111.948 117.277 111.884 117.302 111.818 117.301V117.301Z" fill="#E0E0E0"/>
<path d="M95.4929 117.301C95.4618 117.302 95.4309 117.296 95.4023 117.284C95.3736 117.272 95.3479 117.254 95.3269 117.231C95.3058 117.208 95.2899 117.181 95.2803 117.152C95.2706 117.122 95.2674 117.091 95.2709 117.06L101.781 42.4252C101.788 42.3595 101.819 42.2987 101.868 42.2542C101.917 42.2097 101.98 42.1847 102.046 42.1839C102.077 42.183 102.108 42.1887 102.136 42.2008C102.165 42.213 102.19 42.2312 102.211 42.2541C102.232 42.2771 102.247 42.3043 102.256 42.3339C102.265 42.3634 102.268 42.3946 102.263 42.4252L95.7535 117.06C95.7475 117.125 95.7176 117.186 95.6695 117.231C95.6213 117.275 95.5584 117.3 95.4929 117.301V117.301Z" fill="#E0E0E0"/>
<path d="M161.683 70.7877H151.708C151.51 70.791 151.314 70.7522 151.133 70.6738C150.952 70.5954 150.789 70.4793 150.657 70.3332C150.524 70.187 150.423 70.0143 150.363 69.8264C150.302 69.6385 150.282 69.4398 150.304 69.2435L151.076 60.3883C151.117 59.9704 151.31 59.5822 151.619 59.2975C151.928 59.0128 152.33 58.8515 152.75 58.844H162.725C162.923 58.8401 163.119 58.8784 163.301 58.9565C163.483 59.0345 163.646 59.1506 163.78 59.2968C163.913 59.443 164.014 59.616 164.075 59.8042C164.136 59.9925 164.156 60.1916 164.134 60.3883L163.362 69.2435C163.321 69.6622 163.126 70.051 162.817 70.3358C162.507 70.6206 162.103 70.7815 161.683 70.7877V70.7877Z" fill="#58B368"/>
<path opacity="0.6" d="M161.683 70.7877H151.708C151.51 70.791 151.314 70.7522 151.133 70.6738C150.952 70.5954 150.789 70.4793 150.657 70.3332C150.524 70.187 150.423 70.0143 150.363 69.8264C150.302 69.6385 150.282 69.4398 150.304 69.2435L151.076 60.3883C151.117 59.9704 151.31 59.5822 151.619 59.2975C151.928 59.0128 152.33 58.8515 152.75 58.844H162.725C162.923 58.8401 163.119 58.8784 163.301 58.9565C163.483 59.0345 163.646 59.1506 163.78 59.2968C163.913 59.443 164.014 59.616 164.075 59.8042C164.136 59.9925 164.156 60.1916 164.134 60.3883L163.362 69.2435C163.321 69.6622 163.126 70.051 162.817 70.3358C162.507 70.6206 162.103 70.7815 161.683 70.7877V70.7877Z" fill="white"/>
<path d="M231.28 70.7835H220.793L221.831 58.8398H232.322L228.379 64.8141L231.28 70.7835Z" fill="white"/>
<path d="M231.67 71.0278H220.528L221.614 58.6016H232.78L228.683 64.8171L231.67 71.0278ZM221.054 70.5453H230.884L228.099 64.8171L231.883 59.0841H222.053L221.054 70.5453Z" fill="#58B368"/>
<path d="M192.939 85.7118H182.964C182.767 85.7157 182.571 85.6774 182.389 85.5996C182.208 85.5219 182.045 85.4063 181.912 85.2606C181.778 85.115 181.677 84.9426 181.616 84.7549C181.554 84.5673 181.534 84.3687 181.555 84.1723L182.327 75.3123C182.371 74.8949 182.566 74.5078 182.875 74.2242C183.184 73.9406 183.587 73.78 184.006 73.7729H193.981C194.178 73.7698 194.374 73.8085 194.555 73.8866C194.736 73.9646 194.899 74.0802 195.032 74.2257C195.165 74.3712 195.266 74.5432 195.328 74.7305C195.39 74.9179 195.411 75.1161 195.39 75.3123L194.618 84.1723C194.575 84.5898 194.38 84.9768 194.07 85.2604C193.761 85.5441 193.359 85.7046 192.939 85.7118V85.7118Z" fill="#58B368"/>
<path opacity="0.4" d="M192.939 85.7118H182.964C182.767 85.7157 182.571 85.6774 182.389 85.5996C182.208 85.5219 182.045 85.4063 181.912 85.2606C181.778 85.115 181.677 84.9426 181.616 84.7549C181.554 84.5673 181.534 84.3687 181.555 84.1723L182.327 75.3123C182.371 74.8949 182.566 74.5078 182.875 74.2242C183.184 73.9406 183.587 73.78 184.006 73.7729H193.981C194.178 73.7698 194.374 73.8085 194.555 73.8866C194.736 73.9646 194.899 74.0802 195.032 74.2257C195.165 74.3712 195.266 74.5432 195.328 74.7305C195.39 74.9179 195.411 75.1161 195.39 75.3123L194.618 84.1723C194.575 84.5898 194.38 84.9768 194.07 85.2604C193.761 85.5441 193.359 85.7046 192.939 85.7118V85.7118Z" fill="white"/>
<path d="M212.054 55.8618H185.57C185.372 55.8658 185.176 55.8275 184.994 55.7494C184.812 55.6713 184.649 55.5553 184.516 55.4091C184.382 55.2629 184.281 55.0899 184.22 54.9017C184.159 54.7134 184.139 54.5143 184.161 54.3176L184.933 45.4624C184.974 45.0445 185.168 44.6563 185.477 44.3716C185.785 44.087 186.188 43.9256 186.608 43.9182H213.096C213.294 43.915 213.49 43.9538 213.671 44.0322C213.853 44.1105 214.016 44.2265 214.149 44.3726C214.282 44.5186 214.383 44.6913 214.444 44.8792C214.506 45.067 214.526 45.2658 214.505 45.4624L213.733 54.3176C213.692 54.7363 213.498 55.1251 213.188 55.4099C212.878 55.6947 212.474 55.8556 212.054 55.8618V55.8618Z" fill="#58B368"/>
<path d="M106.404 68.7686C102.379 68.7686 99.0253 67.345 96.6462 64.6185C93.5916 61.1102 93.1331 56.7574 95.4446 53.2539C98.8757 48.0662 107.818 45.3011 113.7 46.0684C113.731 46.0723 113.761 46.0826 113.787 46.0987C113.814 46.1148 113.837 46.1362 113.854 46.1617C113.872 46.1872 113.884 46.2161 113.89 46.2465C113.896 46.277 113.896 46.3084 113.889 46.3386C113.874 46.4024 113.836 46.4586 113.783 46.4968C113.73 46.535 113.664 46.5525 113.599 46.5461C107.861 45.7981 99.1653 48.4764 95.8452 53.4952C93.2296 57.4523 94.7401 61.6603 97.0275 64.2855C100.217 67.9434 104.565 68.4598 107.644 68.2426C113.527 67.8324 119.969 64.4689 123.68 59.8748C124.718 58.5911 126.31 56.1252 125.335 54.0839C123.888 51.0292 119.062 51.2415 115.037 51.7627C115.007 51.7668 114.976 51.7645 114.947 51.7561C114.917 51.7476 114.89 51.7332 114.866 51.7138C114.843 51.6943 114.824 51.6701 114.81 51.6429C114.796 51.6156 114.788 51.5857 114.786 51.5552C114.784 51.4895 114.807 51.4254 114.85 51.3755C114.893 51.3256 114.953 51.2933 115.018 51.285C117.711 50.9327 124.013 50.1171 125.774 53.8523C126.865 56.1493 125.157 58.8035 124.047 60.1836C120.249 64.8839 113.652 68.3295 107.639 68.7445C107.224 68.7541 106.829 68.7686 106.404 68.7686Z" fill="#58B368"/>
<path d="M186.936 83.0532H186.897C186.822 83.048 186.749 83.0229 186.686 82.9805C186.623 82.9382 186.573 82.88 186.54 82.8119C186.043 81.674 185.359 80.6269 184.518 79.7137C184.423 79.6197 184.37 79.4918 184.369 79.3583C184.369 79.2249 184.422 79.0967 184.516 79.0019C184.61 78.9072 184.738 78.8538 184.871 78.8533C185.004 78.8529 185.133 78.9055 185.227 78.9995C186.001 79.8084 186.641 80.7353 187.124 81.7454C188.782 80.0425 190.579 78.48 192.495 77.0741C192.595 76.9967 192.721 76.9614 192.846 76.9758C192.971 76.9903 193.086 77.0532 193.166 77.1513C193.203 77.2045 193.228 77.2645 193.242 77.3279C193.255 77.3913 193.255 77.4566 193.242 77.5201C193.23 77.5836 193.205 77.6439 193.168 77.6974C193.132 77.751 193.085 77.7966 193.031 77.8317C190.975 79.3348 189.064 81.0263 187.322 82.8843C187.273 82.9375 187.213 82.98 187.146 83.009C187.08 83.0381 187.008 83.0531 186.936 83.0532V83.0532Z" fill="white"/>
<path d="M169.163 115.014C168.469 115.026 167.78 114.889 167.143 114.615C166.506 114.34 165.935 113.933 165.467 113.42C164.999 112.908 164.646 112.301 164.43 111.642C164.214 110.982 164.141 110.285 164.216 109.595C164.367 108.128 165.05 106.767 166.135 105.77C167.221 104.772 168.634 104.207 170.108 104.18C170.802 104.168 171.49 104.303 172.127 104.578C172.765 104.852 173.336 105.259 173.804 105.771C174.272 106.283 174.625 106.889 174.841 107.548C175.057 108.207 175.13 108.905 175.055 109.595C174.904 111.062 174.222 112.423 173.136 113.421C172.051 114.42 170.637 114.986 169.163 115.014ZM170.046 105.145C168.837 105.172 167.68 105.639 166.792 106.458C165.903 107.277 165.344 108.392 165.22 109.595C165.158 110.162 165.218 110.735 165.395 111.277C165.572 111.819 165.862 112.317 166.246 112.739C166.631 113.16 167.1 113.495 167.624 113.721C168.147 113.946 168.713 114.058 169.283 114.049C170.492 114.021 171.649 113.553 172.538 112.733C173.426 111.913 173.985 110.797 174.109 109.595C174.169 109.028 174.108 108.456 173.931 107.915C173.753 107.373 173.463 106.876 173.079 106.456C172.695 106.035 172.226 105.701 171.703 105.475C171.18 105.249 170.615 105.137 170.046 105.145V105.145Z" fill="#58B368"/>
<path d="M122.753 85.1049C122.06 85.1165 121.371 84.9803 120.734 84.7056C120.097 84.4308 119.525 84.0236 119.058 83.5111C118.59 82.9986 118.236 82.3924 118.021 81.7329C117.805 81.0733 117.732 80.3755 117.807 79.6856C117.958 78.2152 118.643 76.8514 119.733 75.8525C120.822 74.8537 122.241 74.2893 123.719 74.2663C124.412 74.2547 125.101 74.3909 125.738 74.6657C126.375 74.9405 126.946 75.3476 127.414 75.8601C127.882 76.3726 128.235 76.9788 128.451 77.6383C128.667 78.2979 128.74 78.9957 128.665 79.6856C128.513 81.1556 127.827 82.5189 126.738 83.5175C125.649 84.5161 124.231 85.0809 122.753 85.1049ZM123.612 75.2315C122.403 75.2581 121.246 75.7255 120.357 76.5457C119.468 77.366 118.91 78.4826 118.787 79.6856C118.725 80.2525 118.785 80.826 118.962 81.3681C119.139 81.9102 119.429 82.4084 119.813 82.8296C120.197 83.2509 120.667 83.5856 121.191 83.8115C121.714 84.0374 122.28 84.1493 122.85 84.1398C124.059 84.1121 125.216 83.6444 126.104 82.8243C126.993 82.0043 127.551 80.8883 127.676 79.6856C127.736 79.1197 127.676 78.5473 127.5 78.0063C127.323 77.4652 127.034 76.9678 126.651 76.5469C126.267 76.126 125.799 75.791 125.277 75.5643C124.755 75.3375 124.191 75.2241 123.622 75.2315H123.612Z" fill="#58B368"/>
<path opacity="0.1" d="M132.183 98.079H82.0436C81.5806 98.0857 81.1215 97.9941 80.6966 97.8102C80.2717 97.6263 79.8906 97.3544 79.5786 97.0123C79.2666 96.6702 79.0308 96.2657 78.8867 95.8257C78.7426 95.3857 78.6936 94.9201 78.7428 94.4597V94.4597C78.8449 93.4809 79.3008 92.573 80.025 91.9065C80.7492 91.2401 81.6918 90.861 82.6758 90.8404H132.815C133.278 90.8337 133.737 90.9253 134.162 91.1092C134.587 91.2931 134.968 91.5651 135.28 91.9072C135.592 92.2493 135.828 92.6537 135.972 93.0937C136.116 93.5338 136.165 93.9993 136.116 94.4597V94.4597C136.014 95.4386 135.558 96.3465 134.834 97.0129C134.11 97.6794 133.167 98.0585 132.183 98.079Z" fill="#454D66"/>
<path d="M65.5154 86.5789L67.3974 87.3848L64.8736 90.4781C64.4326 89.7097 64.0889 88.8895 63.8505 88.0362C63.815 87.9114 63.8051 87.7806 63.8213 87.6518C63.8375 87.523 63.8795 87.3988 63.9448 87.2866C64.0102 87.1744 64.0974 87.0766 64.2015 86.9989C64.3055 86.9213 64.4241 86.8654 64.5502 86.8346L65.5154 86.5789Z" fill="#FF8B7B"/>
<path d="M68.2612 90.7224L67.132 91.9771C67.0467 92.0724 66.9408 92.1469 66.8223 92.1949C66.7039 92.243 66.576 92.2634 66.4484 92.2546C66.3209 92.2457 66.1971 92.2079 66.0864 92.1439C65.9757 92.0799 65.8811 91.9915 65.8097 91.8854L64.8735 90.4956L67.3974 87.4023L68.4156 89.8152C68.4816 89.9649 68.5022 90.1307 68.4747 90.292C68.4473 90.4533 68.373 90.603 68.2612 90.7224V90.7224Z" fill="#FF8B7B"/>
<path d="M134.644 96.864L69.3761 91.6908C68.915 91.6603 68.4656 91.5326 68.0574 91.3161C67.6491 91.0996 67.2913 90.7992 67.0074 90.4346C66.7234 90.07 66.5198 89.6495 66.4099 89.2006C66.3 88.7518 66.2863 88.2848 66.3697 87.8303V87.8303C66.5491 86.8625 67.0757 85.9936 67.8505 85.3866C68.6254 84.7797 69.5952 84.4766 70.5777 84.5343L135.846 89.7026C136.307 89.7324 136.757 89.8596 137.166 90.0759C137.574 90.2922 137.932 90.5926 138.216 90.9574C138.501 91.3222 138.704 91.743 138.814 92.1922C138.923 92.6413 138.936 93.1086 138.852 93.5632C138.673 94.5314 138.147 95.4009 137.372 96.0086C136.597 96.6163 135.627 96.9205 134.644 96.864V96.864Z" fill="#58B368"/>
<path d="M88.5923 66.4062C89.4078 68.2449 90.2427 70.1317 91.0872 71.9655C91.9317 73.7993 92.8051 75.662 93.7413 77.2738C93.9398 77.61 94.1607 77.9324 94.4024 78.239C94.692 78.5816 95.0153 78.9339 95.3435 79.2958C96.0142 80.0148 96.7333 80.7435 97.4523 81.4577C98.9 82.9055 100.348 84.3532 101.795 85.8636L100.348 87.7505C98.5188 86.6964 96.7469 85.5463 95.0394 84.3049C94.1805 83.6824 93.3408 83.0357 92.5011 82.3312C92.0813 81.9789 91.6662 81.6025 91.2416 81.1923C90.7981 80.7289 90.393 80.2302 90.0303 79.7012C88.8219 77.891 87.7369 76.0015 86.7826 74.0454C85.8416 72.1392 84.9778 70.2427 84.1719 68.2545L88.5923 66.4062Z" fill="#FF8B7B"/>
<path d="M72.6334 66.1126C71.5379 67.903 70.4135 69.703 69.2891 71.4837L65.9353 76.8306L65.5251 77.4965L65.4768 77.5834V77.622V77.6509C65.4527 77.6877 65.4317 77.7265 65.4141 77.7668C65.3019 78.0908 65.2337 78.4284 65.2114 78.7705C65.1563 79.7041 65.1838 80.6407 65.2934 81.5694C65.5009 83.5383 65.8918 85.6182 66.3068 87.6306L64.0677 88.4606C63.0457 86.48 62.2369 84.3964 61.6548 82.245C61.3375 81.0902 61.1482 79.904 61.0902 78.7078C61.0565 77.9844 61.1247 77.2599 61.2929 76.5555C61.3605 76.3432 61.4135 76.1501 61.5052 75.9233L61.6548 75.5952L61.7176 75.4649L61.761 75.378L62.1326 74.6493C63.0977 72.719 64.1642 70.8467 65.2404 68.9936C66.3165 67.1405 67.4361 65.3212 68.6184 63.5164L72.6334 66.1126Z" fill="#FF8B7B"/>
<path d="M85.4022 52.7499C85.3153 52.9864 85.3684 53.2325 85.5228 53.3C85.6773 53.3676 85.8751 53.2228 85.9668 52.9815C86.0585 52.7403 86.0006 52.499 85.8462 52.4314C85.6917 52.3639 85.4939 52.5086 85.4022 52.7499Z" fill="#263238"/>
<path d="M85.3443 53.2266C85.3547 54.0803 85.478 54.929 85.711 55.7504C85.5028 55.8 85.2861 55.8028 85.0767 55.7585C84.8672 55.7143 84.6702 55.6242 84.4998 55.4947L85.3443 53.2266Z" fill="#FF5652"/>
<path d="M86.2855 51.3402C86.2543 51.3345 86.2257 51.3193 86.2034 51.2968C86.0587 51.1781 85.8878 51.0956 85.7049 51.0561C85.5219 51.0167 85.3322 51.0214 85.1514 51.0699C85.1321 51.075 85.112 51.0761 85.0922 51.0732C85.0724 51.0703 85.0534 51.0635 85.0363 51.0531C85.0192 51.0428 85.0044 51.0291 84.9927 51.013C84.9809 50.9968 84.9726 50.9784 84.9681 50.959C84.9594 50.9206 84.9661 50.8803 84.9869 50.8469C85.0077 50.8135 85.0408 50.7896 85.079 50.7804C85.3087 50.719 85.5498 50.7142 85.7818 50.7663C86.0137 50.8184 86.2296 50.9259 86.411 51.0796C86.425 51.0935 86.4361 51.11 86.4437 51.1283C86.4512 51.1465 86.4552 51.166 86.4552 51.1858C86.4552 51.2055 86.4512 51.225 86.4437 51.2433C86.4361 51.2615 86.425 51.278 86.411 51.2919C86.3953 51.3092 86.3757 51.3226 86.3539 51.3309C86.3322 51.3393 86.3087 51.3425 86.2855 51.3402V51.3402Z" fill="#263238"/>
<path d="M76.6051 53.2227C76.301 55.8189 76.7981 59.0908 75.0222 60.3937C75.0222 60.3937 75.3938 62.8066 79.6646 63.4677C84.36 64.1626 82.1643 61.4554 82.1643 61.4554C79.6694 60.4564 79.9445 58.5599 80.5863 56.8275L76.6051 53.2227Z" fill="#FF8B7B"/>
<path d="M73.5309 62.0244C73.4682 60.8276 73.5309 59.0228 74.2741 58.7622C75.0848 58.4775 79.8767 58.8587 82.28 61.0351C81.7298 62.1204 81.4485 63.3219 81.4596 64.5386L73.5309 62.0244Z" fill="#263238"/>
<path d="M58.8461 169.658C58.4117 169.622 57.9886 169.501 57.6011 169.301C57.5876 169.294 57.5763 169.284 57.5686 169.271C57.5609 169.258 57.5571 169.243 57.5577 169.228C57.5588 169.214 57.5639 169.201 57.5725 169.19C57.581 169.179 57.5927 169.17 57.6059 169.166C57.6494 169.166 58.6145 168.78 59.0537 168.987C59.101 169.01 59.143 169.042 59.1771 169.082C59.2111 169.122 59.2365 169.168 59.2515 169.219C59.2785 169.277 59.286 169.343 59.273 169.407C59.26 169.47 59.2271 169.528 59.1791 169.571C59.0826 169.64 58.964 169.671 58.8461 169.658ZM57.8279 169.243C58.2719 169.441 58.9041 169.595 59.073 169.455C59.073 169.455 59.1405 169.402 59.073 169.262C59.0635 169.232 59.048 169.204 59.0272 169.18C59.0064 169.156 58.981 169.136 58.9523 169.122C58.5737 169.055 58.1837 169.097 57.8279 169.243V169.243Z" fill="#58B368"/>
<path d="M57.6349 169.311C57.6148 169.31 57.5957 169.302 57.5819 169.287C57.575 169.276 57.5714 169.264 57.5714 169.251C57.5714 169.238 57.575 169.225 57.5819 169.215C57.5819 169.176 57.8521 168.298 58.2768 168.09C58.329 168.066 58.3858 168.054 58.4433 168.054C58.5007 168.054 58.5575 168.066 58.6097 168.09C58.6663 168.104 58.7162 168.137 58.7506 168.184C58.7851 168.23 58.8018 168.288 58.798 168.346C58.798 168.708 58.021 169.229 57.6736 169.311H57.6349ZM58.4457 168.196C58.4022 168.197 58.3594 168.207 58.3202 168.225C58.0459 168.457 57.8489 168.767 57.7556 169.113C58.1175 168.949 58.6146 168.539 58.6291 168.322C58.6291 168.322 58.629 168.249 58.5374 168.216C58.5085 168.203 58.4773 168.196 58.4457 168.196V168.196Z" fill="#58B368"/>
<path d="M83.1052 171.063C82.7814 171.061 82.4584 171.031 82.1401 170.971C82.1264 170.966 82.1147 170.956 82.1064 170.944C82.0981 170.932 82.0937 170.918 82.0937 170.903C82.0937 170.889 82.0981 170.874 82.1064 170.862C82.1147 170.85 82.1264 170.841 82.1401 170.836C82.2993 170.739 83.7085 169.933 84.0463 170.493C84.0805 170.542 84.0989 170.6 84.0989 170.66C84.0989 170.719 84.0805 170.777 84.0463 170.826C83.9015 171.005 83.5106 171.063 83.1052 171.063ZM82.3669 170.86C82.9653 170.947 83.7712 170.932 83.9063 170.739C83.9063 170.739 83.9497 170.676 83.9063 170.57C83.694 170.252 82.835 170.614 82.3669 170.86Z" fill="#58B368"/>
<path d="M82.1401 170.977C82.1277 170.982 82.1139 170.982 82.1015 170.977C82.0902 170.97 82.081 170.96 82.0751 170.948C82.0691 170.936 82.0666 170.922 82.0677 170.909C82.0802 170.464 82.2358 170.034 82.5117 169.683C82.5688 169.635 82.6349 169.599 82.7061 169.577C82.7774 169.554 82.8523 169.546 82.9267 169.553C83.139 169.577 83.2018 169.683 83.2162 169.77C83.2741 170.137 82.5551 170.808 82.1739 170.982L82.1401 170.977ZM82.8688 169.688C82.7733 169.689 82.681 169.723 82.6082 169.785C82.3856 170.06 82.254 170.397 82.2318 170.75C82.613 170.513 83.1052 169.983 83.0666 169.761C83.0666 169.761 83.0666 169.683 82.9122 169.669L82.8688 169.688Z" fill="#58B368"/>
<path d="M78.6511 170.899H81.8265L81.8602 163.54H78.6801L78.6511 170.899Z" fill="#FF8B7B"/>
<path d="M54.0399 168.621L57.0173 169.312L59.5171 162.034L56.5396 161.344L54.0399 168.621Z" fill="#FF8B7B"/>
<path d="M57.4806 168.819L54.0205 167.936C53.9602 167.919 53.8958 167.924 53.8391 167.951C53.7824 167.977 53.7372 168.023 53.7117 168.081L52.5197 170.691C52.4909 170.756 52.4768 170.827 52.4784 170.898C52.48 170.969 52.4974 171.039 52.5292 171.103C52.561 171.166 52.6065 171.222 52.6625 171.266C52.7184 171.31 52.7833 171.341 52.8527 171.357C54.0688 171.642 54.672 171.719 56.1921 172.1C57.1283 172.337 59.0393 172.921 60.3326 173.244C61.6259 173.567 62.065 172.318 61.5583 172.071C59.2951 170.947 58.5567 170.001 57.939 169.118C57.8261 168.968 57.6638 168.862 57.4806 168.819V168.819Z" fill="#263238"/>
<path d="M81.7927 170.531H78.323C78.2604 170.531 78.1998 170.553 78.1514 170.592C78.103 170.632 78.0698 170.687 78.0576 170.748L77.5412 173.571C77.5291 173.641 77.5326 173.713 77.5514 173.781C77.5702 173.85 77.6038 173.913 77.6499 173.967C77.696 174.021 77.7534 174.064 77.818 174.093C77.8826 174.123 77.9529 174.137 78.0238 174.136C79.2737 174.136 81.0785 174.044 82.6517 174.044C84.4951 174.044 84.5289 174.141 86.686 174.141C87.9889 174.141 88.3026 172.823 87.7525 172.693C85.2431 172.153 84.7702 172.095 82.5696 170.763C82.3367 170.616 82.068 170.536 81.7927 170.531V170.531Z" fill="#263238"/>
<path d="M71.3016 60.1769C68.2807 60.4182 64.0195 67.9946 64.0195 67.9946L69.4919 72.9506C71.1961 71.0428 72.7468 69.0032 74.1294 66.8509C76.2769 63.4101 74.39 59.9308 71.3016 60.1769Z" fill="#58B368"/>
<path opacity="0.6" d="M71.3016 60.1769C68.2807 60.4182 64.0195 67.9946 64.0195 67.9946L69.4919 72.9506C71.1961 71.0428 72.7468 69.0032 74.1294 66.8509C76.2769 63.4101 74.39 59.9308 71.3016 60.1769Z" fill="white"/>
<path opacity="0.2" d="M72.8457 65.6289L69.2312 72.7034L69.487 72.9399C69.487 72.9399 70.8864 71.4101 72.4451 69.3013L72.8457 65.6289Z" fill="#454D66"/>
<path d="M86.4398 77.1639C85.8945 80.6674 85.0307 85.0009 83.7036 90.3382L66.8956 87.8288C67.05 85.416 69.6221 74.6594 69.1154 63.1114C69.0975 62.7268 69.1588 62.3427 69.2955 61.9828C69.4323 61.6229 69.6416 61.295 69.9104 61.0194C70.1792 60.7438 70.5018 60.5264 70.8581 60.3807C71.2145 60.235 71.597 60.1642 71.9819 60.1725C72.8119 60.1725 73.724 60.2353 74.6216 60.3221C77.022 60.5409 79.4081 60.8954 81.7685 61.3838C83.3869 61.7934 84.9712 62.3274 86.5074 62.9811C86.5074 62.9811 87.7138 64.7522 87.0623 72.1211C86.932 73.5833 86.7342 75.2481 86.4398 77.1639Z" fill="#58B368"/>
<path opacity="0.6" d="M86.4398 77.1639C85.8945 80.6674 85.0307 85.0009 83.7036 90.3382L66.8956 87.8288C67.05 85.416 69.6221 74.6594 69.1154 63.1114C69.0975 62.7268 69.1588 62.3427 69.2955 61.9828C69.4323 61.6229 69.6416 61.295 69.9104 61.0194C70.1792 60.7438 70.5018 60.5264 70.8581 60.3807C71.2145 60.235 71.597 60.1642 71.9819 60.1725C72.8119 60.1725 73.724 60.2353 74.6216 60.3221C77.022 60.5409 79.4081 60.8954 81.7685 61.3838C83.3869 61.7934 84.9712 62.3274 86.5074 62.9811C86.5074 62.9811 87.7138 64.7522 87.0623 72.1211C86.932 73.5833 86.7342 75.2481 86.4398 77.1639Z" fill="white"/>
<path opacity="0.2" d="M86.4399 77.1653C85.0742 76.3015 83.7954 72.3395 84.3697 70.25L87.0624 72.132C86.9321 73.5846 86.7343 75.2495 86.4399 77.1653Z" fill="#454D66"/>
<path d="M82.6613 65.1456C81.7927 68.0411 87.0527 76.5682 87.0527 76.5682L93.3262 73.2866C92.4034 70.6142 91.1658 68.0611 89.6393 65.6813C87.1251 61.9799 83.6651 61.8738 82.6613 65.1456Z" fill="#58B368"/>
<path opacity="0.6" d="M82.6613 65.1456C81.7927 68.0411 87.0527 76.5682 87.0527 76.5682L93.3262 73.2866C92.4034 70.6142 91.1658 68.0611 89.6393 65.6813C87.1251 61.9799 83.6651 61.8738 82.6613 65.1456Z" fill="white"/>
<path opacity="0.2" d="M81.8553 163.547L81.8409 167.34H78.6655L78.68 163.547H81.8553Z" fill="#454D66"/>
<path opacity="0.2" d="M56.5396 161.348L59.517 162.034L58.2238 165.788L55.2511 165.098L56.5396 161.348Z" fill="#454D66"/>
<path d="M77.7053 48.9536C76.7836 51.9793 76.0935 53.6973 77.0007 55.8206C77.2823 56.5158 77.7493 57.1203 78.3508 57.5683C78.9523 58.0163 79.6653 58.2906 80.4119 58.3613C81.1586 58.4319 81.9104 58.2963 82.5853 57.9691C83.2602 57.642 83.8323 57.1358 84.2393 56.5059C85.8511 54.093 87.0865 49.5665 84.6785 47.2067C84.1732 46.6802 83.5377 46.2966 82.8364 46.0948C82.1352 45.893 81.393 45.8801 80.6852 46.0575C79.9773 46.2348 79.3289 46.596 78.8056 47.1046C78.2823 47.6132 77.9027 48.2511 77.7053 48.9536V48.9536Z" fill="#FF8B7B"/>
<path d="M82.5647 52.2777C82.2028 53.8267 81.2618 56.6208 78.9454 56.9442C77.6521 57.1227 75.4999 56.7415 75.302 55.6991C75.1041 54.6568 75.9052 54.7967 75.7025 53.9425C75.4999 53.0884 74.443 50.082 75.6446 47.9779C73.9749 48.1179 75.1186 45.6423 78.1154 45.0825C77.1889 44.7206 77.6328 42.1871 82.2559 43.3935C84.4178 43.9485 86.0248 44.7978 86.2178 45.9608C88.1867 46.7908 88.7079 48.8803 87.487 49.6428C86.2661 50.4053 84.4999 49.5463 84.4999 49.5463C84.4999 49.5463 85.3347 53.9667 82.5647 52.2777Z" fill="#263238"/>
<path d="M81.3052 52.0412C81.2628 52.736 81.4756 53.4225 81.9036 53.9715C82.4779 54.705 82.6709 54.7098 82.9074 53.8943C83.1245 53.1608 83.6505 51.52 82.8832 51.0857C82.116 50.6514 81.3728 51.1967 81.3052 52.0412Z" fill="#FF8B7B"/>
<path d="M77.7438 89.4507C77.7438 89.4507 75.1331 114.371 73.5309 123.462C71.7454 133.423 59.8837 165.446 59.8837 165.446L54.228 164.047C57.1234 152.948 61.4135 132.279 64.0242 124.365C65.9931 112.334 64.0242 97.2104 66.9197 87.8389L77.7438 89.4507Z" fill="#263238"/>
<path d="M61.2011 163.592L60.1588 165.633L53.8081 164.036L54.3341 162.105L61.2011 163.592Z" fill="#58B368"/>
<path opacity="0.2" d="M76.1321 99.1675C76.3121 99.1317 76.4974 99.1317 76.6774 99.1675C75.8425 106.609 74.6554 116.54 73.7192 122.239C72.9374 113.958 72.2136 99.9397 76.1321 99.1675Z" fill="#454D66"/>
<path d="M83.7036 90.3372C83.7036 90.3372 85.021 116.966 85.214 126.651C85.4119 136.727 82.999 166.603 82.999 166.603H77.6135C77.6135 166.603 75.5819 138.899 76.6773 125.387C75.3792 115.093 72.6575 88.7109 72.6575 88.7109L83.7036 90.3372Z" fill="#263238"/>
<path d="M103.137 85.5591C102.261 85.4864 101.38 85.6118 100.56 85.9259L100.169 86.5725C100.093 86.7005 100.047 86.844 100.034 86.9923C100.021 87.1407 100.042 87.29 100.095 87.4291C100.148 87.5683 100.231 87.6937 100.339 87.7961C100.447 87.8984 100.577 87.9751 100.719 88.0203L102.606 88.6235L103.528 88.9034C103.722 88.9634 103.93 88.9607 104.122 88.8957C104.314 88.8308 104.481 88.7068 104.599 88.5414L104.995 87.9913C105.137 87.7971 105.201 87.5568 105.175 87.3175C105.149 87.0783 105.035 86.8573 104.855 86.698L104.005 85.9307C103.763 85.7166 103.459 85.5863 103.137 85.5591V85.5591Z" fill="#FF8B7B"/>
<path d="M83.9498 164.457L83.7326 166.691H77.1841L76.9332 164.698L83.9498 164.457Z" fill="#58B368"/>
</svg>
