<svg width="24" height="24" viewBox="0 0 24 24" fill="none" xmlns="http://www.w3.org/2000/svg">
    <path d="M12.6 6.75C12.6 6.41863 12.3314 6.15 12 6.15C11.6686 6.15 11.4 6.41863 11.4 6.75H12.6ZM12 12H11.4C11.4 12.3314 11.6686 12.6 12 12.6V12ZM17.25 12.6C17.5814 12.6 17.85 12.3314 17.85 12C17.85 11.6686 17.5814 11.4 17.25 11.4V12.6ZM20.4 12C20.4 16.6392 16.6392 20.4 12 20.4V21.6C17.3019 21.6 21.6 17.3019 21.6 12H20.4ZM12 20.4C7.36081 20.4 3.6 16.6392 3.6 12H2.4C2.4 17.3019 6.69807 21.6 12 21.6V20.4ZM3.6 12C3.6 7.36081 7.36081 3.6 12 3.6V2.4C6.69807 2.4 2.4 6.69807 2.4 12H3.6ZM12 3.6C16.6392 3.6 20.4 7.36081 20.4 12H21.6C21.6 6.69807 17.3019 2.4 12 2.4V3.6ZM11.4 6.75V12H12.6V6.75H11.4ZM12 12.6H17.25V11.4H12V12.6Z" fill="#454C62"></path>
</svg>