<svg width="280" height="180" viewBox="0 0 280 180" fill="none" xmlns="http://www.w3.org/2000/svg">
<path d="M241.129 142.426C241.129 142.426 267.355 111.825 266.059 73.4813C264.931 40.1441 244.578 45.5266 254.577 60.1612C257.525 64.475 262.917 68.9256 263.456 73.6943C265.889 95.1939 256.804 119.483 241.129 142.426Z" fill="#E4F5E8"/>
<path d="M238.758 147.949C238.758 147.949 257.628 115.484 252.802 80.6454C248.607 50.3563 232.167 58.7593 241.931 70.4299C244.81 73.8697 249.739 77.0164 250.653 81.2856C254.78 100.527 249.581 124.289 238.758 147.949Z" fill="#E4F5E8"/>
<path d="M243.033 132.666C243.033 132.666 258.746 114.331 257.97 91.3595C257.295 71.3858 245.1 74.6114 251.091 83.3784C252.857 85.9625 256.087 88.6295 256.41 91.487C257.868 104.368 252.425 118.92 243.033 132.666Z" fill="#E4F5E8"/>
<path d="M76.7071 130.89C76.7071 130.89 83.0699 65.2227 52.6829 20.4529C52.2871 19.8693 51.4173 19.8811 51.0452 20.4805C45.1643 29.9429 10.6599 91.2518 76.7071 130.89Z" fill="#E4F5E8"/>
<path d="M51.6664 39.5507C51.6505 43.3834 51.7909 47.232 52.0781 51.0596C52.3403 54.891 52.7203 58.712 53.2035 62.5185C53.7013 66.3237 54.2798 70.1171 55.0027 73.8841C55.7071 77.6538 56.5186 81.4038 57.4877 85.1131C58.4397 88.8263 59.4922 92.5145 60.7248 96.1448C60.8744 96.5996 61.0187 97.057 61.1736 97.5105L61.6581 98.8643C61.9865 99.7647 62.291 100.674 62.6392 101.567L63.6838 104.246L63.9432 104.916L64.2226 105.578L64.7813 106.903C65.4989 108.683 66.3422 110.406 67.1286 112.157C67.5377 113.024 67.9786 113.876 68.4023 114.737L69.0444 116.026C69.2628 116.454 69.5011 116.87 69.7249 117.295L71.0872 119.834L72.5435 122.322L73.273 123.567L74.0502 124.782L75.5912 127.224L75.5952 127.23C75.6746 127.357 75.6362 127.524 75.5091 127.604C75.3873 127.68 75.2285 127.647 75.1437 127.534C70.5616 121.292 66.6189 114.556 63.4812 107.463L62.8854 106.137L62.5875 105.473L62.3108 104.802L61.212 102.11C60.8479 101.211 60.5275 100.297 60.1833 99.3901L59.6749 98.0284C59.512 97.5723 59.3598 97.1122 59.2022 96.6548C57.9167 92.9969 56.8509 89.2679 55.8686 85.5232C53.9422 78.0192 52.6038 70.3747 51.7816 62.6841C51.3698 58.8382 51.1064 54.9791 50.9753 51.1161C50.9144 49.1852 50.8972 47.2517 50.9104 45.3196C50.9237 43.3861 50.9753 41.4592 51.1196 39.5231C51.1302 39.3745 51.2613 39.2615 51.4109 39.2733C51.5539 39.2838 51.6638 39.4021 51.6638 39.5428L51.6664 39.5507Z" fill="#DAF1DE"/>
<path d="M71.7662 133.848C71.7662 133.848 49.5638 61.1325 8.502 50.014C7.77383 49.8168 7.04964 50.3492 7.02449 51.0984C6.7213 59.8181 8.23059 106.22 71.7662 133.848Z" fill="#E4F5E8"/>
<path d="M15.3905 61.8537C17.2771 65.0214 19.2802 68.1313 21.3111 71.2175C22.3345 72.7554 23.3579 74.2945 24.3985 75.8219C25.4537 77.3387 26.4904 78.8686 27.5614 80.3749C28.6404 81.876 29.7062 83.3862 30.7945 84.8794L34.099 89.3326C36.3484 92.2663 38.5951 95.2027 40.9239 98.0747C43.2024 100.987 45.6172 103.79 47.9791 106.634L51.6385 110.803C52.2515 111.496 52.8539 112.197 53.4748 112.883L55.3601 114.917C56.6205 116.271 57.8676 117.637 59.1399 118.98L63.0283 122.941C63.677 123.6 64.3152 124.271 64.9732 124.92L66.975 126.843L70.9785 130.689L70.9838 130.694C71.0924 130.798 71.095 130.969 70.9905 131.077C70.8872 131.183 70.7164 131.187 70.6078 131.086C65.1824 126.028 59.8284 120.882 54.8437 115.389L52.9465 113.356C52.323 112.671 51.7153 111.971 51.0997 111.278L47.4165 107.111C45.0387 104.268 42.6093 101.467 40.3149 98.5571C35.6665 92.7842 31.2247 86.8484 26.9789 80.7798C25.9105 79.2669 24.8791 77.7291 23.8266 76.2057C22.79 74.6718 21.7705 73.126 20.7511 71.5803C18.7453 68.4665 16.7793 65.3316 14.9165 62.1245C14.8411 61.9943 14.8861 61.83 15.0158 61.7551C15.1456 61.6815 15.311 61.7249 15.3865 61.8511L15.3905 61.8537Z" fill="#DAF1DE"/>
<g opacity="0.68">
<path opacity="0.68" d="M173.1 76.7966C173.08 90.6334 172.124 104.499 169.667 118.14C169.044 121.547 168.324 124.938 167.465 128.298C166.603 131.655 165.609 134.984 164.391 138.238C163.162 141.484 161.738 144.683 159.805 147.607C158.83 149.059 157.726 150.449 156.362 151.593C155.681 152.161 154.932 152.665 154.109 153.035C153.288 153.401 152.389 153.634 151.478 153.65C150.569 153.676 149.657 153.5 148.82 153.165C147.979 152.833 147.213 152.351 146.515 151.802C145.119 150.694 143.99 149.319 142.999 147.878C141.031 144.975 139.587 141.782 138.346 138.542C137.114 135.293 136.109 131.967 135.239 128.612C134.372 125.255 133.644 121.865 133.016 118.459C131.765 111.645 130.911 104.766 130.335 97.8665C129.763 90.9672 129.477 84.0456 129.441 77.1226C129.424 73.6618 129.52 70.201 129.643 66.7428C129.774 63.2846 129.966 59.829 130.221 56.3774C130.736 49.4755 131.507 42.5893 132.652 35.7597C133.227 32.3462 133.897 28.9458 134.701 25.577C135.509 22.2082 136.448 18.867 137.613 15.5981C138.198 13.9656 138.837 12.3489 139.568 10.7716C140.296 9.19431 141.112 7.65121 142.07 6.19222C143.032 4.73981 144.136 3.35311 145.51 2.24376C146.197 1.69434 146.954 1.21458 147.785 0.891237C148.611 0.562637 149.507 0.397022 150.399 0.429882C151.292 0.454856 152.172 0.675675 152.984 1.03056C153.797 1.38677 154.543 1.87178 155.229 2.42252C156.601 3.52924 157.735 4.88176 158.743 6.30263C160.745 9.16408 162.254 12.3186 163.562 15.5297C164.859 18.7487 165.932 22.0518 166.865 25.3891C167.796 28.7276 168.582 32.103 169.264 35.4981C171.964 49.0904 173.058 62.9573 173.1 76.7966ZM172.068 76.7966C172.081 69.9026 171.817 63.0059 171.239 56.1356C170.67 49.2652 169.808 42.4145 168.524 35.6401C167.883 32.2529 167.137 28.8854 166.247 25.5547C165.354 22.2253 164.326 18.9314 163.072 15.7216C161.81 12.5211 160.346 9.37702 158.404 6.53659C157.428 5.12624 156.327 3.78686 155.004 2.69723C154.343 2.15569 153.626 1.67988 152.85 1.32893C152.074 0.983245 151.24 0.755854 150.39 0.733509C149.541 0.707221 148.694 0.876779 147.909 1.19749C147.121 1.51558 146.398 1.98219 145.739 2.52241C144.42 3.61073 143.351 4.97903 142.423 6.4183C141.496 7.86414 140.705 9.39673 140.002 10.9661C139.297 12.5355 138.68 14.1444 138.117 15.7716C136.997 19.0287 136.1 22.362 135.333 25.7216C134.568 29.0825 133.939 32.475 133.404 35.8806C132.338 42.6945 131.647 49.5635 131.209 56.4458C130.767 63.328 130.613 70.2273 130.626 77.1226C130.608 84.0166 130.84 90.9133 131.356 97.789C131.876 104.663 132.673 111.521 133.866 118.311C134.463 121.704 135.162 125.081 135.998 128.424C136.836 131.765 137.807 135.075 139.003 138.3C140.206 141.518 141.612 144.684 143.514 147.535C144.471 148.949 145.559 150.29 146.878 151.353C147.537 151.881 148.255 152.338 149.03 152.649C149.804 152.962 150.634 153.137 151.464 153.11C152.295 153.088 153.113 152.87 153.873 152.525C154.635 152.176 155.336 151.697 155.981 151.15C157.272 150.05 158.338 148.692 159.276 147.266C161.144 144.392 162.531 141.219 163.719 137.995C164.899 134.763 165.862 131.451 166.69 128.108C167.516 124.764 168.206 121.385 168.798 117.99C169.983 111.198 170.769 104.341 171.292 97.4669C171.826 90.5887 172.071 83.692 172.068 76.7966Z" fill="#DAF1DE"/>
<path opacity="0.68" d="M208.258 76.7926C208.211 85.7029 207.056 94.6172 204.654 103.211C202.21 111.783 198.525 120.031 193.521 127.437C191.019 131.135 188.185 134.616 185.018 137.774C181.852 140.931 178.351 143.765 174.551 146.14C170.747 148.506 166.639 150.399 162.338 151.685C158.039 152.973 153.552 153.644 149.061 153.648C144.57 153.648 140.082 152.981 135.781 151.696C131.478 150.415 127.366 148.525 123.558 146.161C119.754 143.789 116.247 140.958 113.077 137.802C109.904 134.645 107.065 131.164 104.557 127.467C99.5433 120.061 95.8508 111.81 93.3949 103.233C92.1861 98.9363 91.2872 94.5554 90.6927 90.1351C90.1009 85.7135 89.8031 81.255 89.7832 76.7952C89.807 72.3355 90.1062 67.877 90.702 63.4567C91.3004 59.0377 92.202 54.6568 93.4134 50.3626C95.876 41.7888 99.5737 33.5435 104.59 26.1448C107.099 22.45 109.939 18.9734 113.111 15.8201C116.282 12.6682 119.785 9.84093 123.589 7.475C127.395 5.11828 131.506 3.24132 135.802 1.96109C140.094 0.675603 144.576 0.00394321 149.061 0C153.547 0.00788641 158.025 0.682175 162.316 1.9716C166.61 3.25577 170.717 5.13668 174.519 7.49603C178.319 9.86327 181.818 12.6945 184.983 15.8464C188.15 19.001 190.985 22.4776 193.487 26.1724C198.493 33.5698 202.184 41.8111 204.635 50.381C207.044 58.9693 208.204 67.8823 208.258 76.7926ZM207.076 76.7926C207.063 67.9835 205.957 59.1639 203.616 50.661C201.263 42.17 197.717 33.9733 192.837 26.6022C190.398 22.9205 187.629 19.4492 184.527 16.2946C181.423 13.1453 177.996 10.2944 174.246 7.92584C170.493 5.57044 166.439 3.67507 162.189 2.39221C157.941 1.10936 153.506 0.433753 149.062 0.419294C144.619 0.437696 140.185 1.11593 135.938 2.40273C131.69 3.68821 127.64 5.58752 123.89 7.94556C120.145 10.3167 116.723 13.169 113.625 16.3209C110.528 19.4768 107.764 22.9481 105.33 26.6311C100.461 34.0023 96.9232 42.1949 94.5798 50.682C93.4121 54.9302 92.5674 59.2624 91.9955 63.6263C91.4209 67.9901 91.1389 72.392 91.1283 76.7939C91.1416 81.1959 91.4275 85.5978 92.0034 89.9616C92.5794 94.3241 93.4267 98.6551 94.597 102.902C96.9457 111.385 100.489 119.572 105.362 126.936C107.795 130.615 110.561 134.082 113.658 137.234C116.756 140.381 120.177 143.23 123.921 145.594C127.669 147.945 131.719 149.831 135.959 151.117C140.197 152.405 144.625 153.086 149.062 153.108C153.5 153.09 157.927 152.413 162.168 151.127C166.411 149.846 170.462 147.964 174.216 145.613C177.964 143.251 181.389 140.404 184.494 137.26C187.596 134.11 190.365 130.642 192.805 126.965C197.688 119.6 201.239 111.409 203.599 102.922C205.945 94.4187 207.057 85.6017 207.076 76.7926Z" fill="#DAF1DE"/>
<path opacity="0.68" d="M79.985 46.3782L97.7628 46.2362L115.541 46.1561L151.095 46.0903L186.649 46.1626L204.427 46.2507L222.205 46.4045C222.234 46.4045 222.256 46.4281 222.256 46.457C222.256 46.486 222.233 46.5083 222.205 46.5083L204.427 46.6621L186.649 46.7502L151.095 46.8224L115.541 46.7567L97.7628 46.6766L79.985 46.5346C79.9427 46.5346 79.9069 46.4991 79.9082 46.457C79.9082 46.4124 79.9427 46.3782 79.985 46.3782Z" fill="#DAF1DE"/>
<path opacity="0.68" d="M100.609 16.8178C104.816 16.7521 109.024 16.7232 113.23 16.6758L125.851 16.5957C130.059 16.5615 134.266 16.5654 138.472 16.5549L151.093 16.5312L176.337 16.6035L188.958 16.6916C193.165 16.7442 197.373 16.7744 201.579 16.8454C201.608 16.8454 201.631 16.869 201.631 16.898C201.631 16.9256 201.607 16.9479 201.579 16.9492C197.371 17.0202 193.164 17.0504 188.958 17.103L176.337 17.1911L151.093 17.2634L138.472 17.2397C134.265 17.2292 130.057 17.2331 125.851 17.199L113.23 17.1188C109.023 17.0702 104.815 17.0426 100.609 16.9768C100.567 16.9755 100.532 16.9413 100.532 16.898C100.532 16.852 100.567 16.8191 100.609 16.8178Z" fill="#DAF1DE"/>
<path opacity="0.68" d="M73.8073 75.941L93.1288 75.7991L112.45 75.7176L151.095 75.6519L189.739 75.7241L209.06 75.8122L228.382 75.966C228.411 75.966 228.434 75.9897 228.434 76.0186C228.434 76.0475 228.41 76.0698 228.382 76.0698L209.06 76.2236L189.739 76.3117L151.095 76.384L112.45 76.3183L93.1288 76.2368L73.8073 76.0948C73.7649 76.0948 73.7292 76.0593 73.7305 76.0173C73.7305 75.9752 73.7649 75.941 73.8073 75.941Z" fill="#DAF1DE"/>
<path opacity="0.68" d="M79.985 105.499L97.7628 105.357L115.541 105.277L151.095 105.211L186.649 105.283L204.427 105.371L222.205 105.525C222.234 105.525 222.256 105.549 222.256 105.578C222.256 105.607 222.233 105.629 222.205 105.629L204.427 105.783L186.649 105.871L151.095 105.943L115.541 105.877L97.7628 105.797L79.985 105.655C79.9427 105.655 79.9069 105.62 79.9082 105.578C79.9082 105.533 79.9427 105.5 79.985 105.499Z" fill="#DAF1DE"/>
<path opacity="0.68" d="M204.124 135.417H103.153C103.002 135.417 102.88 135.296 102.88 135.146C102.88 134.996 103.002 134.875 103.153 134.875H204.124C204.275 134.875 204.397 134.996 204.397 135.146C204.397 135.296 204.275 135.417 204.124 135.417Z" fill="#DAF1DE"/>
</g>
<path d="M141.391 135.446C141.391 135.446 139.711 131.056 137.749 131.458C135.787 131.86 133.641 133.356 133.641 133.356L130.488 137.588C130.488 137.588 139.336 141.049 142.447 139.066C142.447 139.066 151.485 140.617 162.897 138.757C161.245 135.295 160.26 131.827 159.682 129.137C153.903 132.385 147.677 134.811 141.391 135.446Z" fill="url(#paint0_linear_1181_20265)"/>
<path d="M189.262 103.606C189.262 103.606 176.323 119.786 159.683 129.137C160.261 131.827 161.245 135.295 162.897 138.757C171.529 137.351 181.52 133.995 189.989 126.537L189.262 103.606Z" fill="#FFCA7B"/>
<path d="M16.4444 111.071L42.1314 175.206C43.4381 178.469 46.83 180.418 50.3318 179.919L117.691 174.981L93.4286 106.779C92.7825 105.091 91.1355 103.993 89.3177 104.033C77.5082 104.303 34.4949 105.358 19.1081 106.717C16.9713 106.907 15.6315 109.099 16.4444 111.071Z" fill="#E9EFFD"/>
<path d="M48.0621 177.008L22.3989 112.298C21.8813 110.991 22.8305 109.573 24.2445 109.541L87.6769 107.152C89.3106 107.09 90.8053 108.061 91.4024 109.573L114.635 172.654L48.0621 177.008Z" fill="#B9BFD0"/>
<path d="M272.974 111.072L247.287 175.207C245.98 178.471 242.589 180.42 239.087 179.92L171.728 175.241L195.99 106.783C196.636 105.095 198.283 103.996 200.101 104.037C211.91 104.307 254.924 105.362 270.31 106.721C272.447 106.908 273.786 109.1 272.974 111.072Z" fill="#F6F8F7"/>
<path d="M241.356 177.008L267.02 112.298C267.538 110.991 266.589 109.573 265.175 109.541L201.742 107.152C200.108 107.09 198.614 108.061 198.017 109.573L174.784 172.654L241.356 177.008Z" fill="#B9BFD0"/>
<path d="M92.2832 105.747L93.0868 127.166C95.368 127.946 97.5406 128.551 99.6099 129.005C100.903 124.87 103.752 119.794 106.085 116.02C97.5141 113.011 92.2832 105.747 92.2832 105.747Z" fill="url(#paint1_linear_1181_20265)"/>
<path d="M135.079 105.387C123.321 117.991 113.804 118.732 106.086 116.024C103.753 119.798 100.904 124.874 99.6104 129.009C131.01 135.882 138.404 107.224 138.404 107.224L135.079 105.387Z" fill="url(#paint2_linear_1181_20265)"/>
<path d="M137.463 104.049C137.463 104.049 138.817 102.604 141.323 103.059C143.83 103.513 146.062 104.377 147.623 103.059C149.185 101.741 149.733 103.51 149.733 103.51L145.056 107.039L137.463 104.049Z" fill="url(#paint3_linear_1181_20265)"/>
<path d="M134.665 106.514C134.665 106.514 135.593 102.662 138.389 103.19C141.185 103.718 147.535 107.146 149.171 106.514C150.808 105.882 152.9 104.372 153.973 104.905L152.083 107.24C152.083 107.24 156.944 104.456 157.781 106.166L149.693 110.685C149.693 110.685 137.86 109.508 134.665 106.514Z" fill="url(#paint4_linear_1181_20265)"/>
<path d="M51.5804 176.345C51.5804 176.345 47.5689 119.48 76.816 101.799C76.816 101.799 84.9926 96.4398 95.1816 106.818C105.371 117.197 102.089 127.98 93.5386 138.085C84.9886 148.19 76.2798 166.241 78.3517 176.345H51.5804Z" fill="url(#paint5_linear_1181_20265)"/>
<path d="M91.5554 86.3057C91.5475 86.9839 81.8086 100.717 81.8086 100.717C81.8086 100.717 83.5562 104.134 91.9023 106.91L99.1058 92.206L91.5554 86.3057Z" fill="url(#paint6_linear_1181_20265)"/>
<path d="M87.7246 133.454C87.7246 133.454 106.203 148.818 126.156 142.113C127.394 141.698 128.747 141.787 129.901 142.393L135.638 145.401C138.046 146.662 141.028 145.834 142.424 143.514C143.221 142.191 143.902 140.679 144.037 139.231L132.813 134.72L133.64 133.353C133.64 133.353 128.16 132.891 126.725 136.791C126.725 136.791 116.287 141.101 98.6841 121.879C98.6841 121.881 90.6955 128.624 87.7246 133.454Z" fill="url(#paint7_linear_1181_20265)"/>
<path d="M86.7311 133.386C86.6516 133.386 86.5722 133.364 86.502 133.317C78.6987 128.083 75.0288 119.634 74.9917 119.55C74.903 119.343 75.001 119.105 75.2088 119.017C75.4167 118.929 75.6563 119.027 75.745 119.233C75.7808 119.316 79.3634 127.549 86.9601 132.645C87.1468 132.77 87.1971 133.022 87.07 133.209C86.9919 133.323 86.8621 133.386 86.7311 133.386Z" fill="#5F59F7" fill-opacity="0.7"/>
<path d="M98.3181 121.716C98.1843 121.716 98.0519 121.651 97.9738 121.53C97.95 121.493 95.5722 117.818 91.043 109.767C89.6635 107.316 87.8537 105.763 85.6626 105.155C82.0297 104.145 78.5239 106.082 78.4895 106.101C78.2935 106.212 78.0433 106.143 77.9321 105.949C77.8209 105.754 77.8897 105.506 78.0857 105.395C78.2406 105.309 81.9105 103.274 85.8757 104.371C88.2879 105.039 90.2659 106.722 91.7566 109.373C96.2699 117.397 98.6371 121.057 98.661 121.092C98.7828 121.28 98.7285 121.531 98.5392 121.653C98.4716 121.695 98.3948 121.716 98.3181 121.716Z" fill="#309975"/>
<path d="M99.2242 78.4336C99.2242 78.4336 102.689 86.3371 102.922 90.4854C103.155 94.6336 104.055 97.3255 99.2242 98.1602C94.3931 98.9961 90.3234 96.6065 88.119 92.474C88.119 92.474 84.6649 86.1071 85.4394 83.4993C86.2139 80.8928 99.2242 78.4336 99.2242 78.4336Z" fill="url(#paint8_linear_1181_20265)"/>
<path d="M89.7696 89.506L90.045 89.3851C90.3945 89.2313 90.5454 88.8186 90.3693 88.4808C89.6875 87.1743 88.3596 84.1788 90.0754 83.4808C92.2864 82.5804 101.046 80.8073 102.935 77.7224C104.751 74.7571 103.141 70.9296 100.724 69.8399C100.562 69.7677 100.372 69.8255 100.288 69.9806L100.087 70.3591C99.9493 70.6181 99.5641 70.5786 99.482 70.2974C99.4025 70.0266 99.0411 69.974 98.8915 70.2132C98.3103 71.1359 96.7427 72.633 92.5485 73.4007C86.5882 74.4929 82.6481 76.8878 82.5502 80.9756C82.5436 81.2358 82.2655 81.3804 82.0418 81.245C81.6022 80.9782 80.8979 80.8533 79.9566 81.6393C78.3202 83.0063 78.9901 86.5499 82.578 89.4653C82.7488 89.6033 82.7474 89.8675 82.5621 89.9871C81.912 90.4077 80.9416 91.408 83.4544 92.7408C86.0533 94.1196 87.9942 94.0065 88.7409 93.8843C88.9262 93.8541 89.0467 93.6753 89.0057 93.4926L88.2087 89.899C88.1637 89.6953 88.3199 89.5034 88.5291 89.5034H89.7696V89.506Z" fill="url(#paint9_linear_1181_20265)"/>
<path d="M89.9193 90.2618C89.9193 90.2618 88.5967 85.2132 86.3169 86.6288C84.0371 88.0444 87.5005 92.286 89.3328 92.4739L89.9193 90.2618Z" fill="url(#paint10_linear_1181_20265)"/>
<path d="M129.901 142.404C129.901 142.404 134.597 146.963 135.503 146.299C135.826 146.063 136.639 145.206 137.428 144.25C137.984 143.576 138.042 142.624 137.564 141.892L136.458 140.195C135.402 138.579 133.142 138.239 131.679 139.504C130.942 140.143 130.271 141.065 129.901 142.404Z" fill="url(#paint11_linear_1181_20265)"/>
<path d="M203.895 175.5C203.895 175.5 203.863 155.013 191.866 133.858C188.112 127.24 186.778 119.538 187.948 112.033L189.263 103.604C189.263 103.604 205.729 98.0716 223.981 103.371C223.981 103.371 249.289 124.11 232.374 177.151L203.895 175.5Z" fill="#FFCA7B"/>
<path d="M192.065 92.8501L196.335 103.034C196.605 103.677 197.188 104.136 197.879 104.254C200.34 104.673 206.294 105.328 210.205 102.775C210.671 102.471 210.789 101.842 210.471 101.388L202.583 90.145L192.065 92.8501Z" fill="url(#paint12_linear_1181_20265)"/>
<path d="M202.596 140.707C202.009 140.86 201.716 141.516 201.998 142.053L214.35 165.567C214.559 165.964 215.02 166.16 215.454 166.036L255.86 154.455C256.363 154.311 256.653 153.789 256.507 153.289L249.547 129.369C249.404 128.877 248.893 128.589 248.394 128.719L202.596 140.707Z" fill="#6E7176"/>
<path d="M205.202 137.944C204.623 138.081 204.295 138.689 204.5 139.243L214.387 165.908C214.567 166.393 215.094 166.657 215.593 166.514L255.877 154.967C256.378 154.824 256.681 154.319 256.572 153.813L250.989 128.149C250.871 127.609 250.329 127.271 249.789 127.399L205.202 137.944Z" fill="#C4C4C4"/>
<path d="M208.71 135.253C208.005 135.359 207.539 136.04 207.7 136.731L214.415 165.518C214.574 166.198 215.274 166.606 215.951 166.413L255.624 155.041C256.262 154.858 256.637 154.205 256.471 153.567L250.37 130.07C250.213 129.465 249.621 129.076 248.999 129.17L208.71 135.253Z" fill="#58B368"/>
<path d="M240.825 146.236C243.904 123.143 225.98 105.387 225.98 105.387L215.315 117.73C223.413 127.75 227.261 136.931 229.019 144.143C231.351 143.469 236.964 142.404 240.825 146.236Z" fill="#FFCA7B"/>
<path d="M229.018 144.414C228.895 144.414 228.784 144.331 228.753 144.207C226.573 135.263 221.979 126.412 215.101 117.901C215.007 117.784 215.025 117.614 215.143 117.521C215.261 117.428 215.432 117.446 215.527 117.563C222.455 126.137 227.084 135.059 229.283 144.081C229.319 144.226 229.229 144.373 229.082 144.408C229.062 144.411 229.039 144.414 229.018 144.414Z" fill="#91B3FA"/>
<path d="M229.018 144.143C230.652 150.846 230.481 155.847 230.232 158.234C230.138 159.134 229.41 159.837 228.5 159.9C227.468 159.973 226.062 160.066 224.805 160.138C223.424 160.217 221.891 159.351 220.866 158.627C220.343 158.257 219.667 158.833 219.958 159.401C220.723 160.886 222.664 162.21 224.003 162.987C224.49 163.269 224.399 163.992 223.856 164.145L218.134 165.755C227.536 174.549 233.744 164.71 233.744 164.71C237.895 158.343 240.041 152.117 240.825 146.237C236.964 142.404 231.351 143.469 229.018 144.143Z" fill="url(#paint13_linear_1181_20265)"/>
<path d="M196.481 77.2755C196.302 77.4425 188.913 91.8483 188.913 91.8483L197.287 95.8612L206.333 83.2416C206.332 83.2416 199.482 74.4706 196.481 77.2755Z" fill="url(#paint14_linear_1181_20265)"/>
<path d="M202.527 84.7543L198.35 91.6667C198.287 91.7719 198.211 91.8665 198.121 91.9493C197.623 92.4094 195.923 93.7448 194.607 91.9257C193.486 90.3747 192.435 88.9657 191.308 88.3834C190.65 88.0443 189.84 88.315 189.506 88.9722C188.818 90.3261 187.485 93.0863 186.648 95.7033C186.437 96.3592 186.779 97.0637 187.421 97.3226C189.117 98.0048 192.468 99.2377 195.442 99.6452C195.93 99.7122 196.413 99.5072 196.705 99.1115C197.984 97.3713 201.59 92.508 202.821 91.2908C203.965 90.1604 206.075 90.5863 207.026 90.8571C207.387 90.9596 207.771 90.911 208.093 90.7178C209.058 90.1407 210.741 88.7041 209.201 86.2711C208.819 85.6665 209.013 84.8608 209.614 84.4678C210.692 83.7646 211.861 82.4436 210.746 80.3051C209.618 78.1402 207.606 77.9457 206.234 78.1126C205.628 78.1862 205.012 77.8708 204.779 77.3095C204.676 77.0598 204.471 76.8469 204.09 76.7706C203.371 76.6261 202.899 75.9728 203.04 75.2591C203.282 74.0341 203.099 72.4423 201.129 71.3671C197.516 69.3942 194.351 72.6079 193.546 75.3209C192.741 78.0338 196.781 79.9515 199.322 80.2709C201.189 80.5062 202.212 82.529 202.624 83.5858C202.777 83.9736 202.74 84.4021 202.527 84.7543Z" fill="url(#paint15_linear_1181_20265)"/>
<path d="M201.254 93.8283C201.254 93.8283 202.861 89.1609 204.917 89.3317C206.973 89.5026 208.593 91.5373 206.044 93.8244C202.873 96.6687 201.254 93.8283 201.254 93.8283Z" fill="url(#paint16_linear_1181_20265)"/>
<path d="M140.594 177.832C140.594 179.028 139.618 179.996 138.414 179.996H49.8251C47.9954 179.996 46.5113 178.523 46.5113 176.706L45.1172 175.099L137.1 174.317C139.038 174.343 140.594 175.909 140.594 177.832Z" fill="#F6F8F7"/>
<path d="M148.823 177.832C148.823 179.028 149.799 179.996 151.004 179.996H239.592C241.422 179.996 242.906 178.523 242.906 176.706L244.3 175.099L152.317 174.317C150.38 174.343 148.823 175.909 148.823 177.832Z" fill="#F6F8F7"/>
<path d="M35.9047 134.821C35.7405 134.821 35.5856 134.723 35.5234 134.561L35.1355 133.56C32.5989 127.016 29.7233 119.602 28.3702 116.17C28.0419 115.338 28.1491 114.399 28.6562 113.661C29.1646 112.922 30.0053 112.48 30.9069 112.48H42.0663C42.2914 112.48 42.4754 112.662 42.4754 112.887C42.4754 113.111 42.2927 113.293 42.0663 113.293H30.9069C30.2661 113.293 29.6915 113.594 29.3314 114.118C28.9713 114.643 28.8985 115.283 29.1315 115.873C30.4858 119.307 33.3614 126.723 35.8981 133.268L36.286 134.269C36.3668 134.478 36.2622 134.714 36.0517 134.794C36.0027 134.812 35.9537 134.821 35.9047 134.821Z" fill="#BDD0FB"/>
<path d="M40.4164 146.4C40.2681 146.4 40.1265 146.319 40.055 146.179C40.0087 146.089 39.7756 145.516 37.5673 139.829C37.4866 139.62 37.5911 139.385 37.8017 139.304C38.0108 139.224 38.2491 139.328 38.3299 139.537C38.9098 141.032 40.6772 145.581 40.7871 145.82C40.8811 146.021 40.7964 146.263 40.5952 146.359C40.5382 146.386 40.476 146.4 40.4164 146.4Z" fill="#BDD0FB"/>
<path d="M261.51 135.421C261.476 135.421 261.443 135.415 261.41 135.402C261.269 135.346 261.202 135.189 261.257 135.049L270.717 111.562C271.04 110.761 270.955 109.885 270.484 109.16C270.014 108.434 269.246 107.995 268.377 107.954L251.225 107.154C251.074 107.147 250.958 107.02 250.965 106.871C250.972 106.721 251.101 106.606 251.25 106.614L268.403 107.414C269.449 107.463 270.374 107.992 270.942 108.867C271.509 109.741 271.611 110.797 271.223 111.762L261.763 135.249C261.721 135.357 261.619 135.421 261.51 135.421Z" fill="#91B3FA"/>
<path d="M244.292 106.828C244.288 106.828 244.283 106.828 244.279 106.828L240.812 106.666C240.661 106.66 240.545 106.532 240.552 106.384C240.559 106.235 240.686 106.12 240.837 106.126L244.304 106.288C244.455 106.294 244.57 106.422 244.564 106.571C244.557 106.715 244.436 106.828 244.292 106.828Z" fill="#91B3FA"/>
<path d="M53.0166 125.864L52.5055 124.327L52.5042 124.322C52.4632 124.2 52.5307 124.067 52.6538 124.028C52.7769 123.987 52.9107 124.054 52.9504 124.176L53.4614 125.724C53.5011 125.845 53.4349 125.977 53.3131 126.016C53.1913 126.056 53.0589 125.99 53.0192 125.869L53.0166 125.864Z" fill="url(#paint17_linear_1181_20265)"/>
<path d="M51.413 121.282L50.861 119.754C50.8159 119.629 50.8808 119.492 51.0066 119.447C51.1324 119.403 51.2701 119.467 51.3164 119.592V119.593L51.8645 121.122C51.9095 121.245 51.8446 121.382 51.7202 121.425C51.5944 121.47 51.4581 121.406 51.413 121.282Z" fill="url(#paint18_linear_1181_20265)"/>
<path d="M49.7882 116.681L49.2798 115.134C49.2374 115.005 49.3089 114.866 49.4387 114.824C49.5684 114.782 49.7087 114.853 49.7511 114.981L49.7524 114.985L50.2542 116.526L50.2555 116.53C50.2979 116.659 50.2264 116.795 50.0967 116.837C49.9682 116.878 49.8292 116.808 49.7882 116.681Z" fill="url(#paint19_linear_1181_20265)"/>
<path d="M48.3403 112.018L47.9167 110.445C47.8809 110.309 47.9617 110.171 48.0967 110.134C48.2331 110.099 48.3721 110.179 48.4092 110.313L48.4105 110.318L48.8262 111.883L48.8275 111.888C48.8633 112.022 48.7825 112.159 48.6475 112.194C48.5151 112.231 48.3761 112.152 48.3403 112.018Z" fill="url(#paint20_linear_1181_20265)"/>
<path d="M47.1758 107.261L46.8594 105.661C46.8316 105.521 46.9243 105.384 47.066 105.356C47.2076 105.329 47.3453 105.421 47.3731 105.562V105.563L47.3744 105.569L47.6842 107.157L47.6855 107.162C47.7134 107.302 47.6207 107.437 47.4803 107.463C47.3387 107.491 47.2036 107.402 47.1758 107.261Z" fill="url(#paint21_linear_1181_20265)"/>
<path d="M46.3433 102.443L46.1447 100.825C46.1262 100.679 46.2308 100.547 46.3777 100.529C46.5247 100.511 46.6584 100.615 46.6756 100.761V100.762L46.6769 100.769L46.8689 102.374L46.8702 102.38C46.8874 102.525 46.7842 102.656 46.6372 102.673C46.4929 102.69 46.3605 102.588 46.3433 102.443Z" fill="url(#paint22_linear_1181_20265)"/>
<path d="M45.8684 97.582L45.7903 95.9535C45.7837 95.8036 45.9002 95.6761 46.0511 95.6682C46.2021 95.6617 46.3305 95.7773 46.3384 95.9272V95.9285V95.9351L46.4112 97.5505V97.557C46.4179 97.7055 46.3013 97.833 46.1517 97.8396C46.0021 97.8462 45.875 97.7305 45.8684 97.582Z" fill="url(#paint23_linear_1181_20265)"/>
<path d="M45.752 92.6911L45.7904 91.0612C45.7944 90.9075 45.9228 90.7852 46.0777 90.7892C46.2326 90.7931 46.3558 90.9206 46.3518 91.0744V91.0757V91.0823L46.3094 92.699V92.7055C46.3055 92.858 46.177 92.9789 46.0235 92.975C45.8686 92.9711 45.7481 92.8436 45.752 92.6911Z" fill="url(#paint24_linear_1181_20265)"/>
<path d="M45.9817 87.8113L46.1313 86.188C46.1459 86.0316 46.2862 85.916 46.4438 85.9304C46.6013 85.9449 46.7178 86.0842 46.7033 86.2406V86.2419V86.2485L46.551 87.8586V87.8652C46.5364 88.0203 46.3974 88.1346 46.2399 88.1202C46.0823 88.1044 45.9671 87.9677 45.9817 87.8113Z" fill="url(#paint25_linear_1181_20265)"/>
<path d="M46.5339 82.9477L46.7854 81.3376C46.8106 81.1785 46.9602 81.0694 47.1204 81.0944C47.2806 81.1194 47.3905 81.2679 47.3653 81.4269V81.4282L47.364 81.4335L47.1098 83.0318L47.1085 83.0371C47.0833 83.1948 46.9337 83.3026 46.7749 83.2776C46.6173 83.2526 46.5087 83.1054 46.5339 82.9477Z" fill="url(#paint26_linear_1181_20265)"/>
<path d="M47.3841 78.1374L47.7283 76.5443C47.7627 76.3827 47.9229 76.2801 48.0858 76.3156C48.2486 76.3498 48.3519 76.5088 48.3161 76.6705V76.6718L48.3148 76.6771L47.968 78.2583L47.9666 78.2636C47.9322 78.4239 47.7733 78.5252 47.6118 78.4897C47.4503 78.4542 47.3483 78.2964 47.3841 78.1374Z" fill="url(#paint27_linear_1181_20265)"/>
<path d="M48.5073 73.3759L48.9495 71.8052C48.9946 71.6435 49.164 71.5489 49.3282 71.5936C49.491 71.6383 49.5863 71.8065 49.5413 71.9695V71.9708L49.54 71.9774L49.0965 73.5323L49.0952 73.5389C49.0488 73.6993 48.8807 73.7926 48.7192 73.7479C48.5563 73.7032 48.4623 73.5376 48.5073 73.3759Z" fill="url(#paint28_linear_1181_20265)"/>
<path d="M49.9452 68.7043L50.4959 67.1678C50.5542 67.0061 50.7329 66.922 50.8958 66.9785C51.0586 67.0364 51.1433 67.2138 51.0864 67.3755V67.3768L51.0838 67.3834L50.533 68.9054L50.5303 68.912C50.4721 69.0724 50.2947 69.1565 50.1318 69.0987C49.9717 69.0408 49.8869 68.8647 49.9452 68.7043Z" fill="url(#paint29_linear_1181_20265)"/>
<path d="M51.7044 64.1343L52.3611 62.6398C52.4313 62.4794 52.6206 62.4058 52.7821 62.4755C52.9436 62.5452 53.0178 62.7331 52.9476 62.8935V62.8948L52.9449 62.9014L52.2896 64.3814L52.287 64.3879C52.2168 64.547 52.0288 64.6193 51.8686 64.5496C51.7071 64.4786 51.6343 64.2933 51.7044 64.1343Z" fill="url(#paint30_linear_1181_20265)"/>
<path d="M53.7763 59.7001L54.5349 58.2529C54.6183 58.0939 54.8156 58.0321 54.9745 58.1149C55.1347 58.1977 55.1969 58.3935 55.1135 58.5513V58.5526L55.1095 58.5592L54.3549 59.9919L54.3509 59.9984C54.2675 60.1562 54.0716 60.2166 53.914 60.1338C53.7551 60.051 53.6929 59.8565 53.7763 59.7001Z" fill="url(#paint31_linear_1181_20265)"/>
<path d="M56.1473 55.4079L57.0012 54.0146C57.0965 53.8582 57.3018 53.8096 57.458 53.9042C57.6155 53.9988 57.6645 54.2026 57.5692 54.3577V54.359L57.5652 54.3656L56.7153 55.7444L56.7113 55.7509C56.616 55.906 56.4121 55.9547 56.2572 55.86C56.1009 55.7641 56.052 55.563 56.1473 55.4079Z" fill="url(#paint32_linear_1181_20265)"/>
<path d="M58.8006 51.2865L59.7446 49.9524C59.8518 49.8 60.0636 49.7631 60.2172 49.8709C60.3708 49.9774 60.4079 50.1877 60.2993 50.3402V50.3415L60.2953 50.3481L59.3567 51.6677L59.3527 51.6743C59.2455 51.8254 59.035 51.8609 58.8827 51.7545C58.7304 51.6454 58.6934 51.4377 58.8006 51.2865Z" fill="url(#paint33_linear_1181_20265)"/>
<path d="M61.7219 47.3503L62.7506 46.0793C62.8684 45.9334 63.0829 45.911 63.2299 46.028C63.3768 46.145 63.3993 46.3579 63.2815 46.5038L63.2775 46.5091L62.2568 47.7683L62.2528 47.7736C62.135 47.9195 61.9205 47.9418 61.7735 47.8248C61.6266 47.7091 61.6041 47.4962 61.7219 47.3503Z" fill="url(#paint34_linear_1181_20265)"/>
<path d="M64.8879 43.6016L65.9947 42.3962C66.1218 42.2569 66.3389 42.2477 66.478 42.3739C66.6183 42.5001 66.6276 42.7156 66.5005 42.8537L66.4952 42.8589L65.3976 44.0524L65.3923 44.0576C65.2652 44.1957 65.0494 44.2062 64.9091 44.08C64.7701 43.9538 64.7595 43.7396 64.8879 43.6016Z" fill="url(#paint35_linear_1181_20265)"/>
<path d="M68.2803 40.0541L69.4572 38.9171C69.5936 38.7857 69.8107 38.7883 69.9431 38.9237C70.0755 39.0591 70.0729 39.2746 69.9365 39.4061L69.9312 39.4113L68.7622 40.5378L68.7569 40.543C68.6205 40.6745 68.4034 40.6705 68.271 40.5365C68.1412 40.4011 68.1439 40.1855 68.2803 40.0541Z" fill="url(#paint36_linear_1181_20265)"/>
<path d="M71.8784 36.7161L73.1202 35.6501C73.2646 35.5266 73.483 35.5423 73.6075 35.6856C73.7319 35.8289 73.716 36.0458 73.5717 36.1693L73.5664 36.1733L72.3338 37.2301L72.3285 37.234C72.1842 37.3576 71.9671 37.3418 71.8426 37.1985C71.7182 37.0552 71.7341 36.8397 71.8784 36.7161Z" fill="url(#paint37_linear_1181_20265)"/>
<path d="M75.6646 33.5885L76.966 32.5948C77.1183 32.4792 77.3354 32.5068 77.4519 32.6579C77.5684 32.8091 77.5406 33.0246 77.3884 33.1403L77.3831 33.1443L76.0909 34.1301L76.0856 34.134C75.9334 34.2497 75.7163 34.2208 75.5997 34.0709C75.4846 33.9198 75.5137 33.7042 75.6646 33.5885Z" fill="url(#paint38_linear_1181_20265)"/>
<path d="M79.6238 30.6761L80.9782 29.7561C81.137 29.6483 81.3542 29.689 81.4627 29.8468C81.5713 30.0045 81.5302 30.2187 81.3714 30.3278L81.3661 30.3318L80.021 31.244L80.0157 31.2479C79.8568 31.3557 79.641 31.3149 79.5324 31.1572C79.4252 30.9982 79.4662 30.7826 79.6238 30.6761Z" fill="url(#paint39_linear_1181_20265)"/>
<path d="M83.7382 27.9856L85.1415 27.1405C85.307 27.0406 85.5215 27.0931 85.6221 27.2574C85.7227 27.4217 85.6697 27.6347 85.5043 27.7346L85.499 27.7372L84.1062 28.5758L84.1009 28.5784C83.9354 28.677 83.721 28.6257 83.6217 28.4614C83.521 28.2984 83.5727 28.0855 83.7382 27.9856Z" fill="url(#paint40_linear_1181_20265)"/>
<path d="M87.9939 25.5265L89.4409 24.7562C89.6117 24.6655 89.8249 24.7286 89.9162 24.8995C90.0076 25.0691 89.944 25.2807 89.7719 25.3714L89.7666 25.374L88.3302 26.1363L88.3249 26.139C88.1541 26.2297 87.9422 26.1653 87.8509 25.9957C87.7582 25.8275 87.8231 25.6172 87.9939 25.5265Z" fill="url(#paint41_linear_1181_20265)"/>
<path d="M92.3745 23.2946L93.8612 22.6032C94.0373 22.5217 94.2478 22.5967 94.3299 22.7715C94.412 22.9463 94.3365 23.1553 94.1604 23.2368L94.1551 23.2394L92.6803 23.9255L92.675 23.9281C92.4989 24.0096 92.2897 23.9347 92.2077 23.7599C92.1229 23.5838 92.1984 23.3761 92.3745 23.2946Z" fill="url(#paint42_linear_1181_20265)"/>
<path d="M96.8687 21.2944L98.3899 20.6819C98.5713 20.6096 98.7778 20.6951 98.8506 20.8751C98.9235 21.0552 98.8361 21.2603 98.656 21.3325L98.6507 21.3352L97.1401 21.9424L97.1348 21.9451C96.9535 22.0173 96.7483 21.9306 96.6741 21.7518C96.6013 21.5718 96.6887 21.3667 96.8687 21.2944Z" fill="url(#paint43_linear_1181_20265)"/>
<path d="M101.466 19.5424L103.019 19.0114C103.204 18.9483 103.407 19.0456 103.47 19.2296C103.534 19.4136 103.436 19.6147 103.251 19.6778L103.244 19.6804L101.703 20.2062L101.696 20.2088C101.511 20.2719 101.308 20.1747 101.245 19.9906C101.181 19.8053 101.281 19.6055 101.466 19.5424Z" fill="url(#paint44_linear_1181_20265)"/>
<path d="M106.151 18.0414L107.73 17.5958C107.92 17.5419 108.117 17.651 108.171 17.839C108.226 18.0269 108.116 18.2228 107.926 18.2767L107.92 18.278L106.352 18.7196L106.346 18.7209C106.156 18.7748 105.959 18.6657 105.906 18.4778C105.853 18.2898 105.962 18.094 106.151 18.0414Z" fill="url(#paint45_linear_1181_20265)"/>
<path d="M110.912 16.7843L112.514 16.4268C112.707 16.3834 112.899 16.5043 112.941 16.6962C112.985 16.8881 112.863 17.0787 112.67 17.1208L112.663 17.1221L111.075 17.4757L111.068 17.477C110.875 17.5204 110.684 17.3994 110.64 17.2089C110.598 17.017 110.718 16.8277 110.912 16.7843Z" fill="url(#paint46_linear_1181_20265)"/>
<path d="M115.738 15.8092L117.358 15.5437C117.554 15.5122 117.74 15.6436 117.771 15.8382C117.803 16.0327 117.671 16.2167 117.475 16.2483L117.468 16.2496L115.861 16.5124L115.854 16.5138C115.658 16.5453 115.474 16.4139 115.441 16.2193C115.409 16.0235 115.542 15.8408 115.738 15.8092Z" fill="url(#paint47_linear_1181_20265)"/>
<path d="M120.614 15.1039L122.248 14.9356C122.446 14.9146 122.624 15.0579 122.644 15.255C122.665 15.4522 122.521 15.6283 122.322 15.6494L122.314 15.6507L120.695 15.8163L120.687 15.8176C120.488 15.8373 120.312 15.6954 120.291 15.4982C120.27 15.301 120.416 15.1236 120.614 15.1039Z" fill="url(#paint48_linear_1181_20265)"/>
<path d="M125.524 14.6993L127.166 14.6336C127.366 14.6257 127.535 14.7795 127.543 14.9793C127.551 15.1778 127.395 15.346 127.195 15.3539H127.187L125.561 15.4183H125.553C125.353 15.4262 125.185 15.2724 125.177 15.0739C125.169 14.8741 125.324 14.7072 125.524 14.6993Z" fill="url(#paint49_linear_1181_20265)"/>
<path d="M130.454 14.6095L132.097 14.6542C132.298 14.6595 132.456 14.8264 132.451 15.0249C132.445 15.2246 132.279 15.3811 132.077 15.3758H132.069L130.444 15.3311H130.436C130.234 15.3259 130.077 15.1602 130.082 14.9604C130.086 14.7607 130.253 14.6042 130.454 14.6095Z" fill="url(#paint50_linear_1181_20265)"/>
<path d="M135.378 14.8563L137.014 15.018C137.215 15.0377 137.361 15.2151 137.341 15.4149C137.321 15.6147 137.143 15.7593 136.941 15.7396L136.933 15.7383L135.316 15.5766L135.306 15.5753C135.106 15.5556 134.959 15.3781 134.979 15.1783C134.998 14.9812 135.177 14.8366 135.378 14.8563Z" fill="url(#paint51_linear_1181_20265)"/>
<path d="M140.271 15.4542L141.893 15.7171C142.093 15.7499 142.228 15.9366 142.196 16.135C142.163 16.3335 141.975 16.4676 141.775 16.436L141.767 16.4347L140.161 16.1731L140.154 16.1718C139.954 16.139 139.819 15.9523 139.852 15.7539C139.883 15.5554 140.071 15.4213 140.271 15.4542Z" fill="url(#paint52_linear_1181_20265)"/>
<path d="M145.117 16.3373L146.719 16.7014C146.918 16.7461 147.041 16.9433 146.996 17.1391C146.951 17.3363 146.752 17.4585 146.555 17.4138L146.547 17.4125L144.961 17.051L144.953 17.0497C144.755 17.005 144.631 16.8092 144.678 16.612C144.723 16.4149 144.92 16.2926 145.117 16.3373Z" fill="url(#paint53_linear_1181_20265)"/>
<path d="M149.897 17.5345L151.471 18.0024C151.667 18.0603 151.778 18.2653 151.72 18.4599C151.661 18.6544 151.455 18.7648 151.26 18.707L151.252 18.7043L149.694 18.2404L149.686 18.2377C149.49 18.1799 149.38 17.9748 149.438 17.7816C149.497 17.5858 149.702 17.4767 149.897 17.5345Z" fill="url(#paint54_linear_1181_20265)"/>
<path d="M154.588 19.0351L156.128 19.6042C156.32 19.6752 156.418 19.8868 156.346 20.0774C156.275 20.268 156.062 20.3653 155.868 20.2943L155.86 20.2917L154.336 19.7265L154.329 19.7238C154.137 19.6529 154.04 19.4413 154.111 19.2507C154.184 19.0601 154.397 18.9641 154.588 19.0351Z" fill="url(#paint55_linear_1181_20265)"/>
<path d="M159.169 20.8454L160.667 21.5131C160.855 21.5972 160.939 21.8154 160.854 22.0021C160.769 22.1887 160.549 22.2715 160.361 22.1874L160.353 22.1848L158.869 21.5223L158.861 21.5184C158.673 21.4343 158.59 21.2161 158.675 21.0294C158.762 20.8441 158.982 20.7613 159.169 20.8454Z" fill="url(#paint56_linear_1181_20265)"/>
<path d="M163.62 22.9449L165.073 23.7072C165.255 23.8032 165.326 24.0279 165.229 24.2093C165.132 24.3907 164.906 24.4604 164.723 24.3644L164.717 24.3605L163.278 23.6047L163.271 23.6008C163.088 23.5048 163.019 23.28 163.116 23.1C163.213 22.9186 163.439 22.8502 163.62 22.9449Z" fill="url(#paint57_linear_1181_20265)"/>
<path d="M167.931 25.3276L169.334 26.1767C169.512 26.2831 169.567 26.5132 169.459 26.6893C169.351 26.8654 169.12 26.9206 168.942 26.8142L168.936 26.8102L167.546 25.9677L167.539 25.9637C167.363 25.8573 167.306 25.6273 167.415 25.4524C167.523 25.2763 167.755 25.2211 167.931 25.3276Z" fill="url(#paint58_linear_1181_20265)"/>
<path d="M172.086 27.95L173.436 28.878C173.607 28.9949 173.651 29.2289 173.531 29.3985C173.414 29.568 173.178 29.6114 173.007 29.4931L173.002 29.4892L171.663 28.5691L171.658 28.5651C171.487 28.4482 171.445 28.2155 171.563 28.0459C171.681 27.8751 171.915 27.8317 172.086 27.95Z" fill="url(#paint59_linear_1181_20265)"/>
<path d="M176.085 30.8006L177.384 31.7983C177.55 31.9258 177.58 32.161 177.452 32.3253C177.323 32.4896 177.086 32.5199 176.921 32.3924L176.915 32.3884L175.627 31.3974L175.622 31.3934C175.457 31.2659 175.427 31.0307 175.555 30.8677C175.684 30.7047 175.921 30.6744 176.085 30.8006Z" fill="url(#paint60_linear_1181_20265)"/>
<path d="M179.929 33.8602L181.176 34.9183C181.335 35.0537 181.355 35.2916 181.219 35.4493C181.082 35.607 180.843 35.6267 180.684 35.4914L180.68 35.4874L179.442 34.4359L179.438 34.432C179.279 34.2966 179.261 34.0587 179.397 33.9009C179.531 33.7432 179.77 33.7248 179.929 33.8602Z" fill="url(#paint61_linear_1181_20265)"/>
<path d="M183.623 37.0858L184.823 38.1965C184.976 38.3384 184.986 38.5777 184.841 38.7314C184.698 38.8839 184.457 38.8931 184.303 38.7498L184.299 38.7459L183.107 37.6418L183.103 37.6379C182.95 37.4959 182.942 37.2567 183.085 37.1042C183.23 36.9517 183.47 36.9438 183.623 37.0858Z" fill="url(#paint62_linear_1181_20265)"/>
<path d="M187.179 40.4597L188.335 41.6138C188.483 41.7623 188.483 42.0028 188.333 42.15C188.184 42.2973 187.941 42.2973 187.792 42.1487L187.789 42.1461L186.64 40.9973L186.637 40.9947C186.489 40.8461 186.489 40.6056 186.639 40.4584C186.788 40.3099 187.031 40.3112 187.179 40.4597Z" fill="url(#paint63_linear_1181_20265)"/>
<path d="M190.608 43.9605L191.726 45.1513C191.87 45.3051 191.862 45.547 191.707 45.6902C191.552 45.8335 191.309 45.8256 191.164 45.6718L191.162 45.6692L190.05 44.4836L190.047 44.481C189.903 44.3272 189.912 44.0867 190.067 43.9434C190.22 43.7988 190.464 43.8067 190.608 43.9605Z" fill="url(#paint64_linear_1181_20265)"/>
<path d="M193.924 47.5721L195.008 48.7919C195.149 48.9496 195.134 49.1914 194.974 49.3321C194.815 49.4714 194.572 49.457 194.43 49.2979L194.427 49.2953L193.347 48.0795L193.344 48.0768C193.204 47.9191 193.219 47.6773 193.379 47.5379C193.542 47.3986 193.784 47.4131 193.924 47.5721Z" fill="url(#paint65_linear_1181_20265)"/>
<path d="M197.151 51.2525L198.209 52.4933C198.346 52.655 198.326 52.8968 198.164 53.0348C198.001 53.1715 197.757 53.1518 197.618 52.9902L197.617 52.9888L196.562 51.7507L196.56 51.7493C196.423 51.5877 196.442 51.3458 196.605 51.2091C196.769 51.0711 197.013 51.0908 197.151 51.2525Z" fill="url(#paint66_linear_1181_20265)"/>
<path d="M200.304 54.9852L201.343 56.2405C201.48 56.4048 201.456 56.6479 201.29 56.7833C201.125 56.9187 200.88 56.895 200.744 56.7307L200.742 56.7294L199.706 55.4755L199.704 55.4742C199.568 55.3099 199.593 55.068 199.757 54.9326C199.924 54.7972 200.169 54.8209 200.304 54.9852Z" fill="url(#paint67_linear_1181_20265)"/>
<path d="M203.411 58.7636L204.439 60.0267C204.574 60.1923 204.549 60.4368 204.381 60.5709C204.214 60.7049 203.968 60.68 203.833 60.513L202.806 59.2512C202.671 59.0856 202.696 58.8424 202.863 58.7084C203.031 58.573 203.276 58.598 203.411 58.7636Z" fill="url(#paint68_linear_1181_20265)"/>
<path d="M206.494 62.5507L207.521 63.8139C207.658 63.9808 207.631 64.2253 207.463 64.3593C207.295 64.4947 207.049 64.4684 206.913 64.3015L205.886 63.0384C205.751 62.8714 205.778 62.6283 205.944 62.4929C206.112 62.3575 206.357 62.3838 206.494 62.5507Z" fill="url(#paint69_linear_1181_20265)"/>
<path d="M209.582 66.3388L210.619 67.5927L210.62 67.594C210.758 67.7596 210.734 68.0054 210.566 68.1421C210.399 68.2788 210.151 68.2551 210.014 68.0882L208.976 66.8316C208.838 66.666 208.863 66.4202 209.03 66.2835C209.197 66.1469 209.444 66.1718 209.582 66.3388Z" fill="url(#paint70_linear_1181_20265)"/>
<path d="M212.712 70.0724L213.772 71.3053L213.774 71.3079C213.916 71.4722 213.896 71.7194 213.731 71.8587C213.565 71.9993 213.316 71.9796 213.176 71.8153L212.114 70.5771C211.974 70.4128 211.993 70.167 212.159 70.0264C212.324 69.8871 212.572 69.9068 212.714 70.0711L212.712 70.0724Z" fill="url(#paint71_linear_1181_20265)"/>
<path d="M215.923 73.7491L217.019 74.9465L217.023 74.9505C217.17 75.1108 217.158 75.3592 216.996 75.5051C216.835 75.651 216.585 75.6392 216.438 75.4788L215.335 74.2722C215.188 74.1119 215.201 73.8648 215.363 73.7189C215.524 73.573 215.773 73.5861 215.92 73.7452L215.923 73.7491Z" fill="url(#paint72_linear_1181_20265)"/>
<path d="M219.262 77.2891L220.413 78.4313L220.419 78.4365C220.574 78.5903 220.574 78.8401 220.419 78.9939C220.264 79.1476 220.012 79.1476 219.857 78.9939L218.696 77.8398C218.541 77.686 218.541 77.4376 218.696 77.2838C218.851 77.13 219.101 77.13 219.256 77.2838L219.262 77.2891Z" fill="url(#paint73_linear_1181_20265)"/>
<path d="M222.786 80.6423L224.013 81.6977L224.022 81.7056C224.189 81.8489 224.206 82.0986 224.062 82.2629C223.918 82.4272 223.668 82.4456 223.501 82.3023L222.256 81.2311C222.091 81.0879 222.072 80.8394 222.216 80.6751C222.361 80.5108 222.611 80.4924 222.776 80.6357L222.786 80.6423Z" fill="url(#paint74_linear_1181_20265)"/>
<path d="M226.562 83.6827L227.887 84.6067L227.9 84.6159C228.08 84.7421 228.124 84.9892 227.998 85.168C227.871 85.3468 227.622 85.3901 227.442 85.2653L226.09 84.3228C225.91 84.1967 225.867 83.9495 225.994 83.7708C226.121 83.592 226.37 83.5487 226.55 83.6748L226.562 83.6827Z" fill="url(#paint75_linear_1181_20265)"/>
<path d="M230.651 86.271C231.124 86.526 231.604 86.7679 232.09 86.9966C232.29 87.0912 232.376 87.3278 232.281 87.5263C232.185 87.7248 231.947 87.8102 231.747 87.7156C231.248 87.4803 230.756 87.2305 230.27 86.969C230.075 86.8638 230.004 86.6233 230.11 86.4301C230.214 86.2382 230.456 86.1659 230.651 86.271Z" fill="url(#paint76_linear_1181_20265)"/>
<path d="M235.074 88.1918C235.584 88.3587 236.098 88.5099 236.617 88.6427C236.831 88.6979 236.961 88.9161 236.905 89.129C236.85 89.3419 236.631 89.4707 236.416 89.4155C235.879 89.2775 235.347 89.1224 234.821 88.9489C234.611 88.8793 234.497 88.6545 234.566 88.4442C234.637 88.2365 234.864 88.1235 235.074 88.1918Z" fill="url(#paint77_linear_1181_20265)"/>
<path d="M239.776 89.2211C240.308 89.2802 240.842 89.3197 241.378 89.3394C241.601 89.3486 241.774 89.5339 241.766 89.7548C241.758 89.9756 241.57 90.1478 241.348 90.1399C240.793 90.1189 240.24 90.0768 239.689 90.0163C239.468 89.9914 239.308 89.7942 239.333 89.5747C239.355 89.3552 239.555 89.1974 239.776 89.2211Z" fill="url(#paint78_linear_1181_20265)"/>
<path d="M244.522 89.1134C245.032 88.9977 245.534 88.8413 246.02 88.6468C246.228 88.564 246.463 88.6639 246.547 88.8702C246.63 89.0766 246.53 89.3106 246.322 89.3934C245.797 89.6024 245.255 89.7719 244.701 89.8968C244.483 89.9454 244.267 89.81 244.217 89.5945C244.169 89.3776 244.304 89.1633 244.522 89.1134Z" fill="url(#paint79_linear_1181_20265)"/>
<path d="M248.745 87.0839C249.162 86.7619 249.56 86.4149 249.937 86.0455C250.098 85.8891 250.354 85.8904 250.512 86.0495C250.67 86.2085 250.668 86.4635 250.508 86.6199C250.108 87.0103 249.687 87.3797 249.242 87.7214C249.065 87.8581 248.809 87.8252 248.673 87.6491C248.534 87.473 248.567 87.2206 248.745 87.0839Z" fill="url(#paint80_linear_1181_20265)"/>
<path d="M251.947 83.602C252.239 83.1616 252.511 82.7055 252.758 82.2389C252.863 82.0418 253.11 81.9655 253.309 82.0694C253.509 82.1732 253.584 82.419 253.48 82.6162C253.219 83.1064 252.934 83.5836 252.627 84.0462C252.503 84.2329 252.251 84.2841 252.063 84.1619C251.875 84.0397 251.824 83.7886 251.947 83.602Z" fill="url(#paint81_linear_1181_20265)"/>
<path d="M253.974 79.3083C254.13 78.8035 254.261 78.2909 254.366 77.7744C254.409 77.5575 254.621 77.4181 254.84 77.4615C255.057 77.5049 255.199 77.7139 255.156 77.9294C255.05 78.4749 254.915 79.0138 254.754 79.5449C254.689 79.7591 254.461 79.88 254.245 79.8156C254.029 79.7512 253.908 79.5251 253.973 79.3109L253.974 79.3083Z" fill="url(#paint82_linear_1181_20265)"/>
<path d="M254.645 74.6304C254.639 74.0981 254.614 73.5657 254.577 73.0321C254.563 72.8205 254.723 72.6365 254.936 72.622C255.149 72.6076 255.333 72.7653 255.349 72.9769C255.391 73.5224 255.419 74.0705 255.43 74.6212C255.434 74.8368 255.26 75.0142 255.044 75.0168C254.827 75.0208 254.649 74.8486 254.646 74.6343V74.6304H254.645Z" fill="url(#paint83_linear_1181_20265)"/>
<path d="M254.218 69.8312L253.957 68.2394L253.956 68.2289C253.923 68.0278 254.061 67.8386 254.263 67.8057C254.465 67.7728 254.655 67.9082 254.69 68.108L254.965 69.7195C254.999 69.9232 254.862 70.1164 254.656 70.1506C254.451 70.1847 254.257 70.048 254.222 69.8443V69.8417L254.218 69.8312Z" fill="url(#paint84_linear_1181_20265)"/>
<path d="M253.318 65.0763L252.952 63.5016L252.95 63.4951C252.908 63.3137 253.022 63.1336 253.203 63.0915C253.383 63.0508 253.563 63.1599 253.608 63.3373L254.008 64.9199C254.056 65.1078 253.941 65.2984 253.751 65.3457C253.562 65.3931 253.37 65.2787 253.322 65.0907C253.322 65.0894 253.321 65.0881 253.321 65.0868L253.318 65.0763Z" fill="url(#paint85_linear_1181_20265)"/>
<path d="M252.116 60.3768L251.648 58.8284L251.646 58.8219C251.6 58.6668 251.687 58.5051 251.843 58.4578C251.997 58.4118 252.16 58.4972 252.209 58.6484L252.709 60.2007C252.761 60.3623 252.672 60.5345 252.509 60.5858C252.347 60.637 252.173 60.549 252.12 60.3873C252.12 60.386 252.119 60.3847 252.119 60.3834L252.116 60.3768Z" fill="url(#paint86_linear_1181_20265)"/>
<path d="M250.607 55.7615L250.026 54.2525L250.023 54.2447C249.977 54.125 250.038 53.991 250.158 53.945C250.276 53.9003 250.409 53.9568 250.458 54.0725L251.089 55.5788C251.143 55.7089 251.081 55.8588 250.95 55.9126C250.819 55.9665 250.668 55.9048 250.614 55.7746C250.612 55.7733 250.612 55.7707 250.611 55.7694L250.607 55.7615Z" fill="url(#paint87_linear_1181_20265)"/>
<path d="M248.679 51.3195C248.429 50.8436 248.164 50.3757 247.871 49.9262C247.825 49.8552 247.846 49.7619 247.916 49.7159C247.985 49.6712 248.078 49.6896 248.124 49.7553C248.442 50.2035 248.731 50.6688 249.003 51.1433C249.054 51.2314 249.023 51.3431 248.934 51.3931C248.846 51.443 248.733 51.4128 248.683 51.3247C248.682 51.3234 248.68 51.3208 248.679 51.3195Z" fill="url(#paint88_linear_1181_20265)"/>
<defs>
<linearGradient id="paint0_linear_1181_20265" x1="130.489" y1="134.408" x2="162.898" y2="134.408" gradientUnits="userSpaceOnUse">
<stop stop-color="#FF928E"/>
<stop offset="1" stop-color="#FEB3B1"/>
</linearGradient>
<linearGradient id="paint1_linear_1181_20265" x1="89.3339" y1="127.155" x2="33.0959" y2="211.53" gradientUnits="userSpaceOnUse">
<stop stop-color="#257D5F"/>
<stop offset="1" stop-color="#FF928E"/>
</linearGradient>
<linearGradient id="paint2_linear_1181_20265" x1="150.601" y1="103.587" x2="99.9035" y2="128.99" gradientUnits="userSpaceOnUse">
<stop stop-color="#FF928E"/>
<stop offset="1" stop-color="#FEB3B1"/>
</linearGradient>
<linearGradient id="paint3_linear_1181_20265" x1="149.857" y1="97.2897" x2="142.415" y2="105.119" gradientUnits="userSpaceOnUse">
<stop stop-color="#FF928E"/>
<stop offset="1" stop-color="#FEB3B1"/>
</linearGradient>
<linearGradient id="paint4_linear_1181_20265" x1="150.843" y1="103.287" x2="100.145" y2="128.689" gradientUnits="userSpaceOnUse">
<stop stop-color="#FF928E"/>
<stop offset="1" stop-color="#FEB3B1"/>
</linearGradient>
<linearGradient id="paint5_linear_1181_20265" x1="110.931" y1="93.3092" x2="21.3355" y2="212.339" gradientUnits="userSpaceOnUse">
<stop stop-color="#309975"/>
<stop offset="1" stop-color="#309975"/>
</linearGradient>
<linearGradient id="paint6_linear_1181_20265" x1="97.1499" y1="87.7998" x2="84.4392" y2="107.862" gradientUnits="userSpaceOnUse">
<stop stop-color="#FF928E"/>
<stop offset="1" stop-color="#FEB3B1"/>
</linearGradient>
<linearGradient id="paint7_linear_1181_20265" x1="164.936" y1="93.9418" x2="134.544" y2="120.976" gradientUnits="userSpaceOnUse">
<stop stop-color="#FF928E"/>
<stop offset="1" stop-color="#FEB3B1"/>
</linearGradient>
<linearGradient id="paint8_linear_1181_20265" x1="115.532" y1="78.5313" x2="104.842" y2="84.2472" gradientUnits="userSpaceOnUse">
<stop stop-color="#FF928E"/>
<stop offset="1" stop-color="#FEB3B1"/>
</linearGradient>
<linearGradient id="paint9_linear_1181_20265" x1="86.0047" y1="73.4776" x2="104.289" y2="97.1893" gradientUnits="userSpaceOnUse">
<stop stop-color="#09005D"/>
<stop offset="1" stop-color="#1A0F91"/>
</linearGradient>
<linearGradient id="paint10_linear_1181_20265" x1="114.036" y1="75.7345" x2="103.346" y2="81.4504" gradientUnits="userSpaceOnUse">
<stop stop-color="#FF928E"/>
<stop offset="1" stop-color="#FEB3B1"/>
</linearGradient>
<linearGradient id="paint11_linear_1181_20265" x1="129.902" y1="142.55" x2="137.888" y2="142.55" gradientUnits="userSpaceOnUse">
<stop stop-color="#FF928E"/>
<stop offset="1" stop-color="#FEB3B1"/>
</linearGradient>
<linearGradient id="paint12_linear_1181_20265" x1="203.004" y1="102.228" x2="197.874" y2="86.7267" gradientUnits="userSpaceOnUse">
<stop stop-color="#FF928E"/>
<stop offset="1" stop-color="#FEB3B1"/>
</linearGradient>
<linearGradient id="paint13_linear_1181_20265" x1="234.558" y1="147.319" x2="217.859" y2="179.665" gradientUnits="userSpaceOnUse">
<stop stop-color="#FF928E"/>
<stop offset="1" stop-color="#FEB3B1"/>
</linearGradient>
<linearGradient id="paint14_linear_1181_20265" x1="198.914" y1="79.9995" x2="193.797" y2="110.33" gradientUnits="userSpaceOnUse">
<stop stop-color="#FF928E"/>
<stop offset="1" stop-color="#FEB3B1"/>
</linearGradient>
<linearGradient id="paint15_linear_1181_20265" x1="204.371" y1="94.3488" x2="189.195" y2="78.1098" gradientUnits="userSpaceOnUse">
<stop stop-color="#09005D"/>
<stop offset="1" stop-color="#1A0F91"/>
</linearGradient>
<linearGradient id="paint16_linear_1181_20265" x1="203.417" y1="113.088" x2="204.327" y2="91.7969" gradientUnits="userSpaceOnUse">
<stop stop-color="#FF928E"/>
<stop offset="1" stop-color="#FEB3B1"/>
</linearGradient>
<linearGradient id="paint17_linear_1181_20265" x1="52.492" y1="125.022" x2="53.4733" y2="125.022" gradientUnits="userSpaceOnUse">
<stop stop-color="#DAE3FE"/>
<stop offset="1" stop-color="#E9EFFD"/>
</linearGradient>
<linearGradient id="paint18_linear_1181_20265" x1="50.8462" y1="120.436" x2="51.8781" y2="120.436" gradientUnits="userSpaceOnUse">
<stop stop-color="#DAE3FE"/>
<stop offset="1" stop-color="#E9EFFD"/>
</linearGradient>
<linearGradient id="paint19_linear_1181_20265" x1="49.2674" y1="115.83" x2="50.268" y2="115.83" gradientUnits="userSpaceOnUse">
<stop stop-color="#DAE3FE"/>
<stop offset="1" stop-color="#E9EFFD"/>
</linearGradient>
<linearGradient id="paint20_linear_1181_20265" x1="47.9092" y1="111.165" x2="48.8375" y2="111.165" gradientUnits="userSpaceOnUse">
<stop stop-color="#DAE3FE"/>
<stop offset="1" stop-color="#E9EFFD"/>
</linearGradient>
<linearGradient id="paint21_linear_1181_20265" x1="46.8549" y1="106.411" x2="47.6892" y2="106.411" gradientUnits="userSpaceOnUse">
<stop stop-color="#DAE3FE"/>
<stop offset="1" stop-color="#E9EFFD"/>
</linearGradient>
<linearGradient id="paint22_linear_1181_20265" x1="46.1424" y1="101.601" x2="46.8722" y2="101.601" gradientUnits="userSpaceOnUse">
<stop stop-color="#DAE3FE"/>
<stop offset="1" stop-color="#E9EFFD"/>
</linearGradient>
<linearGradient id="paint23_linear_1181_20265" x1="45.7895" y1="96.7538" x2="46.4121" y2="96.7538" gradientUnits="userSpaceOnUse">
<stop stop-color="#DAE3FE"/>
<stop offset="1" stop-color="#E9EFFD"/>
</linearGradient>
<linearGradient id="paint24_linear_1181_20265" x1="45.7516" y1="91.8823" x2="46.3522" y2="91.8823" gradientUnits="userSpaceOnUse">
<stop stop-color="#DAE3FE"/>
<stop offset="1" stop-color="#E9EFFD"/>
</linearGradient>
<linearGradient id="paint25_linear_1181_20265" x1="45.9802" y1="87.0248" x2="46.7047" y2="87.0248" gradientUnits="userSpaceOnUse">
<stop stop-color="#DAE3FE"/>
<stop offset="1" stop-color="#E9EFFD"/>
</linearGradient>
<linearGradient id="paint26_linear_1181_20265" x1="46.5297" y1="82.186" x2="47.3694" y2="82.186" gradientUnits="userSpaceOnUse">
<stop stop-color="#DAE3FE"/>
<stop offset="1" stop-color="#E9EFFD"/>
</linearGradient>
<linearGradient id="paint27_linear_1181_20265" x1="47.3768" y1="77.402" x2="48.3224" y2="77.402" gradientUnits="userSpaceOnUse">
<stop stop-color="#DAE3FE"/>
<stop offset="1" stop-color="#E9EFFD"/>
</linearGradient>
<linearGradient id="paint28_linear_1181_20265" x1="48.4965" y1="72.6721" x2="49.5531" y2="72.6721" gradientUnits="userSpaceOnUse">
<stop stop-color="#DAE3FE"/>
<stop offset="1" stop-color="#E9EFFD"/>
</linearGradient>
<linearGradient id="paint29_linear_1181_20265" x1="49.9264" y1="68.0393" x2="51.1046" y2="68.0393" gradientUnits="userSpaceOnUse">
<stop stop-color="#DAE3FE"/>
<stop offset="1" stop-color="#E9EFFD"/>
</linearGradient>
<linearGradient id="paint30_linear_1181_20265" x1="51.6774" y1="63.5123" x2="52.974" y2="63.5123" gradientUnits="userSpaceOnUse">
<stop stop-color="#DAE3FE"/>
<stop offset="1" stop-color="#E9EFFD"/>
</linearGradient>
<linearGradient id="paint31_linear_1181_20265" x1="53.7395" y1="59.1239" x2="55.1502" y2="59.1239" gradientUnits="userSpaceOnUse">
<stop stop-color="#DAE3FE"/>
<stop offset="1" stop-color="#E9EFFD"/>
</linearGradient>
<linearGradient id="paint32_linear_1181_20265" x1="56.0988" y1="54.8815" x2="57.6183" y2="54.8815" gradientUnits="userSpaceOnUse">
<stop stop-color="#DAE3FE"/>
<stop offset="1" stop-color="#E9EFFD"/>
</linearGradient>
<linearGradient id="paint33_linear_1181_20265" x1="58.7394" y1="50.8111" x2="60.3619" y2="50.8111" gradientUnits="userSpaceOnUse">
<stop stop-color="#DAE3FE"/>
<stop offset="1" stop-color="#E9EFFD"/>
</linearGradient>
<linearGradient id="paint34_linear_1181_20265" x1="61.6466" y1="46.9271" x2="63.3577" y2="46.9271" gradientUnits="userSpaceOnUse">
<stop stop-color="#DAE3FE"/>
<stop offset="1" stop-color="#E9EFFD"/>
</linearGradient>
<linearGradient id="paint35_linear_1181_20265" x1="64.798" y1="43.2271" x2="66.5893" y2="43.2271" gradientUnits="userSpaceOnUse">
<stop stop-color="#DAE3FE"/>
<stop offset="1" stop-color="#E9EFFD"/>
</linearGradient>
<linearGradient id="paint36_linear_1181_20265" x1="68.1757" y1="39.7305" x2="70.0407" y2="39.7305" gradientUnits="userSpaceOnUse">
<stop stop-color="#DAE3FE"/>
<stop offset="1" stop-color="#E9EFFD"/>
</linearGradient>
<linearGradient id="paint37_linear_1181_20265" x1="71.7587" y1="36.4418" x2="73.6914" y2="36.4418" gradientUnits="userSpaceOnUse">
<stop stop-color="#DAE3FE"/>
<stop offset="1" stop-color="#E9EFFD"/>
</linearGradient>
<linearGradient id="paint38_linear_1181_20265" x1="75.5298" y1="33.3645" x2="77.5245" y2="33.3645" gradientUnits="userSpaceOnUse">
<stop stop-color="#DAE3FE"/>
<stop offset="1" stop-color="#E9EFFD"/>
</linearGradient>
<linearGradient id="paint39_linear_1181_20265" x1="79.473" y1="30.5001" x2="81.524" y2="30.5001" gradientUnits="userSpaceOnUse">
<stop stop-color="#DAE3FE"/>
<stop offset="1" stop-color="#E9EFFD"/>
</linearGradient>
<linearGradient id="paint40_linear_1181_20265" x1="83.5702" y1="27.8593" x2="85.6725" y2="27.8593" gradientUnits="userSpaceOnUse">
<stop stop-color="#DAE3FE"/>
<stop offset="1" stop-color="#E9EFFD"/>
</linearGradient>
<linearGradient id="paint41_linear_1181_20265" x1="87.8085" y1="25.4478" x2="89.9575" y2="25.4478" gradientUnits="userSpaceOnUse">
<stop stop-color="#DAE3FE"/>
<stop offset="1" stop-color="#E9EFFD"/>
</linearGradient>
<linearGradient id="paint42_linear_1181_20265" x1="92.1722" y1="23.2646" x2="94.3634" y2="23.2646" gradientUnits="userSpaceOnUse">
<stop stop-color="#DAE3FE"/>
<stop offset="1" stop-color="#E9EFFD"/>
</linearGradient>
<linearGradient id="paint43_linear_1181_20265" x1="96.6485" y1="21.3129" x2="98.8776" y2="21.3129" gradientUnits="userSpaceOnUse">
<stop stop-color="#DAE3FE"/>
<stop offset="1" stop-color="#E9EFFD"/>
</linearGradient>
<linearGradient id="paint44_linear_1181_20265" x1="101.226" y1="19.61" x2="103.489" y2="19.61" gradientUnits="userSpaceOnUse">
<stop stop-color="#DAE3FE"/>
<stop offset="1" stop-color="#E9EFFD"/>
</linearGradient>
<linearGradient id="paint45_linear_1181_20265" x1="105.892" y1="18.1583" x2="108.185" y2="18.1583" gradientUnits="userSpaceOnUse">
<stop stop-color="#DAE3FE"/>
<stop offset="1" stop-color="#E9EFFD"/>
</linearGradient>
<linearGradient id="paint46_linear_1181_20265" x1="110.632" y1="16.9521" x2="112.951" y2="16.9521" gradientUnits="userSpaceOnUse">
<stop stop-color="#DAE3FE"/>
<stop offset="1" stop-color="#E9EFFD"/>
</linearGradient>
<linearGradient id="paint47_linear_1181_20265" x1="115.437" y1="16.0276" x2="117.776" y2="16.0276" gradientUnits="userSpaceOnUse">
<stop stop-color="#DAE3FE"/>
<stop offset="1" stop-color="#E9EFFD"/>
</linearGradient>
<linearGradient id="paint48_linear_1181_20265" x1="120.29" y1="15.3756" x2="122.646" y2="15.3756" gradientUnits="userSpaceOnUse">
<stop stop-color="#DAE3FE"/>
<stop offset="1" stop-color="#E9EFFD"/>
</linearGradient>
<linearGradient id="paint49_linear_1181_20265" x1="125.177" y1="15.0261" x2="127.543" y2="15.0261" gradientUnits="userSpaceOnUse">
<stop stop-color="#DAE3FE"/>
<stop offset="1" stop-color="#E9EFFD"/>
</linearGradient>
<linearGradient id="paint50_linear_1181_20265" x1="130.081" y1="14.9927" x2="132.451" y2="14.9927" gradientUnits="userSpaceOnUse">
<stop stop-color="#DAE3FE"/>
<stop offset="1" stop-color="#E9EFFD"/>
</linearGradient>
<linearGradient id="paint51_linear_1181_20265" x1="134.976" y1="15.2983" x2="137.343" y2="15.2983" gradientUnits="userSpaceOnUse">
<stop stop-color="#DAE3FE"/>
<stop offset="1" stop-color="#E9EFFD"/>
</linearGradient>
<linearGradient id="paint52_linear_1181_20265" x1="139.846" y1="15.9451" x2="142.2" y2="15.9451" gradientUnits="userSpaceOnUse">
<stop stop-color="#DAE3FE"/>
<stop offset="1" stop-color="#E9EFFD"/>
</linearGradient>
<linearGradient id="paint53_linear_1181_20265" x1="144.668" y1="16.8764" x2="147.005" y2="16.8764" gradientUnits="userSpaceOnUse">
<stop stop-color="#DAE3FE"/>
<stop offset="1" stop-color="#E9EFFD"/>
</linearGradient>
<linearGradient id="paint54_linear_1181_20265" x1="149.422" y1="18.1196" x2="151.735" y2="18.1196" gradientUnits="userSpaceOnUse">
<stop stop-color="#DAE3FE"/>
<stop offset="1" stop-color="#E9EFFD"/>
</linearGradient>
<linearGradient id="paint55_linear_1181_20265" x1="154.089" y1="19.6648" x2="156.37" y2="19.6648" gradientUnits="userSpaceOnUse">
<stop stop-color="#DAE3FE"/>
<stop offset="1" stop-color="#E9EFFD"/>
</linearGradient>
<linearGradient id="paint56_linear_1181_20265" x1="158.645" y1="21.5163" x2="160.888" y2="21.5163" gradientUnits="userSpaceOnUse">
<stop stop-color="#DAE3FE"/>
<stop offset="1" stop-color="#E9EFFD"/>
</linearGradient>
<linearGradient id="paint57_linear_1181_20265" x1="163.073" y1="23.6546" x2="165.273" y2="23.6546" gradientUnits="userSpaceOnUse">
<stop stop-color="#DAE3FE"/>
<stop offset="1" stop-color="#E9EFFD"/>
</linearGradient>
<linearGradient id="paint58_linear_1181_20265" x1="167.361" y1="26.0702" x2="169.514" y2="26.0702" gradientUnits="userSpaceOnUse">
<stop stop-color="#DAE3FE"/>
<stop offset="1" stop-color="#E9EFFD"/>
</linearGradient>
<linearGradient id="paint59_linear_1181_20265" x1="171.496" y1="28.721" x2="173.599" y2="28.721" gradientUnits="userSpaceOnUse">
<stop stop-color="#DAE3FE"/>
<stop offset="1" stop-color="#E9EFFD"/>
</linearGradient>
<linearGradient id="paint60_linear_1181_20265" x1="175.477" y1="31.5969" x2="177.531" y2="31.5969" gradientUnits="userSpaceOnUse">
<stop stop-color="#DAE3FE"/>
<stop offset="1" stop-color="#E9EFFD"/>
</linearGradient>
<linearGradient id="paint61_linear_1181_20265" x1="179.304" y1="34.6759" x2="181.31" y2="34.6759" gradientUnits="userSpaceOnUse">
<stop stop-color="#DAE3FE"/>
<stop offset="1" stop-color="#E9EFFD"/>
</linearGradient>
<linearGradient id="paint62_linear_1181_20265" x1="182.984" y1="37.918" x2="184.945" y2="37.918" gradientUnits="userSpaceOnUse">
<stop stop-color="#DAE3FE"/>
<stop offset="1" stop-color="#E9EFFD"/>
</linearGradient>
<linearGradient id="paint63_linear_1181_20265" x1="186.526" y1="41.3048" x2="188.446" y2="41.3048" gradientUnits="userSpaceOnUse">
<stop stop-color="#DAE3FE"/>
<stop offset="1" stop-color="#E9EFFD"/>
</linearGradient>
<linearGradient id="paint64_linear_1181_20265" x1="189.944" y1="44.8158" x2="191.828" y2="44.8158" gradientUnits="userSpaceOnUse">
<stop stop-color="#DAE3FE"/>
<stop offset="1" stop-color="#E9EFFD"/>
</linearGradient>
<linearGradient id="paint65_linear_1181_20265" x1="193.252" y1="48.4345" x2="195.106" y2="48.4345" gradientUnits="userSpaceOnUse">
<stop stop-color="#DAE3FE"/>
<stop offset="1" stop-color="#E9EFFD"/>
</linearGradient>
<linearGradient id="paint66_linear_1181_20265" x1="196.47" y1="52.1211" x2="198.3" y2="52.1211" gradientUnits="userSpaceOnUse">
<stop stop-color="#DAE3FE"/>
<stop offset="1" stop-color="#E9EFFD"/>
</linearGradient>
<linearGradient id="paint67_linear_1181_20265" x1="199.617" y1="55.8579" x2="201.432" y2="55.8579" gradientUnits="userSpaceOnUse">
<stop stop-color="#DAE3FE"/>
<stop offset="1" stop-color="#E9EFFD"/>
</linearGradient>
<linearGradient id="paint68_linear_1181_20265" x1="202.719" y1="59.6386" x2="204.526" y2="59.6386" gradientUnits="userSpaceOnUse">
<stop stop-color="#DAE3FE"/>
<stop offset="1" stop-color="#E9EFFD"/>
</linearGradient>
<linearGradient id="paint69_linear_1181_20265" x1="205.799" y1="63.4255" x2="207.608" y2="63.4255" gradientUnits="userSpaceOnUse">
<stop stop-color="#DAE3FE"/>
<stop offset="1" stop-color="#E9EFFD"/>
</linearGradient>
<linearGradient id="paint70_linear_1181_20265" x1="208.886" y1="67.2125" x2="210.709" y2="67.2125" gradientUnits="userSpaceOnUse">
<stop stop-color="#DAE3FE"/>
<stop offset="1" stop-color="#E9EFFD"/>
</linearGradient>
<linearGradient id="paint71_linear_1181_20265" x1="212.018" y1="70.9429" x2="213.867" y2="70.9429" gradientUnits="userSpaceOnUse">
<stop stop-color="#DAE3FE"/>
<stop offset="1" stop-color="#E9EFFD"/>
</linearGradient>
<linearGradient id="paint72_linear_1181_20265" x1="215.232" y1="74.6119" x2="217.124" y2="74.6119" gradientUnits="userSpaceOnUse">
<stop stop-color="#DAE3FE"/>
<stop offset="1" stop-color="#E9EFFD"/>
</linearGradient>
<linearGradient id="paint73_linear_1181_20265" x1="218.58" y1="78.1391" x2="220.534" y2="78.1391" gradientUnits="userSpaceOnUse">
<stop stop-color="#DAE3FE"/>
<stop offset="1" stop-color="#E9EFFD"/>
</linearGradient>
<linearGradient id="paint74_linear_1181_20265" x1="222.12" y1="81.4687" x2="224.159" y2="81.4687" gradientUnits="userSpaceOnUse">
<stop stop-color="#DAE3FE"/>
<stop offset="1" stop-color="#E9EFFD"/>
</linearGradient>
<linearGradient id="paint75_linear_1181_20265" x1="225.921" y1="84.4694" x2="228.071" y2="84.4694" gradientUnits="userSpaceOnUse">
<stop stop-color="#DAE3FE"/>
<stop offset="1" stop-color="#E9EFFD"/>
</linearGradient>
<linearGradient id="paint76_linear_1181_20265" x1="230.059" y1="86.9883" x2="232.318" y2="86.9883" gradientUnits="userSpaceOnUse">
<stop stop-color="#DAE3FE"/>
<stop offset="1" stop-color="#E9EFFD"/>
</linearGradient>
<linearGradient id="paint77_linear_1181_20265" x1="234.547" y1="88.8005" x2="236.919" y2="88.8005" gradientUnits="userSpaceOnUse">
<stop stop-color="#DAE3FE"/>
<stop offset="1" stop-color="#E9EFFD"/>
</linearGradient>
<linearGradient id="paint78_linear_1181_20265" x1="239.328" y1="89.6804" x2="241.765" y2="89.6804" gradientUnits="userSpaceOnUse">
<stop stop-color="#DAE3FE"/>
<stop offset="1" stop-color="#E9EFFD"/>
</linearGradient>
<linearGradient id="paint79_linear_1181_20265" x1="244.208" y1="89.2623" x2="246.576" y2="89.2623" gradientUnits="userSpaceOnUse">
<stop stop-color="#DAE3FE"/>
<stop offset="1" stop-color="#E9EFFD"/>
</linearGradient>
<linearGradient id="paint80_linear_1181_20265" x1="248.587" y1="86.8674" x2="250.629" y2="86.8674" gradientUnits="userSpaceOnUse">
<stop stop-color="#DAE3FE"/>
<stop offset="1" stop-color="#E9EFFD"/>
</linearGradient>
<linearGradient id="paint81_linear_1181_20265" x1="251.88" y1="83.1263" x2="253.528" y2="83.1263" gradientUnits="userSpaceOnUse">
<stop stop-color="#DAE3FE"/>
<stop offset="1" stop-color="#E9EFFD"/>
</linearGradient>
<linearGradient id="paint82_linear_1181_20265" x1="253.956" y1="78.6418" x2="255.164" y2="78.6418" gradientUnits="userSpaceOnUse">
<stop stop-color="#DAE3FE"/>
<stop offset="1" stop-color="#E9EFFD"/>
</linearGradient>
<linearGradient id="paint83_linear_1181_20265" x1="254.576" y1="73.8176" x2="255.43" y2="73.8176" gradientUnits="userSpaceOnUse">
<stop stop-color="#DAE3FE"/>
<stop offset="1" stop-color="#E9EFFD"/>
</linearGradient>
<linearGradient id="paint84_linear_1181_20265" x1="253.95" y1="68.9782" x2="254.969" y2="68.9782" gradientUnits="userSpaceOnUse">
<stop stop-color="#DAE3FE"/>
<stop offset="1" stop-color="#E9EFFD"/>
</linearGradient>
<linearGradient id="paint85_linear_1181_20265" x1="252.941" y1="64.2186" x2="254.018" y2="64.2186" gradientUnits="userSpaceOnUse">
<stop stop-color="#DAE3FE"/>
<stop offset="1" stop-color="#E9EFFD"/>
</linearGradient>
<linearGradient id="paint86_linear_1181_20265" x1="251.634" y1="59.5236" x2="252.724" y2="59.5236" gradientUnits="userSpaceOnUse">
<stop stop-color="#DAE3FE"/>
<stop offset="1" stop-color="#E9EFFD"/>
</linearGradient>
<linearGradient id="paint87_linear_1181_20265" x1="250.007" y1="54.9323" x2="251.108" y2="54.9323" gradientUnits="userSpaceOnUse">
<stop stop-color="#DAE3FE"/>
<stop offset="1" stop-color="#E9EFFD"/>
</linearGradient>
<linearGradient id="paint88_linear_1181_20265" x1="247.847" y1="50.555" x2="249.028" y2="50.555" gradientUnits="userSpaceOnUse">
<stop stop-color="#DAE3FE"/>
<stop offset="1" stop-color="#E9EFFD"/>
</linearGradient>
</defs>
</svg>
