<svg width="252" height="252" viewBox="0 0 252 252" fill="none" xmlns="http://www.w3.org/2000/svg">
<path d="M252 192.729H0V192.855H252V192.729Z" fill="#EBEBEB"/>
<path d="M226.749 200.843H210.056V200.969H226.749V200.843Z" fill="#EBEBEB"/>
<path d="M166.934 202.209H162.554V202.335H166.934V202.209Z" fill="#EBEBEB"/>
<path d="M209.554 196.162H199.882V196.288H209.554V196.162Z" fill="#EBEBEB"/>
<path d="M48.2077 197.01H26.4399V197.137H48.2077V197.01Z" fill="#EBEBEB"/>
<path d="M55.8894 197.01H52.6991V197.137H55.8894V197.01Z" fill="#EBEBEB"/>
<path d="M113.476 199.138H66.261V199.264H113.476V199.138Z" fill="#EBEBEB"/>
<path d="M119.448 170.254H22.131C21.3686 170.253 20.6379 169.949 20.0993 169.409C19.5607 168.87 19.2582 168.138 19.2582 167.376V30.5753C19.2648 29.8173 19.5703 29.0925 20.1081 28.5584C20.646 28.0243 21.3729 27.724 22.131 27.7227H119.448C120.212 27.7227 120.944 28.0259 121.483 28.5656C122.023 29.1053 122.326 29.8372 122.326 30.6005V167.376C122.326 168.139 122.023 168.871 121.483 169.411C120.944 169.951 120.212 170.254 119.448 170.254ZM22.131 27.8235C21.402 27.8248 20.7034 28.1153 20.1884 28.6312C19.6734 29.1472 19.3842 29.8463 19.3842 30.5753V167.376C19.3842 168.105 19.6734 168.804 20.1884 169.32C20.7034 169.836 21.402 170.127 22.131 170.128H119.448C120.178 170.127 120.877 169.836 121.393 169.32C121.909 168.805 122.199 168.105 122.2 167.376V30.5753C122.199 29.8459 121.909 29.1467 121.393 28.6309C120.877 28.1151 120.178 27.8248 119.448 27.8235H22.131Z" fill="#EBEBEB"/>
<path d="M228.469 170.254H131.146C130.383 170.253 129.652 169.949 129.113 169.409C128.573 168.87 128.27 168.139 128.268 167.376V30.5753C128.276 29.8168 128.583 29.0921 129.122 28.5581C129.66 28.0241 130.388 27.7239 131.146 27.7227H228.469C229.226 27.7253 229.951 28.0262 230.488 28.5602C231.025 29.0941 231.33 29.8182 231.336 30.5753V167.376C231.336 168.138 231.034 168.868 230.497 169.407C229.959 169.947 229.23 170.251 228.469 170.254ZM131.146 27.8235C130.417 27.8248 129.718 28.1151 129.202 28.6309C128.686 29.1467 128.396 29.8459 128.394 30.5753V167.376C128.396 168.105 128.686 168.805 129.202 169.32C129.718 169.836 130.417 170.127 131.146 170.128H228.469C229.198 170.127 229.897 169.836 230.413 169.32C230.929 168.805 231.219 168.105 231.22 167.376V30.5753C231.219 29.8459 230.929 29.1467 230.413 28.6309C229.897 28.1151 229.198 27.8248 228.469 27.8235H131.146Z" fill="#EBEBEB"/>
<path d="M194.612 138.397C202.074 130.936 202.074 118.838 194.612 111.376C187.15 103.915 175.053 103.915 167.591 111.376C160.13 118.838 160.13 130.936 167.591 138.397C175.053 145.859 187.15 145.859 194.612 138.397Z" fill="#F0F0F0"/>
<path d="M35.6332 91.2268H87.9535C87.9535 91.2268 87.1975 87.0839 77.5156 87.3208C79.4359 81.2727 74.0179 74.6703 61.7959 74.4183C49.5739 74.1663 53.868 83.9943 53.868 83.9943C53.868 83.9943 33.3249 80.4663 39.5392 87.7844C29.3584 88.1725 27.3475 89.4728 35.6332 91.2268Z" fill="#F0F0F0"/>
<path d="M171.445 117.137C172.635 111.185 162.464 104.663 143.725 104.411C124.987 104.159 134.386 113.871 134.386 113.871C134.386 113.871 102.024 110.343 113.621 117.606C98.1889 117.954 95.4774 119.239 108.647 120.993H188.496C188.496 120.993 186.147 116.93 171.445 117.137Z" fill="#FAFAFA"/>
<path d="M161.064 72.5464H215.274C215.274 72.5464 227.37 65.6013 213.032 64.7042C215.496 58.767 209.443 48.6971 188.28 48.4653C167.117 48.2334 178.089 62.1287 178.089 62.1287C178.089 62.1287 145.833 52.8299 157.148 67.6173C152.209 67.6173 134.634 72.5464 161.064 72.5464Z" fill="#F5F5F5"/>
<path d="M47.5321 144.469H71.8904C71.8904 144.469 77.3285 141.349 70.8824 140.941C71.9912 138.274 69.2696 133.749 59.7591 133.643C50.2486 133.537 55.1828 139.781 55.1828 139.781C55.1828 139.781 40.6877 135.608 45.7681 142.251C43.5555 142.256 35.6528 144.469 47.5321 144.469Z" fill="#F5F5F5"/>
<path d="M46.4336 49.3575C46.4336 49.3575 39.5591 44.9526 34.7761 51.2173C38.7023 47.3264 46.1665 51.2475 46.1665 51.2475C46.1665 51.2475 54.7345 47.3667 57.5569 51.2475C54.5178 44.9929 46.4336 49.3575 46.4336 49.3575Z" fill="#F0F0F0"/>
<path d="M83.2861 107.354C83.2861 107.354 79.1533 104.703 76.2704 108.473C78.6392 106.13 83.1298 108.473 83.1298 108.473C83.1298 108.473 88.2706 106.135 89.9893 108.473C88.1547 104.744 83.2861 107.354 83.2861 107.354Z" fill="#F0F0F0"/>
<path d="M158.645 45.9367C158.645 45.9367 156.579 44.6111 155.117 46.4961C156.301 45.3218 158.549 46.4961 158.549 46.4961C158.549 46.4961 161.12 45.3319 161.977 46.4961C161.079 44.6212 158.645 45.9367 158.645 45.9367Z" fill="#F5F5F5"/>
<path d="M209.195 91.1867C209.195 91.1867 207.123 89.8611 205.667 91.7461C206.846 90.5768 209.094 91.7461 209.094 91.7461C209.094 91.7461 211.664 90.5768 212.521 91.7461C211.624 89.8712 209.195 91.1867 209.195 91.1867Z" fill="#F5F5F5"/>
<path d="M126 215.49C179.969 215.49 223.72 212.936 223.72 209.785C223.72 206.634 179.969 204.08 126 204.08C72.03 204.08 28.2791 206.634 28.2791 209.785C28.2791 212.936 72.03 215.49 126 215.49Z" fill="#F5F5F5"/>
<path d="M92.9167 179.816C94.6353 189.765 86.6116 194.664 78.8047 192.194C73.4875 190.506 68.2207 191.801 64.6523 193.505C64.5116 193.567 64.3537 193.581 64.2042 193.543C64.0547 193.505 63.9224 193.418 63.8286 193.296C63.7347 193.173 63.6849 193.023 63.6872 192.869C63.6894 192.715 63.7436 192.566 63.8409 192.446C64.4415 191.726 65.0826 191.042 65.7611 190.395C65.8725 190.29 65.9448 190.15 65.9662 189.998C65.9876 189.846 65.9568 189.692 65.8788 189.56C65.8009 189.428 65.6805 189.327 65.5373 189.272C65.3941 189.218 65.2366 189.214 65.0908 189.261C61.9862 190.208 57.4099 191.095 52.9948 190.057C52.8621 190.027 52.7416 189.957 52.6489 189.857C52.5562 189.757 52.4956 189.632 52.475 189.497C52.4544 189.363 52.4746 189.225 52.5332 189.102C52.5917 188.979 52.6858 188.876 52.8033 188.807C57.2133 186.196 63.9417 179.337 70.2467 177.109C70.4012 177.055 70.5306 176.946 70.6113 176.803C70.6921 176.661 70.7186 176.494 70.6861 176.333C70.6536 176.173 70.5643 176.029 70.4345 175.929C70.3047 175.829 70.1432 175.779 69.9796 175.789C68.985 175.846 67.995 175.967 67.0161 176.152C66.8568 176.191 66.6886 176.172 66.5424 176.098C66.3961 176.023 66.2818 175.898 66.2204 175.746C66.159 175.594 66.1547 175.425 66.2083 175.269C66.262 175.114 66.3698 174.984 66.5121 174.902C75.3523 169.413 90.7192 167.11 92.9167 179.816Z" fill="#58B368"/>
<path opacity="0.7" d="M92.9167 179.816C94.6353 189.765 86.6116 194.664 78.8047 192.194C73.4875 190.506 68.2207 191.801 64.6523 193.505C64.5116 193.567 64.3537 193.581 64.2042 193.543C64.0547 193.505 63.9224 193.418 63.8286 193.296C63.7347 193.173 63.6849 193.023 63.6872 192.869C63.6894 192.715 63.7436 192.566 63.8409 192.446C64.4415 191.726 65.0826 191.042 65.7611 190.395C65.8725 190.29 65.9448 190.15 65.9662 189.998C65.9876 189.846 65.9568 189.692 65.8788 189.56C65.8009 189.428 65.6805 189.327 65.5373 189.272C65.3941 189.218 65.2366 189.214 65.0908 189.261C61.9862 190.208 57.4099 191.095 52.9948 190.057C52.8621 190.027 52.7416 189.957 52.6489 189.857C52.5562 189.757 52.4956 189.632 52.475 189.497C52.4544 189.363 52.4746 189.225 52.5332 189.102C52.5917 188.979 52.6858 188.876 52.8033 188.807C57.2133 186.196 63.9417 179.337 70.2467 177.109C70.4012 177.055 70.5306 176.946 70.6113 176.803C70.6921 176.661 70.7186 176.494 70.6861 176.333C70.6536 176.173 70.5643 176.029 70.4345 175.929C70.3047 175.829 70.1432 175.779 69.9796 175.789C68.985 175.846 67.995 175.967 67.0161 176.152C66.8568 176.191 66.6886 176.172 66.5424 176.098C66.3961 176.023 66.2818 175.898 66.2204 175.746C66.159 175.594 66.1547 175.425 66.2083 175.269C66.262 175.114 66.3698 174.984 66.5121 174.902C75.3523 169.413 90.7192 167.11 92.9167 179.816Z" fill="white"/>
<path d="M82.0709 194.334L78.6941 168.338C78.6769 168.198 78.6906 168.056 78.7342 167.922C78.7777 167.788 78.8501 167.666 78.9462 167.563C79.0423 167.46 79.1598 167.38 79.2904 167.327C79.421 167.275 79.5615 167.251 79.7021 167.259L96.0821 168.428C96.3025 168.444 96.5107 168.535 96.6714 168.687C96.8322 168.838 96.9356 169.041 96.9641 169.26L99.4841 188.81C99.507 189.026 99.4556 189.244 99.3384 189.427C99.2211 189.61 99.045 189.748 98.839 189.818L83.3006 195.125C83.1675 195.166 83.0271 195.177 82.8892 195.158C82.7513 195.139 82.6193 195.09 82.5022 195.015C82.3851 194.939 82.2859 194.839 82.2114 194.722C82.1369 194.604 82.089 194.472 82.0709 194.334Z" fill="black"/>
<path d="M78.8093 189.456L76.7933 173.863C76.7763 173.729 76.7876 173.594 76.8265 173.465C76.8653 173.336 76.9309 173.217 77.0188 173.115C77.1068 173.014 77.2152 172.931 77.337 172.874C77.4588 172.817 77.5913 172.787 77.7257 172.784L96.535 172.431C96.7711 172.427 97.0005 172.51 97.1791 172.664C97.3577 172.819 97.4729 173.034 97.5027 173.268L99.0147 184.754C99.0437 184.988 98.9859 185.225 98.8521 185.419C98.7183 185.613 98.5179 185.751 98.2889 185.808L80.0139 190.263C79.8813 190.299 79.7426 190.305 79.6072 190.283C79.4717 190.261 79.3426 190.21 79.2285 190.133C79.1144 190.057 79.018 189.957 78.9457 189.84C78.8734 189.723 78.8269 189.593 78.8093 189.456Z" fill="#454D66"/>
<path d="M160.818 186.668L150.991 188.286L151.074 188.793L160.901 187.175L160.818 186.668Z" fill="#58B368"/>
<path d="M148.437 188.709L145.547 189.185L145.631 189.692L148.52 189.216L148.437 188.709Z" fill="#58B368"/>
<path d="M189.922 167.125C189.922 167.125 176.37 154.429 156.956 156.944L95.8053 162.725C94.6841 162.83 93.5957 163.161 92.6049 163.696C91.6142 164.232 90.7414 164.961 90.0387 165.841C89.3359 166.721 88.8177 167.734 88.5148 168.818C88.2118 169.903 88.1305 171.038 88.2756 172.154L90.352 188.182C90.4967 189.299 90.8648 190.375 91.4344 191.347C92.004 192.318 92.7635 193.165 93.6676 193.837C94.5716 194.508 95.6017 194.991 96.6963 195.256C97.791 195.521 98.9278 195.563 100.039 195.379L160.645 185.374C180.054 182.859 189.922 167.125 189.922 167.125Z" fill="#58B368"/>
<path d="M157.517 173.147C157.773 167.402 153.324 162.537 147.579 162.28C141.834 162.023 136.969 166.472 136.712 172.217C136.455 177.962 140.904 182.827 146.649 183.084C152.394 183.341 157.26 178.892 157.517 173.147Z" fill="white"/>
<path opacity="0.3" d="M154.123 173.236C153.991 174.842 153.313 176.355 152.201 177.522C151.09 178.689 149.612 179.441 148.015 179.652C147.914 179.652 147.808 179.677 147.702 179.682C147.256 179.725 146.807 179.725 146.362 179.682C146.205 179.682 146.044 179.647 145.893 179.622L145.555 179.556C144.152 179.234 142.88 178.49 141.912 177.424C140.943 176.359 140.324 175.022 140.137 173.594C140.096 173.26 140.078 172.923 140.082 172.586C140.171 170.849 140.898 169.206 142.125 167.973C143.351 166.74 144.989 166.003 146.725 165.903C148.462 165.804 150.173 166.349 151.532 167.435C152.891 168.52 153.801 170.069 154.088 171.785C154.151 172.266 154.163 172.752 154.123 173.236Z" fill="#58B368"/>
<path opacity="0.3" d="M154.123 173.238C153.99 174.844 153.312 176.357 152.201 177.524C151.09 178.692 149.612 179.443 148.014 179.654C147.913 179.654 147.808 179.679 147.702 179.684C147.256 179.725 146.807 179.725 146.361 179.684C146.205 179.684 146.044 179.649 145.892 179.624L145.555 179.558C144.151 179.236 142.88 178.492 141.911 177.426C140.943 176.361 140.323 175.024 140.137 173.596C140.096 173.262 140.077 172.925 140.081 172.588C140.243 171.039 140.937 169.593 142.046 168.498C143.154 167.404 144.608 166.728 146.16 166.585C150.015 166.127 153.548 168.682 154.062 172.291C154.105 172.605 154.125 172.921 154.123 173.238Z" fill="#58B368"/>
<path d="M132.487 156.932L135.637 156.619L136.081 149.422L132.931 149.735L132.487 156.932Z" fill="#CF7A64"/>
<path d="M114.404 158.807L117.504 158.499L118.164 151.176L115.064 151.483L114.404 158.807Z" fill="#CF7A64"/>
<path d="M117.68 157.803L114.193 158.15C114.132 158.157 114.076 158.184 114.033 158.227C113.989 158.27 113.962 158.327 113.956 158.387L113.689 161.2C113.683 161.267 113.693 161.335 113.716 161.399C113.74 161.462 113.777 161.52 113.825 161.568C113.872 161.616 113.93 161.653 113.994 161.676C114.057 161.7 114.125 161.709 114.193 161.704C115.407 161.563 115.987 161.431 117.519 161.28C118.462 161.185 119.727 161.099 121.047 160.968C122.368 160.837 122.363 159.536 121.813 159.456C119.359 159.174 119.056 158.528 118.205 157.919C118.049 157.818 117.863 157.777 117.68 157.803Z" fill="#454D66"/>
<path d="M135.728 155.97L132.341 156.313C132.28 156.318 132.222 156.344 132.179 156.388C132.135 156.431 132.109 156.489 132.104 156.55L131.837 159.362C131.831 159.43 131.84 159.498 131.863 159.562C131.886 159.626 131.923 159.684 131.971 159.732C132.019 159.78 132.077 159.817 132.141 159.841C132.205 159.864 132.273 159.872 132.341 159.866C133.561 159.725 135.315 159.473 136.852 159.322C138.651 159.14 138.661 159.236 140.768 159.025C142.038 158.894 142.23 157.573 141.685 157.513C139.19 157.225 138.757 157.215 136.494 156.137C136.258 156.015 135.993 155.957 135.728 155.97Z" fill="#454D66"/>
<path d="M123.647 55.91C124.433 55.9806 125.32 56.0663 126.167 56.1066C127.013 56.1469 127.86 56.1771 128.687 56.1771C129.483 56.1752 130.279 56.1281 131.071 56.036C131.699 55.9708 132.313 55.8129 132.895 55.5673L131.968 56.9886C131.968 57.1549 132.003 57.1549 131.968 57.0541C131.925 56.8996 131.864 56.7507 131.786 56.6106C131.55 56.1807 131.272 55.7754 130.955 55.401C130.229 54.5316 129.45 53.7085 128.621 52.9364C127.774 52.125 126.882 51.3387 125.98 50.5575C125.078 49.7763 124.141 49.0002 123.233 48.2492L124.443 46.3643C125.567 46.9388 126.625 47.5638 127.694 48.2139C128.762 48.8641 129.79 49.5697 130.809 50.3257C131.86 51.0902 132.852 51.9325 133.777 52.8457C134.29 53.3643 134.754 53.9295 135.163 54.5341C135.414 54.9068 135.621 55.3077 135.778 55.7286C136.006 56.3185 136.086 56.9554 136.01 57.5833L135.899 58.4703L135.072 59.0197C134.077 59.6531 132.968 60.0862 131.806 60.2948C130.81 60.4991 129.799 60.6238 128.782 60.6678C127.805 60.7232 126.842 60.7131 125.889 60.6678C124.937 60.6224 124.015 60.5519 123.007 60.4007L123.647 55.91Z" fill="#CE7A63"/>
<path d="M125.497 47.3767L123.642 45.0532L122.251 48.3847C122.251 48.3847 123.935 50.3654 125.719 49.3927L125.497 47.3767Z" fill="#CF7A64"/>
<path d="M121.183 43.8296L120.87 47.6096L122.251 48.3555L123.637 45.0392L121.183 43.8296Z" fill="#CF7A64"/>
<path d="M118.91 44.3197L121.732 43.1504C121.778 43.1266 121.828 43.1129 121.88 43.1103C121.931 43.1077 121.982 43.1163 122.03 43.1355C122.078 43.1546 122.121 43.1839 122.157 43.2212C122.192 43.2586 122.219 43.3032 122.236 43.352L124.055 49.153C124.077 49.255 124.063 49.3615 124.014 49.4536C123.965 49.5458 123.885 49.6178 123.788 49.657L120.966 50.8263C120.92 50.8501 120.87 50.8638 120.818 50.8664C120.767 50.8689 120.715 50.8604 120.668 50.8412C120.62 50.8221 120.577 50.7928 120.541 50.7554C120.506 50.7181 120.479 50.6735 120.462 50.6247L118.642 44.8589C118.611 44.7519 118.621 44.637 118.671 44.5371C118.72 44.4371 118.805 44.3595 118.91 44.3197Z" fill="#454D66"/>
<path d="M120.573 61.4484C122.625 63.9281 131.031 61.6046 131.031 61.6046L130.321 55.9447C130.321 55.9447 128.199 55.3096 123.99 55.1786C119.676 55.0224 118.325 58.7318 120.573 61.4484Z" fill="#58B368"/>
<path opacity="0.2" d="M136.079 149.429L135.848 153.138L132.703 153.451L132.929 149.741L136.079 149.429Z" fill="black"/>
<path opacity="0.2" d="M115.06 151.489L118.164 151.176L117.822 154.951L114.722 155.263L115.06 151.489Z" fill="black"/>
<path d="M127.035 56.7322C128.254 59.8973 131.248 69.3322 130.205 83.5752L113.613 85.2435C113.18 82.7235 113.109 68.8685 109.138 57.1404C110.932 56.6053 112.758 56.1861 114.606 55.8855C116.942 55.5126 119.298 55.2753 121.662 55.1748C122.87 55.1731 124.076 55.2421 125.276 55.3815C125.664 55.4241 126.034 55.5726 126.344 55.8108C126.654 56.049 126.893 56.3677 127.035 56.7322Z" fill="#58B368"/>
<path opacity="0.2" d="M120.66 59.3217L120.009 59.4074C120.075 64.9514 120.156 66.4634 115.151 71.6445C114.247 72.5641 113.427 73.5627 112.701 74.6282C112.767 75.2834 112.832 75.9184 112.893 76.5333C114.188 75.3489 115.917 73.7966 117.207 72.718C123.028 67.8595 120.826 59.2512 120.66 59.3217Z" fill="black"/>
<path opacity="0.2" d="M113.114 59.7423C113.618 61.6827 113.618 66.4606 112.409 72.0954C111.85 67.4267 110.884 62.8159 109.521 58.316C110.594 58.069 112.62 57.9229 113.114 59.7423Z" fill="black"/>
<path d="M114.701 49.2139C115.432 51.4315 116.006 54.2136 114.605 55.8868C114.605 55.8868 115.805 58.0893 120.023 57.666C123.874 57.2779 121.661 55.1762 121.661 55.1762C119.05 54.8284 118.793 51.6935 119.015 49.8892L114.701 49.2139Z" fill="#CF7A64"/>
<path d="M120.205 57.4576L121.213 58.3749C121.248 58.4069 121.274 58.4473 121.289 58.4923C121.304 58.5373 121.307 58.5854 121.298 58.632L121.092 59.5543C121.082 59.6051 121.056 59.6515 121.018 59.6867C120.98 59.722 120.932 59.7445 120.88 59.7508L119.897 59.897C119.852 59.904 119.805 59.8993 119.762 59.8835C119.719 59.8676 119.68 59.8411 119.65 59.8063L118.975 58.9999C118.939 58.953 118.919 58.8954 118.919 58.8361C118.919 58.7768 118.939 58.7191 118.975 58.6723L119.817 57.4929C119.839 57.4641 119.867 57.4403 119.899 57.4228C119.931 57.4053 119.967 57.3945 120.003 57.3912C120.039 57.3879 120.076 57.3921 120.111 57.4035C120.145 57.415 120.177 57.4334 120.205 57.4576Z" fill="#454D66"/>
<path d="M119.893 57.4221C119.47 58.5228 118.913 59.5672 118.235 60.5318C118.235 60.5318 114.137 58.667 113.89 55.9958C113.886 55.9471 113.893 55.898 113.913 55.8531C113.932 55.8082 113.962 55.7689 114.001 55.7387C114.157 55.6178 114.439 55.396 114.707 55.1742C114.738 55.146 114.775 55.1249 114.815 55.1127C114.855 55.1005 114.897 55.0975 114.939 55.1038C114.98 55.11 115.02 55.1255 115.055 55.149C115.09 55.1726 115.119 55.2036 115.14 55.2398C115.468 55.8194 116.526 56.9483 119.893 57.4221Z" fill="white"/>
<path d="M120.038 57.3919C120.894 58.0383 121.61 58.853 122.14 59.7859C122.531 59.1034 122.767 58.3428 122.829 57.5585C122.892 56.7743 122.78 55.9859 122.503 55.2499C122.485 55.2064 122.457 55.1675 122.422 55.1361C122.388 55.1047 122.346 55.0816 122.301 55.0684C122.125 55.0231 121.797 54.9424 121.459 54.8769C121.415 54.8696 121.369 54.8727 121.326 54.8861C121.282 54.8995 121.243 54.9227 121.21 54.954C121.177 54.9853 121.152 55.0237 121.137 55.0663C121.122 55.1089 121.116 55.1545 121.122 55.1995C121.206 55.6332 121.146 56.0826 120.95 56.4787C120.754 56.8749 120.434 57.1957 120.038 57.3919Z" fill="white"/>
<path d="M120.628 59.2847C120.79 59.2141 122.423 66.9253 116.788 71.6075C114.49 73.5176 110.795 76.9297 110.8 76.9247C111.143 75.5689 112.222 73.4773 114.928 70.7355C119.822 65.7812 119.817 64.4355 120.018 59.3955L120.628 59.2847Z" fill="#454D66"/>
<path opacity="0.2" d="M119.015 49.8962C118.834 51.1571 119.009 52.4433 119.519 53.6107C119.118 53.5923 118.722 53.5141 118.344 53.3788C116.832 52.8748 116.001 51.8668 115.068 50.3548C114.962 49.9567 114.846 49.5736 114.725 49.2007L119.015 49.8962Z" fill="black"/>
<path d="M117.317 42.3337C117.917 37.591 121.404 42.6109 120.437 44.9696C119.842 46.411 117.171 43.4778 117.317 42.3337Z" fill="#454D66"/>
<path d="M112.518 46.6436C113.712 49.5265 114.267 51.2754 116.263 52.3035C119.262 53.8609 122.391 51.3409 122.069 48.1758C121.782 45.3282 119.876 41.0895 116.621 40.8476C115.906 40.7883 115.188 40.9164 114.538 41.2192C113.888 41.522 113.329 41.9891 112.915 42.5743C112.5 43.1596 112.246 43.8427 112.176 44.5564C112.107 45.27 112.225 45.9894 112.518 46.6436Z" fill="#CF7A64"/>
<path d="M113.864 49.4274C114.245 49.3607 114.598 49.1861 114.883 48.9243C115.167 48.6625 115.37 48.3245 115.467 47.9507C114.607 47.6054 113.862 47.0256 113.315 46.2774C113.315 46.2774 114.595 44.4378 114.459 43.3744C116.102 43.3744 119.953 41.7868 119.081 40.0328C118.209 38.2789 114.752 37.407 112.736 38.6468C111.465 39.5129 109.959 39.9685 108.421 39.9522C108.88 40.2239 109.378 40.4212 109.898 40.5368C109.33 41.0918 108.886 41.7601 108.593 42.4981C108.3 43.2362 108.166 44.0276 108.2 44.8208C108.295 47.0737 107.071 47.9809 107.071 47.9809C107.071 47.9809 108.583 48.2077 109.046 47.5424C108.84 48.2783 110.084 50.8588 112.821 51.2166C115.886 51.6148 113.864 49.4274 113.864 49.4274Z" fill="#454D66"/>
<path d="M112.609 50.8085C113.743 51.3125 114.625 51.4838 115.21 51.1411C115.795 50.7984 115.628 49.6291 114.882 48.9588C114.212 48.3691 112.892 47.8097 112.126 48.4548C111.36 49.0999 111.44 50.2742 112.609 50.8085Z" fill="#CF7A64"/>
<path d="M130.204 83.5801C130.204 83.5801 137.341 107.046 137.845 115.922C138.399 125.634 136.998 151.444 136.998 151.444L131.389 152.013C131.389 152.013 130.34 127.438 128.919 117.933C127.377 107.616 119.63 84.6687 119.63 84.6687L130.204 83.5801Z" fill="#454D66"/>
<path opacity="0.2" d="M125.29 94.6421L124.408 99.793C125.643 103.961 126.877 108.401 127.779 112.257C128.049 106.282 127.205 100.308 125.29 94.6421Z" fill="black"/>
<path d="M130.925 150.614L131.106 152.685L137.381 152.055L137.562 149.711L130.925 150.614Z" fill="#58B368"/>
<path d="M124.318 84.1646C124.318 84.1646 126.642 105.146 125.83 114.203C124.928 124.117 119.187 153.772 119.187 153.772L113.507 154.342C113.507 154.342 116.632 125.745 116.632 116.038C116.632 105.479 113.608 85.2633 113.608 85.2633L124.318 84.1646Z" fill="#454D66"/>
<path d="M113.311 152.53L113.23 154.481L119.475 153.851L120.11 151.643L113.311 152.53Z" fill="#58B368"/>
<path d="M117.221 46.0283C117.301 46.2702 117.498 46.4214 117.649 46.371C117.8 46.3206 117.866 46.0837 117.78 45.867C117.695 45.6503 117.508 45.4739 117.352 45.5243C117.196 45.5747 117.135 45.7864 117.221 46.0283Z" fill="#454D66"/>
<path d="M119.903 45.1548C119.984 45.3967 120.18 45.5479 120.331 45.4975C120.482 45.4471 120.548 45.2102 120.462 44.9935C120.377 44.7768 120.19 44.6004 120.034 44.6508C119.878 44.7012 119.822 44.9179 119.903 45.1548Z" fill="#454D66"/>
<path d="M119.091 45.5464C119.627 46.1849 120.245 46.7493 120.93 47.2247C120.809 47.395 120.65 47.5359 120.467 47.6371C120.284 47.7382 120.081 47.7971 119.872 47.8093L119.091 45.5464Z" fill="#BA4D3C"/>
<path d="M119.277 48.7984C119.295 48.7907 119.309 48.7764 119.317 48.7586C119.324 48.7408 119.324 48.7208 119.318 48.7027C119.31 48.6848 119.296 48.6704 119.278 48.6621C119.261 48.6537 119.241 48.652 119.222 48.6573C118.929 48.7677 118.614 48.8083 118.303 48.776C117.991 48.7436 117.692 48.6391 117.428 48.4708C117.414 48.457 117.395 48.4492 117.375 48.4492C117.355 48.4492 117.336 48.457 117.322 48.4708C117.309 48.4855 117.302 48.5043 117.302 48.5238C117.302 48.5432 117.309 48.562 117.322 48.5767C117.605 48.7692 117.932 48.89 118.272 48.9286C118.613 48.9673 118.958 48.9226 119.277 48.7984Z" fill="#454D66"/>
<path d="M116.112 45.4158C116.133 45.4086 116.152 45.3967 116.168 45.381C116.184 45.3652 116.196 45.3461 116.203 45.3251C116.253 45.1489 116.345 44.9875 116.472 44.8549C116.598 44.7223 116.755 44.6225 116.928 44.5641C116.947 44.5595 116.965 44.551 116.981 44.5392C116.996 44.5274 117.009 44.5125 117.019 44.4954C117.028 44.4784 117.034 44.4596 117.036 44.4401C117.038 44.4207 117.035 44.4011 117.029 44.3826C117.019 44.3449 116.994 44.3128 116.96 44.2931C116.926 44.2733 116.886 44.2675 116.848 44.2768C116.628 44.3471 116.428 44.4702 116.266 44.6353C116.105 44.8005 115.986 45.0027 115.92 45.2243C115.912 45.251 115.91 45.2797 115.917 45.3071C115.923 45.3345 115.937 45.3595 115.957 45.3794C115.977 45.3993 116.002 45.4133 116.029 45.4197C116.057 45.4262 116.085 45.4248 116.112 45.4158Z" fill="#454D66"/>
<path d="M120.774 43.8052C120.796 43.7965 120.815 43.7827 120.83 43.7649C120.856 43.7368 120.87 43.6999 120.87 43.6615C120.87 43.6232 120.856 43.5862 120.83 43.5582C120.658 43.3967 120.451 43.2775 120.225 43.2101C120 43.1427 119.761 43.1291 119.529 43.1702C119.511 43.1754 119.493 43.1842 119.478 43.1962C119.463 43.2082 119.45 43.223 119.441 43.2399C119.432 43.2567 119.426 43.2753 119.424 43.2945C119.421 43.3136 119.423 43.3331 119.429 43.3516C119.433 43.3706 119.442 43.3885 119.453 43.4042C119.465 43.4199 119.48 43.4331 119.497 43.443C119.514 43.4528 119.532 43.4592 119.552 43.4617C119.571 43.4642 119.591 43.4627 119.61 43.4574C119.791 43.4295 119.976 43.4436 120.151 43.4986C120.326 43.5537 120.486 43.6482 120.618 43.7749C120.639 43.794 120.664 43.8069 120.692 43.8123C120.719 43.8176 120.748 43.8152 120.774 43.8052Z" fill="#454D66"/>
<path d="M107.161 62.2617L111.385 63.9703C111.385 63.9703 107.907 74.3124 108.658 75.7135C109.666 77.6186 112.393 80.6577 114.011 82.6788C113.862 83.4398 113.514 84.1477 113.003 84.73C109.606 83.1172 104.253 78.052 103.976 76.1116C103.366 71.6865 107.161 62.2617 107.161 62.2617Z" fill="#CF7A64"/>
<path d="M109.138 57.1404C105.685 58.2592 105.202 65.9352 105.202 65.9352L110.544 68.6769C112.08 66.8486 113.183 64.6966 113.77 62.382C114.702 58.486 112.172 56.1576 109.138 57.1404Z" fill="#58B368"/>
<path d="M118.774 158.256C118.985 158.254 119.188 158.177 119.348 158.04C119.398 157.987 119.434 157.922 119.453 157.852C119.471 157.781 119.472 157.707 119.454 157.636C119.448 157.594 119.431 157.554 119.404 157.52C119.378 157.487 119.343 157.461 119.303 157.445C118.94 157.304 118.013 158.014 117.907 158.095C117.9 158.107 117.896 158.121 117.896 158.135C117.896 158.15 117.9 158.164 117.907 158.176C117.91 158.19 117.918 158.202 117.929 158.211C117.939 158.22 117.953 158.225 117.967 158.226C118.234 158.269 118.505 158.279 118.774 158.256ZM119.152 157.571C119.185 157.563 119.219 157.563 119.252 157.571C119.268 157.578 119.281 157.59 119.291 157.604C119.301 157.618 119.307 157.634 119.308 157.652C119.32 157.7 119.321 157.75 119.31 157.798C119.298 157.847 119.275 157.892 119.242 157.929C118.912 158.12 118.521 158.18 118.149 158.095C118.444 157.85 118.785 157.665 119.152 157.551V157.571Z" fill="#58B368"/>
<path d="M117.962 158.208C117.962 158.208 117.962 158.208 117.998 158.208C118.3 158.002 118.834 157.261 118.723 156.923C118.706 156.871 118.67 156.826 118.624 156.795C118.577 156.765 118.522 156.752 118.466 156.757C118.41 156.755 118.354 156.765 118.301 156.787C118.249 156.809 118.202 156.841 118.164 156.883C117.841 157.211 117.882 158.113 117.882 158.148C117.881 158.162 117.884 158.175 117.891 158.187C117.899 158.199 117.909 158.208 117.922 158.213L117.962 158.208ZM118.431 156.888H118.466C118.562 156.888 118.577 156.933 118.582 156.948C118.648 157.15 118.315 157.704 118.028 157.956C118.004 157.603 118.091 157.251 118.275 156.948C118.321 156.908 118.38 156.887 118.441 156.888H118.431Z" fill="#58B368"/>
<path d="M137.089 156.385C137.355 156.384 137.612 156.289 137.815 156.117C137.861 156.069 137.894 156.01 137.911 155.946C137.928 155.882 137.928 155.814 137.911 155.75C137.903 155.709 137.886 155.671 137.86 155.638C137.835 155.606 137.802 155.58 137.764 155.563C137.361 155.392 136.192 156.148 136.061 156.233C136.049 156.243 136.04 156.255 136.035 156.27C136.03 156.284 136.028 156.299 136.031 156.314C136.035 156.329 136.043 156.342 136.055 156.352C136.067 156.362 136.081 156.368 136.096 156.369C136.426 156.405 136.758 156.41 137.089 156.385ZM137.568 155.684C137.614 155.673 137.663 155.673 137.709 155.684C137.724 155.69 137.738 155.701 137.747 155.714C137.757 155.727 137.763 155.743 137.764 155.76C137.776 155.802 137.776 155.846 137.766 155.888C137.755 155.931 137.734 155.97 137.704 156.002C137.538 156.193 137.029 156.269 136.328 156.228C136.715 155.976 137.143 155.792 137.593 155.684H137.568Z" fill="#58B368"/>
<path d="M136.111 156.371H136.142C136.494 156.169 137.15 155.423 137.054 155.08C137.029 155 136.958 154.904 136.751 154.904C136.679 154.902 136.606 154.916 136.539 154.945C136.472 154.973 136.412 155.016 136.363 155.07C136.12 155.436 136.004 155.872 136.031 156.31C136.031 156.322 136.034 156.334 136.04 156.345C136.047 156.356 136.055 156.364 136.066 156.371C136.073 156.374 136.081 156.376 136.089 156.376C136.097 156.376 136.104 156.374 136.111 156.371ZM136.711 155.04H136.757C136.893 155.04 136.908 155.09 136.913 155.106C136.973 155.312 136.535 155.892 136.177 156.159C136.167 155.801 136.269 155.448 136.469 155.151C136.535 155.087 136.62 155.048 136.711 155.04Z" fill="#58B368"/>
<path d="M113.249 82.2446L116.218 82.3454L114.408 85.44C114.408 85.44 111.813 85.2636 111.551 83.2375L113.249 82.2446Z" fill="#CF7A64"/>
<path d="M117.61 83.3765L115.811 86.0981L114.384 85.4378L116.219 82.3433L117.61 83.3765Z" fill="#CF7A64"/>
</svg>
