<svg width="24" height="24" viewBox="0 0 24 24" fill="none" xmlns="http://www.w3.org/2000/svg">
<path d="M8.81763 15.1823L15.1816 8.81836" stroke="#58B368" stroke-width="1.2" stroke-linecap="round" stroke-linejoin="round"/>
<path d="M13.5904 16.7741L10.9388 19.4258C10.0948 20.2694 8.95028 20.7433 7.75694 20.7432C6.5636 20.7431 5.41916 20.269 4.57534 19.4252C3.73152 18.5814 3.25743 17.437 3.25732 16.2436C3.25722 15.0503 3.73112 13.9058 4.5748 13.0618L7.22645 10.4102" stroke="#58B368" stroke-width="1.2" stroke-linecap="round" stroke-linejoin="round"/>
<path d="M16.7729 13.5909L19.4246 10.9392C20.2682 10.0953 20.7421 8.95077 20.742 7.75743C20.7419 6.56409 20.2678 5.41965 19.424 4.57583C18.5802 3.73201 17.4358 3.25791 16.2424 3.25781C15.0491 3.25771 13.9046 3.73161 13.0606 4.57529L10.4089 7.22694" stroke="#58B368" stroke-width="1.2" stroke-linecap="round" stroke-linejoin="round"/>
</svg>
