<svg width="20" height="20" viewBox="0 0 20 20" fill="none" xmlns="http://www.w3.org/2000/svg">
<path d="M15.3737 14.5252C15.1394 14.2908 14.7595 14.2908 14.5252 14.5252C14.2908 14.7595 14.2908 15.1394 14.5252 15.3737L15.3737 14.5252ZM18.5757 19.4243C18.8101 19.6586 19.1899 19.6586 19.4243 19.4243C19.6586 19.1899 19.6586 18.8101 19.4243 18.5757L18.5757 19.4243ZM9.11518 17.8304C13.9284 17.8304 17.8304 13.9284 17.8304 9.11518H16.6304C16.6304 13.2657 13.2657 16.6304 9.11518 16.6304V17.8304ZM17.8304 9.11518C17.8304 4.30194 13.9284 0.4 9.11518 0.4V1.6C13.2657 1.6 16.6304 4.96468 16.6304 9.11518H17.8304ZM9.11518 0.4C4.30194 0.4 0.4 4.30194 0.4 9.11518H1.6C1.6 4.96468 4.96468 1.6 9.11518 1.6V0.4ZM0.4 9.11518C0.4 13.9284 4.30194 17.8304 9.11518 17.8304V16.6304C4.96468 16.6304 1.6 13.2657 1.6 9.11518H0.4ZM14.5252 15.3737L18.5757 19.4243L19.4243 18.5757L15.3737 14.5252L14.5252 15.3737Z" fill="#454C62"/>
</svg>
