<svg width="280" height="180" viewBox="0 0 280 180" fill="none" xmlns="http://www.w3.org/2000/svg">
<path d="M260.287 157.995H19V158.116H260.287V157.995Z" fill="#EBEBEB"/>
<path d="M229.243 165.762H220.127V165.882H229.243V165.762Z" fill="#EBEBEB"/>
<path d="M174.639 164.918H160.418V165.039H174.639V164.918Z" fill="#EBEBEB"/>
<path d="M219.644 161.281H196.91V161.401H219.644V161.281Z" fill="#EBEBEB"/>
<path d="M49.6093 162.09H44.3154V162.21H49.6093V162.09Z" fill="#EBEBEB"/>
<path d="M72.5123 162.09H53.9043V162.21H72.5123V162.09Z" fill="#EBEBEB"/>
<path d="M127.652 164.128H101.521V164.249H127.652V164.128Z" fill="#EBEBEB"/>
<path d="M133.37 136.472H40.1949C39.4641 136.472 38.7633 136.182 38.2465 135.665C37.7298 135.148 37.4395 134.447 37.4395 133.716V2.73137C37.4458 2.00475 37.7389 1.31007 38.255 0.798517C38.7711 0.286968 39.4683 -2.7857e-05 40.1949 2.02804e-09H133.37C134.101 2.02805e-09 134.802 0.29031 135.319 0.807066C135.835 1.32382 136.126 2.02469 136.126 2.7555V133.716C136.126 134.447 135.835 135.148 135.319 135.665C134.802 136.182 134.101 136.472 133.37 136.472ZM40.1949 0.0965151C39.4965 0.0977908 38.8271 0.3758 38.3332 0.869654C37.8394 1.36351 37.5614 2.03295 37.5601 2.73137V133.716C37.5614 134.415 37.8394 135.084 38.3332 135.578C38.8271 136.072 39.4965 136.35 40.1949 136.351H133.37C134.069 136.35 134.738 136.072 135.232 135.578C135.726 135.084 136.004 134.415 136.005 133.716V2.73137C136.004 2.03295 135.726 1.36351 135.232 0.869654C134.738 0.3758 134.069 0.0977908 133.37 0.0965151H40.1949Z" fill="#EBEBEB"/>
<path d="M237.756 136.472H144.571C143.841 136.471 143.14 136.18 142.624 135.663C142.107 135.147 141.817 134.447 141.815 133.716V2.73137C141.823 2.00515 142.117 1.31119 142.632 0.799911C143.148 0.288632 143.845 0.00122974 144.571 0H237.756C238.481 0.00251155 239.176 0.29063 239.69 0.801906C240.204 1.31318 240.495 2.00642 240.502 2.73137V133.716C240.502 134.445 240.213 135.145 239.698 135.661C239.183 136.178 238.485 136.469 237.756 136.472ZM144.571 0.0965151C143.873 0.0977908 143.203 0.3758 142.709 0.869654C142.215 1.36351 141.937 2.03295 141.936 2.73137V133.716C141.937 134.415 142.215 135.084 142.709 135.578C143.203 136.072 143.873 136.35 144.571 136.351H237.756C238.454 136.35 239.124 136.072 239.618 135.578C240.111 135.084 240.389 134.415 240.391 133.716V2.73137C240.389 2.03295 240.111 1.36351 239.618 0.869654C239.124 0.3758 238.454 0.0977908 237.756 0.0965151H144.571Z" fill="#EBEBEB"/>
<path d="M229.243 165.762H220.127V165.882H229.243V165.762Z" fill="#EBEBEB"/>
<path d="M174.639 164.918H160.418V165.039H174.639V164.918Z" fill="#EBEBEB"/>
<path d="M219.644 161.281H196.91V161.401H219.644V161.281Z" fill="#EBEBEB"/>
<path d="M49.6093 162.09H44.3154V162.21H49.6093V162.09Z" fill="#EBEBEB"/>
<path d="M72.5123 162.09H53.9043V162.21H72.5123V162.09Z" fill="#EBEBEB"/>
<path d="M127.652 164.128H101.521V164.249H127.652V164.128Z" fill="#EBEBEB"/>
<path d="M114.038 14.7773H85.3828V79.9441H114.038V14.7773Z" fill="#E6E6E6"/>
<path d="M115.79 14.7773H87.1348V79.9441H115.79V14.7773Z" fill="#F5F5F5"/>
<path d="M112.648 77.0096V17.7109H90.2763V77.0096H112.648Z" fill="white"/>
<path d="M112.644 77.0096V17.7109H111.321V77.0096H112.644Z" fill="#E6E6E6"/>
<path d="M114.487 59.3984H88.4326V63.3362H114.487V59.3984Z" fill="#F5F5F5"/>
<path d="M114.487 22.8826H88.4326V26.8204H114.487V22.8826Z" fill="#F5F5F5"/>
<path d="M152.673 14.7773H124.018V79.9441H152.673V14.7773Z" fill="#E6E6E6"/>
<path d="M154.42 14.7773H125.765V79.9441H154.42V14.7773Z" fill="#F5F5F5"/>
<path d="M151.278 77.0096V17.7109H128.906V77.0096H151.278Z" fill="white"/>
<path d="M151.278 77.0096V17.7109H149.956V77.0096H151.278Z" fill="#E6E6E6"/>
<path d="M153.122 59.3984H127.067V63.3362H153.122V59.3984Z" fill="#F5F5F5"/>
<path d="M153.122 22.8826H127.067V26.8204H153.122V22.8826Z" fill="#F5F5F5"/>
<path d="M75.4033 14.7773H46.748V79.9441H75.4033V14.7773Z" fill="#E6E6E6"/>
<path d="M77.1552 14.7773H48.5V79.9441H77.1552V14.7773Z" fill="#F5F5F5"/>
<path d="M74.0137 77.0096V17.7109H51.6416V77.0096H74.0137Z" fill="white"/>
<path d="M74.0088 77.0018V17.7031H72.6865V77.0018H74.0088Z" fill="#E6E6E6"/>
<path d="M75.852 59.3984H49.7979V63.3362H75.852V59.3984Z" fill="#F5F5F5"/>
<path d="M75.852 22.8826H49.7979V26.8204H75.852V22.8826Z" fill="#F5F5F5"/>
<path d="M177.873 92.8994H173.188V157.994H177.873V92.8994Z" fill="#E6E6E6"/>
<path d="M179.128 92.8994H176.367V157.994H179.128V92.8994Z" fill="#F0F0F0"/>
<path d="M113.444 97.7773L179.981 97.7773V92.8937L113.444 92.8937V97.7773Z" fill="#F0F0F0"/>
<path d="M50.4202 92.8994H45.7344V157.994H50.4202V92.8994Z" fill="#E6E6E6"/>
<path d="M51.2984 92.8994H48.5381V157.994H51.2984V92.8994Z" fill="#F0F0F0"/>
<path d="M44.9002 97.7773L111.438 97.7773V92.8937L44.9002 92.8937V97.7773Z" fill="#E6E6E6"/>
<path d="M113.044 92.8994H108.358V157.994H113.044V92.8994Z" fill="#E6E6E6"/>
<path d="M114.298 92.8994H111.538V157.994H114.298V92.8994Z" fill="#F0F0F0"/>
<path d="M101.119 71.2468H135.864L138.591 91.761H103.851L101.119 71.2468Z" fill="#E6E6E6"/>
<path d="M103.851 91.7622L103.991 92.8963H138.736L138.596 91.7622H103.851Z" fill="#E6E6E6"/>
<path d="M102.191 71.2468H136.932L139.663 91.761H104.918L102.191 71.2468Z" fill="#F0F0F0"/>
<path d="M105.757 90.8261L103.281 72.1843H136.091L138.572 90.8261H105.757Z" fill="white"/>
<path d="M113.971 91.7622L114.111 92.8963H152.374L152.229 91.7622H113.971Z" fill="#F0F0F0"/>
<path d="M176.753 75.281H159.554C156.627 75.2546 153.791 76.3024 151.584 78.2259C149.377 80.1494 147.951 82.8153 147.577 85.7191L145.063 104.718L135.72 104.684H135.691C133.608 104.635 131.585 105.387 130.04 106.785C128.495 108.183 127.545 110.12 127.386 112.198L126.836 118.713C125.93 118.841 125.091 119.263 124.449 119.914C123.806 120.565 123.395 121.41 123.279 122.317H169.418C172.343 122.344 175.177 121.297 177.382 119.375C179.587 117.454 181.012 114.79 181.386 111.889L185.005 84.6236C185.143 83.4553 185.033 82.271 184.682 81.1482C184.331 80.0254 183.747 78.9892 182.968 78.1075C182.189 77.2257 181.233 76.5182 180.162 76.0312C179.091 75.5441 177.93 75.2885 176.753 75.281ZM136.217 118.645H129.316L129.837 112.652C129.951 111.116 130.65 109.682 131.791 108.647C132.932 107.613 134.427 107.056 135.966 107.092H135.99L144.754 107.121L144.141 111.739C143.893 113.663 142.948 115.428 141.484 116.701C140.021 117.974 138.142 118.666 136.203 118.645H136.217Z" fill="#E0E0E0"/>
<path d="M133.935 122.297H131.541L125.934 157.993H128.327L133.935 122.297Z" fill="#F0F0F0"/>
<path d="M142.92 122.297H140.526L134.914 157.993H137.308L142.92 122.297Z" fill="#F0F0F0"/>
<path d="M163.999 122.297H166.393L172.005 157.993H169.611L163.999 122.297Z" fill="#F0F0F0"/>
<path d="M155.018 122.297H157.411L163.019 157.993H160.625L155.018 122.297Z" fill="#F0F0F0"/>
<path d="M231.144 15.9209H184.484V113.406H231.144V15.9209Z" fill="#E6E6E6"/>
<path d="M234.387 15.9209H185.348V113.406H234.387V15.9209Z" fill="#F0F0F0"/>
<path d="M230.275 109.297V20.0308L189.45 20.0308V109.297H230.275Z" fill="#FAFAFA"/>
<path d="M203.927 109.298L208.984 20.0269H215.808L210.75 109.298H203.927Z" fill="white"/>
<path d="M212.039 109.298L217.096 20.0269H223.92L218.863 109.298H212.039Z" fill="white"/>
<path d="M139.643 179.785C191.319 179.785 233.21 177.339 233.21 174.322C233.21 171.305 191.319 168.859 139.643 168.859C87.9682 168.859 46.0771 171.305 46.0771 174.322C46.0771 177.339 87.9682 179.785 139.643 179.785Z" fill="#F5F5F5"/>
<path d="M135.208 32.139L127.724 141.437H218.988L227.254 20.6875H147.446L135.208 32.139Z" fill="#58B368"/>
<path opacity="0.8" d="M135.208 32.139L127.724 141.437H218.988L227.254 20.6875H147.446L135.208 32.139Z" fill="white"/>
<path d="M211.519 57.5862C217.667 51.6448 218.153 42.1736 212.605 36.4317C207.056 30.6898 197.574 30.8515 191.425 36.7929C185.277 42.7343 184.791 52.2055 190.34 57.9474C195.889 63.6893 205.371 63.5276 211.519 57.5862Z" fill="#58B368"/>
<path d="M210.99 57.0407C216.815 51.4123 217.275 42.4403 212.019 37.0012C206.763 31.5621 197.78 31.7156 191.956 37.344C186.132 42.9724 185.671 51.9444 190.927 57.3835C196.183 62.8226 205.166 62.6691 210.99 57.0407Z" fill="white"/>
<path d="M197.75 52.117L194.961 51.9336C194.961 51.9336 193.663 58.6124 192.833 59.1722C191.699 59.9588 189.455 61.8601 187.964 62.5502C187.81 63.002 187.778 63.4865 187.872 63.9545C190.188 63.9545 194.474 61.6478 195.212 60.6441C196.906 58.3904 197.75 52.117 197.75 52.117Z" fill="#FFC3BD"/>
<path d="M199.082 47.9269C199.927 49.5001 197.297 55.1655 197.297 55.1655L193.716 54.0459C193.819 52.304 194.222 50.593 194.908 48.9885C195.796 47.1403 198.155 46.1993 199.082 47.9269Z" fill="#263238"/>
<path opacity="0.2" d="M196.346 50.8242C196.829 51.9631 196.196 54.7138 195.699 56.4559C194.488 54.3808 194.319 52.4505 196.346 50.8242Z" fill="black"/>
<path d="M196.332 48.208C195.782 50.2203 194.701 55.5045 195.584 63.7999H205.009C205.226 62.2219 204.951 54.5152 207.166 47.0787C206.043 46.8566 204.906 46.7114 203.764 46.6444C202.307 46.5599 200.848 46.5599 199.391 46.6444C198.77 46.7021 198.154 46.8152 197.553 46.9822C197.26 47.063 196.994 47.2184 196.78 47.4334C196.566 47.6483 196.411 47.9152 196.332 48.208Z" fill="#263238"/>
<path opacity="0.2" d="M204.762 48.9112C204.478 50.137 204.589 53.0662 205.443 56.4539C205.696 53.5363 206.201 50.6462 206.953 47.8158C206.283 47.7338 205.033 47.7724 204.762 48.9112Z" fill="black"/>
<path d="M203.57 42.5516C203.165 43.9608 202.866 45.7028 203.763 46.6439C203.763 46.6439 203.063 48.0916 200.453 48.0916C198.064 48.0916 199.391 46.6439 199.391 46.6439C200.993 46.2675 201.095 44.3275 200.921 43.2369L203.57 42.5516Z" fill="#FFC3BD"/>
<path d="M200.448 48.0646C200.692 48.4735 200.822 48.9399 200.825 49.4158C200.825 49.4158 204.203 48.2625 204.203 46.5686C204.203 46.5686 203.764 46.2936 203.488 46.0861C203.498 46.0716 203.271 47.389 200.448 48.0646Z" fill="white"/>
<path d="M200.356 48.0649C200.052 48.4324 199.825 48.8575 199.69 49.3148C199.292 49.0104 199.001 48.5872 198.86 48.1066C198.718 47.6259 198.733 47.1127 198.903 46.6413C199.184 46.529 199.472 46.4387 199.767 46.3711C199.767 46.3711 199.357 47.703 200.356 48.0649Z" fill="white"/>
<path opacity="0.2" d="M200.931 43.2369C201.07 44.012 200.991 44.8104 200.704 45.5436C200.953 45.5081 201.195 45.4365 201.423 45.3313C202.35 44.9114 202.847 44.2551 203.392 43.2852C203.445 43.0342 203.513 42.8026 203.58 42.5516L200.931 43.2369Z" fill="black"/>
<path d="M198.638 41.9322C198.71 42.1458 198.826 42.3421 198.978 42.5084C199.13 42.6746 199.315 42.8071 199.521 42.8973C200.086 43.1386 200.487 42.6223 200.453 42.0287C200.419 41.4351 200.062 40.7209 199.439 40.7306C199.299 40.7373 199.162 40.7769 199.04 40.8461C198.918 40.9154 198.814 41.0123 198.736 41.1292C198.658 41.2461 198.608 41.3797 198.591 41.5191C198.575 41.6586 198.591 41.8001 198.638 41.9322Z" fill="#FFC3BD"/>
<path opacity="0.2" d="M198.638 41.9322C198.71 42.1458 198.826 42.3421 198.978 42.5084C199.13 42.6746 199.315 42.8071 199.521 42.8973C200.086 43.1386 200.487 42.6223 200.453 42.0287C200.419 41.4351 200.062 40.7209 199.439 40.7306C199.299 40.7373 199.162 40.7769 199.04 40.8461C198.918 40.9154 198.814 41.0123 198.736 41.1292C198.658 41.2461 198.608 41.3797 198.591 41.5191C198.575 41.6586 198.591 41.8001 198.638 41.9322Z" fill="black"/>
<path d="M201.162 37.9889C200.978 36.8742 199.333 38.8334 199.685 39.8661C200.037 40.8988 201.364 39.2436 201.162 37.9889Z" fill="#263238"/>
<path d="M204.684 40.8179C204.081 42.6854 203.821 43.8002 202.638 44.6013C202.281 44.8749 201.852 45.0399 201.403 45.0768C200.954 45.1137 200.504 45.0209 200.107 44.8094C199.709 44.5979 199.381 44.2767 199.161 43.8839C198.94 43.4911 198.838 43.0433 198.865 42.5938C198.913 40.8275 199.892 38.072 201.89 37.6377C203.888 37.2034 205.273 38.9503 204.684 40.8179Z" fill="#FFC3BD"/>
<path d="M204.134 39.7137C202.098 39.4241 199.173 39.0477 200.235 37.3829C201.244 35.7952 205.268 36.0847 204.047 36.7893C205.625 36.881 207.633 37.6386 206.118 38.1598C207.339 39.0284 206.856 41.3544 204.525 42.1652C203.854 41.1904 203.343 40.7609 204.134 39.7137Z" fill="#263238"/>
<path d="M204.974 43.0444C204.63 43.3971 204.167 43.6102 203.676 43.6428C203.039 43.6766 202.918 43.0685 203.261 42.5425C203.603 42.0165 204.269 41.4808 204.829 41.698C205.389 41.9152 205.403 42.6004 204.974 43.0444Z" fill="#FFC3BD"/>
<path d="M201.756 40.8579C201.717 41.0123 201.606 41.1185 201.505 41.104C201.403 41.0895 201.36 40.9496 201.403 40.7952C201.447 40.6407 201.553 40.5298 201.65 40.5491C201.746 40.5684 201.799 40.7035 201.756 40.8579Z" fill="#263238"/>
<path d="M200.062 40.5602C200.023 40.7146 199.912 40.8256 199.816 40.8063C199.719 40.787 199.671 40.6519 199.71 40.4974C199.748 40.343 199.859 40.2368 199.961 40.2513C200.062 40.2658 200.105 40.4057 200.062 40.5602Z" fill="#263238"/>
<path d="M200.583 40.7305C200.28 41.1688 199.923 41.5675 199.521 41.9176C199.607 42.0105 199.713 42.0824 199.831 42.1276C199.949 42.1728 200.076 42.1901 200.202 42.1782L200.583 40.7305Z" fill="#ED847E"/>
<path d="M200.53 42.6822C200.524 42.681 200.519 42.6787 200.514 42.6754C200.509 42.6721 200.505 42.6678 200.502 42.6629C200.499 42.6579 200.497 42.6524 200.496 42.6465C200.495 42.6407 200.495 42.6348 200.496 42.6291C200.501 42.6172 200.508 42.6071 200.519 42.6001C200.529 42.5932 200.542 42.5898 200.554 42.5905C200.747 42.6244 200.945 42.6147 201.134 42.5621C201.323 42.5095 201.497 42.4153 201.645 42.2865C201.649 42.2822 201.654 42.2789 201.659 42.2766C201.665 42.2743 201.67 42.2731 201.676 42.2731C201.682 42.2731 201.688 42.2743 201.693 42.2766C201.699 42.2789 201.704 42.2822 201.708 42.2865C201.717 42.2955 201.721 42.3076 201.721 42.3202C201.721 42.3329 201.717 42.345 201.708 42.354C201.549 42.4948 201.361 42.5976 201.157 42.6545C200.953 42.7114 200.738 42.7208 200.53 42.6822Z" fill="#263238"/>
<path d="M202.412 40.3854C202.399 40.3834 202.387 40.3779 202.376 40.3694C202.366 40.3609 202.359 40.3497 202.354 40.3371C202.314 40.2349 202.249 40.1445 202.165 40.0744C202.08 40.0044 201.98 39.9569 201.872 39.9366C201.86 39.9362 201.849 39.9333 201.839 39.9279C201.828 39.9226 201.819 39.915 201.812 39.9057C201.805 39.8965 201.801 39.8857 201.798 39.8744C201.796 39.863 201.796 39.8513 201.799 39.8401C201.804 39.8158 201.817 39.7941 201.837 39.779C201.856 39.7639 201.881 39.7564 201.905 39.758C202.042 39.778 202.171 39.833 202.28 39.9175C202.389 40.0021 202.475 40.1134 202.528 40.2406C202.536 40.2637 202.535 40.289 202.525 40.3114C202.515 40.3338 202.497 40.3516 202.475 40.3612C202.467 40.3695 202.457 40.3759 202.446 40.38C202.435 40.3842 202.424 40.386 202.412 40.3854Z" fill="#263238"/>
<path d="M199.482 39.8092C199.472 39.8133 199.46 39.8133 199.449 39.8092C199.44 39.8011 199.433 39.7914 199.429 39.7806C199.424 39.7698 199.422 39.7582 199.422 39.7465C199.422 39.7348 199.424 39.7232 199.429 39.7124C199.433 39.7016 199.44 39.6919 199.449 39.6838C199.545 39.5701 199.666 39.4794 199.802 39.4184C199.938 39.3575 200.086 39.3278 200.235 39.3315C200.247 39.3332 200.258 39.3373 200.268 39.3434C200.278 39.3494 200.286 39.3574 200.293 39.3669C200.3 39.3763 200.304 39.387 200.307 39.3984C200.309 39.4097 200.31 39.4214 200.308 39.4328C200.303 39.458 200.289 39.4804 200.268 39.4957C200.248 39.5109 200.222 39.5177 200.197 39.5149C200.079 39.5134 199.962 39.5382 199.856 39.5875C199.749 39.6367 199.654 39.7092 199.579 39.7996C199.566 39.8106 199.549 39.8174 199.532 39.8191C199.515 39.8209 199.498 39.8174 199.482 39.8092Z" fill="#263238"/>
<path d="M207.995 49.6598L205.442 51.0158C205.442 51.0158 207.908 57.0963 207.488 58.0083C206.914 59.2534 205.964 61.9896 205.027 63.3456C205.138 63.7976 205.374 64.2091 205.708 64.5327C207.754 63.2973 210.268 59.1231 210.379 57.9166C210.63 55.1611 207.995 49.6598 207.995 49.6598Z" fill="#FFC3BD"/>
<path d="M207.166 47.0783C208.951 47.3919 210.264 53.7522 210.264 53.7522L205.863 55.0118C205.237 53.5491 204.72 52.0427 204.314 50.5045C203.73 48.1496 205.274 46.7356 207.166 47.0783Z" fill="#263238"/>
<path d="M205.954 63.1182L204.135 62.9879L204.917 65.0051C204.917 65.0051 206.519 65.0678 206.895 63.8421L205.954 63.1182Z" fill="#FFC3BD"/>
<path d="M202.562 63.9145L203.367 65.7L204.916 65.0051L204.135 62.9879L202.562 63.9145Z" fill="#FFC3BD"/>
<path d="M206.663 128.555C212.811 122.614 213.297 113.142 207.748 107.4C202.199 101.659 192.717 101.82 186.569 107.762C180.421 113.703 179.935 123.174 185.483 128.916C191.032 134.658 200.514 134.496 206.663 128.555Z" fill="#58B368"/>
<path d="M206.133 128.003C211.957 122.374 212.418 113.402 207.162 107.963C201.905 102.524 192.923 102.677 187.099 108.306C181.274 113.934 180.814 122.906 186.07 128.345C191.326 133.784 200.308 133.631 206.133 128.003Z" fill="white"/>
<path d="M191.685 123.222L189.064 122.368C189.064 122.368 186.212 128.642 185.281 129.018C184.007 129.501 181.42 130.857 179.823 131.18C179.564 131.591 179.414 132.061 179.389 132.546C181.599 133.115 186.246 131.86 187.197 131.045C189.349 129.192 191.685 123.222 191.685 123.222Z" fill="#FFB573"/>
<path d="M193.967 119.392C194.392 121.149 190.512 126.124 190.512 126.124L187.37 124.136C187.888 122.447 188.685 120.856 189.73 119.431C191.023 117.824 193.499 117.467 193.967 119.392Z" fill="#58B368"/>
<path opacity="0.3" d="M193.967 119.392C194.392 121.149 190.512 126.124 190.512 126.124L187.37 124.136C187.888 122.447 188.685 120.856 189.73 119.431C191.023 117.824 193.499 117.467 193.967 119.392Z" fill="black"/>
<path opacity="0.2" d="M191.515 121.579C191.81 122.795 191.544 124.74 190.767 126.405C190.077 125.358 189.271 122.863 191.515 121.579Z" fill="black"/>
<path d="M191.472 119.194C190.922 121.207 189.846 126.491 190.724 134.786H200.154C200.371 133.208 200.091 125.502 202.306 118.065C201.183 117.843 200.047 117.698 198.904 117.631C197.448 117.546 195.988 117.546 194.532 117.631C193.91 117.689 193.295 117.802 192.693 117.969C192.401 118.05 192.135 118.206 191.921 118.421C191.708 118.635 191.553 118.902 191.472 119.194Z" fill="#58B368"/>
<path opacity="0.3" d="M191.472 119.194C190.922 121.207 189.846 126.491 190.724 134.786H200.154C200.371 133.208 200.091 125.502 202.306 118.065C201.183 117.843 200.047 117.698 198.904 117.631C197.448 117.546 195.988 117.546 194.532 117.631C193.91 117.689 193.295 117.802 192.693 117.969C192.401 118.05 192.135 118.206 191.921 118.421C191.708 118.635 191.553 118.902 191.472 119.194Z" fill="black"/>
<path opacity="0.2" d="M199.937 121.459C199.652 122.684 199.401 125.594 200.583 127.418C200.838 124.501 201.345 121.611 202.098 118.78C201.413 118.713 200.207 120.31 199.937 121.459Z" fill="black"/>
<g opacity="0.95">
<path opacity="0.95" d="M195.473 121.396L194.957 121.622L194.561 121.265C194.058 120.849 193.693 120.29 193.513 119.662C193.333 119.034 193.347 118.367 193.553 117.747C193.872 117.684 194.194 117.637 194.518 117.607C195.974 117.523 197.434 117.523 198.89 117.607C199.228 117.607 199.566 117.651 199.894 117.685L199.566 118.104C198.458 119.487 197.062 120.611 195.473 121.396Z" fill="white"/>
</g>
<path d="M198.716 113.516C198.306 114.925 198.007 116.667 198.904 117.608C197.889 118.864 196.615 119.886 195.169 120.605C194.727 120.26 194.42 119.771 194.304 119.223C194.187 118.674 194.268 118.102 194.532 117.608C196.139 117.232 196.236 115.292 196.062 114.201L198.716 113.516Z" fill="#FFB573"/>
<path opacity="0.2" d="M196.062 114.201C196.201 114.976 196.122 115.775 195.835 116.508C196.085 116.472 196.329 116.4 196.559 116.295C197.481 115.876 197.978 115.219 198.523 114.249C198.581 113.998 198.644 113.767 198.716 113.516L196.062 114.201Z" fill="black"/>
<path d="M193.779 112.921C193.85 113.136 193.967 113.333 194.12 113.499C194.273 113.665 194.459 113.797 194.667 113.887C195.231 114.128 195.632 113.612 195.593 113.018C195.555 112.424 195.203 111.71 194.585 111.72C194.444 111.726 194.307 111.765 194.184 111.834C194.061 111.903 193.956 112 193.878 112.117C193.799 112.234 193.749 112.367 193.732 112.507C193.715 112.647 193.731 112.789 193.779 112.921Z" fill="#FFB573"/>
<path opacity="0.2" d="M193.779 112.921C193.85 113.136 193.967 113.333 194.12 113.499C194.273 113.665 194.459 113.797 194.667 113.887C195.231 114.128 195.632 113.612 195.593 113.018C195.555 112.424 195.203 111.71 194.585 111.72C194.444 111.726 194.307 111.765 194.184 111.834C194.061 111.903 193.956 112 193.878 112.117C193.799 112.234 193.749 112.367 193.732 112.507C193.715 112.647 193.731 112.789 193.779 112.921Z" fill="black"/>
<path d="M196.013 109.597C195.83 108.337 194.43 109.78 194.271 110.702C194.112 111.623 194.884 112.555 195.41 111.667C195.936 110.779 196.105 110.277 196.013 109.597Z" fill="#263238"/>
<path d="M199.826 111.784C199.223 113.652 198.962 114.762 197.78 115.567C197.422 115.841 196.993 116.006 196.545 116.043C196.096 116.08 195.646 115.987 195.248 115.776C194.851 115.564 194.522 115.243 194.302 114.85C194.082 114.457 193.979 114.009 194.006 113.56C194.054 111.794 195.034 109.038 197.032 108.604C199.03 108.17 200.449 109.917 199.826 111.784Z" fill="#FFB573"/>
<path d="M198.914 113.738C198.19 113.255 198.06 113.072 198.431 112.637C199.059 111.933 198.127 111.831 198.619 110.958C199.305 109.742 197.119 110.596 197.08 109.713C197.046 108.994 195.15 110.287 194.952 109.457C194.667 108.212 196.491 108.444 196.81 107.836C197.128 107.228 199.001 107.136 199.3 108.024C199.599 108.912 200.54 108.202 201.153 109.283C201.766 110.364 200.497 110.446 201.11 111.498C201.592 112.343 200.661 112.946 200 113.617C199.604 114.051 199.363 114.042 198.914 113.738Z" fill="#263238"/>
<path d="M200.236 113.753C199.923 114.136 199.479 114.388 198.991 114.462C198.354 114.549 198.18 113.979 198.479 113.405C198.778 112.831 199.396 112.266 199.975 112.44C200.554 112.614 200.627 113.275 200.236 113.753Z" fill="#FFB573"/>
<path d="M196.897 111.821C196.858 111.975 196.747 112.081 196.651 112.067C196.554 112.052 196.506 111.912 196.545 111.758C196.583 111.604 196.694 111.493 196.796 111.512C196.897 111.531 196.94 111.666 196.897 111.821Z" fill="#263238"/>
<path d="M195.207 111.522C195.164 111.677 195.053 111.787 194.956 111.768C194.86 111.749 194.812 111.614 194.85 111.459C194.889 111.305 195.005 111.199 195.101 111.213C195.198 111.228 195.246 111.368 195.207 111.522Z" fill="#263238"/>
<path d="M195.724 111.696C195.423 112.135 195.068 112.534 194.667 112.883C194.753 112.976 194.859 113.048 194.977 113.093C195.095 113.138 195.222 113.156 195.347 113.144L195.724 111.696Z" fill="#ED893E"/>
<path d="M195.671 113.648C195.665 113.647 195.66 113.645 195.655 113.641C195.65 113.638 195.646 113.634 195.643 113.628C195.641 113.623 195.639 113.618 195.639 113.612C195.638 113.606 195.639 113.6 195.642 113.595C195.644 113.583 195.651 113.572 195.661 113.565C195.671 113.558 195.683 113.555 195.695 113.556C195.888 113.59 196.086 113.581 196.275 113.528C196.463 113.475 196.638 113.381 196.785 113.252C196.79 113.248 196.794 113.245 196.8 113.243C196.805 113.24 196.811 113.239 196.817 113.239C196.823 113.239 196.828 113.24 196.834 113.243C196.839 113.245 196.844 113.248 196.848 113.252C196.852 113.256 196.856 113.261 196.858 113.267C196.86 113.272 196.861 113.278 196.861 113.284C196.861 113.289 196.86 113.295 196.858 113.301C196.856 113.306 196.852 113.311 196.848 113.315C196.69 113.457 196.502 113.56 196.298 113.618C196.094 113.676 195.879 113.686 195.671 113.648Z" fill="#263238"/>
<path d="M197.553 111.348C197.54 111.346 197.527 111.341 197.517 111.332C197.507 111.324 197.499 111.313 197.495 111.3C197.455 111.198 197.39 111.107 197.305 111.037C197.221 110.967 197.12 110.92 197.012 110.899C197.001 110.898 196.99 110.895 196.98 110.889C196.97 110.884 196.962 110.876 196.955 110.867C196.948 110.858 196.943 110.848 196.941 110.837C196.938 110.826 196.938 110.814 196.94 110.803C196.944 110.779 196.958 110.757 196.977 110.742C196.997 110.727 197.021 110.719 197.046 110.721C197.183 110.741 197.312 110.796 197.421 110.88C197.53 110.965 197.615 111.076 197.669 111.204C197.677 111.227 197.676 111.252 197.666 111.274C197.656 111.297 197.638 111.315 197.615 111.324C197.607 111.332 197.597 111.339 197.587 111.343C197.576 111.347 197.564 111.349 197.553 111.348Z" fill="#263238"/>
<path d="M194.605 110.776C194.593 110.779 194.582 110.779 194.571 110.776C194.562 110.768 194.556 110.758 194.551 110.748C194.546 110.737 194.544 110.725 194.544 110.714C194.544 110.702 194.546 110.69 194.551 110.679C194.556 110.669 194.562 110.659 194.571 110.651C194.665 110.536 194.785 110.444 194.92 110.383C195.056 110.322 195.204 110.293 195.353 110.299C195.364 110.3 195.375 110.304 195.385 110.31C195.395 110.316 195.403 110.324 195.41 110.334C195.417 110.343 195.422 110.354 195.424 110.365C195.427 110.377 195.427 110.388 195.425 110.4C195.42 110.424 195.407 110.446 195.387 110.461C195.368 110.476 195.343 110.484 195.319 110.482C195.201 110.48 195.084 110.504 194.977 110.554C194.87 110.603 194.776 110.676 194.701 110.767C194.687 110.777 194.671 110.783 194.654 110.784C194.637 110.786 194.62 110.783 194.605 110.776Z" fill="#263238"/>
<path d="M203.344 120.841L200.661 121.864C200.661 121.864 202.297 128.268 201.766 129.127C201.042 130.3 199.754 132.915 198.658 134.151C198.706 134.616 198.885 135.058 199.175 135.425C201.341 134.46 204.357 130.599 204.623 129.407C205.216 126.681 203.344 120.841 203.344 120.841Z" fill="#FFB573"/>
<path d="M202.861 118.15C204.575 118.695 205.043 125.224 205.043 125.224L200.555 125.919C200.129 124.375 199.816 122.803 199.619 121.214C199.339 118.782 201.018 117.566 202.861 118.15Z" fill="#58B368"/>
<path opacity="0.3" d="M202.861 118.15C204.575 118.695 205.043 125.224 205.043 125.224L200.555 125.919C200.129 124.375 199.816 122.803 199.619 121.214C199.339 118.782 201.018 117.566 202.861 118.15Z" fill="black"/>
<path d="M199.585 134.044L197.813 133.677L198.325 135.796C198.325 135.796 199.889 136.066 200.419 134.888L199.585 134.044Z" fill="#FFB573"/>
<path d="M196.153 134.406L196.713 136.293L198.325 135.796L197.813 133.677L196.153 134.406Z" fill="#FFB573"/>
<path d="M164.467 93.0741C170.616 87.1327 171.102 77.6615 165.553 71.9196C160.004 66.1777 150.522 66.3394 144.374 72.2808C138.225 78.2222 137.739 87.6934 143.288 93.4353C148.837 99.1773 158.319 99.0155 164.467 93.0741Z" fill="#58B368"/>
<path d="M163.937 92.5251C169.762 86.8967 170.222 77.9247 164.966 72.4856C159.71 67.0465 150.728 67.2 144.903 72.8284C139.079 78.4568 138.618 87.4288 143.875 92.8679C149.131 98.307 158.113 98.1535 163.937 92.5251Z" fill="white"/>
<path d="M160.35 86.0195C160.423 87.1681 160.481 88.3262 160.524 89.4796L160.664 92.9252L160.688 93.345L160.722 93.7118C160.761 93.9627 160.79 94.2233 160.843 94.4935C160.944 95.0244 161.074 95.5648 161.229 96.1053C161.518 97.1911 161.871 98.2866 162.194 99.3675L161.195 99.8501C160.591 98.8276 160.057 97.7651 159.598 96.6699C159.376 96.115 159.168 95.5504 158.99 94.9568C158.894 94.6556 158.815 94.3496 158.753 94.0399L158.671 93.5573L158.623 93.1134C158.367 90.7777 158.198 88.4758 158.106 86.1547L160.35 86.0195Z" fill="#FF8B7B"/>
<path d="M159.82 83.4829C160.698 83.7097 161.075 87.4062 161.075 87.4062L157.499 89.7564C157.499 89.7564 156.384 85.3794 157.142 84.395C157.899 83.4105 158.532 83.1548 159.82 83.4829Z" fill="#58B368"/>
<path opacity="0.2" d="M159.68 84.3164L160.115 88.037L158.662 88.9829L159.68 84.3164Z" fill="black"/>
<path d="M162.223 99.1172L163.188 101.168L161.287 101.221C161.287 101.221 160.732 99.7735 161.321 99.0352L162.223 99.1172Z" fill="#FFB573"/>
<path d="M150.019 73.968C148.509 74.1852 145.348 81.4045 150.502 84.7729C155.656 88.1412 159.458 84.3144 159.458 84.3144C159.458 84.3144 156.322 80.5889 156.775 78.1568C157.229 75.7246 159.188 72.6603 155.173 71.6372C152.345 70.9375 148.543 71.6131 150.019 73.968Z" fill="#263238"/>
<path d="M163.276 102.177L161.664 102.042L161.307 101.217L163.213 101.164L163.276 102.177Z" fill="#FFB573"/>
<path d="M159.821 83.4832C159.821 83.4832 160.829 83.8499 157.89 96.6285H149.035C149.431 93.0285 149.585 90.8086 148.369 83.4204C149.62 83.1691 150.888 83.0079 152.162 82.9379C153.499 82.8436 154.841 82.8436 156.177 82.9379C157.89 83.0875 159.821 83.4832 159.821 83.4832Z" fill="#58B368"/>
<path opacity="0.2" d="M148.9 86.3516C149.686 86.5494 150.347 87.4229 150.169 89.0347C150.063 89.7768 149.76 90.4769 149.291 91.0615C149.238 89.8213 149.098 88.3832 148.847 86.5446L148.9 86.3516Z" fill="black"/>
<path d="M155.516 85.7599C155.516 85.7599 153.986 86.9567 153.899 88.2258C152.755 87.3427 151.293 84.9395 151.23 83.4001C151.23 83.2721 151.281 83.1494 151.372 83.0589C151.462 82.9684 151.585 82.9175 151.713 82.9175C151.822 82.9094 151.93 82.8949 152.036 82.8741C152.081 82.8643 152.127 82.8649 152.172 82.8758C152.216 82.8867 152.257 82.9075 152.292 82.9368L155.516 85.7599Z" fill="#FAFAFA"/>
<path d="M155.516 85.7602C155.922 86.0137 156.262 86.3613 156.507 86.7737C156.751 87.186 156.893 87.6511 156.92 88.1296C158.204 87.2368 157.764 84.5682 157.171 83.2604C157.125 83.1587 157.053 83.0708 156.962 83.0056C156.872 82.9404 156.766 82.9001 156.654 82.8889C156.481 82.8889 156.346 82.8454 156.254 82.8261C156.221 82.8204 156.187 82.8277 156.159 82.8466C156.131 82.8655 156.111 82.8945 156.104 82.9275L155.516 85.7602Z" fill="#FAFAFA"/>
<path d="M152.867 78.4072C153.031 79.7005 153.122 82.07 152.162 82.9289C153.063 84.1041 154.207 85.0705 155.516 85.7617C157.408 84.3139 156.177 82.9289 156.177 82.9289C154.758 82.5863 154.869 81.5198 155.188 80.5161L152.867 78.4072Z" fill="#FF8B7B"/>
<path opacity="0.2" d="M153.812 79.2695L155.187 80.5146C155.109 80.7472 155.05 80.9862 155.013 81.2288C154.468 81.1468 153.638 80.6787 153.565 80.0803C153.583 79.7945 153.667 79.5168 153.812 79.2695Z" fill="black"/>
<path d="M150.844 76.3304C151.298 78.4103 151.447 79.2982 152.692 80.1427C153.109 80.4383 153.597 80.6183 154.106 80.6642C154.616 80.7101 155.128 80.6205 155.591 80.4043C156.054 80.1881 156.452 79.8531 156.744 79.4334C157.036 79.0136 157.211 78.5241 157.253 78.0146C157.421 76.0215 156.649 72.9572 154.43 72.5808C153.926 72.5022 153.411 72.5465 152.928 72.7099C152.446 72.8733 152.01 73.151 151.658 73.5193C151.305 73.8876 151.048 74.3355 150.906 74.825C150.764 75.3145 150.743 75.8309 150.844 76.3304Z" fill="#FF8B7B"/>
<path d="M151.437 78.2046C152.774 76.9306 152.822 75.3526 152.485 74.8604C153.633 74.7638 156.606 74.04 156.128 72.9301C155.65 71.8201 151.022 71.2217 150.385 74.0593C148.851 75.3429 149.83 77.915 151.437 78.2046Z" fill="#263238"/>
<path d="M154.339 76.1445C154.368 76.3183 154.479 76.4341 154.594 76.4099C154.71 76.3858 154.778 76.2266 154.749 76.0577C154.72 75.8888 154.609 75.7633 154.498 75.7923C154.387 75.8212 154.315 75.9756 154.339 76.1445Z" fill="#263238"/>
<path d="M156.307 75.7153C156.331 75.889 156.447 76.0048 156.558 75.9807C156.669 75.9566 156.746 75.7973 156.717 75.6236C156.688 75.4498 156.577 75.334 156.466 75.3582C156.401 75.3887 156.349 75.4415 156.32 75.5071C156.291 75.5727 156.286 75.6465 156.307 75.7153Z" fill="#263238"/>
<path d="M156.413 75.3803L156.814 75.168C156.814 75.168 156.65 75.5347 156.413 75.3803Z" fill="#263238"/>
<path d="M155.747 76.1602C155.962 76.518 156.226 76.843 156.534 77.1253C156.456 77.2069 156.363 77.2714 156.259 77.3146C156.155 77.3579 156.043 77.3788 155.93 77.3762L155.747 76.1602Z" fill="#FF5652"/>
<path d="M155.086 78.2427C155.174 78.238 155.261 78.2267 155.347 78.2089C155.36 78.2055 155.372 78.1972 155.38 78.1857C155.388 78.1742 155.392 78.1601 155.39 78.1462C155.39 78.1394 155.388 78.1329 155.385 78.127C155.381 78.1211 155.377 78.1161 155.371 78.1124C155.365 78.1086 155.359 78.1062 155.352 78.1054C155.345 78.1046 155.339 78.1053 155.332 78.1076C155.123 78.1619 154.904 78.1643 154.694 78.1147C154.484 78.0651 154.289 77.9649 154.126 77.8228C154.116 77.8137 154.103 77.8086 154.09 77.8086C154.076 77.8086 154.063 77.8137 154.053 77.8228C154.048 77.8274 154.044 77.8329 154.041 77.8392C154.039 77.8454 154.037 77.8522 154.037 77.859C154.037 77.8659 154.039 77.8727 154.041 77.8789C154.044 77.8851 154.048 77.8907 154.053 77.8952C154.192 78.0224 154.355 78.1191 154.533 78.179C154.711 78.2388 154.899 78.2605 155.086 78.2427Z" fill="#263238"/>
<path d="M150.564 78.4079C150.67 78.5791 150.811 78.7264 150.977 78.8403C151.143 78.9541 151.331 79.032 151.529 79.069C152.07 79.1703 152.325 78.6685 152.166 78.1811C152.007 77.6937 151.568 77.1628 151.032 77.2835C150.915 77.3091 150.807 77.3625 150.715 77.4391C150.623 77.5158 150.551 77.6134 150.505 77.7238C150.459 77.8341 150.441 77.9539 150.451 78.073C150.461 78.1921 150.5 78.307 150.564 78.4079Z" fill="#FF8B7B"/>
<path d="M153.416 75.7639C153.438 75.7615 153.459 75.7522 153.475 75.7375C153.492 75.7228 153.503 75.7034 153.508 75.6819C153.634 75.3556 153.884 75.0921 154.203 74.9484C154.216 74.9431 154.228 74.9353 154.238 74.9253C154.248 74.9154 154.256 74.9036 154.261 74.8905C154.266 74.8775 154.269 74.8635 154.269 74.8494C154.269 74.8353 154.266 74.8214 154.261 74.8084C154.255 74.7966 154.248 74.7858 154.239 74.7769C154.229 74.768 154.218 74.7611 154.206 74.7566C154.194 74.7521 154.181 74.7501 154.168 74.7507C154.155 74.7513 154.142 74.7545 154.13 74.7602C153.941 74.8448 153.77 74.9665 153.628 75.1182C153.487 75.2699 153.377 75.4484 153.305 75.6433C153.302 75.6563 153.301 75.6699 153.303 75.6833C153.305 75.6966 153.31 75.7094 153.317 75.7207C153.324 75.7321 153.334 75.7418 153.345 75.7493C153.356 75.7567 153.369 75.7617 153.382 75.7639C153.388 75.7665 153.393 75.7678 153.399 75.7678C153.405 75.7678 153.411 75.7665 153.416 75.7639Z" fill="#263238"/>
<path d="M156.784 74.3426C156.802 74.3426 156.82 74.3383 156.836 74.3298C156.852 74.3214 156.866 74.3093 156.876 74.2944C156.894 74.2747 156.905 74.2488 156.905 74.222C156.905 74.1951 156.894 74.1692 156.876 74.1496C156.742 74.0573 156.589 73.9983 156.427 73.9773C156.266 73.9563 156.102 73.974 155.95 74.0289C155.924 74.0397 155.904 74.0594 155.892 74.0844C155.881 74.1094 155.879 74.1378 155.887 74.1641C155.892 74.177 155.899 74.1888 155.908 74.1987C155.918 74.2087 155.929 74.2166 155.942 74.222C155.955 74.2275 155.968 74.2302 155.982 74.2302C155.996 74.2302 156.009 74.2274 156.022 74.222C156.142 74.1778 156.272 74.1639 156.399 74.1816C156.526 74.1992 156.647 74.2479 156.751 74.3233L156.784 74.3426Z" fill="#263238"/>
<path d="M154.449 75.81L154.85 75.5977C154.85 75.5977 154.681 75.9692 154.449 75.81Z" fill="#263238"/>
<path d="M148.938 96.115L148.658 96.9064C148.619 96.9692 148.692 97.0319 148.793 97.0319H157.894C157.977 97.0319 158.044 96.9933 158.054 96.9402L158.184 96.1488C158.184 96.0957 158.131 96.0475 158.039 96.0475H149.088C149.059 96.0451 149.03 96.05 149.004 96.0618C148.978 96.0737 148.955 96.092 148.938 96.115Z" fill="#58B368"/>
<path opacity="0.2" d="M148.938 96.115L148.658 96.9064C148.619 96.9692 148.692 97.0319 148.793 97.0319H157.894C157.977 97.0319 158.044 96.9933 158.054 96.9402L158.184 96.1488C158.184 96.0957 158.131 96.0475 158.039 96.0475H149.088C149.059 96.0451 149.03 96.05 149.004 96.0618C148.978 96.0737 148.955 96.092 148.938 96.115Z" fill="white"/>
<path d="M150.101 97.1106H149.86C149.812 97.1106 149.778 97.0865 149.783 97.0575L149.966 96.0296C149.966 96.0007 150.014 95.9766 150.063 95.9766H150.304C150.352 95.9766 150.386 96.0007 150.381 96.0296L150.198 97.0575C150.193 97.0865 150.149 97.1106 150.101 97.1106Z" fill="#58B368"/>
<path opacity="0.4" d="M150.101 97.1106H149.86C149.812 97.1106 149.778 97.0865 149.783 97.0575L149.966 96.0296C149.966 96.0007 150.014 95.9766 150.063 95.9766H150.304C150.352 95.9766 150.386 96.0007 150.381 96.0296L150.198 97.0575C150.193 97.0865 150.149 97.1106 150.101 97.1106Z" fill="black"/>
<path d="M157.214 97.1106H156.973C156.925 97.1106 156.891 97.0865 156.896 97.0575L157.079 96.0296C157.079 96.0007 157.128 95.9766 157.176 95.9766H157.417C157.465 95.9766 157.499 96.0007 157.494 96.0296L157.311 97.0575C157.306 97.0865 157.263 97.1106 157.214 97.1106Z" fill="#58B368"/>
<path opacity="0.4" d="M157.214 97.1106H156.973C156.925 97.1106 156.891 97.0865 156.896 97.0575L157.079 96.0296C157.079 96.0007 157.128 95.9766 157.176 95.9766H157.417C157.465 95.9766 157.499 96.0007 157.494 96.0296L157.311 97.0575C157.306 97.0865 157.263 97.1106 157.214 97.1106Z" fill="black"/>
<path d="M153.672 97.1106H153.431C153.383 97.1106 153.349 97.0865 153.354 97.0575L153.537 96.0296C153.537 96.0007 153.586 95.9766 153.634 95.9766H153.875C153.923 95.9766 153.957 96.0007 153.952 96.0296L153.769 97.0575C153.764 97.0865 153.721 97.1106 153.672 97.1106Z" fill="#58B368"/>
<path opacity="0.4" d="M153.672 97.1106H153.431C153.383 97.1106 153.349 97.0865 153.354 97.0575L153.537 96.0296C153.537 96.0007 153.586 95.9766 153.634 95.9766H153.875C153.923 95.9766 153.957 96.0007 153.952 96.0296L153.769 97.0575C153.764 97.0865 153.721 97.1106 153.672 97.1106Z" fill="black"/>
<path d="M154.227 98.3948L156.442 97.4297L155.684 99.5578C155.684 99.5578 154.299 99.8715 153.754 99.1863L154.227 98.3948Z" fill="#FFB573"/>
<path d="M149.353 86.3794C149.102 87.8271 148.817 89.3183 148.528 90.7853C148.388 91.5188 148.229 92.233 148.074 92.981L147.847 94.0764L147.746 94.559C147.734 94.5934 147.734 94.6308 147.746 94.6652C147.825 94.8685 147.951 95.0504 148.113 95.196C148.337 95.4149 148.583 95.6105 148.846 95.7799C149.438 96.1568 150.055 96.4906 150.695 96.7789C151.346 97.0829 152.022 97.3628 152.707 97.6185C153.392 97.8743 154.092 98.1011 154.782 98.3521L154.531 99.4282C153.017 99.1801 151.527 98.8023 150.077 98.299C149.325 98.041 148.597 97.7181 147.901 97.3338C147.523 97.1233 147.166 96.8777 146.834 96.6003C146.411 96.2668 146.079 95.8319 145.869 95.336C145.751 95.0286 145.705 94.6986 145.734 94.3708C145.758 94.1633 145.768 94.1199 145.782 94.0185L145.825 93.7386L145.994 92.6336C146.115 91.8952 146.221 91.1569 146.351 90.4185C146.598 88.9467 146.834 87.4748 147.138 86.0078L149.353 86.3794Z" fill="#FF8B7B"/>
<path d="M148.369 83.4263C147.466 83.6966 146.192 86.7464 146.192 86.7464L149.088 89.9362C149.088 89.9362 150.902 86.6547 150.613 85.511C150.323 84.3673 149.401 83.1175 148.369 83.4263Z" fill="#58B368"/>
<path d="M158.189 97.8776L157.46 99.6293L155.685 99.5617L156.442 97.4336L158.189 97.8776Z" fill="#FFB573"/>
<path opacity="0.3" d="M143.175 45.7699H177.766C178.088 45.7648 178.397 45.6399 178.631 45.4195C178.866 45.199 179.01 44.8989 179.035 44.5779C179.048 44.4253 179.029 44.2717 178.979 44.127C178.928 43.9823 178.848 43.8498 178.744 43.7379C178.639 43.6261 178.512 43.5374 178.371 43.4776C178.23 43.4178 178.079 43.3882 177.925 43.3908H143.339C143.018 43.3956 142.709 43.5197 142.474 43.739C142.238 43.9584 142.093 44.2573 142.065 44.5779C142.053 44.7307 142.072 44.8845 142.122 45.0295C142.172 45.1744 142.252 45.3072 142.357 45.4195C142.461 45.5317 142.588 45.6209 142.729 45.6812C142.87 45.7415 143.022 45.7717 143.175 45.7699Z" fill="#58B368"/>
<path opacity="0.3" d="M152.731 51.0003H177.395C177.717 50.9943 178.026 50.8692 178.261 50.6491C178.497 50.4289 178.642 50.1294 178.669 49.8084C178.682 49.6558 178.663 49.5022 178.613 49.3575C178.562 49.2128 178.482 49.0803 178.378 48.9684C178.273 48.8565 178.146 48.7679 178.005 48.7081C177.864 48.6483 177.712 48.6187 177.559 48.6212H152.895C152.573 48.6261 152.265 48.7502 152.029 48.9695C151.794 49.1889 151.648 49.4878 151.621 49.8084C151.608 49.9612 151.628 50.115 151.678 50.2599C151.728 50.4049 151.808 50.5377 151.912 50.65C152.017 50.7622 152.144 50.8513 152.285 50.9117C152.426 50.972 152.578 51.0022 152.731 51.0003Z" fill="#58B368"/>
<path d="M158.493 40.5361H178.114C178.436 40.5323 178.744 40.4084 178.979 40.1887C179.214 39.9691 179.358 39.6695 179.383 39.349C179.396 39.1965 179.377 39.0431 179.327 38.8986C179.277 38.754 179.198 38.6214 179.094 38.5092C178.99 38.397 178.864 38.3078 178.723 38.2471C178.583 38.1865 178.431 38.1558 178.278 38.157H158.657C158.335 38.162 158.026 38.287 157.792 38.5074C157.557 38.7279 157.413 39.0279 157.388 39.349C157.375 39.5012 157.394 39.6543 157.444 39.7987C157.494 39.943 157.573 40.0753 157.677 40.1871C157.782 40.2989 157.908 40.3877 158.048 40.4478C158.189 40.5079 158.34 40.538 158.493 40.5361Z" fill="white"/>
<path opacity="0.3" d="M158.536 122.203H172.53C172.683 122.201 172.835 122.23 172.976 122.29C173.117 122.35 173.244 122.439 173.349 122.55C173.453 122.662 173.533 122.795 173.584 122.94C173.634 123.084 173.653 123.238 173.64 123.39C173.615 123.712 173.47 124.013 173.234 124.234C172.999 124.454 172.689 124.579 172.366 124.582H158.372C158.218 124.584 158.066 124.554 157.925 124.494C157.784 124.433 157.657 124.344 157.553 124.232C157.448 124.12 157.368 123.987 157.318 123.842C157.268 123.697 157.249 123.543 157.262 123.39C157.288 123.069 157.433 122.77 157.669 122.55C157.905 122.331 158.214 122.207 158.536 122.203Z" fill="#58B368"/>
<path opacity="0.3" d="M139.585 122.203H153.58C153.733 122.201 153.885 122.23 154.026 122.29C154.167 122.35 154.294 122.439 154.399 122.55C154.503 122.662 154.583 122.795 154.633 122.94C154.684 123.084 154.703 123.238 154.69 123.39C154.663 123.711 154.517 124.011 154.282 124.231C154.047 124.451 153.738 124.576 153.416 124.582H139.421C139.268 124.584 139.116 124.554 138.975 124.494C138.834 124.433 138.707 124.344 138.603 124.232C138.498 124.12 138.418 123.987 138.368 123.842C138.318 123.697 138.299 123.543 138.311 123.39C138.337 123.069 138.482 122.769 138.718 122.549C138.953 122.329 139.263 122.206 139.585 122.203Z" fill="#58B368"/>
<path opacity="0.3" d="M148.214 116.969H172.878C173.031 116.966 173.183 116.996 173.324 117.056C173.465 117.115 173.592 117.204 173.697 117.316C173.801 117.428 173.881 117.56 173.932 117.705C173.982 117.85 174.001 118.003 173.988 118.156C173.963 118.477 173.819 118.777 173.584 118.998C173.349 119.218 173.041 119.343 172.719 119.348H148.05C147.897 119.35 147.745 119.32 147.604 119.259C147.463 119.199 147.337 119.11 147.233 118.997C147.128 118.885 147.049 118.752 146.999 118.607C146.95 118.462 146.931 118.309 146.945 118.156C146.97 117.835 147.114 117.536 147.349 117.316C147.584 117.097 147.892 116.973 148.214 116.969Z" fill="#58B368"/>
<path d="M144.952 111.734H173.231C173.384 111.733 173.536 111.763 173.676 111.823C173.817 111.883 173.944 111.973 174.048 112.085C174.152 112.197 174.231 112.33 174.281 112.475C174.331 112.62 174.349 112.774 174.336 112.926C174.31 113.247 174.166 113.547 173.931 113.766C173.697 113.986 173.388 114.11 173.067 114.114H144.802C144.649 114.116 144.497 114.087 144.356 114.027C144.215 113.967 144.088 113.878 143.984 113.766C143.879 113.655 143.799 113.522 143.749 113.377C143.699 113.233 143.679 113.079 143.692 112.926C143.717 112.607 143.86 112.308 144.093 112.088C144.325 111.868 144.632 111.742 144.952 111.734Z" fill="white"/>
<path opacity="0.3" d="M203.729 86.719H177.96C177.638 86.724 177.329 86.8489 177.094 87.0694C176.86 87.2898 176.716 87.5899 176.69 87.9109C176.678 88.0631 176.697 88.2163 176.747 88.3606C176.797 88.505 176.876 88.6373 176.98 88.7491C177.084 88.8609 177.211 88.9497 177.351 89.0098C177.491 89.0699 177.643 89.0999 177.795 89.0981H203.565C203.886 89.0942 204.195 88.9703 204.43 88.7507C204.665 88.531 204.809 88.2315 204.834 87.9109C204.848 87.7583 204.829 87.6046 204.779 87.4597C204.73 87.3148 204.65 87.1819 204.546 87.0695C204.442 86.9572 204.316 86.868 204.175 86.8076C204.034 86.7472 203.882 86.717 203.729 86.719Z" fill="#58B368"/>
<path opacity="0.3" d="M190.478 81.4878H178.317C177.995 81.4928 177.686 81.6177 177.452 81.8382C177.217 82.0586 177.073 82.3587 177.048 82.6797C177.035 82.8323 177.054 82.9859 177.104 83.1306C177.155 83.2753 177.235 83.4078 177.339 83.5197C177.444 83.6316 177.571 83.7202 177.712 83.78C177.853 83.8398 178.005 83.8694 178.158 83.8668H190.314C190.635 83.862 190.944 83.7379 191.179 83.5186C191.415 83.2992 191.56 83.0003 191.588 82.6797C191.601 82.5269 191.581 82.3731 191.531 82.2281C191.481 82.0832 191.401 81.9504 191.297 81.8381C191.192 81.7259 191.065 81.6368 190.924 81.5764C190.783 81.5161 190.631 81.4859 190.478 81.4878Z" fill="#58B368"/>
<path d="M197.595 76.2466H178.678C178.357 76.2514 178.048 76.3755 177.813 76.5949C177.577 76.8142 177.432 77.1132 177.404 77.4337C177.391 77.5866 177.411 77.7404 177.461 77.8853C177.511 78.0302 177.591 78.1631 177.695 78.2753C177.8 78.3876 177.927 78.4767 178.068 78.537C178.209 78.5974 178.361 78.6276 178.514 78.6257H197.436C197.758 78.6218 198.067 78.4972 198.302 78.2765C198.537 78.0559 198.681 77.7552 198.705 77.4337C198.718 77.2811 198.699 77.1275 198.648 76.9829C198.598 76.8382 198.518 76.7056 198.414 76.5938C198.309 76.4819 198.182 76.3932 198.041 76.3334C197.9 76.2736 197.748 76.2441 197.595 76.2466Z" fill="white"/>
<path opacity="0.3" d="M212.898 81.4878H195.622C195.299 81.4937 194.991 81.6189 194.756 81.839C194.52 82.0592 194.375 82.3587 194.348 82.6797C194.335 82.8323 194.354 82.9859 194.404 83.1306C194.454 83.2753 194.534 83.4078 194.639 83.5197C194.744 83.6316 194.87 83.7202 195.011 83.78C195.152 83.8398 195.304 83.8694 195.458 83.8668H212.734C213.055 83.862 213.364 83.7379 213.599 83.5186C213.835 83.2992 213.98 83.0003 214.008 82.6797C214.02 82.5269 214.001 82.3731 213.951 82.2281C213.901 82.0832 213.821 81.9504 213.716 81.8381C213.612 81.7259 213.485 81.6368 213.344 81.5764C213.203 81.5161 213.051 81.4859 212.898 81.4878Z" fill="#58B368"/>
<path opacity="0.3" d="M135.208 32.139H148.131L147.446 20.6875L135.208 32.139Z" fill="#58B368"/>
<path d="M135.208 32.139L149.043 30.4837L147.446 20.6875L135.208 32.139Z" fill="#58B368"/>
<path d="M83.076 66.0606C82.6658 67.0258 82.2122 68.0971 81.8117 69.1298C81.4111 70.1625 81.0009 71.2193 80.6293 72.2665C79.8736 74.3148 79.253 76.4105 78.7714 78.54C78.7039 78.8006 78.6701 79.0563 78.6218 79.3121L78.5543 79.6981L78.5012 80.0022C78.4534 80.4316 78.4437 80.8644 78.4722 81.2955C78.5554 82.35 78.6988 83.3989 78.9017 84.437C79.3167 86.6038 79.8669 88.8477 80.4122 91.0483L77.9607 92.0858C76.7428 90.0031 75.7156 87.8146 74.8915 85.5469C74.4509 84.3548 74.1103 83.128 73.8733 81.8794C73.732 81.1612 73.6689 80.4299 73.6851 79.6981V79.3845C73.6851 79.2831 73.6851 79.2204 73.6851 79.1335L73.7334 78.651C73.7671 78.3373 73.7864 78.014 73.8395 77.6858C74.1972 75.2522 74.7606 72.8532 75.5237 70.5148C75.9001 69.3614 76.2862 68.2225 76.735 67.1078C77.1838 65.9931 77.6181 64.8976 78.1827 63.7539L83.076 66.0606Z" fill="#7F3E3B"/>
<path d="M80.3301 90.4531L82.2122 92.2869L78.1055 94.2172C78.1055 94.2172 77.1114 92.4799 77.7966 90.9067L80.3301 90.4531Z" fill="#7F3E3B"/>
<path d="M83.7275 95.0213L80.2626 96.4401L78.1055 94.1961L82.2122 92.2852L83.7275 95.0213Z" fill="#7F3E3B"/>
<path d="M173.325 84.4648C178.747 71.3752 172.531 56.3687 159.442 50.9468C146.352 45.5249 131.346 51.7408 125.924 64.8304C120.502 77.92 126.718 92.9266 139.807 98.3485C152.897 103.77 167.903 97.5544 173.325 84.4648Z" fill="#58B368"/>
<path d="M149.623 98.9525C163.045 98.9525 173.925 88.0719 173.925 74.6501C173.925 61.2282 163.045 50.3477 149.623 50.3477C136.201 50.3477 125.32 61.2282 125.32 74.6501C125.32 88.0719 136.201 98.9525 149.623 98.9525Z" fill="white"/>
<path d="M160.172 80.2422C160.442 82.2304 160.655 84.2282 160.891 86.2213L161.547 92.1714L161.634 92.8856L161.735 93.5274L161.875 94.1934L162.044 94.8738C162.295 95.7859 162.58 96.7124 162.898 97.639C163.516 99.4969 164.24 101.36 164.949 103.213L163.289 104.11C162.151 102.395 161.122 100.609 160.211 98.7634C159.762 97.8272 159.332 96.8765 158.966 95.8679L158.695 95.1055L158.454 94.3092C158.382 94.0341 158.319 93.7494 158.251 93.4695L158.102 92.6974C157.73 90.6803 157.426 88.692 157.137 86.6942C156.847 84.6963 156.591 82.6985 156.379 80.691L160.172 80.2422Z" fill="#FF8B7B"/>
<path d="M158.97 76.0382C160.51 76.4291 161.586 82.7653 161.586 82.7653L155.703 86.7658C155.703 86.7658 153.29 79.257 154.463 77.568C155.698 75.8066 156.726 75.4688 158.97 76.0382Z" fill="#58B368"/>
<path opacity="0.2" d="M158.835 77.4531L160.018 83.8376L157.634 85.4542L158.835 77.4531Z" fill="black"/>
<path d="M164.93 102.836L166.86 106.349L163.598 106.436C163.598 106.436 162.479 103.936 163.405 102.691L164.93 102.836Z" fill="#FFB573"/>
<path d="M141.048 59.7174C138.49 60.0889 133.911 72.4669 143.152 78.2434C152.393 84.0198 158.464 77.4568 158.464 77.4568C158.464 77.4568 152.649 71.0627 153.156 66.8932C153.663 62.7238 156.65 57.4686 149.643 55.7168C144.677 54.4766 138.244 55.6734 141.048 59.7174Z" fill="#263238"/>
<path d="M167.096 108.09L164.312 107.858L163.607 106.435L166.87 106.348L167.096 108.09Z" fill="#FFB573"/>
<path d="M158.971 76.0372C158.971 76.0372 160.752 76.6645 157.19 98.5734H142.023C142.279 92.4013 142.283 88.5986 139.335 75.931C141.457 75.4904 143.609 75.2065 145.773 75.0817C148.065 74.915 150.366 74.915 152.659 75.0817C155.617 75.3519 158.971 76.0372 158.971 76.0372Z" fill="#58B368"/>
<path opacity="0.2" d="M140.609 80.9453C141.984 81.2879 143.253 82.7839 143.099 85.5442C143.015 86.7988 142.576 88.0038 141.834 89.0188C141.593 86.8954 141.183 84.4343 140.541 81.2976L140.609 80.9453Z" fill="black"/>
<path d="M151.862 79.9369C151.862 79.9369 149.377 81.983 149.377 84.1594C147.311 82.649 144.527 78.5278 144.232 75.893C144.223 75.7867 144.236 75.6796 144.269 75.5782C144.302 75.4768 144.355 75.3832 144.426 75.303C144.496 75.2227 144.582 75.1575 144.678 75.1113C144.774 75.0651 144.879 75.0388 144.985 75.034C145.17 75.0238 145.354 74.9996 145.535 74.9616C145.613 74.9451 145.693 74.9465 145.77 74.9658C145.847 74.985 145.919 75.0215 145.979 75.0726L151.862 79.9369Z" fill="#FAFAFA"/>
<path d="M151.862 79.9356C152.587 80.3666 153.204 80.9553 153.67 81.6579C154.135 82.3606 154.436 83.1591 154.55 83.994C156.64 82.4643 155.573 77.8895 154.41 75.6503C154.319 75.476 154.186 75.3268 154.024 75.2157C153.862 75.1047 153.674 75.0352 153.479 75.0133C153.17 74.9747 152.938 74.9361 152.784 74.9024C152.756 74.8968 152.727 74.8972 152.699 74.9033C152.671 74.9094 152.645 74.9212 152.622 74.938C152.599 74.9547 152.58 74.9761 152.565 75.0007C152.551 75.0253 152.541 75.0526 152.538 75.0809L151.862 79.9356Z" fill="#FAFAFA"/>
<path d="M146.457 67.3275C146.891 69.5425 147.325 73.601 145.771 75.0825C147.454 77.0937 149.526 78.7449 151.862 79.9372C154.936 77.4857 152.658 75.0825 152.658 75.0825C150.187 74.4937 150.245 72.6696 150.684 70.9372L146.457 67.3275Z" fill="#FF8B7B"/>
<path opacity="0.2" d="M148.181 68.8008L150.68 70.9386C150.575 71.3388 150.504 71.7472 150.468 72.1595C149.527 72.0244 148.055 71.2185 147.838 70.1906C147.836 69.7062 147.954 69.2287 148.181 68.8008Z" fill="black"/>
<path d="M142.741 63.7704C143.764 67.3318 144.121 68.8567 146.36 70.3093C149.738 72.4857 153.874 70.4492 153.932 66.6514C153.985 63.2347 152.301 57.965 148.45 57.3329C147.601 57.1854 146.728 57.2575 145.914 57.5423C145.1 57.8271 144.373 58.3151 143.801 58.9601C143.229 59.6051 142.831 60.3856 142.646 61.2275C142.46 62.0694 142.493 62.9447 142.741 63.7704Z" fill="#FF8B7B"/>
<path d="M143.987 66.9777C146.134 64.7868 146.028 62.0844 145.391 61.2399C147.35 61.0758 152.364 59.8356 151.414 57.9391C150.463 56.0426 142.462 55.0099 141.7 59.8694C139.214 62.0651 141.193 66.4807 143.987 66.9777Z" fill="#263238"/>
<path d="M148.711 63.4469C148.779 63.7413 148.986 63.9295 149.194 63.9005C149.401 63.8716 149.488 63.5869 149.426 63.2925C149.363 62.9981 149.151 62.8099 148.943 62.8389C148.736 62.8678 148.649 63.1525 148.711 63.4469Z" fill="#263238"/>
<path d="M152.036 62.7328C152.104 63.0271 152.311 63.2153 152.519 63.1864C152.726 63.1574 152.813 62.8727 152.746 62.5783C152.678 62.2839 152.471 62.0957 152.263 62.1199C152.056 62.144 151.973 62.4142 152.036 62.7328Z" fill="#263238"/>
<path d="M152.19 62.136L152.852 61.774C152.852 61.774 152.605 62.4062 152.19 62.136Z" fill="#263238"/>
<path d="M151.129 63.4688C151.534 64.0791 152.022 64.6311 152.577 65.1095C152.451 65.2499 152.296 65.3612 152.122 65.4354C151.949 65.5095 151.761 65.5449 151.573 65.539L151.129 63.4688Z" fill="#FF5652"/>
<path d="M150.26 67.0485C150.409 67.0385 150.558 67.0175 150.704 66.9858C150.727 66.9801 150.746 66.9659 150.759 66.9461C150.771 66.9264 150.776 66.9026 150.772 66.8796C150.766 66.857 150.752 66.8373 150.732 66.8248C150.712 66.8122 150.688 66.8077 150.665 66.8121C150.301 66.9005 149.922 66.903 149.556 66.8192C149.191 66.7354 148.851 66.5678 148.561 66.3295C148.544 66.3136 148.522 66.3047 148.499 66.3047C148.475 66.3047 148.453 66.3136 148.436 66.3295C148.428 66.3376 148.421 66.3474 148.416 66.3581C148.412 66.3689 148.409 66.3805 148.409 66.3922C148.409 66.404 148.412 66.4156 148.416 66.4264C148.421 66.4371 148.428 66.4469 148.436 66.455C148.685 66.6703 148.975 66.8337 149.288 66.9356C149.601 67.0375 149.932 67.0759 150.26 67.0485Z" fill="#263238"/>
<path d="M142.505 67.3233C142.704 67.6168 142.96 67.8681 143.256 68.0627C143.553 68.2573 143.885 68.3914 144.233 68.4574C145.169 68.6311 145.55 67.7769 145.198 66.9373C144.899 66.1845 144.054 65.1903 143.152 65.393C142.957 65.4452 142.778 65.5448 142.632 65.6829C142.485 65.821 142.374 65.9934 142.31 66.1845C142.246 66.3757 142.231 66.5797 142.265 66.7784C142.299 66.9772 142.381 67.1644 142.505 67.3233Z" fill="#FF8B7B"/>
<path d="M147.085 62.8006C147.121 62.7961 147.155 62.7802 147.182 62.755C147.209 62.7299 147.227 62.6968 147.234 62.6607C147.321 62.3851 147.464 62.1305 147.654 61.9129C147.845 61.6953 148.078 61.5194 148.339 61.3963C148.361 61.387 148.38 61.3733 148.397 61.3562C148.413 61.3391 148.425 61.3189 148.433 61.2967C148.442 61.2746 148.445 61.2511 148.444 61.2276C148.443 61.204 148.437 61.181 148.426 61.1599C148.416 61.1387 148.402 61.1196 148.385 61.1039C148.368 61.0883 148.347 61.0762 148.325 61.0686C148.303 61.0609 148.28 61.0578 148.257 61.0594C148.233 61.061 148.21 61.0672 148.19 61.0778C147.876 61.2232 147.598 61.4341 147.373 61.6964C147.148 61.9586 146.982 62.2661 146.887 62.5979C146.883 62.6204 146.883 62.6435 146.888 62.6659C146.892 62.6883 146.902 62.7095 146.915 62.7284C146.928 62.7472 146.944 62.7633 146.963 62.7757C146.983 62.7881 147.004 62.7965 147.027 62.8006C147.046 62.8055 147.066 62.8055 147.085 62.8006Z" fill="#263238"/>
<path d="M152.673 60.3566C152.712 60.3612 152.753 60.3519 152.786 60.3303C152.82 60.3088 152.845 60.2762 152.858 60.2382C152.87 60.2002 152.869 60.1591 152.855 60.1218C152.84 60.0844 152.814 60.0532 152.779 60.0333C152.548 59.8723 152.282 59.7693 152.003 59.7332C151.724 59.6971 151.441 59.7289 151.177 59.8258C151.134 59.8448 151.101 59.8797 151.084 59.923C151.067 59.9662 151.067 60.0145 151.085 60.0574C151.094 60.0789 151.107 60.0983 151.124 60.1146C151.14 60.1309 151.16 60.1437 151.181 60.1522C151.203 60.1608 151.226 60.1649 151.249 60.1644C151.273 60.1638 151.296 60.1586 151.317 60.1491C151.527 60.0756 151.752 60.0535 151.973 60.0846C152.194 60.1156 152.404 60.199 152.586 60.3277C152.611 60.3465 152.641 60.3566 152.673 60.3566Z" fill="#263238"/>
<path d="M148.86 62.8736L149.521 62.5117C149.521 62.5117 149.295 63.1439 148.86 62.8736Z" fill="#263238"/>
<path d="M141.795 97.6883L141.404 99.0443C141.356 99.1505 141.477 99.2567 141.655 99.2567H157.262C157.397 99.2567 157.513 99.1891 157.522 99.1071L157.657 97.7462C157.657 97.6545 157.546 97.5725 157.397 97.5725H142.056C142.006 97.5662 141.955 97.5736 141.909 97.594C141.863 97.6144 141.824 97.6471 141.795 97.6883Z" fill="#58B368"/>
<path opacity="0.2" d="M141.795 97.6883L141.404 99.0443C141.356 99.1505 141.477 99.2567 141.655 99.2567H157.262C157.397 99.2567 157.513 99.1891 157.522 99.1071L157.657 97.7462C157.657 97.6545 157.546 97.5725 157.397 97.5725H142.056C142.006 97.5662 141.955 97.5736 141.909 97.594C141.863 97.6144 141.824 97.6471 141.795 97.6883Z" fill="white"/>
<path d="M143.909 99.4075H143.503C143.421 99.4075 143.359 99.3641 143.364 99.311L143.557 97.5496C143.557 97.4965 143.634 97.4531 143.716 97.4531H144.126C144.208 97.4531 144.271 97.4965 144.266 97.5496L144.073 99.311C144.063 99.3593 143.986 99.4075 143.909 99.4075Z" fill="#58B368"/>
<path opacity="0.4" d="M143.909 99.4075H143.503C143.421 99.4075 143.359 99.3641 143.364 99.311L143.557 97.5496C143.557 97.4965 143.634 97.4531 143.716 97.4531H144.126C144.208 97.4531 144.271 97.4965 144.266 97.5496L144.073 99.311C144.063 99.3593 143.986 99.4075 143.909 99.4075Z" fill="black"/>
<path d="M156.109 99.4075H155.694C155.612 99.4075 155.549 99.3641 155.559 99.311L155.752 97.5496C155.752 97.4965 155.829 97.4531 155.911 97.4531H156.321C156.403 97.4531 156.466 97.4965 156.461 97.5496L156.268 99.311C156.256 99.3422 156.233 99.3685 156.205 99.386C156.176 99.4034 156.142 99.411 156.109 99.4075Z" fill="#58B368"/>
<path opacity="0.4" d="M156.109 99.4075H155.694C155.612 99.4075 155.549 99.3641 155.559 99.311L155.752 97.5496C155.752 97.4965 155.829 97.4531 155.911 97.4531H156.321C156.403 97.4531 156.466 97.4965 156.461 97.5496L156.268 99.311C156.256 99.3422 156.233 99.3685 156.205 99.386C156.176 99.4034 156.142 99.411 156.109 99.4075Z" fill="black"/>
<path d="M150.033 99.4075H149.623C149.541 99.4075 149.478 99.3641 149.483 99.311L149.676 97.5496C149.676 97.4965 149.753 97.4531 149.835 97.4531H150.26C150.342 97.4531 150.404 97.4965 150.4 97.5496L150.207 99.311C150.187 99.3593 150.115 99.4075 150.033 99.4075Z" fill="#58B368"/>
<path opacity="0.4" d="M150.033 99.4075H149.623C149.541 99.4075 149.478 99.3641 149.483 99.311L149.676 97.5496C149.676 97.4965 149.753 97.4531 149.835 97.4531H150.26C150.342 97.4531 150.404 97.4965 150.4 97.5496L150.207 99.311C150.187 99.3593 150.115 99.4075 150.033 99.4075Z" fill="black"/>
<path d="M151.134 101.604L154.816 99.9531L153.769 103.606C153.769 103.606 151.428 104.137 150.415 102.964L151.134 101.604Z" fill="#FFB573"/>
<path d="M141.362 80.8601C141.236 82.1437 141.077 83.4274 140.937 84.7207L140.454 88.5813C140.3 89.8601 140.097 91.1389 139.924 92.4419L139.648 94.3722L139.562 94.9802C139.567 95.0749 139.593 95.1672 139.639 95.2505C139.849 95.6196 140.125 95.9468 140.454 96.2156C140.884 96.5703 141.339 96.8928 141.815 97.1807C142.856 97.8145 143.938 98.3787 145.053 98.8698C146.192 99.3861 147.365 99.8349 148.557 100.284C149.749 100.732 150.97 101.143 152.152 101.534L151.727 103.377C149.114 102.956 146.539 102.32 144.03 101.476C142.732 101.051 141.47 100.522 140.256 99.8928C139.607 99.5547 138.987 99.1624 138.403 98.7202C137.704 98.2103 137.113 97.5654 136.666 96.8236C136.403 96.338 136.239 95.8049 136.184 95.2553C136.184 95.1057 136.159 94.9561 136.184 94.8065C136.208 94.6569 136.184 94.4687 136.208 94.4204L136.251 93.9379L136.415 92.0076C136.536 90.7239 136.628 89.4354 136.767 88.147L137.158 84.2864C137.313 83.0027 137.443 81.7191 137.612 80.4258L141.362 80.8601Z" fill="#FF8B7B"/>
<path d="M139.334 75.9323C137.814 76.4148 135.99 81.6266 135.99 81.6266L141.299 87.099C141.299 87.099 144.025 81.4722 143.383 79.5081C142.732 77.462 141.091 75.4014 139.334 75.9323Z" fill="#58B368"/>
<path d="M157.866 100.711L156.823 103.722L153.769 103.606L154.816 99.9531L157.866 100.711Z" fill="#FFB573"/>
<path opacity="0.2" d="M126.382 80.9077C125.144 76.3119 125.297 71.4521 126.82 66.9429C128.344 62.4338 131.171 58.4777 134.943 55.575C138.715 52.6723 143.263 50.9534 148.013 50.6355C152.762 50.3177 157.498 51.4152 161.624 53.7893C165.749 56.1634 169.078 59.7075 171.189 63.9733C173.3 68.2392 174.099 73.0353 173.484 77.7552C172.87 82.475 170.869 86.9067 167.736 90.4897C164.603 94.0727 160.478 96.6462 155.882 97.8847C152.83 98.7071 149.646 98.9203 146.512 98.5122C143.378 98.1042 140.355 97.0827 137.616 95.5062C134.876 93.9298 132.474 91.8291 130.547 89.3243C128.619 86.8195 127.204 83.9595 126.382 80.9077Z" fill="#58B368"/>
<path opacity="0.2" d="M167.063 58.0607L147.243 98.5969C148.943 98.7705 150.657 98.7559 152.354 98.5535L170.175 62.1192C169.287 60.6583 168.243 59.2976 167.063 58.0607ZM172.853 68.3781L172.723 67.8956L158.492 97.0044C163.981 94.8253 168.476 90.7046 171.124 85.4263C173.773 80.1481 174.388 74.0806 172.853 68.3781ZM143.354 51.406C139.153 52.5384 135.338 54.7881 132.313 57.916C129.289 61.0439 127.17 64.9329 126.179 69.1695C125.189 73.4061 125.366 77.8318 126.691 81.976C128.015 86.1202 130.438 89.8278 133.702 92.7047L154.12 50.9958C150.547 50.3131 146.865 50.4534 143.354 51.406Z" fill="white"/>
<path d="M122.541 72.0337L122.059 71.9855C122.136 71.1603 122.256 70.3302 122.411 69.5195L122.893 69.6112C122.753 70.4074 122.623 71.223 122.541 72.0337ZM123.477 67.1356L122.995 67.0005C123.63 64.8508 124.521 62.7851 125.649 60.8477L126.069 61.0889C124.967 62.9937 124.097 65.0238 123.477 67.1356Z" fill="#58B368"/>
<path d="M174.707 67.8819C173.371 62.9207 170.593 58.4672 166.725 55.0846C162.857 51.7019 158.073 49.5421 152.978 48.8781C147.883 48.214 142.705 49.0756 138.1 51.354C133.494 53.6323 129.668 57.2251 127.104 61.678C124.54 66.1309 123.354 71.244 123.696 76.3708C124.038 81.4977 125.893 86.408 129.025 90.481C132.157 94.5541 136.427 97.6069 141.294 99.2535C146.162 100.9 151.408 101.067 156.37 99.7318C159.665 98.8453 162.754 97.3181 165.46 95.2375C168.165 93.1569 170.434 90.5636 172.137 87.6059C173.84 84.6482 174.943 81.384 175.384 77.9997C175.825 74.6154 175.595 71.1773 174.707 67.8819ZM126.382 80.9114C125.144 76.3156 125.297 71.4558 126.821 66.9466C128.345 62.4375 131.171 58.4814 134.943 55.5787C138.716 52.676 143.264 50.9571 148.013 50.6392C152.762 50.3214 157.499 51.4189 161.624 53.793C165.749 56.1671 169.078 59.7112 171.189 63.977C173.3 68.2429 174.099 73.039 173.484 77.7589C172.87 82.4787 170.87 86.9104 167.736 90.4934C164.603 94.0764 160.478 96.6499 155.882 97.8884C152.83 98.7107 149.646 98.9237 146.512 98.5153C143.377 98.1069 140.354 97.0851 137.615 95.5081C134.875 93.9312 132.473 91.83 130.546 89.3246C128.619 86.8193 127.204 83.9588 126.382 80.9066V80.9114Z" fill="#58B368"/>
<path d="M126.768 84.8877C126.768 85.9928 126.484 86.1376 126.18 86.1713L125.306 86.403L123.554 86.8855L120.051 87.8121L113.029 89.6121C108.342 90.7896 103.648 91.9365 98.948 93.0528L84.8472 96.4308L77.8064 98.1392C75.4611 98.7231 73.1061 99.2636 70.785 99.9392C70.5495 100.008 70.3028 100.03 70.0589 100.004C69.8149 99.9777 69.5785 99.9036 69.3632 99.786C69.1479 99.6684 68.9579 99.5095 68.804 99.3184C68.65 99.1273 68.5353 98.9078 68.4662 98.6724C68.3971 98.437 68.3751 98.1903 68.4014 97.9463C68.4276 97.7024 68.5017 97.466 68.6193 97.2507C68.737 97.0353 68.8959 96.8453 69.0869 96.6914C69.278 96.5375 69.4975 96.4227 69.733 96.3536H69.8102C72.1603 95.7745 74.467 95.0555 76.7834 94.3847L83.7324 92.3241L97.6161 88.1451C102.246 86.7456 106.88 85.3767 111.519 84.0383L118.492 82.0357L121.986 81.0705L123.733 80.5879L124.606 80.3467C124.886 80.226 125.195 80.2115 125.765 81.1622C126.434 82.2887 126.781 83.5774 126.768 84.8877Z" fill="#58B368"/>
<path d="M96.4043 48.8841C96.4043 49.1688 96.5539 49.4005 96.7421 49.4005C96.9303 49.4005 97.0799 49.1688 97.0799 48.8841C97.0799 48.5994 96.9303 48.3629 96.7421 48.3629C96.5539 48.3629 96.4043 48.5946 96.4043 48.8841Z" fill="#263238"/>
<path d="M96.5302 49.3992C96.8694 50.2733 97.3273 51.0966 97.8911 51.8458C97.6959 51.9855 97.4725 52.0807 97.2366 52.1249C97.0006 52.1691 96.7579 52.1611 96.5254 52.1016L96.5302 49.3992Z" fill="#630F0F"/>
<path d="M95.3917 47.293C95.3567 47.292 95.3228 47.2801 95.2948 47.259C95.2668 47.2379 95.2461 47.2086 95.2355 47.1752C95.2248 47.1418 95.2249 47.1059 95.2356 47.0726C95.2463 47.0392 95.2671 47.01 95.2952 46.9889C95.5084 46.8291 95.7565 46.7222 96.019 46.6769C96.2816 46.6316 96.5512 46.6492 96.8056 46.7284C96.8471 46.7445 96.8805 46.7764 96.8985 46.8171C96.9166 46.8577 96.9179 46.9039 96.9021 46.9455C96.886 46.987 96.8541 47.0203 96.8134 47.0384C96.7728 47.0565 96.7266 47.0578 96.685 47.042C96.4825 46.9818 96.2686 46.97 96.0607 47.0078C95.8528 47.0455 95.6567 47.1316 95.4882 47.2592C95.461 47.2814 95.4268 47.2934 95.3917 47.293Z" fill="#263238"/>
<path d="M87.1979 50.7305C87.4536 53.5246 87.4874 58.6061 85.5137 60.2709C85.5137 60.2709 85.9625 63.123 90.7592 63.5669C96.0338 64.0495 93.5389 61.0141 93.5389 61.0141C90.7255 60.0152 91.0102 57.7471 91.7099 55.6624L87.1979 50.7305Z" fill="#7F3E3B"/>
<path d="M79.4809 165.19C79.0659 165.363 78.1152 164.944 77.8112 164.765C77.7973 164.758 77.7861 164.747 77.7791 164.733C77.7722 164.719 77.7699 164.703 77.7726 164.688C77.7738 164.671 77.78 164.656 77.7903 164.643C77.8007 164.63 77.8147 164.62 77.8305 164.615C77.8788 164.615 79.008 164.239 79.4664 164.504C79.5168 164.531 79.5607 164.569 79.5948 164.615C79.629 164.661 79.6527 164.714 79.6643 164.77C79.6884 164.837 79.6907 164.91 79.6707 164.978C79.6508 165.047 79.6097 165.107 79.5533 165.151C79.5308 165.167 79.5065 165.18 79.4809 165.19ZM78.0766 164.707C78.5592 164.948 79.2493 165.151 79.4519 165.006C79.4519 165.006 79.534 164.948 79.5002 164.794C79.4931 164.761 79.4791 164.731 79.4591 164.704C79.4392 164.677 79.4137 164.655 79.3844 164.64C78.9503 164.537 78.4956 164.564 78.0766 164.717V164.707Z" fill="#58B368"/>
<path d="M78.1203 164.697C78.0409 164.73 77.9585 164.756 77.8742 164.774C77.8598 164.779 77.844 164.78 77.8293 164.775C77.8145 164.771 77.8015 164.762 77.7922 164.75C77.785 164.737 77.7812 164.722 77.7812 164.707C77.7812 164.691 77.785 164.676 77.7922 164.663C77.7922 164.624 78.1831 163.669 78.6753 163.466C78.7337 163.44 78.797 163.427 78.8611 163.427C78.9251 163.427 78.9884 163.44 79.0469 163.466C79.1076 163.483 79.1604 163.521 79.1958 163.573C79.2311 163.625 79.2468 163.688 79.2399 163.751C79.1916 164.074 78.5691 164.509 78.1203 164.697ZM78.0045 164.562C78.4388 164.398 79.0324 163.973 79.0614 163.737C79.0614 163.712 79.0614 163.664 78.9648 163.616C78.9272 163.598 78.8859 163.589 78.8442 163.589C78.8024 163.589 78.7612 163.598 78.7236 163.616C78.4099 163.751 78.13 164.287 78.0045 164.557V164.562Z" fill="#58B368"/>
<path d="M101.404 170.884C101.04 170.882 100.677 170.85 100.318 170.787C100.302 170.784 100.286 170.776 100.274 170.764C100.262 170.752 100.254 170.736 100.251 170.72C100.247 170.702 100.249 170.684 100.257 170.669C100.265 170.653 100.278 170.64 100.294 170.633C100.347 170.599 101.583 169.894 102.176 170.054C102.287 170.082 102.383 170.153 102.442 170.252C102.48 170.305 102.5 170.369 102.5 170.435C102.5 170.501 102.48 170.565 102.442 170.618C102.302 170.831 101.863 170.884 101.404 170.884ZM100.589 170.662C101.25 170.753 102.147 170.749 102.311 170.522C102.311 170.493 102.355 170.44 102.311 170.334C102.294 170.304 102.27 170.278 102.242 170.258C102.213 170.238 102.181 170.224 102.147 170.218C101.766 170.116 101.037 170.44 100.589 170.662Z" fill="#58B368"/>
<path d="M100.333 170.788C100.317 170.792 100.3 170.792 100.284 170.788C100.272 170.779 100.263 170.767 100.257 170.754C100.251 170.74 100.249 170.725 100.251 170.71C100.251 170.672 100.352 169.716 100.801 169.345C100.867 169.289 100.944 169.248 101.027 169.223C101.11 169.198 101.197 169.19 101.283 169.2C101.51 169.224 101.578 169.34 101.592 169.436C101.66 169.837 100.81 170.604 100.386 170.797L100.333 170.788ZM101.201 169.34C101.094 169.343 100.99 169.382 100.907 169.451C100.639 169.757 100.471 170.137 100.424 170.541C100.864 170.281 101.438 169.678 101.39 169.436C101.39 169.436 101.39 169.359 101.225 169.345L101.201 169.34Z" fill="#58B368"/>
<path d="M96.4385 170.704H99.9806L100.333 162.495H96.7908L96.4385 170.704Z" fill="#7F3E3B"/>
<path d="M73.8545 163.931L77.3387 164.588L81.262 156.968L77.7778 156.316L73.8545 163.931Z" fill="#7F3E3B"/>
<path d="M77.7197 164.224L73.9074 163.076C73.8402 163.056 73.7683 163.059 73.7035 163.085C73.6386 163.112 73.5846 163.159 73.5503 163.22L71.9674 166.039C71.9296 166.107 71.908 166.184 71.904 166.263C71.9 166.341 71.9139 166.42 71.9445 166.492C71.9751 166.564 72.0218 166.629 72.0809 166.681C72.14 166.733 72.2101 166.77 72.2859 166.791C73.6226 167.168 74.2934 167.274 75.968 167.79C77.0007 168.099 79.7127 169.238 81.1411 169.658C82.5696 170.078 83.1728 168.731 82.6275 168.427C80.1857 167.071 78.82 165.604 78.2071 164.6C78.0974 164.418 77.9235 164.284 77.7197 164.224Z" fill="#263238"/>
<path d="M99.9568 170.294H96.0962C96.0262 170.293 95.9582 170.317 95.9036 170.361C95.8491 170.405 95.8115 170.467 95.797 170.535L95.0973 173.686C95.0797 173.762 95.0795 173.841 95.0969 173.917C95.1143 173.992 95.1487 174.063 95.1976 174.124C95.2464 174.184 95.3084 174.233 95.3788 174.266C95.4493 174.299 95.5263 174.315 95.604 174.314C97.0035 174.314 99.0206 174.212 100.777 174.212C102.828 174.212 104.599 174.323 107.007 174.323C108.455 174.323 108.865 172.851 108.257 172.716C105.482 172.113 103.219 172.046 100.821 170.569C100.564 170.398 100.265 170.303 99.9568 170.294Z" fill="#263238"/>
<path d="M78.8393 61.1745C75.7604 62.6223 74.4961 72.544 74.4961 72.544L81.5658 75.3188C82.6628 72.6327 83.5501 69.8657 84.2199 67.0426C85.2333 62.5644 82.0001 59.6689 78.8393 61.1745Z" fill="#58B368"/>
<path opacity="0.3" d="M78.8393 61.1745C75.7604 62.6223 74.4961 72.544 74.4961 72.544L81.5658 75.3188C82.6628 72.6327 83.5501 69.8657 84.2199 67.0426C85.2333 62.5644 82.0001 59.6689 78.8393 61.1745Z" fill="black"/>
<path opacity="0.2" d="M83.4376 64.0843C83.6785 63.9673 83.9308 63.8751 84.1904 63.8092C84.4724 64.8673 84.4824 65.9795 84.2194 67.0424C83.5496 69.8655 82.6622 72.6325 81.5652 75.3186L79.2344 74.4065C79.6639 71.8151 80.9813 65.2618 83.4376 64.0843Z" fill="black"/>
<path d="M99.3578 61.0964C99.3578 61.0964 103.132 65.3576 99.5654 91.7399H80.605C80.4747 88.8444 82.3037 74.6278 79.4951 60.9131C81.5926 60.5097 83.7139 60.2421 85.8458 60.112C88.5299 59.9575 91.2207 59.9575 93.9048 60.112C95.7454 60.2974 97.5686 60.6266 99.3578 61.0964Z" fill="#58B368"/>
<path opacity="0.3" d="M99.3578 61.0964C99.3578 61.0964 103.132 65.3576 99.5654 91.7399H80.605C80.4747 88.8444 82.3037 74.6278 79.4951 60.9131C81.5926 60.5097 83.7139 60.2421 85.8458 60.112C88.5299 59.9575 91.2207 59.9575 93.9048 60.112C95.7454 60.2974 97.5686 60.6266 99.3578 61.0964Z" fill="black"/>
<path opacity="0.2" d="M95.5409 66.7534C96.3999 64.1765 98.4653 63.3513 100.569 64.881C100.994 67.3807 101.293 71.4102 100.951 77.7995L97.2492 77.7657C97.2492 77.7657 94.2814 70.5899 95.5409 66.7534Z" fill="black"/>
<path d="M101.549 64.9918C101.732 66.0969 101.935 67.3034 102.161 68.4519C102.388 69.6004 102.644 70.7682 102.914 71.9071C103.414 74.1474 104.093 76.3438 104.946 78.4749C105.163 78.9575 105.385 79.469 105.631 79.9226L105.945 80.4921C106.024 80.6204 106.116 80.74 106.22 80.8492C106.938 81.5309 107.751 82.1062 108.633 82.5575C110.716 83.6409 112.865 84.595 115.065 85.4143L114.539 88.0202C111.944 87.8405 109.383 87.318 106.924 86.4663C106.264 86.2365 105.619 85.9641 104.994 85.6508C104.31 85.3015 103.663 84.8827 103.064 84.4009C102.712 84.1113 102.388 83.7881 102.099 83.4358L101.867 83.1318L101.717 82.905C101.616 82.7554 101.515 82.6058 101.423 82.4562C101.047 81.8529 100.714 81.2497 100.405 80.6417C99.2751 78.2786 98.3796 75.8105 97.7314 73.2728C97.4081 72.0326 97.1089 70.7972 96.8676 69.5473C96.6263 68.2975 96.385 67.0765 96.2402 65.7446L101.549 64.9918Z" fill="#7F3E3B"/>
<path d="M94.6193 63.6993C93.6204 66.9373 97.674 76.5888 97.674 76.5888L106.211 74.4414C105.688 71.3907 104.809 68.4121 103.59 65.5668C100.82 59.5443 95.8209 59.7953 94.6193 63.6993Z" fill="#58B368"/>
<path opacity="0.3" d="M94.6193 63.6993C93.6204 66.9373 97.674 76.5888 97.674 76.5888L106.211 74.4414C105.688 71.3907 104.809 68.4121 103.59 65.5668C100.82 59.5443 95.8209 59.7953 94.6193 63.6993Z" fill="black"/>
<path d="M115.119 85.4143L118.782 87.0599L115.23 89.9891C115.23 89.9891 113.666 89.4776 113.411 86.9103L112.865 84.7773L114.472 85.1875C114.694 85.2435 114.911 85.3194 115.119 85.4143Z" fill="#7F3E3B"/>
<path d="M120.727 88.8351L117.161 90.9632L115.23 89.9691L118.777 87.0399L120.727 88.8351Z" fill="#7F3E3B"/>
<path d="M95.517 59.7981C93.9872 58.5048 90.2714 57.5735 86.1116 57.3418C83.7325 57.2115 81.2859 57.6024 80.2677 58.056C79.2494 58.5096 80.4559 61.7863 81.7878 61.8587C81.0832 62.9686 82.1063 65.1112 83.636 65.5311C83.3947 67.3842 88.066 67.5579 90.8746 66.0619C93.1427 64.87 97.3508 61.3472 95.517 59.7981Z" fill="#263238"/>
<path opacity="0.2" d="M100.333 162.495L100.154 166.728H96.6074L96.786 162.495H100.333Z" fill="black"/>
<path opacity="0.2" d="M77.772 156.316L81.261 156.973L79.239 160.896L75.75 160.24L77.772 156.316Z" fill="black"/>
<path d="M86.8697 48.2557C87.082 51.7688 87.0241 53.8343 88.8 55.6391C91.4638 58.3512 95.8021 56.749 96.6418 53.2262C97.3995 50.0702 96.9217 44.8584 93.4858 43.4541C92.7281 43.1407 91.9028 43.0267 91.0886 43.1231C90.2743 43.2194 89.4984 43.5229 88.8348 44.0045C88.1712 44.4861 87.6422 45.1297 87.2981 45.874C86.9541 46.6182 86.8066 47.4382 86.8697 48.2557Z" fill="#7F3E3B"/>
<path d="M93.4421 50.2154C94.7692 48.8739 96.9504 45.9495 96.188 43.7538C95.0636 40.506 91.7097 41.6063 92.2454 42.253C90.3151 40.979 86.4159 40.9162 87.2314 42.6245C83.7231 43.1071 83.4384 44.5307 84.4132 45.0664C81.9135 47.4503 82.0341 49.9162 83.9306 49.7329C82.4829 51.1806 85.1467 54.0471 88.1242 55.4128C89.1376 52.7586 94.5617 52.276 93.4421 50.2154Z" fill="#263238"/>
<path d="M91.9021 51.4847C91.88 51.4911 91.8566 51.4911 91.8345 51.4847C91.8215 51.4756 91.8104 51.4639 91.8018 51.4505C91.7933 51.437 91.7875 51.422 91.7848 51.4063C91.7821 51.3906 91.7826 51.3745 91.7862 51.359C91.7897 51.3435 91.7963 51.3288 91.8056 51.3158C92.568 50.1962 93.3112 49.2987 93.9675 48.5072C95.2222 46.992 96.1294 45.8965 96.2066 44.4102C96.2247 43.8012 96.0521 43.2018 95.7129 42.6957C95.3738 42.1896 94.885 41.802 94.315 41.5871C93.4174 41.1818 92.4522 41.1576 92.071 41.534C91.8683 41.7319 91.849 42.0166 92.0131 42.4123C92.0201 42.4264 92.0241 42.4419 92.0247 42.4576C92.0253 42.4734 92.0226 42.4891 92.0166 42.5037C92.0107 42.5183 92.0017 42.5315 91.9903 42.5424C91.9788 42.5532 91.9652 42.5616 91.9503 42.5668C91.9358 42.5731 91.9201 42.5766 91.9042 42.5769C91.8883 42.5772 91.8725 42.5743 91.8577 42.5685C91.8429 42.5627 91.8294 42.554 91.8179 42.5429C91.8065 42.5318 91.7974 42.5186 91.7911 42.504C91.6846 42.3267 91.6379 42.1198 91.6578 41.9138C91.6778 41.7079 91.7634 41.5139 91.9021 41.3603C92.3557 40.9164 93.4125 40.9164 94.4163 41.3603C95.0306 41.5934 95.5567 42.0127 95.921 42.5596C96.2853 43.1064 96.4695 43.7535 96.4479 44.4102C96.3659 45.9785 95.4393 47.0981 94.1557 48.6472C93.4994 49.4386 92.7611 50.3314 92.0034 51.4461C91.9907 51.46 91.9749 51.4707 91.9573 51.4774C91.9397 51.4841 91.9208 51.4866 91.9021 51.4847Z" fill="#263238"/>
<path d="M92.0759 49.8185C92.1401 50.6898 92.4895 51.5157 93.07 52.1686C93.8421 53.018 94.6529 52.4871 94.788 51.4544C94.9086 50.5182 94.6577 48.9499 93.7119 48.4818C92.766 48.0137 92.0132 48.7665 92.0759 49.8185Z" fill="#7F3E3B"/>
<path d="M92.8334 91.7422C92.8334 91.7422 94.0302 115.639 91.6994 125.764C88.0077 141.795 80.9476 160.388 80.9476 160.388L74.375 159.148C74.375 159.148 79.9101 140.53 81.131 127.182C82.2072 115.195 80.6147 101.427 80.6147 91.7422H92.8334Z" fill="#263238"/>
<path opacity="0.2" d="M91.0622 98.8224C91.5448 97.8911 92.4858 100.666 93.1421 104.227C93.1421 109.14 93.0553 114.728 92.6258 119.462C89.3443 113.406 90.044 100.753 91.0622 98.8224Z" fill="black"/>
<path d="M82.56 158.371C82.589 158.371 81.5321 160.648 81.5321 160.648L73.9268 159.167L74.7568 156.875L82.56 158.371Z" fill="#2C6BDB"/>
<path d="M99.5896 91.7422C99.5896 91.7422 104.898 114.37 105.284 125.185C105.704 137.312 101.472 165.909 101.472 165.909H95.4685C95.4685 165.909 94.7301 137.09 94.4599 126.044C94.1703 114.003 87.1055 91.7422 87.1055 91.7422H99.5896Z" fill="#263238"/>
<path d="M102.63 163.516C102.659 163.516 102.292 166.011 102.292 166.011H94.9859L94.7881 163.786L102.63 163.516Z" fill="#2C6BDB"/>
</svg>
