<svg width="280" height="180" viewBox="0 0 280 180" fill="none" xmlns="http://www.w3.org/2000/svg">
<path d="M260.287 157.996H19V158.116H260.287V157.996Z" fill="#EBEBEB"/>
<path d="M229.243 165.762H220.127V165.882H229.243V165.762Z" fill="#EBEBEB"/>
<path d="M174.639 164.918H160.418V165.039H174.639V164.918Z" fill="#EBEBEB"/>
<path d="M219.645 161.28H196.911V161.401H219.645V161.28Z" fill="#EBEBEB"/>
<path d="M49.6093 162.09H44.3154V162.21H49.6093V162.09Z" fill="#EBEBEB"/>
<path d="M72.5123 162.09H53.9043V162.21H72.5123V162.09Z" fill="#EBEBEB"/>
<path d="M127.651 164.128H101.52V164.249H127.651V164.128Z" fill="#EBEBEB"/>
<path d="M133.37 136.472H40.1947C39.4639 136.472 38.763 136.182 38.2462 135.665C37.7295 135.148 37.4392 134.447 37.4392 133.716V2.73137C37.4455 2.00475 37.7386 1.31007 38.2547 0.798517C38.7708 0.286968 39.468 -2.7857e-05 40.1947 2.02804e-09H133.37C134.101 2.02805e-09 134.802 0.29031 135.318 0.807066C135.835 1.32382 136.125 2.02469 136.125 2.7555V133.716C136.125 134.447 135.835 135.148 135.318 135.665C134.802 136.182 134.101 136.472 133.37 136.472ZM40.1947 0.0965151C39.4962 0.0977908 38.8268 0.3758 38.3329 0.869654C37.8391 1.36351 37.5611 2.03295 37.5598 2.73137V133.716C37.5611 134.415 37.8391 135.084 38.3329 135.578C38.8268 136.072 39.4962 136.35 40.1947 136.351H133.37C134.068 136.35 134.738 136.072 135.232 135.578C135.726 135.084 136.004 134.415 136.005 133.716V2.73137C136.004 2.03295 135.726 1.36351 135.232 0.869654C134.738 0.3758 134.068 0.0977908 133.37 0.0965151H40.1947Z" fill="#EBEBEB"/>
<path d="M237.756 136.472H144.571C143.84 136.471 143.14 136.18 142.623 135.663C142.107 135.147 141.816 134.447 141.815 133.716V2.73137C141.823 2.00515 142.116 1.31119 142.632 0.799911C143.148 0.288632 143.844 0.00122974 144.571 0H237.756C238.48 0.00251155 239.175 0.29063 239.689 0.801906C240.203 1.31318 240.495 2.00642 240.501 2.73137V133.716C240.501 134.445 240.212 135.145 239.698 135.661C239.183 136.178 238.485 136.469 237.756 136.472ZM144.571 0.0965151C143.872 0.0977908 143.203 0.3758 142.709 0.869654C142.215 1.36351 141.937 2.03295 141.936 2.73137V133.716C141.937 134.415 142.215 135.084 142.709 135.578C143.203 136.072 143.872 136.35 144.571 136.351H237.756C238.454 136.35 239.123 136.072 239.617 135.578C240.111 135.084 240.389 134.415 240.39 133.716V2.73137C240.389 2.03295 240.111 1.36351 239.617 0.869654C239.123 0.3758 238.454 0.0977908 237.756 0.0965151H144.571Z" fill="#EBEBEB"/>
<path d="M229.243 165.762H220.127V165.882H229.243V165.762Z" fill="#EBEBEB"/>
<path d="M174.639 164.918H160.418V165.039H174.639V164.918Z" fill="#EBEBEB"/>
<path d="M219.645 161.28H196.911V161.401H219.645V161.28Z" fill="#EBEBEB"/>
<path d="M49.6093 162.09H44.3154V162.21H49.6093V162.09Z" fill="#EBEBEB"/>
<path d="M72.5123 162.09H53.9043V162.21H72.5123V162.09Z" fill="#EBEBEB"/>
<path d="M127.651 164.128H101.52V164.249H127.651V164.128Z" fill="#EBEBEB"/>
<path d="M114.038 14.7773H85.3828V79.9441H114.038V14.7773Z" fill="#E6E6E6"/>
<path d="M115.79 14.7773H87.1348V79.9441H115.79V14.7773Z" fill="#F5F5F5"/>
<path d="M112.648 77.0096V17.7109H90.2764V77.0096H112.648Z" fill="white"/>
<path d="M112.644 77.0096V17.7109H111.321V77.0096H112.644Z" fill="#E6E6E6"/>
<path d="M114.487 59.3984H88.4326V63.3362H114.487V59.3984Z" fill="#F5F5F5"/>
<path d="M114.487 22.8828H88.4328V26.8206H114.487V22.8828Z" fill="#F5F5F5"/>
<path d="M152.673 14.7773H124.018V79.9441H152.673V14.7773Z" fill="#E6E6E6"/>
<path d="M154.42 14.7773H125.765V79.9441H154.42V14.7773Z" fill="#F5F5F5"/>
<path d="M151.278 77.0096V17.7109H128.906V77.0096H151.278Z" fill="white"/>
<path d="M151.278 77.0096V17.7109H149.956V77.0096H151.278Z" fill="#E6E6E6"/>
<path d="M153.122 59.3984H127.067V63.3362H153.122V59.3984Z" fill="#F5F5F5"/>
<path d="M153.121 22.8828H127.067V26.8206H153.121V22.8828Z" fill="#F5F5F5"/>
<path d="M75.4033 14.7773H46.748V79.9441H75.4033V14.7773Z" fill="#E6E6E6"/>
<path d="M77.1552 14.7773H48.5V79.9441H77.1552V14.7773Z" fill="#F5F5F5"/>
<path d="M74.0134 77.0096V17.7109H51.6413V77.0096H74.0134Z" fill="white"/>
<path d="M74.0088 77.0018V17.7031H72.6865V77.0018H74.0088Z" fill="#E6E6E6"/>
<path d="M75.852 59.3984H49.7979V63.3362H75.852V59.3984Z" fill="#F5F5F5"/>
<path d="M75.8518 22.8828H49.7977V26.8206H75.8518V22.8828Z" fill="#F5F5F5"/>
<path d="M177.873 92.8994H173.187V157.994H177.873V92.8994Z" fill="#E6E6E6"/>
<path d="M179.128 92.8994H176.367V157.994H179.128V92.8994Z" fill="#F0F0F0"/>
<path d="M113.444 97.7773L179.981 97.7773V92.8937L113.444 92.8937V97.7773Z" fill="#F0F0F0"/>
<path d="M50.4202 92.8994H45.7344V157.994H50.4202V92.8994Z" fill="#E6E6E6"/>
<path d="M51.2987 92.8994H48.5384V157.994H51.2987V92.8994Z" fill="#F0F0F0"/>
<path d="M44.9002 97.7773L111.438 97.7773V92.8937L44.9002 92.8937V97.7773Z" fill="#E6E6E6"/>
<path d="M113.044 92.8994H108.358V157.994H113.044V92.8994Z" fill="#E6E6E6"/>
<path d="M114.299 92.8994H111.538V157.994H114.299V92.8994Z" fill="#F0F0F0"/>
<path d="M101.12 71.2471H135.865L138.591 91.7613H103.851L101.12 71.2471Z" fill="#E6E6E6"/>
<path d="M103.851 91.7622L103.991 92.8963H138.736L138.596 91.7622H103.851Z" fill="#E6E6E6"/>
<path d="M102.191 71.2471H136.932L139.663 91.7613H104.918L102.191 71.2471Z" fill="#F0F0F0"/>
<path d="M105.757 90.8264L103.281 72.1846H136.091L138.572 90.8264H105.757Z" fill="white"/>
<path d="M113.971 91.7622L114.111 92.8963H152.374L152.229 91.7622H113.971Z" fill="#F0F0F0"/>
<path d="M176.753 75.2808H159.555C156.627 75.2544 153.791 76.3021 151.584 78.2256C149.377 80.1492 147.951 82.8151 147.577 85.7188L145.063 104.718L135.72 104.684H135.691C133.608 104.635 131.585 105.386 130.04 106.784C128.495 108.182 127.545 110.12 127.386 112.198L126.836 118.712C125.93 118.84 125.091 119.263 124.449 119.914C123.806 120.565 123.395 121.41 123.279 122.317H169.418C172.343 122.344 175.177 121.297 177.382 119.375C179.588 117.453 181.012 114.79 181.386 111.889L185.005 84.6234C185.143 83.4551 185.033 82.2708 184.682 81.1479C184.331 80.0251 183.747 78.989 182.968 78.1072C182.189 77.2255 181.233 76.518 180.162 76.0309C179.091 75.5439 177.93 75.2883 176.753 75.2808ZM136.217 118.645H129.316L129.838 112.651C129.951 111.115 130.65 109.682 131.791 108.647C132.932 107.612 134.427 107.056 135.966 107.092H135.99L144.754 107.121L144.141 111.739C143.893 113.663 142.948 115.428 141.485 116.701C140.021 117.974 138.142 118.665 136.203 118.645H136.217Z" fill="#E0E0E0"/>
<path d="M133.935 122.297H131.541L125.934 157.993H128.327L133.935 122.297Z" fill="#F0F0F0"/>
<path d="M142.92 122.297H140.526L134.914 157.993H137.308L142.92 122.297Z" fill="#F0F0F0"/>
<path d="M163.999 122.297H166.393L172.005 157.993H169.611L163.999 122.297Z" fill="#F0F0F0"/>
<path d="M155.018 122.297H157.411L163.019 157.993H160.625L155.018 122.297Z" fill="#F0F0F0"/>
<path d="M231.144 15.9209H184.484V113.406H231.144V15.9209Z" fill="#E6E6E6"/>
<path d="M234.387 15.9209H185.348V113.406H234.387V15.9209Z" fill="#F0F0F0"/>
<path d="M230.276 109.297V20.0308L189.45 20.0308V109.297H230.276Z" fill="#FAFAFA"/>
<path d="M203.927 109.298L208.984 20.0269H215.808L210.751 109.298H203.927Z" fill="white"/>
<path d="M212.039 109.298L217.097 20.0269H223.92L218.863 109.298H212.039Z" fill="white"/>
<path d="M139.643 179.785C191.319 179.785 233.21 177.339 233.21 174.322C233.21 171.305 191.319 168.859 139.643 168.859C87.9682 168.859 46.0771 171.305 46.0771 174.322C46.0771 177.339 87.9682 179.785 139.643 179.785Z" fill="#F5F5F5"/>
<path d="M135.208 32.139L127.724 141.437H218.988L227.254 20.6875H147.446L135.208 32.139Z" fill="#58B368"/>
<path opacity="0.8" d="M135.208 32.139L127.724 141.437H218.988L227.254 20.6875H147.446L135.208 32.139Z" fill="white"/>
<path d="M211.519 57.5862C217.667 51.6448 218.153 42.1736 212.605 36.4317C207.056 30.6898 197.574 30.8515 191.425 36.7929C185.277 42.7343 184.791 52.2055 190.34 57.9474C195.889 63.6893 205.371 63.5276 211.519 57.5862Z" fill="#58B368"/>
<path d="M210.99 57.0407C216.815 51.4123 217.275 42.4403 212.019 37.0012C206.763 31.5621 197.78 31.7156 191.956 37.344C186.132 42.9724 185.671 51.9444 190.927 57.3835C196.183 62.8226 205.166 62.6691 210.99 57.0407Z" fill="white"/>
<path d="M197.75 52.117L194.961 51.9336C194.961 51.9336 193.663 58.6124 192.833 59.1722C191.699 59.9588 189.455 61.8601 187.964 62.5502C187.81 63.002 187.778 63.4865 187.872 63.9545C190.188 63.9545 194.474 61.6478 195.212 60.6441C196.906 58.3904 197.75 52.117 197.75 52.117Z" fill="#FFC3BD"/>
<path d="M199.082 47.927C199.927 49.5002 197.297 55.1656 197.297 55.1656L193.716 54.046C193.819 52.3041 194.222 50.5931 194.908 48.9887C195.796 47.1404 198.155 46.1994 199.082 47.927Z" fill="#263238"/>
<path opacity="0.2" d="M196.346 50.8242C196.829 51.9631 196.196 54.7138 195.699 56.4559C194.488 54.3808 194.319 52.4505 196.346 50.8242Z" fill="black"/>
<path d="M196.332 48.208C195.781 50.2203 194.7 55.5045 195.584 63.7999H205.008C205.225 62.2219 204.95 54.5152 207.165 47.0787C206.042 46.8566 204.906 46.7114 203.763 46.6444C202.307 46.5599 200.847 46.5599 199.391 46.6444C198.769 46.7021 198.154 46.8152 197.552 46.9822C197.26 47.063 196.994 47.2184 196.78 47.4334C196.566 47.6483 196.411 47.9152 196.332 48.208Z" fill="#263238"/>
<path opacity="0.2" d="M204.762 48.9115C204.477 50.1372 204.588 53.0665 205.443 56.4541C205.696 53.5366 206.201 50.6464 206.953 47.816C206.282 47.734 205.032 47.7726 204.762 48.9115Z" fill="black"/>
<path d="M203.57 42.5518C203.165 43.9609 202.866 45.703 203.763 46.644C203.763 46.644 203.063 48.0917 200.453 48.0917C198.064 48.0917 199.391 46.644 199.391 46.644C200.993 46.2676 201.094 44.3276 200.921 43.237L203.57 42.5518Z" fill="#FFC3BD"/>
<path d="M200.448 48.0646C200.692 48.4735 200.822 48.9399 200.825 49.4158C200.825 49.4158 204.203 48.2625 204.203 46.5686C204.203 46.5686 203.764 46.2936 203.488 46.0861C203.498 46.0716 203.271 47.389 200.448 48.0646Z" fill="white"/>
<path d="M200.356 48.0649C200.052 48.4324 199.825 48.8575 199.69 49.3148C199.292 49.0104 199.001 48.5872 198.86 48.1066C198.718 47.6259 198.733 47.1127 198.903 46.6413C199.184 46.529 199.472 46.4387 199.767 46.3711C199.767 46.3711 199.357 47.703 200.356 48.0649Z" fill="white"/>
<path opacity="0.2" d="M200.931 43.237C201.07 44.0121 200.991 44.8105 200.704 45.5437C200.952 45.5082 201.195 45.4366 201.423 45.3314C202.349 44.9116 202.846 44.2552 203.392 43.2853C203.445 43.0343 203.512 42.8027 203.58 42.5518L200.931 43.237Z" fill="black"/>
<path d="M198.638 41.9322C198.71 42.1458 198.826 42.3421 198.978 42.5084C199.13 42.6746 199.315 42.8071 199.521 42.8973C200.086 43.1386 200.487 42.6223 200.453 42.0287C200.419 41.4351 200.062 40.7209 199.439 40.7306C199.299 40.7373 199.162 40.7769 199.04 40.8461C198.918 40.9154 198.814 41.0123 198.736 41.1292C198.658 41.2461 198.608 41.3797 198.591 41.5191C198.575 41.6586 198.591 41.8001 198.638 41.9322Z" fill="#FFC3BD"/>
<path opacity="0.2" d="M198.638 41.9322C198.71 42.1458 198.826 42.3421 198.978 42.5084C199.13 42.6746 199.315 42.8071 199.521 42.8973C200.086 43.1386 200.487 42.6223 200.453 42.0287C200.419 41.4351 200.062 40.7209 199.439 40.7306C199.299 40.7373 199.162 40.7769 199.04 40.8461C198.918 40.9154 198.814 41.0123 198.736 41.1292C198.658 41.2461 198.608 41.3797 198.591 41.5191C198.575 41.6586 198.591 41.8001 198.638 41.9322Z" fill="black"/>
<path d="M201.162 37.9889C200.978 36.8742 199.333 38.8334 199.685 39.8661C200.037 40.8988 201.364 39.2436 201.162 37.9889Z" fill="#263238"/>
<path d="M204.685 40.818C204.082 42.6856 203.821 43.8003 202.639 44.6014C202.281 44.875 201.852 45.04 201.403 45.0769C200.955 45.1138 200.505 45.021 200.107 44.8095C199.71 44.598 199.381 44.2768 199.161 43.884C198.941 43.4912 198.838 43.0434 198.865 42.5939C198.913 40.8277 199.893 38.0722 201.891 37.6379C203.889 37.2035 205.274 38.9505 204.685 40.818Z" fill="#FFC3BD"/>
<path d="M204.135 39.7137C202.098 39.4241 199.174 39.0477 200.235 37.3829C201.244 35.7952 205.269 36.0847 204.048 36.7893C205.626 36.881 207.633 37.6386 206.118 38.1598C207.339 39.0284 206.856 41.3544 204.526 42.1652C203.855 41.1904 203.343 40.7609 204.135 39.7137Z" fill="#263238"/>
<path d="M204.974 43.0444C204.63 43.3971 204.167 43.6102 203.676 43.6428C203.039 43.6766 202.918 43.0685 203.261 42.5425C203.603 42.0165 204.269 41.4808 204.829 41.698C205.389 41.9152 205.403 42.6004 204.974 43.0444Z" fill="#FFC3BD"/>
<path d="M201.756 40.8579C201.717 41.0123 201.606 41.1185 201.505 41.104C201.403 41.0895 201.36 40.9496 201.403 40.7952C201.447 40.6407 201.553 40.5298 201.65 40.5491C201.746 40.5684 201.799 40.7035 201.756 40.8579Z" fill="#263238"/>
<path d="M200.062 40.5602C200.023 40.7146 199.912 40.8256 199.816 40.8063C199.719 40.787 199.671 40.6519 199.71 40.4974C199.748 40.343 199.859 40.2368 199.961 40.2513C200.062 40.2658 200.105 40.4057 200.062 40.5602Z" fill="#263238"/>
<path d="M200.583 40.7305C200.28 41.1688 199.923 41.5675 199.521 41.9176C199.607 42.0105 199.713 42.0824 199.831 42.1276C199.949 42.1728 200.076 42.1901 200.202 42.1782L200.583 40.7305Z" fill="#ED847E"/>
<path d="M200.53 42.682C200.524 42.6809 200.519 42.6786 200.514 42.6753C200.509 42.672 200.505 42.6677 200.502 42.6627C200.499 42.6578 200.496 42.6522 200.496 42.6464C200.495 42.6406 200.495 42.6347 200.496 42.629C200.5 42.6171 200.508 42.607 200.519 42.6C200.529 42.593 200.542 42.5896 200.554 42.5904C200.747 42.6243 200.945 42.6146 201.134 42.562C201.323 42.5094 201.497 42.4152 201.645 42.2863C201.649 42.2821 201.654 42.2787 201.659 42.2764C201.664 42.2741 201.67 42.2729 201.676 42.2729C201.682 42.2729 201.688 42.2741 201.693 42.2764C201.699 42.2787 201.703 42.2821 201.707 42.2863C201.716 42.2954 201.721 42.3075 201.721 42.3201C201.721 42.3328 201.716 42.3449 201.707 42.3539C201.549 42.4947 201.361 42.5975 201.157 42.6544C200.953 42.7112 200.738 42.7207 200.53 42.682Z" fill="#263238"/>
<path d="M202.412 40.3854C202.399 40.3834 202.387 40.3779 202.376 40.3694C202.366 40.3609 202.359 40.3497 202.354 40.3371C202.314 40.2349 202.249 40.1445 202.165 40.0744C202.08 40.0044 201.98 39.9569 201.872 39.9366C201.86 39.9362 201.849 39.9333 201.839 39.9279C201.828 39.9226 201.819 39.915 201.812 39.9057C201.805 39.8965 201.801 39.8857 201.798 39.8744C201.796 39.863 201.796 39.8513 201.799 39.8401C201.804 39.8158 201.817 39.7941 201.837 39.779C201.856 39.7639 201.881 39.7564 201.905 39.758C202.042 39.778 202.171 39.833 202.28 39.9175C202.389 40.0021 202.475 40.1134 202.528 40.2406C202.536 40.2637 202.535 40.289 202.525 40.3114C202.515 40.3338 202.497 40.3516 202.475 40.3612C202.467 40.3695 202.457 40.3759 202.446 40.38C202.435 40.3842 202.424 40.386 202.412 40.3854Z" fill="#263238"/>
<path d="M199.483 39.8091C199.472 39.8132 199.46 39.8132 199.449 39.8091C199.44 39.801 199.434 39.7913 199.429 39.7805C199.425 39.7697 199.422 39.7581 199.422 39.7464C199.422 39.7347 199.425 39.7231 199.429 39.7123C199.434 39.7015 199.44 39.6918 199.449 39.6836C199.545 39.5699 199.666 39.4793 199.802 39.4183C199.938 39.3573 200.086 39.3276 200.236 39.3314C200.247 39.3331 200.258 39.3372 200.268 39.3432C200.278 39.3493 200.286 39.3573 200.293 39.3668C200.3 39.3762 200.305 39.3869 200.307 39.3982C200.31 39.4096 200.31 39.4213 200.308 39.4327C200.303 39.4579 200.289 39.4803 200.269 39.4955C200.248 39.5108 200.222 39.5176 200.197 39.5147C200.079 39.5133 199.963 39.5381 199.856 39.5874C199.749 39.6366 199.655 39.7091 199.579 39.7995C199.566 39.8105 199.55 39.8173 199.532 39.819C199.515 39.8207 199.498 39.8173 199.483 39.8091Z" fill="#263238"/>
<path d="M207.995 49.6597L205.443 51.0157C205.443 51.0157 207.909 57.0961 207.489 58.0082C206.914 59.2532 205.964 61.9894 205.028 63.3455C205.138 63.7974 205.374 64.209 205.708 64.5326C207.754 63.2972 210.268 59.1229 210.379 57.9165C210.63 55.161 207.995 49.6597 207.995 49.6597Z" fill="#FFC3BD"/>
<path d="M207.166 47.0783C208.951 47.3919 210.264 53.7522 210.264 53.7522L205.863 55.0118C205.237 53.5491 204.72 52.0427 204.314 50.5045C203.73 48.1496 205.274 46.7356 207.166 47.0783Z" fill="#263238"/>
<path d="M205.954 63.1181L204.135 62.9878L204.916 65.005C204.916 65.005 206.519 65.0677 206.895 63.842L205.954 63.1181Z" fill="#FFC3BD"/>
<path d="M202.562 63.9143L203.368 65.6999L204.917 65.005L204.135 62.9878L202.562 63.9143Z" fill="#FFC3BD"/>
<path d="M206.663 128.555C212.811 122.614 213.297 113.142 207.748 107.4C202.199 101.659 192.717 101.82 186.569 107.762C180.421 113.703 179.935 123.174 185.483 128.916C191.032 134.658 200.514 134.496 206.663 128.555Z" fill="#58B368"/>
<path d="M206.133 128.003C211.957 122.374 212.418 113.402 207.162 107.963C201.905 102.524 192.923 102.678 187.099 108.306C181.274 113.934 180.814 122.906 186.07 128.345C191.326 133.785 200.308 133.631 206.133 128.003Z" fill="white"/>
<path d="M191.684 123.222L189.064 122.368C189.064 122.368 186.212 128.642 185.28 129.018C184.006 129.501 181.42 130.857 179.823 131.18C179.563 131.591 179.414 132.061 179.388 132.546C181.598 133.115 186.246 131.86 187.196 131.045C189.349 129.192 191.684 123.222 191.684 123.222Z" fill="#FFB573"/>
<path d="M193.967 119.393C194.391 121.149 190.511 126.124 190.511 126.124L187.37 124.136C187.887 122.447 188.685 120.856 189.73 119.431C191.023 117.824 193.499 117.467 193.967 119.393Z" fill="#58B368"/>
<path opacity="0.3" d="M193.967 119.393C194.391 121.149 190.511 126.124 190.511 126.124L187.37 124.136C187.887 122.447 188.685 120.856 189.73 119.431C191.023 117.824 193.499 117.467 193.967 119.393Z" fill="black"/>
<path opacity="0.2" d="M191.515 121.579C191.809 122.795 191.544 124.74 190.767 126.405C190.077 125.358 189.271 122.863 191.515 121.579Z" fill="black"/>
<path d="M191.472 119.194C190.922 121.207 189.846 126.491 190.724 134.786H200.153C200.371 133.208 200.091 125.502 202.306 118.065C201.183 117.843 200.046 117.698 198.904 117.631C197.447 117.546 195.988 117.546 194.531 117.631C193.91 117.689 193.295 117.802 192.693 117.969C192.401 118.05 192.135 118.206 191.921 118.421C191.707 118.635 191.552 118.902 191.472 119.194Z" fill="#58B368"/>
<path opacity="0.3" d="M191.472 119.194C190.922 121.207 189.846 126.491 190.724 134.786H200.153C200.371 133.208 200.091 125.502 202.306 118.065C201.183 117.843 200.046 117.698 198.904 117.631C197.447 117.546 195.988 117.546 194.531 117.631C193.91 117.689 193.295 117.802 192.693 117.969C192.401 118.05 192.135 118.206 191.921 118.421C191.707 118.635 191.552 118.902 191.472 119.194Z" fill="black"/>
<path opacity="0.2" d="M199.936 121.459C199.652 122.684 199.401 125.594 200.583 127.418C200.838 124.501 201.345 121.611 202.098 118.78C201.413 118.713 200.207 120.31 199.936 121.459Z" fill="black"/>
<g opacity="0.95">
<path opacity="0.95" d="M195.473 121.396L194.956 121.622L194.561 121.265C194.058 120.849 193.693 120.29 193.513 119.662C193.333 119.034 193.347 118.367 193.552 117.747C193.871 117.684 194.193 117.637 194.517 117.607C195.973 117.523 197.433 117.523 198.889 117.607C199.227 117.607 199.565 117.651 199.893 117.685L199.565 118.104C198.458 119.487 197.061 120.611 195.473 121.396Z" fill="white"/>
</g>
<path d="M198.715 113.516C198.305 114.925 198.006 116.667 198.903 117.608C197.888 118.864 196.614 119.886 195.168 120.605C194.726 120.26 194.42 119.771 194.303 119.222C194.187 118.674 194.267 118.102 194.531 117.608C196.138 117.231 196.235 115.291 196.061 114.201L198.715 113.516Z" fill="#FFB573"/>
<path opacity="0.2" d="M196.061 114.201C196.2 114.976 196.122 115.774 195.834 116.508C196.084 116.471 196.328 116.4 196.558 116.295C197.48 115.875 197.977 115.219 198.522 114.249C198.58 113.998 198.643 113.767 198.715 113.516L196.061 114.201Z" fill="black"/>
<path d="M193.779 112.921C193.85 113.136 193.966 113.333 194.119 113.499C194.273 113.665 194.459 113.797 194.667 113.887C195.231 114.128 195.632 113.612 195.593 113.018C195.555 112.424 195.202 111.71 194.585 111.72C194.444 111.726 194.307 111.765 194.184 111.834C194.061 111.903 193.956 112 193.878 112.117C193.799 112.234 193.749 112.367 193.732 112.507C193.715 112.647 193.731 112.789 193.779 112.921Z" fill="#FFB573"/>
<path opacity="0.2" d="M193.779 112.921C193.85 113.136 193.966 113.333 194.119 113.499C194.273 113.665 194.459 113.797 194.667 113.887C195.231 114.128 195.632 113.612 195.593 113.018C195.555 112.424 195.202 111.71 194.585 111.72C194.444 111.726 194.307 111.765 194.184 111.834C194.061 111.903 193.956 112 193.878 112.117C193.799 112.234 193.749 112.367 193.732 112.507C193.715 112.647 193.731 112.789 193.779 112.921Z" fill="black"/>
<path d="M196.013 109.597C195.83 108.337 194.43 109.78 194.271 110.702C194.112 111.623 194.884 112.555 195.41 111.667C195.936 110.779 196.105 110.277 196.013 109.597Z" fill="#263238"/>
<path d="M199.825 111.784C199.222 113.651 198.961 114.761 197.779 115.567C197.421 115.841 196.993 116.006 196.544 116.043C196.095 116.08 195.645 115.987 195.248 115.775C194.85 115.564 194.522 115.243 194.301 114.85C194.081 114.457 193.978 114.009 194.005 113.56C194.054 111.793 195.033 109.038 197.031 108.604C199.029 108.169 200.448 109.916 199.825 111.784Z" fill="#FFB573"/>
<path d="M198.913 113.738C198.189 113.255 198.059 113.072 198.431 112.637C199.058 111.933 198.127 111.831 198.619 110.958C199.304 109.742 197.118 110.596 197.079 109.713C197.046 108.994 195.149 110.287 194.951 109.457C194.667 108.212 196.491 108.444 196.809 107.836C197.128 107.228 199 107.136 199.299 108.024C199.598 108.912 200.539 108.202 201.152 109.283C201.765 110.364 200.496 110.446 201.109 111.498C201.591 112.343 200.66 112.946 199.999 113.617C199.603 114.051 199.362 114.042 198.913 113.738Z" fill="#263238"/>
<path d="M200.235 113.753C199.923 114.136 199.479 114.389 198.99 114.462C198.353 114.549 198.179 113.98 198.479 113.405C198.778 112.831 199.395 112.266 199.975 112.44C200.554 112.614 200.626 113.275 200.235 113.753Z" fill="#FFB573"/>
<path d="M196.896 111.821C196.857 111.975 196.746 112.081 196.65 112.067C196.553 112.052 196.505 111.912 196.544 111.758C196.582 111.604 196.693 111.493 196.795 111.512C196.896 111.531 196.939 111.666 196.896 111.821Z" fill="#263238"/>
<path d="M195.207 111.522C195.163 111.677 195.052 111.787 194.956 111.768C194.859 111.749 194.811 111.614 194.85 111.459C194.888 111.305 195.004 111.199 195.101 111.213C195.197 111.228 195.245 111.368 195.207 111.522Z" fill="#263238"/>
<path d="M195.723 111.696C195.422 112.135 195.067 112.534 194.666 112.883C194.752 112.976 194.858 113.048 194.976 113.093C195.094 113.139 195.221 113.156 195.347 113.144L195.723 111.696Z" fill="#ED893E"/>
<path d="M195.67 113.648C195.664 113.647 195.659 113.645 195.654 113.641C195.65 113.638 195.646 113.634 195.643 113.628C195.64 113.623 195.639 113.618 195.638 113.612C195.638 113.606 195.639 113.6 195.641 113.595C195.644 113.583 195.65 113.572 195.66 113.565C195.67 113.558 195.682 113.555 195.694 113.556C195.887 113.59 196.085 113.581 196.274 113.528C196.463 113.475 196.637 113.381 196.785 113.252C196.789 113.248 196.794 113.245 196.799 113.243C196.805 113.24 196.81 113.239 196.816 113.239C196.822 113.239 196.828 113.24 196.833 113.243C196.839 113.245 196.844 113.248 196.848 113.252C196.852 113.256 196.855 113.261 196.857 113.267C196.859 113.272 196.861 113.278 196.861 113.284C196.861 113.289 196.859 113.295 196.857 113.301C196.855 113.306 196.852 113.311 196.848 113.315C196.69 113.457 196.502 113.56 196.298 113.618C196.093 113.676 195.879 113.686 195.67 113.648Z" fill="#263238"/>
<path d="M197.552 111.348C197.539 111.346 197.527 111.341 197.517 111.332C197.506 111.324 197.499 111.313 197.494 111.3C197.454 111.198 197.389 111.107 197.305 111.037C197.22 110.967 197.12 110.92 197.012 110.899C197 110.898 196.99 110.895 196.98 110.889C196.97 110.884 196.961 110.876 196.954 110.867C196.948 110.858 196.943 110.848 196.94 110.837C196.938 110.826 196.937 110.814 196.939 110.803C196.944 110.779 196.957 110.757 196.977 110.742C196.996 110.727 197.021 110.719 197.046 110.721C197.182 110.741 197.311 110.796 197.42 110.88C197.529 110.965 197.615 111.076 197.668 111.204C197.676 111.227 197.675 111.252 197.665 111.274C197.655 111.297 197.637 111.315 197.615 111.324C197.607 111.332 197.597 111.339 197.586 111.343C197.575 111.347 197.564 111.349 197.552 111.348Z" fill="#263238"/>
<path d="M194.604 110.776C194.593 110.779 194.581 110.779 194.57 110.776C194.562 110.768 194.555 110.758 194.55 110.748C194.546 110.737 194.543 110.725 194.543 110.714C194.543 110.702 194.546 110.69 194.55 110.679C194.555 110.669 194.562 110.659 194.57 110.651C194.665 110.536 194.784 110.444 194.92 110.383C195.055 110.322 195.203 110.293 195.352 110.299C195.363 110.3 195.375 110.304 195.384 110.31C195.394 110.316 195.403 110.324 195.41 110.334C195.416 110.343 195.421 110.354 195.424 110.365C195.426 110.377 195.426 110.388 195.424 110.4C195.42 110.424 195.406 110.446 195.387 110.461C195.367 110.476 195.343 110.484 195.318 110.482C195.2 110.48 195.084 110.504 194.977 110.554C194.87 110.603 194.775 110.676 194.701 110.767C194.687 110.777 194.671 110.783 194.654 110.784C194.637 110.786 194.62 110.783 194.604 110.776Z" fill="#263238"/>
<path d="M203.343 120.841L200.66 121.864C200.66 121.864 202.296 128.268 201.765 129.127C201.041 130.3 199.753 132.915 198.658 134.151C198.706 134.616 198.885 135.057 199.174 135.425C201.341 134.46 204.357 130.599 204.622 129.407C205.216 126.68 203.343 120.841 203.343 120.841Z" fill="#FFB573"/>
<path d="M202.861 118.15C204.574 118.695 205.042 125.224 205.042 125.224L200.554 125.919C200.128 124.375 199.816 122.803 199.618 121.214C199.338 118.782 201.018 117.566 202.861 118.15Z" fill="#58B368"/>
<path opacity="0.3" d="M202.861 118.15C204.574 118.695 205.042 125.224 205.042 125.224L200.554 125.919C200.128 124.375 199.816 122.803 199.618 121.214C199.338 118.782 201.018 117.566 202.861 118.15Z" fill="black"/>
<path d="M199.584 134.044L197.813 133.677L198.325 135.796C198.325 135.796 199.888 136.066 200.419 134.888L199.584 134.044Z" fill="#FFB573"/>
<path d="M196.153 134.406L196.712 136.293L198.324 135.796L197.813 133.677L196.153 134.406Z" fill="#FFB573"/>
<path d="M164.468 93.074C170.616 87.1326 171.102 77.6614 165.553 71.9195C160.004 66.1776 150.522 66.3393 144.374 72.2807C138.225 78.2221 137.74 87.6933 143.288 93.4352C148.837 99.1771 158.319 99.0154 164.468 93.074Z" fill="#58B368"/>
<path d="M163.937 92.5251C169.762 86.8967 170.222 77.9247 164.966 72.4856C159.71 67.0465 150.728 67.2 144.903 72.8284C139.079 78.4568 138.618 87.4288 143.875 92.8679C149.131 98.307 158.113 98.1535 163.937 92.5251Z" fill="white"/>
<path d="M160.35 86.0195C160.423 87.1681 160.481 88.3262 160.524 89.4796L160.664 92.9252L160.688 93.345L160.722 93.7118C160.761 93.9627 160.79 94.2233 160.843 94.4935C160.944 95.0244 161.074 95.5648 161.229 96.1053C161.518 97.1911 161.871 98.2866 162.194 99.3675L161.195 99.8501C160.591 98.8276 160.057 97.7651 159.598 96.6699C159.376 96.115 159.168 95.5504 158.99 94.9568C158.894 94.6556 158.815 94.3496 158.753 94.0399L158.671 93.5573L158.623 93.1134C158.367 90.7777 158.198 88.4758 158.106 86.1547L160.35 86.0195Z" fill="#FF8B7B"/>
<path d="M159.82 83.4829C160.698 83.7097 161.075 87.4062 161.075 87.4062L157.499 89.7564C157.499 89.7564 156.384 85.3794 157.142 84.395C157.899 83.4105 158.532 83.1548 159.82 83.4829Z" fill="#58B368"/>
<path opacity="0.2" d="M159.68 84.3164L160.115 88.037L158.662 88.9829L159.68 84.3164Z" fill="black"/>
<path d="M162.223 99.1172L163.188 101.168L161.287 101.221C161.287 101.221 160.732 99.7735 161.321 99.0352L162.223 99.1172Z" fill="#FFB573"/>
<path d="M150.019 73.968C148.509 74.1852 145.348 81.4045 150.502 84.7729C155.655 88.1412 159.458 84.3144 159.458 84.3144C159.458 84.3144 156.321 80.5889 156.775 78.1568C157.229 75.7246 159.188 72.6603 155.173 71.6372C152.345 70.9375 148.542 71.6131 150.019 73.968Z" fill="#263238"/>
<path d="M163.276 102.177L161.664 102.042L161.307 101.217L163.213 101.164L163.276 102.177Z" fill="#FFB573"/>
<path d="M159.821 83.4832C159.821 83.4832 160.829 83.8499 157.89 96.6285H149.035C149.431 93.0285 149.585 90.8086 148.369 83.4204C149.62 83.1691 150.888 83.0079 152.162 82.9379C153.499 82.8436 154.841 82.8436 156.177 82.9379C157.89 83.0875 159.821 83.4832 159.821 83.4832Z" fill="#58B368"/>
<path opacity="0.2" d="M148.9 86.3516C149.686 86.5494 150.347 87.4229 150.169 89.0347C150.063 89.7768 149.76 90.4769 149.291 91.0615C149.238 89.8213 149.098 88.3832 148.847 86.5446L148.9 86.3516Z" fill="black"/>
<path d="M155.516 85.7599C155.516 85.7599 153.986 86.9567 153.899 88.2258C152.755 87.3427 151.293 84.9395 151.23 83.4001C151.23 83.2721 151.281 83.1494 151.372 83.0589C151.462 82.9684 151.585 82.9175 151.713 82.9175C151.822 82.9094 151.93 82.8949 152.036 82.8741C152.081 82.8643 152.127 82.8649 152.172 82.8758C152.216 82.8867 152.257 82.9075 152.292 82.9368L155.516 85.7599Z" fill="#FAFAFA"/>
<path d="M155.516 85.7602C155.922 86.0137 156.262 86.3613 156.507 86.7737C156.751 87.186 156.893 87.6511 156.92 88.1296C158.204 87.2368 157.764 84.5682 157.171 83.2604C157.125 83.1587 157.053 83.0708 156.962 83.0056C156.872 82.9404 156.766 82.9001 156.654 82.8889C156.481 82.8889 156.346 82.8454 156.254 82.8261C156.221 82.8204 156.187 82.8277 156.159 82.8466C156.131 82.8655 156.111 82.8945 156.104 82.9275L155.516 85.7602Z" fill="#FAFAFA"/>
<path d="M152.866 78.4072C153.03 79.7005 153.122 82.07 152.162 82.9289C153.062 84.1041 154.206 85.0705 155.516 85.7617C157.407 84.3139 156.177 82.9289 156.177 82.9289C154.758 82.5863 154.869 81.5198 155.187 80.5161L152.866 78.4072Z" fill="#FF8B7B"/>
<path opacity="0.2" d="M153.812 79.2695L155.187 80.5146C155.109 80.7472 155.05 80.9862 155.013 81.2288C154.468 81.1468 153.638 80.6787 153.565 80.0803C153.583 79.7945 153.667 79.5168 153.812 79.2695Z" fill="black"/>
<path d="M150.844 76.3304C151.298 78.4103 151.447 79.2982 152.692 80.1427C153.109 80.4383 153.597 80.6183 154.106 80.6642C154.616 80.7101 155.128 80.6205 155.591 80.4043C156.054 80.1881 156.452 79.8531 156.744 79.4334C157.036 79.0136 157.211 78.5241 157.253 78.0146C157.421 76.0215 156.649 72.9572 154.43 72.5808C153.926 72.5022 153.411 72.5465 152.928 72.7099C152.446 72.8733 152.01 73.151 151.658 73.5193C151.305 73.8876 151.048 74.3355 150.906 74.825C150.764 75.3145 150.743 75.8309 150.844 76.3304Z" fill="#FF8B7B"/>
<path d="M151.438 78.2048C152.774 76.9308 152.822 75.3528 152.485 74.8606C153.633 74.7641 156.606 74.0402 156.128 72.9303C155.65 71.8204 151.023 71.222 150.386 74.0595C148.851 75.3432 149.831 77.9153 151.438 78.2048Z" fill="#263238"/>
<path d="M154.338 76.1445C154.367 76.3183 154.478 76.4341 154.594 76.4099C154.71 76.3858 154.777 76.2266 154.748 76.0577C154.719 75.8888 154.609 75.7633 154.498 75.7923C154.387 75.8212 154.314 75.9756 154.338 76.1445Z" fill="#263238"/>
<path d="M156.307 75.7153C156.331 75.889 156.447 76.0048 156.558 75.9807C156.669 75.9566 156.746 75.7973 156.717 75.6236C156.688 75.4498 156.577 75.334 156.466 75.3582C156.401 75.3887 156.349 75.4415 156.32 75.5071C156.291 75.5727 156.286 75.6465 156.307 75.7153Z" fill="#263238"/>
<path d="M156.413 75.3803L156.814 75.168C156.814 75.168 156.65 75.5347 156.413 75.3803Z" fill="#263238"/>
<path d="M155.747 76.1602C155.962 76.518 156.226 76.843 156.534 77.1253C156.456 77.2069 156.363 77.2714 156.259 77.3146C156.155 77.3579 156.043 77.3788 155.93 77.3762L155.747 76.1602Z" fill="#FF5652"/>
<path d="M155.086 78.2427C155.174 78.238 155.261 78.2267 155.347 78.2089C155.36 78.2055 155.372 78.1972 155.38 78.1857C155.388 78.1742 155.392 78.1601 155.39 78.1462C155.39 78.1394 155.388 78.1329 155.385 78.127C155.381 78.1211 155.377 78.1161 155.371 78.1124C155.365 78.1086 155.359 78.1062 155.352 78.1054C155.345 78.1046 155.339 78.1053 155.332 78.1076C155.123 78.1619 154.904 78.1643 154.694 78.1147C154.484 78.0651 154.289 77.9649 154.126 77.8228C154.116 77.8137 154.103 77.8086 154.09 77.8086C154.076 77.8086 154.063 77.8137 154.053 77.8228C154.048 77.8274 154.044 77.8329 154.041 77.8392C154.039 77.8454 154.037 77.8522 154.037 77.859C154.037 77.8659 154.039 77.8727 154.041 77.8789C154.044 77.8851 154.048 77.8907 154.053 77.8952C154.192 78.0224 154.355 78.1191 154.533 78.179C154.711 78.2388 154.899 78.2605 155.086 78.2427Z" fill="#263238"/>
<path d="M150.564 78.4079C150.67 78.5791 150.811 78.7264 150.977 78.8403C151.143 78.9541 151.331 79.032 151.529 79.069C152.07 79.1703 152.326 78.6685 152.166 78.1811C152.007 77.6937 151.568 77.1628 151.032 77.2835C150.916 77.3091 150.807 77.3625 150.715 77.4391C150.623 77.5158 150.551 77.6134 150.505 77.7238C150.459 77.8341 150.441 77.9539 150.451 78.073C150.461 78.1921 150.5 78.307 150.564 78.4079Z" fill="#FF8B7B"/>
<path d="M153.416 75.7638C153.438 75.7613 153.459 75.7521 153.475 75.7374C153.492 75.7227 153.503 75.7033 153.508 75.6818C153.634 75.3555 153.884 75.092 154.203 74.9483C154.216 74.943 154.228 74.9351 154.238 74.9252C154.248 74.9153 154.256 74.9034 154.261 74.8904C154.266 74.8774 154.269 74.8634 154.269 74.8493C154.269 74.8352 154.266 74.8213 154.261 74.8083C154.255 74.7964 154.248 74.7857 154.238 74.7768C154.229 74.7679 154.218 74.761 154.206 74.7565C154.194 74.752 154.181 74.75 154.168 74.7506C154.155 74.7512 154.142 74.7544 154.13 74.76C153.941 74.8447 153.77 74.9664 153.628 75.1181C153.487 75.2698 153.377 75.4483 153.305 75.6432C153.302 75.6562 153.301 75.6698 153.303 75.6831C153.305 75.6965 153.31 75.7093 153.317 75.7206C153.324 75.732 153.334 75.7417 153.345 75.7492C153.356 75.7566 153.369 75.7616 153.382 75.7638C153.388 75.7664 153.393 75.7677 153.399 75.7677C153.405 75.7677 153.411 75.7664 153.416 75.7638Z" fill="#263238"/>
<path d="M156.784 74.3426C156.802 74.3426 156.82 74.3383 156.836 74.3298C156.852 74.3214 156.866 74.3093 156.876 74.2944C156.894 74.2747 156.905 74.2488 156.905 74.222C156.905 74.1951 156.894 74.1692 156.876 74.1496C156.742 74.0573 156.589 73.9983 156.427 73.9773C156.266 73.9563 156.102 73.974 155.95 74.0289C155.924 74.0397 155.904 74.0594 155.892 74.0844C155.881 74.1094 155.879 74.1378 155.887 74.1641C155.892 74.177 155.899 74.1888 155.908 74.1987C155.918 74.2087 155.929 74.2166 155.942 74.222C155.955 74.2275 155.968 74.2302 155.982 74.2302C155.996 74.2302 156.009 74.2274 156.022 74.222C156.142 74.1778 156.272 74.1639 156.399 74.1816C156.526 74.1992 156.647 74.2479 156.751 74.3233L156.784 74.3426Z" fill="#263238"/>
<path d="M154.449 75.81L154.85 75.5977C154.85 75.5977 154.681 75.9692 154.449 75.81Z" fill="#263238"/>
<path d="M148.938 96.115L148.658 96.9064C148.619 96.9692 148.692 97.0319 148.793 97.0319H157.894C157.977 97.0319 158.044 96.9933 158.054 96.9402L158.184 96.1488C158.184 96.0957 158.131 96.0475 158.039 96.0475H149.088C149.059 96.0451 149.03 96.05 149.004 96.0618C148.978 96.0737 148.955 96.092 148.938 96.115Z" fill="#58B368"/>
<path opacity="0.2" d="M148.938 96.115L148.658 96.9064C148.619 96.9692 148.692 97.0319 148.793 97.0319H157.894C157.977 97.0319 158.044 96.9933 158.054 96.9402L158.184 96.1488C158.184 96.0957 158.131 96.0475 158.039 96.0475H149.088C149.059 96.0451 149.03 96.05 149.004 96.0618C148.978 96.0737 148.955 96.092 148.938 96.115Z" fill="white"/>
<path d="M150.101 97.1106H149.86C149.812 97.1106 149.778 97.0865 149.783 97.0575L149.966 96.0296C149.966 96.0007 150.014 95.9766 150.063 95.9766H150.304C150.352 95.9766 150.386 96.0007 150.381 96.0296L150.198 97.0575C150.193 97.0865 150.149 97.1106 150.101 97.1106Z" fill="#58B368"/>
<path opacity="0.4" d="M150.101 97.1106H149.86C149.812 97.1106 149.778 97.0865 149.783 97.0575L149.966 96.0296C149.966 96.0007 150.014 95.9766 150.063 95.9766H150.304C150.352 95.9766 150.386 96.0007 150.381 96.0296L150.198 97.0575C150.193 97.0865 150.149 97.1106 150.101 97.1106Z" fill="black"/>
<path d="M157.214 97.1106H156.973C156.925 97.1106 156.891 97.0865 156.896 97.0575L157.079 96.0296C157.079 96.0007 157.128 95.9766 157.176 95.9766H157.417C157.465 95.9766 157.499 96.0007 157.494 96.0296L157.311 97.0575C157.306 97.0865 157.263 97.1106 157.214 97.1106Z" fill="#58B368"/>
<path opacity="0.4" d="M157.214 97.1106H156.973C156.925 97.1106 156.891 97.0865 156.896 97.0575L157.079 96.0296C157.079 96.0007 157.128 95.9766 157.176 95.9766H157.417C157.465 95.9766 157.499 96.0007 157.494 96.0296L157.311 97.0575C157.306 97.0865 157.263 97.1106 157.214 97.1106Z" fill="black"/>
<path d="M153.672 97.1106H153.431C153.383 97.1106 153.349 97.0865 153.354 97.0575L153.537 96.0296C153.537 96.0007 153.586 95.9766 153.634 95.9766H153.875C153.923 95.9766 153.957 96.0007 153.952 96.0296L153.769 97.0575C153.764 97.0865 153.721 97.1106 153.672 97.1106Z" fill="#58B368"/>
<path opacity="0.4" d="M153.672 97.1106H153.431C153.383 97.1106 153.349 97.0865 153.354 97.0575L153.537 96.0296C153.537 96.0007 153.586 95.9766 153.634 95.9766H153.875C153.923 95.9766 153.957 96.0007 153.952 96.0296L153.769 97.0575C153.764 97.0865 153.721 97.1106 153.672 97.1106Z" fill="black"/>
<path d="M154.227 98.3948L156.442 97.4297L155.684 99.5578C155.684 99.5578 154.299 99.8715 153.754 99.1863L154.227 98.3948Z" fill="#FFB573"/>
<path d="M149.353 86.3794C149.102 87.8271 148.817 89.3183 148.528 90.7853C148.388 91.5188 148.229 92.233 148.074 92.981L147.847 94.0764L147.746 94.559C147.734 94.5934 147.734 94.6308 147.746 94.6652C147.825 94.8685 147.951 95.0504 148.113 95.196C148.337 95.4149 148.583 95.6105 148.846 95.7799C149.438 96.1568 150.055 96.4906 150.695 96.7789C151.346 97.0829 152.022 97.3628 152.707 97.6185C153.392 97.8743 154.092 98.1011 154.782 98.3521L154.531 99.4282C153.017 99.1801 151.527 98.8023 150.077 98.299C149.325 98.041 148.597 97.7181 147.901 97.3338C147.523 97.1233 147.166 96.8777 146.834 96.6003C146.411 96.2668 146.079 95.8319 145.869 95.336C145.751 95.0286 145.705 94.6986 145.734 94.3708C145.758 94.1633 145.768 94.1199 145.782 94.0185L145.825 93.7386L145.994 92.6336C146.115 91.8952 146.221 91.1569 146.351 90.4185C146.598 88.9467 146.834 87.4748 147.138 86.0078L149.353 86.3794Z" fill="#FF8B7B"/>
<path d="M148.369 83.4261C147.466 83.6963 146.192 86.7462 146.192 86.7462L149.088 89.936C149.088 89.936 150.902 86.6545 150.613 85.5108C150.323 84.3671 149.401 83.1172 148.369 83.4261Z" fill="#58B368"/>
<path d="M158.189 97.8776L157.46 99.6293L155.685 99.5617L156.442 97.4336L158.189 97.8776Z" fill="#FFB573"/>
<path opacity="0.3" d="M143.175 45.7699H177.766C178.088 45.7648 178.397 45.6399 178.631 45.4195C178.866 45.199 179.01 44.8989 179.035 44.5779C179.048 44.4253 179.029 44.2717 178.979 44.127C178.928 43.9823 178.848 43.8498 178.744 43.7379C178.639 43.6261 178.512 43.5374 178.371 43.4776C178.23 43.4178 178.079 43.3882 177.925 43.3908H143.339C143.018 43.3956 142.709 43.5197 142.474 43.739C142.238 43.9584 142.093 44.2573 142.065 44.5779C142.053 44.7307 142.072 44.8845 142.122 45.0295C142.172 45.1744 142.252 45.3072 142.357 45.4195C142.461 45.5317 142.588 45.6209 142.729 45.6812C142.87 45.7415 143.022 45.7717 143.175 45.7699Z" fill="#58B368"/>
<path opacity="0.3" d="M152.731 51.0003H177.395C177.717 50.9943 178.026 50.8692 178.261 50.6491C178.497 50.4289 178.642 50.1294 178.669 49.8084C178.682 49.6558 178.663 49.5022 178.613 49.3575C178.562 49.2128 178.482 49.0803 178.378 48.9684C178.273 48.8565 178.146 48.7679 178.005 48.7081C177.864 48.6483 177.712 48.6187 177.559 48.6212H152.895C152.573 48.6261 152.265 48.7502 152.029 48.9695C151.794 49.1889 151.648 49.4878 151.621 49.8084C151.608 49.9612 151.628 50.115 151.678 50.2599C151.728 50.4049 151.808 50.5377 151.912 50.65C152.017 50.7622 152.144 50.8513 152.285 50.9117C152.426 50.972 152.578 51.0022 152.731 51.0003Z" fill="#58B368"/>
<path d="M158.493 40.5363H178.114C178.436 40.5325 178.744 40.4086 178.979 40.189C179.214 39.9693 179.358 39.6698 179.383 39.3492C179.396 39.1968 179.377 39.0434 179.327 38.8988C179.277 38.7542 179.198 38.6216 179.094 38.5094C178.99 38.3973 178.863 38.308 178.723 38.2474C178.583 38.1868 178.431 38.1561 178.278 38.1573H158.657C158.335 38.1623 158.026 38.2872 157.791 38.5077C157.557 38.7281 157.413 39.0282 157.388 39.3492C157.375 39.5014 157.394 39.6546 157.444 39.7989C157.494 39.9433 157.573 40.0756 157.677 40.1874C157.781 40.2992 157.908 40.388 158.048 40.4481C158.188 40.5082 158.34 40.5382 158.493 40.5363Z" fill="white"/>
<path opacity="0.3" d="M158.536 122.203H172.53C172.683 122.201 172.835 122.23 172.976 122.29C173.117 122.35 173.244 122.439 173.349 122.55C173.453 122.662 173.533 122.795 173.584 122.94C173.634 123.084 173.653 123.238 173.64 123.39C173.615 123.712 173.47 124.013 173.234 124.234C172.999 124.454 172.689 124.579 172.366 124.582H158.372C158.218 124.584 158.066 124.554 157.925 124.494C157.784 124.433 157.657 124.344 157.553 124.232C157.448 124.12 157.368 123.987 157.318 123.842C157.268 123.697 157.249 123.543 157.262 123.39C157.288 123.069 157.433 122.77 157.669 122.55C157.905 122.331 158.214 122.207 158.536 122.203Z" fill="#58B368"/>
<path opacity="0.3" d="M139.585 122.203H153.58C153.733 122.201 153.885 122.23 154.026 122.29C154.167 122.35 154.294 122.439 154.399 122.55C154.503 122.662 154.583 122.795 154.633 122.94C154.684 123.084 154.703 123.238 154.69 123.39C154.663 123.711 154.517 124.011 154.282 124.231C154.047 124.451 153.738 124.576 153.416 124.582H139.421C139.268 124.584 139.116 124.554 138.975 124.494C138.834 124.433 138.707 124.344 138.603 124.232C138.498 124.12 138.418 123.987 138.368 123.842C138.318 123.697 138.299 123.543 138.311 123.39C138.337 123.069 138.482 122.769 138.718 122.549C138.953 122.329 139.263 122.206 139.585 122.203Z" fill="#58B368"/>
<path opacity="0.3" d="M148.214 116.969H172.878C173.031 116.966 173.183 116.996 173.324 117.056C173.465 117.115 173.592 117.204 173.697 117.316C173.801 117.428 173.881 117.56 173.932 117.705C173.982 117.85 174.001 118.003 173.988 118.156C173.963 118.477 173.819 118.777 173.584 118.998C173.349 119.218 173.041 119.343 172.719 119.348H148.05C147.897 119.35 147.745 119.32 147.604 119.259C147.463 119.199 147.337 119.11 147.233 118.997C147.128 118.885 147.049 118.752 146.999 118.607C146.95 118.462 146.931 118.309 146.945 118.156C146.97 117.835 147.114 117.536 147.349 117.316C147.584 117.097 147.892 116.973 148.214 116.969Z" fill="#58B368"/>
<path d="M144.952 111.734H173.231C173.384 111.733 173.536 111.763 173.676 111.823C173.817 111.883 173.944 111.973 174.048 112.085C174.152 112.197 174.231 112.33 174.281 112.475C174.331 112.62 174.349 112.774 174.336 112.926C174.31 113.247 174.166 113.547 173.931 113.766C173.697 113.986 173.388 114.11 173.067 114.114H144.802C144.649 114.116 144.497 114.087 144.356 114.027C144.215 113.967 144.088 113.878 143.984 113.766C143.879 113.655 143.799 113.522 143.749 113.377C143.699 113.233 143.679 113.079 143.692 112.926C143.717 112.607 143.86 112.308 144.093 112.088C144.325 111.868 144.632 111.742 144.952 111.734Z" fill="white"/>
<path opacity="0.3" d="M203.729 86.7188H177.96C177.638 86.7239 177.329 86.8488 177.094 87.0693C176.86 87.2897 176.716 87.5898 176.69 87.9108C176.678 88.063 176.697 88.2162 176.747 88.3605C176.797 88.5049 176.876 88.6372 176.98 88.749C177.084 88.8607 177.211 88.9495 177.351 89.0096C177.491 89.0697 177.643 89.0998 177.796 89.0979H203.565C203.887 89.0941 204.195 88.9702 204.43 88.7505C204.665 88.5309 204.809 88.2314 204.834 87.9108C204.848 87.7582 204.829 87.6045 204.779 87.4596C204.73 87.3147 204.65 87.1817 204.546 87.0694C204.442 86.9571 204.316 86.8679 204.175 86.8075C204.034 86.7471 203.882 86.7169 203.729 86.7188Z" fill="#58B368"/>
<path opacity="0.3" d="M190.477 81.4879H178.317C177.995 81.4929 177.686 81.6178 177.451 81.8383C177.217 82.0587 177.073 82.3588 177.047 82.6798C177.035 82.8324 177.054 82.986 177.104 83.1307C177.154 83.2754 177.234 83.4079 177.339 83.5198C177.443 83.6317 177.57 83.7204 177.711 83.7802C177.852 83.84 178.004 83.8695 178.157 83.867H190.313C190.635 83.8622 190.944 83.7381 191.179 83.5187C191.414 83.2994 191.56 83.0004 191.587 82.6798C191.6 82.527 191.581 82.3732 191.531 82.2283C191.481 82.0833 191.401 81.9505 191.296 81.8383C191.192 81.726 191.065 81.6369 190.924 81.5765C190.783 81.5162 190.631 81.486 190.477 81.4879Z" fill="#58B368"/>
<path d="M197.595 76.2467H178.678C178.357 76.2515 178.048 76.3757 177.813 76.595C177.577 76.8143 177.432 77.1133 177.404 77.4339C177.392 77.5867 177.411 77.7405 177.461 77.8854C177.511 78.0304 177.591 78.1632 177.696 78.2754C177.8 78.3877 177.927 78.4768 178.068 78.5372C178.209 78.5975 178.361 78.6277 178.514 78.6258H197.436C197.758 78.6219 198.067 78.4973 198.302 78.2767C198.537 78.056 198.681 77.7553 198.705 77.4339C198.718 77.2813 198.699 77.1277 198.649 76.983C198.598 76.8383 198.518 76.7058 198.414 76.5939C198.309 76.482 198.182 76.3933 198.041 76.3335C197.9 76.2737 197.748 76.2442 197.595 76.2467Z" fill="white"/>
<path opacity="0.3" d="M212.898 81.4879H195.622C195.3 81.4939 194.991 81.619 194.756 81.8392C194.521 82.0593 194.375 82.3588 194.348 82.6798C194.335 82.8324 194.354 82.986 194.405 83.1307C194.455 83.2754 194.535 83.4079 194.639 83.5198C194.744 83.6317 194.871 83.7204 195.012 83.7802C195.153 83.84 195.305 83.8695 195.458 83.867H212.734C213.056 83.8622 213.364 83.7381 213.6 83.5187C213.835 83.2994 213.98 83.0004 214.008 82.6798C214.021 82.527 214.001 82.3732 213.951 82.2283C213.901 82.0833 213.821 81.9505 213.717 81.8383C213.612 81.726 213.485 81.6369 213.344 81.5765C213.203 81.5162 213.051 81.486 212.898 81.4879Z" fill="#58B368"/>
<path opacity="0.3" d="M135.208 32.139H148.132L147.447 20.6875L135.208 32.139Z" fill="#58B368"/>
<path d="M135.208 32.139L149.044 30.4837L147.447 20.6875L135.208 32.139Z" fill="#58B368"/>
<path d="M83.076 66.0606C82.6658 67.0258 82.2122 68.0971 81.8117 69.1298C81.4111 70.1625 81.0009 71.2193 80.6293 72.2665C79.8736 74.3148 79.253 76.4105 78.7714 78.54C78.7039 78.8006 78.6701 79.0563 78.6218 79.3121L78.5543 79.6981L78.5012 80.0022C78.4534 80.4316 78.4437 80.8644 78.4722 81.2955C78.5554 82.35 78.6988 83.3989 78.9017 84.437C79.3167 86.6038 79.8669 88.8477 80.4122 91.0483L77.9607 92.0858C76.7428 90.0031 75.7156 87.8146 74.8915 85.5469C74.4509 84.3548 74.1103 83.128 73.8733 81.8794C73.732 81.1612 73.6689 80.4299 73.6851 79.6981V79.3845C73.6851 79.2831 73.6851 79.2204 73.6851 79.1335L73.7334 78.651C73.7671 78.3373 73.7864 78.014 73.8395 77.6858C74.1972 75.2522 74.7606 72.8532 75.5237 70.5148C75.9001 69.3614 76.2862 68.2225 76.735 67.1078C77.1838 65.9931 77.6181 64.8976 78.1827 63.7539L83.076 66.0606Z" fill="#7F3E3B"/>
<path d="M80.3301 90.4531L82.2122 92.2869L78.1055 94.2172C78.1055 94.2172 77.1114 92.4799 77.7966 90.9067L80.3301 90.4531Z" fill="#7F3E3B"/>
<path d="M83.7275 95.0213L80.2626 96.4401L78.1055 94.1961L82.2122 92.2852L83.7275 95.0213Z" fill="#7F3E3B"/>
<path d="M173.325 84.4648C178.747 71.3752 172.531 56.3687 159.442 50.9468C146.352 45.5249 131.346 51.7408 125.924 64.8304C120.502 77.92 126.718 92.9266 139.807 98.3485C152.897 103.77 167.903 97.5544 173.325 84.4648Z" fill="#58B368"/>
<path d="M149.623 98.9525C163.045 98.9525 173.925 88.0719 173.925 74.6501C173.925 61.2282 163.045 50.3477 149.623 50.3477C136.201 50.3477 125.32 61.2282 125.32 74.6501C125.32 88.0719 136.201 98.9525 149.623 98.9525Z" fill="white"/>
<path d="M160.172 80.2422C160.442 82.2304 160.654 84.2282 160.891 86.2213L161.547 92.1714L161.634 92.8856L161.735 93.5274L161.875 94.1934L162.044 94.8738C162.295 95.7859 162.58 96.7124 162.898 97.639C163.516 99.4969 164.24 101.36 164.949 103.213L163.289 104.11C162.15 102.395 161.122 100.609 160.21 98.7634C159.762 97.8272 159.332 96.8765 158.965 95.8679L158.695 95.1055L158.454 94.3092C158.381 94.0341 158.319 93.7494 158.251 93.4695L158.102 92.6974C157.73 90.6803 157.426 88.692 157.136 86.6942C156.847 84.6963 156.591 82.6985 156.379 80.691L160.172 80.2422Z" fill="#FF8B7B"/>
<path d="M158.97 76.0381C160.509 76.429 161.586 82.7652 161.586 82.7652L155.703 86.7657C155.703 86.7657 153.29 79.2569 154.463 77.5679C155.698 75.8065 156.726 75.4687 158.97 76.0381Z" fill="#58B368"/>
<path opacity="0.2" d="M158.835 77.4531L160.018 83.8376L157.634 85.4542L158.835 77.4531Z" fill="black"/>
<path d="M164.93 102.836L166.86 106.349L163.598 106.436C163.598 106.436 162.479 103.936 163.405 102.691L164.93 102.836Z" fill="#FFB573"/>
<path d="M141.048 59.7174C138.49 60.0889 133.91 72.4669 143.152 78.2434C152.393 84.0198 158.464 77.4568 158.464 77.4568C158.464 77.4568 152.649 71.0627 153.155 66.8932C153.662 62.7238 156.649 57.4686 149.642 55.7168C144.676 54.4766 138.244 55.6734 141.048 59.7174Z" fill="#263238"/>
<path d="M167.096 108.09L164.312 107.858L163.607 106.435L166.869 106.348L167.096 108.09Z" fill="#FFB573"/>
<path d="M158.97 76.0371C158.97 76.0371 160.751 76.6644 157.19 98.5732H142.022C142.278 92.4011 142.283 88.5985 139.335 75.9309C141.457 75.4903 143.608 75.2064 145.772 75.0816C148.064 74.9149 150.366 74.9149 152.658 75.0816C155.617 75.3518 158.97 76.0371 158.97 76.0371Z" fill="#58B368"/>
<path opacity="0.2" d="M140.608 80.9453C141.984 81.2879 143.253 82.7839 143.099 85.5442C143.015 86.7988 142.576 88.0038 141.834 89.0188C141.593 86.8954 141.183 84.4343 140.541 81.2976L140.608 80.9453Z" fill="black"/>
<path d="M151.862 79.9369C151.862 79.9369 149.377 81.983 149.377 84.1594C147.311 82.649 144.527 78.5278 144.232 75.893C144.223 75.7867 144.235 75.6796 144.269 75.5782C144.302 75.4768 144.355 75.3832 144.426 75.303C144.496 75.2227 144.582 75.1575 144.678 75.1113C144.774 75.0651 144.879 75.0388 144.985 75.034C145.17 75.0238 145.354 74.9996 145.535 74.9616C145.613 74.9451 145.693 74.9465 145.77 74.9658C145.847 74.985 145.919 75.0215 145.979 75.0726L151.862 79.9369Z" fill="#FAFAFA"/>
<path d="M151.862 79.9356C152.586 80.3666 153.204 80.9553 153.669 81.6579C154.135 82.3606 154.436 83.1591 154.55 83.994C156.64 82.4643 155.573 77.8895 154.41 75.6503C154.319 75.476 154.186 75.3268 154.024 75.2157C153.862 75.1047 153.674 75.0352 153.479 75.0133C153.17 74.9747 152.938 74.9361 152.784 74.9024C152.756 74.8968 152.727 74.8972 152.699 74.9033C152.671 74.9094 152.645 74.9212 152.622 74.938C152.599 74.9547 152.579 74.9761 152.565 75.0007C152.55 75.0253 152.541 75.0526 152.538 75.0809L151.862 79.9356Z" fill="#FAFAFA"/>
<path d="M146.457 67.3276C146.891 69.5426 147.326 73.6011 145.772 75.0826C147.455 77.0939 149.526 78.745 151.862 79.9373C154.936 77.4858 152.658 75.0826 152.658 75.0826C150.187 74.4939 150.245 72.6697 150.684 70.9373L146.457 67.3276Z" fill="#FF8B7B"/>
<path opacity="0.2" d="M148.18 68.8008L150.68 70.9386C150.575 71.3388 150.504 71.7472 150.468 72.1595C149.527 72.0244 148.055 71.2185 147.838 70.1906C147.836 69.7062 147.953 69.2287 148.18 68.8008Z" fill="black"/>
<path d="M142.741 63.7704C143.764 67.3318 144.122 68.8567 146.361 70.3093C149.739 72.4857 153.874 70.4492 153.932 66.6514C153.985 63.2347 152.301 57.965 148.45 57.3329C147.601 57.1854 146.728 57.2575 145.914 57.5423C145.101 57.8271 144.373 58.3151 143.801 58.9601C143.229 59.6051 142.832 60.3856 142.646 61.2275C142.461 62.0694 142.493 62.9447 142.741 63.7704Z" fill="#FF8B7B"/>
<path d="M143.987 66.9777C146.134 64.7868 146.028 62.0844 145.391 61.2399C147.35 61.0758 152.364 59.8356 151.414 57.9391C150.463 56.0426 142.462 55.0099 141.699 59.8694C139.214 62.0651 141.193 66.4807 143.987 66.9777Z" fill="#263238"/>
<path d="M148.711 63.4469C148.778 63.7413 148.986 63.9295 149.193 63.9005C149.401 63.8716 149.488 63.5869 149.425 63.2925C149.362 62.9981 149.15 62.8099 148.942 62.8389C148.735 62.8678 148.648 63.1525 148.711 63.4469Z" fill="#263238"/>
<path d="M152.036 62.7326C152.103 63.027 152.311 63.2152 152.518 63.1863C152.726 63.1573 152.813 62.8726 152.745 62.5782C152.678 62.2838 152.47 62.0956 152.263 62.1198C152.055 62.1439 151.973 62.4141 152.036 62.7326Z" fill="#263238"/>
<path d="M152.19 62.1359L152.851 61.7739C152.851 61.7739 152.605 62.4061 152.19 62.1359Z" fill="#263238"/>
<path d="M151.129 63.4688C151.534 64.0791 152.021 64.6311 152.576 65.1095C152.451 65.2499 152.296 65.3612 152.122 65.4354C151.949 65.5095 151.761 65.5449 151.573 65.539L151.129 63.4688Z" fill="#FF5652"/>
<path d="M150.26 67.0485C150.409 67.0385 150.558 67.0175 150.704 66.9858C150.727 66.9801 150.746 66.9659 150.759 66.9461C150.771 66.9264 150.776 66.9026 150.771 66.8796C150.766 66.857 150.752 66.8373 150.732 66.8248C150.712 66.8122 150.688 66.8077 150.665 66.8121C150.301 66.9005 149.922 66.903 149.556 66.8192C149.191 66.7354 148.85 66.5678 148.561 66.3295C148.544 66.3136 148.522 66.3047 148.499 66.3047C148.475 66.3047 148.453 66.3136 148.436 66.3295C148.427 66.3376 148.421 66.3474 148.416 66.3581C148.411 66.3689 148.409 66.3805 148.409 66.3922C148.409 66.404 148.411 66.4156 148.416 66.4264C148.421 66.4371 148.427 66.4469 148.436 66.455C148.685 66.6703 148.975 66.8337 149.288 66.9356C149.601 67.0375 149.932 67.0759 150.26 67.0485Z" fill="#263238"/>
<path d="M142.505 67.3232C142.704 67.6167 142.959 67.8679 143.256 68.0625C143.552 68.2572 143.884 68.3913 144.232 68.4572C145.169 68.631 145.55 67.7768 145.198 66.9371C144.898 66.1843 144.054 65.1902 143.151 65.3929C142.957 65.4451 142.778 65.5447 142.631 65.6828C142.484 65.8209 142.374 65.9932 142.31 66.1844C142.246 66.3756 142.23 66.5796 142.264 66.7783C142.298 66.977 142.381 67.1642 142.505 67.3232Z" fill="#FF8B7B"/>
<path d="M147.084 62.8007C147.121 62.7963 147.155 62.7803 147.182 62.7552C147.209 62.73 147.227 62.697 147.234 62.6608C147.321 62.3852 147.464 62.1306 147.654 61.913C147.844 61.6954 148.078 61.5195 148.339 61.3964C148.361 61.3871 148.38 61.3735 148.396 61.3563C148.413 61.3392 148.425 61.319 148.433 61.2969C148.441 61.2747 148.445 61.2512 148.444 61.2277C148.442 61.2041 148.436 61.1811 148.426 61.16C148.416 61.1388 148.402 61.1198 148.385 61.1041C148.367 61.0884 148.347 61.0763 148.325 61.0687C148.303 61.061 148.28 61.0579 148.256 61.0595C148.233 61.0611 148.21 61.0674 148.189 61.078C147.876 61.2233 147.598 61.4342 147.373 61.6965C147.148 61.9587 146.982 62.2662 146.886 62.5981C146.882 62.6206 146.883 62.6437 146.887 62.666C146.892 62.6884 146.901 62.7097 146.914 62.7285C146.927 62.7473 146.944 62.7634 146.963 62.7758C146.982 62.7882 147.004 62.7967 147.026 62.8007C147.045 62.8056 147.065 62.8056 147.084 62.8007Z" fill="#263238"/>
<path d="M152.673 60.3566C152.712 60.3612 152.752 60.3519 152.786 60.3303C152.82 60.3088 152.845 60.2762 152.857 60.2382C152.87 60.2002 152.869 60.1591 152.855 60.1218C152.84 60.0844 152.813 60.0532 152.779 60.0333C152.548 59.8723 152.282 59.7693 152.003 59.7332C151.724 59.6971 151.441 59.7289 151.177 59.8258C151.134 59.8448 151.101 59.8797 151.084 59.923C151.067 59.9662 151.067 60.0145 151.085 60.0574C151.094 60.0789 151.107 60.0983 151.124 60.1146C151.14 60.1309 151.16 60.1437 151.181 60.1522C151.203 60.1608 151.226 60.1649 151.249 60.1644C151.272 60.1638 151.295 60.1586 151.317 60.1491C151.527 60.0756 151.752 60.0535 151.973 60.0846C152.194 60.1156 152.404 60.199 152.586 60.3277C152.611 60.3465 152.641 60.3566 152.673 60.3566Z" fill="#263238"/>
<path d="M148.86 62.8736L149.522 62.5117C149.522 62.5117 149.295 63.1439 148.86 62.8736Z" fill="#263238"/>
<path d="M141.795 97.6883L141.404 99.0443C141.356 99.1505 141.477 99.2567 141.655 99.2567H157.261C157.397 99.2567 157.512 99.1891 157.522 99.1071L157.657 97.7462C157.657 97.6545 157.546 97.5725 157.397 97.5725H142.056C142.006 97.5662 141.955 97.5736 141.909 97.594C141.863 97.6144 141.824 97.6471 141.795 97.6883Z" fill="#58B368"/>
<path opacity="0.2" d="M141.795 97.6883L141.404 99.0443C141.356 99.1505 141.477 99.2567 141.655 99.2567H157.261C157.397 99.2567 157.512 99.1891 157.522 99.1071L157.657 97.7462C157.657 97.6545 157.546 97.5725 157.397 97.5725H142.056C142.006 97.5662 141.955 97.5736 141.909 97.594C141.863 97.6144 141.824 97.6471 141.795 97.6883Z" fill="white"/>
<path d="M143.909 99.4075H143.503C143.421 99.4075 143.359 99.3641 143.363 99.311L143.556 97.5496C143.556 97.4965 143.634 97.4531 143.716 97.4531H144.126C144.208 97.4531 144.271 97.4965 144.266 97.5496L144.073 99.311C144.063 99.3593 143.986 99.4075 143.909 99.4075Z" fill="#58B368"/>
<path opacity="0.4" d="M143.909 99.4075H143.503C143.421 99.4075 143.359 99.3641 143.363 99.311L143.556 97.5496C143.556 97.4965 143.634 97.4531 143.716 97.4531H144.126C144.208 97.4531 144.271 97.4965 144.266 97.5496L144.073 99.311C144.063 99.3593 143.986 99.4075 143.909 99.4075Z" fill="black"/>
<path d="M156.109 99.4075H155.694C155.612 99.4075 155.549 99.3641 155.558 99.311L155.751 97.5496C155.751 97.4965 155.829 97.4531 155.911 97.4531H156.321C156.403 97.4531 156.466 97.4965 156.461 97.5496L156.268 99.311C156.255 99.3422 156.233 99.3685 156.204 99.386C156.176 99.4034 156.142 99.411 156.109 99.4075Z" fill="#58B368"/>
<path opacity="0.4" d="M156.109 99.4075H155.694C155.612 99.4075 155.549 99.3641 155.558 99.311L155.751 97.5496C155.751 97.4965 155.829 97.4531 155.911 97.4531H156.321C156.403 97.4531 156.466 97.4965 156.461 97.5496L156.268 99.311C156.255 99.3422 156.233 99.3685 156.204 99.386C156.176 99.4034 156.142 99.411 156.109 99.4075Z" fill="black"/>
<path d="M150.033 99.4075H149.622C149.54 99.4075 149.478 99.3641 149.483 99.311L149.676 97.5496C149.676 97.4965 149.753 97.4531 149.835 97.4531H150.259C150.342 97.4531 150.404 97.4965 150.399 97.5496L150.206 99.311C150.187 99.3593 150.115 99.4075 150.033 99.4075Z" fill="#58B368"/>
<path opacity="0.4" d="M150.033 99.4075H149.622C149.54 99.4075 149.478 99.3641 149.483 99.311L149.676 97.5496C149.676 97.4965 149.753 97.4531 149.835 97.4531H150.259C150.342 97.4531 150.404 97.4965 150.399 97.5496L150.206 99.311C150.187 99.3593 150.115 99.4075 150.033 99.4075Z" fill="black"/>
<path d="M151.134 101.604L154.816 99.9531L153.769 103.606C153.769 103.606 151.428 104.137 150.415 102.964L151.134 101.604Z" fill="#FFB573"/>
<path d="M141.361 80.8601C141.236 82.1437 141.077 83.4274 140.937 84.7207L140.454 88.5813C140.3 89.8601 140.097 91.1389 139.923 92.4419L139.648 94.3722L139.561 94.9802C139.567 95.0749 139.593 95.1672 139.639 95.2505C139.849 95.6196 140.125 95.9468 140.454 96.2156C140.884 96.5703 141.338 96.8928 141.815 97.1807C142.856 97.8145 143.938 98.3787 145.053 98.8698C146.192 99.3861 147.365 99.8349 148.557 100.284C149.749 100.732 150.969 101.143 152.152 101.534L151.727 103.377C149.114 102.956 146.539 102.32 144.03 101.476C142.731 101.051 141.469 100.522 140.256 99.8928C139.607 99.5547 138.987 99.1624 138.403 98.7202C137.703 98.2103 137.113 97.5654 136.666 96.8236C136.403 96.338 136.239 95.8049 136.183 95.2553C136.183 95.1057 136.159 94.9561 136.183 94.8065C136.208 94.6569 136.183 94.4687 136.208 94.4204L136.251 93.9379L136.415 92.0076C136.536 90.7239 136.627 89.4354 136.767 88.147L137.158 84.2864C137.313 83.0027 137.443 81.7191 137.612 80.4258L141.361 80.8601Z" fill="#FF8B7B"/>
<path d="M139.334 75.9323C137.814 76.4148 135.99 81.6266 135.99 81.6266L141.298 87.099C141.298 87.099 144.025 81.4722 143.383 79.5081C142.732 77.462 141.091 75.4014 139.334 75.9323Z" fill="#58B368"/>
<path d="M157.866 100.711L156.823 103.722L153.768 103.606L154.816 99.9531L157.866 100.711Z" fill="#FFB573"/>
<path opacity="0.2" d="M126.382 80.908C125.144 76.3121 125.297 71.4524 126.82 66.9432C128.344 62.434 131.171 58.478 134.943 55.5753C138.715 52.6726 143.264 50.9536 148.013 50.6358C152.762 50.3179 157.498 51.4154 161.624 53.7895C165.749 56.1636 169.078 59.7077 171.189 63.9736C173.3 68.2395 174.099 73.0356 173.484 77.7554C172.87 82.4753 170.869 86.9069 167.736 90.4899C164.603 94.0729 160.478 96.6464 155.882 97.8849C152.83 98.7073 149.646 98.9206 146.512 98.5125C143.378 98.1044 140.355 97.083 137.616 95.5065C134.876 93.93 132.474 91.8294 130.547 89.3246C128.62 86.8197 127.204 83.9598 126.382 80.908Z" fill="#58B368"/>
<path opacity="0.2" d="M167.063 58.0607L147.243 98.5969C148.943 98.7705 150.657 98.7559 152.354 98.5535L170.175 62.1192C169.287 60.6583 168.243 59.2976 167.063 58.0607ZM172.853 68.3781L172.723 67.8956L158.492 97.0044C163.981 94.8253 168.476 90.7046 171.124 85.4263C173.773 80.1481 174.388 74.0806 172.853 68.3781ZM143.354 51.406C139.153 52.5384 135.338 54.7881 132.313 57.916C129.289 61.0439 127.17 64.9329 126.179 69.1695C125.189 73.4061 125.366 77.8318 126.691 81.976C128.015 86.1202 130.438 89.8278 133.702 92.7047L154.12 50.9958C150.547 50.3131 146.865 50.4534 143.354 51.406Z" fill="white"/>
<path d="M122.541 72.0337L122.059 71.9855C122.136 71.1603 122.256 70.3302 122.411 69.5195L122.893 69.6112C122.753 70.4074 122.623 71.223 122.541 72.0337ZM123.477 67.1356L122.995 67.0005C123.63 64.8508 124.521 62.7851 125.649 60.8477L126.069 61.0889C124.967 62.9937 124.097 65.0238 123.477 67.1356Z" fill="#58B368"/>
<path d="M174.707 67.8819C173.371 62.9207 170.593 58.4672 166.725 55.0846C162.857 51.7019 158.073 49.5421 152.978 48.8781C147.883 48.214 142.705 49.0756 138.1 51.354C133.494 53.6323 129.668 57.2251 127.104 61.678C124.54 66.1309 123.354 71.244 123.696 76.3708C124.038 81.4977 125.893 86.408 129.025 90.481C132.157 94.5541 136.427 97.6069 141.294 99.2535C146.162 100.9 151.408 101.067 156.37 99.7318C159.665 98.8453 162.754 97.3181 165.46 95.2375C168.165 93.1569 170.434 90.5636 172.137 87.6059C173.84 84.6482 174.943 81.384 175.384 77.9997C175.825 74.6154 175.595 71.1773 174.707 67.8819ZM126.382 80.9114C125.144 76.3156 125.297 71.4558 126.821 66.9466C128.345 62.4375 131.171 58.4814 134.943 55.5787C138.716 52.676 143.264 50.9571 148.013 50.6392C152.762 50.3214 157.499 51.4189 161.624 53.793C165.749 56.1671 169.078 59.7112 171.189 63.977C173.3 68.2429 174.099 73.039 173.484 77.7589C172.87 82.4787 170.87 86.9104 167.736 90.4934C164.603 94.0764 160.478 96.6499 155.882 97.8884C152.83 98.7107 149.646 98.9237 146.512 98.5153C143.377 98.1069 140.354 97.0851 137.615 95.5081C134.875 93.9312 132.473 91.83 130.546 89.3246C128.619 86.8193 127.204 83.9588 126.382 80.9066V80.9114Z" fill="#58B368"/>
<path d="M126.768 84.8877C126.768 85.9928 126.484 86.1376 126.18 86.1713L125.306 86.403L123.554 86.8855L120.051 87.8121L113.029 89.6121C108.342 90.7896 103.648 91.9365 98.948 93.0528L84.8472 96.4308L77.8064 98.1392C75.4611 98.7231 73.1061 99.2636 70.785 99.9392C70.5495 100.008 70.3028 100.03 70.0589 100.004C69.8149 99.9777 69.5785 99.9036 69.3632 99.786C69.1479 99.6684 68.9579 99.5095 68.804 99.3184C68.65 99.1273 68.5353 98.9078 68.4662 98.6724C68.3971 98.437 68.3751 98.1903 68.4014 97.9463C68.4276 97.7024 68.5017 97.466 68.6193 97.2507C68.737 97.0353 68.8959 96.8453 69.0869 96.6914C69.278 96.5375 69.4975 96.4227 69.733 96.3536H69.8102C72.1603 95.7745 74.467 95.0555 76.7834 94.3847L83.7324 92.3241L97.6161 88.1451C102.246 86.7456 106.88 85.3767 111.519 84.0383L118.492 82.0357L121.986 81.0705L123.733 80.5879L124.606 80.3467C124.886 80.226 125.195 80.2115 125.765 81.1622C126.434 82.2887 126.781 83.5774 126.768 84.8877Z" fill="#58B368"/>
<path d="M96.4047 48.884C96.4047 49.1687 96.5543 49.4003 96.7425 49.4003C96.9307 49.4003 97.0803 49.1687 97.0803 48.884C97.0803 48.5993 96.9307 48.3628 96.7425 48.3628C96.5543 48.3628 96.4047 48.5944 96.4047 48.884Z" fill="#263238"/>
<path d="M96.5302 49.3994C96.8693 50.2736 97.3273 51.0969 97.8911 51.8461C97.6958 51.9857 97.4725 52.081 97.2365 52.1251C97.0006 52.1693 96.7579 52.1614 96.5254 52.1018L96.5302 49.3994Z" fill="#630F0F"/>
<path d="M95.3917 47.293C95.3567 47.292 95.3228 47.2801 95.2948 47.259C95.2668 47.2379 95.2461 47.2086 95.2355 47.1752C95.2248 47.1418 95.2249 47.1059 95.2356 47.0726C95.2463 47.0392 95.2671 47.01 95.2952 46.9889C95.5084 46.8291 95.7565 46.7222 96.019 46.6769C96.2816 46.6316 96.5512 46.6492 96.8056 46.7284C96.8471 46.7445 96.8805 46.7764 96.8985 46.8171C96.9166 46.8577 96.9179 46.9039 96.9021 46.9455C96.886 46.987 96.8541 47.0203 96.8134 47.0384C96.7728 47.0565 96.7266 47.0578 96.685 47.042C96.4825 46.9818 96.2686 46.97 96.0607 47.0078C95.8528 47.0455 95.6567 47.1316 95.4882 47.2592C95.461 47.2814 95.4268 47.2934 95.3917 47.293Z" fill="#263238"/>
<path d="M87.1979 50.7305C87.4536 53.5246 87.4874 58.6061 85.5137 60.2709C85.5137 60.2709 85.9625 63.123 90.7592 63.5669C96.0338 64.0495 93.5389 61.0141 93.5389 61.0141C90.7255 60.0152 91.0102 57.7471 91.7099 55.6624L87.1979 50.7305Z" fill="#7F3E3B"/>
<path d="M79.4809 165.19C79.0659 165.363 78.1152 164.944 77.8112 164.765C77.7973 164.758 77.786 164.747 77.7791 164.733C77.7721 164.719 77.7699 164.703 77.7726 164.688C77.7738 164.671 77.78 164.656 77.7903 164.643C77.8006 164.63 77.8146 164.62 77.8305 164.615C77.8787 164.615 79.008 164.239 79.4664 164.504C79.5168 164.531 79.5606 164.569 79.5948 164.615C79.629 164.661 79.6527 164.714 79.6642 164.77C79.6884 164.837 79.6906 164.91 79.6707 164.978C79.6507 165.047 79.6096 165.107 79.5533 165.151C79.5308 165.167 79.5065 165.18 79.4809 165.19ZM78.0766 164.707C78.5592 164.948 79.2492 165.151 79.4519 165.006C79.4519 165.006 79.534 164.948 79.5002 164.794C79.4931 164.761 79.4791 164.731 79.4591 164.704C79.4391 164.677 79.4136 164.655 79.3844 164.64C78.9503 164.537 78.4956 164.564 78.0766 164.717V164.707Z" fill="#58B368"/>
<path d="M78.1201 164.697C78.0406 164.73 77.9582 164.756 77.874 164.774C77.8595 164.78 77.8437 164.78 77.829 164.776C77.8142 164.771 77.8013 164.762 77.7919 164.75C77.7847 164.737 77.781 164.722 77.781 164.707C77.781 164.692 77.7847 164.677 77.7919 164.663C77.7919 164.625 78.1828 163.669 78.675 163.467C78.7335 163.44 78.7968 163.427 78.8608 163.427C78.9249 163.427 78.9882 163.44 79.0466 163.467C79.1073 163.483 79.1601 163.521 79.1955 163.573C79.2309 163.626 79.2465 163.689 79.2396 163.751C79.1914 164.075 78.5689 164.509 78.1201 164.697ZM78.0043 164.562C78.4386 164.398 79.0321 163.973 79.0611 163.737C79.0611 163.713 79.0611 163.664 78.9646 163.616C78.9269 163.598 78.8857 163.589 78.8439 163.589C78.8022 163.589 78.761 163.598 78.7233 163.616C78.4096 163.751 78.1297 164.287 78.0043 164.557V164.562Z" fill="#58B368"/>
<path d="M101.404 170.884C101.04 170.882 100.677 170.85 100.319 170.787C100.302 170.784 100.287 170.776 100.275 170.764C100.263 170.752 100.254 170.736 100.251 170.72C100.247 170.702 100.25 170.684 100.257 170.669C100.265 170.653 100.278 170.64 100.294 170.633C100.348 170.599 101.583 169.894 102.177 170.054C102.288 170.082 102.383 170.153 102.442 170.252C102.48 170.305 102.5 170.369 102.5 170.435C102.5 170.501 102.48 170.565 102.442 170.618C102.302 170.831 101.863 170.884 101.404 170.884ZM100.589 170.662C101.25 170.753 102.148 170.749 102.312 170.522C102.312 170.493 102.355 170.44 102.312 170.334C102.294 170.304 102.27 170.278 102.242 170.258C102.214 170.238 102.182 170.224 102.148 170.218C101.766 170.116 101.038 170.44 100.589 170.662Z" fill="#58B368"/>
<path d="M100.333 170.788C100.317 170.792 100.3 170.792 100.285 170.788C100.272 170.779 100.263 170.767 100.257 170.754C100.251 170.74 100.249 170.725 100.251 170.71C100.251 170.672 100.352 169.716 100.801 169.345C100.867 169.289 100.944 169.248 101.027 169.223C101.11 169.198 101.197 169.19 101.283 169.2C101.51 169.224 101.578 169.34 101.592 169.436C101.66 169.837 100.811 170.604 100.386 170.797L100.333 170.788ZM101.201 169.34C101.094 169.343 100.99 169.382 100.907 169.451C100.639 169.757 100.471 170.137 100.425 170.541C100.864 170.281 101.438 169.678 101.39 169.436C101.39 169.436 101.39 169.359 101.226 169.345L101.201 169.34Z" fill="#58B368"/>
<path d="M96.4384 170.704H99.9804L100.333 162.496H96.7906L96.4384 170.704Z" fill="#7F3E3B"/>
<path d="M73.8545 163.931L77.3387 164.588L81.262 156.968L77.7778 156.316L73.8545 163.931Z" fill="#7F3E3B"/>
<path d="M77.7198 164.224L73.9075 163.075C73.8404 163.055 73.7685 163.059 73.7036 163.085C73.6387 163.111 73.5847 163.159 73.5504 163.22L71.9675 166.038C71.9297 166.107 71.9081 166.184 71.9041 166.262C71.9001 166.341 71.914 166.419 71.9446 166.492C71.9753 166.564 72.0219 166.629 72.081 166.681C72.1401 166.732 72.2102 166.77 72.286 166.791C73.6228 167.167 74.2935 167.274 75.9681 167.79C77.0008 168.099 79.7128 169.238 81.1413 169.658C82.5697 170.077 83.1729 168.731 82.6276 168.427C80.1858 167.071 78.8201 165.604 78.2072 164.6C78.0975 164.418 77.9236 164.284 77.7198 164.224Z" fill="#263238"/>
<path d="M99.9563 170.294H96.0957C96.0257 170.294 95.9577 170.317 95.9032 170.361C95.8487 170.405 95.811 170.467 95.7966 170.535L95.0968 173.686C95.0792 173.762 95.0791 173.841 95.0965 173.917C95.1138 173.992 95.1483 174.063 95.1971 174.124C95.246 174.184 95.3079 174.233 95.3784 174.266C95.4488 174.299 95.5258 174.315 95.6035 174.314C97.003 174.314 99.0201 174.212 100.777 174.212C102.828 174.212 104.599 174.323 107.007 174.323C108.454 174.323 108.865 172.852 108.257 172.716C105.482 172.113 103.219 172.046 100.82 170.569C100.564 170.398 100.264 170.303 99.9563 170.294Z" fill="#263238"/>
<path d="M78.8392 61.1747C75.7604 62.6224 74.4961 72.5441 74.4961 72.5441L81.5658 75.3189C82.6628 72.6328 83.5501 69.8658 84.2199 67.0428C85.2333 62.5645 82.0001 59.669 78.8392 61.1747Z" fill="#58B368"/>
<path opacity="0.3" d="M78.8392 61.1747C75.7604 62.6224 74.4961 72.5441 74.4961 72.5441L81.5658 75.3189C82.6628 72.6328 83.5501 69.8658 84.2199 67.0428C85.2333 62.5645 82.0001 59.669 78.8392 61.1747Z" fill="black"/>
<path opacity="0.2" d="M83.438 64.0842C83.679 63.9672 83.9312 63.875 84.1908 63.8091C84.4729 64.8672 84.4828 65.9794 84.2198 67.0423C83.55 69.8654 82.6626 72.6324 81.5656 75.3185L79.2348 74.4064C79.6643 71.815 80.9817 65.2616 83.438 64.0842Z" fill="black"/>
<path d="M99.3578 61.0964C99.3578 61.0964 103.132 65.3576 99.5654 91.7399H80.605C80.4747 88.8444 82.3037 74.6278 79.4951 60.9131C81.5926 60.5097 83.7139 60.2421 85.8458 60.112C88.5299 59.9575 91.2207 59.9575 93.9048 60.112C95.7454 60.2974 97.5686 60.6266 99.3578 61.0964Z" fill="#58B368"/>
<path opacity="0.3" d="M99.3578 61.0964C99.3578 61.0964 103.132 65.3576 99.5654 91.7399H80.605C80.4747 88.8444 82.3037 74.6278 79.4951 60.9131C81.5926 60.5097 83.7139 60.2421 85.8458 60.112C88.5299 59.9575 91.2207 59.9575 93.9048 60.112C95.7454 60.2974 97.5686 60.6266 99.3578 61.0964Z" fill="black"/>
<path opacity="0.2" d="M95.541 66.7535C96.4 64.1766 98.4654 63.3514 100.569 64.8811C100.994 67.3809 101.293 71.4104 100.951 77.7996L97.2493 77.7658C97.2493 77.7658 94.2815 70.59 95.541 66.7535Z" fill="black"/>
<path d="M101.549 64.9917C101.732 66.0968 101.935 67.3032 102.162 68.4518C102.389 69.6003 102.644 70.7681 102.915 71.907C103.414 74.1473 104.094 76.3437 104.946 78.4748C105.163 78.9574 105.385 79.4689 105.631 79.9225L105.945 80.492C106.024 80.6202 106.116 80.7399 106.22 80.8491C106.939 81.5308 107.751 82.1061 108.633 82.5574C110.717 83.6408 112.865 84.5948 115.066 85.4142L114.54 88.0201C111.944 87.8404 109.383 87.3179 106.925 86.4662C106.264 86.2364 105.62 85.964 104.994 85.6507C104.31 85.3014 103.663 84.8826 103.064 84.4008C102.712 84.1112 102.389 83.7879 102.099 83.4357L101.867 83.1316L101.718 82.9048C101.616 82.7552 101.515 82.6056 101.423 82.456C101.047 81.8528 100.714 81.2496 100.405 80.6416C99.2754 78.2785 98.38 75.8104 97.7317 73.2727C97.4084 72.0324 97.1092 70.7971 96.8679 69.5472C96.6266 68.2973 96.3853 67.0764 96.2406 65.7445L101.549 64.9917Z" fill="#7F3E3B"/>
<path d="M94.6193 63.6993C93.6204 66.9373 97.674 76.5888 97.674 76.5888L106.211 74.4414C105.688 71.3907 104.809 68.4121 103.59 65.5668C100.82 59.5443 95.8209 59.7953 94.6193 63.6993Z" fill="#58B368"/>
<path opacity="0.3" d="M94.6193 63.6993C93.6204 66.9373 97.674 76.5888 97.674 76.5888L106.211 74.4414C105.688 71.3907 104.809 68.4121 103.59 65.5668C100.82 59.5443 95.8209 59.7953 94.6193 63.6993Z" fill="black"/>
<path d="M115.119 85.4143L118.782 87.0599L115.23 89.9891C115.23 89.9891 113.667 89.4776 113.411 86.9103L112.866 84.7773L114.473 85.1875C114.695 85.2435 114.911 85.3194 115.119 85.4143Z" fill="#7F3E3B"/>
<path d="M120.727 88.8352L117.16 90.9634L115.23 89.9693L118.777 87.04L120.727 88.8352Z" fill="#7F3E3B"/>
<path d="M95.517 59.7981C93.9872 58.5048 90.2714 57.5735 86.1116 57.3418C83.7325 57.2115 81.2859 57.6024 80.2677 58.056C79.2494 58.5096 80.4559 61.7863 81.7878 61.8587C81.0832 62.9686 82.1063 65.1112 83.636 65.5311C83.3947 67.3842 88.066 67.5579 90.8746 66.0619C93.1427 64.87 97.3508 61.3472 95.517 59.7981Z" fill="#263238"/>
<path opacity="0.2" d="M100.333 162.496L100.154 166.728H96.6075L96.786 162.496H100.333Z" fill="black"/>
<path opacity="0.2" d="M77.772 156.316L81.261 156.973L79.239 160.896L75.75 160.24L77.772 156.316Z" fill="black"/>
<path d="M86.8697 48.2557C87.082 51.7688 87.0241 53.8343 88.8 55.6391C91.4638 58.3512 95.8021 56.749 96.6418 53.2262C97.3995 50.0702 96.9217 44.8584 93.4858 43.4541C92.7281 43.1407 91.9028 43.0267 91.0886 43.1231C90.2743 43.2194 89.4984 43.5229 88.8348 44.0045C88.1712 44.4861 87.6422 45.1297 87.2981 45.874C86.9541 46.6182 86.8066 47.4382 86.8697 48.2557Z" fill="#7F3E3B"/>
<path d="M93.4419 50.2154C94.769 48.8739 96.9502 45.9495 96.1878 43.7538C95.0634 40.506 91.7095 41.6063 92.2452 42.253C90.3149 40.979 86.4157 40.9162 87.2312 42.6245C83.7229 43.1071 83.4382 44.5307 84.413 45.0664C81.9133 47.4503 82.0339 49.9162 83.9304 49.7329C82.4827 51.1806 85.1465 54.0471 88.124 55.4128C89.1374 52.7586 94.5615 52.276 93.4419 50.2154Z" fill="#263238"/>
<path d="M91.9024 51.4847C91.8804 51.4911 91.8569 51.4911 91.8349 51.4847C91.8218 51.4756 91.8107 51.4639 91.8022 51.4505C91.7937 51.437 91.7879 51.422 91.7852 51.4063C91.7825 51.3906 91.783 51.3745 91.7865 51.359C91.7901 51.3435 91.7967 51.3288 91.8059 51.3158C92.5684 50.1962 93.3116 49.2987 93.9679 48.5072C95.2225 46.992 96.1298 45.8965 96.207 44.4102C96.225 43.8012 96.0524 43.2018 95.7133 42.6957C95.3741 42.1896 94.8854 41.802 94.3153 41.5871C93.4177 41.1818 92.4526 41.1576 92.0713 41.534C91.8687 41.7319 91.8494 42.0166 92.0134 42.4123C92.0205 42.4264 92.0244 42.4419 92.0251 42.4576C92.0257 42.4734 92.0229 42.4891 92.017 42.5037C92.011 42.5183 92.0021 42.5315 91.9906 42.5424C91.9792 42.5532 91.9656 42.5616 91.9507 42.5668C91.9361 42.5731 91.9204 42.5766 91.9045 42.5769C91.8886 42.5772 91.8728 42.5743 91.858 42.5685C91.8432 42.5627 91.8297 42.554 91.8183 42.5429C91.8069 42.5318 91.7977 42.5186 91.7914 42.504C91.6849 42.3267 91.6382 42.1198 91.6582 41.9138C91.6782 41.7079 91.7638 41.5139 91.9024 41.3603C92.3561 40.9164 93.4129 40.9164 94.4166 41.3603C95.031 41.5934 95.5571 42.0127 95.9214 42.5596C96.2857 43.1064 96.4699 43.7535 96.4483 44.4102C96.3662 45.9785 95.4397 47.0981 94.1561 48.6472C93.4998 49.4386 92.7614 50.3314 92.0038 51.4461C91.9911 51.46 91.9753 51.4707 91.9577 51.4774C91.9401 51.4841 91.9212 51.4866 91.9024 51.4847Z" fill="#263238"/>
<path d="M92.0759 49.8185C92.1401 50.6898 92.4895 51.5157 93.07 52.1686C93.8421 53.018 94.6529 52.4871 94.788 51.4544C94.9086 50.5182 94.6577 48.9499 93.7119 48.4818C92.766 48.0137 92.0132 48.7665 92.0759 49.8185Z" fill="#7F3E3B"/>
<path d="M92.8334 91.7422C92.8334 91.7422 94.0302 115.639 91.6994 125.764C88.0077 141.795 80.9476 160.388 80.9476 160.388L74.375 159.148C74.375 159.148 79.9101 140.53 81.131 127.182C82.2072 115.195 80.6147 101.427 80.6147 91.7422H92.8334Z" fill="#263238"/>
<path opacity="0.2" d="M91.0622 98.8224C91.5448 97.8911 92.4858 100.666 93.1421 104.227C93.1421 109.14 93.0553 114.728 92.6258 119.462C89.3443 113.406 90.044 100.753 91.0622 98.8224Z" fill="black"/>
<path d="M82.5597 158.37C82.5887 158.37 81.5318 160.648 81.5318 160.648L73.9265 159.167L74.7565 156.875L82.5597 158.37Z" fill="#2C6BDB"/>
<path d="M99.5896 91.7422C99.5896 91.7422 104.898 114.37 105.284 125.185C105.704 137.312 101.472 165.909 101.472 165.909H95.4685C95.4685 165.909 94.7301 137.09 94.4599 126.044C94.1703 114.003 87.1055 91.7422 87.1055 91.7422H99.5896Z" fill="#263238"/>
<path d="M102.63 163.516C102.659 163.516 102.292 166.011 102.292 166.011H94.9859L94.7881 163.786L102.63 163.516Z" fill="#2C6BDB"/>
</svg>
