<svg width="342" height="228" viewBox="0 0 342 228" fill="none" xmlns="http://www.w3.org/2000/svg">
<path d="M318 193.334H23V193.481H318V193.334Z" fill="#E6E6E6"/>
<path d="M68.2883 199.544H57.5444V199.692H68.2883V199.544Z" fill="#E6E6E6"/>
<path d="M93.5934 199.474H72.6189V199.622H93.5934V199.474Z" fill="#E6E6E6"/>
<path d="M122.869 202.923H105.871V203.071H122.869V202.923Z" fill="#E6E6E6"/>
<path d="M177.887 196.623H143.797V196.771H177.887V196.623Z" fill="#E6E6E6"/>
<path d="M275.614 199.192H245.1V199.34H275.614V199.192Z" fill="#E6E6E6"/>
<path d="M241.825 199.192H236.019V199.34H241.825V199.192Z" fill="#E6E6E6"/>
<path d="M290.27 202.845H284.464V202.993H290.27V202.845Z" fill="#E6E6E6"/>
<path d="M162.83 166.996H48.9069C48.0145 166.995 47.1591 166.639 46.5286 166.007C45.8981 165.374 45.5439 164.518 45.5439 163.624V3.34229C45.5517 2.45417 45.9093 1.60499 46.5389 0.979195C47.1686 0.353396 48.0196 0.00152138 48.9069 0H162.83C163.724 0 164.58 0.355244 165.212 0.987581C165.844 1.61992 166.199 2.47755 166.199 3.37181V163.624C166.199 164.519 165.844 165.376 165.212 166.009C164.58 166.641 163.724 166.996 162.83 166.996V166.996ZM48.9069 0.118102C48.0536 0.119667 47.2357 0.460046 46.6329 1.06453C46.03 1.66901 45.6914 2.4882 45.6914 3.34229V163.624C45.6914 164.479 46.03 165.298 46.6329 165.902C47.2357 166.507 48.0536 166.847 48.9069 166.849H162.83C163.684 166.847 164.502 166.507 165.106 165.903C165.71 165.298 166.05 164.479 166.051 163.624V3.34229C166.05 2.48766 165.71 1.66848 165.106 1.06417C164.502 0.459854 163.684 0.119663 162.83 0.118102H48.9069Z" fill="#E6E6E6"/>
<path d="M290.453 166.996H176.524C175.631 166.995 174.775 166.639 174.143 166.007C173.512 165.375 173.157 164.518 173.155 163.624V3.34229C173.164 2.45364 173.523 1.60446 174.154 0.978825C174.784 0.353189 175.636 0.00150479 176.524 0H290.453C291.339 0.00307331 292.189 0.355634 292.817 0.981267C293.445 1.6069 293.802 2.45519 293.81 3.34229V163.624C293.81 164.517 293.457 165.372 292.827 166.004C292.198 166.636 291.344 166.993 290.453 166.996V166.996ZM176.524 0.118102C175.67 0.119663 174.852 0.459854 174.248 1.06417C173.644 1.66848 173.304 2.48766 173.302 3.34229V163.624C173.304 164.479 173.644 165.298 174.248 165.903C174.852 166.507 175.67 166.847 176.524 166.849H290.453C291.307 166.847 292.125 166.507 292.729 165.903C293.333 165.298 293.673 164.479 293.674 163.624V3.34229C293.673 2.48766 293.333 1.66848 292.729 1.06417C292.125 0.459854 291.307 0.119663 290.453 0.118102H176.524Z" fill="#E6E6E6"/>
<path d="M210.024 11.0952H56.984V80.055H210.024V11.0952Z" fill="#E0E0E0"/>
<path d="M213.234 11.0952H58.4827V80.055H213.234V11.0952Z" fill="#F0F0F0"/>
<path d="M210.024 80.0557H56.984V86.0257H210.024V80.0557Z" fill="#E0E0E0"/>
<path d="M218.585 80.0557H63.8339V86.0257H218.585V80.0557Z" fill="#EBEBEB"/>
<path d="M208.738 75.5571V15.5967L62.9784 15.5967V75.5571H208.738Z" fill="#FAFAFA"/>
<path d="M90.8914 75.5571L117.27 15.5967H129.719L103.346 75.5571H90.8914Z" fill="white"/>
<path d="M65.0612 65.0109C64.9767 65.0109 64.8956 64.9773 64.8359 64.9175C64.7761 64.8577 64.7426 64.7766 64.7426 64.692V18.52C64.7426 18.4355 64.7761 18.3544 64.8359 18.2946C64.8956 18.2348 64.9767 18.2012 65.0612 18.2012C65.1457 18.2012 65.2267 18.2348 65.2864 18.2946C65.3462 18.3544 65.3798 18.4355 65.3798 18.52V64.692C65.3798 64.7766 65.3462 64.8577 65.2864 64.9175C65.2267 64.9773 65.1457 65.0109 65.0612 65.0109V65.0109Z" fill="#EBEBEB"/>
<path d="M106.019 75.5571L132.398 15.5967H137.254L110.875 75.5571H106.019Z" fill="white"/>
<path d="M208.744 75.5571V15.5967H208.171V75.5571H208.744Z" fill="#E0E0E0"/>
<path d="M214.296 21.3484H61.2556L60.8427 17.3447H213.883L214.296 21.3484Z" fill="#E0E0E0"/>
<path d="M214.296 24.2835H61.2556L60.8427 20.2739H213.883L214.296 24.2835Z" fill="#E0E0E0"/>
<path d="M214.296 27.8035H61.2556L60.8427 23.7939H213.883L214.296 27.8035Z" fill="#E0E0E0"/>
<path d="M214.296 31.7142H61.2556L60.8427 27.7046H213.883L214.296 31.7142Z" fill="#E0E0E0"/>
<path d="M214.296 36.405H61.2556L60.8427 32.4014H213.883L214.296 36.405Z" fill="#E0E0E0"/>
<path d="M214.296 41.6848H61.2556L60.8427 37.6812H213.883L214.296 41.6848Z" fill="#E0E0E0"/>
<path d="M275.036 16.187H236.397V67.0181H275.036V16.187Z" fill="#E0E0E0"/>
<path d="M277.668 16.187H237.76V67.0181H277.668V16.187Z" fill="#F5F5F5"/>
<path d="M274.328 63.6753V19.5347L241.105 19.5347V63.6753H274.328Z" fill="white"/>
<path d="M265.803 50.021H257.177C255.091 50.0178 253.092 49.1867 251.617 47.7099C250.143 46.2331 249.314 44.2313 249.312 42.1435V33.5103C249.312 33.4684 249.32 33.4269 249.337 33.3883C249.353 33.3496 249.376 33.3144 249.406 33.2848C249.435 33.2552 249.47 33.2317 249.509 33.2157C249.548 33.1997 249.589 33.1914 249.631 33.1914H258.257C260.342 33.1945 262.34 34.0249 263.814 35.5004C265.289 36.9759 266.118 38.9762 266.121 41.0629V49.6962C266.121 49.7813 266.088 49.863 266.028 49.9238C265.969 49.9845 265.888 50.0194 265.803 50.021V50.021ZM249.955 33.8351V42.1435C249.957 44.0606 250.718 45.8987 252.072 47.2548C253.426 48.6109 255.262 49.3742 257.177 49.3773H265.49V41.0629C265.487 39.1459 264.724 37.3084 263.369 35.9534C262.014 34.5984 260.178 33.8366 258.263 33.8351H249.955Z" fill="#EBEBEB"/>
<path d="M167.951 113.378C167.951 115.149 169.196 116.413 167.408 116.413C165.621 116.413 161.508 115.167 161.508 113.378C161.508 112.516 161.85 111.69 162.459 111.081C163.067 110.472 163.893 110.13 164.753 110.13C165.614 110.13 166.439 110.472 167.048 111.081C167.657 111.69 167.998 112.516 167.998 113.378H167.951Z" fill="#E6E6E6"/>
<path d="M173.485 114.93C173.485 116.702 174.73 117.96 172.943 117.96C171.155 117.96 167.043 116.714 167.043 114.93C167.043 114.069 167.384 113.243 167.993 112.634C168.602 112.025 169.427 111.683 170.288 111.683C171.148 111.683 171.974 112.025 172.582 112.634C173.191 113.243 173.533 114.069 173.533 114.93H173.485Z" fill="#E6E6E6"/>
<path d="M178.789 113.969C178.789 115.74 180.034 116.998 178.247 116.998C176.459 116.998 172.347 115.752 172.347 113.969C172.347 113.107 172.689 112.281 173.297 111.672C173.906 111.063 174.731 110.721 175.592 110.721C176.452 110.721 177.278 111.063 177.886 111.672C178.495 112.281 178.837 113.107 178.837 113.969H178.789Z" fill="#E6E6E6"/>
<path d="M159.502 114.401C159.502 114.401 159.768 120.713 169.904 120.713C180.04 120.713 180.306 114.401 180.306 114.401H159.502Z" fill="#F5F5F5"/>
<path d="M180.677 76.2544H239.902L243.341 112.033H184.117L180.677 76.2544Z" fill="#E6E6E6"/>
<path d="M210.378 83.9585H219.553L215.458 119.737H206.283L210.378 83.9585Z" fill="#E6E6E6"/>
<path d="M220.119 83.9585L216.679 114.015L216.024 119.737H206.85L207.505 114.015L210.944 83.9585H220.119Z" fill="#F0F0F0"/>
<path d="M220.119 83.9585L216.679 114.015H207.505L210.944 83.9585H220.119Z" fill="#E6E6E6"/>
<path d="M181.226 76.2544H241.766L245.206 112.033H184.666L181.226 76.2544Z" fill="#F0F0F0"/>
<path d="M186.194 110.402L183.061 77.8887H240.238L243.371 110.402H186.194Z" fill="white"/>
<path d="M209.883 119.739H201.77V120.72H209.883V119.739Z" fill="#E6E6E6"/>
<path d="M209.882 120.717H223.405V119.737H209.882V120.717Z" fill="#F0F0F0"/>
<path d="M275.508 120.717H270.912V193.332H275.508V120.717Z" fill="#E6E6E6"/>
<path d="M276.96 120.717H273.768V193.332H276.96V120.717Z" fill="#F0F0F0"/>
<path d="M93.2866 126.368L277.945 126.368V120.717L93.2866 120.717V126.368Z" fill="#F0F0F0"/>
<path d="M91.2336 126.368H86.6375V193.332H91.2336V126.368Z" fill="#E0E0E0"/>
<path d="M92.6791 126.368H89.4872V193.332H92.6791V126.368Z" fill="#F0F0F0"/>
<path d="M62.1405 126.368H57.5444V193.332H62.1405V126.368Z" fill="#E0E0E0"/>
<path d="M63.592 126.368H60.4001V193.332H63.592V126.368Z" fill="#F0F0F0"/>
<path d="M246.421 126.368H241.825V193.332H246.421V126.368Z" fill="#E6E6E6"/>
<path d="M247.873 126.368H244.681V193.332H247.873V126.368Z" fill="#F0F0F0"/>
<path d="M93.2866 120.717H57.5444V126.368H93.2866V120.717Z" fill="#E0E0E0"/>
<path d="M92.6849 96.79H131.041L136.605 119.46H98.2427L92.6849 96.79Z" fill="#E6E6E6"/>
<path d="M98.2427 119.461L98.3961 120.719H136.758L136.604 119.461H98.2427Z" fill="#E6E6E6"/>
<path d="M93.8649 96.79H132.227L137.784 119.46H99.4227L93.8649 96.79Z" fill="#F0F0F0"/>
<path d="M100.237 118.426L95.1807 97.8228H131.413L136.463 118.426H100.237Z" fill="white"/>
<path d="M109.417 119.461L109.571 120.719H151.815L151.661 119.461H109.417Z" fill="#FAFAFA"/>
<path d="M140.41 193.334H139.13L135.484 175.335L134.846 172.182L130.864 152.571H115.595L107.335 193.316H106.054L114.45 151.821C114.479 151.684 114.552 151.56 114.659 151.469C114.766 151.378 114.9 151.326 115.04 151.319H131.324C131.466 151.318 131.604 151.368 131.713 151.46C131.821 151.552 131.893 151.681 131.914 151.821L135.407 169.046L136.05 172.194L140.41 193.334Z" fill="#F0F0F0"/>
<path d="M164.901 193.332H163.626L155.366 152.587H140.097L136.115 172.209L135.478 175.351L131.825 193.35H130.551L134.84 172.198L135.472 169.062L138.97 151.837C138.998 151.699 139.071 151.575 139.178 151.484C139.285 151.392 139.42 151.34 139.56 151.335H155.838C155.979 151.339 156.114 151.391 156.221 151.482C156.329 151.574 156.402 151.699 156.428 151.837L164.901 193.332Z" fill="#F0F0F0"/>
<path d="M127.288 151.945H155.325C157.902 151.954 160.38 150.949 162.225 149.148C164.07 147.347 165.134 144.893 165.19 142.314L166.234 99.6616C166.253 98.7083 166.082 97.7609 165.73 96.8747C165.379 95.9885 164.854 95.1814 164.187 94.5006C163.52 93.8199 162.724 93.2791 161.846 92.91C160.967 92.5409 160.024 92.3509 159.072 92.3511H141.466C139.708 92.3513 138.011 92.9989 136.698 94.1707C135.386 95.3424 134.551 96.9563 134.351 98.705L127.288 151.945Z" fill="#E0E0E0"/>
<path d="M142.581 151.945H112.704C112.333 151.945 111.977 151.798 111.715 151.535C111.453 151.273 111.305 150.917 111.305 150.546V150.416C111.305 149.396 111.71 148.419 112.43 147.698C113.151 146.977 114.128 146.572 115.146 146.572H142.581V151.945Z" fill="#E0E0E0"/>
<path d="M237.76 193.332H236.48L232.834 175.334L232.19 172.18L228.214 152.569H212.98L204.72 193.315H203.44L211.865 151.802C211.894 151.664 211.967 151.541 212.074 151.45C212.181 151.359 212.315 151.306 212.455 151.3H228.739C228.881 151.298 229.019 151.348 229.128 151.44C229.236 151.533 229.308 151.661 229.329 151.802L232.822 169.027L233.465 172.174L237.76 193.332Z" fill="#F0F0F0"/>
<path d="M262.263 193.332H260.988L252.728 152.587H237.459L233.477 172.209L232.839 175.351L229.187 193.35H227.913L232.196 172.198L232.833 169.062L236.332 151.837C236.36 151.699 236.433 151.575 236.54 151.484C236.647 151.392 236.782 151.34 236.922 151.335H253.2C253.341 151.339 253.476 151.391 253.583 151.482C253.69 151.574 253.764 151.699 253.79 151.837L262.263 193.332Z" fill="#F0F0F0"/>
<path d="M224.65 151.945H252.687C255.262 151.951 257.737 150.945 259.579 149.144C261.421 147.343 262.484 144.891 262.54 142.314L263.584 99.6616C263.603 98.7083 263.432 97.7609 263.08 96.8747C262.729 95.9885 262.204 95.1814 261.537 94.5006C260.87 93.8199 260.074 93.2791 259.196 92.91C258.317 92.5409 257.374 92.3509 256.422 92.3511H238.828C237.069 92.3513 235.372 92.9989 234.06 94.1707C232.748 95.3424 231.912 96.9563 231.712 98.705L224.65 151.945Z" fill="#F0F0F0"/>
<path d="M239.943 151.945H210.065C209.695 151.945 209.339 151.798 209.077 151.535C208.814 151.273 208.667 150.917 208.667 150.546V150.416C208.667 149.396 209.072 148.419 209.792 147.698C210.512 146.977 211.489 146.572 212.508 146.572H239.943V151.945Z" fill="#F0F0F0"/>
<path d="M81.9351 111.479C81.8244 111.484 81.7141 111.496 81.6047 111.514V110.77C81.6047 110.522 81.5065 110.285 81.3317 110.11C81.1569 109.935 80.9198 109.837 80.6725 109.837H73.3978C73.15 109.837 72.9123 109.935 72.7366 110.11C72.5608 110.285 72.4613 110.522 72.4597 110.77V120.714H81.6047V119.043C81.7142 119.059 81.8245 119.069 81.9351 119.072C82.6648 119.072 83.3648 118.783 83.8813 118.267C84.3979 117.751 84.6889 117.051 84.6904 116.321V114.236C84.6889 113.505 84.3981 112.805 83.8817 112.288C83.3653 111.771 82.6654 111.48 81.9351 111.479V111.479ZM83.5104 116.321C83.5089 116.738 83.3422 117.137 83.0469 117.432C82.7517 117.726 82.3519 117.891 81.9351 117.891C81.824 117.892 81.7132 117.88 81.6047 117.856V112.695C81.7137 112.674 81.8242 112.662 81.9351 112.66C82.3524 112.661 82.7522 112.828 83.0473 113.123C83.3424 113.418 83.5089 113.819 83.5104 114.236V116.321Z" fill="#E0E0E0"/>
<path d="M170.5 219.998C233.679 219.998 284.895 217.005 284.895 213.313C284.895 209.622 233.679 206.629 170.5 206.629C107.321 206.629 56.1047 209.622 56.1047 213.313C56.1047 217.005 107.321 219.998 170.5 219.998Z" fill="#F5F5F5"/>
<path d="M104.892 75.4082L105.222 80.6401L108.479 80.7523L109.329 75.6503L104.892 75.4082Z" fill="#E4897B"/>
<path d="M135.1 65.798C134.203 68.5971 133.218 71.2898 132.121 74.0002C131.016 76.7569 129.756 79.4481 128.345 82.0607L127.755 83.0764L127.094 84.1098C127.029 84.2042 127.005 84.2574 126.911 84.3873C126.816 84.5172 126.74 84.6294 126.645 84.7475C126.461 84.9883 126.264 85.2189 126.055 85.4384C125.592 85.9114 125.059 86.3098 124.474 86.6194C123.357 87.1881 122.108 87.4432 120.857 87.3576C119.863 87.2802 118.887 87.045 117.966 86.6608C117.171 86.3424 116.408 85.9469 115.689 85.4797C115.01 85.0562 114.36 84.5887 113.742 84.0802C113.144 83.592 112.571 83.0737 112.025 82.5272C111.468 81.9845 110.941 81.4129 110.444 80.8147L112.804 78.2637C113.335 78.5767 113.943 78.9546 114.515 79.2794C115.087 79.6042 115.695 79.9053 116.285 80.2006C117.359 80.7474 118.494 81.1656 119.666 81.4466C120.085 81.5311 120.516 81.5451 120.94 81.4879C121.265 81.4407 121.388 81.3344 121.43 81.2576L121.518 81.11L121.583 80.9801L121.624 80.8974L121.713 80.7202L122.138 79.9171L122.557 79.0432C123.648 76.6516 124.651 74.0475 125.607 71.4374C126.563 68.8274 127.524 66.1642 128.451 63.5659L135.1 65.798Z" fill="#E4897B"/>
<path d="M112.91 78.3431L109.335 75.6504L108.479 80.7524C108.479 80.7524 111.429 83.0081 113.542 81.0417L112.91 78.3431Z" fill="#E4897B"/>
<path d="M138.209 61.0706C139.708 65.0388 131.772 79.1757 131.772 79.1757L121.807 75.7802C121.807 75.7802 125.347 66.0841 128.392 61.5253C131.56 56.8426 136.569 56.689 138.209 61.0706Z" fill="#58B368"/>
<path opacity="0.3" d="M138.209 61.0706C139.708 65.0388 131.772 79.1757 131.772 79.1757L121.807 75.7802C121.807 75.7802 125.347 66.0841 128.392 61.5253C131.56 56.8426 136.569 56.689 138.209 61.0706Z" fill="black"/>
<path d="M132.947 58.0298C132.947 58.0298 127.707 67.9445 132.681 92.9053H156.405C156.57 89.2619 154.281 74.9774 157.791 57.8054C155.169 57.2973 152.516 56.9619 149.85 56.8015C146.492 56.6065 143.125 56.6065 139.767 56.8015C137.465 57.033 135.185 57.4437 132.947 58.0298V58.0298Z" fill="#58B368"/>
<path opacity="0.3" d="M132.947 58.0298C132.947 58.0298 127.707 67.9445 132.681 92.9053H156.405C156.57 89.2619 154.281 74.9774 157.791 57.8054C155.169 57.2973 152.516 56.9619 149.85 56.8015C146.492 56.6065 143.125 56.6065 139.767 56.8015C137.465 57.033 135.185 57.4437 132.947 58.0298V58.0298Z" fill="black"/>
<path d="M162.523 209.42H158.187L157.367 199.375H161.697L162.523 209.42Z" fill="#E4897B"/>
<path d="M157.367 199.379L157.791 204.552H162.128L161.703 199.379H157.367Z" fill="#CE6F64"/>
<path d="M137.035 209.42H132.705L132.557 199.375H136.894L137.035 209.42Z" fill="#E4897B"/>
<path d="M132.557 199.379L132.634 204.552H136.97L136.894 199.379H132.557Z" fill="#CE6F64"/>
<path d="M132.681 92.9053C132.681 92.9053 129.495 133.603 128.899 147.138C128.28 161.21 131.23 203.313 131.23 203.313H138.28C138.28 203.313 140.853 164.262 142.062 150.48C143.384 135.457 148.275 92.9053 148.275 92.9053H132.681Z" fill="#58B368"/>
<path opacity="0.7" d="M132.681 92.9053C132.681 92.9053 129.495 133.603 128.899 147.138C128.28 161.21 131.23 203.313 131.23 203.313H138.28C138.28 203.313 140.853 164.262 142.062 150.48C143.384 135.457 148.275 92.9053 148.275 92.9053H132.681Z" fill="black"/>
<path d="M158.022 208.917H162.742C162.829 208.918 162.913 208.948 162.98 209.003C163.048 209.058 163.095 209.134 163.113 209.219L163.969 213.075C163.989 213.168 163.988 213.264 163.966 213.357C163.944 213.449 163.902 213.536 163.842 213.61C163.781 213.684 163.705 213.743 163.619 213.783C163.533 213.823 163.439 213.844 163.343 213.842C161.638 213.813 159.172 213.712 157.025 213.712C154.517 213.712 154.169 213.854 151.225 213.854C149.455 213.854 148.947 212.083 149.697 211.888C153.083 211.144 154.033 211.067 156.966 209.26C157.278 209.047 157.644 208.929 158.022 208.917V208.917Z" fill="#454D66"/>
<path d="M132.534 208.917H137.254C137.34 208.917 137.424 208.947 137.491 209.002C137.557 209.057 137.603 209.134 137.619 209.219L138.481 213.075C138.501 213.168 138.5 213.264 138.478 213.357C138.456 213.45 138.414 213.536 138.353 213.61C138.293 213.684 138.217 213.743 138.131 213.783C138.045 213.823 137.951 213.844 137.855 213.842C136.144 213.813 133.678 213.712 131.536 213.712C129.023 213.712 126.858 213.854 123.914 213.854C122.144 213.854 121.642 212.083 122.386 211.888C125.778 211.144 128.545 211.067 131.477 209.26C131.789 209.047 132.156 208.928 132.534 208.917Z" fill="#454D66"/>
<path d="M130.746 209.583C130.451 209.654 130.141 209.623 129.867 209.495C129.775 209.443 129.698 209.368 129.645 209.276C129.592 209.185 129.565 209.081 129.566 208.975C129.556 208.915 129.563 208.854 129.586 208.798C129.609 208.741 129.647 208.692 129.696 208.656C130.132 208.332 131.69 208.975 131.867 209.052C131.885 209.06 131.901 209.074 131.912 209.09C131.924 209.107 131.93 209.126 131.932 209.146C131.931 209.167 131.924 209.188 131.913 209.206C131.902 209.223 131.886 209.237 131.867 209.247C131.506 209.398 131.13 209.511 130.746 209.583V209.583ZM129.949 208.78C129.903 208.784 129.858 208.8 129.82 208.828C129.79 208.828 129.767 208.875 129.772 208.958C129.775 209.028 129.794 209.098 129.829 209.159C129.864 209.221 129.913 209.274 129.973 209.312C130.498 209.459 131.06 209.4 131.542 209.146C131.04 208.923 130.499 208.799 129.949 208.78Z" fill="#58B368"/>
<path d="M131.843 209.254H131.79C131.295 209.077 130.268 208.256 130.286 207.754C130.288 207.675 130.317 207.6 130.369 207.54C130.42 207.481 130.491 207.442 130.569 207.429C130.647 207.408 130.729 207.402 130.809 207.413C130.889 207.425 130.966 207.452 131.035 207.494C131.625 207.831 131.914 209.077 131.926 209.13C131.931 209.148 131.932 209.167 131.926 209.185C131.921 209.203 131.911 209.219 131.896 209.23C131.881 209.243 131.863 209.251 131.843 209.254V209.254ZM130.663 207.612H130.616C130.486 207.654 130.486 207.713 130.48 207.742C130.48 208.038 131.147 208.675 131.66 208.923C131.551 208.429 131.296 207.979 130.929 207.63C130.849 207.596 130.759 207.59 130.675 207.612H130.663Z" fill="#58B368"/>
<path d="M139.637 203.491H130.887L130.126 200.185L139.791 200.356L139.637 203.491Z" fill="#58B368"/>
<path d="M156.234 209.583C155.939 209.654 155.629 209.623 155.355 209.495C155.266 209.439 155.192 209.363 155.14 209.272C155.088 209.182 155.058 209.08 155.054 208.975C155.044 208.915 155.051 208.854 155.074 208.798C155.097 208.741 155.135 208.692 155.184 208.656C155.626 208.332 157.178 208.975 157.355 209.052C157.374 209.059 157.39 209.072 157.402 209.089C157.414 209.106 157.42 209.126 157.42 209.146C157.42 209.168 157.414 209.189 157.403 209.207C157.391 209.225 157.374 209.239 157.355 209.247C156.994 209.398 156.618 209.511 156.234 209.583V209.583ZM155.437 208.78C155.391 208.785 155.346 208.801 155.308 208.828C155.288 208.843 155.274 208.863 155.265 208.886C155.257 208.909 155.255 208.934 155.26 208.958C155.262 209.028 155.282 209.098 155.317 209.159C155.352 209.221 155.401 209.274 155.461 209.312C155.986 209.459 156.547 209.4 157.03 209.146C156.528 208.923 155.987 208.799 155.437 208.78Z" fill="#58B368"/>
<path d="M157.331 209.252H157.278C156.788 209.075 155.756 208.254 155.774 207.752C155.777 207.673 155.807 207.597 155.86 207.538C155.913 207.479 155.984 207.44 156.063 207.427C156.14 207.404 156.221 207.398 156.3 207.409C156.379 207.42 156.456 207.449 156.523 207.492C157.113 207.829 157.402 209.075 157.414 209.128C157.423 209.143 157.428 209.16 157.428 209.178C157.428 209.196 157.423 209.213 157.414 209.228C157.39 209.246 157.361 209.255 157.331 209.252V209.252ZM156.151 207.61H156.11C155.974 207.652 155.974 207.711 155.974 207.74C155.974 208.036 156.635 208.673 157.154 208.921C157.042 208.426 156.786 207.976 156.417 207.628C156.337 207.594 156.247 207.588 156.163 207.61H156.151Z" fill="#58B368"/>
<path d="M141.1 92.9053C141.1 92.9053 143.112 132.688 145.873 145.396C148.9 159.314 155.508 203.313 155.508 203.313H163.627C163.627 203.313 160.907 160.436 159.178 146.659C157.308 131.702 156.405 92.923 156.405 92.923L141.1 92.9053Z" fill="#58B368"/>
<path opacity="0.7" d="M141.1 92.9053C141.1 92.9053 143.112 132.688 145.873 145.396C148.9 159.314 155.508 203.313 155.508 203.313H163.627C163.627 203.313 160.907 160.436 159.178 146.659C157.308 131.702 156.405 92.923 156.405 92.923L141.1 92.9053Z" fill="black"/>
<path d="M160.352 198.51C160.361 198.509 160.37 198.506 160.378 198.501C160.387 198.496 160.394 198.489 160.399 198.482C160.405 198.474 160.408 198.465 160.411 198.456C160.413 198.447 160.413 198.437 160.411 198.428C160.346 198.014 158.358 159.537 156.806 147.16C155.125 133.725 154.6 98.0823 154.564 97.7811C154.56 97.7613 154.549 97.7438 154.532 97.7318C154.516 97.7199 154.496 97.7143 154.476 97.7162C154.466 97.7169 154.456 97.7196 154.447 97.7243C154.439 97.7289 154.431 97.7353 154.425 97.7431C154.419 97.7509 154.414 97.7599 154.412 97.7695C154.41 97.7791 154.409 97.7891 154.411 97.7989C154.446 98.1 155.001 133.743 156.659 147.177C158.21 159.578 160.199 198.038 160.264 198.451C160.268 198.471 160.279 198.488 160.296 198.499C160.312 198.51 160.333 198.514 160.352 198.51V198.51Z" fill="#58B368"/>
<path opacity="0.4" d="M160.352 198.51C160.361 198.509 160.37 198.506 160.378 198.501C160.387 198.496 160.394 198.489 160.399 198.482C160.405 198.474 160.408 198.465 160.411 198.456C160.413 198.447 160.413 198.437 160.411 198.428C160.346 198.014 158.358 159.537 156.806 147.16C155.125 133.725 154.6 98.0823 154.564 97.7811C154.56 97.7613 154.549 97.7438 154.532 97.7318C154.516 97.7199 154.496 97.7143 154.476 97.7162C154.466 97.7169 154.456 97.7196 154.447 97.7243C154.439 97.7289 154.431 97.7353 154.425 97.7431C154.419 97.7509 154.414 97.7599 154.412 97.7695C154.41 97.7791 154.409 97.7891 154.411 97.7989C154.446 98.1 155.001 133.743 156.659 147.177C158.21 159.578 160.199 198.038 160.264 198.451C160.268 198.471 160.279 198.488 160.296 198.499C160.312 198.51 160.333 198.514 160.352 198.51V198.51Z" fill="black"/>
<path d="M163.945 203.489H155.19L154.428 200.182L164.116 199.911L163.945 203.489Z" fill="#58B368"/>
<path d="M148.853 45.4351C148.216 48.6829 147.579 54.6352 149.85 56.8024C149.85 56.8024 148.829 58.9814 142.8 58.9814C137.289 58.9814 139.767 56.8024 139.767 56.8024C143.384 55.9343 143.307 53.2593 142.664 50.726L148.853 45.4351Z" fill="#E4897B"/>
<path d="M146.31 47.5938L142.646 50.7234C142.803 51.3034 142.908 51.8963 142.959 52.495C144.139 53.6169 146.239 50.7766 146.387 49.3298C146.465 48.7512 146.439 48.1633 146.31 47.5938Z" fill="#CE6F64"/>
<path d="M137.761 35.5379C135.79 36.8548 135.761 43.0906 138.77 43.9527C141.779 44.8148 141.496 33.0696 137.761 35.5379Z" fill="#454D66"/>
<path d="M149.26 40.5511C148.995 44.9445 149.06 47.5309 146.841 49.7926C143.502 53.188 138.08 51.1684 137.029 46.781C136.085 42.8304 136.687 36.3053 140.988 34.5515C141.935 34.1607 142.966 34.0188 143.982 34.1394C144.999 34.2599 145.968 34.6389 146.797 35.2403C147.627 35.8417 148.288 36.6454 148.719 37.575C149.15 38.5046 149.336 39.5291 149.26 40.5511V40.5511Z" fill="#E4897B"/>
<path d="M150.782 35.0049L146.54 36.9063C148.204 40.0124 144.463 45.2561 148.233 44.6833C149.962 44.4176 155.414 39.0204 150.782 35.0049Z" fill="#454D66"/>
<path d="M149.685 42.9724C148.635 42.7303 145.366 42.0572 145.331 42.0513C145.306 42.0456 145.285 42.0309 145.27 42.0101C145.256 41.9893 145.25 41.964 145.254 41.9391C145.256 41.9265 145.261 41.9146 145.268 41.9039C145.274 41.8932 145.283 41.884 145.294 41.8769C145.304 41.8697 145.316 41.8647 145.328 41.8622C145.341 41.8597 145.354 41.8597 145.366 41.8623C145.401 41.8623 148.676 42.5414 149.732 42.7835C149.757 42.7835 149.781 42.7934 149.799 42.8112C149.817 42.8289 149.826 42.8529 149.826 42.878C149.826 42.903 149.817 42.9271 149.799 42.9448C149.781 42.9625 149.757 42.9724 149.732 42.9724H149.685Z" fill="#454D66"/>
<path d="M151.225 45.3915C150.933 45.8562 150.553 46.2587 150.105 46.5758C149.658 46.893 149.152 47.1186 148.617 47.2398C147.183 47.5586 146.546 46.2536 147.012 44.9427C147.437 43.7617 148.688 42.1791 150.092 42.4507C150.398 42.5165 150.682 42.6573 150.919 42.8605C151.157 43.0637 151.34 43.3229 151.452 43.6147C151.565 43.9065 151.603 44.2217 151.563 44.5319C151.523 44.8421 151.407 45.1375 151.225 45.3915Z" fill="#E4897B"/>
<path d="M142.847 41.779C142.847 42.1333 142.652 42.4226 142.422 42.4226C142.192 42.4226 141.997 42.1333 141.997 41.779C141.997 41.4246 142.186 41.1294 142.422 41.1294C142.658 41.1294 142.847 41.4187 142.847 41.779Z" fill="#454D66"/>
<path d="M138.799 41.779C138.799 42.1333 138.611 42.4226 138.375 42.4226C138.139 42.4226 137.956 42.1333 137.956 41.779C137.956 41.4246 138.144 41.1294 138.375 41.1294C138.605 41.1294 138.799 41.4187 138.799 41.779Z" fill="#454D66"/>
<path d="M139.82 41.9546C139.394 43.0474 138.82 44.0766 138.115 45.0134C138.358 45.1896 138.637 45.3101 138.931 45.3662C139.226 45.4224 139.529 45.4128 139.82 45.3382V41.9546Z" fill="#DE5753"/>
<path d="M140.351 46.8713C140.337 46.8705 140.323 46.867 140.311 46.8609C140.298 46.8549 140.287 46.8464 140.278 46.836C140.268 46.8256 140.261 46.8134 140.257 46.8002C140.252 46.787 140.25 46.773 140.251 46.7591C140.251 46.7454 140.254 46.7318 140.259 46.7192C140.264 46.7066 140.272 46.6953 140.282 46.6859C140.292 46.6765 140.304 46.6692 140.317 46.6646C140.33 46.6599 140.343 46.6579 140.357 46.6587C140.802 46.6873 141.247 46.6108 141.657 46.4354C142.067 46.26 142.43 45.9906 142.717 45.6489C142.734 45.6266 142.758 45.6111 142.785 45.6057C142.812 45.6002 142.841 45.6051 142.864 45.6194C142.884 45.6392 142.894 45.6656 142.894 45.6932C142.894 45.7207 142.884 45.7472 142.864 45.767C142.563 46.1374 142.178 46.4307 141.741 46.6227C141.304 46.8147 140.828 46.8999 140.351 46.8713V46.8713Z" fill="#454D66"/>
<path d="M144.67 38.7631C144.638 38.7666 144.606 38.7626 144.576 38.7513C144.547 38.74 144.52 38.7218 144.499 38.6981C144.329 38.4942 144.113 38.334 143.869 38.2312C143.624 38.1285 143.359 38.0861 143.095 38.1076C143.039 38.1146 142.983 38.1001 142.938 38.0672C142.893 38.0342 142.863 37.9853 142.853 37.9305C142.844 37.8758 142.857 37.8198 142.889 37.7746C142.921 37.7294 142.969 37.6985 143.024 37.6884C143.354 37.6581 143.687 37.7072 143.995 37.8314C144.303 37.9557 144.577 38.1516 144.794 38.4029C144.832 38.4425 144.853 38.4954 144.853 38.5505C144.853 38.6056 144.832 38.6585 144.794 38.6981C144.76 38.7318 144.717 38.7545 144.67 38.7631V38.7631Z" fill="#454D66"/>
<path d="M152.527 68.605L145.599 68.3726L145.58 68.9385L152.509 69.1709L152.527 68.605Z" fill="#E0E0E0"/>
<path d="M137 38.72C136.969 38.7101 136.941 38.694 136.917 38.6727C136.879 38.6321 136.857 38.5782 136.857 38.5221C136.857 38.4661 136.879 38.4122 136.917 38.3716C137.147 38.1291 137.431 37.9451 137.746 37.8352C138.061 37.7253 138.398 37.6925 138.729 37.7397C138.759 37.7417 138.788 37.7502 138.815 37.7645C138.841 37.7788 138.865 37.7986 138.883 37.8226C138.901 37.8466 138.915 37.8743 138.921 37.9038C138.928 37.9332 138.929 37.9638 138.923 37.9935C138.917 38.0232 138.905 38.0512 138.887 38.0758C138.869 38.1004 138.847 38.1209 138.82 38.136C138.794 38.1511 138.765 38.1605 138.735 38.1634C138.705 38.1663 138.675 38.1628 138.646 38.1531V38.1531C138.384 38.1202 138.119 38.1497 137.871 38.2389C137.623 38.3282 137.399 38.4748 137.218 38.6668C137.19 38.6946 137.155 38.7143 137.116 38.7236C137.078 38.733 137.038 38.7317 137 38.72V38.72Z" fill="#454D66"/>
<path d="M141.407 35.0054C141.407 35.0054 141.277 31.5805 144.735 31.7576C147.419 31.8934 152.452 35.7908 154.027 35.0054C154.027 35.0054 151.077 38.4894 147.195 37.3675C145.17 36.8404 143.223 36.0461 141.407 35.0054V35.0054Z" fill="#454D66"/>
<path d="M141.407 35.0063C141.407 35.0063 144.31 33.2348 142.387 32.225C139.59 30.7724 136.227 36.0515 134.658 35.2662C134.658 35.2662 135 37.7758 138.746 36.3055C139.665 35.941 140.555 35.5067 141.407 35.0063Z" fill="#454D66"/>
<path d="M142.847 44.8038C141.419 44.8038 140.257 43.3512 140.257 41.5678C140.257 39.9853 141.177 39.1113 142.847 39.1113C144.517 39.1113 145.443 39.9853 145.443 41.5678C145.443 43.3512 144.281 44.8038 142.847 44.8038ZM142.847 39.3003C141.755 39.3003 140.446 39.6959 140.446 41.5678C140.446 43.2449 141.525 44.609 142.847 44.609C144.168 44.609 145.248 43.2449 145.248 41.5678C145.248 39.6959 143.95 39.3003 142.847 39.3003V39.3003Z" fill="#454D66"/>
<path d="M136.994 44.8038C135.814 44.8038 134.817 43.3512 134.817 41.5678C134.817 39.4302 136.18 39.1113 136.994 39.1113C137.808 39.1113 139.171 39.4302 139.171 41.5678C139.171 43.3512 138.198 44.8038 136.994 44.8038ZM136.994 39.3003C136.085 39.3003 135.006 39.6959 135.006 41.5678C135.006 43.2449 135.897 44.609 136.994 44.609C138.091 44.609 138.982 43.2449 138.982 41.5678C138.982 39.6959 137.903 39.3003 136.994 39.3003V39.3003Z" fill="#454D66"/>
<path d="M138.9 40.5182C138.883 40.5184 138.867 40.5141 138.852 40.5058C138.837 40.4975 138.825 40.4855 138.817 40.471C138.81 40.4605 138.805 40.4485 138.803 40.4359C138.801 40.4233 138.802 40.4103 138.805 40.398C138.808 40.3857 138.814 40.3742 138.822 40.3644C138.831 40.3546 138.841 40.3467 138.852 40.3413C139.12 40.1812 139.426 40.0967 139.737 40.0967C140.049 40.0967 140.355 40.1812 140.622 40.3413C140.644 40.3538 140.661 40.374 140.669 40.3981C140.676 40.4221 140.675 40.4482 140.664 40.471C140.658 40.4825 140.65 40.4926 140.641 40.5009C140.631 40.5092 140.62 40.5155 140.608 40.5193C140.596 40.5232 140.583 40.5246 140.57 40.5234C140.557 40.5222 140.545 40.5184 140.534 40.5123C140.297 40.3674 140.024 40.2908 139.746 40.2908C139.468 40.2908 139.196 40.3674 138.959 40.5123L138.9 40.5182Z" fill="#454D66"/>
<path d="M144.033 58.3496C144.033 58.3496 145.555 60.4814 145.85 62.0226C147.667 61.2668 151.107 59.3771 151.567 56.708C150.903 56.4978 150.27 56.1999 149.685 55.8223C149.685 55.8223 147.85 57.3812 144.033 58.3496Z" fill="#F0F0F0"/>
<path d="M142.806 58.2477C141.857 59.1553 141.235 60.351 141.036 61.6491C139.218 60.8932 138.504 58.4249 138.982 56.7892C139.672 56.4748 140.394 56.2371 141.136 56.0806C141.109 56.5821 141.262 57.0767 141.569 57.4745C141.875 57.8722 142.314 58.1466 142.806 58.2477Z" fill="#F0F0F0"/>
<path d="M154.275 57.0028L153.154 56.9024C153.101 56.8986 153.048 56.9145 153.005 56.9472C152.963 56.9798 152.934 57.0269 152.924 57.0796C149.803 73.8323 151.555 91.6185 151.555 91.6185H152.8C152.121 80.1352 152.687 68.6121 154.488 57.2508C154.492 57.2202 154.489 57.1891 154.481 57.1595C154.472 57.1299 154.457 57.1025 154.437 57.0791C154.417 57.0556 154.392 57.0367 154.364 57.0236C154.336 57.0104 154.306 57.0034 154.275 57.0028V57.0028Z" fill="#58B368"/>
<path opacity="0.7" d="M154.275 57.0028L153.154 56.9024C153.101 56.8986 153.048 56.9145 153.005 56.9472C152.963 56.9798 152.934 57.0269 152.924 57.0796C149.803 73.8323 151.555 91.6185 151.555 91.6185H152.8C152.121 80.1352 152.687 68.6121 154.488 57.2508C154.492 57.2202 154.489 57.1891 154.481 57.1595C154.472 57.1299 154.457 57.1025 154.437 57.0791C154.417 57.0556 154.392 57.0367 154.364 57.0236C154.336 57.0104 154.306 57.0034 154.275 57.0028V57.0028Z" fill="black"/>
<path d="M152.57 92.0121H151.715C151.61 92.0121 151.509 91.9704 151.435 91.8963C151.361 91.8222 151.319 91.7217 151.319 91.6169V91.6169C151.319 91.5115 151.361 91.4104 151.435 91.3354C151.509 91.2603 151.609 91.2174 151.715 91.2158H152.57C152.676 91.2173 152.777 91.2601 152.852 91.335C152.927 91.4099 152.97 91.511 152.971 91.6169V91.6169C152.97 91.7222 152.927 91.8227 152.852 91.8967C152.777 91.9706 152.675 92.0121 152.57 92.0121V92.0121Z" fill="#E0E0E0"/>
<path d="M151.62 93.0567V91.9347C151.62 91.866 151.634 91.7979 151.66 91.7345C151.687 91.671 151.725 91.6135 151.774 91.5652C151.823 91.5168 151.881 91.4787 151.945 91.4529C152.008 91.4272 152.077 91.4143 152.145 91.4151C152.283 91.4151 152.415 91.4698 152.512 91.5673C152.61 91.6647 152.664 91.7969 152.664 91.9347V93.0567C152.663 93.194 152.608 93.3253 152.511 93.4224C152.414 93.5196 152.282 93.5748 152.145 93.5763V93.5763C152.007 93.5763 151.874 93.5218 151.776 93.4245C151.678 93.3272 151.622 93.195 151.62 93.0567Z" fill="#E0E0E0"/>
<path d="M135.495 57.2282L134.386 57.4349C134.34 57.4434 134.299 57.4663 134.267 57.5003C134.235 57.5343 134.215 57.5776 134.209 57.6238C131.849 74.3825 134.439 91.6195 134.439 91.6195H135.69C133.843 73.3786 135.484 59.6316 135.767 57.4703C135.773 57.4343 135.771 57.3972 135.759 57.3626C135.747 57.328 135.727 57.297 135.699 57.2726C135.672 57.2483 135.639 57.2314 135.603 57.2236C135.567 57.2158 135.53 57.2174 135.495 57.2282V57.2282Z" fill="#58B368"/>
<path opacity="0.7" d="M135.495 57.2282L134.386 57.4349C134.34 57.4434 134.299 57.4663 134.267 57.5003C134.235 57.5343 134.215 57.5776 134.209 57.6238C131.849 74.3825 134.439 91.6195 134.439 91.6195H135.69C133.843 73.3786 135.484 59.6316 135.767 57.4703C135.773 57.4343 135.771 57.3972 135.759 57.3626C135.747 57.328 135.727 57.297 135.699 57.2726C135.672 57.2483 135.639 57.2314 135.603 57.2236C135.567 57.2158 135.53 57.2174 135.495 57.2282V57.2282Z" fill="black"/>
<path d="M135.472 92.0121H134.616C134.51 92.0108 134.407 91.9695 134.33 91.8963C134.252 91.8231 134.205 91.7233 134.197 91.6169V91.6169C134.196 91.5653 134.205 91.5139 134.223 91.4657C134.242 91.4175 134.269 91.3734 134.305 91.3361C134.341 91.2987 134.384 91.2689 134.431 91.2482C134.478 91.2276 134.529 91.2166 134.581 91.2158H135.436C135.544 91.2172 135.646 91.2596 135.723 91.3342C135.8 91.4088 135.845 91.5099 135.849 91.6169V91.6169C135.853 91.6681 135.845 91.7195 135.828 91.7677C135.81 91.816 135.783 91.8601 135.747 91.8972C135.712 91.9343 135.669 91.9637 135.622 91.9835C135.574 92.0032 135.523 92.013 135.472 92.0121Z" fill="#E0E0E0"/>
<path d="M134.569 93.0567L134.516 91.9347C134.513 91.8671 134.523 91.7996 134.547 91.7362C134.571 91.6729 134.608 91.6151 134.655 91.5665C134.701 91.5178 134.758 91.4792 134.82 91.4532C134.883 91.4272 134.95 91.4142 135.017 91.4151C135.157 91.4164 135.291 91.4708 135.392 91.5674C135.492 91.6639 135.553 91.7953 135.56 91.9347L135.613 93.0567C135.617 93.1238 135.606 93.1908 135.583 93.2538C135.559 93.3167 135.523 93.3742 135.477 93.4228C135.43 93.4714 135.375 93.5101 135.313 93.5365C135.251 93.5628 135.185 93.5764 135.118 93.5763V93.5763C134.978 93.5751 134.843 93.5209 134.741 93.4245C134.64 93.3281 134.578 93.1967 134.569 93.0567V93.0567Z" fill="#E0E0E0"/>
<path d="M147.107 70.8608C147.021 70.8548 146.941 70.8156 146.884 70.7517C146.827 70.6878 146.797 70.6041 146.8 70.5183L146.965 67.5658C146.966 67.5228 146.977 67.4806 146.995 67.4417C147.013 67.4028 147.039 67.3679 147.071 67.3393C147.103 67.3106 147.14 67.2887 147.181 67.2748C147.221 67.261 147.264 67.2555 147.307 67.2587C147.35 67.261 147.392 67.2716 147.43 67.2901C147.469 67.3085 147.503 67.3344 147.532 67.3662C147.56 67.398 147.582 67.4352 147.596 67.4755C147.61 67.5158 147.616 67.5585 147.614 67.6012L147.449 70.5538C147.447 70.5967 147.437 70.6389 147.419 70.6778C147.401 70.7167 147.375 70.7516 147.343 70.7803C147.311 70.8089 147.274 70.8309 147.233 70.8447C147.192 70.8585 147.149 70.864 147.107 70.8608V70.8608Z" fill="#58B368"/>
<path d="M148.116 71.9225C148.089 71.9226 148.063 71.9172 148.039 71.9066C148.015 71.896 147.993 71.8805 147.975 71.861C147.958 71.8416 147.944 71.8186 147.936 71.7936C147.927 71.7686 147.924 71.7421 147.927 71.7158L148.127 67.5114C148.13 67.4576 148.154 67.4071 148.194 67.3707C148.234 67.3343 148.286 67.3149 148.34 67.3165C148.366 67.318 148.392 67.3247 148.416 67.3362C148.439 67.3477 148.461 67.3638 148.478 67.3836C148.496 67.4033 148.509 67.4263 148.518 67.4513C148.526 67.4763 148.53 67.5027 148.529 67.5291L148.328 71.7335C148.326 71.7599 148.32 71.7857 148.308 71.8095C148.297 71.8333 148.281 71.8546 148.261 71.8721C148.241 71.8897 148.218 71.9032 148.193 71.9118C148.168 71.9205 148.142 71.9241 148.116 71.9225V71.9225Z" fill="#58B368"/>
<path opacity="0.7" d="M147.107 70.8608C147.021 70.8548 146.941 70.8156 146.884 70.7517C146.827 70.6878 146.797 70.6041 146.8 70.5183L146.965 67.5658C146.966 67.5228 146.977 67.4806 146.995 67.4417C147.013 67.4028 147.039 67.3679 147.071 67.3393C147.103 67.3106 147.14 67.2887 147.181 67.2748C147.221 67.261 147.264 67.2555 147.307 67.2587C147.35 67.261 147.392 67.2716 147.43 67.2901C147.469 67.3085 147.503 67.3344 147.532 67.3662C147.56 67.398 147.582 67.4352 147.596 67.4755C147.61 67.5158 147.616 67.5585 147.614 67.6012L147.449 70.5538C147.447 70.5967 147.437 70.6389 147.419 70.6778C147.401 70.7167 147.375 70.7516 147.343 70.7803C147.311 70.8089 147.274 70.8309 147.233 70.8447C147.192 70.8585 147.149 70.864 147.107 70.8608V70.8608Z" fill="black"/>
<path opacity="0.7" d="M148.116 71.9225C148.089 71.9226 148.063 71.9172 148.039 71.9066C148.015 71.896 147.993 71.8805 147.975 71.861C147.958 71.8416 147.944 71.8186 147.936 71.7936C147.927 71.7686 147.924 71.7421 147.927 71.7158L148.127 67.5114C148.13 67.4576 148.154 67.4071 148.194 67.3707C148.234 67.3343 148.286 67.3149 148.34 67.3165C148.366 67.318 148.392 67.3247 148.416 67.3362C148.439 67.3477 148.461 67.3638 148.478 67.3836C148.496 67.4033 148.509 67.4263 148.518 67.4513C148.526 67.4763 148.53 67.5027 148.529 67.5291L148.328 71.7335C148.326 71.7599 148.32 71.7857 148.308 71.8095C148.297 71.8333 148.281 71.8546 148.261 71.8721C148.241 71.8897 148.218 71.9032 148.193 71.9118C148.168 71.9205 148.142 71.9241 148.116 71.9225V71.9225Z" fill="black"/>
<path d="M143.165 58.9746L144.033 58.3486L145.874 60.1202L143.165 58.9746Z" fill="#58B368"/>
<path opacity="0.5" d="M143.165 58.9746L144.033 58.3486L145.874 60.1202L143.165 58.9746Z" fill="black"/>
<path d="M143.165 58.9734L142.805 58.2471L140.428 60.119L143.165 58.9734Z" fill="#58B368"/>
<path opacity="0.5" d="M143.165 58.9734L142.805 58.2471L140.428 60.119L143.165 58.9734Z" fill="black"/>
<path d="M143.991 59.8818C145.018 59.4979 149.124 56.1793 150.293 57.9035C151.461 59.6278 149.885 60.2656 150.399 61.4466C150.912 62.6276 151.685 64.6236 149.107 64.1039C146.227 63.5134 144.929 61.4998 144.098 61.4525C144.05 60.7557 143.991 59.8818 143.991 59.8818Z" fill="#58B368"/>
<path opacity="0.7" d="M143.991 59.8818C145.018 59.4979 149.124 56.1793 150.293 57.9035C151.461 59.6278 149.885 60.2656 150.399 61.4466C150.912 62.6276 151.685 64.6236 149.107 64.1039C146.227 63.5134 144.929 61.4998 144.098 61.4525C144.05 60.7557 143.991 59.8818 143.991 59.8818Z" fill="black"/>
<path d="M142.357 59.6424C141.496 59.2763 137.944 56.1703 137.083 57.7646C136.221 59.359 137.549 59.9436 137.189 61.0301C136.829 62.1167 136.31 63.9827 138.398 63.5103C140.723 62.9906 141.679 61.1187 142.357 61.0774V59.6424Z" fill="#58B368"/>
<path opacity="0.7" d="M142.357 59.6424C141.496 59.2763 137.944 56.1703 137.083 57.7646C136.221 59.359 137.549 59.9436 137.189 61.0301C136.829 62.1167 136.31 63.9827 138.398 63.5103C140.723 62.9906 141.679 61.1187 142.357 61.0774V59.6424Z" fill="black"/>
<path d="M144.174 61.5434C144.599 60.8289 144.882 58.8625 143.974 59.2109C143.065 59.5593 142.965 59.6066 142.705 59.4353C142.446 59.2641 141.767 58.9511 141.649 59.6715C141.531 60.3919 141.708 61.8269 142.381 61.7973C143.053 61.7678 143.744 62.2757 144.174 61.5434Z" fill="#58B368"/>
<path opacity="0.7" d="M144.174 61.5434C144.599 60.8289 144.882 58.8625 143.974 59.2109C143.065 59.5593 142.965 59.6066 142.705 59.4353C142.446 59.2641 141.767 58.9511 141.649 59.6715C141.531 60.3919 141.708 61.8269 142.381 61.7973C143.053 61.7678 143.744 62.2757 144.174 61.5434Z" fill="black"/>
<path d="M112.42 74.2371L111.122 83.8506C111.111 83.9257 111.072 83.9938 111.013 84.0418C110.954 84.0898 110.88 84.1143 110.804 84.1105L106.674 83.8624C106.598 83.8553 106.528 83.8208 106.475 83.7653C106.423 83.7099 106.393 83.6374 106.391 83.5613L106.361 81.3941L106.284 76.3393L106.249 73.8828L112.42 74.2371Z" fill="#58B368"/>
<path opacity="0.3" d="M112.42 74.2371L111.122 83.8506C111.111 83.9257 111.072 83.9938 111.013 84.0418C110.954 84.0898 110.88 84.1143 110.804 84.1105L106.674 83.8624C106.598 83.8553 106.528 83.8208 106.475 83.7653C106.423 83.7099 106.393 83.6374 106.391 83.5613L106.361 81.3941L106.284 76.3393L106.249 73.8828L112.42 74.2371Z" fill="black"/>
<path d="M113.122 73.8004L105.589 73.3472L105.531 74.3198L113.063 74.7729L113.122 73.8004Z" fill="#58B368"/>
<path d="M112.645 73.2819L106.125 72.8896L106.067 73.8622L112.586 74.2545L112.645 73.2819Z" fill="#58B368"/>
<path d="M112.645 73.2819L106.125 72.8896L106.067 73.8622L112.586 74.2545L112.645 73.2819Z" fill="#F5F5F5"/>
<path d="M113.122 73.8004L105.589 73.3472L105.531 74.3198L113.063 74.7729L113.122 73.8004Z" fill="#EBEBEB"/>
<path opacity="0.43" d="M108.715 76.4709L108.414 81.502L106.32 81.378L106.243 76.3232L108.715 76.4709Z" fill="#EBEBEB"/>
<path d="M165.957 106.293L143.661 105.791C143.372 105.774 143.089 105.698 142.831 105.566C142.572 105.434 142.344 105.249 142.161 105.024C141.978 104.799 141.844 104.539 141.767 104.259C141.69 103.979 141.672 103.686 141.714 103.399L143.561 83.8357C143.569 83.5495 143.64 83.2685 143.769 83.0129C143.898 82.7573 144.082 82.5333 144.307 82.3569C144.532 82.1804 144.794 82.0558 145.073 81.9919C145.352 81.9281 145.641 81.9265 145.921 81.9874L167.751 86.9949C168.494 87.1662 169.025 88.1287 168.931 89.1326L167.515 104.486C167.409 105.478 166.718 106.293 165.957 106.293Z" fill="#58B368"/>
<path opacity="0.3" d="M165.957 106.293L143.661 105.791C143.372 105.774 143.089 105.698 142.831 105.566C142.572 105.434 142.344 105.249 142.161 105.024C141.978 104.799 141.844 104.539 141.767 104.259C141.69 103.979 141.672 103.686 141.714 103.399L143.561 83.8357C143.569 83.5495 143.64 83.2685 143.769 83.0129C143.898 82.7573 144.082 82.5333 144.307 82.3569C144.532 82.1804 144.794 82.0558 145.073 81.9919C145.352 81.9281 145.641 81.9265 145.921 81.9874L167.751 86.9949C168.494 87.1662 169.025 88.1287 168.931 89.1326L167.515 104.486C167.409 105.478 166.718 106.293 165.957 106.293Z" fill="white"/>
<path d="M166.37 106.292L144.275 105.79C143.989 105.773 143.71 105.696 143.456 105.565C143.201 105.435 142.977 105.253 142.796 105.031C142.615 104.809 142.482 104.552 142.406 104.276C142.329 104 142.311 103.711 142.351 103.428L144.186 83.9413C144.191 83.6591 144.258 83.3815 144.382 83.1279C144.506 82.8743 144.683 82.651 144.903 82.4737C145.122 82.2964 145.378 82.1693 145.651 82.1015C145.925 82.0337 146.21 82.0267 146.487 82.0812L168.116 87.0414C168.86 87.2068 169.385 88.1693 169.296 89.1732L167.886 104.461C167.792 105.489 167.102 106.292 166.37 106.292Z" fill="#58B368"/>
<path opacity="0.7" d="M166.37 106.292L144.275 105.79C143.989 105.773 143.71 105.696 143.456 105.565C143.201 105.435 142.977 105.253 142.796 105.031C142.615 104.809 142.482 104.552 142.406 104.276C142.329 104 142.311 103.711 142.351 103.428L144.186 83.9413C144.191 83.6591 144.258 83.3815 144.382 83.1279C144.506 82.8743 144.683 82.651 144.903 82.4737C145.122 82.2964 145.378 82.1693 145.651 82.1015C145.925 82.0337 146.21 82.0267 146.487 82.0812L168.116 87.0414C168.86 87.2068 169.385 88.1693 169.296 89.1732L167.886 104.461C167.792 105.489 167.102 106.292 166.37 106.292Z" fill="white"/>
<path d="M166.453 105.381L144.381 104.66C144.246 104.657 144.113 104.625 143.991 104.567C143.869 104.509 143.761 104.426 143.673 104.324C143.571 104.203 143.495 104.063 143.448 103.911C143.401 103.76 143.385 103.601 143.401 103.444L145.219 84.1638C145.232 84.0107 145.276 83.862 145.35 83.7269C145.423 83.5919 145.523 83.4732 145.643 83.3784C145.752 83.3006 145.876 83.2462 146.007 83.2188C146.138 83.1913 146.274 83.1914 146.404 83.2189L168.063 87.943C168.271 88.0307 168.443 88.1868 168.55 88.3854C168.658 88.5841 168.694 88.8134 168.653 89.0355L167.237 104.442C167.242 104.667 167.165 104.886 167.02 105.058C166.876 105.231 166.675 105.345 166.453 105.381ZM146.174 83.3134C146.002 83.313 145.834 83.369 145.697 83.4729C145.588 83.557 145.498 83.663 145.433 83.784C145.368 83.9051 145.329 84.0385 145.319 84.1756L143.496 103.456C143.469 103.741 143.556 104.026 143.738 104.247C143.816 104.337 143.912 104.409 144.019 104.46C144.127 104.511 144.244 104.539 144.363 104.542V104.542L166.435 105.269C166.765 105.269 167.066 104.902 167.108 104.448L168.524 89.0414C168.563 88.844 168.532 88.6391 168.436 88.4622C168.34 88.2854 168.185 88.1477 167.998 88.0729L146.345 83.3489C146.29 83.3298 146.233 83.3179 146.174 83.3134V83.3134Z" fill="white"/>
<path d="M157.337 98.9465H157.113C156.767 98.9063 156.433 98.7979 156.129 98.6276C155.825 98.4574 155.558 98.2286 155.343 97.9545C154.705 97.1444 154.41 96.1159 154.523 95.0905C154.556 94.5899 154.691 94.1014 154.92 93.6547C155.148 93.208 155.465 92.8125 155.85 92.4923C156.12 92.2757 156.432 92.1172 156.766 92.0267C157.1 91.9363 157.449 91.9159 157.791 91.9667C158.166 92.0328 158.524 92.1767 158.84 92.3893C159.156 92.6018 159.424 92.8783 159.626 93.2009C159.632 93.2058 159.636 93.2118 159.638 93.2184C159.641 93.225 159.643 93.2321 159.643 93.2393C159.643 93.2464 159.641 93.2535 159.638 93.2601C159.636 93.2667 159.632 93.2727 159.626 93.2776C159.621 93.2828 159.615 93.2869 159.609 93.2898C159.602 93.2926 159.595 93.294 159.588 93.294C159.581 93.294 159.574 93.2926 159.567 93.2898C159.561 93.2869 159.555 93.2828 159.55 93.2776C159.352 92.9693 159.093 92.7052 158.788 92.502C158.483 92.2987 158.14 92.1607 157.78 92.0966C157.453 92.0488 157.119 92.0691 156.8 92.1565C156.481 92.2439 156.184 92.3965 155.927 92.6045C155.554 92.914 155.248 93.296 155.027 93.7273C154.806 94.1587 154.675 94.6305 154.641 95.1141C154.532 96.1117 154.818 97.1122 155.437 97.9013C155.863 98.4313 156.48 98.7728 157.154 98.852C157.51 98.8783 157.867 98.827 158.202 98.7016C158.536 98.5762 158.839 98.3797 159.089 98.1257C159.101 98.1149 159.115 98.1088 159.131 98.1088C159.146 98.1088 159.161 98.1149 159.172 98.1257C159.182 98.1374 159.187 98.152 159.187 98.1671C159.187 98.1821 159.182 98.1968 159.172 98.2084C158.93 98.4465 158.643 98.6343 158.328 98.761C158.013 98.8877 157.677 98.9507 157.337 98.9465V98.9465Z" fill="white"/>
<path d="M159.095 98.1949C159.08 98.2003 159.063 98.2003 159.048 98.1949C158.536 97.4269 158.308 96.5034 158.405 95.5849C158.477 94.6892 158.871 93.85 159.514 93.2228C159.526 93.2119 159.542 93.206 159.558 93.2066C159.574 93.2071 159.589 93.214 159.6 93.2258C159.611 93.2375 159.617 93.2532 159.616 93.2692C159.616 93.2853 159.609 93.3005 159.597 93.3114C158.963 93.9203 158.578 94.7433 158.517 95.6203C158.426 96.5099 158.647 97.4035 159.143 98.1477C159.149 98.1527 159.154 98.159 159.157 98.1661C159.161 98.1733 159.162 98.1811 159.162 98.189C159.162 98.1969 159.161 98.2048 159.157 98.2119C159.154 98.2191 159.149 98.2254 159.143 98.2304L159.095 98.1949Z" fill="white"/>
<path d="M162.134 63.0654C162.942 66.1774 163.644 69.2835 164.27 72.4368C164.582 74.0135 164.86 75.5901 165.137 77.1904C165.273 77.9876 165.408 78.7907 165.52 79.6056L165.686 80.8339L165.78 81.4893L165.821 81.8023L165.857 82.1802C165.983 83.9994 165.892 85.8272 165.585 87.6247C165.321 89.2844 164.966 90.9285 164.523 92.5496C163.667 95.7153 162.564 98.8092 161.225 101.803L157.921 100.734C158.511 97.687 158.989 94.5632 159.373 91.528C159.561 90.0104 159.697 88.4987 159.768 87.0283C159.853 85.6699 159.796 84.3062 159.597 82.9597L159.561 82.7471L159.502 82.4755L159.39 81.9204L159.143 80.8044L158.617 78.5368L157.52 73.9308C156.777 70.8779 156.039 67.7895 155.349 64.7248L162.134 63.0654Z" fill="#E4897B"/>
<path d="M161.367 99.272L158.535 99.6676L156.258 103.406L155.255 106.258L159.78 106.033L160.865 104.303C160.865 104.303 162.877 101.74 161.367 99.272Z" fill="#E4897B"/>
<path d="M157.791 57.8063C162.511 58.6448 167.674 76.2598 167.674 76.2598L156.777 79.9859C156.777 79.9859 153.142 71.2404 153.827 65.8136C154.476 60.4518 153.313 57.0091 157.791 57.8063Z" fill="#58B368"/>
<path opacity="0.3" d="M157.791 57.8063C162.511 58.6448 167.674 76.2598 167.674 76.2598L156.777 79.9859C156.777 79.9859 153.142 71.2404 153.827 65.8136C154.476 60.4518 153.313 57.0091 157.791 57.8063Z" fill="black"/>
<path d="M210.065 51.1844C208.042 50.4049 202.767 48.5212 206.006 42.1614C209.245 35.8016 217.139 44.4821 219.824 41.5709C219.47 45.2616 216.313 53.5878 210.065 51.1844Z" fill="#454D66"/>
<path d="M206.443 51.4084C204.047 50.1979 203.493 49.0464 203.333 48.5267C203.314 48.454 203.312 48.3775 203.33 48.3043C203.347 48.231 203.383 48.1633 203.434 48.1075C203.882 47.5996 205.292 46.2119 206.502 47.4048C207.711 48.5976 208.862 48.7216 207.021 51.2608C206.958 51.3501 206.865 51.4141 206.759 51.4411C206.653 51.4682 206.541 51.4566 206.443 51.4084V51.4084Z" fill="#58B368"/>
<path opacity="0.3" d="M206.443 51.4084C204.047 50.1979 203.493 49.0464 203.333 48.5267C203.314 48.454 203.312 48.3775 203.33 48.3043C203.347 48.231 203.383 48.1633 203.434 48.1075C203.882 47.5996 205.292 46.2119 206.502 47.4048C207.711 48.5976 208.862 48.7216 207.021 51.2608C206.958 51.3501 206.865 51.4141 206.759 51.4411C206.653 51.4682 206.541 51.4566 206.443 51.4084V51.4084Z" fill="black"/>
<path d="M202.708 72.2718C199.791 72.0619 196.863 72.0619 193.947 72.2718C195.923 70.3881 195.368 64.9613 194.814 62.1387L198.537 65.3215L200.195 66.7388C200.06 67.2398 199.97 67.7515 199.923 68.2682C199.776 70.0102 200.283 71.6872 202.708 72.2718Z" fill="#E4897B"/>
<path d="M212.284 78.7251C212.384 79.7998 212.508 80.9808 212.655 82.1087C212.803 83.2366 212.98 84.394 213.169 85.5278C213.542 87.7844 214.034 90.0197 214.644 92.2241C214.956 93.3107 215.293 94.3854 215.682 95.4306L216.195 96.7652C216.278 96.9736 216.402 97.1627 216.561 97.3203C216.781 97.4865 217.042 97.5887 217.316 97.6155C217.747 97.6615 218.181 97.6495 218.609 97.5801C219.641 97.3999 220.648 97.1007 221.612 96.6884L222.986 98.6666C222.491 99.1186 221.958 99.5275 221.393 99.889C220.821 100.268 220.212 100.589 219.576 100.846C218.868 101.136 218.12 101.32 217.358 101.389C216.41 101.482 215.455 101.311 214.599 100.894C213.743 100.477 213.019 99.8307 212.508 99.0268C212.28 98.699 212.083 98.3512 211.918 97.9875L211.529 97.1195C211.015 95.9385 210.579 94.7574 210.189 93.5764C209.421 91.2207 208.812 88.8158 208.366 86.3781C208.124 85.1971 207.935 83.957 207.776 82.7406C207.617 81.5241 207.481 80.3254 207.404 79.0204L212.284 78.7251Z" fill="#E4897B"/>
<path d="M210.744 73.2229C212.703 73.719 214.072 81.7853 214.072 81.7853L208.673 85.4583C208.673 85.4583 203.499 77.3211 205.003 75.1716C206.573 72.9336 207.882 72.5084 210.744 73.2229Z" fill="#58B368"/>
<path opacity="0.7" d="M210.744 73.2229C212.703 73.719 214.072 81.7853 214.072 81.7853L208.673 85.4583C208.673 85.4583 203.499 77.3211 205.003 75.1716C206.573 72.9336 207.882 72.5084 210.744 73.2229Z" fill="black"/>
<path d="M230.656 87.4367L222.65 86.1553L222.243 87.8087L218.255 96.4597L226.261 97.7411L230.249 89.0901L230.656 87.4367Z" fill="#454D66"/>
<path d="M231.111 87.5114L223.104 86.23L222.697 87.8775L218.709 96.5344L226.715 97.8158L230.704 89.1589L231.111 87.5114Z" fill="#58B368"/>
<path d="M222.786 98.7864L226.568 95.8339L221.848 94.8418C221.848 94.8418 219.859 97.1566 220.573 98.9754L222.786 98.7864Z" fill="#E4897B"/>
<path d="M227.529 91.9457L223.523 91.3257L221.836 94.8333L226.568 95.8254L227.529 91.9457Z" fill="#E4897B"/>
<path d="M210.744 73.2232C210.744 73.2232 213.004 74.0204 208.472 101.928H189.173C189.498 94.0623 189.504 89.2201 185.751 73.0874C188.454 72.541 191.193 72.1917 193.947 72.0422C196.863 71.8323 199.791 71.8323 202.708 72.0422C206.49 72.361 210.744 73.2232 210.744 73.2232Z" fill="#58B368"/>
<path opacity="0.7" d="M210.744 73.2232C210.744 73.2232 213.004 74.0204 208.472 101.928H189.173C189.498 94.0623 189.504 89.2201 185.751 73.0874C188.454 72.541 191.193 72.1917 193.947 72.0422C196.863 71.8323 199.791 71.8323 202.708 72.0422C206.49 72.361 210.744 73.2232 210.744 73.2232Z" fill="black"/>
<path d="M199.988 208.992H204.738L205.375 197.979H200.625L199.988 208.992Z" fill="#E4897B"/>
<path d="M178.371 208.992H183.12L185.162 197.979H180.412L178.371 208.992Z" fill="#E4897B"/>
<path d="M183.604 208.448H178.294C178.202 208.448 178.113 208.48 178.044 208.54C177.975 208.6 177.929 208.683 177.916 208.773L177.326 213.001C177.315 213.108 177.326 213.216 177.359 213.318C177.392 213.42 177.446 213.515 177.518 213.594C177.59 213.674 177.678 213.738 177.776 213.781C177.874 213.824 177.98 213.846 178.087 213.846C179.946 213.816 180.843 213.704 183.191 213.704C184.636 213.704 186.731 213.858 188.743 213.858C190.755 213.858 190.843 211.879 190.011 211.702C186.288 210.899 185.698 209.795 184.448 208.75C184.213 208.549 183.912 208.442 183.604 208.448V208.448Z" fill="#454D66"/>
<path d="M205.062 208.448H199.723C199.631 208.446 199.541 208.478 199.472 208.538C199.402 208.598 199.357 208.682 199.345 208.773L198.755 213.001C198.743 213.108 198.754 213.216 198.787 213.318C198.82 213.42 198.875 213.514 198.947 213.594C199.018 213.674 199.106 213.737 199.205 213.781C199.303 213.824 199.409 213.846 199.516 213.846C201.375 213.816 202.271 213.704 204.62 213.704C206.065 213.704 209.051 213.857 211.045 213.857C213.039 213.857 213.145 211.879 212.319 211.702C208.59 210.899 207.127 209.795 205.871 208.75C205.646 208.555 205.359 208.448 205.062 208.448V208.448Z" fill="#454D66"/>
<path d="M205.375 197.987L205.044 203.662H200.295L200.625 197.987H205.375Z" fill="#CE6F64"/>
<path d="M180.412 197.987H185.161L184.111 203.662H179.356L180.412 197.987Z" fill="#CE6F64"/>
<path d="M194.778 70.5903C194.138 70.8845 193.586 71.3429 193.18 71.919C193.646 72.6807 197.239 74.1039 198.212 74.0153C198.177 73.2411 198.413 72.4789 198.879 71.8599C198.879 71.8599 196.377 71.7773 194.778 70.5903Z" fill="#58B368"/>
<path d="M200.59 70.7114C201.239 70.9925 201.837 71.3796 202.36 71.857C202.159 72.5066 200.59 73.6876 199.905 73.9474C199.768 73.1638 199.405 72.4374 198.861 71.857C199.517 71.6119 200.108 71.2201 200.59 70.7114V70.7114Z" fill="#58B368"/>
<path d="M208.472 101.94C208.472 101.94 212.219 138.552 211.906 153.072C211.582 168.16 206.059 202.563 206.059 202.563H199.634C199.634 202.563 200.655 169.04 200.083 154.224C199.463 138.073 194.342 101.94 194.342 101.94H208.472Z" fill="#58B368"/>
<path d="M203.375 101.94C203.375 101.94 200.619 134.577 197.758 152.972C195.445 167.829 185.197 202.575 185.197 202.575H178.707C178.707 202.575 184.052 169.034 185.197 154.336C188.147 117.134 182.961 110.567 189.144 101.952L203.375 101.94Z" fill="#58B368"/>
<path opacity="0.57" d="M198.958 86.801L201.534 86.8919C202.736 86.9344 203.744 85.9938 203.787 84.7911L203.874 82.3184C203.916 81.1158 202.977 80.1064 201.775 80.064L199.198 79.973C197.997 79.9306 196.988 80.8712 196.946 82.0739L196.859 84.5466C196.816 85.7492 197.756 86.7586 198.958 86.801Z" fill="#58B368"/>
<path d="M200.195 66.7266C200.06 67.2277 199.97 67.7394 199.923 68.2561C198.631 68.0317 196.938 66.7503 196.808 65.5279C196.73 65.0204 196.754 64.5024 196.879 64.0044L198.537 65.3094L200.195 66.7266Z" fill="#CE6F64"/>
<path d="M193.286 55.7185C193.575 60.4426 193.598 62.4267 195.976 64.8478C199.552 68.4854 205.269 67.0977 206.39 62.3972C207.404 58.1633 206.761 51.1775 202.153 49.2938C201.139 48.8747 200.035 48.7223 198.945 48.851C197.856 48.9798 196.817 49.3854 195.928 50.0293C195.039 50.6733 194.33 51.5341 193.868 52.5299C193.405 53.5257 193.205 54.6234 193.286 55.7185V55.7185Z" fill="#E4897B"/>
<path d="M192.548 57.7396C192.527 57.7457 192.505 57.7457 192.483 57.7396C192.465 57.732 192.449 57.7208 192.436 57.7067C192.423 57.6926 192.412 57.6758 192.406 57.6576C192.399 57.6393 192.396 57.6198 192.397 57.6004C192.399 57.581 192.404 57.562 192.413 57.5447C193.003 56.3283 197.764 55.4957 198.313 55.4012C199.856 55.1812 201.421 55.1416 202.974 55.2831C203.158 55.1954 203.359 55.1499 203.564 55.1499C203.768 55.1499 203.969 55.1954 204.154 55.2831C205.161 55.1711 206.178 55.1711 207.186 55.2831C207.206 55.2844 207.225 55.2899 207.243 55.2992C207.26 55.3085 207.276 55.3213 207.288 55.3369C207.3 55.3525 207.309 55.3704 207.314 55.3897C207.319 55.4089 207.319 55.4289 207.316 55.4484C207.31 55.4866 207.29 55.521 207.259 55.5442C207.228 55.5673 207.189 55.5775 207.151 55.5724C206.153 55.4627 205.146 55.4627 204.148 55.5724C204.122 55.5782 204.096 55.5782 204.071 55.5724C203.922 55.4943 203.756 55.4535 203.587 55.4535C203.419 55.4535 203.253 55.4943 203.103 55.5724C203.087 55.5791 203.07 55.5825 203.053 55.5825C203.036 55.5825 203.019 55.5791 203.003 55.5724C201.46 55.4245 199.905 55.4641 198.372 55.6905C196.95 55.9326 193.144 56.7534 192.702 57.6687C192.687 57.6955 192.664 57.7168 192.637 57.7296C192.609 57.7423 192.578 57.7458 192.548 57.7396V57.7396Z" fill="#454D66"/>
<path d="M200.619 59.2566H200.478C200.177 59.255 199.881 59.1869 199.609 59.0573C199.338 58.9276 199.099 58.7396 198.908 58.5067C198.059 57.426 198.395 55.6013 198.407 55.5541C198.408 55.5441 198.412 55.5345 198.417 55.526C198.422 55.5174 198.43 55.5101 198.438 55.5045C198.446 55.499 198.456 55.4952 198.466 55.4936C198.476 55.4919 198.486 55.4924 198.495 55.4951C198.505 55.4965 198.514 55.4998 198.522 55.5047C198.53 55.5097 198.537 55.5162 198.542 55.5239C198.548 55.5316 198.552 55.5404 198.554 55.5496C198.556 55.5588 198.556 55.5684 198.554 55.5777C198.554 55.5777 198.218 57.4201 199.026 58.4476C199.204 58.6644 199.427 58.8389 199.68 58.9584C199.933 59.078 200.21 59.1395 200.49 59.1385C200.757 59.1655 201.028 59.1323 201.281 59.0414C201.534 58.9505 201.763 58.8041 201.953 58.6129C202.95 57.6032 202.82 55.4773 202.82 55.4537C202.819 55.4444 202.82 55.435 202.823 55.4261C202.826 55.4172 202.831 55.409 202.837 55.4018C202.843 55.3947 202.85 55.3888 202.858 55.3845C202.867 55.3803 202.876 55.3777 202.885 55.377V55.377C202.904 55.3769 202.923 55.3842 202.937 55.3973C202.952 55.4105 202.96 55.4285 202.962 55.4478C202.962 55.5364 203.092 57.6622 202.053 58.7192C201.862 58.9006 201.637 59.0416 201.391 59.1339C201.145 59.2262 200.882 59.268 200.619 59.2566V59.2566Z" fill="#454D66"/>
<path d="M205.853 59.1491C205.626 59.1576 205.4 59.1172 205.19 59.0306C204.981 58.944 204.792 58.8132 204.637 58.6472C203.741 57.661 204.047 55.606 204.047 55.5175C204.048 55.5077 204.051 55.4982 204.055 55.4896C204.06 55.4811 204.066 55.4737 204.074 55.468C204.082 55.4623 204.091 55.4585 204.101 55.4569C204.111 55.4552 204.121 55.4557 204.13 55.4584C204.139 55.4598 204.148 55.4631 204.156 55.4681C204.164 55.473 204.171 55.4796 204.177 55.4873C204.182 55.495 204.186 55.5037 204.188 55.513C204.19 55.5222 204.191 55.5318 204.189 55.5411C204.189 55.5411 203.882 57.6138 204.726 58.5468C204.883 58.7137 205.077 58.8416 205.292 58.9206C205.507 58.9995 205.737 59.0272 205.965 59.0015C206.118 58.9961 206.269 58.9561 206.404 58.8845C206.54 58.813 206.658 58.7116 206.75 58.5881C207.452 57.6551 206.956 55.4525 206.95 55.4289C206.948 55.4095 206.953 55.39 206.964 55.3738C206.974 55.3576 206.99 55.3458 207.009 55.3403C207.019 55.3377 207.029 55.3372 207.039 55.3388C207.049 55.3405 207.058 55.3442 207.067 55.3498C207.075 55.3554 207.082 55.3627 207.088 55.3712C207.093 55.3798 207.096 55.3894 207.098 55.3994C207.098 55.4938 207.611 57.6905 206.868 58.6767C206.763 58.8172 206.628 58.9324 206.472 59.0142C206.317 59.0959 206.146 59.142 205.971 59.1491H205.853Z" fill="#454D66"/>
<path d="M192.548 58.2095C199.823 56.7332 202.897 50.09 202.897 50.09C202.897 50.09 201.971 47.1374 197.723 47.5331C194.342 47.8578 187.516 53.7807 192.548 58.2095Z" fill="#454D66"/>
<path d="M189.651 51.2557C191.952 50.5175 197.911 48.7519 193.899 41.778C189.887 34.8041 181.179 43.7385 177.969 40.4907C178.565 44.4589 182.571 53.5292 189.651 51.2557Z" fill="#454D66"/>
<path d="M206.437 55.2174C203.699 49.4895 199.003 49.0584 199.003 49.0584C199.003 49.0584 201.64 46.7495 205.257 48.9934C207.847 50.6055 207.446 53.3809 206.437 55.2174Z" fill="#454D66"/>
<path d="M192.147 58.3369C192.245 59.2454 192.699 60.078 193.41 60.6517C194.354 61.4017 195.292 60.6517 195.422 59.5297C195.54 58.5022 195.186 56.8783 194.047 56.5772C193.798 56.5147 193.537 56.5153 193.288 56.5791C193.039 56.6428 192.81 56.7677 192.621 56.9424C192.432 57.1171 192.29 57.3361 192.208 57.5796C192.125 57.8231 192.104 58.0833 192.147 58.3369Z" fill="#E4897B"/>
<path d="M200.395 57.7325C200.646 57.7325 200.85 57.4205 200.85 57.0357C200.85 56.6508 200.646 56.3389 200.395 56.3389C200.144 56.3389 199.941 56.6508 199.941 57.0357C199.941 57.4205 200.144 57.7325 200.395 57.7325Z" fill="#454D66"/>
<path d="M204.803 57.7325C205.053 57.7325 205.257 57.4205 205.257 57.0357C205.257 56.6508 205.053 56.3389 204.803 56.3389C204.552 56.3389 204.348 56.6508 204.348 57.0357C204.348 57.4205 204.552 57.7325 204.803 57.7325Z" fill="#454D66"/>
<path d="M204.72 56.3621L205.64 56.0967C205.64 56.0967 205.139 56.8162 204.72 56.3621Z" fill="#454D66"/>
<path d="M203.611 57.6924C203.954 58.5676 204.415 59.392 204.98 60.143C204.784 60.2825 204.56 60.3775 204.323 60.4213C204.087 60.4652 203.844 60.4568 203.611 60.3969V57.6924Z" fill="#DE5753"/>
<path d="M202.266 61.9087C201.751 61.9232 201.24 61.8139 200.776 61.5899C200.312 61.3659 199.908 61.0338 199.599 60.6214C199.583 60.5954 199.578 60.5643 199.584 60.5346C199.591 60.5049 199.609 60.4788 199.634 60.462C199.659 60.4465 199.689 60.4416 199.718 60.4482C199.747 60.4548 199.772 60.4725 199.788 60.4974C200.08 60.8736 200.457 61.1763 200.887 61.3813C201.317 61.5864 201.789 61.6881 202.266 61.6784C202.295 61.6798 202.322 61.6921 202.343 61.7129C202.364 61.7336 202.376 61.7613 202.378 61.7906C202.378 61.8058 202.376 61.8211 202.371 61.8354C202.366 61.8497 202.357 61.8627 202.347 61.8738C202.336 61.8848 202.324 61.8936 202.31 61.8996C202.296 61.9057 202.281 61.9087 202.266 61.9087V61.9087Z" fill="#454D66"/>
<path d="M199.333 53.8359C199.285 53.8353 199.238 53.8192 199.2 53.7899C199.162 53.7606 199.134 53.7198 199.121 53.6734C199.107 53.6271 199.109 53.5777 199.126 53.5326C199.143 53.4875 199.175 53.4491 199.215 53.4231C199.612 53.1923 200.055 53.0534 200.513 53.0167C200.97 52.9799 201.43 53.0463 201.858 53.2107C201.886 53.2218 201.911 53.2382 201.933 53.259C201.954 53.2799 201.971 53.3048 201.982 53.3322C201.994 53.3597 202 53.3892 202 53.4189C202 53.4487 201.994 53.4782 201.982 53.5057C201.958 53.5595 201.913 53.6017 201.858 53.6237C201.804 53.6457 201.742 53.6456 201.687 53.6236C201.324 53.4899 200.935 53.4369 200.549 53.4685C200.163 53.5001 199.788 53.6154 199.451 53.8065C199.416 53.8273 199.375 53.8375 199.333 53.8359V53.8359Z" fill="#454D66"/>
<path d="M205.717 53.6023C205.673 53.6025 205.63 53.5902 205.593 53.5669C205.36 53.4074 205.092 53.306 204.812 53.2711C204.532 53.2363 204.247 53.2689 203.982 53.3663C203.955 53.3787 203.926 53.3857 203.896 53.3867C203.866 53.3878 203.837 53.383 203.809 53.3726C203.781 53.3622 203.755 53.3464 203.733 53.3261C203.712 53.3058 203.694 53.2814 203.682 53.2543C203.669 53.2272 203.662 53.1979 203.661 53.1681C203.66 53.1383 203.665 53.1086 203.675 53.0807C203.686 53.0527 203.702 53.0271 203.722 53.0053C203.742 52.9835 203.767 52.9659 203.794 52.9535C204.128 52.8263 204.488 52.7813 204.843 52.8224C205.198 52.8634 205.539 52.9893 205.835 53.1894C205.885 53.221 205.92 53.2708 205.933 53.3282C205.947 53.3856 205.937 53.4459 205.906 53.4961C205.886 53.5287 205.859 53.5556 205.826 53.5742C205.792 53.5929 205.755 53.6025 205.717 53.6023V53.6023Z" fill="#454D66"/>
<path d="M185.25 209.278C184.826 209.268 184.405 209.213 183.993 209.113C183.971 209.107 183.951 209.096 183.935 209.079C183.919 209.062 183.909 209.041 183.905 209.018C183.9 208.996 183.902 208.973 183.91 208.952C183.918 208.931 183.933 208.913 183.952 208.9C184.117 208.788 185.569 207.855 186.117 208.109C186.18 208.138 186.234 208.182 186.274 208.238C186.314 208.294 186.34 208.359 186.347 208.428C186.368 208.534 186.361 208.644 186.328 208.747C186.295 208.85 186.237 208.944 186.159 209.018C185.897 209.212 185.574 209.304 185.25 209.278V209.278ZM184.324 208.942C185.144 209.107 185.757 209.077 185.999 208.859C186.05 208.808 186.087 208.745 186.106 208.676C186.126 208.606 186.128 208.533 186.111 208.463C186.111 208.434 186.103 208.405 186.087 208.38C186.072 208.355 186.049 208.335 186.023 208.322C185.716 208.192 184.89 208.587 184.306 208.942H184.324Z" fill="#58B368"/>
<path d="M183.999 209.11C183.98 209.116 183.959 209.116 183.94 209.11C183.923 209.1 183.909 209.085 183.9 209.067C183.891 209.05 183.886 209.03 183.887 209.01C183.887 208.951 183.887 207.581 184.406 207.12C184.471 207.061 184.548 207.018 184.632 206.992C184.715 206.966 184.804 206.96 184.89 206.973C184.981 206.975 185.068 207.007 185.137 207.065C185.207 207.123 185.255 207.203 185.274 207.292C185.38 207.829 184.512 208.856 184.058 209.11C184.039 209.116 184.018 209.116 183.999 209.11ZM184.807 207.185C184.718 207.184 184.631 207.218 184.566 207.28C184.269 207.716 184.115 208.234 184.123 208.762C184.577 208.402 185.108 207.64 185.043 207.315C185.043 207.268 185.002 207.203 184.861 207.185H184.807Z" fill="#58B368"/>
<path d="M206.844 209.275C206.342 209.265 205.843 209.21 205.351 209.11C205.328 209.105 205.306 209.093 205.289 209.076C205.273 209.059 205.262 209.037 205.258 209.013C205.254 208.989 205.257 208.965 205.268 208.943C205.278 208.921 205.295 208.903 205.316 208.891C205.534 208.779 207.428 207.811 208.012 208.13C208.068 208.159 208.115 208.202 208.149 208.255C208.183 208.307 208.203 208.368 208.207 208.431C208.218 208.533 208.206 208.636 208.17 208.733C208.134 208.829 208.076 208.916 208 208.986C207.659 209.21 207.251 209.312 206.844 209.275V209.275ZM205.741 208.939C206.785 209.116 207.558 209.068 207.841 208.809C207.89 208.765 207.927 208.709 207.95 208.648C207.973 208.586 207.98 208.52 207.971 208.454C207.971 208.43 207.965 208.406 207.952 208.385C207.94 208.364 207.922 208.347 207.9 208.336C207.587 208.159 206.49 208.572 205.741 208.939Z" fill="#58B368"/>
<path d="M205.369 209.111C205.348 209.119 205.325 209.119 205.304 209.111C205.287 209.101 205.274 209.086 205.265 209.068C205.257 209.05 205.254 209.03 205.257 209.011C205.257 208.952 205.369 207.67 205.971 207.174C206.056 207.1 206.155 207.045 206.263 207.011C206.371 206.977 206.484 206.967 206.596 206.979C206.927 206.979 207.003 207.192 207.021 207.298C207.11 207.847 206 208.863 205.422 209.123L205.369 209.111ZM206.502 207.186C206.361 207.186 206.225 207.236 206.118 207.328C205.774 207.74 205.567 208.25 205.528 208.786C206.118 208.432 206.856 207.635 206.803 207.316C206.803 207.286 206.803 207.21 206.584 207.186H206.502Z" fill="#58B368"/>
<path d="M200.283 56.3621L201.18 56.0967C201.18 56.0967 200.732 56.8162 200.283 56.3621Z" fill="#454D66"/>
<path d="M185.468 202.715H178.217L178.282 198.487L186.872 198.582L185.468 202.715Z" fill="#58B368"/>
<path opacity="0.7" d="M185.468 202.715H178.217L178.282 198.487L186.872 198.582L185.468 202.715Z" fill="white"/>
<path d="M206.909 202.715H199.05L199.109 198.487L207.422 198.582L206.909 202.715Z" fill="#58B368"/>
<path opacity="0.7" d="M206.909 202.715H199.05L199.109 198.487L207.422 198.582L206.909 202.715Z" fill="white"/>
<path d="M188.961 100.978L188.094 102.708C188.023 102.838 188.182 102.974 188.406 102.974H208.643C208.815 102.974 208.962 102.891 208.974 102.779L209.145 101.055C209.145 100.931 209.009 100.83 208.815 100.83H189.274C189.213 100.825 189.152 100.836 189.097 100.862C189.042 100.888 188.995 100.928 188.961 100.978V100.978Z" fill="#58B368"/>
<path opacity="0.6" d="M188.961 100.978L188.094 102.708C188.023 102.838 188.182 102.974 188.406 102.974H208.643C208.815 102.974 208.962 102.891 208.974 102.779L209.145 101.055C209.145 100.931 209.009 100.83 208.815 100.83H189.274C189.213 100.825 189.152 100.836 189.097 100.862C189.042 100.888 188.995 100.928 188.961 100.978V100.978Z" fill="white"/>
<path d="M190.761 102.99H190.235C190.129 102.99 190.053 102.937 190.058 102.872L190.306 100.622C190.306 100.558 190.401 100.504 190.507 100.504H191.032C191.132 100.504 191.215 100.558 191.209 100.622L190.961 102.872C190.955 102.937 190.861 102.99 190.761 102.99Z" fill="#58B368"/>
<path d="M207.67 102.99H207.145C207.045 102.99 206.962 102.937 206.968 102.872L207.216 100.622C207.216 100.558 207.316 100.504 207.416 100.504H207.941C208.048 100.504 208.124 100.558 208.118 100.622L207.871 102.872C207.865 102.937 207.776 102.99 207.67 102.99Z" fill="#58B368"/>
<path d="M200.832 102.99H200.313C200.206 102.99 200.13 102.937 200.136 102.872L200.378 100.622C200.378 100.558 200.478 100.504 200.584 100.504H201.109C201.209 100.504 201.292 100.558 201.28 100.622L201.038 102.872C201.032 102.937 200.938 102.99 200.832 102.99Z" fill="#58B368"/>
<path d="M192.802 99.7953H193.657C193.767 99.7936 193.872 99.7528 193.955 99.6804C194.037 99.608 194.09 99.5086 194.106 99.4001V99.4001C194.114 99.3502 194.11 99.2992 194.096 99.2506C194.082 99.2021 194.058 99.1571 194.025 99.119C193.992 99.0808 193.951 99.0503 193.905 99.0296C193.858 99.0089 193.808 98.9985 193.758 98.999H192.92C192.81 99.001 192.703 99.0425 192.621 99.1162C192.539 99.1898 192.486 99.2906 192.472 99.4001C192.464 99.4483 192.467 99.4976 192.48 99.5446C192.493 99.5916 192.516 99.6352 192.547 99.6727C192.578 99.7101 192.617 99.7404 192.661 99.7616C192.705 99.7827 192.753 99.7942 192.802 99.7953V99.7953Z" fill="#E0E0E0"/>
<path d="M193.628 100.832L193.764 99.7104C193.774 99.6448 193.77 99.5777 193.751 99.5139C193.733 99.4501 193.7 99.3912 193.656 99.3415C193.612 99.2918 193.558 99.2525 193.497 99.2264C193.436 99.2004 193.37 99.1882 193.303 99.1908V99.1908C193.158 99.1897 193.018 99.2421 192.909 99.338C192.801 99.4338 192.731 99.5664 192.713 99.7104L192.578 100.832C192.567 100.898 192.571 100.965 192.59 101.029C192.608 101.093 192.641 101.152 192.685 101.201C192.729 101.251 192.783 101.29 192.844 101.316C192.906 101.342 192.972 101.355 193.038 101.352V101.352C193.183 101.353 193.323 101.301 193.432 101.205C193.541 101.109 193.611 100.976 193.628 100.832Z" fill="#E0E0E0"/>
<path d="M205.039 99.7953H205.9C206.009 99.7934 206.113 99.7524 206.195 99.6799C206.276 99.6074 206.328 99.5081 206.343 99.4001V99.4001C206.35 99.3502 206.347 99.2992 206.333 99.2506C206.319 99.2021 206.295 99.1571 206.261 99.119C206.228 99.0808 206.187 99.0503 206.141 99.0296C206.095 99.0089 206.045 98.9985 205.994 98.999H205.133C205.023 99.0033 204.918 99.0457 204.837 99.1189C204.755 99.1921 204.701 99.2916 204.685 99.4001V99.4001C204.678 99.4501 204.682 99.501 204.697 99.5493C204.711 99.5975 204.736 99.642 204.77 99.6796C204.804 99.7172 204.845 99.747 204.892 99.767C204.938 99.787 204.988 99.7966 205.039 99.7953V99.7953Z" fill="#E0E0E0"/>
<path d="M205.859 100.832L205.994 99.7104C206.005 99.6448 206.001 99.5777 205.982 99.5139C205.964 99.4501 205.931 99.3913 205.887 99.3415C205.843 99.2918 205.789 99.2525 205.728 99.2264C205.666 99.2004 205.6 99.1882 205.534 99.1908V99.1908C205.389 99.1897 205.249 99.2421 205.14 99.338C205.031 99.4338 204.961 99.5664 204.944 99.7104L204.808 100.832C204.799 100.898 204.804 100.965 204.823 101.028C204.842 101.091 204.874 101.15 204.918 101.199C204.962 101.249 205.016 101.288 205.076 101.314C205.137 101.341 205.203 101.354 205.269 101.352C205.414 101.353 205.554 101.301 205.663 101.205C205.771 101.109 205.841 100.976 205.859 100.832Z" fill="#E0E0E0"/>
<path d="M190.117 72.0427L191.079 71.9482C191.152 71.9426 191.225 71.9625 191.285 72.0045C191.345 72.0464 191.389 72.1079 191.41 72.1785C195.416 85.5004 193.888 99.4246 193.888 99.4246H192.654C193.587 82.8549 190.359 74.2039 189.852 72.4265C189.841 72.3836 189.839 72.3388 189.846 72.2951C189.854 72.2514 189.871 72.2098 189.896 72.1734C189.922 72.1369 189.954 72.1063 189.993 72.0837C190.031 72.0612 190.073 72.0472 190.117 72.0427V72.0427Z" fill="#58B368"/>
<path opacity="0.6" d="M190.117 72.0427L191.079 71.9482C191.152 71.9426 191.225 71.9625 191.285 72.0045C191.345 72.0464 191.389 72.1079 191.41 72.1785C195.416 85.5004 193.888 99.4246 193.888 99.4246H192.654C193.587 82.8549 190.359 74.2039 189.852 72.4265C189.841 72.3836 189.839 72.3388 189.846 72.2951C189.854 72.2514 189.871 72.2098 189.896 72.1734C189.922 72.1369 189.954 72.1063 189.993 72.0837C190.031 72.0612 190.073 72.0472 190.117 72.0427V72.0427Z" fill="white"/>
<path d="M204.921 71.9888L205.764 72.1069C205.83 72.1192 205.889 72.1514 205.936 72.1989C205.982 72.2464 206.013 72.307 206.024 72.3726C208.419 82.7183 206.124 99.3943 206.124 99.3943H204.885C206.455 81.2952 204.85 74.0024 204.578 72.3372C204.572 72.2904 204.576 72.2426 204.591 72.1977C204.605 72.1528 204.63 72.1118 204.663 72.0781C204.696 72.0444 204.737 72.0188 204.782 72.0033C204.826 71.9878 204.874 71.9828 204.921 71.9888V71.9888Z" fill="#58B368"/>
<path opacity="0.6" d="M204.921 71.9888L205.764 72.1069C205.83 72.1192 205.889 72.1514 205.936 72.1989C205.982 72.2464 206.013 72.307 206.024 72.3726C208.419 82.7183 206.124 99.3943 206.124 99.3943H204.885C206.455 81.2952 204.85 74.0024 204.578 72.3372C204.572 72.2904 204.576 72.2426 204.591 72.1977C204.605 72.1528 204.63 72.1118 204.663 72.0781C204.696 72.0444 204.737 72.0188 204.782 72.0033C204.826 71.9878 204.874 71.9828 204.921 71.9888V71.9888Z" fill="white"/>
<path d="M188.348 78.9014C188.348 80.2301 188.389 81.6473 188.466 83.035C188.542 84.4227 188.601 85.7927 188.743 87.1686C188.884 88.5445 189.061 89.8613 189.333 91.1486C189.463 91.7864 189.61 92.4123 189.781 93.0028C189.872 93.2981 189.966 93.5815 190.064 93.8531L190.2 94.1956C190.198 94.2012 190.196 94.2072 190.196 94.2134C190.196 94.2195 190.198 94.2255 190.2 94.2311C190.2 94.2842 190.424 94.4732 190.867 94.6031C191.392 94.7428 191.934 94.8142 192.478 94.8157C193.78 94.8251 195.082 94.7184 196.366 94.4968C197.705 94.2901 199.062 94.0008 200.407 93.6701C201.752 93.3394 203.127 92.9733 204.449 92.5954L205.357 94.8216C202.725 96.1512 199.971 97.223 197.133 98.0221C195.639 98.4539 194.105 98.729 192.554 98.8429C191.672 98.9052 190.786 98.8555 189.917 98.6953C189.397 98.5939 188.891 98.4272 188.412 98.1993C187.833 97.9267 187.315 97.5389 186.89 97.0596C186.661 96.8021 186.463 96.5187 186.3 96.2152C186.206 96.0439 186.182 95.9849 186.129 95.8786L185.988 95.5892C185.816 95.1995 185.657 94.8157 185.516 94.4082C185.241 93.666 185.009 92.9089 184.819 92.1407C184.453 90.6746 184.175 89.1878 183.987 87.6882C183.602 84.7521 183.434 81.7915 183.486 78.8306L188.348 78.9014Z" fill="#E4897B"/>
<path d="M203.404 93.1994L204.897 88.6348L207.44 92.7683C207.44 92.7683 205.947 95.4315 203.971 95.3902L203.404 93.1994Z" fill="#E4897B"/>
<path d="M208.213 86.4097L210.16 89.9645L207.44 92.7458L204.897 88.6359L208.213 86.4097Z" fill="#E4897B"/>
<path d="M185.751 73.0987C183.816 73.6892 181.498 80.3502 181.498 80.3502L188.996 85.7179C188.996 85.7179 191.734 80.1553 190.92 77.6515C190.076 75.0474 187.958 72.4255 185.751 73.0987Z" fill="#58B368"/>
<path opacity="0.7" d="M185.751 73.0987C183.816 73.6892 181.498 80.3502 181.498 80.3502L188.996 85.7179C188.996 85.7179 191.734 80.1553 190.92 77.6515C190.076 75.0474 187.958 72.4255 185.751 73.0987Z" fill="black"/>
<path d="M193.392 51.2264C196.018 50.2403 196.755 49.0829 196.932 48.5809C196.96 48.5072 196.97 48.4274 196.96 48.349C196.949 48.2706 196.92 48.196 196.873 48.1321C196.466 47.5416 195.156 45.9473 193.764 47.0515C192.371 48.1558 191.18 48.1558 192.778 51.0079C192.835 51.1143 192.929 51.1956 193.043 51.236C193.156 51.2764 193.281 51.273 193.392 51.2264V51.2264Z" fill="#58B368"/>
<path opacity="0.3" d="M193.392 51.2264C196.018 50.2403 196.755 49.0829 196.932 48.5809C196.96 48.5072 196.97 48.4274 196.96 48.349C196.949 48.2706 196.92 48.196 196.873 48.1321C196.466 47.5416 195.156 45.9473 193.764 47.0515C192.371 48.1558 191.18 48.1558 192.778 51.0079C192.835 51.1143 192.929 51.1956 193.043 51.236C193.156 51.2764 193.281 51.273 193.392 51.2264V51.2264Z" fill="black"/>
</svg>
