<svg width="280" height="180" viewBox="0 0 280 180" fill="none" xmlns="http://www.w3.org/2000/svg">
<path d="M260.287 157.995H19V158.116H260.287V157.995Z" fill="#EBEBEB"/>
<path d="M236.109 165.762H194.174V165.882H236.109V165.762Z" fill="#EBEBEB"/>
<path d="M195.791 161.281H191.598V161.401H195.791V161.281Z" fill="#EBEBEB"/>
<path d="M163.438 165.281H154.178V165.402H163.438V165.281Z" fill="#EBEBEB"/>
<path d="M54.74 162.09H44.3164V162.21H54.74V162.09Z" fill="#EBEBEB"/>
<path d="M72.5134 162.09H59.0352V162.21H72.5134V162.09Z" fill="#EBEBEB"/>
<path d="M141.821 164.071H119.217V164.191H141.821V164.071Z" fill="#EBEBEB"/>
<path d="M133.37 136.472H40.1901C39.4602 136.471 38.7605 136.18 38.2448 135.663C37.7291 135.146 37.4395 134.446 37.4395 133.716V2.73137C37.4458 2.00559 37.7383 1.31163 38.2533 0.800213C38.7683 0.2888 39.4643 0.0012433 40.1901 0H133.37C134.101 0 134.802 0.29031 135.319 0.807066C135.835 1.32382 136.126 2.02469 136.126 2.7555V133.716C136.126 134.447 135.835 135.148 135.319 135.665C134.802 136.182 134.101 136.472 133.37 136.472ZM40.1901 0.0965151C39.4922 0.0977935 38.8232 0.375956 38.3301 0.869949C37.837 1.36394 37.5601 2.0334 37.5601 2.73137V133.716C37.5601 134.414 37.837 135.084 38.3301 135.578C38.8232 136.072 39.4922 136.35 40.1901 136.351H133.37C134.069 136.35 134.738 136.072 135.232 135.578C135.726 135.084 136.004 134.415 136.005 133.716V2.73137C136.004 2.03295 135.726 1.36351 135.232 0.869654C134.738 0.3758 134.069 0.0977908 133.37 0.0965151H40.1901Z" fill="#EBEBEB"/>
<path d="M237.755 136.472H144.57C143.84 136.471 143.139 136.18 142.623 135.663C142.106 135.147 141.816 134.447 141.814 133.716V2.73137C141.822 2.00515 142.116 1.31119 142.631 0.799911C143.147 0.288632 143.844 0.00122974 144.57 0H237.755C238.48 0.00251155 239.175 0.29063 239.689 0.801906C240.203 1.31318 240.494 2.00642 240.501 2.73137V133.716C240.501 134.445 240.212 135.145 239.697 135.661C239.182 136.178 238.484 136.469 237.755 136.472ZM144.57 0.0965151C143.872 0.0977908 143.202 0.3758 142.708 0.869654C142.214 1.36351 141.936 2.03295 141.935 2.73137V133.716C141.936 134.415 142.214 135.084 142.708 135.578C143.202 136.072 143.872 136.35 144.57 136.351H237.755C238.453 136.35 239.123 136.072 239.617 135.578C240.111 135.084 240.389 134.415 240.39 133.716V2.73137C240.389 2.03295 240.111 1.36351 239.617 0.869654C239.123 0.3758 238.453 0.0977908 237.755 0.0965151H144.57Z" fill="#EBEBEB"/>
<path d="M119.685 8.65674H45.0645V115.368H119.685V8.65674Z" fill="#E6E6E6"/>
<path d="M121.924 8.65674H46.1113V115.368H121.924V8.65674Z" fill="#F0F0F0"/>
<path d="M119.683 115.367H45.0625V117.322H119.683V115.367Z" fill="#E6E6E6"/>
<path d="M123.115 115.367H47.3027V117.322H123.115V115.367Z" fill="#F0F0F0"/>
<path d="M118.791 112.232V11.7896L49.2473 11.7896V112.232H118.791Z" fill="#FAFAFA"/>
<path d="M81.377 112.232L98.2477 11.7935H106.934L90.0633 112.232H81.377Z" fill="white"/>
<path d="M59.459 112.232L76.3298 11.7935H85.0161L68.1453 112.232H59.459Z" fill="white"/>
<path d="M50.6954 61.8173C50.5652 61.8173 50.459 61.6581 50.459 61.4602V13.946C50.459 13.7482 50.5652 13.5938 50.6954 13.5938C50.8257 13.5938 50.9367 13.7482 50.9367 13.946V61.4602C50.9367 61.6581 50.8499 61.8173 50.6954 61.8173Z" fill="#F0F0F0"/>
<path d="M91.9316 112.232L108.802 11.7935H112.185L95.3145 112.232H91.9316Z" fill="white"/>
<path d="M118.791 112.236V11.7935H118.395V112.236H118.791Z" fill="#E6E6E6"/>
<path opacity="0.5" d="M122.668 20.8535H48.0474L47.7578 13.0117H122.378L122.668 20.8535Z" fill="#E0E0E0"/>
<path opacity="0.5" d="M122.666 33.7359H48.0454L47.7559 25.8989H122.376L122.666 33.7359Z" fill="#E0E0E0"/>
<path opacity="0.5" d="M122.666 46.627H48.0454L47.7559 38.79H122.376L122.666 46.627Z" fill="#E0E0E0"/>
<path opacity="0.5" d="M122.666 59.5166H48.0454L47.7559 51.6748H122.376L122.666 59.5166Z" fill="#E0E0E0"/>
<path opacity="0.5" d="M122.668 72.3995H48.0474L47.7578 64.5625H122.378L122.668 72.3995Z" fill="#E0E0E0"/>
<path opacity="0.5" d="M122.666 85.2901H48.0454L47.7559 77.4531H122.376L122.666 85.2901Z" fill="#E0E0E0"/>
<path opacity="0.5" d="M122.666 27.2949H48.0454L47.7559 19.4531H122.376L122.666 27.2949Z" fill="#E0E0E0"/>
<path opacity="0.5" d="M122.668 40.1856H48.0474L47.7578 32.3438H122.378L122.668 40.1856Z" fill="#E0E0E0"/>
<path opacity="0.5" d="M122.668 53.0675H48.0474L47.7578 45.2305H122.378L122.668 53.0675Z" fill="#E0E0E0"/>
<path opacity="0.5" d="M122.666 65.9576H48.0454L47.7559 58.1206H122.376L122.666 65.9576Z" fill="#E0E0E0"/>
<path opacity="0.5" d="M122.668 78.8457H48.0474L47.7578 71.0039H122.378L122.668 78.8457Z" fill="#E0E0E0"/>
<path opacity="0.5" d="M122.666 91.7368H48.0454L47.7559 83.895H122.376L122.666 91.7368Z" fill="#E0E0E0"/>
<path d="M162.357 81.8198H147.484V156.353H162.357V81.8198Z" fill="#F0F0F0"/>
<path d="M223.683 156.355H150.342V157.996H223.683V156.355Z" fill="#F0F0F0"/>
<path d="M162.354 156.355H226.531V81.822L162.354 81.822V156.355Z" fill="#F5F5F5"/>
<path d="M219.152 123.815H169.732C169.263 123.814 168.813 123.627 168.481 123.295C168.149 122.963 167.962 122.514 167.961 122.044V110.511C167.961 110.041 168.147 109.59 168.479 109.257C168.811 108.924 169.262 108.736 169.732 108.735H177.902C178.231 108.74 178.553 108.836 178.832 109.012C179.11 109.189 179.334 109.438 179.48 109.734C179.639 110.027 179.874 110.271 180.16 110.441C180.446 110.611 180.773 110.7 181.106 110.699H207.788C208.275 110.698 208.742 110.504 209.086 110.159C209.225 110.016 209.342 109.853 209.433 109.676C209.579 109.386 209.802 109.142 210.078 108.972C210.354 108.802 210.672 108.711 210.997 108.711H219.152C219.623 108.711 220.075 108.898 220.408 109.231C220.741 109.564 220.928 110.016 220.928 110.487V122.044C220.927 122.515 220.739 122.965 220.406 123.297C220.073 123.629 219.623 123.815 219.152 123.815ZM169.732 109.222C169.39 109.224 169.062 109.361 168.821 109.603C168.579 109.845 168.444 110.174 168.444 110.516V122.044C168.445 122.386 168.581 122.713 168.822 122.954C169.064 123.195 169.391 123.332 169.732 123.333H219.152C219.495 123.333 219.823 123.197 220.065 122.956C220.308 122.714 220.444 122.387 220.446 122.044V110.511C220.446 110.168 220.309 109.839 220.067 109.596C219.824 109.354 219.495 109.218 219.152 109.218H210.997C210.763 109.217 210.534 109.28 210.334 109.401C210.134 109.522 209.971 109.696 209.863 109.903C209.75 110.126 209.601 110.33 209.424 110.506C209.209 110.722 208.954 110.893 208.674 111.01C208.393 111.126 208.092 111.187 207.788 111.187H181.106C180.685 111.187 180.273 111.073 179.911 110.857C179.55 110.641 179.254 110.332 179.055 109.961C178.949 109.743 178.786 109.559 178.583 109.428C178.379 109.297 178.144 109.224 177.902 109.218L169.732 109.222Z" fill="#EBEBEB"/>
<path d="M219.152 143.951H169.732C169.263 143.95 168.813 143.763 168.481 143.431C168.149 143.099 167.962 142.65 167.961 142.18V130.652C167.961 130.181 168.147 129.73 168.479 129.398C168.811 129.065 169.262 128.877 169.732 128.876H177.902C178.231 128.881 178.553 128.977 178.832 129.153C179.11 129.329 179.334 129.579 179.48 129.875C179.639 130.167 179.874 130.412 180.16 130.582C180.446 130.752 180.773 130.841 181.106 130.84H207.788C208.029 130.841 208.267 130.793 208.489 130.701C208.711 130.608 208.913 130.471 209.081 130.299C209.223 130.158 209.342 129.995 209.433 129.817C209.579 129.527 209.802 129.283 210.078 129.113C210.354 128.942 210.672 128.852 210.997 128.852H219.152C219.623 128.852 220.075 129.039 220.408 129.372C220.741 129.705 220.928 130.156 220.928 130.627V142.156C220.931 142.391 220.887 142.624 220.799 142.842C220.711 143.059 220.58 143.257 220.415 143.424C220.25 143.591 220.053 143.724 219.836 143.814C219.62 143.905 219.387 143.951 219.152 143.951ZM169.732 129.358C169.39 129.36 169.062 129.496 168.821 129.739C168.579 129.981 168.444 130.309 168.444 130.652V142.18C168.445 142.522 168.581 142.849 168.822 143.09C169.064 143.331 169.391 143.467 169.732 143.469H219.152C219.495 143.469 219.823 143.333 220.065 143.092C220.308 142.85 220.444 142.522 220.446 142.18V130.652C220.446 130.309 220.309 129.98 220.067 129.737C219.824 129.495 219.495 129.358 219.152 129.358H210.997C210.763 129.357 210.534 129.421 210.334 129.542C210.134 129.663 209.971 129.836 209.863 130.044C209.75 130.267 209.602 130.471 209.424 130.647C209.21 130.864 208.956 131.036 208.675 131.153C208.394 131.269 208.092 131.329 207.788 131.327H181.106C180.686 131.327 180.273 131.214 179.911 130.998C179.55 130.782 179.254 130.472 179.055 130.101C178.949 129.884 178.786 129.7 178.583 129.569C178.379 129.438 178.144 129.365 177.902 129.358H169.732Z" fill="#EBEBEB"/>
<path d="M220.928 152.918H167.961V148.633H220.928V152.918ZM168.444 152.435H220.446V149.115H168.444V152.435Z" fill="#EBEBEB"/>
<path d="M219.152 103.679H169.732C169.263 103.677 168.813 103.49 168.481 103.159C168.149 102.827 167.962 102.377 167.961 101.908V90.379C167.961 89.9089 168.147 89.4579 168.479 89.125C168.811 88.7921 169.262 88.6044 169.732 88.6032H177.902C178.231 88.6079 178.552 88.7031 178.831 88.8785C179.109 89.0539 179.334 89.3026 179.48 89.5973C179.638 89.8904 179.873 90.135 180.16 90.305C180.446 90.475 180.773 90.5639 181.106 90.5624H207.788C208.275 90.5614 208.742 90.367 209.086 90.0219C209.225 89.8794 209.342 89.7167 209.433 89.5394C209.579 89.2495 209.802 89.0057 210.078 88.8353C210.354 88.6649 210.672 88.5745 210.997 88.5742H219.152C219.386 88.5742 219.617 88.6202 219.832 88.7094C220.047 88.7986 220.243 88.9295 220.408 89.0944C220.573 89.2593 220.704 89.455 220.793 89.6705C220.882 89.886 220.928 90.1169 220.928 90.3501V101.879C220.931 102.114 220.888 102.348 220.8 102.566C220.712 102.784 220.582 102.983 220.417 103.15C220.251 103.318 220.055 103.451 219.838 103.541C219.621 103.632 219.388 103.679 219.152 103.679ZM169.732 89.0857C169.39 89.087 169.062 89.2238 168.821 89.4662C168.579 89.7086 168.444 90.0369 168.444 90.379V101.908C168.445 102.249 168.581 102.576 168.822 102.817C169.064 103.059 169.391 103.195 169.732 103.196H219.152C219.495 103.196 219.823 103.061 220.065 102.819C220.308 102.578 220.444 102.25 220.446 101.908V90.379C220.446 90.036 220.309 89.7071 220.067 89.4645C219.824 89.222 219.495 89.0857 219.152 89.0857H210.997C210.763 89.085 210.534 89.1485 210.334 89.2693C210.134 89.3902 209.971 89.5638 209.863 89.771C209.75 89.9943 209.602 90.198 209.424 90.3742C209.21 90.5903 208.955 90.7617 208.674 90.8785C208.393 90.9953 208.092 91.0552 207.788 91.0546H181.106C180.686 91.0544 180.273 90.9404 179.912 90.7246C179.551 90.5088 179.255 90.1993 179.055 89.8289C178.949 89.6114 178.786 89.4271 178.583 89.296C178.379 89.165 178.144 89.0923 177.902 89.0857H169.732Z" fill="#EBEBEB"/>
<path d="M228.52 80.6211H162.359V81.8227H228.52V80.6211Z" fill="#F0F0F0"/>
<path d="M145.409 81.8198H162.357V80.6182H145.409V81.8198Z" fill="#E6E6E6"/>
<path d="M214.115 11.2295H157.35V67.57H214.115V11.2295Z" fill="#E6E6E6"/>
<path d="M217.178 11.2295H157.928V67.57H217.178V11.2295Z" fill="#F0F0F0"/>
<path d="M214.441 64.8378V13.9648L160.663 13.9648V64.8378H214.441Z" fill="white"/>
<path d="M187.553 60.3444C183.411 60.3444 179.362 59.1161 175.917 56.8148C172.473 54.5135 169.789 51.2425 168.204 47.4155C166.618 43.5886 166.204 39.3775 167.012 35.3148C167.82 31.2521 169.815 27.5203 172.744 24.5913C175.673 21.6623 179.404 19.6676 183.467 18.8595C187.53 18.0514 191.741 18.4661 195.568 20.0513C199.395 21.6365 202.666 24.3209 204.967 27.765C207.268 31.2092 208.497 35.2585 208.497 39.4007C208.49 44.9534 206.282 50.2768 202.355 54.2031C198.429 58.1294 193.106 60.3381 187.553 60.3444ZM187.553 18.819C183.482 18.819 179.503 20.0261 176.118 22.2876C172.734 24.5492 170.096 27.7636 168.538 31.5244C166.98 35.2853 166.573 39.4236 167.367 43.416C168.161 47.4085 170.121 51.0758 173 53.9543C175.878 56.8327 179.545 58.7929 183.538 59.587C187.53 60.3812 191.669 59.9736 195.429 58.4158C199.19 56.858 202.405 54.22 204.666 50.8354C206.928 47.4507 208.135 43.4714 208.135 39.4007C208.13 33.9437 205.96 28.7116 202.101 24.8529C198.242 20.9942 193.01 18.8241 187.553 18.819Z" fill="#F5F5F5"/>
<path d="M139.644 179.789C191.32 179.789 233.211 177.343 233.211 174.326C233.211 171.309 191.32 168.863 139.644 168.863C87.9691 168.863 46.0781 171.309 46.0781 174.326C46.0781 177.343 87.9691 179.789 139.644 179.789Z" fill="#F5F5F5"/>
<path d="M51.709 146.981H169.886L178.38 73.4609H60.2071L51.709 146.981Z" fill="#58B368"/>
<path opacity="0.4" d="M51.709 146.981H169.886L178.38 73.4609H60.2071L51.709 146.981Z" fill="white"/>
<path d="M193.098 149.737H74.9207L60.207 73.4609H178.38L193.098 149.737Z" fill="#58B368"/>
<path opacity="0.6" d="M193.098 149.737H74.9207L60.207 73.4609H178.38L193.098 149.737Z" fill="white"/>
<path d="M188.572 145.645H77.8643L65.9785 84.0156H176.686L188.572 145.645Z" fill="white"/>
<g opacity="0.5">
<path opacity="0.5" d="M86.4831 98.9612H74.9062L72.6719 87.3794H84.2488L86.4831 98.9612Z" fill="#58B368"/>
<path opacity="0.5" d="M173.524 98.9612H161.942L159.713 87.3794H171.29L173.524 98.9612Z" fill="#58B368"/>
<path opacity="0.5" d="M159.014 98.9612H147.437L145.203 87.3794H156.785L159.014 98.9612Z" fill="#58B368"/>
<path opacity="0.5" d="M144.509 98.9612H132.932L130.697 87.3794H142.279L144.509 98.9612Z" fill="#58B368"/>
<path opacity="0.5" d="M130.003 98.9612H118.426L116.191 87.3794H127.768L130.003 98.9612Z" fill="#58B368"/>
<path opacity="0.5" d="M115.495 98.9612H103.918L101.684 87.3794H113.261L115.495 98.9612Z" fill="#58B368"/>
<path opacity="0.5" d="M100.989 98.9612H89.4121L87.1777 87.3794H98.7547L100.989 98.9612Z" fill="#58B368"/>
<path opacity="0.5" d="M89.2683 113.402H77.6913L75.457 101.825H87.034L89.2683 113.402Z" fill="#58B368"/>
<path opacity="0.5" d="M176.309 113.402H164.732L162.498 101.825H174.075L176.309 113.402Z" fill="#58B368"/>
<path opacity="0.5" d="M161.803 113.402H150.227L147.992 101.825H159.569L161.803 113.402Z" fill="#58B368"/>
<path opacity="0.5" d="M147.298 113.402H135.716L133.486 101.825H145.063L147.298 113.402Z" fill="#58B368"/>
<path opacity="0.5" d="M132.786 113.402H121.209L118.975 101.825H130.556L132.786 113.402Z" fill="#58B368"/>
<path opacity="0.5" d="M118.28 113.402H106.703L104.469 101.825H116.046L118.28 113.402Z" fill="#58B368"/>
<path opacity="0.5" d="M103.774 113.402H92.1972L89.9629 101.825H101.54L103.774 113.402Z" fill="#58B368"/>
<path opacity="0.5" d="M92.0534 127.839H80.4765L78.2422 116.262H89.8191L92.0534 127.839Z" fill="#58B368"/>
<path opacity="0.5" d="M179.092 127.839H167.516L165.281 116.262H176.858L179.092 127.839Z" fill="#58B368"/>
<path opacity="0.5" d="M164.589 127.839H153.012L150.777 116.262H162.354L164.589 127.839Z" fill="#58B368"/>
<path opacity="0.5" d="M150.081 127.839H138.504L136.27 116.262H147.846L150.081 127.839Z" fill="#58B368"/>
<path opacity="0.5" d="M135.575 127.839H123.993L121.764 116.262H133.341L135.575 127.839Z" fill="#58B368"/>
<path opacity="0.5" d="M121.065 127.839H109.488L107.254 116.262H118.836L121.065 127.839Z" fill="#58B368"/>
<path opacity="0.5" d="M106.557 127.839H94.9804L92.7461 116.262H104.323L106.557 127.839Z" fill="#58B368"/>
<path opacity="0.5" d="M94.8366 142.282H83.2597L81.0254 130.701H92.6071L94.8366 142.282Z" fill="#58B368"/>
<path opacity="0.5" d="M181.878 142.282H170.301L168.066 130.701H179.643L181.878 142.282Z" fill="#58B368"/>
<path opacity="0.5" d="M167.372 142.282H155.795L153.561 130.701H165.138L167.372 142.282Z" fill="#58B368"/>
<path opacity="0.5" d="M152.866 142.282H141.289L139.055 130.701H150.632L152.866 142.282Z" fill="#58B368"/>
<path opacity="0.5" d="M138.36 142.282H126.783L124.549 130.701H136.126L138.36 142.282Z" fill="#58B368"/>
<path opacity="0.5" d="M123.854 142.282H112.272L110.043 130.701H121.62L123.854 142.282Z" fill="#58B368"/>
<path opacity="0.5" d="M109.348 142.282H97.7666L95.5371 130.701H107.114L109.348 142.282Z" fill="#58B368"/>
</g>
<path d="M74.7803 78.6984L74.6307 77.9311C75.9964 77.9311 76.7589 75.885 76.2908 73.4625C75.8227 71.04 74.2736 68.989 72.9128 68.989C71.5519 68.989 70.7846 71.04 71.2479 73.4625H70.4854C69.916 70.5236 70.9197 68.2266 72.7632 68.2266C74.6066 68.2266 76.4983 70.5236 77.0629 73.4625C77.6275 76.4014 76.6237 78.6984 74.7803 78.6984Z" fill="#263238"/>
<path d="M86.208 78.6984L86.0584 77.9311C87.4241 77.9311 88.1866 75.885 87.7185 73.4625C87.2504 71.04 85.7013 68.989 84.3405 68.989C82.9796 68.989 82.2123 71.04 82.6756 73.4625H81.9131C81.3437 70.5236 82.3475 68.2266 84.1909 68.2266C86.0343 68.2266 87.926 70.5236 88.4906 73.4625C89.0552 76.4014 88.0515 78.6984 86.208 78.6984Z" fill="#263238"/>
<path d="M97.6606 78.6984L97.511 77.9311C98.8767 77.9311 99.6392 75.885 99.1711 73.4625C98.703 71.04 97.1539 68.989 95.793 68.989C94.4322 68.989 93.6601 71.04 94.1282 73.4625H93.3174C92.748 70.5236 93.7518 68.2266 95.5952 68.2266C97.4386 68.2266 99.3303 70.5236 99.8949 73.4625C100.46 76.4014 99.4799 78.6984 97.6606 78.6984Z" fill="#263238"/>
<path d="M109.058 78.6984L108.914 77.9311C110.279 77.9311 111.042 75.885 110.574 73.4625C110.106 71.04 108.557 68.989 107.196 68.989C105.835 68.989 105.068 71.04 105.536 73.4625H104.768C104.204 70.5236 105.207 68.2266 107.051 68.2266C108.894 68.2266 110.781 70.5236 111.351 73.4625C111.92 76.4014 110.907 78.6984 109.058 78.6984Z" fill="#263238"/>
<path d="M120.486 78.6984L120.341 77.9311C121.707 77.9311 122.47 75.885 122.001 73.4625C121.533 71.04 119.984 68.989 118.623 68.989C117.263 68.989 116.495 71.04 116.963 73.4625H116.196C115.631 70.5236 116.635 68.2266 118.479 68.2266C120.322 68.2266 122.209 70.5236 122.778 73.4625C123.348 76.4014 122.334 78.6984 120.486 78.6984Z" fill="#263238"/>
<path d="M131.922 78.6984L131.777 77.9311C133.143 77.9311 133.905 75.885 133.437 73.4625C132.969 71.04 131.42 68.989 130.059 68.989C128.699 68.989 127.931 71.04 128.399 73.4625H127.632C127.067 70.5236 128.066 68.2266 129.915 68.2266C131.763 68.2266 133.645 70.5236 134.214 73.4625C134.784 76.4014 133.761 78.6984 131.922 78.6984Z" fill="#263238"/>
<path d="M143.34 78.6984L143.195 77.9311C144.561 77.9311 145.323 75.885 144.855 73.4625C144.387 71.04 142.838 68.989 141.477 68.989C140.116 68.989 139.349 71.04 139.817 73.4625H139.05C138.485 70.5236 139.484 68.2266 141.333 68.2266C143.181 68.2266 145.063 70.5236 145.632 73.4625C146.202 76.4014 145.188 78.6984 143.34 78.6984Z" fill="#263238"/>
<path d="M154.768 78.6984L154.623 77.9311C155.989 77.9311 156.751 75.885 156.283 73.4625C155.815 71.04 154.266 68.989 152.905 68.989C151.544 68.989 150.777 71.04 151.245 73.4625H150.478C149.913 70.5236 150.912 68.2266 152.76 68.2266C154.609 68.2266 156.491 70.5236 157.06 73.4625C157.629 76.4014 156.611 78.6984 154.768 78.6984Z" fill="#263238"/>
<path d="M166.186 78.6984L166.041 77.9311C167.407 77.9311 168.169 75.885 167.701 73.4625C167.233 71.04 165.684 68.989 164.323 68.989C162.962 68.989 162.195 71.04 162.663 73.4625H161.896C161.331 70.5236 162.33 68.2266 164.178 68.2266C166.027 68.2266 167.909 70.5236 168.473 73.4625C169.038 76.4014 168.039 78.6984 166.186 78.6984Z" fill="#263238"/>
<path d="M116.813 97.3304H76.2187L73.9844 85.7534H114.578L116.813 97.3304Z" fill="#58B368"/>
<path d="M134.112 111.773H122.53L120.301 100.191H131.878L134.112 111.773Z" fill="#58B368"/>
<path d="M170.336 126.599L169.708 126.053C168.421 124.926 166.988 123.976 165.447 123.23L165.848 122.048C167.283 122.742 168.633 123.599 169.872 124.601C172.01 121.431 174.809 118.763 178.076 116.778L178.94 117.956C175.614 119.977 172.797 122.736 170.707 126.02L170.336 126.599Z" fill="#58B368"/>
<path d="M129.867 102.109H128.819L127.068 105.28L124.1 102.109H123.053L126.682 105.984L124.544 109.855H125.596L127.343 106.689L130.311 109.855H131.363L127.729 105.984L129.867 102.109Z" fill="white"/>
<path d="M151.326 129.842L153.256 139.884H143.218L141.288 129.842H151.33H151.326ZM151.953 129.075H140.371L142.605 140.656H154.187L151.958 129.075H151.953Z" fill="#58B368"/>
<path d="M122.382 126.214H96.2988L94.0645 114.637H120.148L122.382 126.214Z" fill="#263238"/>
<path d="M104.417 119.254C104.486 119.523 104.492 119.804 104.433 120.076C104.374 120.347 104.253 120.601 104.078 120.817C103.904 121.033 103.681 121.206 103.428 121.321C103.175 121.435 102.899 121.489 102.621 121.478C101.995 121.455 101.394 121.224 100.913 120.821C100.433 120.418 100.1 119.867 99.9673 119.254C99.8988 118.985 99.894 118.704 99.9532 118.433C100.012 118.162 100.134 117.908 100.308 117.692C100.482 117.476 100.704 117.304 100.957 117.189C101.209 117.074 101.485 117.019 101.762 117.029C102.389 117.053 102.989 117.285 103.47 117.688C103.95 118.09 104.283 118.641 104.417 119.254Z" fill="white"/>
<path d="M104.952 121.355C104.706 121.697 104.381 121.972 104.004 122.158C103.627 122.344 103.21 122.435 102.79 122.422C101.832 122.399 100.917 122.02 100.223 121.36C99.7929 121.593 99.4477 121.955 99.2362 122.395C99.0247 122.835 98.9578 123.331 99.0451 123.812H107.075C106.93 123.269 106.663 122.765 106.296 122.34C105.928 121.914 105.468 121.578 104.952 121.355Z" fill="white"/>
<path d="M118.034 119.705H109.154L108.908 118.426H117.788L118.034 119.705Z" fill="white"/>
<path d="M115.586 122.42H109.68L109.434 121.141H115.34L115.586 122.42Z" fill="white"/>
<path d="M162.208 86.833C164.495 86.833 167.733 87.166 170.18 88.7633C170.624 89.0254 171.012 89.374 171.319 89.7884C171.627 90.2029 171.848 90.6747 171.97 91.1762C172.4 93.0727 171.391 95.1429 170.276 96.2673C168.515 98.0432 165.774 99.1628 162.555 99.3848C162.188 99.4137 161.812 99.4282 161.44 99.4282C159.174 99.4083 156.931 98.9631 154.829 98.1156C152.759 97.2904 150.563 96.1853 149.945 94.033C149.784 93.5371 149.735 93.0116 149.801 92.4943C149.867 91.977 150.046 91.4807 150.327 91.0411C150.691 90.483 151.174 90.0118 151.741 89.6609C154.414 88.0072 157.461 87.0529 160.601 86.8861C161.136 86.8523 161.677 86.833 162.208 86.833ZM162.063 86.0898C161.489 86.0898 160.934 86.0898 160.412 86.1478C157.164 86.3186 154.011 87.3044 151.244 89.0142C150.607 89.4103 150.066 89.9406 149.656 90.5681C149.329 91.0898 149.12 91.6769 149.044 92.288C148.968 92.8992 149.027 93.5195 149.217 94.1054C149.941 96.6051 152.416 97.9033 154.665 98.796C156.863 99.6843 159.209 100.149 161.58 100.167C161.971 100.167 162.357 100.167 162.743 100.128C165.803 99.9059 168.853 98.8636 170.86 96.8368C172.868 94.8099 174.147 90.5102 170.503 88.1504C168.047 86.5628 164.833 86.0898 162.058 86.0898H162.063Z" fill="#263238"/>
<path d="M205.766 170.906L209.221 169.989L207.537 161.863L204.082 162.784L205.766 170.906Z" fill="#B55B52"/>
<path d="M209.333 169.353L205.516 170.608C205.45 170.626 205.395 170.669 205.362 170.728C205.328 170.787 205.319 170.856 205.337 170.922L206.148 174.005C206.199 174.164 206.311 174.297 206.459 174.374C206.607 174.451 206.78 174.466 206.939 174.416C208.262 173.933 208.87 173.668 210.549 173.117C211.582 172.775 214.081 172.007 215.505 171.539C216.929 171.071 216.431 169.677 215.785 169.744C212.889 170.063 211.196 169.807 209.994 169.373C209.782 169.291 209.549 169.284 209.333 169.353Z" fill="#263238"/>
<path opacity="0.2" d="M204.082 162.784L207.537 161.863L208.406 166.052L204.946 166.973L204.082 162.784Z" fill="black"/>
<path d="M195.223 79.9727C195.223 79.9727 200.049 109.096 201.497 119.254C203.065 130.377 208.938 163.839 208.938 163.839L203.147 166.03C203.147 166.03 193.906 133.133 191.353 122.319C188.578 110.577 182.469 79.9727 182.469 79.9727H195.223Z" fill="#263238"/>
<path opacity="0.3" d="M187.467 91.9151C189.938 98.0872 190.218 108.578 189.214 112.878C187.699 105.818 185.962 97.373 184.625 90.8052C185.103 89.121 185.971 88.1607 187.467 91.9151Z" fill="black"/>
<path d="M202.886 166.846L209.608 164.829L209.415 162.078L201.414 164.419L202.886 166.846Z" fill="#263238"/>
<path d="M210.731 169.551C210.417 169.643 210.093 169.701 209.766 169.725C209.75 169.726 209.734 169.723 209.72 169.716C209.706 169.709 209.693 169.699 209.684 169.686C209.676 169.672 209.672 169.656 209.672 169.64C209.672 169.624 209.676 169.608 209.684 169.594C209.766 169.483 210.514 168.509 210.982 168.533C211.035 168.537 211.086 168.554 211.131 168.582C211.176 168.611 211.212 168.65 211.238 168.697C211.29 168.765 211.322 168.846 211.33 168.932C211.337 169.017 211.321 169.103 211.281 169.179C211.148 169.364 210.953 169.496 210.731 169.551ZM209.964 169.551C210.616 169.469 211.055 169.305 211.161 169.097C211.182 169.048 211.19 168.994 211.184 168.941C211.178 168.887 211.159 168.837 211.127 168.793C211.115 168.77 211.097 168.75 211.075 168.736C211.053 168.722 211.028 168.713 211.002 168.711C210.751 168.687 210.278 169.16 209.964 169.541V169.551Z" fill="#58B368"/>
<path d="M209.804 169.72C209.792 169.725 209.778 169.725 209.766 169.72C209.752 169.718 209.739 169.712 209.728 169.704C209.717 169.695 209.708 169.684 209.703 169.672C209.703 169.628 209.288 168.678 209.52 168.224C209.55 168.167 209.593 168.118 209.644 168.08C209.696 168.041 209.756 168.015 209.819 168.002C209.888 167.982 209.962 167.986 210.028 168.013C210.095 168.04 210.15 168.089 210.185 168.152C210.388 168.494 210.113 169.373 209.843 169.681C209.828 169.71 209.819 169.72 209.804 169.72ZM209.804 168.19C209.742 168.213 209.69 168.257 209.659 168.316C209.578 168.704 209.624 169.108 209.79 169.469C210.025 169.109 210.111 168.671 210.031 168.248C210.007 168.205 209.963 168.156 209.843 168.181L209.804 168.19Z" fill="#58B368"/>
<path d="M194.487 49.9861C194.627 50.2129 194.82 50.5314 194.999 50.8065L195.549 51.6751C195.93 52.2494 196.307 52.8237 196.707 53.3883C197.494 54.5127 198.324 55.6033 199.183 56.6408C200.021 57.6552 200.927 58.6113 201.895 59.5025C202.77 60.3202 203.742 61.0268 204.79 61.6065L204.028 61.3894C204.775 61.5428 205.541 61.5867 206.301 61.5197C206.716 61.481 207.14 61.428 207.575 61.3507C208.009 61.2735 208.448 61.1674 208.892 61.0467C209.806 60.7978 210.704 60.4932 211.58 60.1347C212.029 59.9513 212.478 59.7631 212.926 59.5604C213.375 59.3577 213.834 59.1309 214.225 58.9475L214.355 58.8848C214.729 58.7056 215.16 58.6823 215.551 58.8197C215.943 58.9572 216.264 59.2444 216.444 59.6183C216.58 59.9065 216.625 60.2287 216.574 60.5429C216.523 60.8572 216.379 61.1488 216.16 61.3797C215.721 61.8333 215.334 62.1952 214.9 62.5765C214.466 62.9577 214.032 63.2955 213.573 63.6333C212.64 64.3149 211.652 64.9186 210.62 65.4381C209.53 65.9855 208.383 66.408 207.198 66.6977C206.562 66.8438 205.918 66.9486 205.268 67.0113C204.586 67.0691 203.899 67.0691 203.217 67.0113C203.023 66.9922 202.833 66.9451 202.652 66.8714L202.459 66.7894C200.865 66.099 199.375 65.1877 198.034 64.0821C196.763 63.0568 195.58 61.9268 194.497 60.7041C193.439 59.533 192.45 58.302 191.534 57.0172C191.08 56.3738 190.643 55.7304 190.221 55.0869C190.014 54.754 189.806 54.4258 189.604 54.0832C189.401 53.7406 189.218 53.4221 188.996 53.0071C188.585 52.2846 188.478 51.4285 188.698 50.6271C188.918 49.8257 189.448 49.1447 190.171 48.7339C190.893 48.323 191.749 48.216 192.551 48.4364C193.352 48.6568 194.033 49.1864 194.444 49.9089L194.487 49.9861Z" fill="#263238"/>
<path opacity="0.3" d="M197.461 58.8161C195.579 54.9555 192.369 55.1775 191.076 56.3694L191.443 56.9051C192.319 58.1467 193.263 59.3389 194.271 60.4761C195.303 61.6451 196.419 62.737 197.61 63.7431C197.987 64.052 198.378 64.356 198.773 64.6456C198.719 62.6355 198.274 60.6552 197.461 58.8161Z" fill="black"/>
<path d="M215.297 58.3873L217.71 56.375L219.157 59.4973C219.157 59.4973 215.562 62.0694 214.737 61.1621L214.64 59.9991C214.613 59.6976 214.659 59.3939 214.773 59.1135C214.887 58.8331 215.067 58.5841 215.297 58.3873Z" fill="#B55B52"/>
<path d="M220.928 56.7585L221.685 59.1714L219.137 59.485L217.699 56.3628L220.928 56.7585Z" fill="#B55B52"/>
<path d="M175.537 170.79H179.113L179.576 162.504H176L175.537 170.79Z" fill="#B55B52"/>
<path d="M179.301 170.376H175.282C175.248 170.375 175.215 170.38 175.183 170.392C175.151 170.404 175.123 170.421 175.098 170.444C175.073 170.467 175.053 170.495 175.039 170.525C175.025 170.556 175.017 170.589 175.016 170.622L174.818 173.802C174.818 173.97 174.884 174.13 175.002 174.249C175.119 174.369 175.278 174.437 175.446 174.439C176.845 174.415 177.516 174.333 179.282 174.333C180.368 174.333 183.365 174.444 184.866 174.444C186.366 174.444 186.313 172.958 185.691 172.823C182.834 172.224 180.928 171.375 179.9 170.598C179.731 170.458 179.52 170.38 179.301 170.376Z" fill="#263238"/>
<path opacity="0.2" d="M176.001 162.508H179.577L179.336 166.779H175.76L176.001 162.508Z" fill="black"/>
<path d="M188.234 79.9727C188.234 79.9727 187.925 111.055 187.346 121.3C186.709 132.515 180.87 165.75 180.87 165.75H174.316C174.316 165.75 177.173 133.418 176.778 122.318C176.348 110.254 176.087 79.9727 176.087 79.9727H188.234Z" fill="#263238"/>
<path d="M173.791 165.747H181.782L182.173 163.262L173.453 163.648L173.791 165.747Z" fill="#263238"/>
<path d="M180.567 170.999C180.242 170.992 179.918 170.95 179.602 170.874C179.586 170.871 179.571 170.863 179.559 170.851C179.548 170.839 179.54 170.825 179.537 170.809C179.534 170.792 179.535 170.776 179.542 170.761C179.548 170.746 179.559 170.733 179.573 170.724C179.689 170.642 180.697 169.952 181.136 170.126C181.186 170.144 181.229 170.176 181.263 170.216C181.297 170.257 181.32 170.305 181.329 170.357C181.352 170.435 181.355 170.518 181.337 170.597C181.319 170.676 181.282 170.75 181.228 170.811C181.038 170.953 180.803 171.02 180.567 170.999ZM179.843 170.753C180.485 170.878 180.958 170.859 181.122 170.695C181.158 170.655 181.183 170.607 181.194 170.554C181.205 170.501 181.202 170.447 181.185 170.396C181.181 170.37 181.17 170.345 181.153 170.324C181.136 170.304 181.113 170.289 181.088 170.28C180.856 170.188 180.258 170.488 179.843 170.753Z" fill="#58B368"/>
<path d="M179.634 170.875C179.622 170.88 179.608 170.88 179.596 170.875C179.583 170.869 179.572 170.859 179.564 170.848C179.557 170.836 179.552 170.822 179.552 170.808C179.552 170.764 179.465 169.736 179.827 169.389C179.873 169.345 179.929 169.311 179.99 169.291C180.051 169.271 180.116 169.265 180.179 169.273C180.251 169.276 180.319 169.301 180.374 169.347C180.429 169.392 180.468 169.455 180.483 169.524C180.565 169.915 180.03 170.663 179.678 170.875C179.663 170.88 179.648 170.88 179.634 170.875ZM180.117 169.428C180.05 169.427 179.986 169.453 179.938 169.5C179.74 169.843 179.657 170.24 179.702 170.634C180.015 170.373 180.368 169.804 180.315 169.548C180.315 169.5 180.276 169.442 180.155 169.428H180.117Z" fill="#58B368"/>
<path d="M193.715 50.9047C193.535 50.3013 193.194 49.7581 192.729 49.3332C192.264 48.9082 191.693 48.6174 191.076 48.4918C190.193 48.2833 189.299 48.1301 188.397 48.0334C185.689 47.8788 182.974 47.8788 180.266 48.0334C178.847 48.1009 177.4 48.2747 176.246 48.4436H176.203C175.9 48.4862 175.608 48.5895 175.346 48.7471C175.083 48.9048 174.855 49.1137 174.675 49.3613C174.495 49.609 174.366 49.8903 174.297 50.1886C174.228 50.4869 174.22 50.7961 174.273 51.0977C175.181 55.8973 175.776 60.751 176.053 65.628C176.333 72.7074 175.952 78.2666 176.087 79.9749H195.221C196.384 62.694 194.883 54.8425 193.715 50.9047Z" fill="#E6E6E6"/>
<path d="M180.808 47.7148C182.314 53.8242 183.703 69.3052 183.679 81.4081H175.591C175.447 79.6033 175.852 73.7449 175.558 66.2795C175.268 61.1472 174.647 56.039 173.7 50.9867C173.645 50.6701 173.653 50.3456 173.726 50.0324C173.798 49.7192 173.932 49.4236 174.119 49.1629C174.307 48.9021 174.545 48.6816 174.82 48.5141C175.094 48.3467 175.399 48.2357 175.717 48.1878H175.76C176.976 48.0092 178.501 47.8258 179.997 47.7535L180.808 47.7148Z" fill="#263238"/>
<path d="M194.701 50.9923C194.496 50.3253 194.121 49.7228 193.613 49.2434C193.106 48.764 192.483 48.4239 191.806 48.2561C190.527 48.055 189.238 47.9229 187.945 47.8604C189.475 53.1687 192.477 69.3397 191.584 81.4089H196.69C197.901 63.2979 195.84 54.3027 194.701 50.9923Z" fill="#263238"/>
<path d="M224.524 67.7228L186.454 84.0145L181.879 73.3786L219.954 57.0869L224.524 67.7228Z" fill="#58B368"/>
<path d="M192.395 73.9042C192.568 74.3085 192.617 74.7551 192.537 75.1874C192.456 75.6198 192.249 76.0186 191.942 76.3334C191.635 76.6482 191.241 76.8649 190.811 76.9562C190.381 77.0474 189.933 77.009 189.525 76.8459C189.116 76.6827 188.765 76.4022 188.516 76.0397C188.267 75.6772 188.131 75.249 188.125 74.8092C188.119 74.3694 188.244 73.9378 188.483 73.5688C188.723 73.1999 189.066 72.9102 189.47 72.7363C189.739 72.6207 190.028 72.5592 190.32 72.5554C190.613 72.5515 190.903 72.6054 191.175 72.7138C191.446 72.8223 191.694 72.9833 191.903 73.1875C192.113 73.3918 192.28 73.6353 192.395 73.9042Z" fill="white"/>
<path d="M193.354 75.7852C193.212 76.2083 192.983 76.5968 192.681 76.925C192.378 77.2532 192.01 77.5138 191.6 77.6897C191.19 77.8656 190.747 77.9528 190.301 77.9456C189.855 77.9384 189.415 77.8369 189.011 77.6479C188.668 78.0371 188.437 78.5111 188.34 79.0204C188.243 79.5297 188.285 80.0557 188.461 80.5433L195.844 77.3873C195.612 76.9209 195.258 76.5258 194.819 76.2438C194.381 75.9619 193.875 75.8034 193.354 75.7852Z" fill="white"/>
<path d="M219.109 62.9665L196.857 72.4877L196.355 71.3103L218.607 61.7891L219.109 62.9665Z" fill="white"/>
<path d="M217.455 66.6277L197.934 74.981L197.428 73.8035L216.948 65.4502L217.455 66.6277Z" fill="white"/>
<path opacity="0.3" d="M178.089 57.1836C177.954 53.1252 174.958 51.5761 174.113 52.6667C174.076 52.7108 174.042 52.7576 174.012 52.8067C174.538 55.9338 175.18 60.2383 175.459 64.4801C176.883 63.6598 178.215 61.0394 178.089 57.1836Z" fill="black"/>
<path d="M188.011 48.0243C185.647 47.4645 185.232 46.0023 185.391 44.3954C185.428 43.9929 185.491 43.5931 185.579 43.1986L182.616 40.7374L180.44 38.9326C181.043 41.553 181.723 46.3256 179.957 48.0726C179.957 48.0726 181.405 50.4854 185.473 50.2731C188.865 50.0849 188.011 48.0243 188.011 48.0243Z" fill="#B55B52"/>
<path d="M183.847 52.4319C184.127 51.6277 184.582 50.8958 185.179 50.2893C183.363 49.6933 181.711 48.6821 180.353 47.3359L179.113 47.8185C179.113 47.8185 179.552 50.9697 183.847 52.4319Z" fill="white"/>
<path d="M187.158 51.8894C186.621 51.2197 185.946 50.6733 185.18 50.2872C186.372 49.9494 186.835 47.5317 186.835 47.5317L187.998 47.773C187.998 47.773 190.145 50.9242 187.158 51.8894Z" fill="white"/>
<path opacity="0.2" d="M185.579 43.1994C185.492 43.594 185.429 43.9937 185.391 44.3962C184.286 44.1742 182.809 42.9967 182.655 41.8675C182.601 41.4937 182.588 41.115 182.616 40.7383L185.579 43.1994Z" fill="black"/>
<path d="M186.96 30.3278C188.451 30.0576 190.188 31.6211 189.373 34.7964C188.557 37.9718 184.682 30.738 186.96 30.3278Z" fill="#263238"/>
<path d="M179.544 35.1615C180.301 38.6408 180.567 40.7111 182.623 42.2987C183.285 42.8213 184.078 43.1529 184.915 43.2576C185.752 43.3623 186.602 43.2361 187.372 42.8928C188.143 42.5494 188.805 42.002 189.287 41.3095C189.769 40.6171 190.053 39.8061 190.107 38.9641C190.378 35.7261 189.099 30.5818 185.436 29.5974C184.649 29.3628 183.814 29.3394 183.016 29.5294C182.217 29.7194 181.482 30.1162 180.885 30.68C180.288 31.2437 179.85 31.9545 179.615 32.7411C179.379 33.5277 179.355 34.3624 179.544 35.1615Z" fill="#B55B52"/>
<path d="M180.943 38.9323C181.454 37.7259 181.908 34.3672 181.493 32.9725C183.158 32.9195 186.657 32.6106 188.114 30.9892C190.353 28.4991 187.4 25.5554 183.684 27.9007C181.271 29.4111 176.064 29.1119 176.928 30.7961C174.389 33.5902 177.241 36.7463 180.943 38.9323Z" fill="#263238"/>
<path d="M176.923 30.9194C176.905 30.9192 176.888 30.9153 176.872 30.9078C176.856 30.9003 176.842 30.8894 176.831 30.876C176.522 30.4947 176.426 30.1762 176.532 29.9108C176.788 29.2738 178.115 29.1001 179.644 28.9071C181.092 28.7237 182.694 28.5162 183.206 27.8647C183.229 27.8437 183.259 27.832 183.29 27.832C183.321 27.832 183.352 27.8437 183.375 27.8647C183.386 27.8755 183.395 27.8886 183.402 27.9031C183.408 27.9177 183.411 27.9333 183.411 27.9492C183.411 27.965 183.408 27.9806 183.402 27.9952C183.395 28.0097 183.386 28.0228 183.375 28.0336C182.8 28.7623 181.203 28.965 179.659 29.1628C178.322 29.3366 176.942 29.5103 176.763 30.0218C176.691 30.2052 176.763 30.4513 177.019 30.7553C177.041 30.7779 177.054 30.8082 177.054 30.8398C177.054 30.8713 177.041 30.9017 177.019 30.9242C176.987 30.9337 176.953 30.932 176.923 30.9194Z" fill="#263238"/>
<path d="M179.007 37.9722C179.422 38.622 180.05 39.1079 180.783 39.3475C181.714 39.6274 182.033 38.7685 181.656 37.8612C181.314 37.0408 180.416 35.9068 179.543 36.0274C178.669 36.1481 178.481 37.1567 179.007 37.9722Z" fill="#B55B52"/>
<path d="M184.523 35.512C184.566 35.7967 184.755 35.9946 184.943 35.9946C185.131 35.9946 185.242 35.7243 185.199 35.4396C185.155 35.1549 184.967 34.957 184.779 34.957C184.591 34.957 184.48 35.2273 184.523 35.512Z" fill="#263238"/>
<path d="M187.761 35.1252C187.804 35.4099 187.992 35.6078 188.181 35.6078C188.369 35.6078 188.485 35.3327 188.436 35.048C188.388 34.7633 188.205 34.5654 188.021 34.5654C187.838 34.5654 187.717 34.8405 187.761 35.1252Z" fill="#263238"/>
<path d="M187.264 35.3901C187.742 36.2235 188.33 36.9894 189.011 37.6679C188.833 37.8307 188.621 37.9523 188.391 38.024C188.161 38.0957 187.918 38.1158 187.679 38.0829L187.264 35.3901Z" fill="#A02724"/>
<path d="M186.628 38.9952C186.293 38.9997 185.961 38.9362 185.651 38.8084C185.342 38.6807 185.062 38.4914 184.828 38.252C184.82 38.2438 184.815 38.2342 184.811 38.2238C184.808 38.2134 184.806 38.2024 184.807 38.1914C184.807 38.1805 184.81 38.1697 184.815 38.1598C184.82 38.1499 184.827 38.1411 184.835 38.1338C184.843 38.1265 184.853 38.1209 184.863 38.1174C184.874 38.1138 184.885 38.1123 184.896 38.1129C184.906 38.1136 184.917 38.1164 184.927 38.1213C184.937 38.1261 184.946 38.1328 184.953 38.141C185.213 38.3945 185.527 38.586 185.871 38.7013C186.215 38.8166 186.581 38.8527 186.941 38.807C186.952 38.8049 186.964 38.8052 186.975 38.8078C186.986 38.8104 186.996 38.8152 187.005 38.822C187.015 38.8288 187.022 38.8375 187.028 38.8473C187.033 38.8572 187.037 38.8681 187.038 38.8794C187.039 38.8902 187.038 38.9011 187.035 38.9116C187.033 38.9221 187.028 38.9318 187.021 38.9404C187.014 38.9489 187.006 38.956 186.996 38.9613C186.987 38.9666 186.976 38.9699 186.965 38.9711C186.853 38.986 186.741 38.994 186.628 38.9952Z" fill="#263238"/>
<path d="M183.466 34.5907C183.438 34.5887 183.41 34.5805 183.384 34.5665C183.365 34.5555 183.348 34.5408 183.334 34.5232C183.321 34.5055 183.311 34.4853 183.305 34.4638C183.299 34.4423 183.297 34.4198 183.3 34.3977C183.303 34.3755 183.31 34.3542 183.322 34.3349C183.446 34.0997 183.627 33.8988 183.847 33.7498C184.068 33.6009 184.321 33.5085 184.586 33.4808C184.608 33.4795 184.63 33.4825 184.651 33.4898C184.672 33.4972 184.692 33.5085 184.708 33.5233C184.725 33.5381 184.738 33.556 184.748 33.5761C184.758 33.5961 184.763 33.6178 184.765 33.64C184.766 33.6622 184.763 33.6844 184.755 33.7054C184.748 33.7264 184.737 33.7458 184.722 33.7623C184.707 33.7789 184.689 33.7924 184.669 33.8021C184.649 33.8117 184.627 33.8173 184.605 33.8186C184.397 33.8432 184.198 33.9186 184.025 34.0381C183.853 34.1575 183.712 34.3174 183.616 34.5038C183.601 34.5304 183.58 34.5526 183.553 34.5679C183.527 34.5831 183.497 34.591 183.466 34.5907Z" fill="#263238"/>
<path d="M189.214 33.8512C189.186 33.8513 189.159 33.8443 189.134 33.8308C189.11 33.8173 189.089 33.7977 189.074 33.774C188.957 33.5915 188.799 33.4383 188.614 33.3262C188.428 33.2141 188.219 33.1461 188.003 33.1274C187.958 33.1274 187.915 33.1096 187.883 33.0779C187.852 33.0462 187.834 33.0033 187.834 32.9585C187.834 32.9137 187.852 32.8707 187.883 32.839C187.915 32.8073 187.958 32.7896 188.003 32.7896C188.274 32.8085 188.538 32.8903 188.772 33.0285C189.007 33.1667 189.206 33.3575 189.354 33.5858C189.378 33.6238 189.387 33.6697 189.378 33.7138C189.369 33.7579 189.343 33.7968 189.306 33.8223C189.279 33.8406 189.247 33.8507 189.214 33.8512Z" fill="#263238"/>
<path d="M178.53 53.4438C178.554 53.4148 178.53 53.4438 178.53 53.4438L178.496 53.4969L178.414 53.632L178.24 53.936C178.119 54.1532 178.004 54.3751 177.888 54.6068C177.666 55.0893 177.449 55.5719 177.256 56.0545C176.87 57.0652 176.564 58.1042 176.339 59.1623C175.89 61.3471 175.759 63.585 175.948 65.8073C175.974 66.2748 176.037 66.7395 176.136 67.1971C176.246 67.6594 176.4 68.1102 176.594 68.5435C177.042 69.5333 177.59 70.4745 178.23 71.3521C179.64 73.2578 181.216 75.0343 182.94 76.6604L183.008 76.7279C183.276 76.9888 183.442 77.3372 183.476 77.71C183.509 78.0828 183.407 78.4552 183.19 78.7595C182.972 79.0639 182.652 79.2799 182.288 79.3685C181.925 79.457 181.541 79.4122 181.208 79.2422C179.997 78.6236 178.839 77.9086 177.743 77.1044C176.628 76.2991 175.578 75.4085 174.601 74.4405C173.565 73.4101 172.658 72.2581 171.899 71.0094C171.482 70.33 171.135 69.6106 170.861 68.862C170.595 68.1048 170.4 67.3245 170.278 66.5312C170.028 65.1342 169.898 63.7182 169.892 62.299C169.869 60.8621 169.978 59.4262 170.215 58.0089C170.454 56.5703 170.83 55.1579 171.339 53.7912C171.599 53.0947 171.897 52.4132 172.232 51.7499C172.406 51.4121 172.584 51.0792 172.787 50.7462C172.888 50.5773 172.994 50.4084 173.105 50.2347L173.284 49.9741L173.525 49.6411C174.036 49.0054 174.774 48.5937 175.584 48.4932C176.393 48.3927 177.21 48.6113 177.86 49.1027C178.511 49.5941 178.945 50.3197 179.07 51.1255C179.195 51.9314 179.001 52.7543 178.53 53.4196V53.4438Z" fill="#263238"/>
<path d="M183.964 76.6989L185.957 76.5928L183.645 80.4534C183.645 80.4534 180.422 80.0432 180.75 78.3976L181.199 77.915C181.933 77.1735 182.921 76.7388 183.964 76.6989Z" fill="#B55B52"/>
<path d="M188.021 77.9778L186.284 82.0796L183.645 80.4678L185.956 76.5928L188.021 77.9778Z" fill="#B55B52"/>
</svg>
