<svg width="500" height="500" viewBox="0 0 500 500" fill="none" xmlns="http://www.w3.org/2000/svg">
<path d="M250 427.562C357.083 427.562 443.89 422.494 443.89 416.242C443.89 409.99 357.083 404.922 250 404.922C142.918 404.922 56.1101 409.99 56.1101 416.242C56.1101 422.494 142.918 427.562 250 427.562Z" fill="#F5F5F5"/>
<path d="M500 382.398H0V382.648H500V382.398Z" fill="#EBEBEB"/>
<path d="M73.67 391.922H52.46V392.172H73.67V391.922Z" fill="#EBEBEB"/>
<path d="M256.11 389.21H171.14V389.46H256.11V389.21Z" fill="#EBEBEB"/>
<path d="M105.78 401.21H67.67V401.46H105.78V401.21Z" fill="#EBEBEB"/>
<path d="M449.9 399.531H406.71V399.781H449.9V399.531Z" fill="#EBEBEB"/>
<path d="M403.44 399.531H391.47V399.781H403.44V399.531Z" fill="#EBEBEB"/>
<path d="M370.89 395.309H347.89V395.559H370.89V395.309Z" fill="#EBEBEB"/>
<path d="M336.33 395.309H287.89V395.559H336.33V395.309Z" fill="#EBEBEB"/>
<path d="M237 337.8H43.91C42.3973 337.797 40.9475 337.195 39.8788 336.124C38.8102 335.054 38.21 333.603 38.21 332.09V60.66C38.2231 59.156 38.8292 57.718 39.8964 56.6582C40.9637 55.5985 42.4059 55.0026 43.91 55H237C238.514 55 239.967 55.6016 241.038 56.6724C242.108 57.7433 242.71 59.1956 242.71 60.71V60.71V332.09C242.71 333.604 242.108 335.057 241.038 336.128C239.967 337.198 238.514 337.8 237 337.8V337.8ZM43.91 55.2C42.4636 55.2026 41.0774 55.7791 40.0556 56.8027C39.0338 57.8264 38.46 59.2136 38.46 60.66V332.09C38.46 333.536 39.0338 334.924 40.0556 335.947C41.0774 336.971 42.4636 337.547 43.91 337.55H237C238.446 337.545 239.832 336.968 240.855 335.945C241.878 334.922 242.455 333.536 242.46 332.09V60.66C242.455 59.2135 241.878 57.8278 240.855 56.805C239.832 55.7822 238.446 55.2053 237 55.2H43.91Z" fill="#EBEBEB"/>
<path d="M453.31 337.8H260.21C258.697 337.795 257.248 337.191 256.178 336.122C255.109 335.052 254.505 333.603 254.5 332.09V60.66C254.516 59.1551 255.124 57.7171 256.193 56.6576C257.262 55.5981 258.705 55.0025 260.21 55H453.31C454.812 55.0052 456.252 55.6022 457.317 56.6617C458.382 57.7212 458.987 59.1578 459 60.66V332.09C459.001 332.839 458.855 333.58 458.57 334.272C458.285 334.964 457.866 335.593 457.338 336.123C456.809 336.654 456.182 337.075 455.491 337.362C454.799 337.65 454.059 337.799 453.31 337.8V337.8ZM260.21 55.2C258.764 55.2053 257.378 55.7822 256.355 56.805C255.332 57.8278 254.755 59.2135 254.75 60.66V332.09C254.755 333.536 255.332 334.922 256.355 335.945C257.378 336.968 258.764 337.545 260.21 337.55H453.31C454.756 337.545 456.142 336.968 457.165 335.945C458.188 334.922 458.765 333.536 458.77 332.09V60.66C458.765 59.2135 458.188 57.8278 457.165 56.805C456.142 55.7822 454.756 55.2053 453.31 55.2H260.21Z" fill="#EBEBEB"/>
<path d="M315.27 282.071H311.01V382.591H315.27V282.071Z" fill="#F0F0F0"/>
<path d="M267.57 284.938H148.58V306.648H267.57V284.938Z" fill="#E0E0E0"/>
<path d="M198.2 382.671H147.2C147.004 382.671 146.815 382.593 146.677 382.454C146.538 382.316 146.46 382.127 146.46 381.931C146.46 381.735 146.538 381.547 146.677 381.408C146.815 381.269 147.004 381.191 147.2 381.191H198.2C205.57 381.191 206.56 379.041 206.56 370.501V262.811C206.548 262.707 206.558 262.602 206.589 262.503C206.621 262.403 206.673 262.311 206.742 262.233C206.812 262.155 206.897 262.093 206.992 262.05C207.087 262.007 207.191 261.985 207.295 261.985C207.399 261.985 207.503 262.007 207.598 262.05C207.693 262.093 207.778 262.155 207.848 262.233C207.917 262.311 207.969 262.403 208.001 262.503C208.032 262.602 208.042 262.707 208.03 262.811V370.501C208 379.631 206.61 382.671 198.2 382.671Z" fill="#E0E0E0"/>
<path d="M314.11 282.462H153.16V290.002H314.11V282.462Z" fill="#F0F0F0"/>
<path d="M154.32 282.071H102.64V382.591H154.32V282.071Z" fill="#F5F5F5"/>
<path d="M154.31 282.071H150.05V382.591H154.31V282.071Z" fill="#F0F0F0"/>
<path d="M117.72 169.22H64.86V382.6H117.72V169.22Z" fill="#FAFAFA"/>
<path d="M114.82 175.45H67.76V222.51H114.82V175.45Z" fill="#F5F5F5"/>
<path d="M80.8699 174.821H101.74C101.74 176.115 101.226 177.357 100.311 178.272C99.3954 179.187 98.1541 179.701 96.8599 179.701H85.7799C85.139 179.705 84.5037 179.583 83.9101 179.341C83.3165 179.1 82.7763 178.743 82.3204 178.293C81.8644 177.843 81.5017 177.307 81.2528 176.716C81.0039 176.126 80.8738 175.492 80.8699 174.851V174.821Z" fill="#E0E0E0"/>
<path d="M114.81 226.731H67.75V273.791H114.81V226.731Z" fill="#F5F5F5"/>
<path d="M114.82 278.02H67.76V325.08H114.82V278.02Z" fill="#F5F5F5"/>
<path d="M114.82 329.31H67.76V376.37H114.82V329.31Z" fill="#F5F5F5"/>
<path d="M80.87 226.11H101.74C101.737 227.404 101.223 228.645 100.308 229.561C99.3941 230.478 98.1544 230.995 96.86 231H85.78C85.1383 231.004 84.5021 230.881 83.9079 230.639C83.3137 230.397 82.773 230.04 82.317 229.588C81.8609 229.137 81.4983 228.6 81.2501 228.008C81.0018 227.417 80.8726 226.782 80.87 226.14V226.11Z" fill="#E0E0E0"/>
<path d="M80.8699 277.391H101.74C101.741 278.033 101.616 278.668 101.371 279.26C101.126 279.853 100.767 280.392 100.313 280.845C99.8601 281.298 99.3216 281.658 98.7289 281.903C98.1363 282.147 97.5011 282.273 96.8599 282.271H85.7799C84.4873 282.279 83.2444 281.774 82.3239 280.867C81.4034 279.959 80.8804 278.724 80.8699 277.431V277.391Z" fill="#E0E0E0"/>
<path d="M80.8699 328.669H101.74C101.741 329.31 101.616 329.945 101.371 330.538C101.126 331.13 100.767 331.669 100.313 332.122C99.8601 332.576 99.3216 332.935 98.7289 333.18C98.1363 333.425 97.5011 333.55 96.8599 333.549H85.7799C84.4873 333.557 83.2444 333.052 82.3239 332.144C81.4034 331.237 80.8804 330.001 80.8699 328.709V328.669Z" fill="#E0E0E0"/>
<path d="M64.86 169.22H38.46V382.6H64.86V169.22Z" fill="#F0F0F0"/>
<path d="M201.22 282.072H190.08L192.78 260.372H203.94L201.22 282.072Z" fill="#F0F0F0"/>
<path d="M203.69 282.072H192.54L195.26 260.372H206.4L203.69 282.072Z" fill="#F5F5F5"/>
<path d="M227.61 282.07H219.54L218 279.61H226.06L227.61 282.07Z" fill="#F0F0F0"/>
<path d="M270.8 282.07H222.01L220.47 279.61H264.22L270.8 282.07Z" fill="#FAFAFA"/>
<path d="M165.87 275.84H169.4C170.218 275.84 171.027 276.001 171.783 276.314C172.538 276.628 173.224 277.087 173.802 277.665C174.379 278.244 174.837 278.931 175.149 279.687C175.461 280.442 175.621 281.252 175.62 282.07H159.62C159.62 280.418 160.276 278.833 161.445 277.665C162.613 276.496 164.198 275.84 165.85 275.84H165.87Z" fill="#F0F0F0"/>
<path d="M205.04 271.222H193.9L195.26 260.372H206.4L205.04 271.222Z" fill="#F0F0F0"/>
<path d="M164.06 268.62H243C243.143 268.621 243.286 268.594 243.419 268.54C243.552 268.485 243.672 268.405 243.774 268.304C243.875 268.202 243.955 268.082 244.01 267.949C244.064 267.816 244.091 267.674 244.09 267.53C244.095 267.483 244.095 267.437 244.09 267.39L238 218.77C237.98 218.498 237.857 218.243 237.657 218.058C237.456 217.872 237.193 217.769 236.92 217.77H158C157.711 217.77 157.434 217.885 157.229 218.089C157.025 218.294 156.91 218.571 156.91 218.86C156.905 218.907 156.905 218.953 156.91 219L163 267.67C163.035 267.928 163.161 268.166 163.356 268.34C163.55 268.514 163.799 268.613 164.06 268.62V268.62Z" fill="#F0F0F0"/>
<path d="M165.25 268.62H244.12C244.264 268.621 244.406 268.594 244.539 268.54C244.672 268.485 244.792 268.405 244.894 268.304C244.995 268.202 245.075 268.082 245.13 267.949C245.184 267.816 245.211 267.674 245.21 267.53C245.215 267.483 245.215 267.437 245.21 267.39L239.14 218.77C239.111 218.499 238.984 218.248 238.784 218.064C238.583 217.88 238.322 217.776 238.05 217.77H159.17C158.881 217.77 158.604 217.885 158.399 218.089C158.195 218.294 158.08 218.571 158.08 218.86C158.075 218.907 158.075 218.953 158.08 219L164.16 267.63C164.183 267.902 164.308 268.156 164.51 268.34C164.712 268.523 164.977 268.623 165.25 268.62Z" fill="#F5F5F5"/>
<path d="M242.66 265.932L237 220.422C236.99 220.347 236.953 220.28 236.895 220.232C236.838 220.183 236.765 220.158 236.69 220.162H160.94C160.901 220.159 160.862 220.164 160.825 220.177C160.788 220.19 160.754 220.21 160.725 220.236C160.696 220.262 160.673 220.294 160.657 220.329C160.64 220.364 160.631 220.403 160.63 220.442V220.502L166.32 266.002C166.327 266.076 166.362 266.145 166.418 266.195C166.473 266.245 166.545 266.272 166.62 266.272H242.36C242.401 266.27 242.441 266.261 242.478 266.244C242.515 266.227 242.548 266.204 242.576 266.174C242.604 266.144 242.626 266.109 242.64 266.071C242.655 266.033 242.661 265.992 242.66 265.952V265.932Z" fill="#E0E0E0"/>
<path d="M213.84 282.068H195.68V281.838C195.68 281.36 195.869 280.901 196.207 280.562C196.544 280.223 197.002 280.031 197.48 280.028H212C212.48 280.028 212.94 280.219 213.28 280.558C213.619 280.898 213.81 281.358 213.81 281.838V282.068H213.84Z" fill="#FAFAFA"/>
<path d="M197.79 282.068H185.48V281.838C185.479 281.601 185.524 281.366 185.614 281.146C185.704 280.927 185.836 280.727 186.004 280.559C186.171 280.391 186.37 280.257 186.589 280.166C186.808 280.075 187.043 280.028 187.28 280.028H196C196.478 280.031 196.936 280.223 197.273 280.562C197.611 280.901 197.8 281.36 197.8 281.838V282.068H197.79Z" fill="#F0F0F0"/>
<path d="M87.1999 145.12C87.3999 144.44 87.5899 143.75 87.7599 143.07C88.0571 143.544 88.4619 143.942 88.9415 144.23C89.421 144.518 89.9618 144.69 90.5199 144.73H90.7599C92.2299 144.59 93.6299 143.16 94.5199 140.92C94.5393 140.881 94.5494 140.838 94.5494 140.795C94.5494 140.752 94.5393 140.709 94.5199 140.67C94.4995 140.63 94.4713 140.594 94.437 140.565C94.4026 140.536 94.3628 140.514 94.3199 140.5C93.2655 140.233 92.1665 140.191 91.0948 140.377C90.0231 140.563 89.0026 140.973 88.0999 141.58C88.2399 140.93 88.3499 140.27 88.4499 139.58C88.68 139.629 88.9147 139.652 89.1499 139.65C89.9697 139.576 90.7666 139.34 91.4945 138.955C92.2223 138.571 92.8665 138.045 93.3899 137.41C93.4468 137.349 93.4785 137.269 93.4785 137.185C93.4785 137.101 93.4468 137.021 93.3899 136.96H93.3099C92.7539 136.683 92.1455 136.528 91.5249 136.504C90.9044 136.48 90.2857 136.587 89.7099 136.82C89.0958 137.132 88.598 137.634 88.2899 138.25C87.8441 136.859 87.0194 135.619 85.9083 134.671C84.7972 133.722 83.4438 133.102 81.9999 132.88C81.9565 132.869 81.9111 132.869 81.8676 132.88C81.8241 132.89 81.7838 132.911 81.7499 132.94C81.7131 132.967 81.6825 133.001 81.6601 133.041C81.6376 133.081 81.624 133.125 81.6199 133.17C81.4999 135.34 81.6199 138.01 83.1999 139.27C83.8776 139.772 84.7072 140.026 85.5499 139.99C86.3093 139.979 87.0633 139.861 87.7899 139.64C87.5576 141.21 87.2235 142.763 86.7899 144.29C85.1919 142.128 82.9357 140.542 80.3599 139.77C80.2827 139.761 80.2048 139.78 80.1393 139.821C80.0738 139.863 80.0246 139.926 79.9999 140C79.5099 141.88 79.7599 143.4 80.7299 144.4C81.224 144.838 81.8 145.175 82.4248 145.389C83.0496 145.604 83.7107 145.692 84.3699 145.65C85.0785 145.642 85.7849 145.569 86.4799 145.43C86.0799 146.71 85.5999 147.97 85.1499 149.16C84.1499 148.28 81.2999 146.1 78.1499 147.02C78.0675 147.051 77.9996 147.111 77.9599 147.19C77.9405 147.229 77.9305 147.272 77.9305 147.315C77.9305 147.358 77.9405 147.401 77.9599 147.44C78.8399 149.52 79.7799 150.67 80.9599 151.06C81.2823 151.167 81.6201 151.221 81.9599 151.22C82.8896 151.183 83.7959 150.918 84.5999 150.45C83.9299 152.04 83.2199 153.52 82.5499 154.84C81.7453 154.02 80.7346 153.432 79.6242 153.139C78.5138 152.845 77.3447 152.856 76.2399 153.17C76.1649 153.187 76.0987 153.231 76.0544 153.294C76.01 153.357 75.9906 153.434 75.9999 153.51C76.0754 154.175 76.3251 154.808 76.7237 155.345C77.1223 155.882 77.6557 156.305 78.2699 156.57C78.7347 156.768 79.2347 156.87 79.7399 156.87C80.4383 156.857 81.1237 156.679 81.7399 156.35C81.0499 157.62 80.4199 158.69 79.9199 159.49H73.9999C72.9999 157.87 71.9999 155.85 70.8699 153.58C71.3693 153.731 71.8881 153.809 72.4099 153.81C72.9584 153.818 73.503 153.718 74.0126 153.515C74.5222 153.312 74.9868 153.01 75.3797 152.628C75.7727 152.245 76.0862 151.788 76.3025 151.284C76.5187 150.78 76.6334 150.238 76.6399 149.69C76.6469 149.322 76.6031 148.956 76.5099 148.6C76.489 148.529 76.4432 148.467 76.3808 148.427C76.3184 148.386 76.2435 148.37 76.1699 148.38C74.9489 148.499 73.7743 148.909 72.7457 149.578C71.717 150.246 70.8643 151.152 70.2599 152.22C69.5599 150.64 68.8699 148.96 68.2599 147.22C69.0222 147.651 69.875 147.898 70.7499 147.94C71.0905 147.941 71.4286 147.883 71.7499 147.77C73.5099 147.19 74.5199 145.07 75.3799 142.88C75.3994 142.839 75.4095 142.795 75.4095 142.75C75.4095 142.705 75.3994 142.661 75.3799 142.62C75.3595 142.58 75.3313 142.544 75.297 142.515C75.2626 142.486 75.2228 142.464 75.1799 142.45C71.6599 141.45 68.7699 144.85 67.8699 146.07C67.4004 144.605 67.0099 143.117 66.6999 141.61C67.4418 141.752 68.1946 141.829 68.9499 141.84C69.6971 141.895 70.4476 141.795 71.1547 141.548C71.8618 141.3 72.5103 140.909 73.0599 140.4C74.1199 139.27 74.3799 137.58 73.8099 135.53C73.8006 135.49 73.7832 135.452 73.7589 135.418C73.7346 135.385 73.7039 135.356 73.6684 135.335C73.633 135.313 73.5937 135.299 73.5527 135.293C73.5117 135.287 73.47 135.29 73.4299 135.3V135.3C70.6101 136.151 68.1498 137.909 66.4299 140.3L66.2899 139.5C66.2843 139.433 66.2561 139.369 66.2099 139.32C66.063 138.8 65.8092 138.316 65.4649 137.899C65.1205 137.483 64.6931 137.142 64.2099 136.9C63.5753 136.656 62.8964 136.549 62.2175 136.585C61.5387 136.621 60.8751 136.8 60.2699 137.11C60.2243 137.131 60.1838 137.161 60.151 137.199C60.1182 137.237 60.094 137.282 60.0799 137.33C60.0688 137.379 60.0694 137.43 60.0815 137.478C60.0937 137.527 60.1171 137.572 60.1499 137.61C60.7239 138.295 61.4275 138.859 62.2204 139.271C63.0132 139.683 63.8797 139.934 64.7699 140.01C65.0517 140 65.3324 139.97 65.6099 139.92C65.7199 140.66 65.8599 141.41 66.0199 142.15C65.0177 141.491 63.8875 141.052 62.7036 140.861C61.5196 140.669 60.3086 140.73 59.1499 141.04C59.0619 141.07 58.9874 141.13 58.9399 141.21C58.9102 141.294 58.9102 141.386 58.9399 141.47C59.9399 143.92 61.5199 145.47 63.1399 145.6H63.3599C63.9732 145.547 64.5652 145.349 65.0868 145.022C65.6085 144.695 66.0449 144.249 66.3599 143.72C66.8053 145.414 67.3394 147.083 67.9599 148.72C66.4399 148 63.0199 146.72 60.5699 148.65C60.5061 148.7 60.4634 148.771 60.4504 148.851C60.4375 148.931 60.4551 149.013 60.4999 149.08V149.08C62.0799 151.24 63.4999 152.28 64.9799 152.28C66.1599 152.28 67.2999 151.53 68.4299 150.06C69.0799 151.67 69.7899 153.22 70.4299 154.65C68.9099 153.71 67.2399 153.85 65.2699 155.09C65.2248 155.119 65.1875 155.159 65.1614 155.206C65.1352 155.253 65.121 155.306 65.1199 155.36C65.1157 155.411 65.1256 155.462 65.1485 155.508C65.1714 155.554 65.2065 155.593 65.2499 155.62C66.4219 156.467 67.8074 156.969 69.2499 157.07C69.9963 157.091 70.7295 156.87 71.3399 156.44C71.8999 157.52 72.4499 158.51 72.9599 159.44H70.4099V160.99H71.4099L72.2299 169.18H84.2299L85.0399 160.99H86.0399V159.5H80.6399C81.2399 158.5 81.9999 157.18 82.8199 155.63C82.8406 155.595 82.8574 155.558 82.8699 155.52C83.0799 155.12 83.2899 154.72 83.4999 154.3C83.8565 154.841 84.3377 155.289 84.9033 155.606C85.4688 155.923 86.1021 156.099 86.7499 156.12H87.1499C87.8669 156.038 88.5472 155.759 89.1156 155.314C89.6839 154.87 90.118 154.276 90.3699 153.6C90.3977 153.532 90.3988 153.456 90.3728 153.387C90.3468 153.319 90.2958 153.262 90.2299 153.23C89.3092 152.708 88.2775 152.413 87.2201 152.37C86.1628 152.327 85.1103 152.536 84.1499 152.98C84.5999 151.98 85.0299 150.98 85.4799 149.98C85.5166 149.941 85.5409 149.893 85.5499 149.84C85.6699 149.54 85.7799 149.24 85.9099 148.96C86.9099 150.28 87.9899 150.96 89.0699 150.96C90.3799 150.96 91.7099 149.96 93.1299 147.96C93.1554 147.927 93.1741 147.89 93.1848 147.85C93.1956 147.81 93.1983 147.768 93.1927 147.727C93.1871 147.686 93.1734 147.647 93.1523 147.611C93.1312 147.576 93.1032 147.545 93.0699 147.52C90.8299 145.84 87.7999 146.99 86.3699 147.66C86.6599 146.86 86.9299 146.06 87.1699 145.25L87.1999 145.12Z" fill="#E0E0E0"/>
<path d="M286.91 332.33H320C323.024 332.323 325.926 331.134 328.085 329.017C330.245 326.901 331.492 324.023 331.56 321L332.8 260.47C332.843 258.231 331.995 256.066 330.442 254.451C328.889 252.837 326.759 251.905 324.52 251.86H303.63C301.556 251.857 299.554 252.618 298.006 253.998C296.458 255.378 295.474 257.28 295.24 259.34L286.91 332.33Z" fill="#E6E6E6"/>
<path d="M305 332.33H269.73C269.292 332.33 268.873 332.156 268.563 331.847C268.254 331.537 268.08 331.118 268.08 330.68V330.52C268.08 329.321 268.556 328.172 269.404 327.324C270.252 326.476 271.401 326 272.6 326H305V332.34V332.33Z" fill="#E6E6E6"/>
<path d="M302.17 383.421C302 383.425 301.834 383.369 301.7 383.263C301.567 383.157 301.475 383.008 301.44 382.841L291.11 333.071H273.11L262.79 382.841C262.733 383.02 262.611 383.172 262.449 383.267C262.286 383.362 262.094 383.393 261.91 383.354C261.726 383.316 261.563 383.21 261.452 383.058C261.341 382.906 261.29 382.718 261.31 382.531L271.77 332.181C271.803 332.011 271.896 331.858 272.031 331.75C272.167 331.642 272.337 331.585 272.51 331.591H291.69C291.862 331.588 292.029 331.645 292.162 331.753C292.296 331.861 292.387 332.013 292.42 332.181L302.87 382.531C302.891 382.625 302.892 382.722 302.875 382.817C302.858 382.911 302.823 383.002 302.771 383.082C302.719 383.163 302.651 383.233 302.572 383.288C302.493 383.342 302.404 383.381 302.31 383.401L302.17 383.421Z" fill="#E6E6E6"/>
<path d="M291 383.418H290.85C290.658 383.38 290.489 383.267 290.38 383.103C290.271 382.94 290.232 382.741 290.27 382.548V382.548L300.73 332.188C300.767 332.02 300.86 331.869 300.995 331.762C301.13 331.655 301.298 331.597 301.47 331.598H320.65C320.821 331.599 320.986 331.658 321.119 331.765C321.251 331.872 321.343 332.022 321.38 332.188L331.83 382.548C331.85 382.645 331.85 382.744 331.831 382.841C331.813 382.938 331.775 383.03 331.721 383.112C331.666 383.194 331.596 383.265 331.515 383.32C331.433 383.375 331.341 383.414 331.245 383.433C331.148 383.453 331.049 383.454 330.952 383.435C330.855 383.416 330.763 383.379 330.681 383.324C330.599 383.27 330.528 383.2 330.473 383.118C330.418 383.037 330.38 382.945 330.36 382.848L320 333.078H302L291.68 382.848C291.642 383.003 291.555 383.142 291.433 383.245C291.311 383.347 291.159 383.408 291 383.418Z" fill="#E6E6E6"/>
<path d="M415.29 368.811H417.35C417.35 364.571 417.35 353.811 417.57 329.131C417.93 284.411 418.65 281.691 418.65 281.691L413.75 302.341C410.63 325.191 414.63 348.191 415.29 368.811Z" fill="#E6E6E6"/>
<path d="M406.16 294.681C395.36 284.011 374.28 282.581 352.74 281.681C344.29 281.331 376.34 297.571 392.41 309.731C404.83 319.171 412.49 321.401 416.63 331.581C417.11 318.371 415.46 303.881 406.16 294.681Z" fill="#E6E6E6"/>
<path d="M418 271.48C425.32 257.58 443.73 244.48 464.39 239.48C472.49 237.53 445.59 265.14 435.39 282.96C427.45 296.8 416.92 313.04 415.29 324.72C412.82 301.63 410.7 285.38 418 271.48Z" fill="#E0E0E0"/>
<path d="M417.11 382.189C413.647 382.182 410.318 380.853 407.801 378.475C405.285 376.096 403.771 372.846 403.57 369.389L402.33 357.129H431.81L430.57 369.389C430.37 372.832 428.868 376.07 426.368 378.447C423.869 380.824 420.559 382.162 417.11 382.189V382.189Z" fill="#EBEBEB"/>
<path d="M433.74 361.851H400.43L399.47 348.191H434.69L433.74 361.851Z" fill="#F0F0F0"/>
<path d="M446.13 75.7812H276.59V197.001H446.13V75.7812Z" fill="#E0E0E0"/>
<path d="M442.39 75.7812H276.59V197.001H442.39V75.7812Z" fill="#F0F0F0"/>
<path d="M436.18 80.91H282.13V189.07H436.18V80.91Z" fill="#FAFAFA"/>
<path d="M448.55 70.4883H270.85V72.6083H448.55V70.4883Z" fill="#E0E0E0"/>
<path d="M269.43 74.5489C271.065 74.5489 272.39 73.2237 272.39 71.5889C272.39 69.9541 271.065 68.6289 269.43 68.6289C267.795 68.6289 266.47 69.9541 266.47 71.5889C266.47 73.2237 267.795 74.5489 269.43 74.5489Z" fill="#E0E0E0"/>
<path d="M448.55 74.5489C450.185 74.5489 451.51 73.2237 451.51 71.5889C451.51 69.9541 450.185 68.6289 448.55 68.6289C446.915 68.6289 445.59 69.9541 445.59 71.5889C445.59 73.2237 446.915 74.5489 448.55 74.5489Z" fill="#E0E0E0"/>
<path opacity="0.7" d="M420.89 80.91L372.05 189.07H352.8L401.64 80.91H420.89Z" fill="white"/>
<path opacity="0.7" d="M383.93 80.91L335.09 189.07H300.73L349.57 80.91H383.93Z" fill="white"/>
<path d="M446.13 124.45H276.59V128.13H446.13V124.45Z" fill="#E0E0E0"/>
<path d="M446.13 119.04H276.59V122.72H446.13V119.04Z" fill="#E0E0E0"/>
<path d="M446.13 113.64H276.59V117.32H446.13V113.64Z" fill="#E0E0E0"/>
<path d="M446.13 108.23H276.59V111.91H446.13V108.23Z" fill="#E0E0E0"/>
<path d="M446.13 102.828H276.59V106.508H446.13V102.828Z" fill="#E0E0E0"/>
<path d="M446.13 97.43H276.59V101.11H446.13V97.43Z" fill="#E0E0E0"/>
<path d="M446.13 92.02H276.59V95.7H446.13V92.02Z" fill="#E0E0E0"/>
<path d="M446.13 86.6211H276.59V90.3011H446.13V86.6211Z" fill="#E0E0E0"/>
<path d="M446.13 81.2188H276.59V84.8988H446.13V81.2188Z" fill="#E0E0E0"/>
<path d="M446.13 75.8086H276.59V79.4886H446.13V75.8086Z" fill="#E0E0E0"/>
<path d="M216.13 74.79H185.14V105.78H216.13V74.79Z" fill="#F0F0F0"/>
<path d="M213.71 74.79H182.72V105.78H213.71V74.79Z" fill="#F5F5F5"/>
<path d="M211.33 77.18H185.11V103.4H211.33V77.18Z" fill="#FAFAFA"/>
<path d="M185.85 77.18H185.11V103.4H185.85V77.18Z" fill="#F0F0F0"/>
<path d="M208.18 84.18V96.25C207.167 96.25 206.195 96.6525 205.479 97.3689C204.762 98.0852 204.36 99.0569 204.36 100.07H193.2C193.2 99.5675 193.101 99.07 192.908 98.6058C192.716 98.1417 192.433 97.7202 192.078 97.3653C191.722 97.0105 191.3 96.7293 190.835 96.5379C190.37 96.3465 189.872 96.2487 189.37 96.25V84.18C189.872 84.1813 190.37 84.0835 190.835 83.8921C191.3 83.7007 191.722 83.4195 192.078 83.0647C192.433 82.7098 192.716 82.2883 192.908 81.8242C193.101 81.36 193.2 80.8625 193.2 80.36H204.36C204.36 80.8617 204.459 81.3584 204.651 81.8219C204.843 82.2853 205.124 82.7064 205.479 83.0611C205.834 83.4159 206.255 83.6972 206.718 83.8892C207.182 84.0812 207.678 84.18 208.18 84.18V84.18Z" fill="white"/>
<path d="M159.9 74.54H55.88V127.51H159.9V74.54Z" fill="#E6E6E6"/>
<path d="M155.68 74.54H51.66V127.51H155.68V74.54Z" fill="#F0F0F0"/>
<path d="M151.94 79.16H55.58V121.67H151.94V79.16Z" fill="#F5F5F5"/>
<path opacity="0.7" d="M129.14 79.16L110.49 121.67H97.5L117.21 79.16H129.14Z" fill="white"/>
<path opacity="0.7" d="M112.75 79.16L92.82 121.67H87.03L107.26 79.16H112.75Z" fill="white"/>
<path d="M130.26 117.732C130.26 117.732 123.9 116.312 123 108.112C122.17 100.502 125.56 98.9917 125.56 98.9917C125.56 98.9917 121.23 91.2117 128.46 86.7417C135.69 82.2717 146.76 88.2317 151.02 86.2117C155.28 84.1917 160.02 85.3217 158.67 91.3217C157.32 97.3217 151 98.8817 151 98.8817L136.41 96.3217C136.41 96.3217 142.7 112.722 138.97 115.812C135.24 118.902 130.26 117.732 130.26 117.732Z" fill="#454D66"/>
<path d="M155.68 93.5617C155.68 93.5617 158.83 105.802 155.68 107.912C152.53 110.022 151.85 95.3717 151.85 95.3717L155.68 93.5617Z" fill="#454D66"/>
<path d="M132.47 212.113L129.34 218.813L123.79 218.013C118.56 218.853 116.38 215.883 116.38 215.883L113.09 212.883C94.7001 195.663 91.6001 186.883 93.1801 179.953C94.8501 172.633 105.93 151.103 109.27 146.093C112.61 141.083 115.13 139.713 115.13 139.713C121.19 137.103 125.78 138.983 127.89 145.463C129.6 150.703 125.72 156.173 122.73 160.123C119.052 164.959 115.653 170 112.55 175.223C111.55 176.943 110.55 178.693 109.61 180.453C109.2 181.213 106.94 184.513 107.19 185.183C108.73 189.473 116.47 201.653 119.19 205.873L120.13 207.333C130.17 208.773 132.47 212.113 132.47 212.113Z" fill="#454D66"/>
<path d="M236.93 141.352L231.1 144.682C231.1 144.682 229.84 147.162 227.76 150.632C223.03 158.542 214.08 171.632 206.17 172.512C195.78 173.382 184.86 168.572 173.89 161.212C162.92 153.852 166.79 137.012 166.79 137.012C166.79 137.012 173.34 138.852 183.48 146.352C193.62 153.852 202.22 158.432 204.72 159.402C204.72 159.402 213.32 156.632 222.63 145.812L225.27 137.332L234.02 134.332L236.93 141.352Z" fill="#454D66"/>
<path d="M114.76 165.462C115.14 166.002 125 214.402 125 214.402H171.06C171.06 214.402 171.47 184.812 172.23 177.792C172.99 170.772 177.65 141.792 166.79 137.012C166.79 137.012 155.73 134.382 147.57 134.272C142.657 134.205 137.75 134.624 132.92 135.522C132.92 135.522 118.79 136.272 115.12 139.692C111.45 143.112 114.76 165.462 114.76 165.462Z" fill="#454D66"/>
<path d="M171.06 213.75C171.06 213.75 170.28 283.56 168.19 300.26C166.1 316.96 160.68 389.13 160.68 389.13L147 385.84C147 385.84 146 333.31 144.57 307.22C143.14 281.13 143.46 250.22 143.46 250.22C143.46 250.22 133.46 315.22 129.61 321.48C125.76 327.74 110.1 363.92 99.9999 382L88.8599 372.26C88.8599 372.26 107 314.52 110.1 304.78C113.2 295.04 115.9 222.78 125 214.4L171.06 213.75Z" fill="#58B368"/>
<path d="M98.31 379.882L95.53 384.132L91.78 389.872L84.12 385.892L87.26 379.552L89.6 374.852L98.31 379.882Z" fill="#CE7A63"/>
<path d="M236.93 141.352L231.1 144.682C231.1 144.682 229.84 147.162 227.76 150.632L222.63 145.812L225.27 137.332L234.02 134.332L236.93 141.352Z" fill="#CE7A63"/>
<path opacity="0.3" d="M171.05 213.75C171.05 213.75 170.28 283.56 168.19 300.25C166.1 316.94 160.68 389.13 160.68 389.13L147.17 386.86C147.17 386.86 145.92 333.31 144.54 307.21C144.15 299.77 143.46 294.11 143.31 289.76C143.16 285.41 143.19 277.76 143.31 270.27C143.44 259.43 143.68 248.89 143.68 248.89L143.38 250.81C143.38 251.09 143.29 251.4 143.23 251.73L143.17 252.13C141.04 265.59 132.92 316.02 129.62 321.44C125.75 327.74 110.1 363.92 99.9999 382L88.8599 372.26C88.8599 372.26 106.96 314.51 110.09 304.78C113.22 295.05 115.89 222.78 124.99 214.39L171.05 213.75Z" fill="black"/>
<path opacity="0.2" d="M143.34 250.802C143.34 251.082 143.25 251.392 143.19 251.722L143.34 250.802Z" fill="black"/>
<path opacity="0.2" d="M145.53 236.793C145.53 236.793 145.27 256.793 143.27 270.263C143.4 259.423 143.64 248.883 143.64 248.883L145.53 236.793Z" fill="black"/>
<path d="M149.48 132.362C150.821 133.408 152.348 134.192 153.98 134.672C153.98 134.672 151.65 137.472 144.18 136.922C141.27 136.702 137.57 138.292 132.93 135.522C132.93 135.522 134.87 124.442 134.02 117.882C134.02 117.882 126.35 114.592 128.18 109.602C129.84 105.062 135.01 110.272 135.95 111.262C135.03 110.092 129.51 102.722 133.53 96.6917C134.817 94.7666 136.512 93.148 138.494 91.9504C140.476 90.7529 142.697 90.0057 145 89.7617L151.34 91.4617L153.89 97.4617C153.89 97.4617 157.3 102.082 157.54 111.332C157.78 120.582 152.43 123.862 148.54 124.962C148.54 124.962 148.43 125.962 148.43 127.312C148.38 129.122 148.55 131.512 149.48 132.362Z" fill="#CE7A63"/>
<path d="M151.49 112.06L150.49 104.59L154.7 110.47C154.302 110.94 153.811 111.323 153.259 111.596C152.707 111.87 152.105 112.028 151.49 112.06V112.06Z" fill="#BA4D3C"/>
<path d="M144.18 112.532C144.764 113.289 145.558 113.859 146.462 114.17C147.367 114.481 148.343 114.52 149.27 114.282" stroke="#454D66" stroke-linecap="round" stroke-linejoin="round"/>
<path d="M142.27 102.203C142.27 102.203 143.47 99.583 145.93 99.983" stroke="#454D66" stroke-linecap="round" stroke-linejoin="round"/>
<path d="M153.08 99.0002C153.812 98.9045 154.557 98.9843 155.253 99.2329C155.948 99.4815 156.574 99.8919 157.08 100.43" stroke="#454D66" stroke-linecap="round" stroke-linejoin="round"/>
<path d="M146.75 105.603C146.75 106.333 146.38 106.923 145.93 106.923C145.48 106.923 145.11 106.333 145.11 105.603C145.11 104.873 145.48 104.293 145.93 104.293C146.38 104.293 146.75 104.883 146.75 105.603Z" fill="#454D66"/>
<path d="M155.07 105.062C155.07 105.782 154.7 106.372 154.25 106.372C153.8 106.372 153.43 105.782 153.43 105.062C153.43 104.342 153.8 103.742 154.25 103.742C154.7 103.742 155.07 104.332 155.07 105.062Z" fill="#454D66"/>
<path d="M141.22 140.32L147.64 139.34L149.21 145.55L146.22 151.11H144.5L141.22 146.12V140.32Z" fill="#58B368"/>
<path d="M144.5 151.113L141.22 180.453L147.22 186.233L151.55 180.323L146.22 151.113H144.5Z" fill="#58B368"/>
<path opacity="0.3" d="M141.22 140.32L147.64 139.34L149.21 145.55L146.22 151.11H144.5L141.22 146.12V140.32Z" fill="black"/>
<path opacity="0.3" d="M144.5 151.113L141.22 180.453L147.22 186.233L151.55 180.323L146.22 151.113H144.5Z" fill="black"/>
<path d="M144.18 136.922L147.43 145.482C147.43 145.482 155.83 141.292 157.06 134.272L151.06 132.212C148.972 134.063 146.661 135.645 144.18 136.922V136.922Z" fill="white"/>
<path d="M133.5 131.652C133.5 131.652 139.31 134.712 144.18 136.922L142.27 145.482C142.27 145.482 132.65 139.722 129.42 135.222L133.5 131.652Z" fill="white"/>
<path opacity="0.2" d="M148.5 124.934C148.5 124.934 148.39 125.934 148.39 127.284C146.736 126.876 145.14 126.261 143.64 125.454C145.278 125.676 146.946 125.497 148.5 124.934Z" fill="black"/>
<path d="M136 111.261C137.087 106.925 136.7 102.351 134.9 98.2606C134.9 98.2606 146.31 101.531 146.34 91.1406C146.34 91.1406 131.12 93.5706 130.34 98.9806C129.56 104.391 134.7 109.791 136 111.261Z" fill="#454D66"/>
<path d="M146.17 92.6717C146.17 92.6717 150.53 98.8617 154.27 97.5817V88.5817H141.27L134.4 92.6817L139.16 97.5817L142.7 94.6717L146.17 92.6717Z" fill="#454D66"/>
<path d="M159.77 400.383L150.01 399.883L149.77 392.483L149.59 387.083L157.49 386.293L159.05 386.363L159.39 393.043L159.77 400.383Z" fill="#CE7A63"/>
<path opacity="0.2" d="M159.39 393.043L149.77 392.483L149.59 387.083L157.49 386.293L159.05 386.363L159.39 393.043Z" fill="black"/>
<path d="M144.29 390.632L163.06 390.172L164.12 384.052H144.73L144.29 390.632Z" fill="#454D66"/>
<path d="M161.87 400.79C161.87 400.79 165.14 391.15 167.69 392.11C170.24 393.07 161.87 400.79 161.87 400.79Z" stroke="#58B368" stroke-miterlimit="10"/>
<path d="M162.43 400.793C162.43 400.793 167.37 396.093 169.36 397.923C171.35 399.753 162.43 400.793 162.43 400.793Z" stroke="#58B368" stroke-miterlimit="10"/>
<path opacity="0.2" d="M98.31 379.882L95.53 384.132L87.26 379.552L89.6 374.852L98.31 379.882Z" fill="black"/>
<path d="M85.4199 376.042L99.7599 383.632L103.14 379.472L88.5299 371.262L85.4199 376.042Z" fill="#454D66"/>
<path d="M94.55 392.423C94.55 392.423 98.61 387.343 100.26 388.543C101.91 389.743 94.55 392.423 94.55 392.423Z" stroke="#58B368" stroke-miterlimit="10"/>
<path d="M95.29 392.423C95.29 392.423 102.29 390.773 102.59 393.043C102.89 395.313 95.29 392.423 95.29 392.423Z" stroke="#58B368" stroke-miterlimit="10"/>
<path d="M93.7 387.001L86.17 382.771C85.6442 382.479 85.0246 382.407 84.4459 382.57C83.8672 382.733 83.3763 383.118 83.08 383.641L79.69 389.641C79.3951 390.167 79.3211 390.789 79.4842 391.37C79.6473 391.952 80.0342 392.444 80.56 392.741L101.93 404.741C102.457 405.036 103.079 405.11 103.66 404.946C104.241 404.783 104.734 404.396 105.03 403.871C105.293 403.4 105.381 402.852 105.279 402.323C105.176 401.794 104.89 401.319 104.47 400.981C101.71 398.771 96.05 393.691 94.8 388.431C94.7246 388.13 94.5881 387.847 94.3988 387.601C94.2096 387.355 93.9717 387.151 93.7 387.001V387.001Z" fill="#454D66"/>
<path d="M158.87 396.633H148.87C148.172 396.635 147.503 396.915 147.01 397.41C146.517 397.904 146.24 398.574 146.24 399.273V407.273C146.24 407.97 146.517 408.639 147.01 409.133C147.504 409.626 148.172 409.903 148.87 409.903H177.23C177.576 409.904 177.919 409.837 178.24 409.705C178.56 409.574 178.851 409.38 179.096 409.136C179.341 408.892 179.536 408.601 179.669 408.282C179.802 407.962 179.87 407.619 179.87 407.273V407.273C179.869 406.649 179.648 406.046 179.245 405.571C178.843 405.095 178.285 404.777 177.67 404.673C173.62 404.003 165.04 402.083 160.79 397.493C160.546 397.226 160.249 397.012 159.919 396.864C159.589 396.716 159.232 396.637 158.87 396.633V396.633Z" fill="#454D66"/>
<path d="M132.47 212.113L129.34 218.813L123.79 218.013C118.56 218.853 116.38 215.883 116.38 215.883L113.09 212.883L119.2 205.883L120.14 207.343C130.17 208.773 132.47 212.113 132.47 212.113Z" fill="#CE7A63"/>
<path d="M222.63 145.372L220.69 147.952L226.37 152.912L228.04 150.632L222.63 145.372Z" fill="white"/>
<path d="M112.84 213.162L119.39 205.502L117.18 202.692L110.34 210.922L112.84 213.162Z" fill="white"/>
<path d="M238.59 97.7533C237.914 99.7629 237.694 101.898 237.947 104.003C238.199 106.108 238.918 108.131 240.05 109.923C243.93 115.803 243.05 96.3633 243.05 96.3633L238.59 97.7533Z" fill="#454D66"/>
<path d="M246.54 141.841C246.54 141.841 222.54 175.441 217.85 174.031C213.16 172.621 202.35 151.661 202.35 151.661L201.72 143.371L194.64 133.621L185.64 140.721L190 148.831C190 148.831 191.3 153.041 195.14 154.221C195.14 154.221 203.97 181.331 215.14 186.421C226.31 191.511 241.81 159.211 241.81 159.211L246.54 141.841Z" fill="#FFB573"/>
<path d="M297.92 386.693L285.53 391.403C269.53 356.263 256.53 253.783 256.53 253.783C256.53 253.783 256.15 256.653 255.58 261.273C253.72 276.573 249.78 310.963 250.58 323.273C251.85 343.983 248.19 395.163 248.19 395.163L233.19 396.943C233.19 396.943 233.7 346.353 231.56 318.323C229.42 290.293 235.97 218.373 235.97 218.373L277.34 216.473C284.44 224.633 286.21 325.063 287.99 334.293C289.77 343.523 297.92 386.693 297.92 386.693Z" fill="#454D66"/>
<path d="M231.89 146.851C231.991 146.301 232.201 145.777 232.508 145.309C232.816 144.842 233.214 144.442 233.68 144.131C237.03 141.891 245.62 136.311 247.93 136.131C250.83 135.901 265.99 132.341 272 136.131C278.01 139.921 281.81 151.061 281.81 151.061C281.81 151.061 281.37 202.551 278.69 219.271L235.9 218.381C235.9 218.381 229.17 161.941 231.89 146.851Z" fill="#58B368"/>
<path d="M279.81 165.55L286.49 177.81C286.49 177.81 287.38 205.45 285.16 212.58L281.81 219.27V230L289.81 231.11L292.04 222.64C292.04 222.64 293.37 216.4 292.04 213.73C292.04 213.73 301.4 192.33 298.04 173.83C298.04 173.83 281.15 136.59 270.79 135.56C260.43 134.53 279.81 165.55 279.81 165.55Z" fill="#FFB573"/>
<path d="M266.17 135.611C266.17 135.611 259.56 141.991 253.53 141.811C247.5 141.631 249.15 136.491 249.15 136.491C252.25 135.911 253.26 132.811 253.55 130.151C253.693 128.822 253.693 127.481 253.55 126.151C253.55 126.151 246.36 126.151 242.32 117.371C238.28 108.591 242.32 97.0214 242.32 97.0214C242.32 97.0214 257.59 93.1614 264.43 95.0914C271.27 97.0214 265.84 114.211 265.84 114.211C264.06 123.861 266.17 135.611 266.17 135.611Z" fill="#FFB573"/>
<path d="M252.77 106.171C252.77 106.861 252.39 107.421 251.93 107.421C251.47 107.421 251.1 106.861 251.1 106.171C251.1 105.481 251.47 104.921 251.93 104.921C252.39 104.921 252.77 105.481 252.77 106.171Z" fill="#454D66"/>
<path d="M244.25 107C244.25 107.69 243.88 108.25 243.42 108.25C242.96 108.25 242.58 107.69 242.58 107C242.58 106.31 242.96 105.75 243.42 105.75C243.88 105.75 244.25 106.28 244.25 107Z" fill="#454D66"/>
<path d="M247.07 107.601V114.311C246.519 114.483 245.929 114.487 245.375 114.323C244.822 114.159 244.329 113.835 243.96 113.391L247.07 107.601Z" fill="#ED893E"/>
<path d="M249.92 115.481C249.92 115.481 253.48 115.481 254.78 112.551" stroke="#454D66" stroke-linecap="round" stroke-linejoin="round"/>
<path d="M251.1 101.351C251.1 101.351 254.2 101.101 255.1 103.031" stroke="#454D66" stroke-linecap="round" stroke-linejoin="round"/>
<path d="M240.51 103.71C240.754 103.1 241.149 102.563 241.658 102.148C242.167 101.734 242.774 101.456 243.42 101.34" stroke="#454D66" stroke-linecap="round" stroke-linejoin="round"/>
<path opacity="0.2" d="M259 125.081C257.59 127.158 255.731 128.891 253.56 130.151C253.703 128.822 253.703 127.481 253.56 126.151C255.426 126.155 257.274 125.791 259 125.081V125.081Z" fill="black"/>
<path d="M251.75 142.02L255.38 141.68L256.4 149.26L254.51 152.73H252.35L250.33 148.97L251.75 142.02Z" fill="#454D66"/>
<path d="M265.73 132.562C262.112 136.197 258.006 139.31 253.53 141.812L255.69 147.173C255.69 147.173 264.75 145.613 268.63 134.863L265.73 132.562Z" fill="white"/>
<path d="M253.53 141.811L251.1 147.171C251.1 147.171 247.42 143.541 246.54 136.531L251.1 133.621C251.1 133.621 251.27 138.871 253.53 141.811Z" fill="white"/>
<path d="M252.51 150.731L250.04 182.781L254.19 187.821L258.02 182.471L254.28 150.731H252.51Z" fill="#454D66"/>
<path d="M268.92 109.401C268.92 109.401 260.16 110.461 258.71 97.7714C258.71 97.7714 243.28 102.381 237.71 97.6514C232.14 92.9214 236.66 86.7714 236.66 86.7714C237.138 87.9681 237.71 89.125 238.37 90.2314V86.2314C239.307 87.4617 240.34 88.6153 241.46 89.6814C245.954 90.4047 250.558 89.5156 254.46 87.1714C261.15 83.1714 269.66 90.7614 268.09 96.6114C268.14 96.6414 275.68 102.521 268.92 109.401Z" fill="#454D66"/>
<path d="M262.91 109.761C262.91 109.761 265.27 101.391 269.15 104.341C273.03 107.291 267.5 115.531 264.8 115.061C262.1 114.591 262.91 109.761 262.91 109.761Z" fill="#FFB573"/>
<path d="M194.87 156.001L203.31 151.341C203.31 151.341 212.38 168.861 217.64 171.061C217.64 171.061 228.33 160.271 231.85 146.761L236.64 169.281C236.64 169.281 228.35 186.791 217.87 187.041C207.39 187.291 198.8 167.351 194.87 156.001Z" fill="#58B368"/>
<path d="M273.81 158.58L286.53 179L284.41 210.63L293.98 212.5C293.98 212.5 301.35 190.5 298.08 173.85C295.71 161.76 288.22 146.43 279.53 139.1C276.441 136.568 272.619 135.099 268.63 134.91C268.63 134.91 266.28 140.33 266.4 144.91C266.52 149.49 273.81 158.58 273.81 158.58Z" fill="#58B368"/>
<path opacity="0.2" d="M281.47 170.861L273.81 158.581C274.47 159.641 281.47 180.861 281.47 180.861V170.861Z" fill="black"/>
<path opacity="0.2" d="M256.53 253.783C256.53 253.783 256.15 256.653 255.58 261.273L253.58 236.953L256.53 253.783Z" fill="black"/>
<path d="M292.77 401.841L300.53 398.231L298.3 392.141L296.67 387.691L289.99 389.641L288.75 390.201L290.66 395.751L292.77 401.841Z" fill="#FFB573"/>
<path opacity="0.2" d="M290.66 395.751L298.3 392.141L296.67 387.691L289.99 389.641L288.75 390.201L290.66 395.751Z" fill="black"/>
<path d="M291.19 402.863C291.19 402.863 285.37 396.103 283.61 397.713C281.85 399.323 291.19 402.863 291.19 402.863Z" stroke="#58B368" stroke-miterlimit="10"/>
<path d="M290.74 403C290.74 403 285.18 400.8 284.16 402.94C283.14 405.08 290.74 403 290.74 403Z" stroke="#58B368" stroke-miterlimit="10"/>
<path d="M292.27 398.501L300.38 395.221C300.946 394.994 301.58 395 302.142 395.238C302.704 395.475 303.149 395.926 303.38 396.491L306 403.001C306.114 403.282 306.172 403.582 306.169 403.884C306.167 404.187 306.106 404.486 305.988 404.765C305.87 405.044 305.698 405.296 305.482 405.509C305.266 405.721 305.011 405.888 304.73 406.001L281.68 415.311C281.399 415.427 281.098 415.485 280.795 415.483C280.491 415.481 280.191 415.418 279.912 415.299C279.633 415.18 279.38 415.007 279.169 414.789C278.957 414.571 278.791 414.314 278.68 414.031V414.031C278.474 413.526 278.454 412.964 278.625 412.445C278.795 411.927 279.144 411.486 279.61 411.201C282.67 409.331 289.03 404.951 290.97 399.831C291.08 399.53 291.253 399.256 291.477 399.026C291.701 398.797 291.971 398.618 292.27 398.501V398.501Z" fill="#454D66"/>
<path d="M236.07 409.493L244.62 409.283L245 402.803L245.28 398.073L238.38 397.203L237.02 397.223L236.56 403.073L236.07 409.493Z" fill="#FFB573"/>
<path opacity="0.2" d="M236.56 403.073L245 402.803L245.28 398.073L238.38 397.203L237.02 397.223L236.56 403.073Z" fill="black"/>
<path d="M234.21 409.801C234.21 409.801 231.57 401.281 229.32 402.061C227.07 402.841 234.21 409.801 234.21 409.801Z" stroke="#58B368" stroke-miterlimit="10"/>
<path d="M233.72 409.79C233.72 409.79 229.5 405.55 227.72 407.11C225.94 408.67 233.72 409.79 233.72 409.79Z" stroke="#58B368" stroke-miterlimit="10"/>
<path d="M236.94 406.231L245.69 406.461C245.993 406.469 246.292 406.537 246.569 406.66C246.847 406.783 247.097 406.96 247.306 407.18C247.515 407.4 247.678 407.659 247.787 407.943C247.896 408.226 247.948 408.528 247.94 408.831L247.75 415.831C247.742 416.134 247.675 416.433 247.551 416.709C247.428 416.986 247.251 417.236 247.031 417.444C246.81 417.652 246.551 417.815 246.268 417.922C245.985 418.03 245.683 418.081 245.38 418.071L220.53 417.421C220.227 417.414 219.929 417.346 219.652 417.223C219.375 417.099 219.125 416.922 218.917 416.702C218.709 416.482 218.547 416.223 218.439 415.939C218.331 415.656 218.281 415.354 218.29 415.051V415.051C218.306 414.504 218.516 413.981 218.883 413.574C219.249 413.168 219.748 412.905 220.29 412.831C223.85 412.331 231.42 410.831 235.24 406.921C235.461 406.697 235.727 406.52 236.019 406.401C236.311 406.283 236.625 406.225 236.94 406.231Z" fill="#454D66"/>
<path d="M285.26 394.88L280.97 387.41L299.64 380.5L300.95 390.4L285.26 394.88Z" fill="#58B368"/>
<path d="M231.11 390.34V400H250.7L251.45 390.34H231.11Z" fill="#58B368"/>
<path d="M335.68 154.22C335.68 154.22 330 176.62 324 183.56C324 183.56 313.11 172.68 309.8 163.21C309.8 163.21 309.49 158.79 306.33 156.9L301.6 150.43L293.71 153.27L295.6 159.58L303.81 164.16C303.81 164.16 314.22 192.87 323.68 192.71C333.14 192.55 337.41 179.93 337.41 179.93L342.61 152.93L335.68 154.22Z" fill="#FF8B7B"/>
<path d="M304 166.852L309.84 163.212C309.84 163.212 319.78 179.452 324.43 182.712C324.43 182.712 330.22 172.152 332.2 163.462C333.239 158.733 334.517 154.06 336.03 149.462L342.65 159.052C342.65 159.052 338.3 189.592 329.3 192.692C320.3 195.792 315.21 187.001 313.16 183.541C311.11 180.081 304 166.852 304 166.852Z" fill="#454D66"/>
<path d="M354.05 386.691C354.05 387.061 360.05 395.542 360.05 395.542L366.33 387.422L359.56 377.831L354.05 386.691Z" fill="#FF8B7B"/>
<path d="M357.22 392.301L363.72 385.251C364.177 384.76 364.81 384.469 365.481 384.443C366.152 384.417 366.806 384.657 367.3 385.111L372.94 390.331C373.184 390.556 373.382 390.827 373.521 391.128C373.661 391.43 373.739 391.756 373.752 392.087C373.765 392.419 373.712 392.75 373.597 393.061C373.482 393.373 373.306 393.658 373.08 393.901L354.6 413.901C354.143 414.39 353.512 414.679 352.844 414.705C352.175 414.731 351.524 414.493 351.03 414.041V414.041C350.589 413.635 350.307 413.085 350.233 412.49C350.16 411.895 350.301 411.293 350.63 410.791C352.79 407.501 357.03 400.201 356.56 394.211C356.532 393.865 356.576 393.516 356.689 393.187C356.803 392.858 356.984 392.557 357.22 392.301V392.301Z" fill="#454D66"/>
<path d="M340.58 382.75L358.82 366.75L365.53 380.68L353.06 391.52L340.58 382.75Z" fill="#58B368"/>
<path d="M333.91 201.453C333.91 201.453 314.24 287.323 313.91 307.923C313.58 328.523 331.55 364.253 342.91 380.983L358.21 368.813L336.04 314.813L346.33 247.573L358.21 383.813L372.89 385.693C372.89 385.693 374.76 334.173 372.89 315.443C371.02 296.713 381.42 233.013 373.72 208.653L333.91 201.453Z" fill="#454D66"/>
<path d="M373.77 208.633C373.77 208.633 377.12 176.693 383.55 164.183L386.05 149.713C386.05 149.713 381.4 143.993 370.86 144.173C360.32 144.353 355.68 143.173 355.68 143.173C355.68 143.173 341.91 142.243 338.68 145.283C335.45 148.323 335.29 162.083 334.75 168.693C334.21 175.303 332.95 205.693 332.95 205.693L373.77 208.633Z" fill="#58B368"/>
<path d="M372.84 143.113C372.84 143.113 357 161.663 360 208.633L378.52 211.813L376 192.333L387.87 156.723C387.87 156.723 390.36 145.633 372.84 143.113Z" fill="#454D66"/>
<path d="M354.78 143.112C354.78 143.112 337.72 155.572 336.41 203.382L327.48 203.632L334.79 165.392C333.507 161.94 333.339 158.173 334.31 154.621C335.31 151.181 336.39 147.142 338.69 145.242C342.35 142.212 348.18 142.472 354.78 143.112Z" fill="#454D66"/>
<path d="M375.68 154.33C375.68 154.33 386.3 180.11 383.68 190.54C383.68 190.54 365.36 185.83 356.91 177.64C356.91 177.64 354.26 173.17 349.91 172.84L341.55 168.55L334.77 175.67L340.07 181.29L351.07 181.78C351.07 181.78 377.07 206.43 386.93 201.29C391.54 198.88 393.52 194.2 394.32 189.9C395.066 185.68 394.833 181.346 393.64 177.23L386.59 152L375.68 154.33Z" fill="#FF8B7B"/>
<path d="M350.4 184.242L357.64 175.822C357.64 175.822 373.72 188.221 383.64 190.541C382.775 182.071 381.439 173.654 379.64 165.332L374.64 156.722L375.1 153.102L387.22 151.532C387.22 151.532 398.22 182.282 395.3 193.362C392.38 204.442 386.11 205.542 375.55 201.451C364.99 197.361 350.4 184.242 350.4 184.242Z" fill="#454D66"/>
<path d="M373.09 407.963H363.02L362.44 399.583L362.15 395.393L361.98 392.973L373.08 393.903V399.583L373.09 407.963Z" fill="#FF8B7B"/>
<path d="M362.59 404.211H372.18C372.851 404.211 373.494 404.478 373.969 404.953C374.443 405.427 374.71 406.07 374.71 406.741V414.431C374.707 415.101 374.44 415.742 373.965 416.214C373.491 416.686 372.849 416.952 372.18 416.952H344.94C344.608 416.953 344.279 416.889 343.972 416.763C343.666 416.636 343.387 416.451 343.152 416.217C342.916 415.983 342.73 415.705 342.603 415.398C342.475 415.092 342.41 414.763 342.41 414.431V414.431C342.409 413.832 342.62 413.252 343.006 412.795C343.393 412.337 343.929 412.031 344.52 411.931C348.41 411.291 356.65 409.451 360.73 405.031C360.966 404.774 361.254 404.568 361.574 404.426C361.894 404.285 362.24 404.212 362.59 404.211Z" fill="#454D66"/>
<path opacity="0.1" d="M372.84 143.113C371.015 145.526 369.471 148.14 368.24 150.903C364.655 158.816 362.253 167.212 361.11 175.823L372.84 166.323L370.29 158.153L384.56 147.793C384.56 147.793 380.83 144.003 372.84 143.113Z" fill="white"/>
<path opacity="0.1" d="M340.94 169.363C340.94 169.363 346.59 149.213 354.78 143.113C354.78 143.113 345.07 141.763 340.6 144.033L341.6 158.153L337.43 159.463L340.94 169.363Z" fill="white"/>
<path d="M384.76 109.753C386.68 114.563 384.62 119.973 384.81 125.143C384.89 127.503 385.45 129.823 385.51 132.143C385.57 134.463 385.03 137.023 383.3 138.633C381.74 140.103 379.51 140.543 377.41 140.933C374.13 141.523 370.57 142.083 367.63 140.523C366.95 140.163 366.33 139.703 365.63 139.403C364.177 138.907 362.626 138.773 361.11 139.013C359.598 139.257 358.051 139.182 356.57 138.793C351.89 137.163 355.11 130.723 355.91 127.423C357.143 122.37 358.37 117.32 359.59 112.273C364.64 111.273 369.65 109.873 374.71 108.853C376.362 108.382 378.103 108.306 379.79 108.633C381.37 109.113 383.18 110.263 384.76 109.753Z" fill="#454D66"/>
<path d="M384.89 119.692C384.498 121.005 383.655 122.138 382.51 122.891C381.34 123.511 381.16 124.611 381.26 125.891C381.47 128.891 383.1 133.131 377.49 135.531C376.666 135.944 375.741 136.109 374.826 136.008C373.91 135.907 373.044 135.544 372.33 134.962C368.39 131.852 367.14 123.131 367.14 123.131L360 102.542C360.023 102.497 360.054 102.456 360.09 102.421L360.15 102.311C360.174 102.271 360.205 102.233 360.24 102.201C360.493 101.849 360.771 101.515 361.07 101.201C361.293 100.942 361.53 100.695 361.78 100.461C364.39 98.0415 369.78 94.9515 377.51 100.112C386 105.792 386.73 114.782 384.89 119.692Z" fill="#454D66"/>
<path d="M385.3 121.433C385.39 123.823 383.19 125.193 381.3 125.943C380.377 126.291 379.422 126.548 378.45 126.713C376.69 129.643 372.88 131.713 372.88 131.713C372.596 132.799 372.425 133.911 372.37 135.033C372.268 137.746 372.439 140.463 372.88 143.143L370.3 147.143C359.55 152.063 355.72 143.143 355.72 143.143C359.66 142.723 360.92 139.413 361.29 136.633C361.442 135.357 361.442 134.068 361.29 132.793C359.543 132.057 357.997 130.916 356.78 129.464C355.563 128.012 354.709 126.291 354.29 124.443C353.02 119.063 354.06 114.003 356.29 109.033C357.186 107.05 358.261 105.152 359.5 103.363L360 102.553C360.023 102.508 360.054 102.468 360.09 102.433C360.133 102.355 360.183 102.281 360.24 102.213V102.143C360.42 101.913 360.68 101.583 361.02 101.223H361.08L374.57 99.4727L380.43 104.153L382.48 115.753L379.48 119.323L378.23 120.813L377.92 121.173L378.31 120.843C380.69 118.843 383.73 117.843 384.84 119.733C385.127 120.254 385.285 120.837 385.3 121.433V121.433Z" fill="#FF8B7B"/>
<path d="M367.08 112.77C366.91 113.48 366.39 113.97 365.93 113.86C365.47 113.75 365.22 113.08 365.39 112.36C365.56 111.64 366.08 111.16 366.55 111.27C367.02 111.38 367.26 112.05 367.08 112.77Z" fill="#454D66"/>
<path d="M359.4 110.703C359.23 111.423 358.71 111.913 358.24 111.803C357.77 111.693 357.53 111.013 357.7 110.303C357.87 109.593 358.39 109.093 358.86 109.203C359.33 109.313 359.57 110.003 359.4 110.703Z" fill="#454D66"/>
<path d="M366.67 111.32L364.82 110.32C364.82 110.32 365.14 112.21 366.67 111.32Z" fill="#454D66"/>
<path d="M359 109.312L357.15 108.312C357.15 108.312 357.5 110.212 359 109.312Z" fill="#454D66"/>
<path d="M361.28 111.552L359.52 117.882C359.282 117.956 359.032 117.982 358.784 117.958C358.536 117.933 358.296 117.859 358.077 117.74C357.859 117.62 357.667 117.458 357.513 117.262C357.358 117.067 357.245 116.842 357.18 116.602L361.28 111.552Z" fill="#FF5652"/>
<path d="M361.66 122.282C361.66 122.282 366.03 122.932 367.28 119.282" stroke="#454D66" stroke-linecap="round" stroke-linejoin="round"/>
<path d="M367.14 107.812C367.51 107.618 367.916 107.501 368.332 107.47C368.749 107.438 369.167 107.492 369.562 107.627C369.957 107.763 370.32 107.978 370.63 108.259C370.939 108.54 371.187 108.881 371.36 109.262" stroke="#454D66" stroke-linecap="round" stroke-linejoin="round"/>
<path d="M361.05 105.193C360.72 104.973 360.347 104.825 359.956 104.76C359.565 104.695 359.164 104.715 358.781 104.817C358.397 104.919 358.04 105.102 357.733 105.353C357.426 105.604 357.176 105.918 357 106.273" stroke="#454D66" stroke-linecap="round" stroke-linejoin="round"/>
<path d="M383.54 115.91L378.36 120.8H378.28C369.62 118 371.36 102 371.36 102C368.91 103.56 360.23 102.7 360 102.52C360.469 101.827 361.009 101.183 361.61 100.6C361.99 100.23 363.2 100.34 363.7 100.3L366.89 100.05L373.35 99.5304C373.54 99.5304 374.44 99.3004 374.6 99.4304L380.46 104.11L383.54 115.91Z" fill="#454D66"/>
<path opacity="0.2" d="M365.7 133.472C364.57 134.948 363.018 136.047 361.25 136.621C361.402 135.346 361.402 134.057 361.25 132.782C362.689 133.238 364.19 133.47 365.7 133.472Z" fill="black"/>
<path opacity="0.3" d="M344.17 261.98L345.28 233.43L346.38 247.55L344.17 261.98Z" fill="black"/>
<path opacity="0.1" d="M373.08 394.871V399.581H362.44L362.15 395.392L373.08 394.871Z" fill="black"/>
<path d="M356.07 383.44L358.65 397.89H374.47L376.65 382.75L356.07 383.44Z" fill="#58B368"/>
</svg>
