<svg width="500" height="500" viewBox="0 0 500 500" fill="none" xmlns="http://www.w3.org/2000/svg">
<path d="M500 382.398H0V382.648H500V382.398Z" fill="#EBEBEB"/>
<path d="M449.9 398.488H416.78V398.738H449.9V398.488Z" fill="#EBEBEB"/>
<path d="M331.22 401.21H322.53V401.46H331.22V401.21Z" fill="#EBEBEB"/>
<path d="M415.78 389.21H396.59V389.46H415.78V389.21Z" fill="#EBEBEB"/>
<path d="M95.65 390.89H52.46V391.14H95.65V390.89Z" fill="#EBEBEB"/>
<path d="M110.89 390.89H104.56V391.14H110.89V390.89Z" fill="#EBEBEB"/>
<path d="M225.15 395.11H131.47V395.36H225.15V395.11Z" fill="#EBEBEB"/>
<path d="M237 337.8H43.91C42.3973 337.797 40.9475 337.195 39.8788 336.124C38.8102 335.054 38.21 333.603 38.21 332.09V60.66C38.2231 59.156 38.8292 57.718 39.8964 56.6582C40.9637 55.5985 42.4059 55.0026 43.91 55H237C238.514 55 239.967 55.6016 241.038 56.6724C242.108 57.7433 242.71 59.1956 242.71 60.71V332.09C242.71 333.604 242.108 335.057 241.038 336.128C239.967 337.198 238.514 337.8 237 337.8V337.8ZM43.91 55.2C42.4636 55.2026 41.0774 55.7791 40.0556 56.8027C39.0338 57.8264 38.46 59.2136 38.46 60.66V332.09C38.46 333.536 39.0338 334.924 40.0556 335.947C41.0774 336.971 42.4636 337.547 43.91 337.55H237C238.447 337.547 239.834 336.971 240.858 335.948C241.881 334.924 242.457 333.537 242.46 332.09V60.66C242.457 59.2127 241.881 57.8255 240.858 56.8021C239.834 55.7787 238.447 55.2026 237 55.2H43.91Z" fill="#EBEBEB"/>
<path d="M453.31 337.8H260.21C258.696 337.797 257.246 337.195 256.175 336.125C255.105 335.054 254.503 333.604 254.5 332.09V60.66C254.516 59.1551 255.124 57.7171 256.193 56.6576C257.262 55.5981 258.705 55.0025 260.21 55H453.31C454.812 55.0052 456.252 55.6022 457.317 56.6617C458.382 57.7212 458.987 59.1578 459 60.66V332.09C459 333.601 458.401 335.05 457.335 336.121C456.268 337.191 454.821 337.795 453.31 337.8V337.8ZM260.21 55.2C258.763 55.2026 257.375 55.7787 256.352 56.8021C255.329 57.8255 254.753 59.2127 254.75 60.66V332.09C254.753 333.537 255.329 334.924 256.352 335.948C257.375 336.971 258.763 337.547 260.21 337.55H453.31C454.757 337.547 456.145 336.971 457.168 335.948C458.191 334.924 458.767 333.537 458.77 332.09V60.66C458.767 59.2127 458.191 57.8255 457.168 56.8021C456.145 55.7787 454.757 55.2026 453.31 55.2H260.21Z" fill="#EBEBEB"/>
<path d="M386.135 274.596C400.94 259.791 400.94 235.788 386.135 220.983C371.33 206.178 347.327 206.178 332.522 220.983C317.717 235.788 317.717 259.791 332.522 274.596C347.327 289.4 371.33 289.401 386.135 274.596Z" fill="#F0F0F0"/>
<path d="M70.6999 181H174.51C174.51 181 173.01 172.78 153.8 173.25C157.61 161.25 146.86 148.15 122.61 147.65C98.3599 147.15 106.88 166.65 106.88 166.65C106.88 166.65 66.1199 159.65 78.4499 174.17C58.2499 174.94 54.2599 177.52 70.6999 181Z" fill="#F0F0F0"/>
<path d="M340.17 232.412C342.53 220.602 322.35 207.662 285.17 207.162C247.99 206.662 266.64 225.932 266.64 225.932C266.64 225.932 202.43 218.932 225.44 233.342C194.82 234.032 189.44 236.582 215.57 240.062H374C374 240.062 369.34 232.002 340.17 232.412Z" fill="#FAFAFA"/>
<path d="M319.57 143.93H427.13C427.13 143.93 451.13 130.15 422.68 128.37C427.57 116.59 415.56 96.61 373.57 96.15C331.58 95.69 353.35 123.26 353.35 123.26C353.35 123.26 289.35 104.81 311.8 134.15C302 134.15 267.13 143.93 319.57 143.93Z" fill="#F5F5F5"/>
<path d="M94.3101 286.631H142.64C142.64 286.631 153.43 280.441 140.64 279.631C142.84 274.341 137.44 265.361 118.57 265.151C99.7001 264.941 109.49 277.331 109.49 277.331C109.49 277.331 80.7301 269.051 90.8101 282.231C86.4201 282.241 70.7401 286.631 94.3101 286.631Z" fill="#F5F5F5"/>
<path d="M92.13 97.9187C92.13 97.9187 78.49 89.1787 69 101.609C76.79 93.8887 91.6 101.669 91.6 101.669C91.6 101.669 108.6 93.9687 114.2 101.669C108.17 89.2587 92.13 97.9187 92.13 97.9187Z" fill="#F0F0F0"/>
<path d="M165.25 213C165.25 213 157.05 207.74 151.33 215.22C156.03 210.57 164.94 215.22 164.94 215.22C164.94 215.22 175.14 210.58 178.55 215.22C174.91 207.82 165.25 213 165.25 213Z" fill="#F0F0F0"/>
<path d="M314.77 91.14C314.77 91.14 310.67 88.51 307.77 92.25C310.12 89.92 314.58 92.25 314.58 92.25C314.58 92.25 319.68 89.94 321.38 92.25C319.6 88.53 314.77 91.14 314.77 91.14Z" fill="#F5F5F5"/>
<path d="M415.07 180.922C415.07 180.922 410.96 178.292 408.07 182.032C410.41 179.712 414.87 182.032 414.87 182.032C414.87 182.032 419.97 179.712 421.67 182.032C419.89 178.312 415.07 180.922 415.07 180.922Z" fill="#F5F5F5"/>
<path d="M250 427.562C357.083 427.562 443.89 422.494 443.89 416.242C443.89 409.99 357.083 404.922 250 404.922C142.918 404.922 56.1101 409.99 56.1101 416.242C56.1101 422.494 142.918 427.562 250 427.562Z" fill="#F5F5F5"/>
<path d="M184.36 356.769C187.77 376.509 171.85 386.229 156.36 381.329C145.81 377.979 135.36 380.549 128.28 383.929C128.001 384.054 127.687 384.081 127.391 384.005C127.094 383.93 126.832 383.757 126.645 383.515C126.459 383.272 126.36 382.973 126.365 382.667C126.369 382.361 126.477 382.066 126.67 381.829C127.862 380.401 129.134 379.042 130.48 377.759C130.701 377.55 130.844 377.272 130.887 376.971C130.929 376.671 130.868 376.364 130.714 376.103C130.559 375.841 130.32 375.64 130.036 375.532C129.752 375.424 129.439 375.416 129.15 375.509C122.99 377.389 113.91 379.149 105.15 377.089C104.887 377.028 104.647 376.89 104.464 376.692C104.28 376.493 104.16 376.245 104.119 375.978C104.078 375.71 104.118 375.437 104.234 375.193C104.35 374.949 104.537 374.745 104.77 374.609C113.52 369.429 126.87 355.819 139.38 351.399C139.686 351.29 139.943 351.074 140.103 350.791C140.264 350.509 140.316 350.177 140.252 349.859C140.187 349.54 140.01 349.255 139.753 349.057C139.495 348.859 139.175 348.76 138.85 348.779C136.876 348.891 134.912 349.132 132.97 349.499C132.654 349.577 132.32 349.539 132.03 349.391C131.74 349.244 131.513 348.996 131.391 348.694C131.269 348.392 131.261 348.056 131.367 347.748C131.474 347.44 131.688 347.181 131.97 347.019C149.51 336.129 180 331.559 184.36 356.769Z" fill="#58B368"/>
<path opacity="0.7" d="M184.36 356.769C187.77 376.509 171.85 386.229 156.36 381.329C145.81 377.979 135.36 380.549 128.28 383.929C128.001 384.054 127.687 384.081 127.391 384.005C127.094 383.93 126.832 383.757 126.645 383.515C126.459 383.272 126.36 382.973 126.365 382.667C126.369 382.361 126.477 382.066 126.67 381.829C127.862 380.401 129.134 379.042 130.48 377.759C130.701 377.55 130.844 377.272 130.887 376.971C130.929 376.671 130.868 376.364 130.714 376.103C130.559 375.841 130.32 375.64 130.036 375.532C129.752 375.424 129.439 375.416 129.15 375.509C122.99 377.389 113.91 379.149 105.15 377.089C104.887 377.028 104.647 376.89 104.464 376.692C104.28 376.493 104.16 376.245 104.119 375.978C104.078 375.71 104.118 375.437 104.234 375.193C104.35 374.949 104.537 374.745 104.77 374.609C113.52 369.429 126.87 355.819 139.38 351.399C139.686 351.29 139.943 351.074 140.103 350.791C140.264 350.509 140.316 350.177 140.252 349.859C140.187 349.54 140.01 349.255 139.753 349.057C139.495 348.859 139.175 348.76 138.85 348.779C136.876 348.891 134.912 349.132 132.97 349.499C132.654 349.577 132.32 349.539 132.03 349.391C131.74 349.244 131.513 348.996 131.391 348.694C131.269 348.392 131.261 348.056 131.367 347.748C131.474 347.44 131.688 347.181 131.97 347.019C149.51 336.129 180 331.559 184.36 356.769Z" fill="white"/>
<path d="M162.84 385.579L156.14 333.999C156.106 333.721 156.133 333.44 156.22 333.175C156.306 332.909 156.45 332.666 156.64 332.462C156.831 332.258 157.064 332.098 157.323 331.994C157.582 331.89 157.861 331.843 158.14 331.859L190.64 334.179C191.077 334.21 191.49 334.391 191.809 334.692C192.128 334.992 192.333 335.394 192.39 335.829L197.39 374.619C197.435 375.048 197.334 375.48 197.101 375.843C196.868 376.207 196.519 376.48 196.11 376.619L165.28 387.149C165.016 387.229 164.737 387.252 164.464 387.214C164.19 387.176 163.928 387.079 163.696 386.93C163.464 386.78 163.267 386.582 163.119 386.349C162.971 386.115 162.876 385.853 162.84 385.579V385.579Z" fill="black"/>
<path d="M156.37 375.898L152.37 344.958C152.336 344.693 152.359 344.424 152.436 344.168C152.513 343.913 152.643 343.677 152.817 343.475C152.992 343.273 153.207 343.11 153.449 342.997C153.69 342.883 153.953 342.822 154.22 342.818L191.54 342.118C192.008 342.109 192.463 342.274 192.818 342.58C193.172 342.886 193.401 343.313 193.46 343.778L196.46 366.568C196.518 367.032 196.403 367.501 196.137 367.886C195.872 368.272 195.474 368.546 195.02 368.658L158.76 377.498C158.497 377.568 158.222 377.582 157.953 377.537C157.684 377.493 157.428 377.392 157.202 377.24C156.975 377.089 156.784 376.89 156.641 376.659C156.497 376.427 156.405 376.168 156.37 375.898V375.898Z" fill="#454D66"/>
<path d="M319.085 370.36L299.587 373.57L299.753 374.577L319.251 371.366L319.085 370.36Z" fill="#58B368"/>
<path d="M294.517 374.408L288.784 375.352L288.95 376.358L294.683 375.415L294.517 374.408Z" fill="#58B368"/>
<path d="M376.83 331.589C376.83 331.589 349.94 306.399 311.42 311.389L190.09 322.859C187.865 323.068 185.706 323.724 183.74 324.786C181.774 325.849 180.042 327.296 178.648 329.042C177.254 330.788 176.225 332.797 175.624 334.949C175.023 337.102 174.862 339.353 175.15 341.569L179.27 373.369C179.557 375.585 180.287 377.72 181.417 379.648C182.548 381.576 184.055 383.256 185.848 384.589C187.642 385.922 189.686 386.879 191.858 387.405C194.03 387.931 196.285 388.014 198.49 387.649L318.74 367.799C357.25 362.809 376.83 331.589 376.83 331.589Z" fill="#58B368"/>
<path d="M312.535 343.535C313.044 332.136 304.217 322.483 292.818 321.973C281.419 321.463 271.766 330.291 271.256 341.69C270.746 353.088 279.574 362.742 290.973 363.252C302.371 363.761 312.025 354.934 312.535 343.535Z" fill="white"/>
<path opacity="0.3" d="M305.8 343.72C305.537 346.907 304.192 349.908 301.987 352.224C299.782 354.54 296.85 356.032 293.68 356.45C293.48 356.45 293.27 356.5 293.06 356.51C292.175 356.596 291.285 356.596 290.4 356.51C290.09 356.51 289.77 356.44 289.47 356.39L288.8 356.26C286.015 355.621 283.492 354.145 281.571 352.03C279.649 349.916 278.42 347.264 278.05 344.43C277.969 343.767 277.932 343.099 277.94 342.43C278.117 338.984 279.56 335.725 281.993 333.278C284.426 330.831 287.677 329.368 291.122 329.171C294.567 328.974 297.963 330.056 300.659 332.21C303.355 334.364 305.161 337.437 305.73 340.84C305.856 341.795 305.879 342.761 305.8 343.72V343.72Z" fill="#58B368"/>
<path opacity="0.3" d="M305.8 343.72C305.537 346.907 304.192 349.908 301.987 352.224C299.782 354.54 296.85 356.031 293.68 356.45C293.48 356.45 293.27 356.5 293.06 356.51C292.175 356.59 291.285 356.59 290.4 356.51C290.09 356.51 289.77 356.44 289.47 356.39L288.8 356.26C286.015 355.621 283.492 354.144 281.571 352.03C279.649 349.915 278.42 347.263 278.05 344.43C277.969 343.766 277.932 343.098 277.94 342.43C278.261 339.355 279.638 336.487 281.837 334.315C284.037 332.143 286.922 330.802 290 330.52C297.65 329.61 304.66 334.68 305.68 341.84C305.764 342.463 305.804 343.091 305.8 343.72V343.72Z" fill="#58B368"/>
<path d="M262.87 311.38L269.12 310.76L270 296.48L263.75 297.1L262.87 311.38Z" fill="#CF7A64"/>
<path d="M226.99 315.093L233.14 314.483L234.45 299.953L228.3 300.563L226.99 315.093Z" fill="#CF7A64"/>
<path d="M233.49 313.1L226.57 313.79C226.45 313.803 226.338 313.857 226.252 313.943C226.167 314.028 226.113 314.14 226.1 314.26L225.57 319.84C225.559 319.974 225.578 320.109 225.625 320.235C225.671 320.361 225.744 320.476 225.84 320.571C225.935 320.666 226.049 320.739 226.175 320.786C226.301 320.832 226.436 320.851 226.57 320.84C228.98 320.56 230.13 320.3 233.17 320C235.04 319.81 237.55 319.64 240.17 319.38C242.79 319.12 242.78 316.54 241.69 316.38C236.82 315.82 236.22 314.54 234.53 313.33C234.222 313.132 233.853 313.05 233.49 313.1V313.1Z" fill="#454D66"/>
<path d="M269.3 309.472L262.58 310.152C262.458 310.161 262.344 310.214 262.258 310.3C262.172 310.386 262.119 310.5 262.11 310.622L261.58 316.202C261.568 316.336 261.585 316.472 261.631 316.599C261.677 316.726 261.75 316.841 261.846 316.936C261.941 317.032 262.056 317.105 262.183 317.151C262.31 317.197 262.446 317.214 262.58 317.202C265 316.922 268.48 316.422 271.53 316.122C275.1 315.762 275.12 315.952 279.3 315.532C281.82 315.272 282.2 312.652 281.12 312.532C276.17 311.962 275.31 311.942 270.82 309.802C270.351 309.56 269.827 309.446 269.3 309.472V309.472Z" fill="#454D66"/>
<path d="M245.33 110.94C246.89 111.08 248.65 111.25 250.33 111.33C252.01 111.41 253.69 111.47 255.33 111.47C256.911 111.466 258.49 111.373 260.06 111.19C261.306 111.061 262.526 110.747 263.68 110.26L261.84 113.08C261.84 113.41 261.91 113.41 261.84 113.21C261.755 112.903 261.635 112.608 261.48 112.33C261.011 111.477 260.459 110.673 259.83 109.93C258.39 108.205 256.844 106.572 255.2 105.04C253.52 103.43 251.75 101.87 249.96 100.32C248.17 98.77 246.31 97.23 244.51 95.74L246.91 92C249.14 93.14 251.24 94.38 253.36 95.67C255.48 96.96 257.52 98.36 259.54 99.86C261.626 101.377 263.595 103.048 265.43 104.86C266.449 105.889 267.369 107.01 268.18 108.21C268.678 108.949 269.088 109.745 269.4 110.58C269.853 111.75 270.01 113.014 269.86 114.26L269.64 116.02L268 117.11C266.025 118.367 263.824 119.226 261.52 119.64C259.543 120.045 257.537 120.293 255.52 120.38C253.58 120.49 251.67 120.47 249.78 120.38C247.89 120.29 246.06 120.15 244.06 119.85L245.33 110.94Z" fill="#CE7A63"/>
<path d="M249 94.0006L245.32 89.3906L242.56 96.0006C242.56 96.0006 245.9 99.9306 249.44 98.0006L249 94.0006Z" fill="#CF7A64"/>
<path d="M240.44 86.9719L239.82 94.4719L242.56 95.9519L245.31 89.3719L240.44 86.9719Z" fill="#CF7A64"/>
<path d="M235.93 87.9319L241.53 85.6119C241.621 85.5646 241.721 85.5375 241.823 85.5324C241.925 85.5273 242.027 85.5443 242.122 85.5823C242.217 85.6203 242.303 85.6783 242.373 85.7525C242.444 85.8266 242.497 85.9151 242.53 86.0119L246.14 97.5219C246.184 97.7243 246.154 97.9355 246.057 98.1184C245.96 98.3013 245.802 98.4442 245.61 98.5219L240.01 100.842C239.919 100.889 239.82 100.916 239.718 100.921C239.615 100.927 239.513 100.909 239.418 100.872C239.323 100.834 239.238 100.775 239.167 100.701C239.097 100.627 239.043 100.539 239.01 100.442L235.4 89.0019C235.338 88.7896 235.358 88.5616 235.456 88.3633C235.554 88.165 235.723 88.011 235.93 87.9319V87.9319Z" fill="#454D66"/>
<path d="M239.23 121.922C243.3 126.842 259.98 122.232 259.98 122.232L258.57 111.002C258.57 111.002 254.36 109.742 246.01 109.482C237.45 109.172 234.77 116.532 239.23 121.922Z" fill="#58B368"/>
<path opacity="0.2" d="M270 296.492L269.54 303.852L263.3 304.472L263.75 297.112L270 296.492Z" fill="black"/>
<path opacity="0.2" d="M228.29 300.573L234.45 299.953L233.77 307.443L227.62 308.063L228.29 300.573Z" fill="black"/>
<path d="M252.05 112.571C254.47 118.851 260.41 137.571 258.34 165.831L225.42 169.141C224.56 164.141 224.42 136.651 216.54 113.381C220.1 112.319 223.724 111.487 227.39 110.891C232.026 110.151 236.7 109.68 241.39 109.481C243.786 109.477 246.18 109.614 248.56 109.891C249.331 109.975 250.065 110.27 250.68 110.742C251.295 111.215 251.769 111.847 252.05 112.571V112.571Z" fill="#58B368"/>
<path opacity="0.2" d="M239.4 117.7L238.11 117.87C238.24 128.87 238.4 131.87 228.47 142.15C226.677 143.975 225.051 145.956 223.61 148.07C223.74 149.37 223.87 150.63 223.99 151.85C226.56 149.5 229.99 146.42 232.55 144.28C244.1 134.64 239.73 117.56 239.4 117.7Z" fill="black"/>
<path opacity="0.2" d="M224.43 118.532C225.43 122.382 225.43 131.862 223.03 143.042C221.923 133.779 220.005 124.63 217.3 115.702V115.702C219.43 115.212 223.45 114.922 224.43 118.532Z" fill="black"/>
<path d="M227.58 97.6519C229.03 102.052 230.17 107.572 227.39 110.892C227.39 110.892 229.77 115.262 238.14 114.422C245.78 113.652 241.39 109.482 241.39 109.482C236.21 108.792 235.7 102.572 236.14 98.9919L227.58 97.6519Z" fill="#CF7A64"/>
<path d="M238.5 114.002L240.5 115.822C240.57 115.885 240.622 115.965 240.652 116.055C240.681 116.144 240.688 116.239 240.67 116.332L240.26 118.162C240.24 118.263 240.188 118.355 240.113 118.425C240.038 118.495 239.942 118.539 239.84 118.552L237.89 118.842C237.8 118.856 237.708 118.847 237.622 118.815C237.536 118.784 237.46 118.731 237.4 118.662L236.06 117.062C235.988 116.969 235.949 116.855 235.949 116.737C235.949 116.619 235.988 116.505 236.06 116.412L237.73 114.072C237.775 114.015 237.83 113.967 237.894 113.933C237.958 113.898 238.028 113.877 238.1 113.87C238.172 113.864 238.245 113.872 238.314 113.895C238.382 113.917 238.446 113.954 238.5 114.002V114.002Z" fill="#454D66"/>
<path d="M237.88 113.942C237.041 116.126 235.936 118.198 234.59 120.112C234.59 120.112 226.46 116.412 225.97 111.112C225.961 111.015 225.977 110.918 226.015 110.829C226.053 110.74 226.114 110.662 226.19 110.602C226.5 110.362 227.06 109.922 227.59 109.482C227.652 109.426 227.725 109.384 227.805 109.36C227.884 109.336 227.969 109.33 228.051 109.342C228.133 109.355 228.212 109.385 228.281 109.432C228.35 109.479 228.408 109.54 228.45 109.612C229.1 110.762 231.2 113.002 237.88 113.942Z" fill="white"/>
<path d="M238.17 113.88C239.869 115.163 241.288 116.78 242.34 118.63C243.117 117.276 243.584 115.767 243.708 114.211C243.833 112.655 243.612 111.091 243.06 109.63C243.025 109.544 242.971 109.467 242.901 109.405C242.832 109.342 242.75 109.297 242.66 109.27C242.31 109.18 241.66 109.02 240.99 108.89C240.902 108.876 240.811 108.882 240.725 108.909C240.639 108.935 240.561 108.981 240.496 109.043C240.431 109.105 240.381 109.182 240.351 109.266C240.32 109.351 240.31 109.441 240.32 109.53C240.488 110.391 240.369 111.283 239.98 112.069C239.592 112.855 238.956 113.491 238.17 113.88V113.88Z" fill="white"/>
<path d="M239.34 117.634C239.66 117.494 242.9 132.794 231.72 142.084C227.16 145.874 219.83 152.644 219.84 152.634C220.52 149.944 222.66 145.794 228.03 140.354C237.74 130.524 237.73 127.854 238.13 117.854L239.34 117.634Z" fill="#454D66"/>
<path opacity="0.2" d="M236.14 99.0019C235.783 101.504 236.129 104.056 237.14 106.372C236.345 106.335 235.56 106.18 234.81 105.912C231.81 104.912 230.16 102.912 228.31 99.9119C228.1 99.1219 227.87 98.3619 227.63 97.6219L236.14 99.0019Z" fill="black"/>
<path d="M232.77 84.0019C233.96 74.5919 240.88 84.5519 238.96 89.2319C237.78 92.0919 232.48 86.2719 232.77 84.0019Z" fill="#454D66"/>
<path d="M223.25 92.5437C225.62 98.2637 226.72 101.734 230.68 103.774C236.63 106.864 242.84 101.864 242.2 95.5837C241.63 89.9337 237.85 81.5237 231.39 81.0437C229.972 80.926 228.548 81.1801 227.259 81.7809C225.969 82.3818 224.859 83.3085 224.037 84.4697C223.215 85.6309 222.71 86.9863 222.572 88.4023C222.434 89.8182 222.668 91.2456 223.25 92.5437Z" fill="#CF7A64"/>
<path d="M225.92 98.0719C226.675 97.9396 227.376 97.5931 227.94 97.0736C228.504 96.5542 228.907 95.8837 229.1 95.1419C227.394 94.4568 225.915 93.3065 224.83 91.8219C224.83 91.8219 227.37 88.1719 227.1 86.0619C230.36 86.0619 238 82.9119 236.27 79.4319C234.54 75.9519 227.68 74.2219 223.68 76.6819C221.159 78.4002 218.171 79.3042 215.12 79.2719C216.029 79.811 217.018 80.2025 218.05 80.4319C216.924 81.5331 216.042 82.859 215.461 84.3234C214.88 85.7878 214.614 87.358 214.68 88.9319C214.87 93.4019 212.44 95.2019 212.44 95.2019C212.44 95.2019 215.44 95.6519 216.36 94.3319C215.95 95.7919 218.42 100.912 223.85 101.622C229.93 102.412 225.92 98.0719 225.92 98.0719Z" fill="#454D66"/>
<path d="M223.43 100.812C225.68 101.812 227.43 102.152 228.59 101.472C229.75 100.792 229.42 98.4719 227.94 97.1419C226.61 95.9719 223.99 94.8619 222.47 96.1419C220.95 97.4219 221.11 99.7519 223.43 100.812Z" fill="#CF7A64"/>
<path d="M258.34 165.832C258.34 165.832 272.5 212.392 273.5 230.002C274.6 249.272 271.82 300.482 271.82 300.482L260.69 301.612C260.69 301.612 258.61 252.852 255.79 233.992C252.73 213.522 237.36 167.992 237.36 167.992L258.34 165.832Z" fill="#454D66"/>
<path opacity="0.2" d="M248.59 187.782L246.84 198.002C249.29 206.272 251.74 215.082 253.53 222.732C254.065 210.876 252.39 199.025 248.59 187.782V187.782Z" fill="black"/>
<path d="M259.77 298.833L260.13 302.943L272.58 301.693L272.94 297.043L259.77 298.833Z" fill="#58B368"/>
<path d="M246.66 167C246.66 167 251.27 208.63 249.66 226.6C247.87 246.27 236.48 305.11 236.48 305.11L225.21 306.24C225.21 306.24 231.41 249.5 231.41 230.24C231.41 209.29 225.41 169.18 225.41 169.18L246.66 167Z" fill="#454D66"/>
<path d="M224.82 302.642L224.66 306.512L237.05 305.262L238.31 300.882L224.82 302.642Z" fill="#58B368"/>
<path d="M232.58 91.3219C232.74 91.8019 233.13 92.1019 233.43 92.0019C233.73 91.9019 233.86 91.4319 233.69 91.0019C233.52 90.5719 233.15 90.2219 232.84 90.3219C232.53 90.4219 232.41 90.8419 232.58 91.3219Z" fill="#454D66"/>
<path d="M237.9 89.5919C238.06 90.0719 238.45 90.3719 238.75 90.2719C239.05 90.1719 239.18 89.7019 239.01 89.2719C238.84 88.8419 238.47 88.4919 238.16 88.5919C237.85 88.6919 237.74 89.1219 237.9 89.5919Z" fill="#454D66"/>
<path d="M236.29 90.3819C237.354 91.6489 238.581 92.7687 239.94 93.7119C239.699 94.0498 239.385 94.3294 239.022 94.5301C238.658 94.7308 238.254 94.8476 237.84 94.8719L236.29 90.3819Z" fill="#BA4D3C"/>
<path d="M236.66 96.8219C236.695 96.8065 236.723 96.7782 236.738 96.7428C236.753 96.7075 236.753 96.6678 236.74 96.6319C236.725 96.5965 236.697 96.5679 236.662 96.5513C236.627 96.5348 236.587 96.5314 236.55 96.5419C235.969 96.7609 235.344 96.8415 234.726 96.7773C234.108 96.7131 233.514 96.5058 232.99 96.1719C232.962 96.1444 232.924 96.129 232.885 96.129C232.846 96.129 232.808 96.1444 232.78 96.1719C232.755 96.201 232.741 96.2383 232.741 96.2769C232.741 96.3155 232.755 96.3528 232.78 96.3819C233.343 96.7639 233.99 97.0036 234.666 97.0802C235.342 97.1569 236.026 97.0682 236.66 96.8219V96.8219Z" fill="#454D66"/>
<path d="M230.38 90.1119C230.422 90.0976 230.46 90.0739 230.491 90.0427C230.522 90.0115 230.546 89.9736 230.56 89.9319C230.66 89.5823 230.843 89.2621 231.093 88.999C231.344 88.7359 231.656 88.5379 232 88.4219C232.038 88.4128 232.073 88.396 232.104 88.3726C232.135 88.3491 232.16 88.3196 232.179 88.2857C232.198 88.2519 232.209 88.2146 232.213 88.176C232.217 88.1375 232.212 88.0987 232.2 88.0619C232.179 87.9871 232.13 87.9234 232.062 87.8842C231.995 87.845 231.916 87.8334 231.84 87.8519C231.403 87.9914 231.007 88.2356 230.686 88.5633C230.366 88.891 230.13 89.2922 230 89.7319C229.982 89.7849 229.98 89.8417 229.992 89.8961C230.005 89.9505 230.033 90.0002 230.072 90.0397C230.112 90.0792 230.161 90.1069 230.216 90.1196C230.27 90.1324 230.327 90.1297 230.38 90.1119V90.1119Z" fill="#454D66"/>
<path d="M239.63 86.9119C239.673 86.8947 239.71 86.8672 239.74 86.8319C239.792 86.7763 239.821 86.703 239.821 86.6269C239.821 86.5508 239.792 86.4775 239.74 86.4219C239.4 86.1014 238.989 85.8649 238.541 85.7312C238.093 85.5975 237.62 85.5704 237.16 85.6519C237.123 85.6623 237.089 85.6798 237.059 85.7036C237.029 85.7273 237.004 85.7568 236.985 85.7902C236.966 85.8237 236.955 85.8605 236.95 85.8986C236.946 85.9366 236.949 85.9751 236.96 86.0119C236.969 86.0497 236.986 86.0852 237.009 86.1163C237.033 86.1475 237.062 86.1736 237.095 86.1932C237.129 86.2128 237.166 86.2254 237.205 86.2304C237.243 86.2353 237.283 86.2324 237.32 86.2219V86.2219C237.679 86.1665 238.047 86.1944 238.393 86.3037C238.74 86.4129 239.057 86.6005 239.32 86.8519C239.361 86.8897 239.412 86.9154 239.466 86.926C239.521 86.9366 239.578 86.9317 239.63 86.9119V86.9119Z" fill="#454D66"/>
<path d="M212.62 123.532L221 126.922C221 126.922 214.1 147.442 215.59 150.222C217.59 154.002 223 160.032 226.21 164.042C225.916 165.552 225.226 166.956 224.21 168.112C217.47 164.912 206.85 154.862 206.3 151.012C205.09 142.232 212.62 123.532 212.62 123.532Z" fill="#CF7A64"/>
<path d="M216.54 113.384C209.69 115.604 208.73 130.834 208.73 130.834L219.33 136.274C222.377 132.646 224.565 128.376 225.73 123.784C227.58 116.054 222.56 111.434 216.54 113.384Z" fill="#58B368"/>
<path d="M235.66 314.002C236.079 313.996 236.482 313.844 236.8 313.572C236.9 313.467 236.971 313.339 237.008 313.199C237.044 313.059 237.045 312.912 237.01 312.772C236.998 312.688 236.964 312.608 236.912 312.541C236.859 312.475 236.789 312.423 236.71 312.392C235.99 312.112 234.15 313.522 233.94 313.682C233.926 313.706 233.919 313.734 233.919 313.762C233.919 313.79 233.926 313.818 233.94 313.842C233.947 313.869 233.962 313.894 233.983 313.912C234.005 313.93 234.032 313.94 234.06 313.942C234.589 314.026 235.126 314.046 235.66 314.002V314.002ZM236.41 312.642C236.476 312.626 236.544 312.626 236.61 312.642C236.641 312.656 236.668 312.679 236.687 312.707C236.706 312.735 236.718 312.768 236.72 312.802C236.745 312.897 236.747 312.997 236.724 313.093C236.701 313.189 236.655 313.278 236.59 313.352C235.934 313.732 235.159 313.85 234.42 313.682C235.006 313.195 235.682 312.828 236.41 312.602V312.642Z" fill="#58B368"/>
<path d="M234.05 313.913C234.05 313.913 234.05 313.913 234.12 313.913C234.72 313.503 235.78 312.033 235.56 311.363C235.525 311.259 235.455 311.17 235.362 311.11C235.27 311.05 235.16 311.023 235.05 311.033C234.938 311.03 234.826 311.05 234.723 311.093C234.619 311.136 234.526 311.201 234.45 311.283C233.81 311.933 233.89 313.723 233.89 313.793C233.888 313.821 233.895 313.848 233.909 313.871C233.923 313.895 233.945 313.913 233.97 313.923L234.05 313.913ZM234.98 311.293H235.05C235.24 311.293 235.27 311.383 235.28 311.413C235.41 311.813 234.75 312.913 234.18 313.413C234.133 312.712 234.305 312.014 234.67 311.413C234.762 311.334 234.879 311.291 235 311.293H234.98Z" fill="#58B368"/>
<path d="M272 310.293C272.528 310.292 273.037 310.104 273.44 309.763C273.532 309.668 273.597 309.551 273.631 309.423C273.664 309.295 273.664 309.161 273.63 309.033C273.615 308.953 273.581 308.877 273.53 308.813C273.48 308.748 273.415 308.697 273.34 308.663C272.54 308.323 270.22 309.823 269.96 309.993C269.937 310.012 269.919 310.037 269.909 310.065C269.898 310.093 269.895 310.124 269.9 310.153C269.908 310.183 269.925 310.209 269.948 310.229C269.971 310.248 270 310.26 270.03 310.263C270.684 310.334 271.344 310.345 272 310.293ZM272.95 308.903C273.042 308.881 273.138 308.881 273.23 308.903C273.26 308.916 273.287 308.937 273.306 308.963C273.325 308.989 273.337 309.021 273.34 309.053C273.362 309.137 273.363 309.225 273.342 309.309C273.321 309.393 273.279 309.47 273.22 309.533C272.89 309.913 271.88 310.063 270.49 309.983C271.259 309.482 272.108 309.117 273 308.903H272.95Z" fill="#58B368"/>
<path d="M270.06 310.262H270.12C270.82 309.862 272.12 308.382 271.93 307.702C271.88 307.542 271.74 307.352 271.33 307.352C271.185 307.348 271.042 307.375 270.909 307.432C270.776 307.489 270.657 307.575 270.56 307.682C270.078 308.408 269.846 309.272 269.9 310.142C269.9 310.166 269.907 310.19 269.919 310.211C269.931 310.232 269.949 310.25 269.97 310.262C269.984 310.269 269.999 310.273 270.015 310.273C270.031 310.273 270.046 310.269 270.06 310.262ZM271.25 307.622H271.34C271.61 307.622 271.64 307.722 271.65 307.752C271.77 308.162 270.9 309.312 270.19 309.842C270.17 309.131 270.373 308.432 270.77 307.842C270.9 307.716 271.07 307.638 271.25 307.622V307.622Z" fill="#58B368"/>
<path d="M224.7 163.184L230.59 163.384L227 169.524C227 169.524 221.85 169.174 221.33 165.154L224.7 163.184Z" fill="#CF7A64"/>
<path d="M233.35 165.432L229.78 170.832L226.95 169.522L230.59 163.382L233.35 165.432Z" fill="#CF7A64"/>
</svg>
