<svg width="342" height="220" viewBox="0 0 342 220" fill="none" xmlns="http://www.w3.org/2000/svg">
<path d="M162.902 166.799H49.0891C48.1975 166.797 47.3429 166.442 46.713 165.81C46.0831 165.179 45.7293 164.323 45.7293 163.431V3.33834C45.7371 2.45127 46.0943 1.6031 46.7233 0.978038C47.3524 0.352978 48.2025 0.00151959 49.0891 0H162.902C163.795 0 164.651 0.354824 165.282 0.986414C165.913 1.618 166.268 2.47462 166.268 3.36783V163.431C166.268 164.324 165.913 165.181 165.282 165.813C164.651 166.444 163.795 166.799 162.902 166.799ZM49.0891 0.117963C48.2365 0.119525 47.4195 0.459502 46.8172 1.06327C46.2149 1.66704 45.8767 2.48526 45.8767 3.33834V163.431C45.8767 164.284 46.2149 165.102 46.8172 165.706C47.4195 166.31 48.2365 166.65 49.0891 166.651H162.902C163.755 166.65 164.573 166.31 165.176 165.707C165.779 165.103 166.119 164.285 166.12 163.431V3.33834C166.119 2.48472 165.779 1.66651 165.176 1.06291C164.573 0.459311 163.755 0.119522 162.902 0.117963H49.0891Z" fill="#EAEAEA"/>
<path d="M290.401 166.799H176.583C175.69 166.797 174.835 166.442 174.204 165.811C173.574 165.18 173.219 164.324 173.217 163.431V3.33834C173.226 2.45074 173.585 1.60257 174.215 0.977669C174.845 0.352772 175.696 0.00150301 176.583 0H290.401C291.287 0.00306968 292.136 0.355214 292.763 0.980108C293.391 1.605 293.748 2.45229 293.755 3.33834V163.431C293.755 164.322 293.402 165.177 292.774 165.808C292.145 166.44 291.292 166.796 290.401 166.799ZM176.583 0.117963C175.73 0.119522 174.912 0.459311 174.309 1.06291C173.705 1.66651 173.366 2.48472 173.364 3.33834V163.431C173.366 164.285 173.705 165.103 174.309 165.707C174.912 166.31 175.73 166.65 176.583 166.651H290.401C291.255 166.65 292.072 166.31 292.675 165.707C293.279 165.103 293.618 164.285 293.62 163.431V3.33834C293.618 2.48472 293.279 1.66651 292.675 1.06291C292.072 0.459311 291.255 0.119522 290.401 0.117963H176.583Z" fill="#EAEAEA"/>
<path d="M288.391 202.598H268.869V202.745H288.391V202.598Z" fill="#EAEAEA"/>
<path d="M218.438 204.198H213.316V204.346H218.438V204.198Z" fill="#EAEAEA"/>
<path d="M268.28 197.121H256.969V197.269H268.28V197.121Z" fill="#EAEAEA"/>
<path d="M79.5856 198.109H54.1281V198.257H79.5856V198.109Z" fill="#EAEAEA"/>
<path d="M88.5691 198.109H84.838V198.257H88.5691V198.109Z" fill="#EAEAEA"/>
<path d="M155.917 200.602H100.7V200.749H155.917V200.602Z" fill="#EAEAEA"/>
<path d="M317.922 193.105H23.2072V193.253H317.922V193.105Z" fill="#EAEAEA"/>
<path d="M114.533 23.6855H45.2048V126.195H114.533V23.6855Z" fill="#E0E0E0"/>
<path d="M117.085 23.6855H47.7562V126.195H117.085V23.6855Z" fill="#F0F0F0"/>
<path d="M113.578 77.8789H51.1284V120.192H113.578V77.8789Z" fill="#EAEAEA"/>
<path d="M113.578 27.8535H51.1282V77.8814H113.578V27.8535Z" fill="white"/>
<path d="M113.579 27.8535H111.38V120.195H113.579V27.8535Z" fill="#E0E0E0"/>
<path d="M50.9338 77.8838V80.1133H111.616V77.8838H50.9338Z" fill="#E0E0E0"/>
<path d="M113.579 74.1309H49.9498V77.8762H113.579V74.1309Z" fill="#F0F0F0"/>
<path d="M281.478 145.406H196.977C190.574 145.406 185.383 150.6 185.383 157.008V182.175C185.383 188.583 190.574 193.777 196.977 193.777H281.478C287.881 193.777 293.072 188.583 293.072 182.175V157.008C293.072 150.6 287.881 145.406 281.478 145.406Z" fill="#E0E0E0"/>
<path d="M275.801 145.761H191.301C184.897 145.761 179.707 150.955 179.707 157.362V182.53C179.707 188.937 184.897 194.131 191.301 194.131H275.801C282.205 194.131 287.395 188.937 287.395 182.53V157.362C287.395 150.955 282.205 145.761 275.801 145.761Z" fill="#F5F5F5"/>
<path d="M193.375 150.325H274.363C275.427 150.325 276.48 150.535 277.462 150.942C278.445 151.349 279.338 151.946 280.09 152.699C280.842 153.451 281.438 154.345 281.845 155.328C282.252 156.311 282.462 157.365 282.462 158.429V168.373H185.3V158.423C185.302 156.279 186.152 154.223 187.666 152.705C189.18 151.187 191.233 150.331 193.375 150.325Z" fill="#E0E0E0"/>
<path d="M185.301 170.811H282.462V180.755C282.462 182.904 281.609 184.965 280.09 186.485C278.571 188.005 276.511 188.859 274.363 188.859H193.376C191.232 188.853 189.178 187.996 187.664 186.477C186.151 184.958 185.301 182.9 185.301 180.755V170.811Z" fill="#E0E0E0"/>
<path d="M256.321 153.817H238.526V168.486H256.321V153.817Z" fill="#E6E6E6"/>
<path d="M238.525 153.817H233.969V168.486H238.525V153.817Z" fill="#F5F5F5"/>
<path d="M237.759 164.555C237.759 164.851 237.671 165.141 237.507 165.387C237.342 165.633 237.108 165.825 236.835 165.939C236.561 166.052 236.26 166.082 235.97 166.024C235.679 165.966 235.413 165.824 235.203 165.614C234.994 165.405 234.851 165.138 234.794 164.847C234.736 164.556 234.765 164.255 234.879 163.981C234.992 163.708 235.184 163.474 235.43 163.309C235.676 163.145 235.966 163.057 236.262 163.057C236.659 163.057 237.04 163.214 237.321 163.495C237.601 163.776 237.759 164.157 237.759 164.555Z" fill="#E0E0E0"/>
<path d="M260.989 151.551H247.621V168.484H260.989V151.551Z" fill="#E6E6E6"/>
<path d="M247.626 151.551H243.76V168.484H247.626V151.551Z" fill="#F5F5F5"/>
<path d="M245.693 155.337C246.426 155.337 247.019 154.743 247.019 154.01C247.019 153.277 246.426 152.683 245.693 152.683C244.961 152.683 244.367 153.277 244.367 154.01C244.367 154.743 244.961 155.337 245.693 155.337Z" fill="#E0E0E0"/>
<path d="M245.693 155.337C246.426 155.337 247.019 154.743 247.019 154.01C247.019 153.277 246.426 152.683 245.693 152.683C244.961 152.683 244.367 153.277 244.367 154.01C244.367 154.743 244.961 155.337 245.693 155.337Z" fill="#E0E0E0"/>
<path d="M262.828 153.817H251.558V168.486H262.828V153.817Z" fill="#EAEAEA"/>
<path d="M251.558 153.817H248.982V168.486H251.558V153.817Z" fill="#F5F5F5"/>
<path d="M275.566 156.301H260.783V168.492H275.566V156.301Z" fill="#E6E6E6"/>
<path d="M260.783 156.301H256.999V168.492H260.783V156.301Z" fill="#F5F5F5"/>
<path d="M279.438 154.42H268.333V168.487H279.438V154.42Z" fill="#E6E6E6"/>
<path d="M268.345 154.42H265.132V168.487H268.345V154.42Z" fill="#F5F5F5"/>
<path d="M282.397 156.301H271.61V168.492H282.397V156.301Z" fill="#E6E6E6"/>
<path d="M271.605 156.301H269.465V168.492H271.605V156.301Z" fill="#F0F0F0"/>
<path d="M213.787 173.632H200.013V188.3H213.787V173.632Z" fill="#E6E6E6"/>
<path d="M200.018 173.632H196.488V188.3H200.018V173.632Z" fill="#F5F5F5"/>
<path d="M217.394 171.364H207.05V188.298H217.394V171.364Z" fill="#E6E6E6"/>
<path d="M207.056 171.364H204.068V188.298H207.056V171.364Z" fill="#F5F5F5"/>
<path d="M260.777 173.632H247.002V188.3H260.777V173.632Z" fill="#E6E6E6"/>
<path d="M247.008 173.632H243.477V188.3H247.008V173.632Z" fill="#F5F5F5"/>
<path d="M264.384 171.364H254.039V188.298H264.384V171.364Z" fill="#E6E6E6"/>
<path d="M254.052 171.364H251.057V188.298H254.052V171.364Z" fill="#F5F5F5"/>
<path d="M218.827 173.632H210.104V188.3H218.827V173.632Z" fill="#EAEAEA"/>
<path d="M210.104 173.632H208.112V188.3H210.104V173.632Z" fill="#F5F5F5"/>
<path d="M228.682 176.109H217.241V188.301H228.682V176.109Z" fill="#E6E6E6"/>
<path d="M217.241 176.109H214.312V188.301H217.241V176.109Z" fill="#F5F5F5"/>
<path d="M231.682 174.229H223.088V188.296H231.682V174.229Z" fill="#E6E6E6"/>
<path d="M223.094 174.229H220.606V188.296H223.094V174.229Z" fill="#F5F5F5"/>
<path d="M233.975 176.109H225.623V188.301H233.975V176.109Z" fill="#E6E6E6"/>
<path d="M225.617 176.109H223.96V188.301H225.617V176.109Z" fill="#F0F0F0"/>
<path d="M223.878 131.337C223.733 131.056 223.503 130.828 223.22 130.687C222.937 130.546 222.616 130.499 222.304 130.552C221.991 130.629 221.709 130.802 221.498 131.046C221.287 131.29 221.157 131.594 221.125 131.915C220.911 131.756 220.653 131.667 220.386 131.66C220.12 131.652 219.857 131.727 219.634 131.874C219.411 132.036 219.238 132.257 219.134 132.512C219.03 132.767 218.999 133.047 219.045 133.319C218.921 133.228 218.78 133.164 218.63 133.131C218.48 133.098 218.325 133.097 218.174 133.128C218.024 133.158 217.882 133.22 217.757 133.309C217.631 133.397 217.526 133.511 217.447 133.643C217.302 133.927 217.272 134.256 217.364 134.561C217.455 134.866 217.66 135.125 217.937 135.283C217.745 135.311 217.571 135.408 217.447 135.556C217.323 135.704 217.257 135.892 217.262 136.086C217.267 136.279 217.343 136.463 217.474 136.605C217.606 136.746 217.786 136.834 217.978 136.852C217.78 136.867 217.593 136.95 217.45 137.088C217.307 137.226 217.217 137.409 217.194 137.607C217.173 137.805 217.219 138.005 217.326 138.173C217.433 138.341 217.595 138.468 217.783 138.533C217.69 138.586 217.61 138.661 217.55 138.749C217.489 138.838 217.449 138.94 217.432 139.046C217.416 139.152 217.424 139.261 217.455 139.364C217.486 139.467 217.54 139.562 217.612 139.642C217.696 139.706 217.793 139.75 217.897 139.769C218.001 139.787 218.107 139.78 218.208 139.748C218.308 139.716 218.399 139.66 218.473 139.585C218.547 139.51 218.602 139.418 218.632 139.317C218.647 139.346 218.668 139.372 218.695 139.391C218.721 139.41 218.751 139.423 218.784 139.428C218.816 139.433 218.849 139.431 218.88 139.421C218.911 139.411 218.939 139.393 218.962 139.37C218.983 139.344 218.998 139.313 219.007 139.28C219.015 139.248 219.017 139.214 219.011 139.18C219.006 139.147 218.993 139.115 218.975 139.087C218.956 139.059 218.932 139.035 218.903 139.016C218.951 139.07 219.012 139.11 219.08 139.131C219.149 139.153 219.222 139.155 219.292 139.137C219.361 139.119 219.425 139.083 219.475 139.031C219.525 138.98 219.559 138.915 219.575 138.845C219.553 139.013 219.574 139.184 219.637 139.34C219.701 139.497 219.804 139.635 219.937 139.74C220.069 139.844 220.227 139.913 220.394 139.938C220.561 139.963 220.732 139.944 220.89 139.883C220.856 139.961 220.84 140.045 220.842 140.13C220.844 140.214 220.864 140.297 220.901 140.373C220.938 140.449 220.991 140.517 221.056 140.57C221.121 140.624 221.197 140.664 221.279 140.685C221.607 140.74 221.945 140.673 222.228 140.497C222.509 140.32 222.828 140.213 223.159 140.184C223.446 140.221 223.726 140.298 223.99 140.414C224.434 140.548 224.907 140.557 225.355 140.438C225.804 140.319 226.211 140.078 226.531 139.742C226.65 139.88 226.803 139.985 226.974 140.048C227.145 140.111 227.329 140.13 227.51 140.103C227.69 140.076 227.861 140.004 228.006 139.893C228.151 139.783 228.266 139.637 228.34 139.47C228.369 139.642 228.455 139.798 228.584 139.914C228.713 140.03 228.877 140.099 229.05 140.109C229.224 140.12 229.395 140.071 229.537 139.971C229.679 139.871 229.783 139.726 229.831 139.559V140.019C229.992 140.033 230.153 140.006 230.301 139.94C230.448 139.875 230.577 139.774 230.675 139.646C230.773 139.518 230.837 139.367 230.862 139.207C230.887 139.048 230.871 138.885 230.816 138.733C231.048 138.724 231.269 138.633 231.44 138.477C231.612 138.32 231.722 138.108 231.753 137.878C231.779 137.645 231.724 137.411 231.597 137.214C231.471 137.017 231.28 136.871 231.057 136.799C231.437 136.675 231.769 136.434 232.005 136.112C232.241 135.789 232.371 135.401 232.374 135.001C232.378 134.601 232.257 134.21 232.027 133.882C231.797 133.555 231.47 133.309 231.093 133.177C230.95 133.122 230.795 133.105 230.643 133.127C230.492 133.149 230.348 133.208 230.226 133.301C230.168 133.352 230.12 133.415 230.088 133.486C230.056 133.556 230.039 133.633 230.039 133.711C230.039 133.789 230.056 133.866 230.088 133.936C230.12 134.007 230.168 134.07 230.226 134.121C230.33 133.756 230.313 133.368 230.18 133.013C230.046 132.659 229.802 132.356 229.484 132.151C229.158 131.978 228.782 131.926 228.422 132.003C228.061 132.081 227.74 132.284 227.515 132.576C227.623 132.414 227.681 132.224 227.681 132.03C227.681 131.836 227.623 131.646 227.515 131.484C227.409 131.331 227.257 131.217 227.08 131.158C226.903 131.099 226.713 131.1 226.536 131.16C226.493 130.917 226.36 130.699 226.163 130.549C225.967 130.399 225.721 130.329 225.475 130.352C225.232 130.407 225.016 130.548 224.869 130.75C224.721 130.952 224.652 131.2 224.674 131.449C224.654 131.352 224.607 131.263 224.537 131.194C224.467 131.125 224.377 131.078 224.28 131.059C224.184 131.041 224.083 131.052 223.993 131.091C223.902 131.13 223.825 131.195 223.772 131.278C223.53 131.201 223.878 131.337 223.878 131.337Z" fill="#EAEAEA"/>
<path d="M224.056 136.054C223.959 135.983 223.85 135.931 223.733 135.903C223.617 135.875 223.496 135.87 223.378 135.889C223.261 135.912 223.153 135.967 223.067 136.048C222.98 136.13 222.918 136.234 222.888 136.349C222.864 136.466 222.885 136.588 222.946 136.69C223.007 136.793 223.104 136.869 223.219 136.903C223.496 136.974 223.779 136.738 224.061 136.779C224.168 136.779 224.262 136.844 224.362 136.868C224.577 136.892 224.794 136.868 224.999 136.796C225.203 136.725 225.388 136.608 225.541 136.455C225.667 136.374 225.778 136.27 225.865 136.148C225.909 136.087 225.936 136.016 225.942 135.941C225.948 135.866 225.934 135.791 225.9 135.724C225.834 135.643 225.746 135.583 225.647 135.551C225.548 135.518 225.442 135.515 225.34 135.541C224.921 135.587 224.524 135.753 224.197 136.018L224.226 135.824L224.056 136.054Z" fill="#FAFAFA"/>
<path d="M230.026 135.7C229.921 135.612 229.798 135.548 229.667 135.511C229.602 135.491 229.532 135.49 229.466 135.508C229.401 135.525 229.341 135.561 229.295 135.612C229.248 135.693 229.233 135.788 229.253 135.88C229.272 135.971 229.325 136.052 229.401 136.107C229.556 136.211 229.735 136.272 229.92 136.284C230.115 136.313 230.35 136.319 230.445 136.154C230.472 136.09 230.479 136.019 230.463 135.951C230.447 135.883 230.41 135.822 230.356 135.777C230.247 135.689 230.121 135.627 229.985 135.594L230.026 135.7Z" fill="#FAFAFA"/>
<path d="M220.589 132.589C220.4 132.67 220.232 132.795 220.099 132.954C219.967 133.113 219.875 133.301 219.829 133.503C219.807 133.561 219.802 133.624 219.817 133.684C219.832 133.744 219.865 133.798 219.912 133.839C219.953 133.856 219.997 133.866 220.041 133.866C220.086 133.866 220.13 133.856 220.171 133.839L221.261 133.579C221.083 133.637 220.917 133.727 220.772 133.845C220.699 133.903 220.643 133.979 220.61 134.067C220.577 134.154 220.568 134.248 220.584 134.34C220.619 134.445 220.688 134.535 220.78 134.596C220.871 134.658 220.98 134.688 221.09 134.682C221.307 134.664 221.513 134.58 221.68 134.441C221.782 134.382 221.869 134.301 221.936 134.204C222.002 134.107 222.046 133.997 222.063 133.88C222.063 133.65 221.768 133.432 221.591 133.579C222.01 133.466 222.408 133.286 222.77 133.049C222.902 132.966 223.016 132.857 223.106 132.73C223.151 132.665 223.177 132.589 223.183 132.511C223.19 132.432 223.175 132.353 223.142 132.282C222.77 131.604 222.299 132.6 222.069 132.689C221.639 132.86 221.143 132.353 220.589 132.589Z" fill="#FAFAFA"/>
<path d="M218.898 135.485C218.875 135.551 218.872 135.622 218.889 135.69C218.906 135.758 218.942 135.82 218.992 135.868C219.019 135.888 219.05 135.903 219.083 135.91C219.115 135.918 219.149 135.918 219.182 135.911C219.215 135.905 219.246 135.891 219.274 135.871C219.301 135.852 219.323 135.826 219.34 135.797C219.088 135.845 218.858 135.973 218.686 136.163C218.646 136.212 218.618 136.269 218.603 136.331C218.588 136.392 218.586 136.456 218.599 136.518C218.611 136.58 218.637 136.638 218.674 136.689C218.712 136.74 218.76 136.781 218.815 136.812C218.894 136.826 218.975 136.824 219.053 136.805C219.131 136.787 219.205 136.753 219.269 136.705C219.665 136.49 220.042 136.242 220.395 135.962C220.289 136.216 220.548 136.499 220.82 136.552C221.095 136.547 221.361 136.454 221.58 136.287C221.869 136.11 222.169 135.844 222.122 135.52C222.065 135.388 221.961 135.282 221.831 135.221C221.701 135.16 221.553 135.149 221.415 135.19C221.144 135.303 220.906 135.483 220.725 135.715C220.878 135.496 220.666 135.16 220.395 135.125C220.264 135.118 220.133 135.144 220.014 135.199C219.895 135.255 219.791 135.338 219.711 135.443C220.018 135.272 220.083 134.853 219.676 134.789C219.405 134.724 218.957 135.266 218.898 135.485Z" fill="#FAFAFA"/>
<path d="M227.238 134.511C227.179 134.491 227.118 134.484 227.056 134.489C226.995 134.493 226.935 134.51 226.88 134.538C226.826 134.566 226.777 134.605 226.737 134.652C226.697 134.699 226.667 134.753 226.648 134.812C226.636 134.871 226.636 134.932 226.648 134.991C226.659 135.051 226.682 135.107 226.716 135.157C226.749 135.208 226.792 135.251 226.842 135.285C226.892 135.319 226.949 135.342 227.008 135.354C226.829 135.372 226.664 135.459 226.548 135.596C226.514 135.633 226.487 135.677 226.47 135.724C226.453 135.772 226.445 135.823 226.448 135.873C226.466 135.945 226.508 136.008 226.567 136.053C226.626 136.098 226.698 136.122 226.772 136.121C226.923 136.114 227.07 136.074 227.202 136.003C227.054 136.001 226.909 136.042 226.784 136.121C226.753 136.142 226.727 136.168 226.707 136.199C226.687 136.23 226.674 136.265 226.668 136.302C226.662 136.338 226.663 136.375 226.672 136.411C226.681 136.447 226.697 136.481 226.719 136.51C226.769 136.545 226.828 136.567 226.888 136.573C226.949 136.579 227.011 136.57 227.067 136.546C227.336 136.474 227.583 136.336 227.786 136.145C227.857 136.23 227.948 136.298 228.05 136.342C228.153 136.386 228.264 136.405 228.375 136.398C228.43 136.39 228.483 136.37 228.531 136.341C228.578 136.311 228.619 136.272 228.651 136.227C228.683 136.181 228.705 136.129 228.717 136.074C228.728 136.02 228.728 135.963 228.717 135.909C228.686 135.834 228.635 135.769 228.57 135.721C228.504 135.673 228.427 135.644 228.346 135.637C228.184 135.629 228.021 135.653 227.868 135.708C228.039 135.615 228.174 135.467 228.252 135.289C228.311 135.106 228.187 134.859 227.992 134.876C227.798 134.894 227.668 135.183 227.497 135.289C227.303 135.095 227.698 134.682 227.238 134.511Z" fill="#FAFAFA"/>
<path d="M223.342 133.612C223.226 133.706 223.136 133.827 223.081 133.966C223.025 134.104 223.005 134.254 223.024 134.402C223.024 134.567 223.067 134.729 223.15 134.872C223.233 135.015 223.352 135.134 223.495 135.216C223.597 135.248 223.705 135.257 223.81 135.244C223.916 135.231 224.018 135.195 224.109 135.139C224.2 135.083 224.278 135.009 224.338 134.92C224.398 134.832 224.438 134.731 224.456 134.626C224.477 134.411 224.433 134.194 224.327 134.005C224.222 133.817 224.061 133.665 223.866 133.57C223.782 133.536 223.69 133.522 223.599 133.529C223.508 133.536 223.42 133.565 223.342 133.612Z" fill="#FAFAFA"/>
<path d="M226.1 133.255L226.201 133.344C226.159 133.288 226.107 133.241 226.046 133.207C225.986 133.172 225.919 133.151 225.85 133.145C225.78 133.138 225.711 133.146 225.645 133.168C225.579 133.19 225.518 133.226 225.467 133.273C225.416 133.32 225.375 133.377 225.348 133.441C225.32 133.505 225.306 133.574 225.307 133.643C225.308 133.713 225.323 133.782 225.352 133.845C225.381 133.908 225.423 133.964 225.476 134.01C225.579 134.098 225.713 134.142 225.849 134.132C225.985 134.122 226.111 134.059 226.201 133.957C226.342 134.027 226.502 134.049 226.657 134.021C226.812 133.992 226.954 133.914 227.061 133.798C227.153 133.673 227.192 133.517 227.17 133.364C227.148 133.21 227.067 133.072 226.943 132.978C226.875 132.945 226.8 132.929 226.724 132.932C226.648 132.935 226.574 132.957 226.509 132.995C226.443 133.034 226.389 133.088 226.349 133.153C226.31 133.218 226.287 133.291 226.283 133.367L226.165 133.237L226.1 133.255Z" fill="#FAFAFA"/>
<path d="M229.148 133.754C228.934 133.928 228.771 134.156 228.676 134.415C228.635 134.546 228.644 134.687 228.702 134.812C228.759 134.936 228.862 135.035 228.989 135.087C229.254 135.152 229.501 134.934 229.655 134.71C229.731 134.613 229.784 134.5 229.812 134.38C229.839 134.259 229.84 134.134 229.814 134.014C229.737 133.778 229.401 133.642 229.224 133.819L229.148 133.754Z" fill="#FAFAFA"/>
<path d="M224.757 132.152C224.728 132.099 224.69 132.052 224.643 132.015C224.596 131.977 224.543 131.949 224.485 131.932C224.427 131.916 224.367 131.911 224.307 131.919C224.247 131.926 224.19 131.945 224.138 131.975C224.037 132.045 223.962 132.148 223.927 132.266C223.892 132.383 223.897 132.51 223.943 132.624C223.995 132.739 224.077 132.838 224.181 132.91C224.285 132.982 224.407 133.024 224.533 133.031C224.828 133.06 225.181 132.819 225.122 132.524C225.193 132.609 225.284 132.673 225.388 132.712C225.491 132.75 225.603 132.76 225.712 132.742C225.921 132.708 226.122 132.632 226.301 132.518C226.555 132.37 226.82 132.152 226.796 131.863C226.778 131.748 226.72 131.642 226.633 131.564C226.546 131.485 226.435 131.439 226.319 131.433C226.203 131.427 226.088 131.445 225.979 131.486C225.871 131.526 225.772 131.589 225.688 131.669C225.553 131.786 225.435 131.928 225.287 132.034C225.217 132.092 225.131 132.13 225.041 132.142C224.95 132.154 224.858 132.142 224.774 132.105L224.757 132.152Z" fill="#FAFAFA"/>
<path d="M228.505 145.568H220.954L220.217 137.953H229.242L228.505 145.568Z" fill="#F0F0F0"/>
<path d="M229.832 138.347H219.558L219.375 137.332H230.014L229.832 138.347Z" fill="#FAFAFA"/>
<path d="M220.666 168.467H212.001L214.719 159.714L215.114 158.44H217.076L220.666 168.467Z" fill="#EAEAEA"/>
<path d="M215.114 158.44L214.719 159.714L212.001 168.467L203.991 168.349L201.415 159.714L201.02 158.44H215.114Z" fill="#E0E0E0"/>
<path d="M215.113 158.44L214.718 159.714L212.001 168.467L195.55 168.225L199.057 158.44H215.113Z" fill="#FAFAFA"/>
<path d="M215.114 158.44L214.719 159.714H198.604L199.058 158.44H215.114Z" fill="#EAEAEA"/>
<path d="M201.079 163.874H197.466L198.728 160.335L202.182 160.37L201.079 163.874ZM197.885 163.579H200.832L201.751 160.63L198.904 160.6L197.885 163.579Z" fill="#EAEAEA"/>
<path d="M205.123 163.874H201.509L202.765 160.335L206.225 160.37L205.123 163.874ZM201.922 163.579H204.905L205.824 160.63L202.977 160.6L201.922 163.579Z" fill="#EAEAEA"/>
<path d="M209.161 163.874H205.547L206.809 160.335L210.263 160.37L209.161 163.874ZM205.966 163.579H208.948L209.862 160.63L207.015 160.6L205.966 163.579Z" fill="#EAEAEA"/>
<path d="M213.204 163.874H209.591L210.852 160.335L214.306 160.37L213.204 163.874ZM210.009 163.579H213.003L213.923 160.63L211.076 160.6L210.009 163.579Z" fill="#EAEAEA"/>
<path d="M199.818 167.656H196.205L197.466 164.117L200.921 164.158L199.818 167.656ZM196.624 167.361H199.6L200.52 164.412H197.673L196.624 167.361Z" fill="#EAEAEA"/>
<path d="M203.861 167.656H200.247L201.509 164.117L204.963 164.158L203.861 167.656ZM200.666 167.361H203.643L204.562 164.412H201.715L200.666 167.361Z" fill="#EAEAEA"/>
<path d="M207.898 167.656H204.285L205.547 164.117L209.001 164.158L207.898 167.656ZM204.704 167.361H207.698L208.617 164.412H205.765L204.704 167.361Z" fill="#EAEAEA"/>
<path d="M211.942 167.656H208.329L209.59 164.117L213.044 164.158L211.942 167.656ZM208.747 167.361H211.724L212.643 164.412H209.796L208.747 167.361Z" fill="#EAEAEA"/>
<path d="M266.765 140.843C266.765 142.701 267.06 143.904 267.549 144.677C267.738 144.959 267.994 145.19 268.295 145.348C268.595 145.505 268.931 145.585 269.27 145.579H271.946C272.285 145.585 272.619 145.505 272.919 145.347C273.219 145.189 273.474 144.959 273.662 144.677C274.157 143.904 274.446 142.701 274.446 140.843C274.446 138.148 273.267 135.989 272.889 134.267C272.748 133.647 273.208 131.742 273.208 131.742H267.991C267.991 131.742 268.451 133.647 268.31 134.267C267.938 135.989 266.765 138.148 266.765 140.843Z" fill="#F0F0F0"/>
<path d="M272.353 118.728C271.808 118.879 271.322 119.194 270.962 119.63C270.449 120.314 271.333 121.918 271.333 121.918C271.577 122.157 271.874 122.335 272.2 122.438C272.525 122.54 272.871 122.564 273.207 122.508L274.251 122.255C274.251 122.255 273.125 119.14 272.359 118.934L272.353 118.728Z" fill="#EAEAEA"/>
<path d="M276.455 119.477C276.319 120.851 275.164 122.391 273.938 122.273C272.712 122.155 271.893 120.403 272.028 119.035C272.164 117.666 273.166 117.714 274.386 117.855C275.606 117.997 276.596 118.109 276.455 119.477Z" fill="#EAEAEA"/>
<path d="M273.007 118.417C273.007 118.417 273.791 119.325 275.766 119.255C275.766 119.255 272.4 120.682 273.007 118.417Z" fill="#EAEAEA"/>
<path d="M273.868 118.308C273.868 118.308 274.965 118.308 274.9 118.768C274.9 118.768 275.808 118.886 275.755 118.484C275.701 118.083 273.868 118.308 273.868 118.308Z" fill="#EAEAEA"/>
<path d="M273.007 118.417C273.007 118.417 273.791 119.325 275.766 119.255C275.766 119.255 272.4 120.682 273.007 118.417Z" fill="#E0E0E0"/>
<path d="M273.868 118.308C273.868 118.308 274.965 118.308 274.9 118.768C274.9 118.768 275.808 118.886 275.755 118.484C275.701 118.083 273.868 118.308 273.868 118.308Z" fill="#E0E0E0"/>
<path d="M271.84 122.315C271.986 122.658 272.225 122.954 272.531 123.167C272.836 123.381 273.195 123.505 273.567 123.525C273.939 123.539 274.31 123.476 274.656 123.339C275.002 123.201 275.316 122.994 275.577 122.728C276.097 122.194 276.46 121.526 276.626 120.8C276.673 120.611 276.78 120.145 276.544 120.021C276.308 119.897 276.125 120.204 275.996 120.334C275.62 120.707 275.205 121.039 274.758 121.325C274.319 121.603 273.848 121.827 273.355 121.991C273.219 122.038 271.887 122.439 271.84 122.315Z" fill="#EAEAEA"/>
<path d="M277.511 120.6C277.571 120.897 277.553 121.204 277.461 121.492C277.368 121.78 277.202 122.04 276.981 122.246C276.678 122.506 276.327 122.706 275.949 122.835C275.69 122.93 275.36 123.006 275.165 122.835C274.971 122.664 275.042 122.275 275.165 121.998C275.336 121.573 275.513 121.154 275.708 120.736C275.845 120.316 276.044 119.918 276.297 119.556C276.545 119.308 276.792 119.556 277.051 119.792C277.274 120.015 277.433 120.294 277.511 120.6Z" fill="#EAEAEA"/>
<path d="M272.288 121.623C272.058 121.567 271.849 121.445 271.685 121.274C271.521 121.103 271.409 120.889 271.362 120.656C271.297 120.308 271.451 119.477 271.887 119.477C271.884 120.211 272.02 120.939 272.288 121.623Z" fill="#E0E0E0"/>
<path d="M275.607 121.868C275.839 121.845 276.062 121.765 276.257 121.636C276.451 121.506 276.61 121.33 276.721 121.124C276.839 120.894 276.98 119.644 276.514 120.092C276.361 120.24 276.284 120.788 276.178 120.995C276.024 121.308 275.832 121.601 275.607 121.868Z" fill="#E0E0E0"/>
<path d="M273.786 122.311C273.932 122.485 274.132 122.605 274.353 122.653C274.575 122.701 274.807 122.674 275.012 122.576C274.923 122.806 274.133 122.865 273.892 122.889C273.249 122.954 272.984 122.623 272.442 122.27C272.442 122.27 273.344 122.588 273.786 122.311Z" fill="#E0E0E0"/>
<path d="M269.889 144.096L271.398 128.868L273.391 123.459L273.738 123.589L271.752 128.968L270.178 144.515L269.889 144.096Z" fill="#E6E6E6"/>
<path d="M271.74 128.84L271.41 129.005C271.173 128.49 270.976 127.957 270.82 127.412C270.532 126.332 270.106 125.293 269.553 124.322L269.865 124.127C270.436 125.124 270.875 126.191 271.174 127.3C271.325 127.826 271.514 128.341 271.74 128.84Z" fill="#E6E6E6"/>
<path d="M272.536 126.839C273.053 126.801 273.539 126.576 273.903 126.208C274.287 125.764 274.574 125.246 274.746 124.686C274.074 124.757 273.455 124.32 272.783 124.273C272.515 124.256 272.247 124.3 271.999 124.403C271.751 124.505 271.529 124.662 271.351 124.863C270.897 125.394 270.632 126.042 270.879 126.361C271.348 126.731 271.942 126.902 272.536 126.839Z" fill="#F0F0F0"/>
<path d="M267.161 125.187C267.473 124.975 267.828 124.834 268.201 124.775C268.574 124.716 268.956 124.74 269.318 124.845C269.605 124.954 269.861 125.129 270.066 125.357C270.271 125.584 270.419 125.858 270.497 126.155C270.364 126.326 270.187 126.459 269.984 126.539C269.782 126.619 269.562 126.643 269.348 126.609C268.918 126.53 268.507 126.374 268.133 126.149C267.759 125.925 267.348 125.769 266.919 125.689L267.161 125.187Z" fill="#F0F0F0"/>
<path d="M270.484 125.48C269.612 125.58 268.828 125.751 268.032 124.76C267.502 124.094 267.673 123.085 267.708 122.289C268.696 122.605 269.653 123.009 270.567 123.498C270.763 123.586 270.936 123.718 271.073 123.884C271.21 124.05 271.307 124.245 271.357 124.454C271.385 124.658 271.335 124.865 271.217 125.033C271.099 125.202 270.921 125.319 270.72 125.362L270.484 125.48Z" fill="#F0F0F0"/>
<path d="M267.985 137.332C267.56 138.315 267.359 139.381 267.396 140.452C267.396 140.652 267.478 140.882 267.626 140.918C267.773 140.953 267.891 140.788 267.938 140.605C267.976 140.411 267.987 140.213 267.974 140.015C267.974 138.382 268.858 137.001 269.029 135.409C269.076 134.955 268.958 133.528 268.693 134.577C268.475 135.539 268.31 136.412 267.985 137.332Z" fill="#FAFAFA"/>
<path d="M144.494 169.785C144.494 169.785 146.209 150.787 138.665 141.527C131.12 132.267 144.559 140.695 146.917 149.932C146.917 149.932 147.359 132.827 139.844 121.768C132.328 110.709 145.148 118.984 147.382 131.063C147.382 131.063 147.813 115.811 144.052 107.731C140.292 99.6501 145.897 104.457 148.379 109.5C150.86 114.543 149.634 127.991 149.634 127.991C149.634 127.991 152.269 103.159 157.297 104.504C162.324 105.849 151.903 123.172 151.072 131.636C151.072 131.636 155.623 119.839 160.155 121.609C164.688 123.378 153.843 125.879 150.489 143.048L149.487 150.993C149.487 150.993 153.613 139.398 157.361 142.447C161.11 145.496 148.196 153.099 146.752 170.091L144.494 169.785Z" fill="#EAEAEA"/>
<path d="M145.307 170.768C145.307 170.768 143.698 147.276 153.253 136.081C162.808 124.886 146.009 134.872 142.826 146.196C142.826 146.196 142.732 125.093 152.322 111.669C161.912 98.2445 145.838 108.065 142.767 122.875C142.767 122.875 142.649 104.048 147.482 94.1925C152.316 84.3367 145.29 90.0933 142.095 96.2509C138.9 102.409 140.061 118.988 140.061 118.988C140.061 118.988 137.468 88.2649 131.261 89.763C125.055 91.2611 137.415 112.966 138.217 123.424C138.217 123.424 132.912 108.725 127.277 110.79C121.642 112.854 134.939 116.263 138.623 137.555L139.643 147.453C139.643 147.453 134.88 133.02 130.159 136.653C125.438 140.286 141.181 150.089 142.537 171.11L145.307 170.768Z" fill="#F0F0F0"/>
<path d="M160.156 182.479C160.156 188.926 153.171 194.157 144.553 194.157C135.936 194.157 128.945 188.926 128.945 182.479C128.945 179.571 130.36 176.923 132.706 174.882L130.861 167.067H158.24L156.419 174.882C158.741 176.941 160.156 179.571 160.156 182.479Z" fill="#EAEAEA"/>
<path d="M170.564 219.417C233.682 219.417 284.849 216.428 284.849 212.74C284.849 209.053 233.682 206.063 170.564 206.063C107.447 206.063 56.28 209.053 56.28 212.74C56.28 216.428 107.447 219.417 170.564 219.417Z" fill="#F5F5F5"/>
<path d="M161.175 119.14L162.648 110.635L165.543 111.472L161.175 119.14Z" fill="#58B368"/>
<path d="M162.147 121.865L170.435 119.465L169.279 116.675L162.147 121.865Z" fill="#58B368"/>
<path d="M163.621 118.662L168.342 109.732L171.525 111.944L163.621 118.662Z" fill="#58B368"/>
<path d="M216.958 35.7881H208.37C208.011 35.7649 207.675 35.606 207.429 35.3436C207.183 35.0812 207.046 34.7351 207.046 34.3755C207.046 34.0159 207.183 33.6697 207.429 33.4074C207.675 33.145 208.011 32.9861 208.37 32.9629H216.958C217.316 32.9861 217.653 33.145 217.898 33.4074C218.144 33.6697 218.281 34.0159 218.281 34.3755C218.281 34.7351 218.144 35.0812 217.898 35.3436C217.653 35.606 217.316 35.7649 216.958 35.7881Z" fill="#58B368"/>
<g opacity="0.7">
<path opacity="0.7" d="M216.958 35.7881H208.37C208.011 35.7649 207.675 35.606 207.429 35.3436C207.183 35.0812 207.046 34.7351 207.046 34.3755C207.046 34.0159 207.183 33.6697 207.429 33.4074C207.675 33.145 208.011 32.9861 208.37 32.9629H216.958C217.316 32.9861 217.653 33.145 217.898 33.4074C218.144 33.6697 218.281 34.0159 218.281 34.3755C218.281 34.7351 218.144 35.0812 217.898 35.3436C217.653 35.606 217.316 35.7649 216.958 35.7881Z" fill="white"/>
</g>
<path d="M248.463 64.7505L215.537 125.383C215.333 125.758 214.989 126.036 214.58 126.156C214.171 126.277 213.731 126.23 213.356 126.026L157.331 95.5446C156.957 95.3402 156.679 94.9956 156.559 94.5864C156.438 94.1773 156.485 93.737 156.689 93.3623L199.511 14.5162C199.715 14.1418 200.059 13.8639 200.468 13.7434C200.877 13.6228 201.317 13.6696 201.692 13.8733L239.415 34.3988L248.463 64.7505Z" fill="#58B368"/>
<g opacity="0.2">
<path opacity="0.2" d="M248.463 64.7505L215.537 125.383C215.333 125.758 214.989 126.036 214.58 126.156C214.171 126.277 213.731 126.23 213.356 126.026L157.331 95.5446C156.957 95.3402 156.679 94.9956 156.559 94.5864C156.438 94.1773 156.485 93.737 156.689 93.3623L199.511 14.5162C199.715 14.1418 200.059 13.8639 200.468 13.7434C200.877 13.6228 201.317 13.6696 201.692 13.8733L239.415 34.3988L248.463 64.7505Z" fill="white"/>
</g>
<path d="M229.976 78.3693L188.135 55.7783L186.735 58.3737L228.576 80.9646L229.976 78.3693Z" fill="#58B368"/>
<path d="M224.261 88.9737L182.42 66.3828L181.021 68.9782L222.862 91.5691L224.261 88.9737Z" fill="#58B368"/>
<path d="M218.541 99.5821L176.7 76.9912L175.3 79.5866L217.142 102.177L218.541 99.5821Z" fill="#58B368"/>
<path d="M239.492 34.374L229.566 52.6582C229.362 53.0329 229.316 53.4732 229.436 53.8823C229.556 54.2915 229.834 54.6361 230.208 54.8405L248.428 64.7494L239.492 34.374Z" fill="#58B368"/>
<path opacity="0.7" d="M239.492 34.374L229.566 52.6582C229.362 53.0329 229.316 53.4732 229.436 53.8823C229.556 54.2915 229.834 54.6361 230.208 54.8405L248.428 64.7494L239.492 34.374Z" fill="white"/>
<path d="M257.045 62.716L224.125 123.349C223.921 123.723 223.577 124.001 223.168 124.121C222.759 124.242 222.319 124.195 221.944 123.992L165.919 93.5337C165.544 93.3303 165.265 92.9861 165.143 92.5768C165.022 92.1676 165.068 91.7268 165.271 91.3514L208.093 12.4875C208.296 12.1122 208.64 11.833 209.049 11.7113C209.458 11.5896 209.898 11.6355 210.274 11.8387L248.027 32.3642L257.045 62.716Z" fill="#58B368"/>
<g opacity="0.5">
<path opacity="0.5" d="M257.045 62.716L224.125 123.349C223.921 123.723 223.577 124.001 223.168 124.121C222.759 124.242 222.319 124.195 221.944 123.992L165.919 93.5337C165.544 93.3303 165.265 92.9861 165.143 92.5768C165.022 92.1676 165.068 91.7268 165.271 91.3514L208.093 12.4875C208.296 12.1122 208.64 11.833 209.049 11.7113C209.458 11.5896 209.898 11.6355 210.274 11.8387L248.027 32.3642L257.045 62.716Z" fill="white"/>
</g>
<path d="M237.458 75.7179L197.849 54.3372C197.703 54.2576 197.542 54.2077 197.377 54.1904C197.211 54.1731 197.044 54.1888 196.884 54.2365C196.725 54.2842 196.577 54.363 196.448 54.4683C196.319 54.5737 196.212 54.7035 196.134 54.8503L195.939 55.2101C195.859 55.3568 195.809 55.5178 195.792 55.6839C195.775 55.8499 195.79 56.0178 195.838 56.1778C195.886 56.3378 195.964 56.4869 196.07 56.6163C196.175 56.7458 196.305 56.8532 196.452 56.9324L236.062 78.3131C236.357 78.4722 236.704 78.5076 237.025 78.4114C237.347 78.3152 237.617 78.0953 237.777 77.7999L237.971 77.4342C238.051 77.288 238.101 77.1274 238.118 76.9618C238.135 76.7962 238.12 76.6288 238.072 76.4692C238.024 76.3097 237.946 76.1612 237.84 76.0322C237.735 75.9033 237.605 75.7964 237.458 75.7179Z" fill="#58B368"/>
<path d="M231.732 86.3306L192.121 64.944C191.505 64.6114 190.736 64.8415 190.404 65.4578L190.208 65.8212C189.876 66.4375 190.106 67.2068 190.722 67.5393L230.332 88.9259C230.948 89.2585 231.717 89.0285 232.049 88.4121L232.245 88.0488C232.577 87.4324 232.348 86.6632 231.732 86.3306Z" fill="#58B368"/>
<path d="M226.015 96.9458L186.404 75.5592C185.788 75.2266 185.019 75.4567 184.687 76.073L184.491 76.4364C184.159 77.0527 184.388 77.822 185.004 78.1546L224.615 99.5412C225.231 99.8737 226 99.6437 226.332 99.0273L226.528 98.664C226.86 98.0476 226.63 97.2784 226.015 96.9458Z" fill="#58B368"/>
<path d="M248.08 32.3359L238.148 50.6201C238.047 50.8054 237.983 51.0089 237.961 51.2189C237.939 51.4289 237.958 51.6412 238.019 51.8436C238.079 52.0459 238.179 52.2344 238.312 52.3979C238.446 52.5615 238.61 52.697 238.796 52.7965L257.015 62.7054L248.08 32.3359Z" fill="#58B368"/>
<path opacity="0.7" d="M248.08 32.3359L238.148 50.6201C238.047 50.8054 237.983 51.0089 237.961 51.2189C237.939 51.4289 237.958 51.6412 238.019 51.8436C238.079 52.0459 238.179 52.2344 238.312 52.3979C238.446 52.5615 238.61 52.697 238.796 52.7965L257.015 62.7054L248.08 32.3359Z" fill="white"/>
<path d="M245.804 4.54004L248.575 16.8494C238.083 19.7277 228.67 30.1202 221.897 39.9347C219.125 44.0102 216.896 48.4297 215.266 53.0816C215.266 53.0816 236.426 33.9304 248.091 32.8097L247.531 53.1524C247.531 53.1524 259.632 29.5599 283.121 20.9486C283.145 20.9427 263.446 6.76363 245.804 4.54004Z" fill="#58B368"/>
<path d="M172.162 178.083L176.364 174.597L165.766 164.535L161.246 168.398L172.162 178.083Z" fill="#CB7A63"/>
<path d="M179.772 173.252C179.292 173.113 178.78 173.138 178.316 173.322C178.033 173.405 177.726 173.505 177.479 173.599C177.231 173.694 177.084 173.753 176.925 173.818L176.459 174.024C176.431 174.031 176.407 174.047 176.39 174.069C176.373 174.092 176.364 174.12 176.365 174.148C176.361 174.157 176.359 174.167 176.359 174.178C176.359 174.188 176.361 174.198 176.365 174.207C176.384 174.236 176.413 174.257 176.447 174.266C177.044 174.423 177.653 174.528 178.268 174.579C178.571 174.617 178.878 174.593 179.17 174.508H179.212C179.38 174.452 179.542 174.379 179.695 174.29C179.792 174.212 179.868 174.111 179.916 173.997C179.964 173.883 179.984 173.758 179.972 173.635C179.973 173.559 179.955 173.485 179.92 173.418C179.885 173.351 179.834 173.294 179.772 173.252ZM179.713 173.641C179.727 173.724 179.717 173.81 179.685 173.888C179.653 173.967 179.599 174.034 179.53 174.083C179.389 174.185 179.225 174.249 179.052 174.272C178.815 174.315 178.574 174.328 178.333 174.313C177.957 174.292 177.583 174.245 177.213 174.172L176.936 174.119C177.439 173.878 177.967 173.694 178.51 173.57C178.805 173.495 179.104 173.44 179.406 173.405C179.493 173.4 179.578 173.421 179.654 173.464C179.68 173.484 179.7 173.512 179.71 173.543C179.721 173.575 179.722 173.609 179.713 173.641Z" fill="#58B368"/>
<path d="M177.844 171.046C177.709 171.07 177.581 171.121 177.466 171.196C177.352 171.271 177.254 171.369 177.178 171.483C177.13 171.553 177.088 171.628 177.054 171.707C176.83 172.392 176.786 173.123 176.924 173.83C176.927 173.84 176.927 173.85 176.924 173.86C176.929 173.882 176.94 173.904 176.955 173.921C176.971 173.939 176.991 173.952 177.013 173.96C177.026 173.966 177.04 173.969 177.054 173.969C177.068 173.969 177.082 173.966 177.095 173.96C177.106 173.96 177.116 173.957 177.126 173.952C177.135 173.947 177.143 173.939 177.148 173.93C177.265 173.831 177.374 173.723 177.473 173.606C177.659 173.384 177.827 173.148 177.974 172.898C178.339 172.308 178.598 171.63 178.439 171.282C178.38 171.129 178.227 170.975 177.844 171.046ZM178.198 171.4C178.298 171.624 178.097 172.155 177.803 172.674C177.623 172.991 177.41 173.288 177.166 173.559C177.085 173.024 177.113 172.478 177.249 171.954C177.283 171.841 177.334 171.733 177.402 171.636C177.499 171.492 177.643 171.386 177.809 171.335H177.891C178.139 171.264 178.186 171.359 178.227 171.388L178.198 171.4Z" fill="#58B368"/>
<path d="M175.816 174.349L170.511 177.014C170.41 177.062 170.33 177.144 170.285 177.246C170.239 177.348 170.232 177.462 170.264 177.569L171.82 182.512C171.858 182.628 171.919 182.735 172 182.828C172.08 182.92 172.177 182.996 172.287 183.051C172.396 183.106 172.516 183.138 172.638 183.147C172.76 183.156 172.882 183.14 172.998 183.101L173.087 183.06C182.135 179.881 184.911 177.628 185.854 177.115C188.548 175.646 187.033 173.735 186.031 173.971C181.516 175.05 180.001 174.773 178.05 174.272C177.31 174.117 176.543 174.143 175.816 174.349Z" fill="#263238"/>
<path opacity="0.2" d="M165.772 164.541L171.136 169.301L166.609 173.158L161.246 168.398L165.772 164.541Z" fill="black"/>
<path d="M164.098 173.122L170.847 166.894L169.362 164.287L161.558 170.993L164.098 173.122Z" fill="#58B368"/>
<path opacity="0.5" d="M164.098 173.122L170.847 166.894L169.362 164.287L161.558 170.993L164.098 173.122Z" fill="white"/>
<path d="M168.3 165.2L167.393 165.979L166.043 167.158L165.259 167.825L162.901 169.866L162.447 170.249C162.447 170.249 152.834 164.829 147.482 160.222C143.821 157.055 143.491 155.869 143.102 156.164C137.933 160.104 122.631 173.705 113.961 180.777C113.678 180.812 113.371 180.836 113.112 180.86C108.479 181.196 104.86 180.689 102.007 179.609C102.007 175.846 105.196 167.058 105.461 166.209C105.461 166.209 118.258 153.486 138.994 142.728C139.197 142.625 139.406 142.532 139.619 142.451C139.884 142.327 140.156 142.217 140.432 142.121C141.447 141.716 142.519 141.473 143.609 141.401C144.526 141.364 145.442 141.508 146.303 141.826C146.798 142.001 147.278 142.214 147.741 142.463C148.147 142.673 148.54 142.905 148.92 143.159C149.562 143.566 150.181 144.02 150.765 144.468C152.091 145.495 162.105 158.406 167.487 164.363C167.776 164.64 168.047 164.935 168.3 165.2Z" fill="#58B368"/>
<g opacity="0.1">
<path opacity="0.1" d="M168.3 165.2L167.393 165.979L166.043 167.158L165.259 167.825L162.901 169.866L162.447 170.249C162.447 170.249 152.834 164.829 147.482 160.222C143.821 157.055 143.491 155.869 143.102 156.164C137.933 160.104 122.631 173.705 113.961 180.777C113.678 180.812 113.371 180.836 113.112 180.86C108.479 181.196 104.86 180.689 102.007 179.609C102.007 175.846 105.196 167.058 105.461 166.209C105.461 166.209 118.258 153.486 138.994 142.728C139.197 142.625 139.406 142.532 139.619 142.451C139.884 142.327 140.156 142.217 140.432 142.121C141.447 141.716 142.519 141.473 143.609 141.401C144.526 141.364 145.442 141.508 146.303 141.826C146.798 142.001 147.278 142.214 147.741 142.463C148.147 142.673 148.54 142.905 148.92 143.159C149.562 143.566 150.181 144.02 150.765 144.468C152.091 145.495 162.105 158.406 167.487 164.363C167.776 164.64 168.047 164.935 168.3 165.2Z" fill="black"/>
</g>
<path d="M100.016 110.883C100.829 114.551 101.678 119.913 99.1552 122.437C102.287 127.944 106.045 133.07 110.354 137.713C115.877 128.105 110.643 122.166 110.643 122.166C106.517 121.281 106.57 119.612 107.219 116.734L100.016 110.883Z" fill="#CB7A63"/>
<path d="M96.5968 122.889C96.8971 121.897 97.5193 121.033 98.3651 120.435C99.1962 119.804 107.796 119.71 110.006 120.435C111.31 120.848 112.418 121.723 113.124 122.895L96.5968 122.889Z" fill="#58B368"/>
<path d="M136.189 137.515L138.405 136.501L138.517 140.122C137.878 140.681 137.14 141.115 136.342 141.402C136.093 141.476 135.828 141.483 135.576 141.422C135.323 141.361 135.091 141.234 134.903 141.055C134.714 140.875 134.577 140.649 134.503 140.4C134.43 140.15 134.424 139.886 134.485 139.633C134.595 139.176 134.804 138.749 135.099 138.382C135.394 138.016 135.766 137.72 136.189 137.515Z" fill="#CB7A63"/>
<path d="M141.246 137.521L141.128 138.854C141.112 139.054 141.032 139.244 140.901 139.396C140.77 139.547 140.593 139.653 140.398 139.698L138.5 140.122L138.388 136.501L140.315 136.53C140.437 136.528 140.557 136.55 140.67 136.595C140.783 136.64 140.886 136.707 140.973 136.792C141.059 136.877 141.128 136.979 141.175 137.091C141.222 137.203 141.246 137.323 141.246 137.445V137.521Z" fill="#CB7A63"/>
<path d="M108.008 147.815C111.53 149.626 115.529 150.296 119.449 149.732C124.164 148.935 132.416 144.187 135.994 141.474L134.815 139.705C133.047 140.088 118.435 147.508 109.01 140.796C107.242 139.545 100.351 134.396 97.917 134.503C93.9619 134.68 94.3038 138.826 96.0013 140.554C97.9641 142.53 105.279 146.47 108.008 147.815Z" fill="#CB7A63"/>
<g opacity="0.2">
<path opacity="0.2" d="M141.128 138.856C141.114 139.055 141.036 139.244 140.905 139.395C140.774 139.546 140.598 139.651 140.403 139.693L138.517 140.124C137.878 140.682 137.14 141.116 136.342 141.404C136.23 141.441 136.113 141.461 135.994 141.463C132.411 144.188 124.206 148.93 119.455 149.72C115.537 150.282 111.541 149.612 108.02 147.803C105.291 146.458 97.9645 142.495 95.9781 140.501C94.2805 138.773 93.9387 134.603 97.8937 134.45C100.328 134.344 107.224 139.493 108.987 140.743C117.981 147.143 131.668 140.69 134.468 139.746C134.465 139.703 134.465 139.66 134.468 139.617C134.57 139.162 134.771 138.735 135.057 138.366C135.352 138.001 135.724 137.707 136.148 137.505L138.346 136.497L140.262 136.526C140.383 136.524 140.503 136.547 140.615 136.592C140.727 136.637 140.829 136.705 140.916 136.79C141.002 136.875 141.07 136.976 141.117 137.088C141.163 137.199 141.187 137.319 141.187 137.44V137.523L141.128 138.856Z" fill="black"/>
<path opacity="0.2" d="M138.404 136.502L138.387 136.508V136.502H138.404Z" fill="black"/>
</g>
<path d="M120.369 128.813C125.373 139.848 113.767 143.004 119.084 161.099L93.856 161.689C94.021 151.993 97.4692 154.075 92.9247 135.844C92.5416 134.298 91.905 129.869 93.5495 125.817C94.1782 124.239 95.3343 122.928 96.8208 122.107C98.6834 121.104 106.888 121.889 110.631 122.142C114.686 121.594 119.626 127.433 120.369 128.813Z" fill="#58B368"/>
<path opacity="0.5" d="M120.369 128.813C125.373 139.848 113.767 143.004 119.084 161.099L93.856 161.689C94.021 151.993 97.4692 154.075 92.9247 135.844C92.5416 134.298 91.905 129.869 93.5495 125.817C94.1782 124.239 95.3343 122.928 96.8208 122.107C98.6834 121.104 106.888 121.889 110.631 122.142C114.686 121.594 119.626 127.433 120.369 128.813Z" fill="white"/>
<path d="M115.547 106.922C115.476 107.406 115.671 107.801 115.971 107.842C116.272 107.884 116.561 107.548 116.649 107.082C116.738 106.616 116.52 106.209 116.219 106.162C115.918 106.114 115.612 106.462 115.547 106.922Z" fill="#263238"/>
<path d="M116.084 106.168L117.262 106.009C117.262 106.009 116.543 106.799 116.084 106.168Z" fill="#263238"/>
<path d="M115.623 107.56C115.881 108.675 116.293 109.749 116.849 110.75C116.589 110.886 116.302 110.962 116.008 110.974C115.715 110.986 115.423 110.934 115.152 110.821L115.623 107.56Z" fill="#A02724"/>
<path d="M117.215 103.678C117.26 103.662 117.3 103.633 117.33 103.596C117.36 103.558 117.379 103.513 117.386 103.466C117.396 103.393 117.378 103.32 117.335 103.26C117.292 103.201 117.228 103.16 117.156 103.147C116.726 103.072 116.284 103.101 115.867 103.233C115.451 103.364 115.072 103.594 114.763 103.902C114.731 103.925 114.705 103.955 114.686 103.988C114.666 104.022 114.654 104.06 114.651 104.098C114.647 104.137 114.651 104.176 114.663 104.213C114.675 104.25 114.695 104.284 114.722 104.313C114.748 104.342 114.78 104.365 114.816 104.38C114.851 104.396 114.89 104.404 114.929 104.403C114.968 104.403 115.006 104.394 115.042 104.378C115.077 104.362 115.109 104.339 115.134 104.309L115.17 104.268C115.418 104.027 115.72 103.847 116.051 103.745C116.382 103.642 116.732 103.619 117.073 103.678C117.12 103.69 117.169 103.69 117.215 103.678Z" fill="#263238"/>
<path d="M100.281 103.101C99.8031 108.852 99.479 111.276 101.925 114.62C105.615 119.645 112.788 118.985 114.957 113.493C116.932 108.545 117.38 99.9749 112.14 96.902C111.25 96.3749 110.265 96.0286 109.241 95.883C108.218 95.7374 107.175 95.7952 106.174 96.0533C105.172 96.3113 104.232 96.7645 103.405 97.3868C102.579 98.0091 101.884 98.7884 101.359 99.68C100.738 100.721 100.369 101.892 100.281 103.101Z" fill="#CB7A63"/>
<path d="M115.093 113.144C114.655 112.768 114.326 112.281 114.138 111.735C114.133 111.705 114.139 111.673 114.154 111.647C114.169 111.62 114.192 111.599 114.221 111.587C114.25 111.58 114.282 111.585 114.308 111.6C114.335 111.615 114.354 111.641 114.362 111.67C114.536 112.139 114.816 112.561 115.182 112.903L115.093 113.144Z" fill="#263238"/>
<path d="M96.1843 95.6273C93.9976 98.5763 93.0014 99.3667 95.7128 107.276C96.8032 110.455 99.9685 114.666 101.507 115.05C104.265 115.746 106.947 113.811 109.016 111.859C110.899 110.22 112.476 108.259 113.673 106.067C114.781 103.832 115.188 101.148 114.262 98.83C113.272 96.3115 109.777 94.0643 107.16 93.5216C104.094 92.8611 98.0057 93.156 96.1843 95.6273Z" fill="#263238"/>
<path d="M113.39 106.558C113.39 106.558 114.079 107.737 113.207 108.628V107.053L113.39 106.558Z" fill="#263238"/>
<path d="M113.39 106.558C113.39 106.558 113.643 108.374 112.122 109.053L112.936 107.094L113.39 106.558Z" fill="#263238"/>
<path d="M103.24 114.383C103.24 114.383 101.566 115.144 101.808 116.789L103.028 115.049L103.24 114.383Z" fill="#263238"/>
<path d="M103.304 114.425C103.304 114.425 102.031 115.746 102.868 117.191L103.358 115.121L103.304 114.425Z" fill="#263238"/>
<path d="M115.665 104.179C116.287 103.587 116.837 102.924 117.304 102.203C117.781 101.48 117.99 100.611 117.893 99.7497C117.774 99.2063 117.537 98.6958 117.199 98.2544C116.861 97.813 116.43 97.4515 115.936 97.1958C114.95 96.6872 113.893 96.3312 112.8 96.14C112.283 95.9539 111.714 95.9708 111.209 96.1872C110.999 96.3428 110.833 96.5514 110.73 96.7918C110.626 97.0322 110.588 97.2957 110.619 97.5556C110.676 98.0791 110.819 98.5894 111.044 99.0655C111.762 100.975 112.291 102.951 112.623 104.964C112.806 105.978 112.671 106.656 113.673 106.261C114.292 106.031 115.158 104.716 115.665 104.179Z" fill="#263238"/>
<path d="M107.731 107.023C107.67 108.353 108.139 109.653 109.034 110.638C110.213 111.936 111.757 111.086 112.193 109.459C112.588 108.008 112.441 105.583 110.867 104.887C109.293 104.191 107.814 105.401 107.731 107.023Z" fill="#CB7A63"/>
<path d="M174.585 180.732L179.135 176.296L170.323 165.214L164.824 168.464L174.585 180.732Z" fill="#CB7A63"/>
<path d="M183.779 174.925C183.278 174.748 182.241 175.314 181.451 175.815C181.251 175.939 181.074 176.063 180.921 176.169L180.844 176.228C180.667 176.352 180.537 176.446 180.49 176.488C180.463 176.5 180.442 176.522 180.429 176.549C180.416 176.576 180.413 176.606 180.42 176.635C180.428 176.665 180.446 176.691 180.47 176.71C180.495 176.729 180.524 176.74 180.555 176.741C181.098 176.765 181.642 176.747 182.182 176.688L182.541 176.647C182.931 176.618 183.307 176.487 183.632 176.269C183.751 176.197 183.861 176.112 183.962 176.016C184.047 175.913 184.105 175.791 184.131 175.66C184.157 175.529 184.149 175.394 184.109 175.267C184.086 175.188 184.043 175.115 183.986 175.056C183.928 174.996 183.858 174.951 183.779 174.925ZM183.815 175.349C183.844 175.435 183.85 175.527 183.832 175.616C183.815 175.705 183.774 175.788 183.714 175.857C183.469 176.094 183.156 176.251 182.819 176.305C182.42 176.396 182.013 176.45 181.604 176.464C181.416 176.464 181.219 176.464 181.015 176.464L181.215 176.317C181.26 176.279 181.307 176.246 181.357 176.216C181.99 175.77 182.688 175.422 183.426 175.184C183.516 175.158 183.612 175.158 183.703 175.184C183.735 175.199 183.762 175.222 183.782 175.251C183.802 175.28 183.813 175.314 183.815 175.349Z" fill="#58B368"/>
<path opacity="0.2" d="M169.863 164.535L174.007 169.843L168.401 172.975L164.193 167.803L169.863 164.535Z" fill="black"/>
<path d="M93.6264 159.777L93.037 162.071C92.9485 162.248 93.1666 162.419 93.4555 162.413L119.432 161.823C119.661 161.823 119.844 161.699 119.856 161.552L119.208 159.151C119.208 158.998 119.019 158.868 118.771 158.874L94.0154 159.606C93.9418 159.602 93.8683 159.616 93.8008 159.645C93.7333 159.675 93.6736 159.72 93.6264 159.777Z" fill="#263238"/>
<path d="M116.744 162.069L116.06 162.146C115.924 162.146 115.812 162.105 115.812 162.016V159.067C115.812 158.979 115.924 158.896 116.054 158.884L116.738 158.802C116.873 158.802 116.985 158.849 116.985 158.937V161.886C116.985 161.975 116.879 162.058 116.744 162.069Z" fill="#58B368"/>
<path d="M107.442 162.199L106.759 162.27C106.629 162.27 106.517 162.229 106.517 162.14V159.191C106.517 159.109 106.629 159.026 106.764 159.008L107.442 158.932C107.578 158.932 107.69 158.973 107.69 159.061V162.01C107.69 162.105 107.578 162.199 107.442 162.199Z" fill="#58B368"/>
<path d="M107.442 162.199L106.759 162.27C106.629 162.27 106.517 162.229 106.517 162.14V159.191C106.517 159.109 106.629 159.026 106.764 159.008L107.442 158.932C107.578 158.932 107.69 158.973 107.69 159.061V162.01C107.69 162.105 107.578 162.199 107.442 162.199Z" fill="#58B368"/>
<path d="M173.346 166.919L172.197 167.568L170.216 168.689L168.448 169.686L166.627 170.712L165.925 171.107L165.489 170.783C165.383 170.712 165.259 170.624 165.118 170.511C164.681 170.187 164.08 169.739 163.349 169.178C159.689 166.277 153.164 160.579 151.219 155.395C149.963 156.893 148.46 158.774 146.739 160.85C139.324 169.798 127.819 182.426 113.979 184.071L113.13 184.16C108.503 184.555 104.878 184.095 102.019 183.051C94.8341 180.414 92.8301 174.098 93.3193 168.724C93.3665 166.206 93.8557 161.723 93.8557 161.723H120.073C123.763 157.235 131.178 150.204 138.753 145.798C138.929 145.686 139.112 145.58 139.295 145.486C139.478 145.391 139.749 145.226 139.973 145.102C142.258 143.811 144.701 142.82 147.24 142.153C147.759 142.029 148.272 141.923 148.779 141.847C149.298 141.769 149.822 141.72 150.347 141.699C153.936 141.54 157.054 142.879 159.188 146.459L172.951 166.33L173.346 166.919Z" fill="#58B368"/>
<path d="M159.2 139.655L130.235 140.853L131.084 122.409L160.049 121.212L159.2 139.655Z" fill="#58B368"/>
<path d="M158.864 141.107L130.318 142.287C130.13 142.299 129.942 142.271 129.766 142.204C129.59 142.138 129.431 142.034 129.299 141.9C129.166 141.767 129.064 141.606 128.999 141.43C128.934 141.253 128.907 141.065 128.921 140.877L129.758 122.551C129.783 122.152 129.954 121.776 130.237 121.493C130.52 121.211 130.897 121.042 131.296 121.018L159.842 119.838C160.03 119.827 160.218 119.856 160.393 119.923C160.568 119.99 160.728 120.093 160.86 120.227C160.992 120.36 161.094 120.52 161.16 120.696C161.225 120.873 161.252 121.061 161.239 121.248L160.397 139.573C160.374 139.973 160.205 140.35 159.923 140.633C159.64 140.916 159.263 141.084 158.864 141.107Z" fill="#263238"/>
<path d="M159.2 139.655L130.235 140.853L131.084 122.409L160.049 121.212L159.2 139.655Z" fill="#58B368"/>
<path opacity="0.9" d="M159.2 139.655L130.235 140.853L131.084 122.409L160.049 121.212L159.2 139.655Z" fill="white"/>
<path opacity="0.1" d="M141.364 120.61L136.578 142.02L138.481 141.943L143.203 120.533L141.364 120.61Z" fill="white"/>
<path opacity="0.1" d="M144.299 120.485L139.513 141.896L143.291 141.742L148.013 120.332L144.299 120.485Z" fill="white"/>
<path d="M149.799 141.338L159.442 141.066C159.607 142.187 159.13 142.606 158.516 142.623L155.434 142.7L153.371 142.747L150.17 142.836L130.312 143.426L130.153 142.028L149.799 141.338Z" fill="#58B368"/>
<path d="M149.799 141.338L159.442 141.066C159.607 142.187 159.129 142.606 158.516 142.624L155.434 142.7L153.371 142.747L150.17 142.836L125.591 143.591C125.453 143.596 125.316 143.561 125.198 143.49C125.079 143.419 124.984 143.314 124.925 143.19C124.874 143.083 124.85 142.965 124.856 142.847C124.862 142.728 124.897 142.614 124.959 142.512C125.02 142.411 125.106 142.327 125.208 142.267C125.31 142.207 125.425 142.173 125.544 142.169L149.799 141.338Z" fill="#58B368"/>
<path opacity="0.2" d="M149.799 141.338L159.442 141.066C159.607 142.187 159.129 142.606 158.516 142.624L155.434 142.7L153.371 142.747L150.17 142.836L125.591 143.591C125.453 143.596 125.316 143.561 125.198 143.49C125.079 143.419 124.984 143.314 124.925 143.19C124.874 143.083 124.85 142.965 124.856 142.847C124.862 142.728 124.897 142.614 124.959 142.512C125.02 142.411 125.106 142.327 125.208 142.267C125.31 142.207 125.425 142.173 125.544 142.169L149.799 141.338Z" fill="black"/>
<path opacity="0.2" d="M159.442 141.066L159.501 141.456C159.524 141.599 159.515 141.746 159.477 141.887C159.438 142.027 159.37 142.157 159.276 142.269C159.183 142.381 159.067 142.471 158.936 142.535C158.805 142.598 158.662 142.632 158.517 142.635L155.434 142.712L149.705 142.918L149.799 141.35L159.442 141.066Z" fill="black"/>
<path opacity="0.2" d="M109.494 129.359C109.494 129.359 108.132 132.137 112.063 139.475L113.708 142.465C114.25 143.45 117.834 141.439 118.93 139.593C118.93 139.593 112.034 135.452 109.494 129.359Z" fill="black"/>
<path d="M142.861 137.911L145.602 137.103L145.166 141.337C145.166 141.337 141.34 143.897 140.014 141.449L140.55 140.087C140.748 139.574 141.058 139.112 141.458 138.736C141.858 138.359 142.337 138.077 142.861 137.911Z" fill="#CB7A63"/>
<path d="M148.755 138.767L148.413 140.294C148.364 140.525 148.241 140.733 148.064 140.888C147.886 141.043 147.664 141.137 147.429 141.156L145.148 141.338L145.59 137.098L147.83 137.452C148.117 137.49 148.378 137.64 148.555 137.87C148.731 138.1 148.81 138.391 148.773 138.678L148.755 138.767Z" fill="#CB7A63"/>
<path d="M120.015 145.093C121.931 147.688 124.619 149.859 127.778 150.478C131.503 151.203 138.671 145.93 142.03 142.521C141.865 141.082 141.96 140.304 140.527 140.103C140.527 140.103 136.826 142.816 129.853 144.444C127.595 144.969 126.092 142.675 124.129 139.307C123.151 137.638 120.003 130.772 118.783 129.245C116.862 126.791 111.404 128.549 113.573 134.453C114.48 136.918 118.453 142.958 120.015 145.093Z" fill="#CB7A63"/>
<path d="M117.975 125.214C121.848 128.752 123.734 135.075 123.734 135.075L114.686 140.596C114.686 140.596 108.084 131.3 109.263 128.062C110.195 125.55 111.922 123.898 114.191 123.757C114.887 123.734 115.581 123.851 116.231 124.101C116.881 124.351 117.474 124.73 117.975 125.214Z" fill="#58B368"/>
<path d="M97.2158 162.548H96.532C96.3965 162.548 96.2845 162.483 96.2963 162.394L96.5497 159.445C96.5497 159.357 96.6735 159.286 96.8091 159.28H97.4928C97.6284 159.28 97.7404 159.351 97.7286 159.434L97.4751 162.383C97.4611 162.438 97.4264 162.486 97.3782 162.517C97.33 162.548 97.2719 162.559 97.2158 162.548Z" fill="#58B368"/>
<path d="M164.806 172.363L173.624 167.951L172.869 164.813L162.814 169.402L164.806 172.363Z" fill="#58B368"/>
<path opacity="0.5" d="M164.806 172.363L173.624 167.951L172.869 164.813L162.814 169.402L164.806 172.363Z" fill="white"/>
<path d="M178.781 175.812L172.698 177.652C172.583 177.684 172.482 177.756 172.415 177.855C172.348 177.955 172.319 178.075 172.333 178.194L173.07 183.715C173.09 183.845 173.137 183.969 173.206 184.081C173.275 184.193 173.366 184.29 173.473 184.366C173.58 184.442 173.701 184.496 173.829 184.525C173.957 184.555 174.09 184.558 174.219 184.535H174.325C184.487 182.842 187.841 180.996 188.931 180.607C192.055 179.551 190.806 177.251 189.698 177.316C184.723 177.622 183.173 177.044 181.198 176.136C180.432 175.829 179.601 175.718 178.781 175.812Z" fill="#263238"/>
<path d="M96.9859 103.033C95.1587 103.322 93.3491 101.918 92.7774 100.16C92.5415 99.2654 92.4947 98.3311 92.6398 97.4172C92.7849 96.5032 93.1189 95.6295 93.6203 94.8519C94.3099 93.6723 98.8308 90.8766 100.505 94.0262C103.841 100.266 96.9859 103.033 96.9859 103.033Z" fill="#263238"/>
<path d="M158.941 127.533L141.111 128.288L141.193 126.519L159.024 125.764L158.941 127.533Z" fill="#58B368"/>
<g opacity="0.7">
<path opacity="0.7" d="M158.941 127.533L141.111 128.288L141.193 126.519L159.024 125.764L158.941 127.533Z" fill="white"/>
</g>
<path d="M158.835 129.987L141.004 130.748L141.081 128.979L158.911 128.218L158.835 129.987Z" fill="#58B368"/>
<g opacity="0.7">
<path opacity="0.7" d="M158.835 129.987L141.004 130.748L141.081 128.979L158.911 128.218L158.835 129.987Z" fill="white"/>
</g>
<path d="M158.723 132.447L140.893 133.208L140.975 131.433L158.8 130.678L158.723 132.447Z" fill="#58B368"/>
<g opacity="0.7">
<path opacity="0.7" d="M158.723 132.447L140.893 133.208L140.975 131.433L158.8 130.678L158.723 132.447Z" fill="white"/>
</g>
<path d="M158.611 134.9L140.78 135.661L140.863 133.892L158.693 133.131L158.611 134.9Z" fill="#58B368"/>
<g opacity="0.7">
<path opacity="0.7" d="M158.611 134.9L140.78 135.661L140.863 133.892L158.693 133.131L158.611 134.9Z" fill="white"/>
</g>
<path d="M158.505 137.359L140.675 138.12L140.751 136.351L158.581 135.59L158.505 137.359Z" fill="#58B368"/>
<g opacity="0.7">
<path opacity="0.7" d="M158.505 137.359L140.675 138.12L140.751 136.351L158.581 135.59L158.505 137.359Z" fill="white"/>
</g>
<path d="M133.901 129.288L132.47 129.35L132.495 129.939L133.926 129.877L133.901 129.288Z" fill="#58B368"/>
<g opacity="0.5">
<path opacity="0.5" d="M133.901 129.287L132.47 129.349L132.495 129.938L133.926 129.876L133.901 129.287Z" fill="white"/>
</g>
<path d="M133.833 130.993L132.402 131.055L132.427 131.644L133.858 131.582L133.833 130.993Z" fill="#58B368"/>
<g opacity="0.5">
<path opacity="0.5" d="M133.833 130.993L132.402 131.055L132.427 131.644L133.858 131.583L133.833 130.993Z" fill="white"/>
</g>
<path d="M133.402 133.159L131.969 133.217L131.993 133.807L133.425 133.749L133.402 133.159Z" fill="#58B368"/>
<g opacity="0.5">
<path opacity="0.5" d="M133.402 133.16L131.969 133.217L131.993 133.807L133.425 133.749L133.402 133.16Z" fill="white"/>
</g>
<path d="M133.702 134.396L132.271 134.458L132.296 135.047L133.727 134.986L133.702 134.396Z" fill="#58B368"/>
<g opacity="0.5">
<path opacity="0.5" d="M133.702 134.392L132.271 134.453L132.296 135.042L133.727 134.981L133.702 134.392Z" fill="white"/>
</g>
<path d="M133.255 136.559L131.822 136.616L131.846 137.206L133.278 137.149L133.255 136.559Z" fill="#58B368"/>
<g opacity="0.5">
<path opacity="0.5" d="M132.234 136.741L132.287 136.151L133.713 136.086L133.66 136.682L132.234 136.741Z" fill="white"/>
</g>
<path d="M133.568 137.797L132.137 137.857L132.162 138.447L133.593 138.386L133.568 137.797Z" fill="#58B368"/>
<g opacity="0.5">
<path opacity="0.5" d="M133.568 137.797L132.137 137.857L132.162 138.447L133.593 138.387L133.568 137.797Z" fill="white"/>
</g>
<path d="M135.399 127.657L132.44 128.76L132.47 127.981L134.108 127.716L132.487 127.604L132.517 126.825L135.399 127.657Z" fill="#58B368"/>
<path d="M153.465 124.843L141.111 125.368L141.17 124.141L153.524 123.616L153.465 124.843Z" fill="#58B368"/>
<g opacity="0.7">
<path opacity="0.7" d="M153.465 124.843L141.111 125.368L141.17 124.141L153.524 123.616L153.465 124.843Z" fill="white"/>
</g>
<path d="M136.796 125.476L134.986 125.559L135.717 125.093L135.918 125.276L136.136 125.087L136.796 125.476Z" fill="#58B368"/>
<path d="M135.646 125.031L134.915 125.503L134.968 124.418L135.646 125.031Z" fill="#58B368"/>
<path d="M136.914 124.391L136.855 125.411L136.189 125.022L136.914 124.391Z" fill="#58B368"/>
<path d="M135.937 124.843L135.897 124.886L135.901 124.89L135.941 124.847L135.937 124.843Z" fill="white"/>
<path d="M135.908 124.848L135.904 124.853L135.945 124.895L135.949 124.891L135.908 124.848Z" fill="white"/>
<path d="M136.914 124.284L136.136 124.992L135.918 125.187L135.717 124.998L135.039 124.384L134.986 124.337L136.914 124.284Z" fill="#58B368"/>
<path d="M133.905 124.491L132.474 124.552L132.481 124.729L133.912 124.668L133.905 124.491Z" fill="#58B368"/>
<path d="M133.905 124.935L132.474 124.996L132.482 125.173L133.913 125.112L133.905 124.935Z" fill="#58B368"/>
<path d="M133.907 125.398L132.476 125.459L132.484 125.636L133.915 125.575L133.907 125.398Z" fill="#58B368"/>
<path d="M103.08 139.017L108.427 200.169H99.8327L94.0798 134.363H98.029C99.2993 134.369 100.522 134.849 101.456 135.71C102.391 136.571 102.97 137.751 103.08 139.017Z" fill="#58B368"/>
<path opacity="0.2" d="M103.133 139.571L108.438 200.169H99.8327L94.0798 134.363H97.4749C98.8971 134.37 100.266 134.907 101.312 135.87C102.359 136.834 103.009 138.154 103.133 139.571Z" fill="black"/>
<path d="M97.4753 138.35L102.88 200.169H51.6L46.2952 139.111C46.242 138.508 46.3149 137.901 46.509 137.327C46.7032 136.754 47.0144 136.227 47.423 135.781C47.8315 135.334 48.3284 134.977 48.8822 134.733C49.4359 134.489 50.0343 134.363 50.6393 134.363H93.1843C94.2664 134.377 95.3048 134.792 96.0978 135.529C96.8909 136.266 97.3818 137.272 97.4753 138.35Z" fill="#58B368"/>
<path opacity="0.2" d="M97.5397 139.023L102.886 200.169H51.6055L46.3183 139.913C46.2562 139.209 46.3412 138.499 46.568 137.829C46.7948 137.159 47.1583 136.543 47.6356 136.021C48.1128 135.499 48.6933 135.082 49.3402 134.797C49.9871 134.511 50.6863 134.364 51.3933 134.363H92.4647C93.7397 134.364 94.9679 134.843 95.9073 135.706C96.8468 136.568 97.4292 137.752 97.5397 139.023Z" fill="white"/>
<path d="M187.77 200.171H51.8179L50.3207 183.214H180.82C182.304 183.241 183.727 183.811 184.82 184.816C185.912 185.821 186.599 187.192 186.75 188.67L187.77 200.171Z" fill="#58B368"/>
<path opacity="0.2" d="M187.77 200.171H51.8179L50.3207 183.214H180.82C182.304 183.241 183.727 183.811 184.82 184.816C185.912 185.821 186.599 187.192 186.75 188.67L187.77 200.171Z" fill="white"/>
<path d="M194.005 206.664H50.22C49.3247 206.662 48.4665 206.305 47.8335 205.672C47.2004 205.038 46.8441 204.18 46.8425 203.284C46.8425 202.388 47.1984 201.528 47.8318 200.894C48.4651 200.26 49.3242 199.904 50.22 199.904H194.005C194.901 199.904 195.76 200.26 196.394 200.894C197.027 201.528 197.383 202.388 197.383 203.284C197.381 204.18 197.025 205.038 196.392 205.672C195.759 206.305 194.901 206.662 194.005 206.664Z" fill="#58B368"/>
<path opacity="0.2" d="M194.005 206.664H110.536C109.641 206.664 108.782 206.308 108.148 205.674C107.515 205.04 107.159 204.18 107.159 203.284C107.158 202.84 107.245 202.4 107.414 201.99C107.584 201.579 107.833 201.206 108.146 200.892C108.46 200.578 108.833 200.33 109.243 200.16C109.653 199.99 110.093 199.904 110.536 199.904H194.005C194.901 199.904 195.76 200.26 196.394 200.894C197.027 201.528 197.383 202.388 197.383 203.284C197.381 204.18 197.025 205.039 196.392 205.672C195.759 206.305 194.901 206.662 194.005 206.664Z" fill="black"/>
<path d="M52.1075 206.66L53.811 212.458H57.2179L59.0923 206.66H52.1075Z" fill="#263238"/>
<path opacity="0.5" d="M52.1075 206.66L53.811 212.458H57.2179L59.0923 206.66H52.1075Z" fill="white"/>
<path d="M100.929 206.66L102.632 212.458H106.039L107.92 206.66H100.929Z" fill="#263238"/>
<path opacity="0.5" d="M100.929 206.66L102.632 212.458H106.039L107.92 206.66H100.929Z" fill="white"/>
<path d="M138.299 206.66L140.003 212.458H143.41L145.284 206.66H138.299Z" fill="#263238"/>
<path opacity="0.5" d="M138.299 206.66L140.003 212.458H143.41L145.284 206.66H138.299Z" fill="white"/>
<path d="M187.122 206.66L188.825 212.458H192.232L194.107 206.66H187.122Z" fill="#263238"/>
<path opacity="0.5" d="M187.122 206.66L188.825 212.458H192.232L194.107 206.66H187.122Z" fill="white"/>
<path d="M85.6218 132.064H81.8907C81.8125 132.064 81.7376 132.033 81.6823 131.978C81.627 131.923 81.596 131.848 81.596 131.77C81.596 131.691 81.627 131.616 81.6823 131.561C81.7376 131.506 81.8125 131.475 81.8907 131.475H85.6218C85.6995 131.476 85.7736 131.508 85.8285 131.563C85.8834 131.618 85.915 131.692 85.9165 131.77C85.9165 131.848 85.8854 131.923 85.8302 131.978C85.7749 132.033 85.6999 132.064 85.6218 132.064Z" fill="#58B368"/>
<path d="M79.4091 132.064H60.7065C60.6284 132.064 60.5534 132.033 60.4981 131.978C60.4429 131.923 60.4118 131.848 60.4118 131.77C60.4133 131.692 60.4448 131.618 60.4998 131.563C60.5547 131.508 60.6288 131.476 60.7065 131.475H79.4091C79.4868 131.476 79.5609 131.508 79.6158 131.563C79.6708 131.618 79.7023 131.692 79.7038 131.77C79.7038 131.848 79.6728 131.923 79.6175 131.978C79.5622 132.033 79.4873 132.064 79.4091 132.064Z" fill="#58B368"/>
<path d="M145.72 166.197C145.647 166.195 145.576 166.168 145.52 166.12C145.492 166.093 145.47 166.06 145.455 166.024C145.44 165.988 145.433 165.95 145.433 165.911C145.433 165.872 145.44 165.833 145.455 165.797C145.47 165.761 145.492 165.729 145.52 165.701L147.288 163.802C147.315 163.774 147.348 163.752 147.384 163.738C147.42 163.723 147.458 163.715 147.497 163.715C147.536 163.715 147.575 163.723 147.611 163.738C147.647 163.752 147.679 163.774 147.707 163.802C147.761 163.858 147.791 163.933 147.791 164.011C147.791 164.09 147.761 164.165 147.707 164.221L145.938 166.12C145.878 166.173 145.8 166.201 145.72 166.197Z" fill="#58B368"/>
<path d="M129.74 181.314C129.686 181.314 129.632 181.299 129.586 181.269C129.54 181.24 129.504 181.198 129.481 181.149C129.463 181.114 129.452 181.077 129.449 181.038C129.445 180.999 129.45 180.96 129.462 180.923C129.474 180.886 129.493 180.852 129.519 180.823C129.545 180.794 129.576 180.77 129.611 180.753C135.069 177.987 143.728 167.642 143.816 167.536C143.84 167.506 143.871 167.481 143.905 167.463C143.939 167.445 143.976 167.434 144.015 167.431C144.053 167.427 144.092 167.432 144.129 167.444C144.165 167.456 144.199 167.475 144.229 167.5C144.288 167.552 144.325 167.624 144.331 167.702C144.338 167.781 144.314 167.858 144.264 167.919C143.91 168.344 135.422 178.459 129.876 181.278C129.835 181.302 129.788 181.314 129.74 181.314Z" fill="#58B368"/>
</svg>
